solid thesis3
facet normal -0.08013291277300655 0.9941509639725751 0.07240564289413937
  outer loop
    vertex 2882.5645623232367 9969.618620992615 701.8284319100904
    vertex 2904.343604822047 9971.42652792738 701.1086771085253
    vertex 3186.504892926731 10014.119377445051 427.1972687930992
  endloop
endfacet
facet normal -0.08013291277300655 0.9941509639725751 0.07240564289413937
  outer loop
    vertex 2904.343604822047 9971.42652792738 701.1086771085253
    vertex 2882.5645623232367 9969.618620992615 701.8284319100904
    vertex 3174.955000041695 9969.618620992613 1025.4233411578457
  endloop
endfacet
facet normal -0.08013291277300655 0.9941509639725751 0.07240564289413937
  outer loop
    vertex 2904.343604822047 9971.42652792738 701.1086771085253
    vertex 3174.955000041695 9969.618620992613 1025.4233411578457
    vertex 3177.871979599965 9971.42652792738 1003.8285276741419
  endloop
endfacet
facet normal -0.08013291277300655 0.9941509639725751 0.07240564289413937
  outer loop
    vertex 3177.871979599965 9971.42652792738 1003.8285276741419
    vertex 3174.955000041695 9969.618620992613 1025.4233411578457
    vertex 3457.1162881463792 10012.311470510285 751.5119328424194
  endloop
endfacet
facet normal -0.08013291277300655 0.9941509639725751 0.07240564289413937
  outer loop
    vertex 3186.504892926731 10014.119377445051 427.1972687930992
    vertex 3183.5879133684607 10012.311470510285 448.7920822768027
    vertex 3478.895330645189 10014.119377445051 750.7921780408542
  endloop
endfacet
facet normal -0.08013291277300655 0.9941509639725751 0.07240564289413937
  outer loop
    vertex 3183.5879133684607 10012.311470510285 448.7920822768027
    vertex 3186.504892926731 10014.119377445051 427.1972687930992
    vertex 2904.343604822047 9971.42652792738 701.1086771085253
  endloop
endfacet
facet normal -0.08013291277300655 0.9941509639725751 0.07240564289413937
  outer loop
    vertex 3478.895330645189 10014.119377445051 750.7921780408542
    vertex 3183.5879133684607 10012.311470510285 448.7920822768027
    vertex 3457.1162881463792 10012.311470510285 751.5119328424194
  endloop
endfacet
facet normal -0.08013291277300655 0.9941509639725751 0.07240564289413937
  outer loop
    vertex 3478.895330645189 10014.119377445051 750.7921780408542
    vertex 3457.1162881463792 10012.311470510285 751.5119328424194
    vertex 3174.955000041695 9969.618620992613 1025.4233411578457
  endloop
endfacet
facet normal -0.7376359975500734 -0.10799935570363334 0.6665052695109832
  outer loop
    vertex 2882.5645623232367 9969.618620992615 701.8284319100904
    vertex 2890.7012483788158 9956.656060020225 708.7330499417648
    vertex 3174.955000041695 9969.618620992613 1025.4233411578457
  endloop
endfacet
facet normal -0.7376359975500734 -0.10799935570363334 0.6665052695109832
  outer loop
    vertex 2890.7012483788158 9956.656060020225 708.7330499417648
    vertex 2882.5645623232367 9969.618620992615 701.8284319100904
    vertex 2913.6407846223797 9584.078456705385 673.7489103199481
  endloop
endfacet
facet normal -0.7376359975500734 -0.10799935570363334 0.6665052695109832
  outer loop
    vertex 2890.7012483788158 9956.656060020225 708.7330499417648
    vertex 2913.6407846223797 9584.078456705385 673.7489103199481
    vertex 2919.6877925398126 9597.041017677775 682.5416974421796
  endloop
endfacet
facet normal -0.7376359975500734 -0.10799935570363334 0.6665052695109832
  outer loop
    vertex 2919.6877925398126 9597.041017677775 682.5416974421796
    vertex 2913.6407846223797 9584.078456705385 673.7489103199481
    vertex 3197.8945362852596 9597.041017677775 990.4392015360289
  endloop
endfacet
facet normal -0.7376359975500734 -0.10799935570363334 0.6665052695109832
  outer loop
    vertex 3174.955000041695 9969.618620992613 1025.4233411578457
    vertex 3168.9079921242615 9956.656060020225 1016.6305540356141
    vertex 3206.0312223408378 9584.078456705385 997.3438195677027
  endloop
endfacet
facet normal -0.7376359975500734 -0.10799935570363334 0.6665052695109832
  outer loop
    vertex 3168.9079921242615 9956.656060020225 1016.6305540356141
    vertex 3174.955000041695 9969.618620992613 1025.4233411578457
    vertex 2890.7012483788158 9956.656060020225 708.7330499417648
  endloop
endfacet
facet normal -0.7376359975500734 -0.10799935570363334 0.6665052695109832
  outer loop
    vertex 3206.0312223408378 9584.078456705385 997.3438195677027
    vertex 3168.9079921242615 9956.656060020225 1016.6305540356141
    vertex 3197.8945362852596 9597.041017677775 990.4392015360289
  endloop
endfacet
facet normal -0.7376359975500734 -0.10799935570363334 0.6665052695109832
  outer loop
    vertex 3206.0312223408378 9584.078456705385 997.3438195677027
    vertex 3197.8945362852596 9597.041017677775 990.4392015360289
    vertex 2913.6407846223797 9584.078456705385 673.7489103199481
  endloop
endfacet
facet normal 0.6704266189590187 2.927596060391888e-17 0.7419758409754179
  outer loop
    vertex 3478.895330645189 10014.119377445051 750.7921780408542
    vertex 3469.7211434431606 9999.660620168706 759.0816922917054
    vertex 3509.9715529443315 9628.579213157822 722.7126564507116
  endloop
endfacet
facet normal 0.6704266189590187 2.927596060391888e-17 0.7419758409754179
  outer loop
    vertex 3469.7211434431606 9999.660620168706 759.0816922917054
    vertex 3478.895330645189 10014.119377445051 750.7921780408542
    vertex 3174.955000041695 9969.618620992613 1025.4233411578457
  endloop
endfacet
facet normal 0.6704266189590187 2.927596060391888e-17 0.7419758409754179
  outer loop
    vertex 3469.7211434431606 9999.660620168706 759.0816922917054
    vertex 3174.955000041695 9969.618620992613 1025.4233411578457
    vertex 3186.2188653818694 9958.152256324178 1015.2456578164375
  endloop
endfacet
facet normal 0.6704266189590187 2.927596060391888e-17 0.7419758409754179
  outer loop
    vertex 3186.2188653818694 9958.152256324178 1015.2456578164375
    vertex 3174.955000041695 9969.618620992613 1025.4233411578457
    vertex 3206.0312223408378 9584.078456705385 997.3438195677027
  endloop
endfacet
facet normal 0.6704266189590187 2.927596060391888e-17 0.7419758409754179
  outer loop
    vertex 3509.9715529443315 9628.579213157822 722.7126564507116
    vertex 3498.7076876041574 9640.045577826257 732.8903397921198
    vertex 3206.0312223408378 9584.078456705385 997.3438195677027
  endloop
endfacet
facet normal 0.6704266189590187 2.927596060391888e-17 0.7419758409754179
  outer loop
    vertex 3498.7076876041574 9640.045577826257 732.8903397921198
    vertex 3509.9715529443315 9628.579213157822 722.7126564507116
    vertex 3469.7211434431606 9999.660620168706 759.0816922917054
  endloop
endfacet
facet normal 0.6704266189590187 2.927596060391888e-17 0.7419758409754179
  outer loop
    vertex 3206.0312223408378 9584.078456705385 997.3438195677027
    vertex 3498.7076876041574 9640.045577826257 732.8903397921198
    vertex 3215.205409542867 9598.537213981728 989.0543053168518
  endloop
endfacet
facet normal 0.6704266189590187 2.927596060391888e-17 0.7419758409754179
  outer loop
    vertex 3206.0312223408378 9584.078456705385 997.3438195677027
    vertex 3215.205409542867 9598.537213981728 989.0543053168518
    vertex 3186.2188653818694 9958.152256324178 1015.2456578164375
  endloop
endfacet
facet normal 0.7376359975500734 0.10799935570363334 -0.6665052695109832
  outer loop
    vertex 3215.205409542867 9598.537213981728 989.0543053168518
    vertex 3179.127018395364 9958.152256324178 1007.3969552394838
    vertex 3186.2188653818694 9958.152256324178 1015.2456578164375
  endloop
endfacet
facet normal 0.7376359975500734 0.10799935570363334 -0.6665052695109832
  outer loop
    vertex 3179.127018395364 9958.152256324178 1007.3969552394838
    vertex 3215.205409542867 9598.537213981728 989.0543053168518
    vertex 3208.1135625563606 9598.537213981728 981.2056027398983
  endloop
endfacet
facet normal 0.08013291277300655 -0.9941509639725751 -0.07240564289413937
  outer loop
    vertex 3472.135191395445 10001.156816472663 741.210152834909
    vertex 3185.1356840435196 9999.660620168708 444.1247237046167
    vertex 3195.3547103146216 10001.156816472663 434.8911249084869
  endloop
endfacet
facet normal 0.08013291277300655 -0.9941509639725751 -0.07240564289413937
  outer loop
    vertex 3185.1356840435196 9999.660620168708 444.1247237046167
    vertex 3472.135191395445 10001.156816472663 741.210152834909
    vertex 3184.6327524375333 9999.348909537895 447.84799773152446
  endloop
endfacet
facet normal 0.08013291277300655 -0.9941509639725751 -0.07240564289413937
  outer loop
    vertex 3185.1356840435196 9999.660620168708 444.1247237046167
    vertex 3184.6327524375333 9999.348909537895 447.84799773152446
    vertex 2905.388443891119 9958.46396695499 700.1645925632467
  endloop
endfacet
facet normal 0.08013291277300655 -0.9941509639725751 -0.07240564289413937
  outer loop
    vertex 3184.6327524375333 9999.348909537895 447.84799773152446
    vertex 3472.135191395445 10001.156816472663 741.210152834909
    vertex 3458.1611272154532 9999.348909537897 750.5678482971407
  endloop
endfacet
facet normal 0.08013291277300655 -0.9941509639725751 -0.07240564289413937
  outer loop
    vertex 3469.7211434431606 9999.660620168706 759.0816922917054
    vertex 3179.127018395364 9958.152256324178 1007.3969552394838
    vertex 3461.9161651243435 9999.660620168708 750.4437516310388
  endloop
endfacet
facet normal 0.08013291277300655 -0.9941509639725751 -0.07240564289413937
  outer loop
    vertex 3179.127018395364 9958.152256324178 1007.3969552394838
    vertex 3469.7211434431606 9999.660620168706 759.0816922917054
    vertex 3186.2188653818694 9958.152256324178 1015.2456578164375
  endloop
endfacet
facet normal 0.08013291277300655 -0.9941509639725751 -0.07240564289413937
  outer loop
    vertex 3185.1356840435196 9999.660620168708 444.1247237046167
    vertex 2893.8284276634113 9958.152256324178 691.650748568682
    vertex 3177.330705724703 9999.660620168706 435.48678304394997
  endloop
endfacet
facet normal 0.08013291277300655 -0.9941509639725751 -0.07240564289413937
  outer loop
    vertex 2893.8284276634113 9958.152256324178 691.650748568682
    vertex 3185.1356840435196 9999.660620168708 444.1247237046167
    vertex 2900.9202746499172 9958.152256324178 699.499451145635
  endloop
endfacet
facet normal 0.08013291277300655 -0.9941509639725751 -0.07240564289413937
  outer loop
    vertex 2900.9202746499172 9958.152256324178 699.499451145635
    vertex 3185.1356840435196 9999.660620168708 444.1247237046167
    vertex 2890.7012483788158 9956.656060020225 708.7330499417648
  endloop
endfacet
facet normal 0.08013291277300655 -0.9941509639725751 -0.07240564289413937
  outer loop
    vertex 2890.7012483788158 9956.656060020225 708.7330499417648
    vertex 3185.1356840435196 9999.660620168708 444.1247237046167
    vertex 2905.388443891119 9958.46396695499 700.1645925632467
  endloop
endfacet
facet normal 0.08013291277300655 -0.9941509639725751 -0.07240564289413937
  outer loop
    vertex 2890.7012483788158 9956.656060020225 708.7330499417648
    vertex 2905.388443891119 9958.46396695499 700.1645925632467
    vertex 3168.9079921242615 9956.656060020225 1016.6305540356141
  endloop
endfacet
facet normal 0.08013291277300655 -0.9941509639725751 -0.07240564289413937
  outer loop
    vertex 3168.9079921242615 9956.656060020225 1016.6305540356141
    vertex 2905.388443891119 9958.46396695499 700.1645925632467
    vertex 3178.9168186690385 9958.46396695499 1002.8844431288629
  endloop
endfacet
facet normal 0.08013291277300655 -0.9941509639725751 -0.07240564289413937
  outer loop
    vertex 3168.9079921242615 9956.656060020225 1016.6305540356141
    vertex 3178.9168186690385 9958.46396695499 1002.8844431288629
    vertex 3458.1611272154532 9999.348909537897 750.5678482971407
  endloop
endfacet
facet normal 0.08013291277300655 -0.9941509639725751 -0.07240564289413937
  outer loop
    vertex 3168.9079921242615 9956.656060020225 1016.6305540356141
    vertex 3458.1611272154532 9999.348909537897 750.5678482971407
    vertex 3461.9161651243435 9999.660620168708 750.4437516310388
  endloop
endfacet
facet normal 0.08013291277300655 -0.9941509639725751 -0.07240564289413937
  outer loop
    vertex 3461.9161651243435 9999.660620168708 750.4437516310388
    vertex 3458.1611272154532 9999.348909537897 750.5678482971407
    vertex 3472.135191395445 10001.156816472663 741.210152834909
  endloop
endfacet
facet normal 0.08013291277300655 -0.9941509639725751 -0.07240564289413937
  outer loop
    vertex 3168.9079921242615 9956.656060020225 1016.6305540356141
    vertex 3461.9161651243435 9999.660620168708 750.4437516310388
    vertex 3179.127018395364 9958.152256324178 1007.3969552394838
  endloop
endfacet
facet normal -0.6704266189590187 -2.927596060391888e-17 -0.7419758409754179
  outer loop
    vertex 3501.1217355564413 9641.541774130212 715.018800335324
    vertex 3461.9161651243435 9999.660620168708 750.4437516310388
    vertex 3472.135191395445 10001.156816472663 741.210152834909
  endloop
endfacet
facet normal -0.6704266189590187 -2.927596060391888e-17 -0.7419758409754179
  outer loop
    vertex 3461.9161651243435 9999.660620168708 750.4437516310388
    vertex 3501.1217355564413 9641.541774130212 715.018800335324
    vertex 3490.90270928534 9640.045577826257 724.2523991314544
  endloop
endfacet
facet normal -0.7376359975500724 -0.1079993557036333 0.6665052695109843
  outer loop
    vertex 3490.90270928534 9640.045577826257 724.2523991314544
    vertex 3469.7211434431606 9999.660620168706 759.0816922917054
    vertex 3461.9161651243435 9999.660620168708 750.4437516310388
  endloop
endfacet
facet normal -0.7376359975500724 -0.1079993557036333 0.6665052695109843
  outer loop
    vertex 3469.7211434431606 9999.660620168706 759.0816922917054
    vertex 3490.90270928534 9640.045577826257 724.2523991314544
    vertex 3498.7076876041574 9640.045577826257 732.8903397921198
  endloop
endfacet
facet normal 0.6704266189590187 2.927596060391888e-17 0.7419758409754179
  outer loop
    vertex 2890.7012483788158 9956.656060020225 708.7330499417648
    vertex 2929.906818810914 9598.537213981728 673.3080986460498
    vertex 2900.9202746499172 9958.152256324178 699.499451145635
  endloop
endfacet
facet normal 0.6704266189590187 2.927596060391888e-17 0.7419758409754179
  outer loop
    vertex 2929.906818810914 9598.537213981728 673.3080986460498
    vertex 2890.7012483788158 9956.656060020225 708.7330499417648
    vertex 2919.6877925398126 9597.041017677775 682.5416974421796
  endloop
endfacet
facet normal -0.6704266189590187 -2.927596060391888e-17 -0.7419758409754179
  outer loop
    vertex 3197.8945362852596 9597.041017677775 990.4392015360289
    vertex 3179.127018395364 9958.152256324178 1007.3969552394838
    vertex 3208.1135625563606 9598.537213981728 981.2056027398983
  endloop
endfacet
facet normal -0.6704266189590187 -2.927596060391888e-17 -0.7419758409754179
  outer loop
    vertex 3179.127018395364 9958.152256324178 1007.3969552394838
    vertex 3197.8945362852596 9597.041017677775 990.4392015360289
    vertex 3168.9079921242615 9956.656060020225 1016.6305540356141
  endloop
endfacet
facet normal 0.7376359975500734 0.10799935570363334 -0.6665052695109832
  outer loop
    vertex 2929.906818810914 9598.537213981728 673.3080986460498
    vertex 2893.8284276634113 9958.152256324178 691.650748568682
    vertex 2900.9202746499172 9958.152256324178 699.499451145635
  endloop
endfacet
facet normal 0.7376359975500734 0.10799935570363334 -0.6665052695109832
  outer loop
    vertex 2893.8284276634113 9958.152256324178 691.650748568682
    vertex 2929.906818810914 9598.537213981728 673.3080986460498
    vertex 2922.8149718244085 9598.537213981728 665.4593960690969
  endloop
endfacet
facet normal 0.7376359975500734 0.10799935570363334 -0.6665052695109832
  outer loop
    vertex 3208.65354825592 9585.703741049134 977.9303688052129
    vertex 2932.175015755691 9598.666302021522 674.0459448496384
    vertex 3207.608709186846 9598.666302021522 978.8744533504913
  endloop
endfacet
facet normal 0.7376359975500734 0.10799935570363334 -0.6665052695109832
  outer loop
    vertex 2932.175015755691 9598.666302021522 674.0459448496384
    vertex 3208.65354825592 9585.703741049134 977.9303688052129
    vertex 2933.2198548247643 9585.703741049134 673.1018603043602
  endloop
endfacet
facet normal 0.6704266189590187 2.927596060391888e-17 0.7419758409754179
  outer loop
    vertex 3213.9139502417192 9639.916489786463 419.4752825107253
    vertex 2933.2198548247643 9585.703741049134 673.1018603043602
    vertex 3214.958789310793 9626.953928814075 418.5311979654464
  endloop
endfacet
facet normal 0.6704266189590187 2.927596060391888e-17 0.7419758409754179
  outer loop
    vertex 2933.2198548247643 9585.703741049134 673.1018603043602
    vertex 3213.9139502417192 9639.916489786463 419.4752825107253
    vertex 2932.175015755691 9598.666302021522 674.0459448496384
  endloop
endfacet
facet normal -0.6704266189590187 -2.927596060391888e-17 -0.7419758409754179
  outer loop
    vertex 3208.65354825592 9585.703741049134 977.9303688052129
    vertex 3489.347643672875 9639.916489786463 724.3037910115783
    vertex 3490.3924827419482 9626.953928814075 723.3597064662997
  endloop
endfacet
facet normal -0.6704266189590187 -2.927596060391888e-17 -0.7419758409754179
  outer loop
    vertex 3489.347643672875 9639.916489786463 724.3037910115783
    vertex 3208.65354825592 9585.703741049134 977.9303688052129
    vertex 3207.608709186846 9598.666302021522 978.8744533504913
  endloop
endfacet
facet normal -0.7376359975500734 -0.10799935570363334 0.6665052695109832
  outer loop
    vertex 3184.6327524375333 9999.348909537895 447.84799773152446
    vertex 3457.1162881463792 10012.311470510285 751.5119328424194
    vertex 3183.5879133684607 10012.311470510285 448.7920822768027
  endloop
endfacet
facet normal -0.7376359975500734 -0.10799935570363334 0.6665052695109832
  outer loop
    vertex 3457.1162881463792 10012.311470510285 751.5119328424194
    vertex 3184.6327524375333 9999.348909537895 447.84799773152446
    vertex 3458.1611272154532 9999.348909537897 750.5678482971407
  endloop
endfacet
facet normal 0.6704266189590187 2.927596060391888e-17 0.7419758409754179
  outer loop
    vertex 2904.343604822047 9971.42652792738 701.1086771085253
    vertex 3184.6327524375333 9999.348909537895 447.84799773152446
    vertex 3183.5879133684607 10012.311470510285 448.7920822768027
  endloop
endfacet
facet normal 0.6704266189590187 2.927596060391888e-17 0.7419758409754179
  outer loop
    vertex 3184.6327524375333 9999.348909537895 447.84799773152446
    vertex 2904.343604822047 9971.42652792738 701.1086771085253
    vertex 2905.388443891119 9958.46396695499 700.1645925632467
  endloop
endfacet
facet normal 0.7376359975500734 0.10799935570363334 -0.6665052695109832
  outer loop
    vertex 3178.9168186690385 9958.46396695499 1002.8844431288629
    vertex 2904.343604822047 9971.42652792738 701.1086771085253
    vertex 3177.871979599965 9971.42652792738 1003.8285276741419
  endloop
endfacet
facet normal 0.7376359975500734 0.10799935570363334 -0.6665052695109832
  outer loop
    vertex 2904.343604822047 9971.42652792738 701.1086771085253
    vertex 3178.9168186690385 9958.46396695499 1002.8844431288629
    vertex 2905.388443891119 9958.46396695499 700.1645925632467
  endloop
endfacet
facet normal -0.6704266189590187 -2.927596060391888e-17 -0.7419758409754179
  outer loop
    vertex 3178.9168186690385 9958.46396695499 1002.8844431288629
    vertex 3457.1162881463792 10012.311470510285 751.5119328424194
    vertex 3458.1611272154532 9999.348909537897 750.5678482971407
  endloop
endfacet
facet normal -0.6704266189590187 -2.927596060391888e-17 -0.7419758409754179
  outer loop
    vertex 3457.1162881463792 10012.311470510285 751.5119328424194
    vertex 3178.9168186690385 9958.46396695499 1002.8844431288629
    vertex 3177.871979599965 9971.42652792738 1003.8285276741419
  endloop
endfacet
facet normal -0.7376359975500733 -0.10799935570363334 0.6665052695109833
  outer loop
    vertex 3213.9139502417192 9639.916489786463 419.4752825107253
    vertex 3272.6153876934977 9626.953928814075 482.3410197461131
    vertex 3271.570548624424 9639.916489786465 483.2851042913917
  endloop
endfacet
facet normal -0.7376359975500733 -0.10799935570363334 0.6665052695109833
  outer loop
    vertex 3272.6153876934977 9626.953928814075 482.3410197461131
    vertex 3213.9139502417192 9639.916489786463 419.4752825107253
    vertex 3214.958789310793 9626.953928814075 418.5311979654464
  endloop
endfacet
facet normal 0.9861706119572297 0.06849823168036112 0.1509155935235538
  outer loop
    vertex 3271.570548624424 9639.916489786465 483.2851042913917
    vertex 3275.4392434025276 9628.579213157822 463.15060642592874
    vertex 3274.3944043334545 9641.541774130212 464.09469097120655
  endloop
endfacet
facet normal 0.9861706119572297 0.06849823168036112 0.1509155935235538
  outer loop
    vertex 3275.4392434025276 9628.579213157822 463.15060642592874
    vertex 3271.570548624424 9639.916489786465 483.2851042913917
    vertex 3272.6153876934977 9626.953928814075 482.3410197461131
  endloop
endfacet
facet normal -0.6704266189590187 -2.927596060391888e-17 -0.7419758409754179
  outer loop
    vertex 3217.581115225874 9628.579213157822 399.11774720295665
    vertex 3206.3172498856998 9640.045577826257 409.29543054436516
    vertex 3186.504892926731 10014.119377445051 427.1972687930992
  endloop
endfacet
facet normal -0.6704266189590187 -2.927596060391888e-17 -0.7419758409754179
  outer loop
    vertex 3206.3172498856998 9640.045577826257 409.29543054436516
    vertex 3217.581115225874 9628.579213157822 399.11774720295665
    vertex 2913.6407846223797 9584.078456705385 673.7489103199481
  endloop
endfacet
facet normal -0.6704266189590187 -2.927596060391888e-17 -0.7419758409754179
  outer loop
    vertex 3206.3172498856998 9640.045577826257 409.29543054436516
    vertex 2913.6407846223797 9584.078456705385 673.7489103199481
    vertex 2922.8149718244085 9598.537213981728 665.4593960690969
  endloop
endfacet
facet normal -0.6704266189590187 -2.927596060391888e-17 -0.7419758409754179
  outer loop
    vertex 2922.8149718244085 9598.537213981728 665.4593960690969
    vertex 2913.6407846223797 9584.078456705385 673.7489103199481
    vertex 2893.8284276634113 9958.152256324178 691.650748568682
  endloop
endfacet
facet normal -0.6704266189590187 -2.927596060391888e-17 -0.7419758409754179
  outer loop
    vertex 2893.8284276634113 9958.152256324178 691.650748568682
    vertex 2913.6407846223797 9584.078456705385 673.7489103199481
    vertex 2882.5645623232367 9969.618620992615 701.8284319100904
  endloop
endfacet
facet normal -0.6704266189590187 -2.927596060391888e-17 -0.7419758409754179
  outer loop
    vertex 3186.504892926731 10014.119377445051 427.1972687930992
    vertex 3177.330705724703 9999.660620168706 435.48678304394997
    vertex 2882.5645623232367 9969.618620992615 701.8284319100904
  endloop
endfacet
facet normal -0.6704266189590187 -2.927596060391888e-17 -0.7419758409754179
  outer loop
    vertex 3177.330705724703 9999.660620168706 435.48678304394997
    vertex 3186.504892926731 10014.119377445051 427.1972687930992
    vertex 3206.3172498856998 9640.045577826257 409.29543054436516
  endloop
endfacet
facet normal -0.6704266189590187 -2.927596060391888e-17 -0.7419758409754179
  outer loop
    vertex 2882.5645623232367 9969.618620992615 701.8284319100904
    vertex 3177.330705724703 9999.660620168706 435.48678304394997
    vertex 2893.8284276634113 9958.152256324178 691.650748568682
  endloop
endfacet
facet normal 0.6704266189590187 2.927596060391888e-17 0.7419758409754179
  outer loop
    vertex 3185.1356840435196 9999.660620168708 444.1247237046167
    vertex 3211.896391371227 9795.936169935887 419.94456911753355
    vertex 3195.3547103146216 10001.156816472663 434.8911249084869
  endloop
endfacet
facet normal 0.6704266189590187 2.927596060391888e-17 0.7419758409754179
  outer loop
    vertex 3211.896391371227 9795.936169935887 419.94456911753355
    vertex 3185.1356840435196 9999.660620168708 444.1247237046167
    vertex 3224.341254475618 9641.541774130212 408.69977240890154
  endloop
endfacet
facet normal 0.6704266189590187 2.927596060391888e-17 0.7419758409754179
  outer loop
    vertex 3224.341254475618 9641.541774130212 408.69977240890154
    vertex 3185.1356840435196 9999.660620168708 444.1247237046167
    vertex 3214.122228204516 9640.045577826257 417.93337120503145
  endloop
endfacet
facet normal -0.7376359975500736 -0.10799935570363332 0.666505269510983
  outer loop
    vertex 3177.330705724703 9999.660620168706 435.48678304394997
    vertex 3214.122228204516 9640.045577826257 417.93337120503145
    vertex 3185.1356840435196 9999.660620168708 444.1247237046167
  endloop
endfacet
facet normal -0.7376359975500736 -0.10799935570363332 0.666505269510983
  outer loop
    vertex 3214.122228204516 9640.045577826257 417.93337120503145
    vertex 3177.330705724703 9999.660620168706 435.48678304394997
    vertex 3206.3172498856998 9640.045577826257 409.29543054436516
  endloop
endfacet
facet normal 0.7376359975500734 0.10799935570363332 -0.6665052695109832
  outer loop
    vertex 3478.895330645189 10014.119377445051 750.7921780408542
    vertex 3472.135191395445 10001.156816472663 741.210152834909
    vertex 3186.504892926731 10014.119377445051 427.1972687930992
  endloop
endfacet
facet normal 0.7376359975500734 0.10799935570363332 -0.6665052695109832
  outer loop
    vertex 3472.135191395445 10001.156816472663 741.210152834909
    vertex 3478.895330645189 10014.119377445051 750.7921780408542
    vertex 3509.9715529443315 9628.579213157822 722.7126564507116
  endloop
endfacet
facet normal 0.7376359975500734 0.10799935570363332 -0.6665052695109832
  outer loop
    vertex 3472.135191395445 10001.156816472663 741.210152834909
    vertex 3509.9715529443315 9628.579213157822 722.7126564507116
    vertex 3501.1217355564413 9641.541774130212 715.018800335324
  endloop
endfacet
facet normal 0.7376359975500734 0.10799935570363332 -0.6665052695109832
  outer loop
    vertex 3501.1217355564413 9641.541774130212 715.018800335324
    vertex 3509.9715529443315 9628.579213157822 722.7126564507116
    vertex 3284.292792912849 9641.541774130212 475.04945467361176
  endloop
endfacet
facet normal 0.7376359975500734 0.10799935570363332 -0.6665052695109832
  outer loop
    vertex 3284.292792912849 9641.541774130212 475.04945467361176
    vertex 3509.9715529443315 9628.579213157822 722.7126564507116
    vertex 3285.337631981923 9628.579213157822 474.1053701283327
  endloop
endfacet
facet normal 0.7376359975500734 0.10799935570363332 -0.6665052695109832
  outer loop
    vertex 3275.4392434025276 9628.579213157822 463.15060642592874
    vertex 3224.341254475618 9641.541774130212 408.69977240890154
    vertex 3274.3944043334545 9641.541774130212 464.09469097120655
  endloop
endfacet
facet normal 0.7376359975500734 0.10799935570363332 -0.6665052695109832
  outer loop
    vertex 3186.504892926731 10014.119377445051 427.1972687930992
    vertex 3195.3547103146216 10001.156816472663 434.8911249084869
    vertex 3217.581115225874 9628.579213157822 399.11774720295665
  endloop
endfacet
facet normal 0.7376359975500734 0.10799935570363332 -0.6665052695109832
  outer loop
    vertex 3195.3547103146216 10001.156816472663 434.8911249084869
    vertex 3186.504892926731 10014.119377445051 427.1972687930992
    vertex 3472.135191395445 10001.156816472663 741.210152834909
  endloop
endfacet
facet normal 0.7376359975500734 0.10799935570363332 -0.6665052695109832
  outer loop
    vertex 3217.581115225874 9628.579213157822 399.11774720295665
    vertex 3195.3547103146216 10001.156816472663 434.8911249084869
    vertex 3211.896391371227 9795.936169935887 419.94456911753355
  endloop
endfacet
facet normal 0.7376359975500734 0.10799935570363332 -0.6665052695109832
  outer loop
    vertex 3217.581115225874 9628.579213157822 399.11774720295665
    vertex 3211.896391371227 9795.936169935887 419.94456911753355
    vertex 3224.341254475618 9641.541774130212 408.69977240890154
  endloop
endfacet
facet normal 0.7376359975500734 0.10799935570363332 -0.6665052695109832
  outer loop
    vertex 3217.581115225874 9628.579213157822 399.11774720295665
    vertex 3224.341254475618 9641.541774130212 408.69977240890154
    vertex 3275.4392434025276 9628.579213157822 463.15060642592874
  endloop
endfacet
facet normal -0.9861706119572298 -0.06849823168036112 -0.15091559352355388
  outer loop
    vertex 3282.5137762728923 9626.953928814075 493.2957834485174
    vertex 3284.292792912849 9641.541774130212 475.04945467361176
    vertex 3285.337631981923 9628.579213157822 474.1053701283327
  endloop
endfacet
facet normal -0.9861706119572298 -0.06849823168036112 -0.15091559352355388
  outer loop
    vertex 3284.292792912849 9641.541774130212 475.04945467361176
    vertex 3282.5137762728923 9626.953928814075 493.2957834485174
    vertex 3281.468937203819 9639.916489786463 494.23986799379594
  endloop
endfacet
facet normal -0.7376359975500735 -0.10799935570363334 0.6665052695109831
  outer loop
    vertex 3282.5137762728923 9626.953928814075 493.2957834485174
    vertex 3489.347643672875 9639.916489786463 724.3037910115783
    vertex 3281.468937203819 9639.916489786463 494.23986799379594
  endloop
endfacet
facet normal -0.7376359975500735 -0.10799935570363334 0.6665052695109831
  outer loop
    vertex 3489.347643672875 9639.916489786463 724.3037910115783
    vertex 3282.5137762728923 9626.953928814075 493.2957834485174
    vertex 3490.3924827419482 9626.953928814075 723.3597064662997
  endloop
endfacet
facet normal 0.08013291277300655 -0.9941509639725751 -0.07240564289413937
  outer loop
    vertex 3217.581115225874 9628.579213157822 399.11774720295665
    vertex 3214.958789310793 9626.953928814075 418.5311979654464
    vertex 2913.6407846223797 9584.078456705385 673.7489103199481
  endloop
endfacet
facet normal 0.08013291277300655 -0.9941509639725751 -0.07240564289413937
  outer loop
    vertex 3214.958789310793 9626.953928814075 418.5311979654464
    vertex 3217.581115225874 9628.579213157822 399.11774720295665
    vertex 3275.4392434025276 9628.579213157822 463.15060642592874
  endloop
endfacet
facet normal 0.08013291277300655 -0.9941509639725751 -0.07240564289413937
  outer loop
    vertex 3214.958789310793 9626.953928814075 418.5311979654464
    vertex 3275.4392434025276 9628.579213157822 463.15060642592874
    vertex 3272.6153876934977 9626.953928814075 482.3410197461131
  endloop
endfacet
facet normal 0.08013291277300655 -0.9941509639725751 -0.07240564289413937
  outer loop
    vertex 3509.9715529443315 9628.579213157822 722.7126564507116
    vertex 3282.5137762728923 9626.953928814075 493.2957834485174
    vertex 3285.337631981923 9628.579213157822 474.1053701283327
  endloop
endfacet
facet normal 0.08013291277300655 -0.9941509639725751 -0.07240564289413937
  outer loop
    vertex 3282.5137762728923 9626.953928814075 493.2957834485174
    vertex 3509.9715529443315 9628.579213157822 722.7126564507116
    vertex 3490.3924827419482 9626.953928814075 723.3597064662997
  endloop
endfacet
facet normal 0.08013291277300655 -0.9941509639725751 -0.07240564289413937
  outer loop
    vertex 3490.3924827419482 9626.953928814075 723.3597064662997
    vertex 3509.9715529443315 9628.579213157822 722.7126564507116
    vertex 3208.65354825592 9585.703741049134 977.9303688052129
  endloop
endfacet
facet normal 0.08013291277300655 -0.9941509639725751 -0.07240564289413937
  outer loop
    vertex 2913.6407846223797 9584.078456705385 673.7489103199481
    vertex 2933.2198548247643 9585.703741049134 673.1018603043602
    vertex 3206.0312223408378 9584.078456705385 997.3438195677027
  endloop
endfacet
facet normal 0.08013291277300655 -0.9941509639725751 -0.07240564289413937
  outer loop
    vertex 2933.2198548247643 9585.703741049134 673.1018603043602
    vertex 2913.6407846223797 9584.078456705385 673.7489103199481
    vertex 3214.958789310793 9626.953928814075 418.5311979654464
  endloop
endfacet
facet normal 0.08013291277300655 -0.9941509639725751 -0.07240564289413937
  outer loop
    vertex 3206.0312223408378 9584.078456705385 997.3438195677027
    vertex 2933.2198548247643 9585.703741049134 673.1018603043602
    vertex 3208.65354825592 9585.703741049134 977.9303688052129
  endloop
endfacet
facet normal 0.08013291277300655 -0.9941509639725751 -0.07240564289413937
  outer loop
    vertex 3206.0312223408378 9584.078456705385 997.3438195677027
    vertex 3208.65354825592 9585.703741049134 977.9303688052129
    vertex 3509.9715529443315 9628.579213157822 722.7126564507116
  endloop
endfacet
facet normal -0.08013291277300655 0.9941509639725751 0.0724056428941394
  outer loop
    vertex 2929.906818810914 9598.537213981728 673.3080986460498
    vertex 3206.3172498856998 9640.045577826257 409.29543054436516
    vertex 2922.8149718244085 9598.537213981728 665.4593960690969
  endloop
endfacet
facet normal -0.08013291277300655 0.9941509639725751 0.0724056428941394
  outer loop
    vertex 3206.3172498856998 9640.045577826257 409.29543054436516
    vertex 2929.906818810914 9598.537213981728 673.3080986460498
    vertex 3214.122228204516 9640.045577826257 417.93337120503145
  endloop
endfacet
facet normal -0.08013291277300655 0.9941509639725751 0.0724056428941394
  outer loop
    vertex 3281.468937203819 9639.916489786463 494.23986799379594
    vertex 3501.1217355564413 9641.541774130212 715.018800335324
    vertex 3284.292792912849 9641.541774130212 475.04945467361176
  endloop
endfacet
facet normal -0.08013291277300655 0.9941509639725751 0.0724056428941394
  outer loop
    vertex 3501.1217355564413 9641.541774130212 715.018800335324
    vertex 3281.468937203819 9639.916489786463 494.23986799379594
    vertex 3489.347643672875 9639.916489786463 724.3037910115783
  endloop
endfacet
facet normal -0.08013291277300655 0.9941509639725751 0.0724056428941394
  outer loop
    vertex 3197.8945362852596 9597.041017677775 990.4392015360289
    vertex 2929.906818810914 9598.537213981728 673.3080986460498
    vertex 2919.6877925398126 9597.041017677775 682.5416974421796
  endloop
endfacet
facet normal -0.08013291277300655 0.9941509639725751 0.0724056428941394
  outer loop
    vertex 2929.906818810914 9598.537213981728 673.3080986460498
    vertex 3197.8945362852596 9597.041017677775 990.4392015360289
    vertex 2932.175015755691 9598.666302021522 674.0459448496384
  endloop
endfacet
facet normal -0.08013291277300655 0.9941509639725751 0.0724056428941394
  outer loop
    vertex 2929.906818810914 9598.537213981728 673.3080986460498
    vertex 2932.175015755691 9598.666302021522 674.0459448496384
    vertex 3214.122228204516 9640.045577826257 417.93337120503145
  endloop
endfacet
facet normal -0.08013291277300655 0.9941509639725751 0.0724056428941394
  outer loop
    vertex 3214.122228204516 9640.045577826257 417.93337120503145
    vertex 2932.175015755691 9598.666302021522 674.0459448496384
    vertex 3224.341254475618 9641.541774130212 408.69977240890154
  endloop
endfacet
facet normal -0.08013291277300655 0.9941509639725751 0.0724056428941394
  outer loop
    vertex 2932.175015755691 9598.666302021522 674.0459448496384
    vertex 3197.8945362852596 9597.041017677775 990.4392015360289
    vertex 3207.608709186846 9598.666302021522 978.8744533504913
  endloop
endfacet
facet normal -0.08013291277300655 0.9941509639725751 0.0724056428941394
  outer loop
    vertex 3207.608709186846 9598.666302021522 978.8744533504913
    vertex 3197.8945362852596 9597.041017677775 990.4392015360289
    vertex 3489.347643672875 9639.916489786463 724.3037910115783
  endloop
endfacet
facet normal -0.08013291277300655 0.9941509639725751 0.0724056428941394
  outer loop
    vertex 3489.347643672875 9639.916489786463 724.3037910115783
    vertex 3197.8945362852596 9597.041017677775 990.4392015360289
    vertex 3490.90270928534 9640.045577826257 724.2523991314544
  endloop
endfacet
facet normal -0.08013291277300655 0.9941509639725751 0.0724056428941394
  outer loop
    vertex 3489.347643672875 9639.916489786463 724.3037910115783
    vertex 3490.90270928534 9640.045577826257 724.2523991314544
    vertex 3501.1217355564413 9641.541774130212 715.018800335324
  endloop
endfacet
facet normal -0.08013291277300655 0.9941509639725751 0.0724056428941394
  outer loop
    vertex 3490.90270928534 9640.045577826257 724.2523991314544
    vertex 3197.8945362852596 9597.041017677775 990.4392015360289
    vertex 3208.1135625563606 9598.537213981728 981.2056027398983
  endloop
endfacet
facet normal -0.08013291277300655 0.9941509639725751 0.0724056428941394
  outer loop
    vertex 3208.1135625563606 9598.537213981728 981.2056027398983
    vertex 3498.7076876041574 9640.045577826257 732.8903397921198
    vertex 3490.90270928534 9640.045577826257 724.2523991314544
  endloop
endfacet
facet normal -0.08013291277300655 0.9941509639725751 0.0724056428941394
  outer loop
    vertex 3498.7076876041574 9640.045577826257 732.8903397921198
    vertex 3208.1135625563606 9598.537213981728 981.2056027398983
    vertex 3215.205409542867 9598.537213981728 989.0543053168518
  endloop
endfacet
facet normal -0.08013291277300655 0.9941509639725751 0.0724056428941394
  outer loop
    vertex 3224.341254475618 9641.541774130212 408.69977240890154
    vertex 3213.9139502417192 9639.916489786463 419.4752825107253
    vertex 3274.3944043334545 9641.541774130212 464.09469097120655
  endloop
endfacet
facet normal -0.08013291277300655 0.9941509639725751 0.0724056428941394
  outer loop
    vertex 3213.9139502417192 9639.916489786463 419.4752825107253
    vertex 3224.341254475618 9641.541774130212 408.69977240890154
    vertex 2932.175015755691 9598.666302021522 674.0459448496384
  endloop
endfacet
facet normal -0.08013291277300655 0.9941509639725751 0.0724056428941394
  outer loop
    vertex 3274.3944043334545 9641.541774130212 464.09469097120655
    vertex 3213.9139502417192 9639.916489786463 419.4752825107253
    vertex 3271.570548624424 9639.916489786465 483.2851042913917
  endloop
endfacet
endsolid thesis3
