solid thesis2
facet normal 0.0 0.0 -1.0
  outer loop
    vertex -3806.979321262722 9672.275954539364 2425.6786766791606
    vertex -6259.092349435619 7172.228954539361 2425.6786766791606
    vertex -6259.092349435619 9672.275954539364 2425.6786766791606
  endloop
endfacet
facet normal 0.0 0.0 -1.0
  outer loop
    vertex -6259.092349435619 7172.228954539361 2425.6786766791606
    vertex -3806.979321262722 9672.275954539364 2425.6786766791606
    vertex -3806.979321262722 7172.228954539361 2425.6786766791606
  endloop
endfacet
facet normal -1.9988122880900895e-16 1.0 -2.967590084164415e-16
  outer loop
    vertex -6259.092349435619 7172.228954539361 326.7000000000018
    vertex -5956.262632444456 7172.2289545393605 554.4835888682331
    vertex -5956.262632444456 7172.2289545393605 326.7000000000005
  endloop
endfacet
facet normal -1.9988122880900895e-16 1.0 -2.967590084164415e-16
  outer loop
    vertex -5956.262632444456 7172.2289545393605 554.4835888682331
    vertex -6259.092349435619 7172.228954539361 326.7000000000018
    vertex -6259.092349435619 7172.228954539361 2425.6786766791606
  endloop
endfacet
facet normal -1.9988122880900895e-16 1.0 -2.967590084164415e-16
  outer loop
    vertex -5956.262632444456 7172.2289545393605 554.4835888682331
    vertex -6259.092349435619 7172.228954539361 2425.6786766791606
    vertex -5815.484632444459 7172.2289545393605 554.4835888682331
  endloop
endfacet
facet normal -1.9988122880900895e-16 1.0 -2.967590084164415e-16
  outer loop
    vertex -5815.484632444459 7172.2289545393605 554.4835888682331
    vertex -3806.979321262722 7172.228954539361 326.7000000000018
    vertex -5815.484632444459 7172.2289545393605 326.7000000000005
  endloop
endfacet
facet normal -1.9988122880900895e-16 1.0 -2.967590084164415e-16
  outer loop
    vertex -3806.979321262722 7172.228954539361 326.7000000000018
    vertex -5815.484632444459 7172.2289545393605 554.4835888682331
    vertex -3806.979321262722 7172.228954539361 2425.6786766791606
  endloop
endfacet
facet normal -1.9988122880900895e-16 1.0 -2.967590084164415e-16
  outer loop
    vertex -3806.979321262722 7172.228954539361 2425.6786766791606
    vertex -5815.484632444459 7172.2289545393605 554.4835888682331
    vertex -6259.092349435619 7172.228954539361 2425.6786766791606
  endloop
endfacet
facet normal 1.0 0.0 0.0
  outer loop
    vertex -6259.092349435619 9672.275954539364 326.7000000000018
    vertex -6259.092349435619 7172.228954539361 2425.6786766791606
    vertex -6259.092349435619 7172.228954539361 326.7000000000018
  endloop
endfacet
facet normal 1.0 0.0 0.0
  outer loop
    vertex -6259.092349435619 7172.228954539361 2425.6786766791606
    vertex -6259.092349435619 9672.275954539364 326.7000000000018
    vertex -6259.092349435619 9672.275954539364 2425.6786766791606
  endloop
endfacet
facet normal 0.0 -1.0 0.0
  outer loop
    vertex -3806.979321262722 9672.275954539364 2425.6786766791606
    vertex -6259.092349435619 9672.275954539364 326.7000000000018
    vertex -3806.979321262722 9672.275954539364 326.7000000000018
  endloop
endfacet
facet normal 0.0 -1.0 0.0
  outer loop
    vertex -6259.092349435619 9672.275954539364 326.7000000000018
    vertex -3806.979321262722 9672.275954539364 2425.6786766791606
    vertex -6259.092349435619 9672.275954539364 2425.6786766791606
  endloop
endfacet
facet normal -1.0 0.0 0.0
  outer loop
    vertex -3806.979321262722 9672.275954539364 2425.6786766791606
    vertex -3806.979321262722 7172.228954539361 326.7000000000018
    vertex -3806.979321262722 7172.228954539361 2425.6786766791606
  endloop
endfacet
facet normal -1.0 0.0 0.0
  outer loop
    vertex -3806.979321262722 7172.228954539361 326.7000000000018
    vertex -3806.979321262722 9672.275954539364 2425.6786766791606
    vertex -3806.979321262722 9672.275954539364 326.7000000000018
  endloop
endfacet
facet normal -1.6417713038543932e-16 -2.318804592367118e-16 1.0
  outer loop
    vertex -5956.262632444456 7172.2289545393605 326.7000000000005
    vertex -6259.092349435619 9672.275954539364 326.7000000000018
    vertex -6259.092349435619 7172.228954539361 326.7000000000018
  endloop
endfacet
facet normal -1.6417713038543932e-16 -2.318804592367118e-16 1.0
  outer loop
    vertex -6259.092349435619 9672.275954539364 326.7000000000018
    vertex -5956.262632444456 7172.2289545393605 326.7000000000005
    vertex -3806.979321262722 9672.275954539364 326.7000000000018
  endloop
endfacet
facet normal -1.6417713038543932e-16 -2.318804592367118e-16 1.0
  outer loop
    vertex -3806.979321262722 9672.275954539364 326.7000000000018
    vertex -5956.262632444456 7172.2289545393605 326.7000000000005
    vertex -5815.484632444459 7172.2289545393605 326.7000000000005
  endloop
endfacet
facet normal -1.6417713038543932e-16 -2.318804592367118e-16 1.0
  outer loop
    vertex -3806.979321262722 9672.275954539364 326.7000000000018
    vertex -5815.484632444459 7172.2289545393605 326.7000000000005
    vertex -3806.979321262722 7172.228954539361 326.7000000000018
  endloop
endfacet
endsolid thesis2
