solid thesis3
facet normal -1.0 0.0 -0.0
  outer loop
    vertex 2665.381016904395 11737.711637343391 335.0737579867052
    vertex 2665.381016904395 11738.700894047783 332.1645557523126
    vertex 2665.381016904395 11737.968125163396 333.89926265408246
  endloop
endfacet
facet normal -1.0 0.0 -0.0
  outer loop
    vertex 2665.381016904395 11738.700894047783 332.1645557523126
    vertex 2665.381016904395 11737.711637343391 335.0737579867052
    vertex 2665.381016904395 11739.364087852964 331.1618597540495
  endloop
endfacet
facet normal -1.0 0.0 -0.0
  outer loop
    vertex 2665.381016904395 11739.364087852964 331.1618597540495
    vertex 2665.381016904395 11737.711637343391 335.0737579867052
    vertex 2665.381016904395 11737.707721644967 336.2846012608862
  endloop
endfacet
facet normal -1.0 0.0 -0.0
  outer loop
    vertex 2665.381016904395 11739.364087852964 331.1618597540495
    vertex 2665.381016904395 11737.707721644967 336.2846012608862
    vertex 2665.381016904395 11740.229385797524 330.3149861440676
  endloop
endfacet
facet normal -1.0 0.0 -0.0
  outer loop
    vertex 2665.381016904395 11740.229385797524 330.3149861440676
    vertex 2665.381016904395 11737.707721644967 336.2846012608862
    vertex 2665.381016904395 11738.99141073092 334.2468675347295
  endloop
endfacet
facet normal -1.0 0.0 -0.0
  outer loop
    vertex 2665.381016904395 11738.99141073092 334.2468675347295
    vertex 2665.381016904395 11737.707721644967 336.2846012608862
    vertex 2665.381016904395 11738.186348846146 337.48771274895006
  endloop
endfacet
facet normal -1.0 0.0 -0.0
  outer loop
    vertex 2665.381016904395 11738.99141073092 334.2468675347295
    vertex 2665.381016904395 11738.186348846146 337.48771274895006
    vertex 2665.381016904395 11738.78996496169 335.1909926134357
  endloop
endfacet
facet normal -1.0 0.0 -0.0
  outer loop
    vertex 2665.381016904395 11738.78996496169 335.1909926134357
    vertex 2665.381016904395 11738.186348846146 337.48771274895006
    vertex 2665.381016904395 11738.763810481967 336.0539579503856
  endloop
endfacet
facet normal -1.0 0.0 -0.0
  outer loop
    vertex 2665.381016904395 11738.763810481967 336.0539579503856
    vertex 2665.381016904395 11738.186348846146 337.48771274895006
    vertex 2665.381016904395 11739.104175331762 336.9167565475515
  endloop
endfacet
facet normal -1.0 0.0 -0.0
  outer loop
    vertex 2665.381016904395 11739.104175331762 336.9167565475515
    vertex 2665.381016904395 11738.186348846146 337.48771274895006
    vertex 2665.381016904395 11739.057742011035 338.46199851930515
  endloop
endfacet
facet normal -1.0 0.0 -0.0
  outer loop
    vertex 2665.381016904395 11739.104175331762 336.9167565475515
    vertex 2665.381016904395 11739.057742011035 338.46199851930515
    vertex 2665.381016904395 11739.675479933088 337.5669116674793
  endloop
endfacet
facet normal -1.0 0.0 -0.0
  outer loop
    vertex 2665.381016904395 11739.675479933088 337.5669116674793
    vertex 2665.381016904395 11739.057742011035 338.46199851930515
    vertex 2665.381016904395 11740.194163963783 338.9420419466192
  endloop
endfacet
facet normal -1.0 0.0 -0.0
  outer loop
    vertex 2665.381016904395 11739.675479933088 337.5669116674793
    vertex 2665.381016904395 11740.194163963783 338.9420419466192
    vertex 2665.381016904395 11740.405195900661 337.8751557604338
  endloop
endfacet
facet normal -1.0 0.0 -0.0
  outer loop
    vertex 2665.381016904395 11740.405195900661 337.8751557604338
    vertex 2665.381016904395 11740.194163963783 338.9420419466192
    vertex 2665.381016904395 11741.269592633902 337.83146462827
  endloop
endfacet
facet normal -1.0 0.0 -0.0
  outer loop
    vertex 2665.381016904395 11741.269592633902 337.83146462827
    vertex 2665.381016904395 11740.194163963783 338.9420419466192
    vertex 2665.381016904395 11741.500144672862 338.8875149106633
  endloop
endfacet
facet normal -1.0 0.0 -0.0
  outer loop
    vertex 2665.381016904395 11741.269592633902 337.83146462827
    vertex 2665.381016904395 11741.500144672862 338.8875149106633
    vertex 2665.381016904395 11741.746054600397 337.6379934863261
  endloop
endfacet
facet normal -1.0 0.0 -0.0
  outer loop
    vertex 2665.381016904395 11740.229385797524 330.3149861440676
    vertex 2665.381016904395 11739.658444008244 332.66777860978374
    vertex 2665.381016904395 11741.425591367442 329.8193517173814
  endloop
endfacet
facet normal -1.0 0.0 -0.0
  outer loop
    vertex 2665.381016904395 11739.658444008244 332.66777860978374
    vertex 2665.381016904395 11740.229385797524 330.3149861440676
    vertex 2665.381016904395 11738.99141073092 334.2468675347295
  endloop
endfacet
facet normal -1.0 0.0 -0.0
  outer loop
    vertex 2665.381016904395 11741.425591367442 329.8193517173814
    vertex 2665.381016904395 11739.658444008244 332.66777860978374
    vertex 2665.381016904395 11740.227015518241 331.82237330972833
  endloop
endfacet
facet normal -1.0 0.0 -0.0
  outer loop
    vertex 2665.381016904395 11741.425591367442 329.8193517173814
    vertex 2665.381016904395 11740.227015518241 331.82237330972833
    vertex 2665.381016904395 11740.369593926878 331.68523250931094
  endloop
endfacet
facet normal -1.0 0.0 -0.0
  outer loop
    vertex 2665.381016904395 11741.425591367442 329.8193517173814
    vertex 2665.381016904395 11740.369593926878 331.68523250931094
    vertex 2665.381016904395 11741.18667862959 331.0859189218339
  endloop
endfacet
facet normal -1.0 0.0 -0.0
  outer loop
    vertex 2665.381016904395 11741.18667862959 331.0859189218339
    vertex 2665.381016904395 11740.369593926878 331.68523250931094
    vertex 2665.381016904395 11741.746054600397 337.6379934863261
  endloop
endfacet
facet normal -1.0 0.0 -0.0
  outer loop
    vertex 2665.381016904395 11741.18667862959 331.0859189218339
    vertex 2665.381016904395 11741.746054600397 337.6379934863261
    vertex 2665.381016904395 11742.556180668033 337.02154284719313
  endloop
endfacet
facet normal -1.0 0.0 -0.0
  outer loop
    vertex 2665.381016904395 11742.556180668033 337.02154284719313
    vertex 2665.381016904395 11741.746054600397 337.6379934863261
    vertex 2665.381016904395 11741.500144672862 338.8875149106633
  endloop
endfacet
facet normal -1.0 0.0 -0.0
  outer loop
    vertex 2665.381016904395 11742.556180668033 337.02154284719313
    vertex 2665.381016904395 11741.500144672862 338.8875149106633
    vertex 2665.381016904395 11742.69635024278 338.3918804839771
  endloop
endfacet
facet normal -1.0 0.0 -0.0
  outer loop
    vertex 2665.381016904395 11742.556180668033 337.02154284719313
    vertex 2665.381016904395 11742.69635024278 338.3918804839771
    vertex 2665.381016904395 11742.725867609539 336.8535829849773
  endloop
endfacet
facet normal -1.0 0.0 -0.0
  outer loop
    vertex 2665.381016904395 11742.725867609539 336.8535829849773
    vertex 2665.381016904395 11742.69635024278 338.3918804839771
    vertex 2665.381016904395 11743.262279932987 336.05095331854665
  endloop
endfacet
facet normal -1.0 0.0 -0.0
  outer loop
    vertex 2665.381016904395 11743.262279932987 336.05095331854665
    vertex 2665.381016904395 11742.69635024278 338.3918804839771
    vertex 2665.381016904395 11743.92931321031 334.47186439360087
  endloop
endfacet
facet normal -1.0 0.0 -0.0
  outer loop
    vertex 2665.381016904395 11741.18667862959 331.0859189218339
    vertex 2665.381016904395 11742.731610631126 329.7647334098848
    vertex 2665.381016904395 11741.425591367442 329.8193517173814
  endloop
endfacet
facet normal -1.0 0.0 -0.0
  outer loop
    vertex 2665.381016904395 11742.731610631126 329.7647334098848
    vertex 2665.381016904395 11741.18667862959 331.0859189218339
    vertex 2665.381016904395 11741.673280458059 330.8684433646966
  endloop
endfacet
facet normal -1.0 0.0 -0.0
  outer loop
    vertex 2665.381016904395 11742.731610631126 329.7647334098848
    vertex 2665.381016904395 11741.673280458059 330.8684433646966
    vertex 2665.381016904395 11742.508622122425 330.8265689423896
  endloop
endfacet
facet normal -1.0 0.0 -0.0
  outer loop
    vertex 2665.381016904395 11742.731610631126 329.7647334098848
    vertex 2665.381016904395 11742.508622122425 330.8265689423896
    vertex 2665.381016904395 11743.868032583876 330.24477683719886
  endloop
endfacet
facet normal -1.0 0.0 -0.0
  outer loop
    vertex 2665.381016904395 11743.868032583876 330.24477683719886
    vertex 2665.381016904395 11742.508622122425 330.8265689423896
    vertex 2665.381016904395 11743.262251233647 331.1449143427054
  endloop
endfacet
facet normal -1.0 0.0 -0.0
  outer loop
    vertex 2665.381016904395 11743.868032583876 330.24477683719886
    vertex 2665.381016904395 11743.262251233647 331.1449143427054
    vertex 2665.381016904395 11743.814602073464 331.77297302883727
  endloop
endfacet
facet normal -1.0 0.0 -0.0
  outer loop
    vertex 2665.381016904395 11743.868032583876 330.24477683719886
    vertex 2665.381016904395 11743.814602073464 331.77297302883727
    vertex 2665.381016904395 11744.739387194159 331.2191538790946
  endloop
endfacet
facet normal -1.0 0.0 -0.0
  outer loop
    vertex 2665.381016904395 11744.739387194159 331.2191538790946
    vertex 2665.381016904395 11743.814602073464 331.77297302883727
    vertex 2665.381016904395 11744.144956887434 332.6597233242641
  endloop
endfacet
facet normal -1.0 0.0 -0.0
  outer loop
    vertex 2665.381016904395 11744.739387194159 331.2191538790946
    vertex 2665.381016904395 11744.144956887434 332.6597233242641
    vertex 2665.381016904395 11745.218014395337 332.4222653671585
  endloop
endfacet
facet normal -1.0 0.0 -0.0
  outer loop
    vertex 2665.381016904395 11745.218014395337 332.4222653671585
    vertex 2665.381016904395 11744.144956887434 332.6597233242641
    vertex 2665.381016904395 11744.139005022436 333.4748623739086
  endloop
endfacet
facet normal -1.0 0.0 -0.0
  outer loop
    vertex 2665.381016904395 11745.218014395337 332.4222653671585
    vertex 2665.381016904395 11744.139005022436 333.4748623739086
    vertex 2665.381016904395 11743.92931321031 334.47186439360087
  endloop
endfacet
facet normal -1.0 0.0 -0.0
  outer loop
    vertex 2665.381016904395 11745.218014395337 332.4222653671585
    vertex 2665.381016904395 11743.92931321031 334.47186439360087
    vertex 2665.381016904395 11742.69635024278 338.3918804839771
  endloop
endfacet
facet normal -1.0 0.0 -0.0
  outer loop
    vertex 2665.381016904395 11745.218014395337 332.4222653671585
    vertex 2665.381016904395 11742.69635024278 338.3918804839771
    vertex 2665.381016904395 11743.561686741947 337.5449156024545
  endloop
endfacet
facet normal -1.0 0.0 -0.0
  outer loop
    vertex 2665.381016904395 11745.218014395337 332.4222653671585
    vertex 2665.381016904395 11743.561686741947 337.5449156024545
    vertex 2665.381016904395 11745.21413725152 333.6330173697989
  endloop
endfacet
facet normal -1.0 0.0 -0.0
  outer loop
    vertex 2665.381016904395 11745.21413725152 333.6330173697989
    vertex 2665.381016904395 11743.561686741947 337.5449156024545
    vertex 2665.381016904395 11744.224880547126 336.5422196041914
  endloop
endfacet
facet normal -1.0 0.0 -0.0
  outer loop
    vertex 2665.381016904395 11745.21413725152 333.6330173697989
    vertex 2665.381016904395 11744.224880547126 336.5422196041914
    vertex 2665.381016904395 11744.957649431517 334.8075127024216
  endloop
endfacet
facet normal -1.0 0.0 -0.0
  outer loop
    vertex 2665.381016904395 11745.50575766508 340.52308432103007
    vertex 2665.381016904395 11746.215786032742 339.3428037382958
    vertex 2665.381016904395 11745.211840423233 339.75046377662073
  endloop
endfacet
facet normal -1.0 0.0 -0.0
  outer loop
    vertex 2665.381016904395 11746.215786032742 339.3428037382958
    vertex 2665.381016904395 11745.50575766508 340.52308432103007
    vertex 2665.381016904395 11746.524301666206 341.61599680176084
  endloop
endfacet
facet normal -1.0 0.0 -0.0
  outer loop
    vertex 2665.381016904395 11746.215786032742 339.3428037382958
    vertex 2665.381016904395 11746.524301666206 341.61599680176084
    vertex 2665.381016904395 11746.452547948027 339.9502728551665
  endloop
endfacet
facet normal -1.0 0.0 -0.0
  outer loop
    vertex 2665.381016904395 11746.452547948027 339.9502728551665
    vertex 2665.381016904395 11746.524301666206 341.61599680176084
    vertex 2665.381016904395 11747.130174287975 340.7158978508626
  endloop
endfacet
facet normal -1.0 0.0 -0.0
  outer loop
    vertex 2665.381016904395 11747.130174287975 340.7158978508626
    vertex 2665.381016904395 11746.524301666206 341.61599680176084
    vertex 2665.381016904395 11747.816341595779 342.1617758361403
  endloop
endfacet
facet normal -1.0 0.0 -0.0
  outer loop
    vertex 2665.381016904395 11747.130174287975 340.7158978508626
    vertex 2665.381016904395 11747.816341595779 342.1617758361403
    vertex 2665.381016904395 11747.991503817175 341.0797376889127
  endloop
endfacet
facet normal -1.0 0.0 -0.0
  outer loop
    vertex 2665.381016904395 11747.991503817175 341.0797376889127
    vertex 2665.381016904395 11747.816341595779 342.1617758361403
    vertex 2665.381016904395 11748.954748514245 341.0355314170346
  endloop
endfacet
facet normal -1.0 0.0 -0.0
  outer loop
    vertex 2665.381016904395 11748.954748514245 341.0355314170346
    vertex 2665.381016904395 11747.816341595779 342.1617758361403
    vertex 2665.381016904395 11749.318292794193 342.0772020064898
  endloop
endfacet
facet normal -1.0 0.0 -0.0
  outer loop
    vertex 2665.381016904395 11748.954748514245 341.0355314170346
    vertex 2665.381016904395 11749.318292794193 342.0772020064898
    vertex 2665.381016904395 11749.761679192667 340.4600011470614
  endloop
endfacet
facet normal -1.0 0.0 -0.0
  outer loop
    vertex 2665.381016904395 11749.761679192667 340.4600011470614
    vertex 2665.381016904395 11749.318292794193 342.0772020064898
    vertex 2665.381016904395 11750.039619363537 339.8020246104489
  endloop
endfacet
facet normal -1.0 0.0 -0.0
  outer loop
    vertex 2665.381016904395 11749.98211639508 338.9036134261935
    vertex 2665.381016904395 11748.399197728362 332.27164390134953
    vertex 2665.381016904395 11748.02525658295 333.15688657420367
  endloop
endfacet
facet normal -1.0 0.0 -0.0
  outer loop
    vertex 2665.381016904395 11748.399197728362 332.27164390134953
    vertex 2665.381016904395 11749.98211639508 338.9036134261935
    vertex 2665.381016904395 11749.336635587602 333.823662723138
  endloop
endfacet
facet normal -1.0 0.0 -0.0
  outer loop
    vertex 2665.381016904395 11749.336635587602 333.823662723138
    vertex 2665.381016904395 11749.98211639508 338.9036134261935
    vertex 2665.381016904395 11751.046927860085 338.7190324100741
  endloop
endfacet
facet normal -1.0 0.0 -0.0
  outer loop
    vertex 2665.381016904395 11751.046927860085 338.7190324100741
    vertex 2665.381016904395 11749.98211639508 338.9036134261935
    vertex 2665.381016904395 11750.039619363537 339.8020246104489
  endloop
endfacet
facet normal -1.0 0.0 -0.0
  outer loop
    vertex 2665.381016904395 11751.046927860085 338.7190324100741
    vertex 2665.381016904395 11750.039619363537 339.8020246104489
    vertex 2665.381016904395 11749.318292794193 342.0772020064898
  endloop
endfacet
facet normal -1.0 0.0 -0.0
  outer loop
    vertex 2665.381016904395 11751.046927860085 338.7190324100741
    vertex 2665.381016904395 11749.318292794193 342.0772020064898
    vertex 2665.381016904395 11750.633329485943 341.16657699712135
  endloop
endfacet
facet normal -1.0 0.0 -0.0
  outer loop
    vertex 2665.381016904395 11751.046927860085 338.7190324100741
    vertex 2665.381016904395 11750.633329485943 341.16657699712135
    vertex 2665.381016904395 11751.118462121547 340.018107201006
  endloop
endfacet
facet normal -1.0 0.0 -0.0
  outer loop
    vertex 2665.381016904395 11749.336635587602 333.823662723138
    vertex 2665.381016904395 11753.579222746937 334.45977213793964
    vertex 2665.381016904395 11748.399197728362 332.27164390134953
  endloop
endfacet
facet normal -1.0 0.0 -0.0
  outer loop
    vertex 2665.381016904395 11753.579222746937 334.45977213793964
    vertex 2665.381016904395 11749.336635587602 333.823662723138
    vertex 2665.381016904395 11753.164837817472 335.4407586569453
  endloop
endfacet
facet normal -1.0 0.0 -0.0
  outer loop
    vertex 2665.381016904395 11758.676860537751 338.5163311719107
    vertex 2665.381016904395 11757.791860706066 336.23926008169366
    vertex 2665.381016904395 11757.109636913092 337.8543099936592
  endloop
endfacet
facet normal -1.0 0.0 -0.0
  outer loop
    vertex 2665.381016904395 11757.791860706066 336.23926008169366
    vertex 2665.381016904395 11758.676860537751 338.5163311719107
    vertex 2665.381016904395 11759.359084330727 336.90128125994516
  endloop
endfacet
facet normal -1.0 0.0 -0.0
  outer loop
    vertex 2665.381016904395 11763.089184071998 348.5004491153499
    vertex 2665.381016904395 11761.601417252294 345.08065580745586
    vertex 2665.381016904395 11760.784809134684 345.7789086303
  endloop
endfacet
facet normal -1.0 0.0 -0.0
  outer loop
    vertex 2665.381016904395 11761.601417252294 345.08065580745586
    vertex 2665.381016904395 11763.089184071998 348.5004491153499
    vertex 2665.381016904395 11763.190440869714 346.9924555384342
  endloop
endfacet
facet normal -1.0 0.0 -0.0
  outer loop
    vertex 2665.381016904395 11763.190440869714 346.9924555384342
    vertex 2665.381016904395 11763.089184071998 348.5004491153499
    vertex 2665.381016904395 11765.813156650493 340.78361771354776
  endloop
endfacet
facet normal -1.0 0.0 -0.0
  outer loop
    vertex 2665.381016904395 11765.813156650493 340.78361771354776
    vertex 2665.381016904395 11764.002432690224 338.8627084000284
    vertex 2665.381016904395 11763.58804776076 339.8436949190341
  endloop
endfacet
facet normal -1.0 0.0 -0.0
  outer loop
    vertex 2665.381016904395 11764.002432690224 338.8627084000284
    vertex 2665.381016904395 11765.813156650493 340.78361771354776
    vertex 2665.381016904395 11769.266153711584 341.08619121238326
  endloop
endfacet
facet normal -1.0 0.0 -0.0
  outer loop
    vertex 2665.381016904395 11769.266153711584 341.08619121238326
    vertex 2665.381016904395 11765.813156650493 340.78361771354776
    vertex 2665.381016904395 11766.806099741325 341.20305329669367
  endloop
endfacet
facet normal -1.0 0.0 -0.0
  outer loop
    vertex 2665.381016904395 11766.806099741325 341.20305329669367
    vertex 2665.381016904395 11765.813156650493 340.78361771354776
    vertex 2665.381016904395 11763.089184071998 348.5004491153499
  endloop
endfacet
facet normal -1.0 0.0 -0.0
  outer loop
    vertex 2665.381016904395 11766.806099741325 341.20305329669367
    vertex 2665.381016904395 11763.089184071998 348.5004491153499
    vertex 2665.381016904395 11763.627503618804 348.7278441948053
  endloop
endfacet
facet normal -1.0 0.0 -0.0
  outer loop
    vertex 2665.381016904395 11769.266153711584 341.08619121238326
    vertex 2665.381016904395 11766.806099741325 341.20305329669367
    vertex 2665.381016904395 11768.851768782119 342.0671777313889
  endloop
endfacet
facet normal -1.0 0.0 -0.0
  outer loop
    vertex 2665.381016904395 11747.0403345364 319.4975890801687
    vertex 2665.381016904395 11746.9984081552 317.66118646724897
    vertex 2665.381016904395 11746.38460021879 318.98085006940414
  endloop
endfacet
facet normal -1.0 0.0 -0.0
  outer loop
    vertex 2665.381016904395 11746.9984081552 317.66118646724897
    vertex 2665.381016904395 11747.0403345364 319.4975890801687
    vertex 2665.381016904395 11747.044598634757 318.01907444030076
  endloop
endfacet
facet normal -1.0 0.0 -0.0
  outer loop
    vertex 2665.381016904395 11747.044598634757 318.01907444030076
    vertex 2665.381016904395 11747.0403345364 319.4975890801687
    vertex 2665.381016904395 11747.177203921206 318.27245738459027
  endloop
endfacet
facet normal -1.0 0.0 -0.0
  outer loop
    vertex 2665.381016904395 11747.177203921206 318.27245738459027
    vertex 2665.381016904395 11747.0403345364 319.4975890801687
    vertex 2665.381016904395 11747.576231720133 318.5961114499116
  endloop
endfacet
facet normal -1.0 0.0 -0.0
  outer loop
    vertex 2665.381016904395 11747.576231720133 318.5961114499116
    vertex 2665.381016904395 11747.0403345364 319.4975890801687
    vertex 2665.381016904395 11748.24867846319 320.00801353878336
  endloop
endfacet
facet normal -1.0 0.0 -0.0
  outer loop
    vertex 2665.381016904395 11747.576231720133 318.5961114499116
    vertex 2665.381016904395 11748.24867846319 320.00801353878336
    vertex 2665.381016904395 11748.569174810966 319.01554703305743
  endloop
endfacet
facet normal -1.0 0.0 -0.0
  outer loop
    vertex 2665.381016904395 11748.569174810966 319.01554703305743
    vertex 2665.381016904395 11748.24867846319 320.00801353878336
    vertex 2665.381016904395 11749.301094442932 319.0850835576583
  endloop
endfacet
facet normal -1.0 0.0 -0.0
  outer loop
    vertex 2665.381016904395 11749.301094442932 319.0850835576583
    vertex 2665.381016904395 11748.24867846319 320.00801353878336
    vertex 2665.381016904395 11749.292938913539 320.1389301756564
  endloop
endfacet
facet normal -1.0 0.0 -0.0
  outer loop
    vertex 2665.381016904395 11749.301094442932 319.0850835576583
    vertex 2665.381016904395 11749.292938913539 320.1389301756564
    vertex 2665.381016904395 11750.113901643006 318.9631323899561
  endloop
endfacet
facet normal -1.0 0.0 -0.0
  outer loop
    vertex 2665.381016904395 11750.113901643006 318.9631323899561
    vertex 2665.381016904395 11749.292938913539 320.1389301756564
    vertex 2665.381016904395 11750.313634620168 319.992074139481
  endloop
endfacet
facet normal -1.0 0.0 -0.0
  outer loop
    vertex 2665.381016904395 11746.023130660024 318.33479243294477
    vertex 2665.381016904395 11746.366109513201 316.42134172406145
    vertex 2665.381016904395 11745.916331453363 317.4861155173923
  endloop
endfacet
facet normal -1.0 0.0 -0.0
  outer loop
    vertex 2665.381016904395 11746.366109513201 316.42134172406145
    vertex 2665.381016904395 11746.023130660024 318.33479243294477
    vertex 2665.381016904395 11747.161651476445 315.93973859038306
  endloop
endfacet
facet normal -1.0 0.0 -0.0
  outer loop
    vertex 2665.381016904395 11747.161651476445 315.93973859038306
    vertex 2665.381016904395 11746.023130660024 318.33479243294477
    vertex 2665.381016904395 11746.38460021879 318.98085006940414
  endloop
endfacet
facet normal -1.0 0.0 -0.0
  outer loop
    vertex 2665.381016904395 11747.161651476445 315.93973859038306
    vertex 2665.381016904395 11746.38460021879 318.98085006940414
    vertex 2665.381016904395 11747.220752580974 317.13482349226706
  endloop
endfacet
facet normal -1.0 0.0 -0.0
  outer loop
    vertex 2665.381016904395 11747.161651476445 315.93973859038306
    vertex 2665.381016904395 11747.220752580974 317.13482349226706
    vertex 2665.381016904395 11748.099127765392 315.8564672138102
  endloop
endfacet
facet normal -1.0 0.0 -0.0
  outer loop
    vertex 2665.381016904395 11747.220752580974 317.13482349226706
    vertex 2665.381016904395 11746.38460021879 318.98085006940414
    vertex 2665.381016904395 11746.9984081552 317.66118646724897
  endloop
endfacet
facet normal -1.0 0.0 -0.0
  outer loop
    vertex 2665.381016904395 11748.099127765392 315.8564672138102
    vertex 2665.381016904395 11747.220752580974 317.13482349226706
    vertex 2665.381016904395 11747.596511319178 316.91290369270405
  endloop
endfacet
facet normal -1.0 0.0 -0.0
  outer loop
    vertex 2665.381016904395 11748.099127765392 315.8564672138102
    vertex 2665.381016904395 11747.596511319178 316.91290369270405
    vertex 2665.381016904395 11748.002225579534 316.88691582786987
  endloop
endfacet
facet normal -1.0 0.0 -0.0
  outer loop
    vertex 2665.381016904395 11748.099127765392 315.8564672138102
    vertex 2665.381016904395 11748.002225579534 316.88691582786987
    vertex 2665.381016904395 11750.20764686936 316.3383139466948
  endloop
endfacet
facet normal -1.0 0.0 -0.0
  outer loop
    vertex 2665.381016904395 11750.20764686936 316.3383139466948
    vertex 2665.381016904395 11748.002225579534 316.88691582786987
    vertex 2665.381016904395 11750.223404483619 317.4022618720543
  endloop
endfacet
facet normal -1.0 0.0 -0.0
  outer loop
    vertex 2665.381016904395 11750.20764686936 316.3383139466948
    vertex 2665.381016904395 11750.223404483619 317.4022618720543
    vertex 2665.381016904395 11750.672667403744 316.23864011489684
  endloop
endfacet
facet normal -1.0 0.0 -0.0
  outer loop
    vertex 2665.381016904395 11750.672667403744 316.23864011489684
    vertex 2665.381016904395 11750.223404483619 317.4022618720543
    vertex 2665.381016904395 11751.022566462289 315.97761665603076
  endloop
endfacet
facet normal -1.0 0.0 -0.0
  outer loop
    vertex 2665.381016904395 11751.022566462289 315.97761665603076
    vertex 2665.381016904395 11750.223404483619 317.4022618720543
    vertex 2665.381016904395 11751.097334667576 317.2356798062622
  endloop
endfacet
facet normal -1.0 0.0 -0.0
  outer loop
    vertex 2665.381016904395 11751.022566462289 315.97761665603076
    vertex 2665.381016904395 11751.097334667576 317.2356798062622
    vertex 2665.381016904395 11751.214606965978 315.52299311200704
  endloop
endfacet
facet normal -1.0 0.0 -0.0
  outer loop
    vertex 2665.381016904395 11747.863562744426 314.1780144272855
    vertex 2665.381016904395 11747.883198260539 313.03027922760094
    vertex 2665.381016904395 11747.452707316885 313.2149891869342
  endloop
endfacet
facet normal -1.0 0.0 -0.0
  outer loop
    vertex 2665.381016904395 11747.883198260539 313.03027922760094
    vertex 2665.381016904395 11747.863562744426 314.1780144272855
    vertex 2665.381016904395 11748.656333944662 312.8352099495816
  endloop
endfacet
facet normal -1.0 0.0 -0.0
  outer loop
    vertex 2665.381016904395 11748.656333944662 312.8352099495816
    vertex 2665.381016904395 11747.863562744426 314.1780144272855
    vertex 2665.381016904395 11748.231075439733 314.00897156870866
  endloop
endfacet
facet normal -1.0 0.0 -0.0
  outer loop
    vertex 2665.381016904395 11748.656333944662 312.8352099495816
    vertex 2665.381016904395 11748.231075439733 314.00897156870866
    vertex 2665.381016904395 11749.736555382033 312.98131710210487
  endloop
endfacet
facet normal -1.0 0.0 -0.0
  outer loop
    vertex 2665.381016904395 11749.736555382033 312.98131710210487
    vertex 2665.381016904395 11748.231075439733 314.00897156870866
    vertex 2665.381016904395 11748.672182830462 313.89919642954925
  endloop
endfacet
facet normal -1.0 0.0 -0.0
  outer loop
    vertex 2665.381016904395 11749.736555382033 312.98131710210487
    vertex 2665.381016904395 11748.672182830462 313.89919642954925
    vertex 2665.381016904395 11749.45883466788 314.0059427943799
  endloop
endfacet
facet normal -1.0 0.0 -0.0
  outer loop
    vertex 2665.381016904395 11749.736555382033 312.98131710210487
    vertex 2665.381016904395 11749.45883466788 314.0059427943799
    vertex 2665.381016904395 11751.028595311605 313.52709613648426
  endloop
endfacet
facet normal -1.0 0.0 -0.0
  outer loop
    vertex 2665.381016904395 11751.028595311605 313.52709613648426
    vertex 2665.381016904395 11749.45883466788 314.0059427943799
    vertex 2665.381016904395 11750.48764747419 314.44053033856784
  endloop
endfacet
facet normal -1.0 0.0 -0.0
  outer loop
    vertex 2665.381016904395 11751.028595311605 313.52709613648426
    vertex 2665.381016904395 11750.48764747419 314.44053033856784
    vertex 2665.381016904395 11750.929450906744 314.7963435904382
  endloop
endfacet
facet normal -1.0 0.0 -0.0
  outer loop
    vertex 2665.381016904395 11751.028595311605 313.52709613648426
    vertex 2665.381016904395 11750.929450906744 314.7963435904382
    vertex 2665.381016904395 11751.741008370673 314.1100473394203
  endloop
endfacet
facet normal -1.0 0.0 -0.0
  outer loop
    vertex 2665.381016904395 11751.741008370673 314.1100473394203
    vertex 2665.381016904395 11750.929450906744 314.7963435904382
    vertex 2665.381016904395 11751.137597424624 315.13799660608686
  endloop
endfacet
facet normal -1.0 0.0 -0.0
  outer loop
    vertex 2665.381016904395 11751.741008370673 314.1100473394203
    vertex 2665.381016904395 11751.137597424624 315.13799660608686
    vertex 2665.381016904395 11751.214606965978 315.52299311200704
  endloop
endfacet
facet normal -1.0 0.0 -0.0
  outer loop
    vertex 2665.381016904395 11751.741008370673 314.1100473394203
    vertex 2665.381016904395 11751.214606965978 315.52299311200704
    vertex 2665.381016904395 11752.1433982986 314.7593003650953
  endloop
endfacet
facet normal -1.0 0.0 -0.0
  outer loop
    vertex 2665.381016904395 11752.1433982986 314.7593003650953
    vertex 2665.381016904395 11751.214606965978 315.52299311200704
    vertex 2665.381016904395 11751.097334667576 317.2356798062622
  endloop
endfacet
facet normal -1.0 0.0 -0.0
  outer loop
    vertex 2665.381016904395 11752.1433982986 314.7593003650953
    vertex 2665.381016904395 11751.097334667576 317.2356798062622
    vertex 2665.381016904395 11751.887310837421 316.6671852805837
  endloop
endfacet
facet normal -1.0 0.0 -0.0
  outer loop
    vertex 2665.381016904395 11752.1433982986 314.7593003650953
    vertex 2665.381016904395 11751.887310837421 316.6671852805837
    vertex 2665.381016904395 11752.316886282539 315.65023777455826
  endloop
endfacet
facet normal -1.0 0.0 -0.0
  outer loop
    vertex 2665.381016904395 11754.24449369432 322.00500042412654
    vertex 2665.381016904395 11754.665345628497 320.30772281930297
    vertex 2665.381016904395 11754.09750871493 321.61862523884747
  endloop
endfacet
facet normal -1.0 0.0 -0.0
  outer loop
    vertex 2665.381016904395 11754.665345628497 320.30772281930297
    vertex 2665.381016904395 11754.24449369432 322.00500042412654
    vertex 2665.381016904395 11754.79497498245 320.9686752884148
  endloop
endfacet
facet normal -1.0 0.0 -0.0
  outer loop
    vertex 2665.381016904395 11754.79497498245 320.9686752884148
    vertex 2665.381016904395 11754.24449369432 322.00500042412654
    vertex 2665.381016904395 11754.794125730026 322.7729187147855
  endloop
endfacet
facet normal -1.0 0.0 -0.0
  outer loop
    vertex 2665.381016904395 11754.79497498245 320.9686752884148
    vertex 2665.381016904395 11754.794125730026 322.7729187147855
    vertex 2665.381016904395 11755.340124221122 321.84752794087547
  endloop
endfacet
facet normal -1.0 0.0 -0.0
  outer loop
    vertex 2665.381016904395 11755.340124221122 321.84752794087547
    vertex 2665.381016904395 11754.794125730026 322.7729187147855
    vertex 2665.381016904395 11755.990421813445 323.27825396511116
  endloop
endfacet
facet normal -1.0 0.0 -0.0
  outer loop
    vertex 2665.381016904395 11755.340124221122 321.84752794087547
    vertex 2665.381016904395 11755.990421813445 323.27825396511116
    vertex 2665.381016904395 11756.249280037628 322.23157039364844
  endloop
endfacet
facet normal -1.0 0.0 -0.0
  outer loop
    vertex 2665.381016904395 11756.249280037628 322.23157039364844
    vertex 2665.381016904395 11755.990421813445 323.27825396511116
    vertex 2665.381016904395 11757.154635694638 322.19098337915966
  endloop
endfacet
facet normal -1.0 0.0 -0.0
  outer loop
    vertex 2665.381016904395 11757.154635694638 322.19098337915966
    vertex 2665.381016904395 11755.990421813445 323.27825396511116
    vertex 2665.381016904395 11757.47722105082 323.22954985093986
  endloop
endfacet
facet normal -1.0 0.0 -0.0
  outer loop
    vertex 2665.381016904395 11757.154635694638 322.19098337915966
    vertex 2665.381016904395 11757.47722105082 323.22954985093986
    vertex 2665.381016904395 11758.057271664602 321.6559881647808
  endloop
endfacet
facet normal -1.0 0.0 -0.0
  outer loop
    vertex 2665.381016904395 11758.057271664602 321.6559881647808
    vertex 2665.381016904395 11757.47722105082 323.22954985093986
    vertex 2665.381016904395 11758.428236877515 321.1783150167489
  endloop
endfacet
facet normal -1.0 0.0 -0.0
  outer loop
    vertex 2665.381016904395 11758.428236877515 321.1783150167489
    vertex 2665.381016904395 11757.47722105082 323.22954985093986
    vertex 2665.381016904395 11758.755654313596 322.47254356545733
  endloop
endfacet
facet normal -1.0 0.0 -0.0
  outer loop
    vertex 2665.381016904395 11758.428236877515 321.1783150167489
    vertex 2665.381016904395 11758.755654313596 322.47254356545733
    vertex 2665.381016904395 11758.918420166798 320.0178886488072
  endloop
endfacet
facet normal -1.0 0.0 -0.0
  outer loop
    vertex 2665.381016904395 11756.195125544093 317.3872080960122
    vertex 2665.381016904395 11756.34308796108 316.33595045597485
    vertex 2665.381016904395 11755.812460887744 317.5921206700682
  endloop
endfacet
facet normal -1.0 0.0 -0.0
  outer loop
    vertex 2665.381016904395 11756.34308796108 316.33595045597485
    vertex 2665.381016904395 11756.195125544093 317.3872080960122
    vertex 2665.381016904395 11756.769004836162 316.26213630383523
  endloop
endfacet
facet normal -1.0 0.0 -0.0
  outer loop
    vertex 2665.381016904395 11756.769004836162 316.26213630383523
    vertex 2665.381016904395 11756.195125544093 317.3872080960122
    vertex 2665.381016904395 11756.77600126781 317.2801132063542
  endloop
endfacet
facet normal -1.0 0.0 -0.0
  outer loop
    vertex 2665.381016904395 11756.769004836162 316.26213630383523
    vertex 2665.381016904395 11756.77600126781 317.2801132063542
    vertex 2665.381016904395 11757.597955722096 316.3021026198477
  endloop
endfacet
facet normal -1.0 0.0 -0.0
  outer loop
    vertex 2665.381016904395 11757.597955722096 316.3021026198477
    vertex 2665.381016904395 11756.77600126781 317.2801132063542
    vertex 2665.381016904395 11757.33219157977 317.33177896580344
  endloop
endfacet
facet normal -1.0 0.0 -0.0
  outer loop
    vertex 2665.381016904395 11757.597955722096 316.3021026198477
    vertex 2665.381016904395 11757.33219157977 317.33177896580344
    vertex 2665.381016904395 11758.78238650523 316.80242577110096
  endloop
endfacet
facet normal -1.0 0.0 -0.0
  outer loop
    vertex 2665.381016904395 11758.78238650523 316.80242577110096
    vertex 2665.381016904395 11757.33219157977 317.33177896580344
    vertex 2665.381016904395 11758.217525524164 317.7057586658232
  endloop
endfacet
facet normal -1.0 0.0 -0.0
  outer loop
    vertex 2665.381016904395 11758.78238650523 316.80242577110096
    vertex 2665.381016904395 11758.217525524164 317.7057586658232
    vertex 2665.381016904395 11758.761591766475 318.3867855644819
  endloop
endfacet
facet normal -1.0 0.0 -0.0
  outer loop
    vertex 2665.381016904395 11758.78238650523 316.80242577110096
    vertex 2665.381016904395 11758.761591766475 318.3867855644819
    vertex 2665.381016904395 11759.736096993547 317.8820415552548
  endloop
endfacet
facet normal -1.0 0.0 -0.0
  outer loop
    vertex 2665.381016904395 11759.736096993547 317.8820415552548
    vertex 2665.381016904395 11758.761591766475 318.3867855644819
    vertex 2665.381016904395 11759.012384974767 319.3949182880291
  endloop
endfacet
facet normal -1.0 0.0 -0.0
  outer loop
    vertex 2665.381016904395 11759.736096993547 317.8820415552548
    vertex 2665.381016904395 11759.012384974767 319.3949182880291
    vertex 2665.381016904395 11758.918420166798 320.0178886488072
  endloop
endfacet
facet normal -1.0 0.0 -0.0
  outer loop
    vertex 2665.381016904395 11759.736096993547 317.8820415552548
    vertex 2665.381016904395 11758.918420166798 320.0178886488072
    vertex 2665.381016904395 11760.084670214563 319.3263222873922
  endloop
endfacet
facet normal -1.0 0.0 -0.0
  outer loop
    vertex 2665.381016904395 11760.084670214563 319.3263222873922
    vertex 2665.381016904395 11758.918420166798 320.0178886488072
    vertex 2665.381016904395 11758.755654313596 322.47254356545733
  endloop
endfacet
facet normal -1.0 0.0 -0.0
  outer loop
    vertex 2665.381016904395 11760.084670214563 319.3263222873922
    vertex 2665.381016904395 11758.755654313596 322.47254356545733
    vertex 2665.381016904395 11759.36562277786 321.7292728899848
  endloop
endfacet
facet normal -1.0 0.0 -0.0
  outer loop
    vertex 2665.381016904395 11760.084670214563 319.3263222873922
    vertex 2665.381016904395 11759.36562277786 321.7292728899848
    vertex 2665.381016904395 11759.966959002726 320.30571067032247
  endloop
endfacet
facet normal -1.0 0.0 -0.0
  outer loop
    vertex 2665.381016904395 11753.82966985142 322.2526886318073
    vertex 2665.381016904395 11756.330511448816 313.5956621369454
    vertex 2665.381016904395 11752.848683332415 321.83830370234205
  endloop
endfacet
facet normal -1.0 0.0 -0.0
  outer loop
    vertex 2665.381016904395 11756.330511448816 313.5956621369454
    vertex 2665.381016904395 11753.82966985142 322.2526886318073
    vertex 2665.381016904395 11754.09750871493 321.61862523884747
  endloop
endfacet
facet normal -1.0 0.0 -0.0
  outer loop
    vertex 2665.381016904395 11756.330511448816 313.5956621369454
    vertex 2665.381016904395 11754.09750871493 321.61862523884747
    vertex 2665.381016904395 11757.323454539648 314.0150977200913
  endloop
endfacet
facet normal -1.0 0.0 -0.0
  outer loop
    vertex 2665.381016904395 11757.323454539648 314.0150977200913
    vertex 2665.381016904395 11754.09750871493 321.61862523884747
    vertex 2665.381016904395 11754.665345628497 320.30772281930297
  endloop
endfacet
facet normal -1.0 0.0 -0.0
  outer loop
    vertex 2665.381016904395 11757.323454539648 314.0150977200913
    vertex 2665.381016904395 11754.665345628497 320.30772281930297
    vertex 2665.381016904395 11755.812460887744 317.5921206700682
  endloop
endfacet
facet normal -1.0 0.0 -0.0
  outer loop
    vertex 2665.381016904395 11757.323454539648 314.0150977200913
    vertex 2665.381016904395 11755.812460887744 317.5921206700682
    vertex 2665.381016904395 11756.34308796108 316.33595045597485
  endloop
endfacet
facet normal -1.0 0.0 -0.0
  outer loop
    vertex 2665.381016904395 11761.041983780695 324.7071844801707
    vertex 2665.381016904395 11761.818443797249 323.8368743116422
    vertex 2665.381016904395 11760.838411331391 324.25463565732844
  endloop
endfacet
facet normal -1.0 0.0 -0.0
  outer loop
    vertex 2665.381016904395 11761.818443797249 323.8368743116422
    vertex 2665.381016904395 11761.041983780695 324.7071844801707
    vertex 2665.381016904395 11761.459525669667 325.3205677903667
  endloop
endfacet
facet normal -1.0 0.0 -0.0
  outer loop
    vertex 2665.381016904395 11761.818443797249 323.8368743116422
    vertex 2665.381016904395 11761.459525669667 325.3205677903667
    vertex 2665.381016904395 11761.94970895895 324.1601414224249
  endloop
endfacet
facet normal -1.0 0.0 -0.0
  outer loop
    vertex 2665.381016904395 11761.94970895895 324.1601414224249
    vertex 2665.381016904395 11761.459525669667 325.3205677903667
    vertex 2665.381016904395 11762.129163095107 325.8713598067536
  endloop
endfacet
facet normal -1.0 0.0 -0.0
  outer loop
    vertex 2665.381016904395 11761.94970895895 324.1601414224249
    vertex 2665.381016904395 11762.129163095107 325.8713598067536
    vertex 2665.381016904395 11762.21954631736 324.5561413299593
  endloop
endfacet
facet normal -1.0 0.0 -0.0
  outer loop
    vertex 2665.381016904395 11762.21954631736 324.5561413299593
    vertex 2665.381016904395 11762.129163095107 325.8713598067536
    vertex 2665.381016904395 11762.663205014378 324.94091837916295
  endloop
endfacet
facet normal -1.0 0.0 -0.0
  outer loop
    vertex 2665.381016904395 11762.663205014378 324.94091837916295
    vertex 2665.381016904395 11762.129163095107 325.8713598067536
    vertex 2665.381016904395 11763.361328894005 326.3918470181214
  endloop
endfacet
facet normal -1.0 0.0 -0.0
  outer loop
    vertex 2665.381016904395 11762.663205014378 324.94091837916295
    vertex 2665.381016904395 11763.361328894005 326.3918470181214
    vertex 2665.381016904395 11763.632234961555 325.35025265494755
  endloop
endfacet
facet normal -1.0 0.0 -0.0
  outer loop
    vertex 2665.381016904395 11763.632234961555 325.35025265494755
    vertex 2665.381016904395 11763.361328894005 326.3918470181214
    vertex 2665.381016904395 11764.279027194445 325.4542802156686
  endloop
endfacet
facet normal -1.0 0.0 -0.0
  outer loop
    vertex 2665.381016904395 11764.279027194445 325.4542802156686
    vertex 2665.381016904395 11763.361328894005 326.3918470181214
    vertex 2665.381016904395 11764.31373857022 326.540324574824
  endloop
endfacet
facet normal -1.0 0.0 -0.0
  outer loop
    vertex 2665.381016904395 11764.279027194445 325.4542802156686
    vertex 2665.381016904395 11764.31373857022 326.540324574824
    vertex 2665.381016904395 11764.91792178437 325.3435133516888
  endloop
endfacet
facet normal -1.0 0.0 -0.0
  outer loop
    vertex 2665.381016904395 11764.91792178437 325.3435133516888
    vertex 2665.381016904395 11764.31373857022 326.540324574824
    vertex 2665.381016904395 11765.45162959093 326.3161633142954
  endloop
endfacet
facet normal -1.0 0.0 -0.0
  outer loop
    vertex 2665.381016904395 11764.91792178437 325.3435133516888
    vertex 2665.381016904395 11765.45162959093 326.3161633142954
    vertex 2665.381016904395 11765.201132065638 325.04022939891235
  endloop
endfacet
facet normal -1.0 0.0 -0.0
  outer loop
    vertex 2665.381016904395 11765.201132065638 325.04022939891235
    vertex 2665.381016904395 11765.45162959093 326.3161633142954
    vertex 2665.381016904395 11765.585213073018 324.13098231086485
  endloop
endfacet
facet normal -1.0 0.0 -0.0
  outer loop
    vertex 2665.381016904395 11765.585213073018 324.13098231086485
    vertex 2665.381016904395 11765.45162959093 326.3161633142954
    vertex 2665.381016904395 11766.065295054941 322.9944690865758
  endloop
endfacet
facet normal -1.0 0.0 -0.0
  outer loop
    vertex 2665.381016904395 11766.065295054941 322.9944690865758
    vertex 2665.381016904395 11765.45162959093 326.3161633142954
    vertex 2665.381016904395 11766.252246350343 322.5518933859191
  endloop
endfacet
facet normal -1.0 0.0 -0.0
  outer loop
    vertex 2665.381016904395 11766.252246350343 322.5518933859191
    vertex 2665.381016904395 11765.45162959093 326.3161633142954
    vertex 2665.381016904395 11766.901924002228 321.247381744806
  endloop
endfacet
facet normal -1.0 0.0 -0.0
  outer loop
    vertex 2665.381016904395 11766.901924002228 321.247381744806
    vertex 2665.381016904395 11765.45162959093 326.3161633142954
    vertex 2665.381016904395 11767.840082928717 320.6285465391695
  endloop
endfacet
facet normal -1.0 0.0 -0.0
  outer loop
    vertex 2665.381016904395 11767.840082928717 320.6285465391695
    vertex 2665.381016904395 11765.45162959093 326.3161633142954
    vertex 2665.381016904395 11767.649473063278 322.01425559371205
  endloop
endfacet
facet normal -1.0 0.0 -0.0
  outer loop
    vertex 2665.381016904395 11767.840082928717 320.6285465391695
    vertex 2665.381016904395 11767.649473063278 322.01425559371205
    vertex 2665.381016904395 11768.399044003681 321.5414136426444
  endloop
endfacet
facet normal -1.0 0.0 -0.0
  outer loop
    vertex 2665.381016904395 11767.649473063278 322.01425559371205
    vertex 2665.381016904395 11765.45162959093 326.3161633142954
    vertex 2665.381016904395 11766.118276796651 325.63910483099437
  endloop
endfacet
facet normal -1.0 0.0 -0.0
  outer loop
    vertex 2665.381016904395 11763.39340818036 319.44104033769906
    vertex 2665.381016904395 11763.185791089416 320.83365531038726
    vertex 2665.381016904395 11764.109092854922 319.348620823977
  endloop
endfacet
facet normal -1.0 0.0 -0.0
  outer loop
    vertex 2665.381016904395 11763.185791089416 320.83365531038726
    vertex 2665.381016904395 11763.39340818036 319.44104033769906
    vertex 2665.381016904395 11763.049384885428 321.1565740212397
  endloop
endfacet
facet normal -1.0 0.0 -0.0
  outer loop
    vertex 2665.381016904395 11764.109092854922 319.348620823977
    vertex 2665.381016904395 11763.185791089416 320.83365531038726
    vertex 2665.381016904395 11763.779010339496 320.46384843718226
  endloop
endfacet
facet normal -1.0 0.0 -0.0
  outer loop
    vertex 2665.381016904395 11764.109092854922 319.348620823977
    vertex 2665.381016904395 11763.779010339496 320.46384843718226
    vertex 2665.381016904395 11765.02873693333 319.44098749586954
  endloop
endfacet
facet normal -1.0 0.0 -0.0
  outer loop
    vertex 2665.381016904395 11765.02873693333 319.44098749586954
    vertex 2665.381016904395 11763.779010339496 320.46384843718226
    vertex 2665.381016904395 11764.124850469181 320.4125687493364
  endloop
endfacet
facet normal -1.0 0.0 -0.0
  outer loop
    vertex 2665.381016904395 11765.02873693333 319.44098749586954
    vertex 2665.381016904395 11764.124850469181 320.4125687493364
    vertex 2665.381016904395 11764.75792213732 320.4826204136516
  endloop
endfacet
facet normal -1.0 0.0 -0.0
  outer loop
    vertex 2665.381016904395 11765.02873693333 319.44098749586954
    vertex 2665.381016904395 11764.75792213732 320.4826204136516
    vertex 2665.381016904395 11765.890066462529 319.8048273339197
  endloop
endfacet
facet normal -1.0 0.0 -0.0
  outer loop
    vertex 2665.381016904395 11765.890066462529 319.8048273339197
    vertex 2665.381016904395 11764.75792213732 320.4826204136516
    vertex 2665.381016904395 11765.26037196865 320.6948635320649
  endloop
endfacet
facet normal -1.0 0.0 -0.0
  outer loop
    vertex 2665.381016904395 11765.890066462529 319.8048273339197
    vertex 2665.381016904395 11765.26037196865 320.6948635320649
    vertex 2665.381016904395 11766.016075801055 321.4088218853766
  endloop
endfacet
facet normal -1.0 0.0 -0.0
  outer loop
    vertex 2665.381016904395 11765.890066462529 319.8048273339197
    vertex 2665.381016904395 11766.016075801055 321.4088218853766
    vertex 2665.381016904395 11766.758225683596 320.8201247449753
  endloop
endfacet
facet normal -1.0 0.0 -0.0
  outer loop
    vertex 2665.381016904395 11766.758225683596 320.8201247449753
    vertex 2665.381016904395 11766.016075801055 321.4088218853766
    vertex 2665.381016904395 11766.289275288464 322.1304207532648
  endloop
endfacet
facet normal -1.0 0.0 -0.0
  outer loop
    vertex 2665.381016904395 11766.758225683596 320.8201247449753
    vertex 2665.381016904395 11766.289275288464 322.1304207532648
    vertex 2665.381016904395 11766.901924002228 321.247381744806
  endloop
endfacet
facet normal -1.0 0.0 -0.0
  outer loop
    vertex 2665.381016904395 11766.901924002228 321.247381744806
    vertex 2665.381016904395 11766.289275288464 322.1304207532648
    vertex 2665.381016904395 11766.252246350343 322.5518933859191
  endloop
endfacet
facet normal -1.0 0.0 -0.0
  outer loop
    vertex 2665.381016904395 11761.844894718006 321.7051766604527
    vertex 2665.381016904395 11762.314140796136 320.12707946032737
    vertex 2665.381016904395 11762.021048664223 320.82092571241895
  endloop
endfacet
facet normal -1.0 0.0 -0.0
  outer loop
    vertex 2665.381016904395 11762.314140796136 320.12707946032737
    vertex 2665.381016904395 11761.844894718006 321.7051766604527
    vertex 2665.381016904395 11763.39340818036 319.44104033769906
  endloop
endfacet
facet normal -1.0 0.0 -0.0
  outer loop
    vertex 2665.381016904395 11763.39340818036 319.44104033769906
    vertex 2665.381016904395 11761.844894718006 321.7051766604527
    vertex 2665.381016904395 11762.356196245448 322.9643604787184
  endloop
endfacet
facet normal -1.0 0.0 -0.0
  outer loop
    vertex 2665.381016904395 11763.39340818036 319.44104033769906
    vertex 2665.381016904395 11762.356196245448 322.9643604787184
    vertex 2665.381016904395 11763.049384885428 321.1565740212397
  endloop
endfacet
facet normal -1.0 0.0 -0.0
  outer loop
    vertex 2665.381016904395 11763.049384885428 321.1565740212397
    vertex 2665.381016904395 11762.356196245448 322.9643604787184
    vertex 2665.381016904395 11762.96814891739 321.6157330792298
  endloop
endfacet
facet normal -1.0 0.0 -0.0
  outer loop
    vertex 2665.381016904395 11762.96814891739 321.6157330792298
    vertex 2665.381016904395 11762.356196245448 322.9643604787184
    vertex 2665.381016904395 11763.414192305809 323.7637419141038
  endloop
endfacet
facet normal -1.0 0.0 -0.0
  outer loop
    vertex 2665.381016904395 11762.96814891739 321.6157330792298
    vertex 2665.381016904395 11763.414192305809 323.7637419141038
    vertex 2665.381016904395 11763.23763787587 322.2794043524512
  endloop
endfacet
facet normal -1.0 0.0 -0.0
  outer loop
    vertex 2665.381016904395 11763.23763787587 322.2794043524512
    vertex 2665.381016904395 11763.414192305809 323.7637419141038
    vertex 2665.381016904395 11763.936277653253 322.8282498328325
  endloop
endfacet
facet normal -1.0 0.0 -0.0
  outer loop
    vertex 2665.381016904395 11763.936277653253 322.8282498328325
    vertex 2665.381016904395 11763.414192305809 323.7637419141038
    vertex 2665.381016904395 11764.27552183501 324.127581752154
  endloop
endfacet
facet normal -1.0 0.0 -0.0
  outer loop
    vertex 2665.381016904395 11763.936277653253 322.8282498328325
    vertex 2665.381016904395 11764.27552183501 324.127581752154
    vertex 2665.381016904395 11764.582297618037 323.10113935002215
  endloop
endfacet
facet normal -1.0 0.0 -0.0
  outer loop
    vertex 2665.381016904395 11764.582297618037 323.10113935002215
    vertex 2665.381016904395 11764.27552183501 324.127581752154
    vertex 2665.381016904395 11765.251147730116 323.1863044207712
  endloop
endfacet
facet normal -1.0 0.0 -0.0
  outer loop
    vertex 2665.381016904395 11765.251147730116 323.1863044207712
    vertex 2665.381016904395 11764.27552183501 324.127581752154
    vertex 2665.381016904395 11765.188259995271 324.2029411985395
  endloop
endfacet
facet normal -1.0 0.0 -0.0
  outer loop
    vertex 2665.381016904395 11765.251147730116 323.1863044207712
    vertex 2665.381016904395 11765.188259995271 324.2029411985395
    vertex 2665.381016904395 11765.702833013313 323.15155537332635
  endloop
endfacet
facet normal -1.0 0.0 -0.0
  outer loop
    vertex 2665.381016904395 11765.702833013313 323.15155537332635
    vertex 2665.381016904395 11765.188259995271 324.2029411985395
    vertex 2665.381016904395 11765.585213073018 324.13098231086485
  endloop
endfacet
facet normal -1.0 0.0 -0.0
  outer loop
    vertex 2665.381016904395 11765.702833013313 323.15155537332635
    vertex 2665.381016904395 11765.585213073018 324.13098231086485
    vertex 2665.381016904395 11766.065295054941 322.9944690865758
  endloop
endfacet
facet normal -1.0 0.0 -0.0
  outer loop
    vertex 2665.381016904395 11768.975419992754 326.7895416057581
    vertex 2665.381016904395 11769.694376157915 324.38655244855715
    vertex 2665.381016904395 11769.09303993305 325.81011466821957
  endloop
endfacet
facet normal -1.0 0.0 -0.0
  outer loop
    vertex 2665.381016904395 11769.694376157915 324.38655244855715
    vertex 2665.381016904395 11768.975419992754 326.7895416057581
    vertex 2665.381016904395 11770.30443589372 323.6433203276929
  endloop
endfacet
facet normal -1.0 0.0 -0.0
  outer loop
    vertex 2665.381016904395 11770.30443589372 323.6433203276929
    vertex 2665.381016904395 11768.975419992754 326.7895416057581
    vertex 2665.381016904395 11769.32399321377 328.2338223378955
  endloop
endfacet
facet normal -1.0 0.0 -0.0
  outer loop
    vertex 2665.381016904395 11770.30443589372 323.6433203276929
    vertex 2665.381016904395 11769.32399321377 328.2338223378955
    vertex 2665.381016904395 11770.141578768977 326.0979366897348
  endloop
endfacet
facet normal -1.0 0.0 -0.0
  outer loop
    vertex 2665.381016904395 11770.141578768977 326.0979366897348
    vertex 2665.381016904395 11769.32399321377 328.2338223378955
    vertex 2665.381016904395 11770.054519879155 326.7379142760199
  endloop
endfacet
facet normal -1.0 0.0 -0.0
  outer loop
    vertex 2665.381016904395 11770.054519879155 326.7379142760199
    vertex 2665.381016904395 11769.32399321377 328.2338223378955
    vertex 2665.381016904395 11770.28966027391 329.3184887757299
  endloop
endfacet
facet normal -1.0 0.0 -0.0
  outer loop
    vertex 2665.381016904395 11770.054519879155 326.7379142760199
    vertex 2665.381016904395 11770.28966027391 329.3184887757299
    vertex 2665.381016904395 11770.286541869013 327.72402767498767
  endloop
endfacet
facet normal -1.0 0.0 -0.0
  outer loop
    vertex 2665.381016904395 11770.286541869013 327.72402767498767
    vertex 2665.381016904395 11770.28966027391 329.3184887757299
    vertex 2665.381016904395 11770.895441624138 328.4183512702234
  endloop
endfacet
facet normal -1.0 0.0 -0.0
  outer loop
    vertex 2665.381016904395 11770.895441624138 328.4183512702234
    vertex 2665.381016904395 11770.28966027391 329.3184887757299
    vertex 2665.381016904395 11771.629526490788 329.88447042483205
  endloop
endfacet
facet normal -1.0 0.0 -0.0
  outer loop
    vertex 2665.381016904395 11770.895441624138 328.4183512702234
    vertex 2665.381016904395 11771.629526490788 329.88447042483205
    vertex 2665.381016904395 11771.924254430449 328.85293881441135
  endloop
endfacet
facet normal -1.0 0.0 -0.0
  outer loop
    vertex 2665.381016904395 11771.924254430449 328.85293881441135
    vertex 2665.381016904395 11771.629526490788 329.88447042483205
    vertex 2665.381016904395 11772.533412954936 328.91288917136524
  endloop
endfacet
facet normal -1.0 0.0 -0.0
  outer loop
    vertex 2665.381016904395 11772.533412954936 328.91288917136524
    vertex 2665.381016904395 11771.629526490788 329.88447042483205
    vertex 2665.381016904395 11772.66511703007 329.96945459347285
  endloop
endfacet
facet normal -1.0 0.0 -0.0
  outer loop
    vertex 2665.381016904395 11772.533412954936 328.91288917136524
    vertex 2665.381016904395 11772.66511703007 329.96945459347285
    vertex 2665.381016904395 11773.408115406995 328.5774451491045
  endloop
endfacet
facet normal -1.0 0.0 -0.0
  outer loop
    vertex 2665.381016904395 11773.408115406995 328.5774451491045
    vertex 2665.381016904395 11772.66511703007 329.96945459347285
    vertex 2665.381016904395 11773.836069331584 329.5336030259184
  endloop
endfacet
facet normal -1.0 0.0 -0.0
  outer loop
    vertex 2665.381016904395 11770.30443589372 323.6433203276929
    vertex 2665.381016904395 11770.62671140458 324.9494668936194
    vertex 2665.381016904395 11771.582869156495 322.8863140422104
  endloop
endfacet
facet normal -1.0 0.0 -0.0
  outer loop
    vertex 2665.381016904395 11770.62671140458 324.9494668936194
    vertex 2665.381016904395 11770.30443589372 323.6433203276929
    vertex 2665.381016904395 11770.141578768977 326.0979366897348
  endloop
endfacet
facet normal -1.0 0.0 -0.0
  outer loop
    vertex 2665.381016904395 11771.582869156495 322.8863140422104
    vertex 2665.381016904395 11770.62671140458 324.9494668936194
    vertex 2665.381016904395 11771.002727271174 324.4598371737612
  endloop
endfacet
facet normal -1.0 0.0 -0.0
  outer loop
    vertex 2665.381016904395 11771.582869156495 322.8863140422104
    vertex 2665.381016904395 11771.002727271174 324.4598371737612
    vertex 2665.381016904395 11773.033707406848 322.8224194123888
  endloop
endfacet
facet normal -1.0 0.0 -0.0
  outer loop
    vertex 2665.381016904395 11773.033707406848 322.8224194123888
    vertex 2665.381016904395 11771.002727271174 324.4598371737612
    vertex 2665.381016904395 11771.917449639112 323.92983989613066
  endloop
endfacet
facet normal -1.0 0.0 -0.0
  outer loop
    vertex 2665.381016904395 11773.033707406848 322.8224194123888
    vertex 2665.381016904395 11771.917449639112 323.92983989613066
    vertex 2665.381016904395 11772.810718898145 323.8842549448936
  endloop
endfacet
facet normal -1.0 0.0 -0.0
  outer loop
    vertex 2665.381016904395 11773.033707406848 322.8224194123888
    vertex 2665.381016904395 11772.810718898145 323.8842549448936
    vertex 2665.381016904395 11774.373573623727 323.3884010614909
  endloop
endfacet
facet normal -1.0 0.0 -0.0
  outer loop
    vertex 2665.381016904395 11774.373573623727 323.3884010614909
    vertex 2665.381016904395 11772.810718898145 323.8842549448936
    vertex 2665.381016904395 11773.839531704458 324.31884248908153
  endloop
endfacet
facet normal -1.0 0.0 -0.0
  outer loop
    vertex 2665.381016904395 11774.373573623727 323.3884010614909
    vertex 2665.381016904395 11773.839531704458 324.31884248908153
    vertex 2665.381016904395 11774.297093509307 324.73767254390754
  endloop
endfacet
facet normal -1.0 0.0 -0.0
  outer loop
    vertex 2665.381016904395 11774.373573623727 323.3884010614909
    vertex 2665.381016904395 11774.297093509307 324.73767254390754
    vertex 2665.381016904395 11775.156477260542 324.07157890761243
  endloop
endfacet
facet normal -1.0 0.0 -0.0
  outer loop
    vertex 2665.381016904395 11775.156477260542 324.07157890761243
    vertex 2665.381016904395 11774.297093509307 324.73767254390754
    vertex 2665.381016904395 11774.676523463795 325.5747027329557
  endloop
endfacet
facet normal -1.0 0.0 -0.0
  outer loop
    vertex 2665.381016904395 11775.156477260542 324.07157890761243
    vertex 2665.381016904395 11774.676523463795 325.5747027329557
    vertex 2665.381016904395 11775.658502465658 325.1859437392111
  endloop
endfacet
facet normal -1.0 0.0 -0.0
  outer loop
    vertex 2665.381016904395 11776.418157775814 329.93347713546063
    vertex 2665.381016904395 11777.137113940973 327.53048797825966
    vertex 2665.381016904395 11776.535777716108 328.95405019792213
  endloop
endfacet
facet normal -1.0 0.0 -0.0
  outer loop
    vertex 2665.381016904395 11777.137113940973 327.53048797825966
    vertex 2665.381016904395 11776.418157775814 329.93347713546063
    vertex 2665.381016904395 11777.747173676778 326.7872558573954
  endloop
endfacet
facet normal -1.0 0.0 -0.0
  outer loop
    vertex 2665.381016904395 11777.747173676778 326.7872558573954
    vertex 2665.381016904395 11776.418157775814 329.93347713546063
    vertex 2665.381016904395 11776.766730996827 331.377757867598
  endloop
endfacet
facet normal -1.0 0.0 -0.0
  outer loop
    vertex 2665.381016904395 11777.747173676778 326.7872558573954
    vertex 2665.381016904395 11776.766730996827 331.377757867598
    vertex 2665.381016904395 11777.569126036384 329.2778332064571
  endloop
endfacet
facet normal -1.0 0.0 -0.0
  outer loop
    vertex 2665.381016904395 11777.569126036384 329.2778332064571
    vertex 2665.381016904395 11776.766730996827 331.377757867598
    vertex 2665.381016904395 11777.490351744067 329.8648425802154
  endloop
endfacet
facet normal -1.0 0.0 -0.0
  outer loop
    vertex 2665.381016904395 11777.490351744067 329.8648425802154
    vertex 2665.381016904395 11776.766730996827 331.377757867598
    vertex 2665.381016904395 11777.720441485142 332.45737365175177
  endloop
endfacet
facet normal -1.0 0.0 -0.0
  outer loop
    vertex 2665.381016904395 11777.490351744067 329.8648425802154
    vertex 2665.381016904395 11777.720441485142 332.45737365175177
    vertex 2665.381016904395 11777.729188380532 330.86792465008193
  endloop
endfacet
facet normal -1.0 0.0 -0.0
  outer loop
    vertex 2665.381016904395 11777.729188380532 330.86792465008193
    vertex 2665.381016904395 11777.720441485142 332.45737365175177
    vertex 2665.381016904395 11778.290353119892 331.5420841852032
  endloop
endfacet
facet normal -1.0 0.0 -0.0
  outer loop
    vertex 2665.381016904395 11778.290353119892 331.5420841852032
    vertex 2665.381016904395 11777.720441485142 332.45737365175177
    vertex 2665.381016904395 11779.024437986542 333.00820333981187
  endloop
endfacet
facet normal -1.0 0.0 -0.0
  outer loop
    vertex 2665.381016904395 11778.290353119892 331.5420841852032
    vertex 2665.381016904395 11779.024437986542 333.00820333981187
    vertex 2665.381016904395 11779.271339638897 331.95646911466844
  endloop
endfacet
facet normal -1.0 0.0 -0.0
  outer loop
    vertex 2665.381016904395 11779.271339638897 331.95646911466844
    vertex 2665.381016904395 11779.024437986542 333.00820333981187
    vertex 2665.381016904395 11780.162792188074 331.8818290945573
  endloop
endfacet
facet normal -1.0 0.0 -0.0
  outer loop
    vertex 2665.381016904395 11780.162792188074 331.8818290945573
    vertex 2665.381016904395 11779.024437986542 333.00820333981187
    vertex 2665.381016904395 11780.475276236895 332.94430870999025
  endloop
endfacet
facet normal -1.0 0.0 -0.0
  outer loop
    vertex 2665.381016904395 11780.162792188074 331.8818290945573
    vertex 2665.381016904395 11780.475276236895 332.94430870999025
    vertex 2665.381016904395 11781.065428158037 331.3468338801785
  endloop
endfacet
facet normal -1.0 0.0 -0.0
  outer loop
    vertex 2665.381016904395 11781.065428158037 331.3468338801785
    vertex 2665.381016904395 11780.475276236895 332.94430870999025
    vertex 2665.381016904395 11781.412995367013 330.95790738861183
  endloop
endfacet
facet normal -1.0 0.0 -0.0
  outer loop
    vertex 2665.381016904395 11781.412995367013 330.95790738861183
    vertex 2665.381016904395 11780.475276236895 332.94430870999025
    vertex 2665.381016904395 11781.741752927845 332.1822517708271
  endloop
endfacet
facet normal -1.0 0.0 -0.0
  outer loop
    vertex 2665.381016904395 11781.412995367013 330.95790738861183
    vertex 2665.381016904395 11781.741752927845 332.1822517708271
    vertex 2665.381016904395 11781.47869241947 330.80238068332847
  endloop
endfacet
facet normal -1.0 0.0 -0.0
  outer loop
    vertex 2665.381016904395 11781.47869241947 330.80238068332847
    vertex 2665.381016904395 11778.029005403585 328.1891462694735
    vertex 2665.381016904395 11777.61462047412 329.1701327884792
  endloop
endfacet
facet normal -1.0 0.0 -0.0
  outer loop
    vertex 2665.381016904395 11778.029005403585 328.1891462694735
    vertex 2665.381016904395 11781.47869241947 330.80238068332847
    vertex 2665.381016904395 11782.886020439768 330.2408297474687
  endloop
endfacet
facet normal -1.0 0.0 -0.0
  outer loop
    vertex 2665.381016904395 11782.886020439768 330.2408297474687
    vertex 2665.381016904395 11781.47869241947 330.80238068332847
    vertex 2665.381016904395 11781.741752927845 332.1822517708271
  endloop
endfacet
facet normal -1.0 0.0 -0.0
  outer loop
    vertex 2665.381016904395 11782.886020439768 330.2408297474687
    vertex 2665.381016904395 11781.741752927845 332.1822517708271
    vertex 2665.381016904395 11782.35539336643 331.49699996156204
  endloop
endfacet
facet normal -1.0 0.0 -0.0
  outer loop
    vertex 2665.381016904395 11777.747173676778 326.7872558573954
    vertex 2665.381016904395 11778.079550495 328.06948927966926
    vertex 2665.381016904395 11779.025606939555 326.0302495719129
  endloop
endfacet
facet normal -1.0 0.0 -0.0
  outer loop
    vertex 2665.381016904395 11778.079550495 328.06948927966926
    vertex 2665.381016904395 11777.747173676778 326.7872558573954
    vertex 2665.381016904395 11777.569126036384 329.2778332064571
  endloop
endfacet
facet normal -1.0 0.0 -0.0
  outer loop
    vertex 2665.381016904395 11778.079550495 328.06948927966926
    vertex 2665.381016904395 11777.569126036384 329.2778332064571
    vertex 2665.381016904395 11777.61462047412 329.1701327884792
  endloop
endfacet
facet normal -1.0 0.0 -0.0
  outer loop
    vertex 2665.381016904395 11778.079550495 328.06948927966926
    vertex 2665.381016904395 11777.61462047412 329.1701327884792
    vertex 2665.381016904395 11778.029005403585 328.1891462694735
  endloop
endfacet
facet normal -1.0 0.0 -0.0
  outer loop
    vertex 2665.381016904395 11779.025606939555 326.0302495719129
    vertex 2665.381016904395 11778.079550495 328.06948927966926
    vertex 2665.381016904395 11778.457421626057 327.6088233571444
  endloop
endfacet
facet normal -1.0 0.0 -0.0
  outer loop
    vertex 2665.381016904395 11779.025606939555 326.0302495719129
    vertex 2665.381016904395 11778.457421626057 327.6088233571444
    vertex 2665.381016904395 11780.476445189908 325.9663549420913
  endloop
endfacet
facet normal -1.0 0.0 -0.0
  outer loop
    vertex 2665.381016904395 11780.476445189908 325.9663549420913
    vertex 2665.381016904395 11778.457421626057 327.6088233571444
    vertex 2665.381016904395 11779.36009615063 327.07373687122487
  endloop
endfacet
facet normal -1.0 0.0 -0.0
  outer loop
    vertex 2665.381016904395 11780.476445189908 325.9663549420913
    vertex 2665.381016904395 11779.36009615063 327.07373687122487
    vertex 2665.381016904395 11780.24150010938 327.02313982091545
  endloop
endfacet
facet normal -1.0 0.0 -0.0
  outer loop
    vertex 2665.381016904395 11780.476445189908 325.9663549420913
    vertex 2665.381016904395 11780.24150010938 327.02313982091545
    vertex 2665.381016904395 11781.70861098881 326.48684215345907
  endloop
endfacet
facet normal -1.0 0.0 -0.0
  outer loop
    vertex 2665.381016904395 11781.70861098881 326.48684215345907
    vertex 2665.381016904395 11780.24150010938 327.02313982091545
    vertex 2665.381016904395 11781.210530056558 327.4324740967
  endloop
endfacet
facet normal -1.0 0.0 -0.0
  outer loop
    vertex 2665.381016904395 11781.70861098881 326.48684215345907
    vertex 2665.381016904395 11781.210530056558 327.4324740967
    vertex 2665.381016904395 11781.92613850484 327.97450493047626
  endloop
endfacet
facet normal -1.0 0.0 -0.0
  outer loop
    vertex 2665.381016904395 11781.70861098881 326.48684215345907
    vertex 2665.381016904395 11781.92613850484 327.97450493047626
    vertex 2665.381016904395 11782.68105578192 327.22190521574635
  endloop
endfacet
facet normal -1.0 0.0 -0.0
  outer loop
    vertex 2665.381016904395 11782.68105578192 327.22190521574635
    vertex 2665.381016904395 11781.92613850484 327.97450493047626
    vertex 2665.381016904395 11782.381405373753 328.63200399904764
  endloop
endfacet
facet normal -1.0 0.0 -0.0
  outer loop
    vertex 2665.381016904395 11782.68105578192 327.22190521574635
    vertex 2665.381016904395 11782.381405373753 328.63200399904764
    vertex 2665.381016904395 11783.241304264702 328.06475832657907
  endloop
endfacet
facet normal -1.0 0.0 -0.0
  outer loop
    vertex 2665.381016904395 11785.330571273771 335.6720183329838
    vertex 2665.381016904395 11785.28864489257 333.8356157200641
    vertex 2665.381016904395 11784.674836956163 335.1552793222192
  endloop
endfacet
facet normal -1.0 0.0 -0.0
  outer loop
    vertex 2665.381016904395 11785.28864489257 333.8356157200641
    vertex 2665.381016904395 11785.330571273771 335.6720183329838
    vertex 2665.381016904395 11785.334835372127 334.1935036931158
  endloop
endfacet
facet normal -1.0 0.0 -0.0
  outer loop
    vertex 2665.381016904395 11785.334835372127 334.1935036931158
    vertex 2665.381016904395 11785.330571273771 335.6720183329838
    vertex 2665.381016904395 11785.467440658578 334.4468866374054
  endloop
endfacet
facet normal -1.0 0.0 -0.0
  outer loop
    vertex 2665.381016904395 11785.467440658578 334.4468866374054
    vertex 2665.381016904395 11785.330571273771 335.6720183329838
    vertex 2665.381016904395 11785.866468457505 334.77054070272663
  endloop
endfacet
facet normal -1.0 0.0 -0.0
  outer loop
    vertex 2665.381016904395 11785.866468457505 334.77054070272663
    vertex 2665.381016904395 11785.330571273771 335.6720183329838
    vertex 2665.381016904395 11786.538915200557 336.1824427915985
  endloop
endfacet
facet normal -1.0 0.0 -0.0
  outer loop
    vertex 2665.381016904395 11785.866468457505 334.77054070272663
    vertex 2665.381016904395 11786.538915200557 336.1824427915985
    vertex 2665.381016904395 11786.859411548337 335.18997628587255
  endloop
endfacet
facet normal -1.0 0.0 -0.0
  outer loop
    vertex 2665.381016904395 11786.859411548337 335.18997628587255
    vertex 2665.381016904395 11786.538915200557 336.1824427915985
    vertex 2665.381016904395 11787.591331180305 335.25951281047344
  endloop
endfacet
facet normal -1.0 0.0 -0.0
  outer loop
    vertex 2665.381016904395 11787.591331180305 335.25951281047344
    vertex 2665.381016904395 11786.538915200557 336.1824427915985
    vertex 2665.381016904395 11787.583175650909 336.3133594284714
  endloop
endfacet
facet normal -1.0 0.0 -0.0
  outer loop
    vertex 2665.381016904395 11787.591331180305 335.25951281047344
    vertex 2665.381016904395 11787.583175650909 336.3133594284714
    vertex 2665.381016904395 11788.404138380376 335.13756164277123
  endloop
endfacet
facet normal -1.0 0.0 -0.0
  outer loop
    vertex 2665.381016904395 11788.404138380376 335.13756164277123
    vertex 2665.381016904395 11787.583175650909 336.3133594284714
    vertex 2665.381016904395 11788.603871357538 336.16650339229614
  endloop
endfacet
facet normal -1.0 0.0 -0.0
  outer loop
    vertex 2665.381016904395 11784.313367397395 334.5092216857598
    vertex 2665.381016904395 11784.656346250571 332.5957709768765
    vertex 2665.381016904395 11784.206568190735 333.6605447702074
  endloop
endfacet
facet normal -1.0 0.0 -0.0
  outer loop
    vertex 2665.381016904395 11784.656346250571 332.5957709768765
    vertex 2665.381016904395 11784.313367397395 334.5092216857598
    vertex 2665.381016904395 11785.451888213813 332.1141678431982
  endloop
endfacet
facet normal -1.0 0.0 -0.0
  outer loop
    vertex 2665.381016904395 11785.451888213813 332.1141678431982
    vertex 2665.381016904395 11784.313367397395 334.5092216857598
    vertex 2665.381016904395 11784.674836956163 335.1552793222192
  endloop
endfacet
facet normal -1.0 0.0 -0.0
  outer loop
    vertex 2665.381016904395 11785.451888213813 332.1141678431982
    vertex 2665.381016904395 11784.674836956163 335.1552793222192
    vertex 2665.381016904395 11785.510989318343 333.3092527450821
  endloop
endfacet
facet normal -1.0 0.0 -0.0
  outer loop
    vertex 2665.381016904395 11785.451888213813 332.1141678431982
    vertex 2665.381016904395 11785.510989318343 333.3092527450821
    vertex 2665.381016904395 11786.389364502764 332.0308964666253
  endloop
endfacet
facet normal -1.0 0.0 -0.0
  outer loop
    vertex 2665.381016904395 11785.510989318343 333.3092527450821
    vertex 2665.381016904395 11784.674836956163 335.1552793222192
    vertex 2665.381016904395 11785.28864489257 333.8356157200641
  endloop
endfacet
facet normal -1.0 0.0 -0.0
  outer loop
    vertex 2665.381016904395 11786.389364502764 332.0308964666253
    vertex 2665.381016904395 11785.510989318343 333.3092527450821
    vertex 2665.381016904395 11785.886748056546 333.0873329455191
  endloop
endfacet
facet normal -1.0 0.0 -0.0
  outer loop
    vertex 2665.381016904395 11786.389364502764 332.0308964666253
    vertex 2665.381016904395 11785.886748056546 333.0873329455191
    vertex 2665.381016904395 11786.292462316904 333.06134508068493
  endloop
endfacet
facet normal -1.0 0.0 -0.0
  outer loop
    vertex 2665.381016904395 11786.389364502764 332.0308964666253
    vertex 2665.381016904395 11786.292462316904 333.06134508068493
    vertex 2665.381016904395 11788.497883606731 332.51274319950994
  endloop
endfacet
facet normal -1.0 0.0 -0.0
  outer loop
    vertex 2665.381016904395 11788.497883606731 332.51274319950994
    vertex 2665.381016904395 11786.292462316904 333.06134508068493
    vertex 2665.381016904395 11788.51364122099 333.5766911248693
  endloop
endfacet
facet normal -1.0 0.0 -0.0
  outer loop
    vertex 2665.381016904395 11788.497883606731 332.51274319950994
    vertex 2665.381016904395 11788.51364122099 333.5766911248693
    vertex 2665.381016904395 11788.962904141114 332.4130693677119
  endloop
endfacet
facet normal -1.0 0.0 -0.0
  outer loop
    vertex 2665.381016904395 11788.962904141114 332.4130693677119
    vertex 2665.381016904395 11788.51364122099 333.5766911248693
    vertex 2665.381016904395 11789.31280319966 332.1520459088459
  endloop
endfacet
facet normal -1.0 0.0 -0.0
  outer loop
    vertex 2665.381016904395 11789.31280319966 332.1520459088459
    vertex 2665.381016904395 11788.51364122099 333.5766911248693
    vertex 2665.381016904395 11789.387571404945 333.4101090590773
  endloop
endfacet
facet normal -1.0 0.0 -0.0
  outer loop
    vertex 2665.381016904395 11789.31280319966 332.1520459088459
    vertex 2665.381016904395 11789.387571404945 333.4101090590773
    vertex 2665.381016904395 11789.50484370335 331.6974223648221
  endloop
endfacet
facet normal -1.0 0.0 -0.0
  outer loop
    vertex 2665.381016904395 11786.153799481795 330.35244368010063
    vertex 2665.381016904395 11786.173434997909 329.204708480416
    vertex 2665.381016904395 11785.742944054255 329.38941843974925
  endloop
endfacet
facet normal -1.0 0.0 -0.0
  outer loop
    vertex 2665.381016904395 11786.173434997909 329.204708480416
    vertex 2665.381016904395 11786.153799481795 330.35244368010063
    vertex 2665.381016904395 11786.946570682034 329.00963920239667
  endloop
endfacet
facet normal -1.0 0.0 -0.0
  outer loop
    vertex 2665.381016904395 11786.946570682034 329.00963920239667
    vertex 2665.381016904395 11786.153799481795 330.35244368010063
    vertex 2665.381016904395 11786.521312177101 330.1834008215237
  endloop
endfacet
facet normal -1.0 0.0 -0.0
  outer loop
    vertex 2665.381016904395 11786.946570682034 329.00963920239667
    vertex 2665.381016904395 11786.521312177101 330.1834008215237
    vertex 2665.381016904395 11788.026792119404 329.1557463549199
  endloop
endfacet
facet normal -1.0 0.0 -0.0
  outer loop
    vertex 2665.381016904395 11788.026792119404 329.1557463549199
    vertex 2665.381016904395 11786.521312177101 330.1834008215237
    vertex 2665.381016904395 11786.962419567833 330.07362568236437
  endloop
endfacet
facet normal -1.0 0.0 -0.0
  outer loop
    vertex 2665.381016904395 11788.026792119404 329.1557463549199
    vertex 2665.381016904395 11786.962419567833 330.07362568236437
    vertex 2665.381016904395 11787.749071405251 330.180372047195
  endloop
endfacet
facet normal -1.0 0.0 -0.0
  outer loop
    vertex 2665.381016904395 11788.026792119404 329.1557463549199
    vertex 2665.381016904395 11787.749071405251 330.180372047195
    vertex 2665.381016904395 11789.318832048975 329.7015253892994
  endloop
endfacet
facet normal -1.0 0.0 -0.0
  outer loop
    vertex 2665.381016904395 11789.318832048975 329.7015253892994
    vertex 2665.381016904395 11787.749071405251 330.180372047195
    vertex 2665.381016904395 11788.77788421156 330.61495959138296
  endloop
endfacet
facet normal -1.0 0.0 -0.0
  outer loop
    vertex 2665.381016904395 11789.318832048975 329.7015253892994
    vertex 2665.381016904395 11788.77788421156 330.61495959138296
    vertex 2665.381016904395 11789.219687644114 330.97077284325326
  endloop
endfacet
facet normal -1.0 0.0 -0.0
  outer loop
    vertex 2665.381016904395 11789.318832048975 329.7015253892994
    vertex 2665.381016904395 11789.219687644114 330.97077284325326
    vertex 2665.381016904395 11790.031245108043 330.28447659223536
  endloop
endfacet
facet normal -1.0 0.0 -0.0
  outer loop
    vertex 2665.381016904395 11790.031245108043 330.28447659223536
    vertex 2665.381016904395 11789.219687644114 330.97077284325326
    vertex 2665.381016904395 11789.427834161994 331.3124258589019
  endloop
endfacet
facet normal -1.0 0.0 -0.0
  outer loop
    vertex 2665.381016904395 11790.031245108043 330.28447659223536
    vertex 2665.381016904395 11789.427834161994 331.3124258589019
    vertex 2665.381016904395 11789.50484370335 331.6974223648221
  endloop
endfacet
facet normal -1.0 0.0 -0.0
  outer loop
    vertex 2665.381016904395 11790.031245108043 330.28447659223536
    vertex 2665.381016904395 11789.50484370335 331.6974223648221
    vertex 2665.381016904395 11790.43363503597 330.93372961791044
  endloop
endfacet
facet normal -1.0 0.0 -0.0
  outer loop
    vertex 2665.381016904395 11790.43363503597 330.93372961791044
    vertex 2665.381016904395 11789.50484370335 331.6974223648221
    vertex 2665.381016904395 11789.387571404945 333.4101090590773
  endloop
endfacet
facet normal -1.0 0.0 -0.0
  outer loop
    vertex 2665.381016904395 11790.43363503597 330.93372961791044
    vertex 2665.381016904395 11789.387571404945 333.4101090590773
    vertex 2665.381016904395 11790.177547574793 332.84161453339874
  endloop
endfacet
facet normal -1.0 0.0 -0.0
  outer loop
    vertex 2665.381016904395 11790.43363503597 330.93372961791044
    vertex 2665.381016904395 11790.177547574793 332.84161453339874
    vertex 2665.381016904395 11790.607123019909 331.8246670273733
  endloop
endfacet
endsolid thesis3
