solid thesis3
facet normal 0.0 1.0 -0.0
  outer loop
    vertex 2575.6477704661966 11450.359358079693 2339.1946669299946
    vertex 2575.427019039437 11450.359358079693 2336.1298088133176
    vertex 2575.427019039437 11450.359358079693 2338.012933416995
  endloop
endfacet
facet normal 0.0 1.0 -0.0
  outer loop
    vertex 2575.427019039437 11450.359358079693 2336.1298088133176
    vertex 2575.6477704661966 11450.359358079693 2339.1946669299946
    vertex 2575.6477704661966 11450.359358079693 2334.9480753003177
  endloop
endfacet
facet normal 0.0 1.0 -0.0
  outer loop
    vertex 2575.6477704661966 11450.359358079693 2334.9480753003177
    vertex 2575.6477704661966 11450.359358079693 2339.1946669299946
    vertex 2576.1153314998046 11450.359358079693 2340.311601774636
  endloop
endfacet
facet normal 0.0 1.0 -0.0
  outer loop
    vertex 2575.6477704661966 11450.359358079693 2334.9480753003177
    vertex 2576.1153314998046 11450.359358079693 2340.311601774636
    vertex 2576.1153314998046 11450.359358079693 2333.8312395362086
  endloop
endfacet
facet normal 0.0 1.0 -0.0
  outer loop
    vertex 2576.1153314998046 11450.359358079693 2333.8312395362086
    vertex 2576.1153314998046 11450.359358079693 2340.311601774636
    vertex 2576.504916154212 11450.359358079693 2337.934957037794
  endloop
endfacet
facet normal 0.0 1.0 -0.0
  outer loop
    vertex 2576.504916154212 11450.359358079693 2337.934957037794
    vertex 2576.1153314998046 11450.359358079693 2340.311601774636
    vertex 2577.024395386932 11450.359358079693 2341.2336452115414
  endloop
endfacet
facet normal 0.0 1.0 -0.0
  outer loop
    vertex 2576.504916154212 11450.359358079693 2337.934957037794
    vertex 2577.024395386932 11450.359358079693 2341.2336452115414
    vertex 2576.6867289316374 11450.359358079693 2338.8830586547883
  endloop
endfacet
facet normal 0.0 1.0 -0.0
  outer loop
    vertex 2576.6867289316374 11450.359358079693 2338.8830586547883
    vertex 2577.024395386932 11450.359358079693 2341.2336452115414
    vertex 2576.998436287376 11450.359358079693 2339.6881870631587
  endloop
endfacet
facet normal 0.0 1.0 -0.0
  outer loop
    vertex 2576.998436287376 11450.359358079693 2339.6881870631587
    vertex 2577.024395386932 11450.359358079693 2341.2336452115414
    vertex 2577.647711017877 11450.359358079693 2340.3505404239704
  endloop
endfacet
facet normal 0.0 1.0 -0.0
  outer loop
    vertex 2577.647711017877 11450.359358079693 2340.3505404239704
    vertex 2577.024395386932 11450.359358079693 2341.2336452115414
    vertex 2578.206227980464 11450.359358079693 2341.7920630935964
  endloop
endfacet
facet normal 0.0 1.0 -0.0
  outer loop
    vertex 2577.647711017877 11450.359358079693 2340.3505404239704
    vertex 2578.206227980464 11450.359358079693 2341.7920630935964
    vertex 2578.426979407224 11450.359358079693 2340.7271455285995
  endloop
endfacet
facet normal 0.0 1.0 -0.0
  outer loop
    vertex 2578.426979407224 11450.359358079693 2340.7271455285995
    vertex 2578.206227980464 11450.359358079693 2341.7920630935964
    vertex 2579.4398796925757 11450.359358079693 2341.7920630935964
  endloop
endfacet
facet normal 0.0 1.0 -0.0
  outer loop
    vertex 2578.426979407224 11450.359358079693 2340.7271455285995
    vertex 2579.4398796925757 11450.359358079693 2341.7920630935964
    vertex 2579.219128265816 11450.359358079693 2340.7271455285995
  endloop
endfacet
facet normal 0.0 1.0 -0.0
  outer loop
    vertex 2579.219128265816 11450.359358079693 2340.7271455285995
    vertex 2579.4398796925757 11450.359358079693 2341.7920630935964
    vertex 2579.9983966551627 11450.359358079693 2340.3505404239704
  endloop
endfacet
facet normal 0.0 1.0 -0.0
  outer loop
    vertex 2579.9983966551627 11450.359358079693 2340.3505404239704
    vertex 2579.4398796925757 11450.359358079693 2341.7920630935964
    vertex 2580.6217122861076 11450.359358079693 2341.2336452115414
  endloop
endfacet
facet normal 0.0 1.0 -0.0
  outer loop
    vertex 2579.9983966551627 11450.359358079693 2340.3505404239704
    vertex 2580.6217122861076 11450.359358079693 2341.2336452115414
    vertex 2580.362022210014 11450.359358079693 2339.9869148691196
  endloop
endfacet
facet normal 0.0 1.0 -0.0
  outer loop
    vertex 2576.1153314998046 11450.359358079693 2333.8312395362086
    vertex 2576.504916154212 11450.359358079693 2336.220764742296
    vertex 2577.024395386932 11450.359358079693 2332.9091960993032
  endloop
endfacet
facet normal 0.0 1.0 -0.0
  outer loop
    vertex 2576.504916154212 11450.359358079693 2336.220764742296
    vertex 2576.1153314998046 11450.359358079693 2333.8312395362086
    vertex 2576.504916154212 11450.359358079693 2337.934957037794
  endloop
endfacet
facet normal 0.0 1.0 -0.0
  outer loop
    vertex 2577.024395386932 11450.359358079693 2332.9091960993032
    vertex 2576.504916154212 11450.359358079693 2336.220764742296
    vertex 2576.699708481415 11450.359358079693 2335.22074492619
  endloop
endfacet
facet normal 0.0 1.0 -0.0
  outer loop
    vertex 2577.024395386932 11450.359358079693 2332.9091960993032
    vertex 2576.699708481415 11450.359358079693 2335.22074492619
    vertex 2576.7776848606163 11450.359358079693 2335.038932148764
  endloop
endfacet
facet normal 0.0 1.0 -0.0
  outer loop
    vertex 2577.024395386932 11450.359358079693 2332.9091960993032
    vertex 2576.7776848606163 11450.359358079693 2335.038932148764
    vertex 2577.2971640933365 11450.359358079693 2334.168905991504
  endloop
endfacet
facet normal 0.0 1.0 -0.0
  outer loop
    vertex 2577.2971640933365 11450.359358079693 2334.168905991504
    vertex 2576.7776848606163 11450.359358079693 2335.038932148764
    vertex 2580.362022210014 11450.359358079693 2339.9869148691196
  endloop
endfacet
facet normal 0.0 1.0 -0.0
  outer loop
    vertex 2577.2971640933365 11450.359358079693 2334.168905991504
    vertex 2580.362022210014 11450.359358079693 2339.9869148691196
    vertex 2580.8684228124234 11450.359358079693 2339.103810081548
  endloop
endfacet
facet normal 0.0 1.0 -0.0
  outer loop
    vertex 2580.8684228124234 11450.359358079693 2339.103810081548
    vertex 2580.362022210014 11450.359358079693 2339.9869148691196
    vertex 2580.6217122861076 11450.359358079693 2341.2336452115414
  endloop
endfacet
facet normal 0.0 1.0 -0.0
  outer loop
    vertex 2580.8684228124234 11450.359358079693 2339.103810081548
    vertex 2580.6217122861076 11450.359358079693 2341.2336452115414
    vertex 2581.530776173235 11450.359358079693 2340.311601774636
  endloop
endfacet
facet normal 0.0 1.0 -0.0
  outer loop
    vertex 2580.8684228124234 11450.359358079693 2339.103810081548
    vertex 2581.530776173235 11450.359358079693 2340.311601774636
    vertex 2580.959378741403 11450.359358079693 2338.8830586547883
  endloop
endfacet
facet normal 0.0 1.0 -0.0
  outer loop
    vertex 2580.959378741403 11450.359358079693 2338.8830586547883
    vertex 2581.530776173235 11450.359358079693 2340.311601774636
    vertex 2581.1411915188282 11450.359358079693 2337.934957037794
  endloop
endfacet
facet normal 0.0 1.0 -0.0
  outer loop
    vertex 2581.1411915188282 11450.359358079693 2337.934957037794
    vertex 2581.530776173235 11450.359358079693 2340.311601774636
    vertex 2581.1411915188282 11450.359358079693 2336.220764742296
  endloop
endfacet
facet normal 0.0 1.0 -0.0
  outer loop
    vertex 2577.2971640933365 11450.359358079693 2334.168905991504
    vertex 2578.206227980464 11450.359358079693 2332.3506791367163
    vertex 2577.024395386932 11450.359358079693 2332.9091960993032
  endloop
endfacet
facet normal 0.0 1.0 -0.0
  outer loop
    vertex 2578.206227980464 11450.359358079693 2332.3506791367163
    vertex 2577.2971640933365 11450.359358079693 2334.168905991504
    vertex 2577.660789648188 11450.359358079693 2333.779222256564
  endloop
endfacet
facet normal 0.0 1.0 -0.0
  outer loop
    vertex 2578.206227980464 11450.359358079693 2332.3506791367163
    vertex 2577.660789648188 11450.359358079693 2333.779222256564
    vertex 2578.4139998574456 11450.359358079693 2333.4155967017127
  endloop
endfacet
facet normal 0.0 1.0 -0.0
  outer loop
    vertex 2578.206227980464 11450.359358079693 2332.3506791367163
    vertex 2578.4139998574456 11450.359358079693 2333.4155967017127
    vertex 2579.4398796925757 11450.359358079693 2332.3506791367163
  endloop
endfacet
facet normal 0.0 1.0 -0.0
  outer loop
    vertex 2579.4398796925757 11450.359358079693 2332.3506791367163
    vertex 2578.4139998574456 11450.359358079693 2333.4155967017127
    vertex 2579.232107815594 11450.359358079693 2333.4155967017127
  endloop
endfacet
facet normal 0.0 1.0 -0.0
  outer loop
    vertex 2579.4398796925757 11450.359358079693 2332.3506791367163
    vertex 2579.232107815594 11450.359358079693 2333.4155967017127
    vertex 2579.9853180248524 11450.359358079693 2333.779222256564
  endloop
endfacet
facet normal 0.0 1.0 -0.0
  outer loop
    vertex 2579.4398796925757 11450.359358079693 2332.3506791367163
    vertex 2579.9853180248524 11450.359358079693 2333.779222256564
    vertex 2580.6217122861076 11450.359358079693 2332.9091960993032
  endloop
endfacet
facet normal 0.0 1.0 -0.0
  outer loop
    vertex 2580.6217122861076 11450.359358079693 2332.9091960993032
    vertex 2579.9853180248524 11450.359358079693 2333.779222256564
    vertex 2580.634691835886 11450.359358079693 2334.467534716932
  endloop
endfacet
facet normal 0.0 1.0 -0.0
  outer loop
    vertex 2580.6217122861076 11450.359358079693 2332.9091960993032
    vertex 2580.634691835886 11450.359358079693 2334.467534716932
    vertex 2581.530776173235 11450.359358079693 2333.8312395362086
  endloop
endfacet
facet normal 0.0 1.0 -0.0
  outer loop
    vertex 2581.530776173235 11450.359358079693 2333.8312395362086
    vertex 2580.634691835886 11450.359358079693 2334.467534716932
    vertex 2580.9463991916246 11450.359358079693 2335.22074492619
  endloop
endfacet
facet normal 0.0 1.0 -0.0
  outer loop
    vertex 2581.530776173235 11450.359358079693 2333.8312395362086
    vertex 2580.9463991916246 11450.359358079693 2335.22074492619
    vertex 2581.1411915188282 11450.359358079693 2336.220764742296
  endloop
endfacet
facet normal 0.0 1.0 -0.0
  outer loop
    vertex 2581.530776173235 11450.359358079693 2333.8312395362086
    vertex 2581.1411915188282 11450.359358079693 2336.220764742296
    vertex 2581.530776173235 11450.359358079693 2340.311601774636
  endloop
endfacet
facet normal 0.0 1.0 -0.0
  outer loop
    vertex 2581.530776173235 11450.359358079693 2333.8312395362086
    vertex 2581.530776173235 11450.359358079693 2340.311601774636
    vertex 2581.998337206843 11450.359358079693 2339.1946669299946
  endloop
endfacet
facet normal 0.0 1.0 -0.0
  outer loop
    vertex 2581.530776173235 11450.359358079693 2333.8312395362086
    vertex 2581.998337206843 11450.359358079693 2339.1946669299946
    vertex 2581.998337206843 11450.359358079693 2334.9480753003177
  endloop
endfacet
facet normal 0.0 1.0 -0.0
  outer loop
    vertex 2581.998337206843 11450.359358079693 2334.9480753003177
    vertex 2581.998337206843 11450.359358079693 2339.1946669299946
    vertex 2582.219088633603 11450.359358079693 2338.012933416995
  endloop
endfacet
facet normal 0.0 1.0 -0.0
  outer loop
    vertex 2581.998337206843 11450.359358079693 2334.9480753003177
    vertex 2582.219088633603 11450.359358079693 2338.012933416995
    vertex 2582.219088633603 11450.359358079693 2336.1298088133176
  endloop
endfacet
facet normal 0.0 1.0 -0.0
  outer loop
    vertex 2584.948063744573 11450.359358079693 2341.181627931897
    vertex 2585.142856071777 11450.359358079693 2339.818081641472
    vertex 2584.376666312741 11450.359358079693 2340.5842714005084
  endloop
endfacet
facet normal 0.0 1.0 -0.0
  outer loop
    vertex 2585.142856071777 11450.359358079693 2339.818081641472
    vertex 2584.948063744573 11450.359358079693 2341.181627931897
    vertex 2586.311610034998 11450.359358079693 2341.7920630935964
  endloop
endfacet
facet normal 0.0 1.0 -0.0
  outer loop
    vertex 2585.142856071777 11450.359358079693 2339.818081641472
    vertex 2586.311610034998 11450.359358079693 2341.7920630935964
    vertex 2585.597338475074 11450.359358079693 2340.2855435945476
  endloop
endfacet
facet normal 0.0 1.0 -0.0
  outer loop
    vertex 2585.597338475074 11450.359358079693 2340.2855435945476
    vertex 2586.311610034998 11450.359358079693 2341.7920630935964
    vertex 2586.5194809925124 11450.359358079693 2340.7271455285995
  endloop
endfacet
facet normal 0.0 1.0 -0.0
  outer loop
    vertex 2586.5194809925124 11450.359358079693 2340.7271455285995
    vertex 2586.311610034998 11450.359358079693 2341.7920630935964
    vertex 2587.7141940552897 11450.359358079693 2341.7920630935964
  endloop
endfacet
facet normal 0.0 1.0 -0.0
  outer loop
    vertex 2586.5194809925124 11450.359358079693 2340.7271455285995
    vertex 2587.7141940552897 11450.359358079693 2341.7920630935964
    vertex 2587.454503979196 11450.359358079693 2340.7271455285995
  endloop
endfacet
facet normal 0.0 1.0 -0.0
  outer loop
    vertex 2587.454503979196 11450.359358079693 2340.7271455285995
    vertex 2587.7141940552897 11450.359358079693 2341.7920630935964
    vertex 2588.3246292169893 11450.359358079693 2340.311601774636
  endloop
endfacet
facet normal 0.0 1.0 -0.0
  outer loop
    vertex 2588.3246292169893 11450.359358079693 2340.311601774636
    vertex 2587.7141940552897 11450.359358079693 2341.7920630935964
    vertex 2589.064859876469 11450.359358079693 2341.1297097327847
  endloop
endfacet
facet normal 0.0 1.0 -0.0
  outer loop
    vertex 2588.3246292169893 11450.359358079693 2340.311601774636
    vertex 2589.064859876469 11450.359358079693 2341.1297097327847
    vertex 2588.844009369177 11450.359358079693 2339.467435636399
  endloop
endfacet
facet normal 0.0 1.0 -0.0
  outer loop
    vertex 2588.844009369177 11450.359358079693 2339.467435636399
    vertex 2589.064859876469 11450.359358079693 2341.1297097327847
    vertex 2588.844009369177 11450.359358079693 2338.753164076475
  endloop
endfacet
facet normal 0.0 1.0 -0.0
  outer loop
    vertex 2588.441445164992 11450.359358079693 2337.9479365875723
    vertex 2584.402625412297 11450.359358079693 2332.4546146154735
    vertex 2584.402625412297 11450.359358079693 2333.4155967017127
  endloop
endfacet
facet normal 0.0 1.0 -0.0
  outer loop
    vertex 2584.402625412297 11450.359358079693 2332.4546146154735
    vertex 2588.441445164992 11450.359358079693 2337.9479365875723
    vertex 2585.8701071814785 11450.359358079693 2333.51953218047
  endloop
endfacet
facet normal 0.0 1.0 -0.0
  outer loop
    vertex 2585.8701071814785 11450.359358079693 2333.51953218047
    vertex 2588.441445164992 11450.359358079693 2337.9479365875723
    vertex 2589.350509052119 11450.359358079693 2337.3635596059617
  endloop
endfacet
facet normal 0.0 1.0 -0.0
  outer loop
    vertex 2589.350509052119 11450.359358079693 2337.3635596059617
    vertex 2588.441445164992 11450.359358079693 2337.9479365875723
    vertex 2588.844009369177 11450.359358079693 2338.753164076475
  endloop
endfacet
facet normal 0.0 1.0 -0.0
  outer loop
    vertex 2589.350509052119 11450.359358079693 2337.3635596059617
    vertex 2588.844009369177 11450.359358079693 2338.753164076475
    vertex 2589.064859876469 11450.359358079693 2341.1297097327847
  endloop
endfacet
facet normal 0.0 1.0 -0.0
  outer loop
    vertex 2589.350509052119 11450.359358079693 2337.3635596059617
    vertex 2589.064859876469 11450.359358079693 2341.1297097327847
    vertex 2589.9219064839517 11450.359358079693 2339.779142992138
  endloop
endfacet
facet normal 0.0 1.0 -0.0
  outer loop
    vertex 2589.350509052119 11450.359358079693 2337.3635596059617
    vertex 2589.9219064839517 11450.359358079693 2339.779142992138
    vertex 2589.9219064839517 11450.359358079693 2338.5324126497153
  endloop
endfacet
facet normal 0.0 1.0 -0.0
  outer loop
    vertex 2585.8701071814785 11450.359358079693 2333.51953218047
    vertex 2590.025841962709 11450.359358079693 2332.4546146154735
    vertex 2584.402625412297 11450.359358079693 2332.4546146154735
  endloop
endfacet
facet normal 0.0 1.0 -0.0
  outer loop
    vertex 2590.025841962709 11450.359358079693 2332.4546146154735
    vertex 2585.8701071814785 11450.359358079693 2333.51953218047
    vertex 2590.025841962709 11450.359358079693 2333.51953218047
  endloop
endfacet
facet normal 0.0 1.0 -0.0
  outer loop
    vertex 2596.3002157737424 11450.359358079693 2334.2078446408377
    vertex 2594.5989039474903 11450.359358079693 2332.4546146154735
    vertex 2594.5989039474903 11450.359358079693 2334.2078446408377
  endloop
endfacet
facet normal 0.0 1.0 -0.0
  outer loop
    vertex 2594.5989039474903 11450.359358079693 2332.4546146154735
    vertex 2596.3002157737424 11450.359358079693 2334.2078446408377
    vertex 2596.3002157737424 11450.359358079693 2332.4546146154735
  endloop
endfacet
facet normal 0.0 1.0 -0.0
  outer loop
    vertex 2604.2498432309394 11450.359358079693 2341.6881276148392
    vertex 2601.5486106691137 11450.359358079693 2339.1167896313264
    vertex 2601.0680700857274 11450.359358079693 2340.0777717175656
  endloop
endfacet
facet normal 0.0 1.0 -0.0
  outer loop
    vertex 2601.5486106691137 11450.359358079693 2339.1167896313264
    vertex 2604.2498432309394 11450.359358079693 2341.6881276148392
    vertex 2603.7563230977757 11450.359358079693 2340.259584494991
  endloop
endfacet
facet normal 0.0 1.0 -0.0
  outer loop
    vertex 2603.7563230977757 11450.359358079693 2340.259584494991
    vertex 2604.2498432309394 11450.359358079693 2341.6881276148392
    vertex 2603.7563230977757 11450.359358079693 2333.51953218047
  endloop
endfacet
facet normal 0.0 1.0 -0.0
  outer loop
    vertex 2603.7563230977757 11450.359358079693 2333.51953218047
    vertex 2601.340838792132 11450.359358079693 2332.4546146154735
    vertex 2601.340838792132 11450.359358079693 2333.51953218047
  endloop
endfacet
facet normal 0.0 1.0 -0.0
  outer loop
    vertex 2601.340838792132 11450.359358079693 2332.4546146154735
    vertex 2603.7563230977757 11450.359358079693 2333.51953218047
    vertex 2607.0549121909908 11450.359358079693 2332.4546146154735
  endloop
endfacet
facet normal 0.0 1.0 -0.0
  outer loop
    vertex 2607.0549121909908 11450.359358079693 2332.4546146154735
    vertex 2603.7563230977757 11450.359358079693 2333.51953218047
    vertex 2604.8342202125505 11450.359358079693 2333.51953218047
  endloop
endfacet
facet normal 0.0 1.0 -0.0
  outer loop
    vertex 2604.8342202125505 11450.359358079693 2333.51953218047
    vertex 2603.7563230977757 11450.359358079693 2333.51953218047
    vertex 2604.2498432309394 11450.359358079693 2341.6881276148392
  endloop
endfacet
facet normal 0.0 1.0 -0.0
  outer loop
    vertex 2604.8342202125505 11450.359358079693 2333.51953218047
    vertex 2604.2498432309394 11450.359358079693 2341.6881276148392
    vertex 2604.8342202125505 11450.359358079693 2341.6881276148392
  endloop
endfacet
facet normal 0.0 1.0 -0.0
  outer loop
    vertex 2607.0549121909908 11450.359358079693 2332.4546146154735
    vertex 2604.8342202125505 11450.359358079693 2333.51953218047
    vertex 2607.0549121909908 11450.359358079693 2333.51953218047
  endloop
endfacet
facet normal 0.0 1.0 -0.0
  outer loop
    vertex 2578.180169800375 11450.359358079693 2321.2161079572616
    vertex 2577.4269595911173 11450.359358079693 2319.540755230565
    vertex 2577.375041392005 11450.359358079693 2320.9952574499694
  endloop
endfacet
facet normal 0.0 1.0 -0.0
  outer loop
    vertex 2577.4269595911173 11450.359358079693 2319.540755230565
    vertex 2578.180169800375 11450.359358079693 2321.2161079572616
    vertex 2577.6087723685428 11450.359358079693 2319.8524625863042
  endloop
endfacet
facet normal 0.0 1.0 -0.0
  outer loop
    vertex 2577.6087723685428 11450.359358079693 2319.8524625863042
    vertex 2578.180169800375 11450.359358079693 2321.2161079572616
    vertex 2577.8295237953025 11450.359358079693 2320.0342753637296
  endloop
endfacet
facet normal 0.0 1.0 -0.0
  outer loop
    vertex 2577.8295237953025 11450.359358079693 2320.0342753637296
    vertex 2578.180169800375 11450.359358079693 2321.2161079572616
    vertex 2578.3230439284666 11450.359358079693 2320.1771494918207
  endloop
endfacet
facet normal 0.0 1.0 -0.0
  outer loop
    vertex 2578.3230439284666 11450.359358079693 2320.1771494918207
    vertex 2578.180169800375 11450.359358079693 2321.2161079572616
    vertex 2579.4918969722207 11450.359358079693 2321.2161079572616
  endloop
endfacet
facet normal 0.0 1.0 -0.0
  outer loop
    vertex 2578.3230439284666 11450.359358079693 2320.1771494918207
    vertex 2579.4918969722207 11450.359358079693 2321.2161079572616
    vertex 2579.4009410432413 11450.359358079693 2320.1771494918207
  endloop
endfacet
facet normal 0.0 1.0 -0.0
  outer loop
    vertex 2579.4009410432413 11450.359358079693 2320.1771494918207
    vertex 2579.4918969722207 11450.359358079693 2321.2161079572616
    vertex 2580.1022330533874 11450.359358079693 2319.9563980650614
  endloop
endfacet
facet normal 0.0 1.0 -0.0
  outer loop
    vertex 2580.1022330533874 11450.359358079693 2319.9563980650614
    vertex 2579.4918969722207 11450.359358079693 2321.2161079572616
    vertex 2580.5047972575726 11450.359358079693 2320.930359701079
  endloop
endfacet
facet normal 0.0 1.0 -0.0
  outer loop
    vertex 2580.1022330533874 11450.359358079693 2319.9563980650614
    vertex 2580.5047972575726 11450.359358079693 2320.930359701079
    vertex 2580.803525063533 11450.359358079693 2319.5277756807873
  endloop
endfacet
facet normal 0.0 1.0 -0.0
  outer loop
    vertex 2580.803525063533 11450.359358079693 2319.5277756807873
    vertex 2580.5047972575726 11450.359358079693 2320.930359701079
    vertex 2581.387902045144 11450.359358079693 2320.3979009185805
  endloop
endfacet
facet normal 0.0 1.0 -0.0
  outer loop
    vertex 2576.7906644103946 11450.359358079693 2320.5407750466716
    vertex 2576.3620420261204 11450.359358079693 2318.644670893216
    vertex 2576.3620420261204 11450.359358079693 2319.8005443871916
  endloop
endfacet
facet normal 0.0 1.0 -0.0
  outer loop
    vertex 2576.3620420261204 11450.359358079693 2318.644670893216
    vertex 2576.7906644103946 11450.359358079693 2320.5407750466716
    vertex 2576.907480358397 11450.359358079693 2317.891460683958
  endloop
endfacet
facet normal 0.0 1.0 -0.0
  outer loop
    vertex 2576.907480358397 11450.359358079693 2317.891460683958
    vertex 2576.7906644103946 11450.359358079693 2320.5407750466716
    vertex 2577.375041392005 11450.359358079693 2320.9952574499694
  endloop
endfacet
facet normal 0.0 1.0 -0.0
  outer loop
    vertex 2576.907480358397 11450.359358079693 2317.891460683958
    vertex 2577.375041392005 11450.359358079693 2320.9952574499694
    vertex 2577.4269595911173 11450.359358079693 2318.9693577987327
  endloop
endfacet
facet normal 0.0 1.0 -0.0
  outer loop
    vertex 2576.907480358397 11450.359358079693 2317.891460683958
    vertex 2577.4269595911173 11450.359358079693 2318.9693577987327
    vertex 2577.738666946856 11450.359358079693 2317.4499578304385
  endloop
endfacet
facet normal 0.0 1.0 -0.0
  outer loop
    vertex 2577.4269595911173 11450.359358079693 2318.9693577987327
    vertex 2577.375041392005 11450.359358079693 2320.9952574499694
    vertex 2577.4269595911173 11450.359358079693 2319.540755230565
  endloop
endfacet
facet normal 0.0 1.0 -0.0
  outer loop
    vertex 2577.738666946856 11450.359358079693 2317.4499578304385
    vertex 2577.4269595911173 11450.359358079693 2318.9693577987327
    vertex 2577.686748747744 11450.359358079693 2318.6187117936597
  endloop
endfacet
facet normal 0.0 1.0 -0.0
  outer loop
    vertex 2577.738666946856 11450.359358079693 2317.4499578304385
    vertex 2577.686748747744 11450.359358079693 2318.6187117936597
    vertex 2578.0503743025947 11450.359358079693 2318.4368990162343
  endloop
endfacet
facet normal 0.0 1.0 -0.0
  outer loop
    vertex 2577.738666946856 11450.359358079693 2317.4499578304385
    vertex 2578.0503743025947 11450.359358079693 2318.4368990162343
    vertex 2579.86850207685 11450.359358079693 2317.0733527258094
  endloop
endfacet
facet normal 0.0 1.0 -0.0
  outer loop
    vertex 2579.86850207685 11450.359358079693 2317.0733527258094
    vertex 2578.0503743025947 11450.359358079693 2318.4368990162343
    vertex 2580.297025380591 11450.359358079693 2318.047314361827
  endloop
endfacet
facet normal 0.0 1.0 -0.0
  outer loop
    vertex 2579.86850207685 11450.359358079693 2317.0733527258094
    vertex 2580.297025380591 11450.359358079693 2318.047314361827
    vertex 2580.2580867312568 11450.359358079693 2316.800584019405
  endloop
endfacet
facet normal 0.0 1.0 -0.0
  outer loop
    vertex 2580.2580867312568 11450.359358079693 2316.800584019405
    vertex 2580.297025380591 11450.359358079693 2318.047314361827
    vertex 2580.4788381580165 11450.359358079693 2316.423978914776
  endloop
endfacet
facet normal 0.0 1.0 -0.0
  outer loop
    vertex 2580.4788381580165 11450.359358079693 2316.423978914776
    vertex 2580.297025380591 11450.359358079693 2318.047314361827
    vertex 2581.037256040071 11450.359358079693 2317.553794228663
  endloop
endfacet
facet normal 0.0 1.0 -0.0
  outer loop
    vertex 2580.4788381580165 11450.359358079693 2316.423978914776
    vertex 2581.037256040071 11450.359358079693 2317.553794228663
    vertex 2580.4788381580165 11450.359358079693 2315.930458781612
  endloop
endfacet
facet normal 0.0 1.0 -0.0
  outer loop
    vertex 2576.868541709063 11450.359358079693 2315.9954556110347
    vertex 2576.4400184053216 11450.359358079693 2314.930538046038
    vertex 2576.1153314998046 11450.359358079693 2315.2682045013325
  endloop
endfacet
facet normal 0.0 1.0 -0.0
  outer loop
    vertex 2576.4400184053216 11450.359358079693 2314.930538046038
    vertex 2576.868541709063 11450.359358079693 2315.9954556110347
    vertex 2577.0763135860443 11450.359358079693 2314.4499974626515
  endloop
endfacet
facet normal 0.0 1.0 -0.0
  outer loop
    vertex 2577.0763135860443 11450.359358079693 2314.4499974626515
    vertex 2576.868541709063 11450.359358079693 2315.9954556110347
    vertex 2577.141310415467 11450.359358079693 2315.696727805074
  endloop
endfacet
facet normal 0.0 1.0 -0.0
  outer loop
    vertex 2577.0763135860443 11450.359358079693 2314.4499974626515
    vertex 2577.141310415467 11450.359358079693 2315.696727805074
    vertex 2578.1282516012634 11450.359358079693 2314.164249206469
  endloop
endfacet
facet normal 0.0 1.0 -0.0
  outer loop
    vertex 2578.1282516012634 11450.359358079693 2314.164249206469
    vertex 2577.141310415467 11450.359358079693 2315.696727805074
    vertex 2577.504935970318 11450.359358079693 2315.423959098669
  endloop
endfacet
facet normal 0.0 1.0 -0.0
  outer loop
    vertex 2578.1282516012634 11450.359358079693 2314.164249206469
    vertex 2577.504935970318 11450.359358079693 2315.423959098669
    vertex 2578.2711257293545 11450.359358079693 2315.2161872216875
  endloop
endfacet
facet normal 0.0 1.0 -0.0
  outer loop
    vertex 2578.1282516012634 11450.359358079693 2314.164249206469
    vertex 2578.2711257293545 11450.359358079693 2315.2161872216875
    vertex 2579.530835621555 11450.359358079693 2314.164249206469
  endloop
endfacet
facet normal 0.0 1.0 -0.0
  outer loop
    vertex 2579.530835621555 11450.359358079693 2314.164249206469
    vertex 2578.2711257293545 11450.359358079693 2315.2161872216875
    vertex 2579.3879614934635 11450.359358079693 2315.2161872216875
  endloop
endfacet
facet normal 0.0 1.0 -0.0
  outer loop
    vertex 2579.530835621555 11450.359358079693 2314.164249206469
    vertex 2579.3879614934635 11450.359358079693 2315.2161872216875
    vertex 2579.93339982574 11450.359358079693 2315.3720408995573
  endloop
endfacet
facet normal 0.0 1.0 -0.0
  outer loop
    vertex 2579.530835621555 11450.359358079693 2314.164249206469
    vertex 2579.93339982574 11450.359358079693 2315.3720408995573
    vertex 2580.413940409126 11450.359358079693 2314.4240383630954
  endloop
endfacet
facet normal 0.0 1.0 -0.0
  outer loop
    vertex 2580.413940409126 11450.359358079693 2314.4240383630954
    vertex 2579.93339982574 11450.359358079693 2315.3720408995573
    vertex 2580.2580867312568 11450.359358079693 2315.6057718760944
  endloop
endfacet
facet normal 0.0 1.0 -0.0
  outer loop
    vertex 2580.413940409126 11450.359358079693 2314.4240383630954
    vertex 2580.2580867312568 11450.359358079693 2315.6057718760944
    vertex 2580.4788381580165 11450.359358079693 2315.930458781612
  endloop
endfacet
facet normal 0.0 1.0 -0.0
  outer loop
    vertex 2580.413940409126 11450.359358079693 2314.4240383630954
    vertex 2580.4788381580165 11450.359358079693 2315.930458781612
    vertex 2581.037256040071 11450.359358079693 2314.8655412166145
  endloop
endfacet
facet normal 0.0 1.0 -0.0
  outer loop
    vertex 2581.037256040071 11450.359358079693 2314.8655412166145
    vertex 2580.4788381580165 11450.359358079693 2315.930458781612
    vertex 2581.037256040071 11450.359358079693 2317.553794228663
  endloop
endfacet
facet normal 0.0 1.0 -0.0
  outer loop
    vertex 2581.037256040071 11450.359358079693 2314.8655412166145
    vertex 2581.037256040071 11450.359358079693 2317.553794228663
    vertex 2581.543755723013 11450.359358079693 2316.7227067207364
  endloop
endfacet
facet normal 0.0 1.0 -0.0
  outer loop
    vertex 2581.037256040071 11450.359358079693 2314.8655412166145
    vertex 2581.543755723013 11450.359358079693 2316.7227067207364
    vertex 2581.543755723013 11450.359358079693 2315.618751425873
  endloop
endfacet
facet normal 0.0 1.0 -0.0
  outer loop
    vertex 2585.7922298828103 11450.359358079693 2320.7225878240974
    vertex 2585.5194611764055 11450.359358079693 2318.995316898289
    vertex 2585.5064816266276 11450.359358079693 2320.4238600181366
  endloop
endfacet
facet normal 0.0 1.0 -0.0
  outer loop
    vertex 2585.5194611764055 11450.359358079693 2318.995316898289
    vertex 2585.7922298828103 11450.359358079693 2320.7225878240974
    vertex 2585.896066281035 11450.359358079693 2319.5537347803433
  endloop
endfacet
facet normal 0.0 1.0 -0.0
  outer loop
    vertex 2585.896066281035 11450.359358079693 2319.5537347803433
    vertex 2585.7922298828103 11450.359358079693 2320.7225878240974
    vertex 2586.5973582911806 11450.359358079693 2321.2161079572616
  endloop
endfacet
facet normal 0.0 1.0 -0.0
  outer loop
    vertex 2585.896066281035 11450.359358079693 2319.5537347803433
    vertex 2586.5973582911806 11450.359358079693 2321.2161079572616
    vertex 2586.7402324192717 11450.359358079693 2320.1511903922647
  endloop
endfacet
facet normal 0.0 1.0 -0.0
  outer loop
    vertex 2586.7402324192717 11450.359358079693 2320.1511903922647
    vertex 2586.5973582911806 11450.359358079693 2321.2161079572616
    vertex 2587.896006832715 11450.359358079693 2321.2161079572616
  endloop
endfacet
facet normal 0.0 1.0 -0.0
  outer loop
    vertex 2586.7402324192717 11450.359358079693 2320.1511903922647
    vertex 2587.896006832715 11450.359358079693 2321.2161079572616
    vertex 2587.727173605068 11450.359358079693 2320.1511903922647
  endloop
endfacet
facet normal 0.0 1.0 -0.0
  outer loop
    vertex 2587.727173605068 11450.359358079693 2320.1511903922647
    vertex 2587.896006832715 11450.359358079693 2321.2161079572616
    vertex 2588.545380643749 11450.359358079693 2319.761506657325
  endloop
endfacet
facet normal 0.0 1.0 -0.0
  outer loop
    vertex 2588.545380643749 11450.359358079693 2319.761506657325
    vertex 2587.896006832715 11450.359358079693 2321.2161079572616
    vertex 2589.2466726538946 11450.359358079693 2320.592693245784
  endloop
endfacet
facet normal 0.0 1.0 -0.0
  outer loop
    vertex 2588.545380643749 11450.359358079693 2319.761506657325
    vertex 2589.2466726538946 11450.359358079693 2320.592693245784
    vertex 2589.1686962746935 11450.359358079693 2318.9174395996206
  endloop
endfacet
facet normal 0.0 1.0 -0.0
  outer loop
    vertex 2589.1686962746935 11450.359358079693 2318.9174395996206
    vertex 2589.2466726538946 11450.359358079693 2320.592693245784
    vertex 2589.3245499525633 11450.359358079693 2318.3330626180095
  endloop
endfacet
facet normal 0.0 1.0 -0.0
  outer loop
    vertex 2589.3245499525633 11450.359358079693 2318.3330626180095
    vertex 2589.2466726538946 11450.359358079693 2320.592693245784
    vertex 2590.129777441466 11450.359358079693 2319.397881102474
  endloop
endfacet
facet normal 0.0 1.0 -0.0
  outer loop
    vertex 2589.3245499525633 11450.359358079693 2318.3330626180095
    vertex 2590.129777441466 11450.359358079693 2319.397881102474
    vertex 2589.3245499525633 11450.359358079693 2317.0733527258094
  endloop
endfacet
facet normal 0.0 1.0 -0.0
  outer loop
    vertex 2585.7922298828103 11450.359358079693 2315.709707354852
    vertex 2585.5194611764055 11450.359358079693 2314.683728439189
    vertex 2585.5194611764055 11450.359358079693 2316.047373810147
  endloop
endfacet
facet normal 0.0 1.0 -0.0
  outer loop
    vertex 2585.5194611764055 11450.359358079693 2314.683728439189
    vertex 2585.7922298828103 11450.359358079693 2315.709707354852
    vertex 2585.8830867312568 11450.359358079693 2314.4499974626515
  endloop
endfacet
facet normal 0.0 1.0 -0.0
  outer loop
    vertex 2585.8830867312568 11450.359358079693 2314.4499974626515
    vertex 2585.7922298828103 11450.359358079693 2315.709707354852
    vertex 2586.285650935442 11450.359358079693 2315.385020449335
  endloop
endfacet
facet normal 0.0 1.0 -0.0
  outer loop
    vertex 2585.8830867312568 11450.359358079693 2314.4499974626515
    vertex 2586.285650935442 11450.359358079693 2315.385020449335
    vertex 2586.662256040071 11450.359358079693 2314.164249206469
  endloop
endfacet
facet normal 0.0 1.0 -0.0
  outer loop
    vertex 2586.662256040071 11450.359358079693 2314.164249206469
    vertex 2586.285650935442 11450.359358079693 2315.385020449335
    vertex 2586.8181097179404 11450.359358079693 2315.2161872216875
  endloop
endfacet
facet normal 0.0 1.0 -0.0
  outer loop
    vertex 2586.662256040071 11450.359358079693 2314.164249206469
    vertex 2586.8181097179404 11450.359358079693 2315.2161872216875
    vertex 2587.94802411236 11450.359358079693 2314.164249206469
  endloop
endfacet
facet normal 0.0 1.0 -0.0
  outer loop
    vertex 2587.94802411236 11450.359358079693 2314.164249206469
    vertex 2586.8181097179404 11450.359358079693 2315.2161872216875
    vertex 2587.7791908847125 11450.359358079693 2315.2161872216875
  endloop
endfacet
facet normal 0.0 1.0 -0.0
  outer loop
    vertex 2587.94802411236 11450.359358079693 2314.164249206469
    vertex 2587.7791908847125 11450.359358079693 2315.2161872216875
    vertex 2588.545380643749 11450.359358079693 2315.6318300561834
  endloop
endfacet
facet normal 0.0 1.0 -0.0
  outer loop
    vertex 2587.94802411236 11450.359358079693 2314.164249206469
    vertex 2588.545380643749 11450.359358079693 2315.6318300561834
    vertex 2589.2466726538946 11450.359358079693 2314.7876639179462
  endloop
endfacet
facet normal 0.0 1.0 -0.0
  outer loop
    vertex 2589.2466726538946 11450.359358079693 2314.7876639179462
    vertex 2588.545380643749 11450.359358079693 2315.6318300561834
    vertex 2589.1686962746935 11450.359358079693 2316.46291756411
  endloop
endfacet
facet normal 0.0 1.0 -0.0
  outer loop
    vertex 2589.2466726538946 11450.359358079693 2314.7876639179462
    vertex 2589.1686962746935 11450.359358079693 2316.46291756411
    vertex 2589.3245499525633 11450.359358079693 2317.0733527258094
  endloop
endfacet
facet normal 0.0 1.0 -0.0
  outer loop
    vertex 2589.2466726538946 11450.359358079693 2314.7876639179462
    vertex 2589.3245499525633 11450.359358079693 2317.0733527258094
    vertex 2590.129777441466 11450.359358079693 2315.9824760612564
  endloop
endfacet
facet normal 0.0 1.0 -0.0
  outer loop
    vertex 2590.129777441466 11450.359358079693 2315.9824760612564
    vertex 2589.3245499525633 11450.359358079693 2317.0733527258094
    vertex 2590.129777441466 11450.359358079693 2319.397881102474
  endloop
endfacet
facet normal 0.0 1.0 -0.0
  outer loop
    vertex 2590.129777441466 11450.359358079693 2315.9824760612564
    vertex 2590.129777441466 11450.359358079693 2319.397881102474
    vertex 2590.402447067338 11450.359358079693 2318.475837665568
  endloop
endfacet
facet normal 0.0 1.0 -0.0
  outer loop
    vertex 2590.129777441466 11450.359358079693 2315.9824760612564
    vertex 2590.402447067338 11450.359358079693 2318.475837665568
    vertex 2590.402447067338 11450.359358079693 2316.930478597718
  endloop
endfacet
facet normal 0.0 1.0 -0.0
  outer loop
    vertex 2585.5064816266276 11450.359358079693 2321.1121724785044
    vertex 2584.441564061631 11450.359358079693 2312.1643086547883
    vertex 2584.441564061631 11450.359358079693 2321.1121724785044
  endloop
endfacet
facet normal 0.0 1.0 -0.0
  outer loop
    vertex 2584.441564061631 11450.359358079693 2312.1643086547883
    vertex 2585.5064816266276 11450.359358079693 2321.1121724785044
    vertex 2585.5064816266276 11450.359358079693 2320.4238600181366
  endloop
endfacet
facet normal 0.0 1.0 -0.0
  outer loop
    vertex 2584.441564061631 11450.359358079693 2312.1643086547883
    vertex 2585.5064816266276 11450.359358079693 2320.4238600181366
    vertex 2585.5194611764055 11450.359358079693 2312.1643086547883
  endloop
endfacet
facet normal 0.0 1.0 -0.0
  outer loop
    vertex 2585.5194611764055 11450.359358079693 2312.1643086547883
    vertex 2585.5064816266276 11450.359358079693 2320.4238600181366
    vertex 2585.5194611764055 11450.359358079693 2318.995316898289
  endloop
endfacet
facet normal 0.0 1.0 -0.0
  outer loop
    vertex 2585.5194611764055 11450.359358079693 2312.1643086547883
    vertex 2585.5194611764055 11450.359358079693 2318.995316898289
    vertex 2585.5194611764055 11450.359358079693 2316.047373810147
  endloop
endfacet
facet normal 0.0 1.0 -0.0
  outer loop
    vertex 2585.5194611764055 11450.359358079693 2312.1643086547883
    vertex 2585.5194611764055 11450.359358079693 2316.047373810147
    vertex 2585.5194611764055 11450.359358079693 2314.683728439189
  endloop
endfacet
facet normal 0.0 1.0 -0.0
  outer loop
    vertex 2593.105463078752 11450.359358079693 2320.566734146228
    vertex 2593.482068183381 11450.359358079693 2319.462877931897
    vertex 2592.7418375239013 11450.359358079693 2320.229067690933
  endloop
endfacet
facet normal 0.0 1.0 -0.0
  outer loop
    vertex 2593.482068183381 11450.359358079693 2319.462877931897
    vertex 2593.105463078752 11450.359358079693 2320.566734146228
    vertex 2593.728778709697 11450.359358079693 2320.969298350413
  endloop
endfacet
facet normal 0.0 1.0 -0.0
  outer loop
    vertex 2593.482068183381 11450.359358079693 2319.462877931897
    vertex 2593.728778709697 11450.359358079693 2320.969298350413
    vertex 2593.728778709697 11450.359358079693 2319.7095884582127
  endloop
endfacet
facet normal 0.0 1.0 -0.0
  outer loop
    vertex 2593.728778709697 11450.359358079693 2319.7095884582127
    vertex 2593.728778709697 11450.359358079693 2320.969298350413
    vertex 2594.559965298156 11450.359358079693 2321.2161079572616
  endloop
endfacet
facet normal 0.0 1.0 -0.0
  outer loop
    vertex 2593.728778709697 11450.359358079693 2319.7095884582127
    vertex 2594.559965298156 11450.359358079693 2321.2161079572616
    vertex 2594.1314419944147 11450.359358079693 2319.9693776148392
  endloop
endfacet
facet normal 0.0 1.0 -0.0
  outer loop
    vertex 2594.1314419944147 11450.359358079693 2319.9693776148392
    vertex 2594.559965298156 11450.359358079693 2321.2161079572616
    vertex 2594.689859876469 11450.359358079693 2320.1511903922647
  endloop
endfacet
facet normal 0.0 1.0 -0.0
  outer loop
    vertex 2594.689859876469 11450.359358079693 2320.1511903922647
    vertex 2594.559965298156 11450.359358079693 2321.2161079572616
    vertex 2595.8975524890247 11450.359358079693 2321.2161079572616
  endloop
endfacet
facet normal 0.0 1.0 -0.0
  outer loop
    vertex 2594.689859876469 11450.359358079693 2320.1511903922647
    vertex 2595.8975524890247 11450.359358079693 2321.2161079572616
    vertex 2595.7417978916883 11450.359358079693 2320.1511903922647
  endloop
endfacet
facet normal 0.0 1.0 -0.0
  outer loop
    vertex 2595.7417978916883 11450.359358079693 2320.1511903922647
    vertex 2595.8975524890247 11450.359358079693 2321.2161079572616
    vertex 2596.378093072411 11450.359358079693 2319.9953367143953
  endloop
endfacet
facet normal 0.0 1.0 -0.0
  outer loop
    vertex 2596.378093072411 11450.359358079693 2319.9953367143953
    vertex 2595.8975524890247 11450.359358079693 2321.2161079572616
    vertex 2596.8326745562413 11450.359358079693 2320.982277900191
  endloop
endfacet
facet normal 0.0 1.0 -0.0
  outer loop
    vertex 2596.378093072411 11450.359358079693 2319.9953367143953
    vertex 2596.8326745562413 11450.359358079693 2320.982277900191
    vertex 2596.9235314046873 11450.359358079693 2319.6446907093227
  endloop
endfacet
facet normal 0.0 1.0 -0.0
  outer loop
    vertex 2596.9235314046873 11450.359358079693 2319.6446907093227
    vertex 2596.8326745562413 11450.359358079693 2320.982277900191
    vertex 2597.7936566424805 11450.359358079693 2320.33300316969
  endloop
endfacet
facet normal 0.0 1.0 -0.0
  outer loop
    vertex 2596.9235314046873 11450.359358079693 2319.6446907093227
    vertex 2597.7936566424805 11450.359358079693 2320.33300316969
    vertex 2597.0664055327784 11450.359358079693 2319.2551060549154
  endloop
endfacet
facet normal 0.0 1.0 -0.0
  outer loop
    vertex 2597.0664055327784 11450.359358079693 2319.2551060549154
    vertex 2597.7936566424805 11450.359358079693 2320.33300316969
    vertex 2597.0664055327784 11450.359358079693 2318.2680657885867
  endloop
endfacet
facet normal 0.0 1.0 -0.0
  outer loop
    vertex 2597.0664055327784 11450.359358079693 2318.2680657885867
    vertex 2597.7936566424805 11450.359358079693 2320.33300316969
    vertex 2597.0664055327784 11450.359358079693 2317.0343149959426
  endloop
endfacet
facet normal 0.0 1.0 -0.0
  outer loop
    vertex 2597.0664055327784 11450.359358079693 2317.0343149959426
    vertex 2597.7936566424805 11450.359358079693 2320.33300316969
    vertex 2597.0664055327784 11450.359358079693 2316.553873493089
  endloop
endfacet
facet normal 0.0 1.0 -0.0
  outer loop
    vertex 2597.0664055327784 11450.359358079693 2316.553873493089
    vertex 2597.7936566424805 11450.359358079693 2320.33300316969
    vertex 2597.1572623812253 11450.359358079693 2315.099371273685
  endloop
endfacet
facet normal 0.0 1.0 -0.0
  outer loop
    vertex 2597.1572623812253 11450.359358079693 2315.099371273685
    vertex 2597.7936566424805 11450.359358079693 2320.33300316969
    vertex 2597.7806770927027 11450.359358079693 2314.164249206469
  endloop
endfacet
facet normal 0.0 1.0 -0.0
  outer loop
    vertex 2597.7806770927027 11450.359358079693 2314.164249206469
    vertex 2597.7936566424805 11450.359358079693 2320.33300316969
    vertex 2598.1443026475536 11450.359358079693 2315.5149150276484
  endloop
endfacet
facet normal 0.0 1.0 -0.0
  outer loop
    vertex 2597.7806770927027 11450.359358079693 2314.164249206469
    vertex 2598.1443026475536 11450.359358079693 2315.5149150276484
    vertex 2598.650802330496 11450.359358079693 2314.7876639179462
  endloop
endfacet
facet normal 0.0 1.0 -0.0
  outer loop
    vertex 2598.1443026475536 11450.359358079693 2315.5149150276484
    vertex 2597.7936566424805 11450.359358079693 2320.33300316969
    vertex 2598.1443026475536 11450.359358079693 2319.4498983821186
  endloop
endfacet
facet normal 0.0 1.0 -0.0
  outer loop
    vertex 2593.222378107287 11450.359358079693 2314.8006434677245
    vertex 2593.57302411236 11450.359358079693 2316.164288838682
    vertex 2593.845693738232 11450.359358079693 2314.437017912873
  endloop
endfacet
facet normal 0.0 1.0 -0.0
  outer loop
    vertex 2593.57302411236 11450.359358079693 2316.164288838682
    vertex 2593.222378107287 11450.359358079693 2314.8006434677245
    vertex 2593.57302411236 11450.359358079693 2316.514835763222
  endloop
endfacet
facet normal 0.0 1.0 -0.0
  outer loop
    vertex 2593.845693738232 11450.359358079693 2314.437017912873
    vertex 2593.57302411236 11450.359358079693 2316.164288838682
    vertex 2593.9755883165453 11450.359358079693 2315.5927923263166
  endloop
endfacet
facet normal 0.0 1.0 -0.0
  outer loop
    vertex 2593.845693738232 11450.359358079693 2314.437017912873
    vertex 2593.9755883165453 11450.359358079693 2315.5927923263166
    vertex 2594.7287985258035 11450.359358079693 2314.164249206469
  endloop
endfacet
facet normal 0.0 1.0 -0.0
  outer loop
    vertex 2594.7287985258035 11450.359358079693 2314.164249206469
    vertex 2593.9755883165453 11450.359358079693 2315.5927923263166
    vertex 2594.2742170419733 11450.359358079693 2315.410979548891
  endloop
endfacet
facet normal 0.0 1.0 -0.0
  outer loop
    vertex 2594.7287985258035 11450.359358079693 2314.164249206469
    vertex 2594.2742170419733 11450.359358079693 2315.410979548891
    vertex 2594.884652203673 11450.359358079693 2315.2291667714658
  endloop
endfacet
facet normal 0.0 1.0 -0.0
  outer loop
    vertex 2594.7287985258035 11450.359358079693 2314.164249206469
    vertex 2594.884652203673 11450.359358079693 2315.2291667714658
    vertex 2595.6638215124867 11450.359358079693 2314.164249206469
  endloop
endfacet
facet normal 0.0 1.0 -0.0
  outer loop
    vertex 2595.6638215124867 11450.359358079693 2314.164249206469
    vertex 2594.884652203673 11450.359358079693 2315.2291667714658
    vertex 2595.430090535949 11450.359358079693 2315.2291667714658
  endloop
endfacet
facet normal 0.0 1.0 -0.0
  outer loop
    vertex 2595.6638215124867 11450.359358079693 2314.164249206469
    vertex 2595.430090535949 11450.359358079693 2315.2291667714658
    vertex 2596.4040521719667 11450.359358079693 2315.5927923263166
  endloop
endfacet
facet normal 0.0 1.0 -0.0
  outer loop
    vertex 2595.6638215124867 11450.359358079693 2314.164249206469
    vertex 2596.4040521719667 11450.359358079693 2315.5927923263166
    vertex 2596.858633655797 11450.359358079693 2314.76170481839
  endloop
endfacet
facet normal 0.0 1.0 -0.0
  outer loop
    vertex 2596.858633655797 11450.359358079693 2314.76170481839
    vertex 2596.4040521719667 11450.359358079693 2315.5927923263166
    vertex 2596.9365109544656 11450.359358079693 2316.151210208371
  endloop
endfacet
facet normal 0.0 1.0 -0.0
  outer loop
    vertex 2596.858633655797 11450.359358079693 2314.76170481839
    vertex 2596.9365109544656 11450.359358079693 2316.151210208371
    vertex 2597.1572623812253 11450.359358079693 2315.099371273685
  endloop
endfacet
facet normal 0.0 1.0 -0.0
  outer loop
    vertex 2597.1572623812253 11450.359358079693 2315.099371273685
    vertex 2596.9365109544656 11450.359358079693 2316.151210208371
    vertex 2597.0664055327784 11450.359358079693 2316.553873493089
  endloop
endfacet
facet normal 0.0 1.0 -0.0
  outer loop
    vertex 2592.6769397750104 11450.359358079693 2317.4888964797724
    vertex 2592.495126997585 11450.359358079693 2315.852581482943
    vertex 2592.495126997585 11450.359358079693 2316.6057916922014
  endloop
endfacet
facet normal 0.0 1.0 -0.0
  outer loop
    vertex 2592.495126997585 11450.359358079693 2315.852581482943
    vertex 2592.6769397750104 11450.359358079693 2317.4888964797724
    vertex 2593.222378107287 11450.359358079693 2314.8006434677245
  endloop
endfacet
facet normal 0.0 1.0 -0.0
  outer loop
    vertex 2593.222378107287 11450.359358079693 2314.8006434677245
    vertex 2592.6769397750104 11450.359358079693 2317.4888964797724
    vertex 2593.6379218612506 11450.359358079693 2318.449878566012
  endloop
endfacet
facet normal 0.0 1.0 -0.0
  outer loop
    vertex 2593.222378107287 11450.359358079693 2314.8006434677245
    vertex 2593.6379218612506 11450.359358079693 2318.449878566012
    vertex 2593.57302411236 11450.359358079693 2316.514835763222
  endloop
endfacet
facet normal 0.0 1.0 -0.0
  outer loop
    vertex 2593.57302411236 11450.359358079693 2316.514835763222
    vertex 2593.6379218612506 11450.359358079693 2318.449878566012
    vertex 2593.6768605105844 11450.359358079693 2316.969417247052
  endloop
endfacet
facet normal 0.0 1.0 -0.0
  outer loop
    vertex 2593.6768605105844 11450.359358079693 2316.969417247052
    vertex 2593.6379218612506 11450.359358079693 2318.449878566012
    vertex 2594.9235908530068 11450.359358079693 2318.774565471529
  endloop
endfacet
facet normal 0.0 1.0 -0.0
  outer loop
    vertex 2593.6768605105844 11450.359358079693 2316.969417247052
    vertex 2594.9235908530068 11450.359358079693 2318.774565471529
    vertex 2594.183360193527 11450.359358079693 2317.4759169299946
  endloop
endfacet
facet normal 0.0 1.0 -0.0
  outer loop
    vertex 2594.183360193527 11450.359358079693 2317.4759169299946
    vertex 2594.9235908530068 11450.359358079693 2318.774565471529
    vertex 2595.0405058815422 11450.359358079693 2317.709647906532
  endloop
endfacet
facet normal 0.0 1.0 -0.0
  outer loop
    vertex 2595.0405058815422 11450.359358079693 2317.709647906532
    vertex 2594.9235908530068 11450.359358079693 2318.774565471529
    vertex 2595.858613839691 11450.359358079693 2318.774565471529
  endloop
endfacet
facet normal 0.0 1.0 -0.0
  outer loop
    vertex 2595.0405058815422 11450.359358079693 2317.709647906532
    vertex 2595.858613839691 11450.359358079693 2318.774565471529
    vertex 2595.7417978916883 11450.359358079693 2317.709647906532
  endloop
endfacet
facet normal 0.0 1.0 -0.0
  outer loop
    vertex 2595.7417978916883 11450.359358079693 2317.709647906532
    vertex 2595.858613839691 11450.359358079693 2318.774565471529
    vertex 2596.391072622189 11450.359358079693 2317.5278351291067
  endloop
endfacet
facet normal 0.0 1.0 -0.0
  outer loop
    vertex 2596.391072622189 11450.359358079693 2317.5278351291067
    vertex 2595.858613839691 11450.359358079693 2318.774565471529
    vertex 2596.728739077484 11450.359358079693 2318.4888172153464
  endloop
endfacet
facet normal 0.0 1.0 -0.0
  outer loop
    vertex 2596.391072622189 11450.359358079693 2317.5278351291067
    vertex 2596.728739077484 11450.359358079693 2318.4888172153464
    vertex 2596.793636826374 11450.359358079693 2317.3200632521252
  endloop
endfacet
facet normal 0.0 1.0 -0.0
  outer loop
    vertex 2596.793636826374 11450.359358079693 2317.3200632521252
    vertex 2596.728739077484 11450.359358079693 2318.4888172153464
    vertex 2597.0664055327784 11450.359358079693 2318.2680657885867
  endloop
endfacet
facet normal 0.0 1.0 -0.0
  outer loop
    vertex 2596.793636826374 11450.359358079693 2317.3200632521252
    vertex 2597.0664055327784 11450.359358079693 2318.2680657885867
    vertex 2597.0664055327784 11450.359358079693 2317.0343149959426
  endloop
endfacet
facet normal 0.0 1.0 -0.0
  outer loop
    vertex 2601.2239237635968 11450.359358079693 2319.397881102474
    vertex 2600.951155057192 11450.359358079693 2316.9045194981622
    vertex 2600.951155057192 11450.359358079693 2318.449878566012
  endloop
endfacet
facet normal 0.0 1.0 -0.0
  outer loop
    vertex 2600.951155057192 11450.359358079693 2316.9045194981622
    vertex 2601.2239237635968 11450.359358079693 2319.397881102474
    vertex 2601.2239237635968 11450.359358079693 2315.9824760612564
  endloop
endfacet
facet normal 0.0 1.0 -0.0
  outer loop
    vertex 2601.2239237635968 11450.359358079693 2315.9824760612564
    vertex 2601.2239237635968 11450.359358079693 2319.397881102474
    vertex 2602.107028551168 11450.359358079693 2320.592693245784
  endloop
endfacet
facet normal 0.0 1.0 -0.0
  outer loop
    vertex 2601.2239237635968 11450.359358079693 2315.9824760612564
    vertex 2602.107028551168 11450.359358079693 2320.592693245784
    vertex 2602.0290521719667 11450.359358079693 2318.307004437921
  endloop
endfacet
facet normal 0.0 1.0 -0.0
  outer loop
    vertex 2602.0290521719667 11450.359358079693 2318.307004437921
    vertex 2602.107028551168 11450.359358079693 2320.592693245784
    vertex 2602.1978853996147 11450.359358079693 2318.9304191493984
  endloop
endfacet
facet normal 0.0 1.0 -0.0
  outer loop
    vertex 2602.1978853996147 11450.359358079693 2318.9304191493984
    vertex 2602.107028551168 11450.359358079693 2320.592693245784
    vertex 2603.4186566424805 11450.359358079693 2321.2161079572616
  endloop
endfacet
facet normal 0.0 1.0 -0.0
  outer loop
    vertex 2602.1978853996147 11450.359358079693 2318.9304191493984
    vertex 2603.4186566424805 11450.359358079693 2321.2161079572616
    vertex 2602.7953410115356 11450.359358079693 2319.7485271075466
  endloop
endfacet
facet normal 0.0 1.0 -0.0
  outer loop
    vertex 2602.7953410115356 11450.359358079693 2319.7485271075466
    vertex 2603.4186566424805 11450.359358079693 2321.2161079572616
    vertex 2603.626428519462 11450.359358079693 2320.1511903922647
  endloop
endfacet
facet normal 0.0 1.0 -0.0
  outer loop
    vertex 2603.626428519462 11450.359358079693 2320.1511903922647
    vertex 2603.4186566424805 11450.359358079693 2321.2161079572616
    vertex 2604.8731588618843 11450.359358079693 2321.2161079572616
  endloop
endfacet
facet normal 0.0 1.0 -0.0
  outer loop
    vertex 2603.626428519462 11450.359358079693 2320.1511903922647
    vertex 2604.8731588618843 11450.359358079693 2321.2161079572616
    vertex 2604.743264283571 11450.359358079693 2320.1511903922647
  endloop
endfacet
facet normal 0.0 1.0 -0.0
  outer loop
    vertex 2604.743264283571 11450.359358079693 2320.1511903922647
    vertex 2604.8731588618843 11450.359358079693 2321.2161079572616
    vertex 2605.3277403457146 11450.359358079693 2319.9693776148392
  endloop
endfacet
facet normal 0.0 1.0 -0.0
  outer loop
    vertex 2605.3277403457146 11450.359358079693 2319.9693776148392
    vertex 2604.8731588618843 11450.359358079693 2321.2161079572616
    vertex 2605.860199128213 11450.359358079693 2320.8914210517446
  endloop
endfacet
facet normal 0.0 1.0 -0.0
  outer loop
    vertex 2605.3277403457146 11450.359358079693 2319.9693776148392
    vertex 2605.860199128213 11450.359358079693 2320.8914210517446
    vertex 2606.0029741757717 11450.359358079693 2319.3200038038053
  endloop
endfacet
facet normal 0.0 1.0 -0.0
  outer loop
    vertex 2606.0029741757717 11450.359358079693 2319.3200038038053
    vertex 2605.860199128213 11450.359358079693 2320.8914210517446
    vertex 2606.7692630153406 11450.359358079693 2320.0342753637296
  endloop
endfacet
facet normal 0.0 1.0 -0.0
  outer loop
    vertex 2601.2239237635968 11450.359358079693 2315.9824760612564
    vertex 2602.0290521719667 11450.359358079693 2317.0602740954987
    vertex 2602.107028551168 11450.359358079693 2314.7876639179462
  endloop
endfacet
facet normal 0.0 1.0 -0.0
  outer loop
    vertex 2602.0290521719667 11450.359358079693 2317.0602740954987
    vertex 2601.2239237635968 11450.359358079693 2315.9824760612564
    vertex 2602.0290521719667 11450.359358079693 2318.307004437921
  endloop
endfacet
facet normal 0.0 1.0 -0.0
  outer loop
    vertex 2602.107028551168 11450.359358079693 2314.7876639179462
    vertex 2602.0290521719667 11450.359358079693 2317.0602740954987
    vertex 2602.1849058498365 11450.359358079693 2316.46291756411
  endloop
endfacet
facet normal 0.0 1.0 -0.0
  outer loop
    vertex 2602.107028551168 11450.359358079693 2314.7876639179462
    vertex 2602.1849058498365 11450.359358079693 2316.46291756411
    vertex 2603.4186566424805 11450.359358079693 2314.164249206469
  endloop
endfacet
facet normal 0.0 1.0 -0.0
  outer loop
    vertex 2603.4186566424805 11450.359358079693 2314.164249206469
    vertex 2602.1849058498365 11450.359358079693 2316.46291756411
    vertex 2602.821300111092 11450.359358079693 2315.618751425873
  endloop
endfacet
facet normal 0.0 1.0 -0.0
  outer loop
    vertex 2603.4186566424805 11450.359358079693 2314.164249206469
    vertex 2602.821300111092 11450.359358079693 2315.618751425873
    vertex 2603.626428519462 11450.359358079693 2315.2291667714658
  endloop
endfacet
facet normal 0.0 1.0 -0.0
  outer loop
    vertex 2603.4186566424805 11450.359358079693 2314.164249206469
    vertex 2603.626428519462 11450.359358079693 2315.2291667714658
    vertex 2604.8731588618843 11450.359358079693 2314.164249206469
  endloop
endfacet
facet normal 0.0 1.0 -0.0
  outer loop
    vertex 2604.8731588618843 11450.359358079693 2314.164249206469
    vertex 2603.626428519462 11450.359358079693 2315.2291667714658
    vertex 2604.743264283571 11450.359358079693 2315.2291667714658
  endloop
endfacet
facet normal 0.0 1.0 -0.0
  outer loop
    vertex 2604.8731588618843 11450.359358079693 2314.164249206469
    vertex 2604.743264283571 11450.359358079693 2315.2291667714658
    vertex 2605.3277403457146 11450.359358079693 2315.4369386484473
  endloop
endfacet
facet normal 0.0 1.0 -0.0
  outer loop
    vertex 2604.8731588618843 11450.359358079693 2314.164249206469
    vertex 2605.3277403457146 11450.359358079693 2315.4369386484473
    vertex 2605.860199128213 11450.359358079693 2314.488936111986
  endloop
endfacet
facet normal 0.0 1.0 -0.0
  outer loop
    vertex 2605.860199128213 11450.359358079693 2314.488936111986
    vertex 2605.3277403457146 11450.359358079693 2315.4369386484473
    vertex 2606.0029741757717 11450.359358079693 2316.0603533599246
  endloop
endfacet
facet normal 0.0 1.0 -0.0
  outer loop
    vertex 2605.860199128213 11450.359358079693 2314.488936111986
    vertex 2606.0029741757717 11450.359358079693 2316.0603533599246
    vertex 2606.7562834655623 11450.359358079693 2315.3201227004447
  endloop
endfacet
facet normal 0.0 1.0 -0.0
  outer loop
    vertex 2609.3034457991075 11450.359358079693 2319.397881102474
    vertex 2609.0306770927027 11450.359358079693 2316.9045194981622
    vertex 2609.0306770927027 11450.359358079693 2318.449878566012
  endloop
endfacet
facet normal 0.0 1.0 -0.0
  outer loop
    vertex 2609.0306770927027 11450.359358079693 2316.9045194981622
    vertex 2609.3034457991075 11450.359358079693 2319.397881102474
    vertex 2609.3034457991075 11450.359358079693 2315.9824760612564
  endloop
endfacet
facet normal 0.0 1.0 -0.0
  outer loop
    vertex 2609.3034457991075 11450.359358079693 2315.9824760612564
    vertex 2609.3034457991075 11450.359358079693 2319.397881102474
    vertex 2610.186550586678 11450.359358079693 2320.592693245784
  endloop
endfacet
facet normal 0.0 1.0 -0.0
  outer loop
    vertex 2609.3034457991075 11450.359358079693 2315.9824760612564
    vertex 2610.186550586678 11450.359358079693 2320.592693245784
    vertex 2610.1085742074774 11450.359358079693 2318.346042167788
  endloop
endfacet
facet normal 0.0 1.0 -0.0
  outer loop
    vertex 2610.1085742074774 11450.359358079693 2318.346042167788
    vertex 2610.186550586678 11450.359358079693 2320.592693245784
    vertex 2610.264427885347 11450.359358079693 2318.9174395996206
  endloop
endfacet
facet normal 0.0 1.0 -0.0
  outer loop
    vertex 2610.264427885347 11450.359358079693 2318.9174395996206
    vertex 2610.186550586678 11450.359358079693 2320.592693245784
    vertex 2611.4851991282135 11450.359358079693 2321.2161079572616
  endloop
endfacet
facet normal 0.0 1.0 -0.0
  outer loop
    vertex 2610.264427885347 11450.359358079693 2318.9174395996206
    vertex 2611.4851991282135 11450.359358079693 2321.2161079572616
    vertex 2610.8747639665135 11450.359358079693 2319.7485271075466
  endloop
endfacet
facet normal 0.0 1.0 -0.0
  outer loop
    vertex 2610.8747639665135 11450.359358079693 2319.7485271075466
    vertex 2611.4851991282135 11450.359358079693 2321.2161079572616
    vertex 2611.6540323558606 11450.359358079693 2320.1511903922647
  endloop
endfacet
facet normal 0.0 1.0 -0.0
  outer loop
    vertex 2611.6540323558606 11450.359358079693 2320.1511903922647
    vertex 2611.4851991282135 11450.359358079693 2321.2161079572616
    vertex 2612.900762698283 11450.359358079693 2321.2161079572616
  endloop
endfacet
facet normal 0.0 1.0 -0.0
  outer loop
    vertex 2611.6540323558606 11450.359358079693 2320.1511903922647
    vertex 2612.900762698283 11450.359358079693 2321.2161079572616
    vertex 2612.7189499208575 11450.359358079693 2320.1511903922647
  endloop
endfacet
facet normal 0.0 1.0 -0.0
  outer loop
    vertex 2612.7189499208575 11450.359358079693 2320.1511903922647
    vertex 2612.900762698283 11450.359358079693 2321.2161079572616
    vertex 2613.5110987794496 11450.359358079693 2319.7355475577688
  endloop
endfacet
facet normal 0.0 1.0 -0.0
  outer loop
    vertex 2613.5110987794496 11450.359358079693 2319.7355475577688
    vertex 2612.900762698283 11450.359358079693 2321.2161079572616
    vertex 2614.2123907895952 11450.359358079693 2320.592693245784
  endloop
endfacet
facet normal 0.0 1.0 -0.0
  outer loop
    vertex 2613.5110987794496 11450.359358079693 2319.7355475577688
    vertex 2614.2123907895952 11450.359358079693 2320.592693245784
    vertex 2614.134414410394 11450.359358079693 2318.891480500064
  endloop
endfacet
facet normal 0.0 1.0 -0.0
  outer loop
    vertex 2614.134414410394 11450.359358079693 2318.891480500064
    vertex 2614.2123907895952 11450.359358079693 2320.592693245784
    vertex 2614.303247638042 11450.359358079693 2318.3979603669
  endloop
endfacet
facet normal 0.0 1.0 -0.0
  outer loop
    vertex 2614.303247638042 11450.359358079693 2318.3979603669
    vertex 2614.2123907895952 11450.359358079693 2320.592693245784
    vertex 2615.082516027389 11450.359358079693 2319.397881102474
  endloop
endfacet
facet normal 0.0 1.0 -0.0
  outer loop
    vertex 2614.303247638042 11450.359358079693 2318.3979603669
    vertex 2615.082516027389 11450.359358079693 2319.397881102474
    vertex 2614.303247638042 11450.359358079693 2318.2291271392523
  endloop
endfacet
facet normal 0.0 1.0 -0.0
  outer loop
    vertex 2614.303247638042 11450.359358079693 2318.2291271392523
    vertex 2610.1085742074774 11450.359358079693 2317.164209574256
    vertex 2610.1085742074774 11450.359358079693 2318.2291271392523
  endloop
endfacet
facet normal 0.0 1.0 -0.0
  outer loop
    vertex 2610.1085742074774 11450.359358079693 2317.164209574256
    vertex 2614.303247638042 11450.359358079693 2318.2291271392523
    vertex 2615.381144752817 11450.359358079693 2317.164209574256
  endloop
endfacet
facet normal 0.0 1.0 -0.0
  outer loop
    vertex 2615.381144752817 11450.359358079693 2317.164209574256
    vertex 2614.303247638042 11450.359358079693 2318.2291271392523
    vertex 2615.082516027389 11450.359358079693 2319.397881102474
  endloop
endfacet
facet normal 0.0 1.0 -0.0
  outer loop
    vertex 2615.381144752817 11450.359358079693 2317.164209574256
    vertex 2615.082516027389 11450.359358079693 2319.397881102474
    vertex 2615.381144752817 11450.359358079693 2318.527854945213
  endloop
endfacet
facet normal 0.0 1.0 -0.0
  outer loop
    vertex 2609.3034457991075 11450.359358079693 2315.9824760612564
    vertex 2610.1085742074774 11450.359358079693 2317.0343149959426
    vertex 2610.186550586678 11450.359358079693 2314.7876639179462
  endloop
endfacet
facet normal 0.0 1.0 -0.0
  outer loop
    vertex 2610.1085742074774 11450.359358079693 2317.0343149959426
    vertex 2609.3034457991075 11450.359358079693 2315.9824760612564
    vertex 2610.1085742074774 11450.359358079693 2318.346042167788
  endloop
endfacet
facet normal 0.0 1.0 -0.0
  outer loop
    vertex 2610.1085742074774 11450.359358079693 2317.0343149959426
    vertex 2610.1085742074774 11450.359358079693 2318.346042167788
    vertex 2610.1085742074774 11450.359358079693 2318.2291271392523
  endloop
endfacet
facet normal 0.0 1.0 -0.0
  outer loop
    vertex 2610.1085742074774 11450.359358079693 2317.0343149959426
    vertex 2610.1085742074774 11450.359358079693 2318.2291271392523
    vertex 2610.1085742074774 11450.359358079693 2317.164209574256
  endloop
endfacet
facet normal 0.0 1.0 -0.0
  outer loop
    vertex 2610.186550586678 11450.359358079693 2314.7876639179462
    vertex 2610.1085742074774 11450.359358079693 2317.0343149959426
    vertex 2610.277407435125 11450.359358079693 2316.46291756411
  endloop
endfacet
facet normal 0.0 1.0 -0.0
  outer loop
    vertex 2610.186550586678 11450.359358079693 2314.7876639179462
    vertex 2610.277407435125 11450.359358079693 2316.46291756411
    vertex 2611.498178677991 11450.359358079693 2314.164249206469
  endloop
endfacet
facet normal 0.0 1.0 -0.0
  outer loop
    vertex 2611.498178677991 11450.359358079693 2314.164249206469
    vertex 2610.277407435125 11450.359358079693 2316.46291756411
    vertex 2610.9007230660695 11450.359358079693 2315.618751425873
  endloop
endfacet
facet normal 0.0 1.0 -0.0
  outer loop
    vertex 2611.498178677991 11450.359358079693 2314.164249206469
    vertex 2610.9007230660695 11450.359358079693 2315.618751425873
    vertex 2611.692971005195 11450.359358079693 2315.2291667714658
  endloop
endfacet
facet normal 0.0 1.0 -0.0
  outer loop
    vertex 2611.498178677991 11450.359358079693 2314.164249206469
    vertex 2611.692971005195 11450.359358079693 2315.2291667714658
    vertex 2612.8357658688597 11450.359358079693 2314.164249206469
  endloop
endfacet
facet normal 0.0 1.0 -0.0
  outer loop
    vertex 2612.8357658688597 11450.359358079693 2314.164249206469
    vertex 2611.692971005195 11450.359358079693 2315.2291667714658
    vertex 2612.7449090204136 11450.359358079693 2315.2291667714658
  endloop
endfacet
facet normal 0.0 1.0 -0.0
  outer loop
    vertex 2612.8357658688597 11450.359358079693 2314.164249206469
    vertex 2612.7449090204136 11450.359358079693 2315.2291667714658
    vertex 2613.615034258207 11450.359358079693 2315.450017278758
  endloop
endfacet
facet normal 0.0 1.0 -0.0
  outer loop
    vertex 2612.8357658688597 11450.359358079693 2314.164249206469
    vertex 2613.615034258207 11450.359358079693 2315.450017278758
    vertex 2614.017598462392 11450.359358079693 2314.4629770124297
  endloop
endfacet
facet normal 0.0 1.0 -0.0
  outer loop
    vertex 2614.017598462392 11450.359358079693 2314.4629770124297
    vertex 2613.615034258207 11450.359358079693 2315.450017278758
    vertex 2614.290268088264 11450.359358079693 2315.878540582499
  endloop
endfacet
facet normal 0.0 1.0 -0.0
  outer loop
    vertex 2614.017598462392 11450.359358079693 2314.4629770124297
    vertex 2614.290268088264 11450.359358079693 2315.878540582499
    vertex 2614.8616655200963 11450.359358079693 2315.0213948944843
  endloop
endfacet
facet normal 0.0 1.0 -0.0
  outer loop
    vertex 2619.7464348606163 11450.359358079693 2321.2161079572616
    vertex 2618.993224651358 11450.359358079693 2319.540755230565
    vertex 2618.9413064522464 11450.359358079693 2320.9952574499694
  endloop
endfacet
facet normal 0.0 1.0 -0.0
  outer loop
    vertex 2618.993224651358 11450.359358079693 2319.540755230565
    vertex 2619.7464348606163 11450.359358079693 2321.2161079572616
    vertex 2619.175037428784 11450.359358079693 2319.8524625863042
  endloop
endfacet
facet normal 0.0 1.0 -0.0
  outer loop
    vertex 2619.175037428784 11450.359358079693 2319.8524625863042
    vertex 2619.7464348606163 11450.359358079693 2321.2161079572616
    vertex 2619.3957888555437 11450.359358079693 2320.0342753637296
  endloop
endfacet
facet normal 0.0 1.0 -0.0
  outer loop
    vertex 2619.3957888555437 11450.359358079693 2320.0342753637296
    vertex 2619.7464348606163 11450.359358079693 2321.2161079572616
    vertex 2619.8893089887074 11450.359358079693 2320.1771494918207
  endloop
endfacet
facet normal 0.0 1.0 -0.0
  outer loop
    vertex 2619.8893089887074 11450.359358079693 2320.1771494918207
    vertex 2619.7464348606163 11450.359358079693 2321.2161079572616
    vertex 2621.0581620324615 11450.359358079693 2321.2161079572616
  endloop
endfacet
facet normal 0.0 1.0 -0.0
  outer loop
    vertex 2619.8893089887074 11450.359358079693 2320.1771494918207
    vertex 2621.0581620324615 11450.359358079693 2321.2161079572616
    vertex 2620.9672061034826 11450.359358079693 2320.1771494918207
  endloop
endfacet
facet normal 0.0 1.0 -0.0
  outer loop
    vertex 2620.9672061034826 11450.359358079693 2320.1771494918207
    vertex 2621.0581620324615 11450.359358079693 2321.2161079572616
    vertex 2621.668498113628 11450.359358079693 2319.9563980650614
  endloop
endfacet
facet normal 0.0 1.0 -0.0
  outer loop
    vertex 2621.668498113628 11450.359358079693 2319.9563980650614
    vertex 2621.0581620324615 11450.359358079693 2321.2161079572616
    vertex 2622.0710623178134 11450.359358079693 2320.930359701079
  endloop
endfacet
facet normal 0.0 1.0 -0.0
  outer loop
    vertex 2621.668498113628 11450.359358079693 2319.9563980650614
    vertex 2622.0710623178134 11450.359358079693 2320.930359701079
    vertex 2622.3697901237742 11450.359358079693 2319.5277756807873
  endloop
endfacet
facet normal 0.0 1.0 -0.0
  outer loop
    vertex 2622.3697901237742 11450.359358079693 2319.5277756807873
    vertex 2622.0710623178134 11450.359358079693 2320.930359701079
    vertex 2622.954167105385 11450.359358079693 2320.3979009185805
  endloop
endfacet
facet normal 0.0 1.0 -0.0
  outer loop
    vertex 2618.3569294706354 11450.359358079693 2320.5407750466716
    vertex 2617.928307086361 11450.359358079693 2318.644670893216
    vertex 2617.928307086361 11450.359358079693 2319.8005443871916
  endloop
endfacet
facet normal 0.0 1.0 -0.0
  outer loop
    vertex 2617.928307086361 11450.359358079693 2318.644670893216
    vertex 2618.3569294706354 11450.359358079693 2320.5407750466716
    vertex 2618.473745418638 11450.359358079693 2317.891460683958
  endloop
endfacet
facet normal 0.0 1.0 -0.0
  outer loop
    vertex 2618.473745418638 11450.359358079693 2317.891460683958
    vertex 2618.3569294706354 11450.359358079693 2320.5407750466716
    vertex 2618.9413064522464 11450.359358079693 2320.9952574499694
  endloop
endfacet
facet normal 0.0 1.0 -0.0
  outer loop
    vertex 2618.473745418638 11450.359358079693 2317.891460683958
    vertex 2618.9413064522464 11450.359358079693 2320.9952574499694
    vertex 2618.993224651358 11450.359358079693 2318.9693577987327
  endloop
endfacet
facet normal 0.0 1.0 -0.0
  outer loop
    vertex 2618.473745418638 11450.359358079693 2317.891460683958
    vertex 2618.993224651358 11450.359358079693 2318.9693577987327
    vertex 2619.304932007097 11450.359358079693 2317.4499578304385
  endloop
endfacet
facet normal 0.0 1.0 -0.0
  outer loop
    vertex 2618.993224651358 11450.359358079693 2318.9693577987327
    vertex 2618.9413064522464 11450.359358079693 2320.9952574499694
    vertex 2618.993224651358 11450.359358079693 2319.540755230565
  endloop
endfacet
facet normal 0.0 1.0 -0.0
  outer loop
    vertex 2619.304932007097 11450.359358079693 2317.4499578304385
    vertex 2618.993224651358 11450.359358079693 2318.9693577987327
    vertex 2619.2530138079846 11450.359358079693 2318.6187117936597
  endloop
endfacet
facet normal 0.0 1.0 -0.0
  outer loop
    vertex 2619.304932007097 11450.359358079693 2317.4499578304385
    vertex 2619.2530138079846 11450.359358079693 2318.6187117936597
    vertex 2619.6166393628355 11450.359358079693 2318.4368990162343
  endloop
endfacet
facet normal 0.0 1.0 -0.0
  outer loop
    vertex 2619.304932007097 11450.359358079693 2317.4499578304385
    vertex 2619.6166393628355 11450.359358079693 2318.4368990162343
    vertex 2621.4347671370906 11450.359358079693 2317.0733527258094
  endloop
endfacet
facet normal 0.0 1.0 -0.0
  outer loop
    vertex 2621.4347671370906 11450.359358079693 2317.0733527258094
    vertex 2619.6166393628355 11450.359358079693 2318.4368990162343
    vertex 2621.863290440832 11450.359358079693 2318.047314361827
  endloop
endfacet
facet normal 0.0 1.0 -0.0
  outer loop
    vertex 2621.4347671370906 11450.359358079693 2317.0733527258094
    vertex 2621.863290440832 11450.359358079693 2318.047314361827
    vertex 2621.8243517914975 11450.359358079693 2316.800584019405
  endloop
endfacet
facet normal 0.0 1.0 -0.0
  outer loop
    vertex 2621.8243517914975 11450.359358079693 2316.800584019405
    vertex 2621.863290440832 11450.359358079693 2318.047314361827
    vertex 2622.0451032182573 11450.359358079693 2316.423978914776
  endloop
endfacet
facet normal 0.0 1.0 -0.0
  outer loop
    vertex 2622.0451032182573 11450.359358079693 2316.423978914776
    vertex 2621.863290440832 11450.359358079693 2318.047314361827
    vertex 2622.603521100312 11450.359358079693 2317.553794228663
  endloop
endfacet
facet normal 0.0 1.0 -0.0
  outer loop
    vertex 2622.0451032182573 11450.359358079693 2316.423978914776
    vertex 2622.603521100312 11450.359358079693 2317.553794228663
    vertex 2622.0451032182573 11450.359358079693 2315.930458781612
  endloop
endfacet
facet normal 0.0 1.0 -0.0
  outer loop
    vertex 2618.4348067693036 11450.359358079693 2315.9954556110347
    vertex 2618.0062834655623 11450.359358079693 2314.930538046038
    vertex 2617.6815965600454 11450.359358079693 2315.2682045013325
  endloop
endfacet
facet normal 0.0 1.0 -0.0
  outer loop
    vertex 2618.0062834655623 11450.359358079693 2314.930538046038
    vertex 2618.4348067693036 11450.359358079693 2315.9954556110347
    vertex 2618.6425786462855 11450.359358079693 2314.4499974626515
  endloop
endfacet
facet normal 0.0 1.0 -0.0
  outer loop
    vertex 2618.6425786462855 11450.359358079693 2314.4499974626515
    vertex 2618.4348067693036 11450.359358079693 2315.9954556110347
    vertex 2618.7075754757084 11450.359358079693 2315.696727805074
  endloop
endfacet
facet normal 0.0 1.0 -0.0
  outer loop
    vertex 2618.6425786462855 11450.359358079693 2314.4499974626515
    vertex 2618.7075754757084 11450.359358079693 2315.696727805074
    vertex 2619.694516661504 11450.359358079693 2314.164249206469
  endloop
endfacet
facet normal 0.0 1.0 -0.0
  outer loop
    vertex 2619.694516661504 11450.359358079693 2314.164249206469
    vertex 2618.7075754757084 11450.359358079693 2315.696727805074
    vertex 2619.071201030559 11450.359358079693 2315.423959098669
  endloop
endfacet
facet normal 0.0 1.0 -0.0
  outer loop
    vertex 2619.694516661504 11450.359358079693 2314.164249206469
    vertex 2619.071201030559 11450.359358079693 2315.423959098669
    vertex 2619.8373907895957 11450.359358079693 2315.2161872216875
  endloop
endfacet
facet normal 0.0 1.0 -0.0
  outer loop
    vertex 2619.694516661504 11450.359358079693 2314.164249206469
    vertex 2619.8373907895957 11450.359358079693 2315.2161872216875
    vertex 2621.097100681796 11450.359358079693 2314.164249206469
  endloop
endfacet
facet normal 0.0 1.0 -0.0
  outer loop
    vertex 2621.097100681796 11450.359358079693 2314.164249206469
    vertex 2619.8373907895957 11450.359358079693 2315.2161872216875
    vertex 2620.9542265537043 11450.359358079693 2315.2161872216875
  endloop
endfacet
facet normal 0.0 1.0 -0.0
  outer loop
    vertex 2621.097100681796 11450.359358079693 2314.164249206469
    vertex 2620.9542265537043 11450.359358079693 2315.2161872216875
    vertex 2621.499664885981 11450.359358079693 2315.3720408995573
  endloop
endfacet
facet normal 0.0 1.0 -0.0
  outer loop
    vertex 2621.097100681796 11450.359358079693 2314.164249206469
    vertex 2621.499664885981 11450.359358079693 2315.3720408995573
    vertex 2621.9802054693673 11450.359358079693 2314.4240383630954
  endloop
endfacet
facet normal 0.0 1.0 -0.0
  outer loop
    vertex 2621.9802054693673 11450.359358079693 2314.4240383630954
    vertex 2621.499664885981 11450.359358079693 2315.3720408995573
    vertex 2621.8243517914975 11450.359358079693 2315.6057718760944
  endloop
endfacet
facet normal 0.0 1.0 -0.0
  outer loop
    vertex 2621.9802054693673 11450.359358079693 2314.4240383630954
    vertex 2621.8243517914975 11450.359358079693 2315.6057718760944
    vertex 2622.0451032182573 11450.359358079693 2315.930458781612
  endloop
endfacet
facet normal 0.0 1.0 -0.0
  outer loop
    vertex 2621.9802054693673 11450.359358079693 2314.4240383630954
    vertex 2622.0451032182573 11450.359358079693 2315.930458781612
    vertex 2622.603521100312 11450.359358079693 2314.8655412166145
  endloop
endfacet
facet normal 0.0 1.0 -0.0
  outer loop
    vertex 2622.603521100312 11450.359358079693 2314.8655412166145
    vertex 2622.0451032182573 11450.359358079693 2315.930458781612
    vertex 2622.603521100312 11450.359358079693 2317.553794228663
  endloop
endfacet
facet normal 0.0 1.0 -0.0
  outer loop
    vertex 2622.603521100312 11450.359358079693 2314.8655412166145
    vertex 2622.603521100312 11450.359358079693 2317.553794228663
    vertex 2623.1100207832546 11450.359358079693 2316.7227067207364
  endloop
endfacet
facet normal 0.0 1.0 -0.0
  outer loop
    vertex 2622.603521100312 11450.359358079693 2314.8655412166145
    vertex 2623.1100207832546 11450.359358079693 2316.7227067207364
    vertex 2623.1100207832546 11450.359358079693 2315.618751425873
  endloop
endfacet
endsolid thesis3
