solid thesis3
facet normal 0.0 1.0 -0.0
  outer loop
    vertex 3266.3249909399547 12149.010637375843 216.8589960565561
    vertex 3266.1042395131944 12149.010637375843 213.79413793987885
    vertex 3266.1042395131944 12149.010637375843 215.6772625435567
  endloop
endfacet
facet normal 0.0 1.0 -0.0
  outer loop
    vertex 3266.1042395131944 12149.010637375843 213.79413793987885
    vertex 3266.3249909399547 12149.010637375843 216.8589960565561
    vertex 3266.3249909399547 12149.010637375843 212.6124044268795
  endloop
endfacet
facet normal 0.0 1.0 -0.0
  outer loop
    vertex 3266.3249909399547 12149.010637375843 212.6124044268795
    vertex 3266.3249909399547 12149.010637375843 216.8589960565561
    vertex 3266.7925519735622 12149.010637375843 217.9759309011978
  endloop
endfacet
facet normal 0.0 1.0 -0.0
  outer loop
    vertex 3266.3249909399547 12149.010637375843 212.6124044268795
    vertex 3266.7925519735622 12149.010637375843 217.9759309011978
    vertex 3266.7925519735622 12149.010637375843 211.49556866277044
  endloop
endfacet
facet normal 0.0 1.0 -0.0
  outer loop
    vertex 3266.7925519735622 12149.010637375843 211.49556866277044
    vertex 3266.7925519735622 12149.010637375843 217.9759309011978
    vertex 3267.182136627969 12149.010637375843 215.59928616435573
  endloop
endfacet
facet normal 0.0 1.0 -0.0
  outer loop
    vertex 3267.182136627969 12149.010637375843 215.59928616435573
    vertex 3266.7925519735622 12149.010637375843 217.9759309011978
    vertex 3267.70161586069 12149.010637375843 218.89797433810332
  endloop
endfacet
facet normal 0.0 1.0 -0.0
  outer loop
    vertex 3267.182136627969 12149.010637375843 215.59928616435573
    vertex 3267.70161586069 12149.010637375843 218.89797433810332
    vertex 3267.363949405395 12149.010637375843 216.54738778134998
  endloop
endfacet
facet normal 0.0 1.0 -0.0
  outer loop
    vertex 3267.363949405395 12149.010637375843 216.54738778134998
    vertex 3267.70161586069 12149.010637375843 218.89797433810332
    vertex 3267.6756567611337 12149.010637375843 217.35251618972035
  endloop
endfacet
facet normal 0.0 1.0 -0.0
  outer loop
    vertex 3267.6756567611337 12149.010637375843 217.35251618972035
    vertex 3267.70161586069 12149.010637375843 218.89797433810332
    vertex 3268.3249314916347 12149.010637375843 218.014869550532
  endloop
endfacet
facet normal 0.0 1.0 -0.0
  outer loop
    vertex 3268.3249314916347 12149.010637375843 218.014869550532
    vertex 3267.70161586069 12149.010637375843 218.89797433810332
    vertex 3268.883448454222 12149.010637375843 219.45639222015785
  endloop
endfacet
facet normal 0.0 1.0 -0.0
  outer loop
    vertex 3268.3249314916347 12149.010637375843 218.014869550532
    vertex 3268.883448454222 12149.010637375843 219.45639222015785
    vertex 3269.104199880982 12149.010637375843 218.39147465516106
  endloop
endfacet
facet normal 0.0 1.0 -0.0
  outer loop
    vertex 3269.104199880982 12149.010637375843 218.39147465516106
    vertex 3268.883448454222 12149.010637375843 219.45639222015785
    vertex 3270.117100166334 12149.010637375843 219.45639222015785
  endloop
endfacet
facet normal 0.0 1.0 -0.0
  outer loop
    vertex 3269.104199880982 12149.010637375843 218.39147465516106
    vertex 3270.117100166334 12149.010637375843 219.45639222015785
    vertex 3269.896348739574 12149.010637375843 218.39147465516106
  endloop
endfacet
facet normal 0.0 1.0 -0.0
  outer loop
    vertex 3269.896348739574 12149.010637375843 218.39147465516106
    vertex 3270.117100166334 12149.010637375843 219.45639222015785
    vertex 3270.675617128921 12149.010637375843 218.014869550532
  endloop
endfacet
facet normal 0.0 1.0 -0.0
  outer loop
    vertex 3270.675617128921 12149.010637375843 218.014869550532
    vertex 3270.117100166334 12149.010637375843 219.45639222015785
    vertex 3271.2989327598657 12149.010637375843 218.89797433810332
  endloop
endfacet
facet normal 0.0 1.0 -0.0
  outer loop
    vertex 3270.675617128921 12149.010637375843 218.014869550532
    vertex 3271.2989327598657 12149.010637375843 218.89797433810332
    vertex 3271.039242683772 12149.010637375843 217.65124399568103
  endloop
endfacet
facet normal 0.0 1.0 -0.0
  outer loop
    vertex 3266.7925519735622 12149.010637375843 211.49556866277044
    vertex 3267.182136627969 12149.010637375843 213.88509386885792
    vertex 3267.70161586069 12149.010637375843 210.57352522586493
  endloop
endfacet
facet normal 0.0 1.0 -0.0
  outer loop
    vertex 3267.182136627969 12149.010637375843 213.88509386885792
    vertex 3266.7925519735622 12149.010637375843 211.49556866277044
    vertex 3267.182136627969 12149.010637375843 215.59928616435573
  endloop
endfacet
facet normal 0.0 1.0 -0.0
  outer loop
    vertex 3267.70161586069 12149.010637375843 210.57352522586493
    vertex 3267.182136627969 12149.010637375843 213.88509386885792
    vertex 3267.3769289551733 12149.010637375843 212.8850740527514
  endloop
endfacet
facet normal 0.0 1.0 -0.0
  outer loop
    vertex 3267.70161586069 12149.010637375843 210.57352522586493
    vertex 3267.3769289551733 12149.010637375843 212.8850740527514
    vertex 3267.454905334374 12149.010637375843 212.70326127532593
  endloop
endfacet
facet normal 0.0 1.0 -0.0
  outer loop
    vertex 3267.70161586069 12149.010637375843 210.57352522586493
    vertex 3267.454905334374 12149.010637375843 212.70326127532593
    vertex 3267.9743845670946 12149.010637375843 211.8332351180653
  endloop
endfacet
facet normal 0.0 1.0 -0.0
  outer loop
    vertex 3267.9743845670946 12149.010637375843 211.8332351180653
    vertex 3267.454905334374 12149.010637375843 212.70326127532593
    vertex 3271.039242683772 12149.010637375843 217.65124399568103
  endloop
endfacet
facet normal 0.0 1.0 -0.0
  outer loop
    vertex 3267.9743845670946 12149.010637375843 211.8332351180653
    vertex 3271.039242683772 12149.010637375843 217.65124399568103
    vertex 3271.5456432861815 12149.010637375843 216.76813920810966
  endloop
endfacet
facet normal 0.0 1.0 -0.0
  outer loop
    vertex 3271.5456432861815 12149.010637375843 216.76813920810966
    vertex 3271.039242683772 12149.010637375843 217.65124399568103
    vertex 3271.2989327598657 12149.010637375843 218.89797433810332
  endloop
endfacet
facet normal 0.0 1.0 -0.0
  outer loop
    vertex 3271.5456432861815 12149.010637375843 216.76813920810966
    vertex 3271.2989327598657 12149.010637375843 218.89797433810332
    vertex 3272.207996646993 12149.010637375843 217.9759309011978
  endloop
endfacet
facet normal 0.0 1.0 -0.0
  outer loop
    vertex 3271.5456432861815 12149.010637375843 216.76813920810966
    vertex 3272.207996646993 12149.010637375843 217.9759309011978
    vertex 3271.6365992151605 12149.010637375843 216.54738778134998
  endloop
endfacet
facet normal 0.0 1.0 -0.0
  outer loop
    vertex 3271.6365992151605 12149.010637375843 216.54738778134998
    vertex 3272.207996646993 12149.010637375843 217.9759309011978
    vertex 3271.818411992586 12149.010637375843 215.59928616435573
  endloop
endfacet
facet normal 0.0 1.0 -0.0
  outer loop
    vertex 3271.818411992586 12149.010637375843 215.59928616435573
    vertex 3272.207996646993 12149.010637375843 217.9759309011978
    vertex 3271.818411992586 12149.010637375843 213.88509386885792
  endloop
endfacet
facet normal 0.0 1.0 -0.0
  outer loop
    vertex 3267.9743845670946 12149.010637375843 211.8332351180653
    vertex 3268.883448454222 12149.010637375843 210.0150082632777
    vertex 3267.70161586069 12149.010637375843 210.57352522586493
  endloop
endfacet
facet normal 0.0 1.0 -0.0
  outer loop
    vertex 3268.883448454222 12149.010637375843 210.0150082632777
    vertex 3267.9743845670946 12149.010637375843 211.8332351180653
    vertex 3268.3380101219454 12149.010637375843 211.4435513831255
  endloop
endfacet
facet normal 0.0 1.0 -0.0
  outer loop
    vertex 3268.883448454222 12149.010637375843 210.0150082632777
    vertex 3268.3380101219454 12149.010637375843 211.4435513831255
    vertex 3269.0912203312037 12149.010637375843 211.07992582827455
  endloop
endfacet
facet normal 0.0 1.0 -0.0
  outer loop
    vertex 3268.883448454222 12149.010637375843 210.0150082632777
    vertex 3269.0912203312037 12149.010637375843 211.07992582827455
    vertex 3270.117100166334 12149.010637375843 210.0150082632777
  endloop
endfacet
facet normal 0.0 1.0 -0.0
  outer loop
    vertex 3270.117100166334 12149.010637375843 210.0150082632777
    vertex 3269.0912203312037 12149.010637375843 211.07992582827455
    vertex 3269.909328289352 12149.010637375843 211.07992582827455
  endloop
endfacet
facet normal 0.0 1.0 -0.0
  outer loop
    vertex 3270.117100166334 12149.010637375843 210.0150082632777
    vertex 3269.909328289352 12149.010637375843 211.07992582827455
    vertex 3270.6625384986096 12149.010637375843 211.4435513831255
  endloop
endfacet
facet normal 0.0 1.0 -0.0
  outer loop
    vertex 3270.117100166334 12149.010637375843 210.0150082632777
    vertex 3270.6625384986096 12149.010637375843 211.4435513831255
    vertex 3271.2989327598657 12149.010637375843 210.57352522586493
  endloop
endfacet
facet normal 0.0 1.0 -0.0
  outer loop
    vertex 3271.2989327598657 12149.010637375843 210.57352522586493
    vertex 3270.6625384986096 12149.010637375843 211.4435513831255
    vertex 3271.311912309644 12149.010637375843 212.13186384349333
  endloop
endfacet
facet normal 0.0 1.0 -0.0
  outer loop
    vertex 3271.2989327598657 12149.010637375843 210.57352522586493
    vertex 3271.311912309644 12149.010637375843 212.13186384349333
    vertex 3272.207996646993 12149.010637375843 211.49556866277044
  endloop
endfacet
facet normal 0.0 1.0 -0.0
  outer loop
    vertex 3272.207996646993 12149.010637375843 211.49556866277044
    vertex 3271.311912309644 12149.010637375843 212.13186384349333
    vertex 3271.623619665382 12149.010637375843 212.8850740527514
  endloop
endfacet
facet normal 0.0 1.0 -0.0
  outer loop
    vertex 3272.207996646993 12149.010637375843 211.49556866277044
    vertex 3271.623619665382 12149.010637375843 212.8850740527514
    vertex 3271.818411992586 12149.010637375843 213.88509386885792
  endloop
endfacet
facet normal 0.0 1.0 -0.0
  outer loop
    vertex 3272.207996646993 12149.010637375843 211.49556866277044
    vertex 3271.818411992586 12149.010637375843 213.88509386885792
    vertex 3272.207996646993 12149.010637375843 217.9759309011978
  endloop
endfacet
facet normal 0.0 1.0 -0.0
  outer loop
    vertex 3272.207996646993 12149.010637375843 211.49556866277044
    vertex 3272.207996646993 12149.010637375843 217.9759309011978
    vertex 3272.675557680601 12149.010637375843 216.8589960565561
  endloop
endfacet
facet normal 0.0 1.0 -0.0
  outer loop
    vertex 3272.207996646993 12149.010637375843 211.49556866277044
    vertex 3272.675557680601 12149.010637375843 216.8589960565561
    vertex 3272.675557680601 12149.010637375843 212.6124044268795
  endloop
endfacet
facet normal 0.0 1.0 -0.0
  outer loop
    vertex 3272.675557680601 12149.010637375843 212.6124044268795
    vertex 3272.675557680601 12149.010637375843 216.8589960565561
    vertex 3272.8963091073606 12149.010637375843 215.6772625435567
  endloop
endfacet
facet normal 0.0 1.0 -0.0
  outer loop
    vertex 3272.675557680601 12149.010637375843 212.6124044268795
    vertex 3272.8963091073606 12149.010637375843 215.6772625435567
    vertex 3272.8963091073606 12149.010637375843 213.79413793987885
  endloop
endfacet
facet normal 0.0 1.0 -0.0
  outer loop
    vertex 3275.625284218331 12149.010637375843 218.84595705845842
    vertex 3275.8200765455344 12149.010637375843 217.4824107680336
    vertex 3275.0538867864984 12149.010637375843 218.24860052706973
  endloop
endfacet
facet normal 0.0 1.0 -0.0
  outer loop
    vertex 3275.8200765455344 12149.010637375843 217.4824107680336
    vertex 3275.625284218331 12149.010637375843 218.84595705845842
    vertex 3276.988830508756 12149.010637375843 219.45639222015785
  endloop
endfacet
facet normal 0.0 1.0 -0.0
  outer loop
    vertex 3275.8200765455344 12149.010637375843 217.4824107680336
    vertex 3276.988830508756 12149.010637375843 219.45639222015785
    vertex 3276.274558948832 12149.010637375843 217.94987272110905
  endloop
endfacet
facet normal 0.0 1.0 -0.0
  outer loop
    vertex 3276.274558948832 12149.010637375843 217.94987272110905
    vertex 3276.988830508756 12149.010637375843 219.45639222015785
    vertex 3277.19670146627 12149.010637375843 218.39147465516106
  endloop
endfacet
facet normal 0.0 1.0 -0.0
  outer loop
    vertex 3277.19670146627 12149.010637375843 218.39147465516106
    vertex 3276.988830508756 12149.010637375843 219.45639222015785
    vertex 3278.3914145290473 12149.010637375843 219.45639222015785
  endloop
endfacet
facet normal 0.0 1.0 -0.0
  outer loop
    vertex 3277.19670146627 12149.010637375843 218.39147465516106
    vertex 3278.3914145290473 12149.010637375843 219.45639222015785
    vertex 3278.131724452954 12149.010637375843 218.39147465516106
  endloop
endfacet
facet normal 0.0 1.0 -0.0
  outer loop
    vertex 3278.131724452954 12149.010637375843 218.39147465516106
    vertex 3278.3914145290473 12149.010637375843 219.45639222015785
    vertex 3279.0018496907473 12149.010637375843 217.9759309011978
  endloop
endfacet
facet normal 0.0 1.0 -0.0
  outer loop
    vertex 3279.0018496907473 12149.010637375843 217.9759309011978
    vertex 3278.3914145290473 12149.010637375843 219.45639222015785
    vertex 3279.742080350227 12149.010637375843 218.79403885934622
  endloop
endfacet
facet normal 0.0 1.0 -0.0
  outer loop
    vertex 3279.0018496907473 12149.010637375843 217.9759309011978
    vertex 3279.742080350227 12149.010637375843 218.79403885934622
    vertex 3279.5212298429346 12149.010637375843 217.13176476296067
  endloop
endfacet
facet normal 0.0 1.0 -0.0
  outer loop
    vertex 3279.5212298429346 12149.010637375843 217.13176476296067
    vertex 3279.742080350227 12149.010637375843 218.79403885934622
    vertex 3279.5212298429346 12149.010637375843 216.41749320303674
  endloop
endfacet
facet normal 0.0 1.0 -0.0
  outer loop
    vertex 3279.1186656387495 12149.010637375843 215.61226571413377
    vertex 3275.079845886055 12149.010637375843 210.11894374203484
    vertex 3275.079845886055 12149.010637375843 211.07992582827455
  endloop
endfacet
facet normal 0.0 1.0 -0.0
  outer loop
    vertex 3275.079845886055 12149.010637375843 210.11894374203484
    vertex 3279.1186656387495 12149.010637375843 215.61226571413377
    vertex 3276.5473276552366 12149.010637375843 211.1838613070317
  endloop
endfacet
facet normal 0.0 1.0 -0.0
  outer loop
    vertex 3276.5473276552366 12149.010637375843 211.1838613070317
    vertex 3279.1186656387495 12149.010637375843 215.61226571413377
    vertex 3280.027729525877 12149.010637375843 215.0278887325231
  endloop
endfacet
facet normal 0.0 1.0 -0.0
  outer loop
    vertex 3280.027729525877 12149.010637375843 215.0278887325231
    vertex 3279.1186656387495 12149.010637375843 215.61226571413377
    vertex 3279.5212298429346 12149.010637375843 216.41749320303674
  endloop
endfacet
facet normal 0.0 1.0 -0.0
  outer loop
    vertex 3280.027729525877 12149.010637375843 215.0278887325231
    vertex 3279.5212298429346 12149.010637375843 216.41749320303674
    vertex 3279.742080350227 12149.010637375843 218.79403885934622
  endloop
endfacet
facet normal 0.0 1.0 -0.0
  outer loop
    vertex 3280.027729525877 12149.010637375843 215.0278887325231
    vertex 3279.742080350227 12149.010637375843 218.79403885934622
    vertex 3280.5991269577094 12149.010637375843 217.44347211869942
  endloop
endfacet
facet normal 0.0 1.0 -0.0
  outer loop
    vertex 3280.027729525877 12149.010637375843 215.0278887325231
    vertex 3280.5991269577094 12149.010637375843 217.44347211869942
    vertex 3280.5991269577094 12149.010637375843 216.19674177627707
  endloop
endfacet
facet normal 0.0 1.0 -0.0
  outer loop
    vertex 3276.5473276552366 12149.010637375843 211.1838613070317
    vertex 3280.703062436467 12149.010637375843 210.11894374203484
    vertex 3275.079845886055 12149.010637375843 210.11894374203484
  endloop
endfacet
facet normal 0.0 1.0 -0.0
  outer loop
    vertex 3280.703062436467 12149.010637375843 210.11894374203484
    vertex 3276.5473276552366 12149.010637375843 211.1838613070317
    vertex 3280.703062436467 12149.010637375843 211.1838613070317
  endloop
endfacet
facet normal 0.0 1.0 -0.0
  outer loop
    vertex 3286.9774362475 12149.010637375843 211.8721737673995
    vertex 3285.276124421248 12149.010637375843 210.11894374203484
    vertex 3285.276124421248 12149.010637375843 211.8721737673995
  endloop
endfacet
facet normal 0.0 1.0 -0.0
  outer loop
    vertex 3285.276124421248 12149.010637375843 210.11894374203484
    vertex 3286.9774362475 12149.010637375843 211.8721737673995
    vertex 3286.9774362475 12149.010637375843 210.11894374203484
  endloop
endfacet
facet normal 0.0 1.0 -0.0
  outer loop
    vertex 3296.6672150997515 12149.010637375843 219.35245674140074
    vertex 3291.979021536023 12149.010637375843 218.2875391764039
    vertex 3291.979021536023 12149.010637375843 219.35245674140074
  endloop
endfacet
facet normal 0.0 1.0 -0.0
  outer loop
    vertex 3291.979021536023 12149.010637375843 218.2875391764039
    vertex 3296.6672150997515 12149.010637375843 219.35245674140074
    vertex 3295.2386719799038 12149.010637375843 218.2875391764039
  endloop
endfacet
facet normal 0.0 1.0 -0.0
  outer loop
    vertex 3295.2386719799038 12149.010637375843 218.2875391764039
    vertex 3293.433523755427 12149.010637375843 214.95001143385477
    vertex 3293.433523755427 12149.010637375843 215.80715712186998
  endloop
endfacet
facet normal 0.0 1.0 -0.0
  outer loop
    vertex 3293.433523755427 12149.010637375843 214.95001143385477
    vertex 3295.2386719799038 12149.010637375843 218.2875391764039
    vertex 3294.264710343886 12149.010637375843 214.95001143385477
  endloop
endfacet
facet normal 0.0 1.0 -0.0
  outer loop
    vertex 3294.264710343886 12149.010637375843 214.95001143385477
    vertex 3295.2386719799038 12149.010637375843 218.2875391764039
    vertex 3294.745250927272 12149.010637375843 215.8590753209822
  endloop
endfacet
facet normal 0.0 1.0 -0.0
  outer loop
    vertex 3294.745250927272 12149.010637375843 215.8590753209822
    vertex 3295.2386719799038 12149.010637375843 218.2875391764039
    vertex 3296.6672150997515 12149.010637375843 218.50838968369624
  endloop
endfacet
facet normal 0.0 1.0 -0.0
  outer loop
    vertex 3296.6672150997515 12149.010637375843 218.50838968369624
    vertex 3295.2386719799038 12149.010637375843 218.2875391764039
    vertex 3296.6672150997515 12149.010637375843 219.35245674140074
  endloop
endfacet
facet normal 0.0 1.0 -0.0
  outer loop
    vertex 3294.745250927272 12149.010637375843 215.8590753209822
    vertex 3295.394525657773 12149.010637375843 214.4954299500247
    vertex 3294.264710343886 12149.010637375843 214.95001143385477
  endloop
endfacet
facet normal 0.0 1.0 -0.0
  outer loop
    vertex 3295.394525657773 12149.010637375843 214.4954299500247
    vertex 3294.745250927272 12149.010637375843 215.8590753209822
    vertex 3295.991981269695 12149.010637375843 215.39151428737412
  endloop
endfacet
facet normal 0.0 1.0 -0.0
  outer loop
    vertex 3295.394525657773 12149.010637375843 214.4954299500247
    vertex 3295.991981269695 12149.010637375843 215.39151428737412
    vertex 3295.965923089606 12149.010637375843 213.898073418636
  endloop
endfacet
facet normal 0.0 1.0 -0.0
  outer loop
    vertex 3295.965923089606 12149.010637375843 213.898073418636
    vertex 3295.991981269695 12149.010637375843 215.39151428737412
    vertex 3296.1997531466764 12149.010637375843 213.3266759868034
  endloop
endfacet
facet normal 0.0 1.0 -0.0
  outer loop
    vertex 3296.1997531466764 12149.010637375843 213.3266759868034
    vertex 3295.991981269695 12149.010637375843 215.39151428737412
    vertex 3296.901045156822 12149.010637375843 214.48245040024665
  endloop
endfacet
facet normal 0.0 1.0 -0.0
  outer loop
    vertex 3296.1997531466764 12149.010637375843 213.3266759868034
    vertex 3296.901045156822 12149.010637375843 214.48245040024665
    vertex 3296.1997531466764 12149.010637375843 212.6773021757698
  endloop
endfacet
facet normal 0.0 1.0 -0.0
  outer loop
    vertex 3292.121895664114 12149.010637375843 211.93707151628976
    vertex 3291.992001085801 12149.010637375843 210.5604465955542
    vertex 3291.355705905078 12149.010637375843 211.17088175725362
  endloop
endfacet
facet normal 0.0 1.0 -0.0
  outer loop
    vertex 3291.992001085801 12149.010637375843 210.5604465955542
    vertex 3292.121895664114 12149.010637375843 211.93707151628976
    vertex 3293.3037282576465 12149.010637375843 210.0150082632777
  endloop
endfacet
facet normal 0.0 1.0 -0.0
  outer loop
    vertex 3293.3037282576465 12149.010637375843 210.0150082632777
    vertex 3292.121895664114 12149.010637375843 211.93707151628976
    vertex 3292.6154157972783 12149.010637375843 211.4435513831255
  endloop
endfacet
facet normal 0.0 1.0 -0.0
  outer loop
    vertex 3293.3037282576465 12149.010637375843 210.0150082632777
    vertex 3292.6154157972783 12149.010637375843 211.4435513831255
    vertex 3293.4985205848498 12149.010637375843 211.07992582827455
  endloop
endfacet
facet normal 0.0 1.0 -0.0
  outer loop
    vertex 3293.3037282576465 12149.010637375843 210.0150082632777
    vertex 3293.4985205848498 12149.010637375843 211.07992582827455
    vertex 3294.680254097849 12149.010637375843 210.0150082632777
  endloop
endfacet
facet normal 0.0 1.0 -0.0
  outer loop
    vertex 3294.680254097849 12149.010637375843 210.0150082632777
    vertex 3293.4985205848498 12149.010637375843 211.07992582827455
    vertex 3294.45950267109 12149.010637375843 211.07992582827455
  endloop
endfacet
facet normal 0.0 1.0 -0.0
  outer loop
    vertex 3294.680254097849 12149.010637375843 210.0150082632777
    vertex 3294.45950267109 12149.010637375843 211.07992582827455
    vertex 3295.43356338764 12149.010637375843 211.52152776232654
  endloop
endfacet
facet normal 0.0 1.0 -0.0
  outer loop
    vertex 3294.680254097849 12149.010637375843 210.0150082632777
    vertex 3295.43356338764 12149.010637375843 211.52152776232654
    vertex 3296.056879018585 12149.010637375843 210.62544342497714
  endloop
endfacet
facet normal 0.0 1.0 -0.0
  outer loop
    vertex 3296.056879018585 12149.010637375843 210.62544342497714
    vertex 3295.43356338764 12149.010637375843 211.52152776232654
    vertex 3295.9529435398276 12149.010637375843 212.066966094603
  endloop
endfacet
facet normal 0.0 1.0 -0.0
  outer loop
    vertex 3296.056879018585 12149.010637375843 210.62544342497714
    vertex 3295.9529435398276 12149.010637375843 212.066966094603
    vertex 3296.1997531466764 12149.010637375843 212.6773021757698
  endloop
endfacet
facet normal 0.0 1.0 -0.0
  outer loop
    vertex 3296.056879018585 12149.010637375843 210.62544342497714
    vertex 3296.1997531466764 12149.010637375843 212.6773021757698
    vertex 3296.901045156822 12149.010637375843 211.52152776232654
  endloop
endfacet
facet normal 0.0 1.0 -0.0
  outer loop
    vertex 3296.901045156822 12149.010637375843 211.52152776232654
    vertex 3296.1997531466764 12149.010637375843 212.6773021757698
    vertex 3296.901045156822 12149.010637375843 214.48245040024665
  endloop
endfacet
facet normal 0.0 1.0 -0.0
  outer loop
    vertex 3296.901045156822 12149.010637375843 211.52152776232654
    vertex 3296.901045156822 12149.010637375843 214.48245040024665
    vertex 3297.277650261451 12149.010637375843 213.48252966467277
  endloop
endfacet
facet normal 0.0 1.0 -0.0
  outer loop
    vertex 3296.901045156822 12149.010637375843 211.52152776232654
    vertex 3297.277650261451 12149.010637375843 213.48252966467277
    vertex 3297.277650261451 12149.010637375843 212.53442804767846
  endloop
endfacet
facet normal 0.0 1.0 -0.0
  outer loop
    vertex 3269.3509104072978 12149.010637375843 198.46479424932716
    vertex 3268.857390274133 12149.010637375843 196.25708182066515
    vertex 3268.857390274133 12149.010637375843 197.98435274647366
  endloop
endfacet
facet normal 0.0 1.0 -0.0
  outer loop
    vertex 3268.857390274133 12149.010637375843 196.25708182066515
    vertex 3269.3509104072978 12149.010637375843 198.46479424932716
    vertex 3269.1431385303163 12149.010637375843 196.88039745161
  endloop
endfacet
facet normal 0.0 1.0 -0.0
  outer loop
    vertex 3269.1431385303163 12149.010637375843 196.88039745161
    vertex 3269.3509104072978 12149.010637375843 198.46479424932716
    vertex 3269.6755973128143 12149.010637375843 197.47785306353134
  endloop
endfacet
facet normal 0.0 1.0 -0.0
  outer loop
    vertex 3269.6755973128143 12149.010637375843 197.47785306353134
    vertex 3269.3509104072978 12149.010637375843 198.46479424932716
    vertex 3270.2340151948683 12149.010637375843 198.88043708382304
  endloop
endfacet
facet normal 0.0 1.0 -0.0
  outer loop
    vertex 3269.6755973128143 12149.010637375843 197.47785306353134
    vertex 3270.2340151948683 12149.010637375843 198.88043708382304
    vertex 3270.4417870718507 12149.010637375843 197.81551951882625
  endloop
endfacet
facet normal 0.0 1.0 -0.0
  outer loop
    vertex 3270.4417870718507 12149.010637375843 197.81551951882625
    vertex 3270.2340151948683 12149.010637375843 198.88043708382304
    vertex 3271.597660565826 12149.010637375843 198.88043708382304
  endloop
endfacet
facet normal 0.0 1.0 -0.0
  outer loop
    vertex 3270.4417870718507 12149.010637375843 197.81551951882625
    vertex 3271.597660565826 12149.010637375843 198.88043708382304
    vertex 3271.441806887957 12149.010637375843 197.81551951882625
  endloop
endfacet
facet normal 0.0 1.0 -0.0
  outer loop
    vertex 3271.441806887957 12149.010637375843 197.81551951882625
    vertex 3271.597660565826 12149.010637375843 198.88043708382304
    vertex 3272.4807653533976 12149.010637375843 197.45189396397524
  endloop
endfacet
facet normal 0.0 1.0 -0.0
  outer loop
    vertex 3272.4807653533976 12149.010637375843 197.45189396397524
    vertex 3271.597660565826 12149.010637375843 198.88043708382304
    vertex 3272.805353178382 12149.010637375843 198.46479424932716
  endloop
endfacet
facet normal 0.0 1.0 -0.0
  outer loop
    vertex 3268.857390274133 12149.010637375843 198.7765016050659
    vertex 3267.7794931593585 12149.010637375843 191.93251381178754
    vertex 3267.7794931593585 12149.010637375843 198.7765016050659
  endloop
endfacet
facet normal 0.0 1.0 -0.0
  outer loop
    vertex 3267.7794931593585 12149.010637375843 191.93251381178754
    vertex 3268.857390274133 12149.010637375843 198.7765016050659
    vertex 3268.857390274133 12149.010637375843 191.93251381178754
  endloop
endfacet
facet normal 0.0 1.0 -0.0
  outer loop
    vertex 3268.857390274133 12149.010637375843 191.93251381178754
    vertex 3268.857390274133 12149.010637375843 198.7765016050659
    vertex 3268.857390274133 12149.010637375843 197.98435274647366
  endloop
endfacet
facet normal 0.0 1.0 -0.0
  outer loop
    vertex 3268.857390274133 12149.010637375843 191.93251381178754
    vertex 3268.857390274133 12149.010637375843 197.98435274647366
    vertex 3268.857390274133 12149.010637375843 196.25708182066515
  endloop
endfacet
facet normal 0.0 1.0 -0.0
  outer loop
    vertex 3275.0538867864984 12149.010637375843 197.28306073632783
    vertex 3274.781118080094 12149.010637375843 194.58182817450157
    vertex 3274.781118080094 12149.010637375843 196.11420769257387
  endloop
endfacet
facet normal 0.0 1.0 -0.0
  outer loop
    vertex 3274.781118080094 12149.010637375843 194.58182817450157
    vertex 3275.0538867864984 12149.010637375843 197.28306073632783
    vertex 3275.0538867864984 12149.010637375843 193.4129751307476
  endloop
endfacet
facet normal 0.0 1.0 -0.0
  outer loop
    vertex 3275.0538867864984 12149.010637375843 193.4129751307476
    vertex 3275.0538867864984 12149.010637375843 197.28306073632783
    vertex 3275.7421992468658 12149.010637375843 198.25702237234555
  endloop
endfacet
facet normal 0.0 1.0 -0.0
  outer loop
    vertex 3275.0538867864984 12149.010637375843 193.4129751307476
    vertex 3275.7421992468658 12149.010637375843 198.25702237234555
    vertex 3275.7421992468658 12149.010637375843 192.43901349472983
  endloop
endfacet
facet normal 0.0 1.0 -0.0
  outer loop
    vertex 3275.7421992468658 12149.010637375843 192.43901349472983
    vertex 3275.7421992468658 12149.010637375843 198.25702237234555
    vertex 3275.859015194869 12149.010637375843 195.9973917445713
  endloop
endfacet
facet normal 0.0 1.0 -0.0
  outer loop
    vertex 3275.859015194869 12149.010637375843 195.9973917445713
    vertex 3275.7421992468658 12149.010637375843 198.25702237234555
    vertex 3276.040827972294 12149.010637375843 196.85443835205385
  endloop
endfacet
facet normal 0.0 1.0 -0.0
  outer loop
    vertex 3276.040827972294 12149.010637375843 196.85443835205385
    vertex 3275.7421992468658 12149.010637375843 198.25702237234555
    vertex 3277.040847788401 12149.010637375843 198.88043708382304
  endloop
endfacet
facet normal 0.0 1.0 -0.0
  outer loop
    vertex 3276.040827972294 12149.010637375843 196.85443835205385
    vertex 3277.040847788401 12149.010637375843 198.88043708382304
    vertex 3276.456371726257 12149.010637375843 197.42583578388647
  endloop
endfacet
facet normal 0.0 1.0 -0.0
  outer loop
    vertex 3276.456371726257 12149.010637375843 197.42583578388647
    vertex 3277.040847788401 12149.010637375843 198.88043708382304
    vertex 3277.2356401156044 12149.010637375843 197.81551951882625
  endloop
endfacet
facet normal 0.0 1.0 -0.0
  outer loop
    vertex 3277.2356401156044 12149.010637375843 197.81551951882625
    vertex 3277.040847788401 12149.010637375843 198.88043708382304
    vertex 3278.599186406029 12149.010637375843 198.88043708382304
  endloop
endfacet
facet normal 0.0 1.0 -0.0
  outer loop
    vertex 3277.2356401156044 12149.010637375843 197.81551951882625
    vertex 3278.599186406029 12149.010637375843 198.88043708382304
    vertex 3278.404394078826 12149.010637375843 197.81551951882625
  endloop
endfacet
facet normal 0.0 1.0 -0.0
  outer loop
    vertex 3278.404394078826 12149.010637375843 197.81551951882625
    vertex 3278.599186406029 12149.010637375843 198.88043708382304
    vertex 3279.1836624681728 12149.010637375843 197.42583578388647
  endloop
endfacet
facet normal 0.0 1.0 -0.0
  outer loop
    vertex 3279.1836624681728 12149.010637375843 197.42583578388647
    vertex 3278.599186406029 12149.010637375843 198.88043708382304
    vertex 3279.8979340280966 12149.010637375843 198.25702237234555
  endloop
endfacet
facet normal 0.0 1.0 -0.0
  outer loop
    vertex 3279.1836624681728 12149.010637375843 197.42583578388647
    vertex 3279.8979340280966 12149.010637375843 198.25702237234555
    vertex 3279.5992062221358 12149.010637375843 196.85443835205385
  endloop
endfacet
facet normal 0.0 1.0 -0.0
  outer loop
    vertex 3279.5992062221358 12149.010637375843 196.85443835205385
    vertex 3279.8979340280966 12149.010637375843 198.25702237234555
    vertex 3279.781018999561 12149.010637375843 195.9973917445713
  endloop
endfacet
facet normal 0.0 1.0 -0.0
  outer loop
    vertex 3279.781018999561 12149.010637375843 195.9973917445713
    vertex 3279.8979340280966 12149.010637375843 198.25702237234555
    vertex 3279.781018999561 12149.010637375843 194.71162367228217
  endloop
endfacet
facet normal 0.0 1.0 -0.0
  outer loop
    vertex 3275.7421992468658 12149.010637375843 192.43901349472983
    vertex 3276.040827972294 12149.010637375843 193.84159751502153
    vertex 3277.053827338179 12149.010637375843 191.8285783330304
  endloop
endfacet
facet normal 0.0 1.0 -0.0
  outer loop
    vertex 3276.040827972294 12149.010637375843 193.84159751502153
    vertex 3275.7421992468658 12149.010637375843 192.43901349472983
    vertex 3275.859015194869 12149.010637375843 194.71162367228217
  endloop
endfacet
facet normal 0.0 1.0 -0.0
  outer loop
    vertex 3275.859015194869 12149.010637375843 194.71162367228217
    vertex 3275.7421992468658 12149.010637375843 192.43901349472983
    vertex 3275.859015194869 12149.010637375843 195.9973917445713
  endloop
endfacet
facet normal 0.0 1.0 -0.0
  outer loop
    vertex 3277.053827338179 12149.010637375843 191.8285783330304
    vertex 3276.040827972294 12149.010637375843 193.84159751502153
    vertex 3276.456371726257 12149.010637375843 193.2571214528782
  endloop
endfacet
facet normal 0.0 1.0 -0.0
  outer loop
    vertex 3277.053827338179 12149.010637375843 191.8285783330304
    vertex 3276.456371726257 12149.010637375843 193.2571214528782
    vertex 3277.2356401156044 12149.010637375843 192.8805163482492
  endloop
endfacet
facet normal 0.0 1.0 -0.0
  outer loop
    vertex 3277.053827338179 12149.010637375843 191.8285783330304
    vertex 3277.2356401156044 12149.010637375843 192.8805163482492
    vertex 3278.5862068562515 12149.010637375843 191.8285783330304
  endloop
endfacet
facet normal 0.0 1.0 -0.0
  outer loop
    vertex 3278.5862068562515 12149.010637375843 191.8285783330304
    vertex 3277.2356401156044 12149.010637375843 192.8805163482492
    vertex 3278.404394078826 12149.010637375843 192.8805163482492
  endloop
endfacet
facet normal 0.0 1.0 -0.0
  outer loop
    vertex 3278.5862068562515 12149.010637375843 191.8285783330304
    vertex 3278.404394078826 12149.010637375843 192.8805163482492
    vertex 3279.1836624681728 12149.010637375843 193.2571214528782
  endloop
endfacet
facet normal 0.0 1.0 -0.0
  outer loop
    vertex 3278.5862068562515 12149.010637375843 191.8285783330304
    vertex 3279.1836624681728 12149.010637375843 193.2571214528782
    vertex 3279.8979340280966 12149.010637375843 192.43901349472983
  endloop
endfacet
facet normal 0.0 1.0 -0.0
  outer loop
    vertex 3279.8979340280966 12149.010637375843 192.43901349472983
    vertex 3279.1836624681728 12149.010637375843 193.2571214528782
    vertex 3279.5992062221358 12149.010637375843 193.84159751502153
  endloop
endfacet
facet normal 0.0 1.0 -0.0
  outer loop
    vertex 3279.8979340280966 12149.010637375843 192.43901349472983
    vertex 3279.5992062221358 12149.010637375843 193.84159751502153
    vertex 3279.781018999561 12149.010637375843 194.71162367228217
  endloop
endfacet
facet normal 0.0 1.0 -0.0
  outer loop
    vertex 3279.8979340280966 12149.010637375843 192.43901349472983
    vertex 3279.781018999561 12149.010637375843 194.71162367228217
    vertex 3279.8979340280966 12149.010637375843 198.25702237234555
  endloop
endfacet
facet normal 0.0 1.0 -0.0
  outer loop
    vertex 3279.8979340280966 12149.010637375843 192.43901349472983
    vertex 3279.8979340280966 12149.010637375843 198.25702237234555
    vertex 3280.586147407932 12149.010637375843 197.28306073632783
  endloop
endfacet
facet normal 0.0 1.0 -0.0
  outer loop
    vertex 3279.8979340280966 12149.010637375843 192.43901349472983
    vertex 3280.586147407932 12149.010637375843 197.28306073632783
    vertex 3280.586147407932 12149.010637375843 193.4129751307476
  endloop
endfacet
facet normal 0.0 1.0 -0.0
  outer loop
    vertex 3280.586147407932 12149.010637375843 193.4129751307476
    vertex 3280.586147407932 12149.010637375843 197.28306073632783
    vertex 3280.858916114336 12149.010637375843 196.11420769257387
  endloop
endfacet
facet normal 0.0 1.0 -0.0
  outer loop
    vertex 3280.586147407932 12149.010637375843 193.4129751307476
    vertex 3280.858916114336 12149.010637375843 196.11420769257387
    vertex 3280.858916114336 12149.010637375843 194.58182817450157
  endloop
endfacet
facet normal 0.0 1.0 -0.0
  outer loop
    vertex 3283.3671397985468 12149.010637375843 197.28306073632783
    vertex 3283.094371092142 12149.010637375843 194.58182817450157
    vertex 3283.094371092142 12149.010637375843 196.11420769257387
  endloop
endfacet
facet normal 0.0 1.0 -0.0
  outer loop
    vertex 3283.094371092142 12149.010637375843 194.58182817450157
    vertex 3283.3671397985468 12149.010637375843 197.28306073632783
    vertex 3283.3671397985468 12149.010637375843 193.4129751307476
  endloop
endfacet
facet normal 0.0 1.0 -0.0
  outer loop
    vertex 3283.3671397985468 12149.010637375843 193.4129751307476
    vertex 3283.3671397985468 12149.010637375843 197.28306073632783
    vertex 3284.0554522589146 12149.010637375843 198.25702237234555
  endloop
endfacet
facet normal 0.0 1.0 -0.0
  outer loop
    vertex 3283.3671397985468 12149.010637375843 193.4129751307476
    vertex 3284.0554522589146 12149.010637375843 198.25702237234555
    vertex 3284.0554522589146 12149.010637375843 192.43901349472983
  endloop
endfacet
facet normal 0.0 1.0 -0.0
  outer loop
    vertex 3284.0554522589146 12149.010637375843 192.43901349472983
    vertex 3284.0554522589146 12149.010637375843 198.25702237234555
    vertex 3284.1722682069167 12149.010637375843 195.9973917445713
  endloop
endfacet
facet normal 0.0 1.0 -0.0
  outer loop
    vertex 3284.1722682069167 12149.010637375843 195.9973917445713
    vertex 3284.0554522589146 12149.010637375843 198.25702237234555
    vertex 3284.354080984342 12149.010637375843 196.85443835205385
  endloop
endfacet
facet normal 0.0 1.0 -0.0
  outer loop
    vertex 3284.354080984342 12149.010637375843 196.85443835205385
    vertex 3284.0554522589146 12149.010637375843 198.25702237234555
    vertex 3285.354100800449 12149.010637375843 198.88043708382304
  endloop
endfacet
facet normal 0.0 1.0 -0.0
  outer loop
    vertex 3284.354080984342 12149.010637375843 196.85443835205385
    vertex 3285.354100800449 12149.010637375843 198.88043708382304
    vertex 3284.769624738306 12149.010637375843 197.42583578388647
  endloop
endfacet
facet normal 0.0 1.0 -0.0
  outer loop
    vertex 3284.769624738306 12149.010637375843 197.42583578388647
    vertex 3285.354100800449 12149.010637375843 198.88043708382304
    vertex 3285.5488931276527 12149.010637375843 197.81551951882625
  endloop
endfacet
facet normal 0.0 1.0 -0.0
  outer loop
    vertex 3285.5488931276527 12149.010637375843 197.81551951882625
    vertex 3285.354100800449 12149.010637375843 198.88043708382304
    vertex 3286.9124394180776 12149.010637375843 198.88043708382304
  endloop
endfacet
facet normal 0.0 1.0 -0.0
  outer loop
    vertex 3285.5488931276527 12149.010637375843 197.81551951882625
    vertex 3286.9124394180776 12149.010637375843 198.88043708382304
    vertex 3286.717647090874 12149.010637375843 197.81551951882625
  endloop
endfacet
facet normal 0.0 1.0 -0.0
  outer loop
    vertex 3286.717647090874 12149.010637375843 197.81551951882625
    vertex 3286.9124394180776 12149.010637375843 198.88043708382304
    vertex 3287.4969154802207 12149.010637375843 197.42583578388647
  endloop
endfacet
facet normal 0.0 1.0 -0.0
  outer loop
    vertex 3287.4969154802207 12149.010637375843 197.42583578388647
    vertex 3286.9124394180776 12149.010637375843 198.88043708382304
    vertex 3288.211187040145 12149.010637375843 198.25702237234555
  endloop
endfacet
facet normal 0.0 1.0 -0.0
  outer loop
    vertex 3287.4969154802207 12149.010637375843 197.42583578388647
    vertex 3288.211187040145 12149.010637375843 198.25702237234555
    vertex 3287.912459234184 12149.010637375843 196.85443835205385
  endloop
endfacet
facet normal 0.0 1.0 -0.0
  outer loop
    vertex 3287.912459234184 12149.010637375843 196.85443835205385
    vertex 3288.211187040145 12149.010637375843 198.25702237234555
    vertex 3288.0942720116095 12149.010637375843 195.9973917445713
  endloop
endfacet
facet normal 0.0 1.0 -0.0
  outer loop
    vertex 3288.0942720116095 12149.010637375843 195.9973917445713
    vertex 3288.211187040145 12149.010637375843 198.25702237234555
    vertex 3288.0942720116095 12149.010637375843 194.71162367228217
  endloop
endfacet
facet normal 0.0 1.0 -0.0
  outer loop
    vertex 3284.0554522589146 12149.010637375843 192.43901349472983
    vertex 3284.354080984342 12149.010637375843 193.84159751502153
    vertex 3285.3670803502273 12149.010637375843 191.8285783330304
  endloop
endfacet
facet normal 0.0 1.0 -0.0
  outer loop
    vertex 3284.354080984342 12149.010637375843 193.84159751502153
    vertex 3284.0554522589146 12149.010637375843 192.43901349472983
    vertex 3284.1722682069167 12149.010637375843 194.71162367228217
  endloop
endfacet
facet normal 0.0 1.0 -0.0
  outer loop
    vertex 3284.1722682069167 12149.010637375843 194.71162367228217
    vertex 3284.0554522589146 12149.010637375843 192.43901349472983
    vertex 3284.1722682069167 12149.010637375843 195.9973917445713
  endloop
endfacet
facet normal 0.0 1.0 -0.0
  outer loop
    vertex 3285.3670803502273 12149.010637375843 191.8285783330304
    vertex 3284.354080984342 12149.010637375843 193.84159751502153
    vertex 3284.769624738306 12149.010637375843 193.2571214528782
  endloop
endfacet
facet normal 0.0 1.0 -0.0
  outer loop
    vertex 3285.3670803502273 12149.010637375843 191.8285783330304
    vertex 3284.769624738306 12149.010637375843 193.2571214528782
    vertex 3285.5488931276527 12149.010637375843 192.8805163482492
  endloop
endfacet
facet normal 0.0 1.0 -0.0
  outer loop
    vertex 3285.3670803502273 12149.010637375843 191.8285783330304
    vertex 3285.5488931276527 12149.010637375843 192.8805163482492
    vertex 3286.8994598682993 12149.010637375843 191.8285783330304
  endloop
endfacet
facet normal 0.0 1.0 -0.0
  outer loop
    vertex 3286.8994598682993 12149.010637375843 191.8285783330304
    vertex 3285.5488931276527 12149.010637375843 192.8805163482492
    vertex 3286.717647090874 12149.010637375843 192.8805163482492
  endloop
endfacet
facet normal 0.0 1.0 -0.0
  outer loop
    vertex 3286.8994598682993 12149.010637375843 191.8285783330304
    vertex 3286.717647090874 12149.010637375843 192.8805163482492
    vertex 3287.4969154802207 12149.010637375843 193.2571214528782
  endloop
endfacet
facet normal 0.0 1.0 -0.0
  outer loop
    vertex 3286.8994598682993 12149.010637375843 191.8285783330304
    vertex 3287.4969154802207 12149.010637375843 193.2571214528782
    vertex 3288.211187040145 12149.010637375843 192.43901349472983
  endloop
endfacet
facet normal 0.0 1.0 -0.0
  outer loop
    vertex 3288.211187040145 12149.010637375843 192.43901349472983
    vertex 3287.4969154802207 12149.010637375843 193.2571214528782
    vertex 3287.912459234184 12149.010637375843 193.84159751502153
  endloop
endfacet
facet normal 0.0 1.0 -0.0
  outer loop
    vertex 3288.211187040145 12149.010637375843 192.43901349472983
    vertex 3287.912459234184 12149.010637375843 193.84159751502153
    vertex 3288.0942720116095 12149.010637375843 194.71162367228217
  endloop
endfacet
facet normal 0.0 1.0 -0.0
  outer loop
    vertex 3288.211187040145 12149.010637375843 192.43901349472983
    vertex 3288.0942720116095 12149.010637375843 194.71162367228217
    vertex 3288.211187040145 12149.010637375843 198.25702237234555
  endloop
endfacet
facet normal 0.0 1.0 -0.0
  outer loop
    vertex 3288.211187040145 12149.010637375843 192.43901349472983
    vertex 3288.211187040145 12149.010637375843 198.25702237234555
    vertex 3288.89940041998 12149.010637375843 197.28306073632783
  endloop
endfacet
facet normal 0.0 1.0 -0.0
  outer loop
    vertex 3288.211187040145 12149.010637375843 192.43901349472983
    vertex 3288.89940041998 12149.010637375843 197.28306073632783
    vertex 3288.89940041998 12149.010637375843 193.4129751307476
  endloop
endfacet
facet normal 0.0 1.0 -0.0
  outer loop
    vertex 3288.89940041998 12149.010637375843 193.4129751307476
    vertex 3288.89940041998 12149.010637375843 197.28306073632783
    vertex 3289.1721691263842 12149.010637375843 196.11420769257387
  endloop
endfacet
facet normal 0.0 1.0 -0.0
  outer loop
    vertex 3288.89940041998 12149.010637375843 193.4129751307476
    vertex 3289.1721691263842 12149.010637375843 196.11420769257387
    vertex 3289.1721691263842 12149.010637375843 194.58182817450157
  endloop
endfacet
facet normal 0.0 1.0 -0.0
  outer loop
    vertex 3295.1867537807916 12149.010637375843 198.43883514977105
    vertex 3295.0438796527 12149.010637375843 196.68560512440644
    vertex 3294.745250927272 12149.010637375843 197.8933968174946
  endloop
endfacet
facet normal 0.0 1.0 -0.0
  outer loop
    vertex 3295.0438796527 12149.010637375843 196.68560512440644
    vertex 3295.1867537807916 12149.010637375843 198.43883514977105
    vertex 3295.329627908883 12149.010637375843 197.25710163677172
  endloop
endfacet
facet normal 0.0 1.0 -0.0
  outer loop
    vertex 3295.329627908883 12149.010637375843 197.25710163677172
    vertex 3295.1867537807916 12149.010637375843 198.43883514977105
    vertex 3295.836127591825 12149.010637375843 198.88043708382304
  endloop
endfacet
facet normal 0.0 1.0 -0.0
  outer loop
    vertex 3295.329627908883 12149.010637375843 197.25710163677172
    vertex 3295.836127591825 12149.010637375843 198.88043708382304
    vertex 3295.979001719916 12149.010637375843 197.81551951882625
  endloop
endfacet
facet normal 0.0 1.0 -0.0
  outer loop
    vertex 3295.979001719916 12149.010637375843 197.81551951882625
    vertex 3295.836127591825 12149.010637375843 198.88043708382304
    vertex 3296.5893378010833 12149.010637375843 198.88043708382304
  endloop
endfacet
facet normal 0.0 1.0 -0.0
  outer loop
    vertex 3295.979001719916 12149.010637375843 197.81551951882625
    vertex 3296.5893378010833 12149.010637375843 198.88043708382304
    vertex 3296.3295486444567 12149.010637375843 197.81551951882625
  endloop
endfacet
facet normal 0.0 1.0 -0.0
  outer loop
    vertex 3296.3295486444567 12149.010637375843 197.81551951882625
    vertex 3296.5893378010833 12149.010637375843 198.88043708382304
    vertex 3296.7062528296183 12149.010637375843 197.62072719162268
  endloop
endfacet
facet normal 0.0 1.0 -0.0
  outer loop
    vertex 3296.7062528296183 12149.010637375843 197.62072719162268
    vertex 3296.5893378010833 12149.010637375843 198.88043708382304
    vertex 3297.368507109897 12149.010637375843 198.5687297280843
  endloop
endfacet
facet normal 0.0 1.0 -0.0
  outer loop
    vertex 3296.7062528296183 12149.010637375843 197.62072719162268
    vertex 3297.368507109897 12149.010637375843 198.5687297280843
    vertex 3297.030840654603 12149.010637375843 197.12720705845842
  endloop
endfacet
facet normal 0.0 1.0 -0.0
  outer loop
    vertex 3297.030840654603 12149.010637375843 197.12720705845842
    vertex 3297.368507109897 12149.010637375843 198.5687297280843
    vertex 3297.030840654603 12149.010637375843 191.93251381178754
  endloop
endfacet
facet normal 0.0 1.0 -0.0
  outer loop
    vertex 3297.030840654603 12149.010637375843 191.93251381178754
    vertex 3297.368507109897 12149.010637375843 198.5687297280843
    vertex 3298.1087377693775 12149.010637375843 191.93251381178754
  endloop
endfacet
facet normal 0.0 1.0 -0.0
  outer loop
    vertex 3298.1087377693775 12149.010637375843 191.93251381178754
    vertex 3297.368507109897 12149.010637375843 198.5687297280843
    vertex 3298.1087377693775 12149.010637375843 197.5038121630875
  endloop
endfacet
facet normal 0.0 1.0 -0.0
  outer loop
    vertex 3292.1738138632263 12149.010637375843 198.38691695065882
    vertex 3291.979021536023 12149.010637375843 196.6985846741845
    vertex 3291.979021536023 12149.010637375843 198.1011686944762
  endloop
endfacet
facet normal 0.0 1.0 -0.0
  outer loop
    vertex 3291.979021536023 12149.010637375843 196.6985846741845
    vertex 3292.1738138632263 12149.010637375843 198.38691695065882
    vertex 3292.2388106926496 12149.010637375843 197.24402300646096
  endloop
endfacet
facet normal 0.0 1.0 -0.0
  outer loop
    vertex 3292.2388106926496 12149.010637375843 197.24402300646096
    vertex 3292.1738138632263 12149.010637375843 198.38691695065882
    vertex 3292.7712694751476 12149.010637375843 198.88043708382304
  endloop
endfacet
facet normal 0.0 1.0 -0.0
  outer loop
    vertex 3292.2388106926496 12149.010637375843 197.24402300646096
    vertex 3292.7712694751476 12149.010637375843 198.88043708382304
    vertex 3292.9141436032387 12149.010637375843 197.81551951882625
  endloop
endfacet
facet normal 0.0 1.0 -0.0
  outer loop
    vertex 3292.9141436032387 12149.010637375843 197.81551951882625
    vertex 3292.7712694751476 12149.010637375843 198.88043708382304
    vertex 3293.524479684406 12149.010637375843 198.88043708382304
  endloop
endfacet
facet normal 0.0 1.0 -0.0
  outer loop
    vertex 3292.9141436032387 12149.010637375843 197.81551951882625
    vertex 3293.524479684406 12149.010637375843 198.88043708382304
    vertex 3293.2646905277793 12149.010637375843 197.81551951882625
  endloop
endfacet
facet normal 0.0 1.0 -0.0
  outer loop
    vertex 3293.2646905277793 12149.010637375843 197.81551951882625
    vertex 3293.524479684406 12149.010637375843 198.88043708382304
    vertex 3293.641394712941 12149.010637375843 197.59466901153388
  endloop
endfacet
facet normal 0.0 1.0 -0.0
  outer loop
    vertex 3293.641394712941 12149.010637375843 197.59466901153388
    vertex 3293.524479684406 12149.010637375843 198.88043708382304
    vertex 3294.30364899322 12149.010637375843 198.5687297280843
  endloop
endfacet
facet normal 0.0 1.0 -0.0
  outer loop
    vertex 3293.641394712941 12149.010637375843 197.59466901153388
    vertex 3294.30364899322 12149.010637375843 198.5687297280843
    vertex 3293.9659825379254 12149.010637375843 197.07528885934622
  endloop
endfacet
facet normal 0.0 1.0 -0.0
  outer loop
    vertex 3293.9659825379254 12149.010637375843 197.07528885934622
    vertex 3294.30364899322 12149.010637375843 198.5687297280843
    vertex 3293.9659825379254 12149.010637375843 191.93251381178754
  endloop
endfacet
facet normal 0.0 1.0 -0.0
  outer loop
    vertex 3293.9659825379254 12149.010637375843 191.93251381178754
    vertex 3294.30364899322 12149.010637375843 198.5687297280843
    vertex 3295.0438796527 12149.010637375843 191.93251381178754
  endloop
endfacet
facet normal 0.0 1.0 -0.0
  outer loop
    vertex 3295.0438796527 12149.010637375843 191.93251381178754
    vertex 3294.30364899322 12149.010637375843 198.5687297280843
    vertex 3294.745250927272 12149.010637375843 197.8933968174946
  endloop
endfacet
facet normal 0.0 1.0 -0.0
  outer loop
    vertex 3295.0438796527 12149.010637375843 191.93251381178754
    vertex 3294.745250927272 12149.010637375843 197.8933968174946
    vertex 3295.0438796527 12149.010637375843 196.68560512440644
  endloop
endfacet
facet normal 0.0 1.0 -0.0
  outer loop
    vertex 3291.979021536023 12149.010637375843 198.7765016050659
    vertex 3290.901124421248 12149.010637375843 191.93251381178754
    vertex 3290.901124421248 12149.010637375843 198.7765016050659
  endloop
endfacet
facet normal 0.0 1.0 -0.0
  outer loop
    vertex 3290.901124421248 12149.010637375843 191.93251381178754
    vertex 3291.979021536023 12149.010637375843 198.7765016050659
    vertex 3291.979021536023 12149.010637375843 191.93251381178754
  endloop
endfacet
facet normal 0.0 1.0 -0.0
  outer loop
    vertex 3291.979021536023 12149.010637375843 191.93251381178754
    vertex 3291.979021536023 12149.010637375843 198.7765016050659
    vertex 3291.979021536023 12149.010637375843 198.1011686944762
  endloop
endfacet
facet normal 0.0 1.0 -0.0
  outer loop
    vertex 3291.979021536023 12149.010637375843 191.93251381178754
    vertex 3291.979021536023 12149.010637375843 198.1011686944762
    vertex 3291.979021536023 12149.010637375843 196.6985846741845
  endloop
endfacet
facet normal 0.0 1.0 -0.0
  outer loop
    vertex 3302.110402322326 12149.010637375843 198.88043708382304
    vertex 3301.357192113068 12149.010637375843 197.2050843571268
    vertex 3301.305273913956 12149.010637375843 198.65958657653073
  endloop
endfacet
facet normal 0.0 1.0 -0.0
  outer loop
    vertex 3301.357192113068 12149.010637375843 197.2050843571268
    vertex 3302.110402322326 12149.010637375843 198.88043708382304
    vertex 3301.5390048904933 12149.010637375843 197.51679171286554
  endloop
endfacet
facet normal 0.0 1.0 -0.0
  outer loop
    vertex 3301.5390048904933 12149.010637375843 197.51679171286554
    vertex 3302.110402322326 12149.010637375843 198.88043708382304
    vertex 3301.759756317253 12149.010637375843 197.69860449029102
  endloop
endfacet
facet normal 0.0 1.0 -0.0
  outer loop
    vertex 3301.759756317253 12149.010637375843 197.69860449029102
    vertex 3302.110402322326 12149.010637375843 198.88043708382304
    vertex 3302.253276450417 12149.010637375843 197.84147861838235
  endloop
endfacet
facet normal 0.0 1.0 -0.0
  outer loop
    vertex 3302.253276450417 12149.010637375843 197.84147861838235
    vertex 3302.110402322326 12149.010637375843 198.88043708382304
    vertex 3303.4221294941713 12149.010637375843 198.88043708382304
  endloop
endfacet
facet normal 0.0 1.0 -0.0
  outer loop
    vertex 3302.253276450417 12149.010637375843 197.84147861838235
    vertex 3303.4221294941713 12149.010637375843 198.88043708382304
    vertex 3303.3311735651923 12149.010637375843 197.84147861838235
  endloop
endfacet
facet normal 0.0 1.0 -0.0
  outer loop
    vertex 3303.3311735651923 12149.010637375843 197.84147861838235
    vertex 3303.4221294941713 12149.010637375843 198.88043708382304
    vertex 3304.032465575338 12149.010637375843 197.62072719162268
  endloop
endfacet
facet normal 0.0 1.0 -0.0
  outer loop
    vertex 3304.032465575338 12149.010637375843 197.62072719162268
    vertex 3303.4221294941713 12149.010637375843 198.88043708382304
    vertex 3304.435029779523 12149.010637375843 198.59468882764045
  endloop
endfacet
facet normal 0.0 1.0 -0.0
  outer loop
    vertex 3304.032465575338 12149.010637375843 197.62072719162268
    vertex 3304.435029779523 12149.010637375843 198.59468882764045
    vertex 3304.733757585484 12149.010637375843 197.19210480734876
  endloop
endfacet
facet normal 0.0 1.0 -0.0
  outer loop
    vertex 3304.733757585484 12149.010637375843 197.19210480734876
    vertex 3304.435029779523 12149.010637375843 198.59468882764045
    vertex 3305.3181345670946 12149.010637375843 198.06223004514203
  endloop
endfacet
facet normal 0.0 1.0 -0.0
  outer loop
    vertex 3300.720896932345 12149.010637375843 198.20510417323334
    vertex 3300.292274548071 12149.010637375843 196.30900001977741
    vertex 3300.292274548071 12149.010637375843 197.46487351375333
  endloop
endfacet
facet normal 0.0 1.0 -0.0
  outer loop
    vertex 3300.292274548071 12149.010637375843 196.30900001977741
    vertex 3300.720896932345 12149.010637375843 198.20510417323334
    vertex 3300.8377128803477 12149.010637375843 195.55578981051931
  endloop
endfacet
facet normal 0.0 1.0 -0.0
  outer loop
    vertex 3300.8377128803477 12149.010637375843 195.55578981051931
    vertex 3300.720896932345 12149.010637375843 198.20510417323334
    vertex 3301.305273913956 12149.010637375843 198.65958657653073
  endloop
endfacet
facet normal 0.0 1.0 -0.0
  outer loop
    vertex 3300.8377128803477 12149.010637375843 195.55578981051931
    vertex 3301.305273913956 12149.010637375843 198.65958657653073
    vertex 3301.357192113068 12149.010637375843 196.63368692529423
  endloop
endfacet
facet normal 0.0 1.0 -0.0
  outer loop
    vertex 3300.8377128803477 12149.010637375843 195.55578981051931
    vertex 3301.357192113068 12149.010637375843 196.63368692529423
    vertex 3301.6688994688066 12149.010637375843 195.114286957
  endloop
endfacet
facet normal 0.0 1.0 -0.0
  outer loop
    vertex 3301.357192113068 12149.010637375843 196.63368692529423
    vertex 3301.305273913956 12149.010637375843 198.65958657653073
    vertex 3301.357192113068 12149.010637375843 197.2050843571268
  endloop
endfacet
facet normal 0.0 1.0 -0.0
  outer loop
    vertex 3301.6688994688066 12149.010637375843 195.114286957
    vertex 3301.357192113068 12149.010637375843 196.63368692529423
    vertex 3301.6169812696944 12149.010637375843 196.28304092022128
  endloop
endfacet
facet normal 0.0 1.0 -0.0
  outer loop
    vertex 3301.6688994688066 12149.010637375843 195.114286957
    vertex 3301.6169812696944 12149.010637375843 196.28304092022128
    vertex 3301.9806068245452 12149.010637375843 196.1012281427958
  endloop
endfacet
facet normal 0.0 1.0 -0.0
  outer loop
    vertex 3301.6688994688066 12149.010637375843 195.114286957
    vertex 3301.9806068245452 12149.010637375843 196.1012281427958
    vertex 3303.7987345988004 12149.010637375843 194.7376818523709
  endloop
endfacet
facet normal 0.0 1.0 -0.0
  outer loop
    vertex 3303.7987345988004 12149.010637375843 194.7376818523709
    vertex 3301.9806068245452 12149.010637375843 196.1012281427958
    vertex 3304.2272579025416 12149.010637375843 195.7116434883887
  endloop
endfacet
facet normal 0.0 1.0 -0.0
  outer loop
    vertex 3303.7987345988004 12149.010637375843 194.7376818523709
    vertex 3304.2272579025416 12149.010637375843 195.7116434883887
    vertex 3304.1883192532073 12149.010637375843 194.4649131459664
  endloop
endfacet
facet normal 0.0 1.0 -0.0
  outer loop
    vertex 3304.1883192532073 12149.010637375843 194.4649131459664
    vertex 3304.2272579025416 12149.010637375843 195.7116434883887
    vertex 3304.409070679967 12149.010637375843 194.0883080413373
  endloop
endfacet
facet normal 0.0 1.0 -0.0
  outer loop
    vertex 3304.409070679967 12149.010637375843 194.0883080413373
    vertex 3304.2272579025416 12149.010637375843 195.7116434883887
    vertex 3304.967488562022 12149.010637375843 195.21812335522444
  endloop
endfacet
facet normal 0.0 1.0 -0.0
  outer loop
    vertex 3304.409070679967 12149.010637375843 194.0883080413373
    vertex 3304.967488562022 12149.010637375843 195.21812335522444
    vertex 3304.409070679967 12149.010637375843 193.59478790817306
  endloop
endfacet
facet normal 0.0 1.0 -0.0
  outer loop
    vertex 3300.7987742310133 12149.010637375843 193.65978473759603
    vertex 3300.370250927272 12149.010637375843 192.59486717259924
    vertex 3300.045564021755 12149.010637375843 192.9325336278941
  endloop
endfacet
facet normal 0.0 1.0 -0.0
  outer loop
    vertex 3300.370250927272 12149.010637375843 192.59486717259924
    vertex 3300.7987742310133 12149.010637375843 193.65978473759603
    vertex 3301.0065461079953 12149.010637375843 192.11432658921305
  endloop
endfacet
facet normal 0.0 1.0 -0.0
  outer loop
    vertex 3301.0065461079953 12149.010637375843 192.11432658921305
    vertex 3300.7987742310133 12149.010637375843 193.65978473759603
    vertex 3301.0715429374177 12149.010637375843 193.36105693163537
  endloop
endfacet
facet normal 0.0 1.0 -0.0
  outer loop
    vertex 3301.0065461079953 12149.010637375843 192.11432658921305
    vertex 3301.0715429374177 12149.010637375843 193.36105693163537
    vertex 3302.058484123214 12149.010637375843 191.8285783330304
  endloop
endfacet
facet normal 0.0 1.0 -0.0
  outer loop
    vertex 3302.058484123214 12149.010637375843 191.8285783330304
    vertex 3301.0715429374177 12149.010637375843 193.36105693163537
    vertex 3301.435168492269 12149.010637375843 193.0882882252308
  endloop
endfacet
facet normal 0.0 1.0 -0.0
  outer loop
    vertex 3302.058484123214 12149.010637375843 191.8285783330304
    vertex 3301.435168492269 12149.010637375843 193.0882882252308
    vertex 3302.201358251305 12149.010637375843 192.8805163482492
  endloop
endfacet
facet normal 0.0 1.0 -0.0
  outer loop
    vertex 3302.058484123214 12149.010637375843 191.8285783330304
    vertex 3302.201358251305 12149.010637375843 192.8805163482492
    vertex 3303.461068143505 12149.010637375843 191.8285783330304
  endloop
endfacet
facet normal 0.0 1.0 -0.0
  outer loop
    vertex 3303.461068143505 12149.010637375843 191.8285783330304
    vertex 3302.201358251305 12149.010637375843 192.8805163482492
    vertex 3303.318194015414 12149.010637375843 192.8805163482492
  endloop
endfacet
facet normal 0.0 1.0 -0.0
  outer loop
    vertex 3303.461068143505 12149.010637375843 191.8285783330304
    vertex 3303.318194015414 12149.010637375843 192.8805163482492
    vertex 3303.863632347691 12149.010637375843 193.03637002611853
  endloop
endfacet
facet normal 0.0 1.0 -0.0
  outer loop
    vertex 3303.461068143505 12149.010637375843 191.8285783330304
    vertex 3303.863632347691 12149.010637375843 193.03637002611853
    vertex 3304.3441729310766 12149.010637375843 192.08836748965692
  endloop
endfacet
facet normal 0.0 1.0 -0.0
  outer loop
    vertex 3304.3441729310766 12149.010637375843 192.08836748965692
    vertex 3303.863632347691 12149.010637375843 193.03637002611853
    vertex 3304.1883192532073 12149.010637375843 193.2701010026563
  endloop
endfacet
facet normal 0.0 1.0 -0.0
  outer loop
    vertex 3304.3441729310766 12149.010637375843 192.08836748965692
    vertex 3304.1883192532073 12149.010637375843 193.2701010026563
    vertex 3304.409070679967 12149.010637375843 193.59478790817306
  endloop
endfacet
facet normal 0.0 1.0 -0.0
  outer loop
    vertex 3304.3441729310766 12149.010637375843 192.08836748965692
    vertex 3304.409070679967 12149.010637375843 193.59478790817306
    vertex 3304.967488562022 12149.010637375843 192.52987034317627
  endloop
endfacet
facet normal 0.0 1.0 -0.0
  outer loop
    vertex 3304.967488562022 12149.010637375843 192.52987034317627
    vertex 3304.409070679967 12149.010637375843 193.59478790817306
    vertex 3304.967488562022 12149.010637375843 195.21812335522444
  endloop
endfacet
facet normal 0.0 1.0 -0.0
  outer loop
    vertex 3304.967488562022 12149.010637375843 192.52987034317627
    vertex 3304.967488562022 12149.010637375843 195.21812335522444
    vertex 3305.473988244964 12149.010637375843 194.387035847298
  endloop
endfacet
facet normal 0.0 1.0 -0.0
  outer loop
    vertex 3304.967488562022 12149.010637375843 192.52987034317627
    vertex 3305.473988244964 12149.010637375843 194.387035847298
    vertex 3305.473988244964 12149.010637375843 193.28308055243437
  endloop
endfacet
endsolid thesis3
