solid thesis3
facet normal 1.4573061049722125e-15 -1.0 1.3243790925976016e-15
  outer loop
    vertex 3371.19916820938 11450.459358079695 1568.680173606684
    vertex 3371.4199196361396 11450.459358079695 1565.6153154900069
    vertex 3371.4199196361396 11450.459358079695 1567.4984400936848
  endloop
endfacet
facet normal 1.4573061049722125e-15 -1.0 1.3243790925976016e-15
  outer loop
    vertex 3371.4199196361396 11450.459358079695 1565.6153154900069
    vertex 3371.19916820938 11450.459358079695 1568.680173606684
    vertex 3371.19916820938 11450.459358079695 1564.4335819770076
  endloop
endfacet
facet normal 1.4573061049722125e-15 -1.0 1.3243790925976016e-15
  outer loop
    vertex 3371.19916820938 11450.459358079695 1564.4335819770076
    vertex 3371.19916820938 11450.459358079695 1568.680173606684
    vertex 3370.731607175772 11450.459358079695 1569.797108451326
  endloop
endfacet
facet normal 1.4573061049722125e-15 -1.0 1.3243790925976016e-15
  outer loop
    vertex 3371.19916820938 11450.459358079695 1564.4335819770076
    vertex 3370.731607175772 11450.459358079695 1569.797108451326
    vertex 3370.731607175772 11450.459358079695 1563.3167462128984
  endloop
endfacet
facet normal 1.4573061049722125e-15 -1.0 1.3243790925976016e-15
  outer loop
    vertex 3370.731607175772 11450.459358079695 1563.3167462128984
    vertex 3370.731607175772 11450.459358079695 1569.797108451326
    vertex 3370.342022521365 11450.459358079695 1567.420463714484
  endloop
endfacet
facet normal 1.4573061049722125e-15 -1.0 1.3243790925976016e-15
  outer loop
    vertex 3370.342022521365 11450.459358079695 1567.420463714484
    vertex 3370.731607175772 11450.459358079695 1569.797108451326
    vertex 3369.8225432886447 11450.459358079695 1570.7191518882314
  endloop
endfacet
facet normal 1.4573061049722125e-15 -1.0 1.3243790925976016e-15
  outer loop
    vertex 3370.342022521365 11450.459358079695 1567.420463714484
    vertex 3369.8225432886447 11450.459358079695 1570.7191518882314
    vertex 3370.1602097439395 11450.459358079695 1568.368565331478
  endloop
endfacet
facet normal 1.4573061049722125e-15 -1.0 1.3243790925976016e-15
  outer loop
    vertex 3370.1602097439395 11450.459358079695 1568.368565331478
    vertex 3369.8225432886447 11450.459358079695 1570.7191518882314
    vertex 3369.8485023882004 11450.459358079695 1569.1736937398482
  endloop
endfacet
facet normal 1.4573061049722125e-15 -1.0 1.3243790925976016e-15
  outer loop
    vertex 3369.8485023882004 11450.459358079695 1569.1736937398482
    vertex 3369.8225432886447 11450.459358079695 1570.7191518882314
    vertex 3369.1992276576993 11450.459358079695 1569.83604710066
  endloop
endfacet
facet normal 1.4573061049722125e-15 -1.0 1.3243790925976016e-15
  outer loop
    vertex 3369.1992276576993 11450.459358079695 1569.83604710066
    vertex 3369.8225432886447 11450.459358079695 1570.7191518882314
    vertex 3368.6407106951124 11450.459358079695 1571.277569770286
  endloop
endfacet
facet normal 1.4573061049722125e-15 -1.0 1.3243790925976016e-15
  outer loop
    vertex 3369.1992276576993 11450.459358079695 1569.83604710066
    vertex 3368.6407106951124 11450.459358079695 1571.277569770286
    vertex 3368.4199592683526 11450.459358079695 1570.212652205289
  endloop
endfacet
facet normal 1.4573061049722125e-15 -1.0 1.3243790925976016e-15
  outer loop
    vertex 3368.4199592683526 11450.459358079695 1570.212652205289
    vertex 3368.6407106951124 11450.459358079695 1571.277569770286
    vertex 3367.4070589830003 11450.459358079695 1571.277569770286
  endloop
endfacet
facet normal 1.4573061049722125e-15 -1.0 1.3243790925976016e-15
  outer loop
    vertex 3368.4199592683526 11450.459358079695 1570.212652205289
    vertex 3367.4070589830003 11450.459358079695 1571.277569770286
    vertex 3367.62781040976 11450.459358079695 1570.212652205289
  endloop
endfacet
facet normal 1.4573061049722125e-15 -1.0 1.3243790925976016e-15
  outer loop
    vertex 3367.62781040976 11450.459358079695 1570.212652205289
    vertex 3367.4070589830003 11450.459358079695 1571.277569770286
    vertex 3366.8485420204133 11450.459358079695 1569.83604710066
  endloop
endfacet
facet normal 1.4573061049722125e-15 -1.0 1.3243790925976016e-15
  outer loop
    vertex 3366.8485420204133 11450.459358079695 1569.83604710066
    vertex 3367.4070589830003 11450.459358079695 1571.277569770286
    vertex 3366.225226389469 11450.459358079695 1570.7191518882314
  endloop
endfacet
facet normal 1.4573061049722125e-15 -1.0 1.3243790925976016e-15
  outer loop
    vertex 3366.8485420204133 11450.459358079695 1569.83604710066
    vertex 3366.225226389469 11450.459358079695 1570.7191518882314
    vertex 3366.4849164655625 11450.459358079695 1569.472421545809
  endloop
endfacet
facet normal 1.4573061049722125e-15 -1.0 1.3243790925976016e-15
  outer loop
    vertex 3370.731607175772 11450.459358079695 1563.3167462128984
    vertex 3370.342022521365 11450.459358079695 1565.706271418986
    vertex 3369.8225432886447 11450.459358079695 1562.3947027759928
  endloop
endfacet
facet normal 1.4573061049722125e-15 -1.0 1.3243790925976016e-15
  outer loop
    vertex 3370.342022521365 11450.459358079695 1565.706271418986
    vertex 3370.731607175772 11450.459358079695 1563.3167462128984
    vertex 3370.342022521365 11450.459358079695 1567.420463714484
  endloop
endfacet
facet normal 1.4573061049722125e-15 -1.0 1.3243790925976016e-15
  outer loop
    vertex 3369.8225432886447 11450.459358079695 1562.3947027759928
    vertex 3370.342022521365 11450.459358079695 1565.706271418986
    vertex 3370.1472301941612 11450.459358079695 1564.7062516028793
  endloop
endfacet
facet normal 1.4573061049722125e-15 -1.0 1.3243790925976016e-15
  outer loop
    vertex 3369.8225432886447 11450.459358079695 1562.3947027759928
    vertex 3370.1472301941612 11450.459358079695 1564.7062516028793
    vertex 3370.06925381496 11450.459358079695 1564.524438825454
  endloop
endfacet
facet normal 1.4573061049722125e-15 -1.0 1.3243790925976016e-15
  outer loop
    vertex 3369.8225432886447 11450.459358079695 1562.3947027759928
    vertex 3370.06925381496 11450.459358079695 1564.524438825454
    vertex 3369.54977458224 11450.459358079695 1563.6544126681933
  endloop
endfacet
facet normal 1.4573061049722125e-15 -1.0 1.3243790925976016e-15
  outer loop
    vertex 3369.54977458224 11450.459358079695 1563.6544126681933
    vertex 3370.06925381496 11450.459358079695 1564.524438825454
    vertex 3366.4849164655625 11450.459358079695 1569.472421545809
  endloop
endfacet
facet normal 1.4573061049722125e-15 -1.0 1.3243790925976016e-15
  outer loop
    vertex 3369.54977458224 11450.459358079695 1563.6544126681933
    vertex 3366.4849164655625 11450.459358079695 1569.472421545809
    vertex 3365.978515863153 11450.459358079695 1568.5893167582378
  endloop
endfacet
facet normal 1.4573061049722125e-15 -1.0 1.3243790925976016e-15
  outer loop
    vertex 3365.978515863153 11450.459358079695 1568.5893167582378
    vertex 3366.4849164655625 11450.459358079695 1569.472421545809
    vertex 3366.225226389469 11450.459358079695 1570.7191518882314
  endloop
endfacet
facet normal 1.4573061049722125e-15 -1.0 1.3243790925976016e-15
  outer loop
    vertex 3365.978515863153 11450.459358079695 1568.5893167582378
    vertex 3366.225226389469 11450.459358079695 1570.7191518882314
    vertex 3365.3161625023413 11450.459358079695 1569.797108451326
  endloop
endfacet
facet normal 1.4573061049722125e-15 -1.0 1.3243790925976016e-15
  outer loop
    vertex 3365.978515863153 11450.459358079695 1568.5893167582378
    vertex 3365.3161625023413 11450.459358079695 1569.797108451326
    vertex 3365.887559934174 11450.459358079695 1568.368565331478
  endloop
endfacet
facet normal 1.4573061049722125e-15 -1.0 1.3243790925976016e-15
  outer loop
    vertex 3365.887559934174 11450.459358079695 1568.368565331478
    vertex 3365.3161625023413 11450.459358079695 1569.797108451326
    vertex 3365.705747156748 11450.459358079695 1567.420463714484
  endloop
endfacet
facet normal 1.4573061049722125e-15 -1.0 1.3243790925976016e-15
  outer loop
    vertex 3365.705747156748 11450.459358079695 1567.420463714484
    vertex 3365.3161625023413 11450.459358079695 1569.797108451326
    vertex 3365.705747156748 11450.459358079695 1565.706271418986
  endloop
endfacet
facet normal 1.4573061049722125e-15 -1.0 1.3243790925976016e-15
  outer loop
    vertex 3369.54977458224 11450.459358079695 1563.6544126681933
    vertex 3368.6407106951124 11450.459358079695 1561.8361858134058
    vertex 3369.8225432886447 11450.459358079695 1562.3947027759928
  endloop
endfacet
facet normal 1.4573061049722125e-15 -1.0 1.3243790925976016e-15
  outer loop
    vertex 3368.6407106951124 11450.459358079695 1561.8361858134058
    vertex 3369.54977458224 11450.459358079695 1563.6544126681933
    vertex 3369.1861490273886 11450.459358079695 1563.2647289332538
  endloop
endfacet
facet normal 1.4573061049722125e-15 -1.0 1.3243790925976016e-15
  outer loop
    vertex 3368.6407106951124 11450.459358079695 1561.8361858134058
    vertex 3369.1861490273886 11450.459358079695 1563.2647289332538
    vertex 3368.432938818131 11450.459358079695 1562.9011033784027
  endloop
endfacet
facet normal 1.4573061049722125e-15 -1.0 1.3243790925976016e-15
  outer loop
    vertex 3368.6407106951124 11450.459358079695 1561.8361858134058
    vertex 3368.432938818131 11450.459358079695 1562.9011033784027
    vertex 3367.4070589830003 11450.459358079695 1561.8361858134058
  endloop
endfacet
facet normal 1.4573061049722125e-15 -1.0 1.3243790925976016e-15
  outer loop
    vertex 3367.4070589830003 11450.459358079695 1561.8361858134058
    vertex 3368.432938818131 11450.459358079695 1562.9011033784027
    vertex 3367.6148308599827 11450.459358079695 1562.9011033784027
  endloop
endfacet
facet normal 1.4573061049722125e-15 -1.0 1.3243790925976016e-15
  outer loop
    vertex 3367.4070589830003 11450.459358079695 1561.8361858134058
    vertex 3367.6148308599827 11450.459358079695 1562.9011033784027
    vertex 3366.8616206507245 11450.459358079695 1563.2647289332538
  endloop
endfacet
facet normal 1.4573061049722125e-15 -1.0 1.3243790925976016e-15
  outer loop
    vertex 3367.4070589830003 11450.459358079695 1561.8361858134058
    vertex 3366.8616206507245 11450.459358079695 1563.2647289332538
    vertex 3366.225226389469 11450.459358079695 1562.3947027759928
  endloop
endfacet
facet normal 1.4573061049722125e-15 -1.0 1.3243790925976016e-15
  outer loop
    vertex 3366.225226389469 11450.459358079695 1562.3947027759928
    vertex 3366.8616206507245 11450.459358079695 1563.2647289332538
    vertex 3366.2122468396906 11450.459358079695 1563.9530413936213
  endloop
endfacet
facet normal 1.4573061049722125e-15 -1.0 1.3243790925976016e-15
  outer loop
    vertex 3366.225226389469 11450.459358079695 1562.3947027759928
    vertex 3366.2122468396906 11450.459358079695 1563.9530413936213
    vertex 3365.3161625023413 11450.459358079695 1563.3167462128984
  endloop
endfacet
facet normal 1.4573061049722125e-15 -1.0 1.3243790925976016e-15
  outer loop
    vertex 3365.3161625023413 11450.459358079695 1563.3167462128984
    vertex 3366.2122468396906 11450.459358079695 1563.9530413936213
    vertex 3365.9005394839523 11450.459358079695 1564.7062516028793
  endloop
endfacet
facet normal 1.4573061049722125e-15 -1.0 1.3243790925976016e-15
  outer loop
    vertex 3365.3161625023413 11450.459358079695 1563.3167462128984
    vertex 3365.9005394839523 11450.459358079695 1564.7062516028793
    vertex 3365.705747156748 11450.459358079695 1565.706271418986
  endloop
endfacet
facet normal 1.4573061049722125e-15 -1.0 1.3243790925976016e-15
  outer loop
    vertex 3365.3161625023413 11450.459358079695 1563.3167462128984
    vertex 3365.705747156748 11450.459358079695 1565.706271418986
    vertex 3365.3161625023413 11450.459358079695 1569.797108451326
  endloop
endfacet
facet normal 1.4573061049722125e-15 -1.0 1.3243790925976016e-15
  outer loop
    vertex 3365.3161625023413 11450.459358079695 1563.3167462128984
    vertex 3365.3161625023413 11450.459358079695 1569.797108451326
    vertex 3364.8486014687332 11450.459358079695 1568.680173606684
  endloop
endfacet
facet normal 1.4573061049722125e-15 -1.0 1.3243790925976016e-15
  outer loop
    vertex 3365.3161625023413 11450.459358079695 1563.3167462128984
    vertex 3364.8486014687332 11450.459358079695 1568.680173606684
    vertex 3364.8486014687332 11450.459358079695 1564.4335819770076
  endloop
endfacet
facet normal 1.4573061049722125e-15 -1.0 1.3243790925976016e-15
  outer loop
    vertex 3364.8486014687332 11450.459358079695 1564.4335819770076
    vertex 3364.8486014687332 11450.459358079695 1568.680173606684
    vertex 3364.6278500419735 11450.459358079695 1567.4984400936848
  endloop
endfacet
facet normal 1.4573061049722125e-15 -1.0 1.3243790925976016e-15
  outer loop
    vertex 3364.8486014687332 11450.459358079695 1564.4335819770076
    vertex 3364.6278500419735 11450.459358079695 1567.4984400936848
    vertex 3364.6278500419735 11450.459358079695 1565.6153154900069
  endloop
endfacet
facet normal 1.4573061049722125e-15 -1.0 1.3243790925976016e-15
  outer loop
    vertex 3359.2236014687332 11450.459358079695 1571.1736342915287
    vertex 3361.9248340305594 11450.459358079695 1568.6022963080159
    vertex 3362.4053746139457 11450.459358079695 1569.5632783942556
  endloop
endfacet
facet normal 1.4573061049722125e-15 -1.0 1.3243790925976016e-15
  outer loop
    vertex 3361.9248340305594 11450.459358079695 1568.6022963080159
    vertex 3359.2236014687332 11450.459358079695 1571.1736342915287
    vertex 3359.717121601898 11450.459358079695 1569.745091171681
  endloop
endfacet
facet normal 1.4573061049722125e-15 -1.0 1.3243790925976016e-15
  outer loop
    vertex 3359.717121601898 11450.459358079695 1569.745091171681
    vertex 3359.2236014687332 11450.459358079695 1571.1736342915287
    vertex 3359.717121601898 11450.459358079695 1563.0050388571597
  endloop
endfacet
facet normal 1.4573061049722125e-15 -1.0 1.3243790925976016e-15
  outer loop
    vertex 3359.717121601898 11450.459358079695 1563.0050388571597
    vertex 3362.132605907541 11450.459358079695 1561.940121292163
    vertex 3362.132605907541 11450.459358079695 1563.0050388571597
  endloop
endfacet
facet normal 1.4573061049722125e-15 -1.0 1.3243790925976016e-15
  outer loop
    vertex 3362.132605907541 11450.459358079695 1561.940121292163
    vertex 3359.717121601898 11450.459358079695 1563.0050388571597
    vertex 3356.418532508683 11450.459358079695 1561.940121292163
  endloop
endfacet
facet normal 1.4573061049722125e-15 -1.0 1.3243790925976016e-15
  outer loop
    vertex 3356.418532508683 11450.459358079695 1561.940121292163
    vertex 3359.717121601898 11450.459358079695 1563.0050388571597
    vertex 3358.639224487122 11450.459358079695 1563.0050388571597
  endloop
endfacet
facet normal 1.4573061049722125e-15 -1.0 1.3243790925976016e-15
  outer loop
    vertex 3358.639224487122 11450.459358079695 1563.0050388571597
    vertex 3359.717121601898 11450.459358079695 1563.0050388571597
    vertex 3359.2236014687332 11450.459358079695 1571.1736342915287
  endloop
endfacet
facet normal 1.4573061049722125e-15 -1.0 1.3243790925976016e-15
  outer loop
    vertex 3358.639224487122 11450.459358079695 1563.0050388571597
    vertex 3359.2236014687332 11450.459358079695 1571.1736342915287
    vertex 3358.639224487122 11450.459358079695 1571.1736342915287
  endloop
endfacet
facet normal 1.4573061049722125e-15 -1.0 1.3243790925976016e-15
  outer loop
    vertex 3356.418532508683 11450.459358079695 1561.940121292163
    vertex 3358.639224487122 11450.459358079695 1563.0050388571597
    vertex 3356.418532508683 11450.459358079695 1563.0050388571597
  endloop
endfacet
facet normal 1.4573061049722125e-15 -1.0 1.3243790925976016e-15
  outer loop
    vertex 3350.546722901834 11450.459358079695 1563.6933513175277
    vertex 3352.248034728086 11450.459358079695 1561.940121292163
    vertex 3352.248034728086 11450.459358079695 1563.6933513175277
  endloop
endfacet
facet normal 1.4573061049722125e-15 -1.0 1.3243790925976016e-15
  outer loop
    vertex 3352.248034728086 11450.459358079695 1561.940121292163
    vertex 3350.546722901834 11450.459358079695 1563.6933513175277
    vertex 3350.546722901834 11450.459358079695 1561.940121292163
  endloop
endfacet
facet normal 1.4573061049722125e-15 -1.0 1.3243790925976016e-15
  outer loop
    vertex 3345.272368906907 11450.459358079695 1570.6671346085866
    vertex 3345.0775765797034 11450.459358079695 1569.3035883181615
    vertex 3345.84376633874 11450.459358079695 1570.0697780771977
  endloop
endfacet
facet normal 1.4573061049722125e-15 -1.0 1.3243790925976016e-15
  outer loop
    vertex 3345.0775765797034 11450.459358079695 1569.3035883181615
    vertex 3345.272368906907 11450.459358079695 1570.6671346085866
    vertex 3343.9088226164818 11450.459358079695 1571.277569770286
  endloop
endfacet
facet normal 1.4573061049722125e-15 -1.0 1.3243790925976016e-15
  outer loop
    vertex 3345.0775765797034 11450.459358079695 1569.3035883181615
    vertex 3343.9088226164818 11450.459358079695 1571.277569770286
    vertex 3344.623094176406 11450.459358079695 1569.771050271237
  endloop
endfacet
facet normal 1.4573061049722125e-15 -1.0 1.3243790925976016e-15
  outer loop
    vertex 3344.623094176406 11450.459358079695 1569.771050271237
    vertex 3343.9088226164818 11450.459358079695 1571.277569770286
    vertex 3343.700951658968 11450.459358079695 1570.212652205289
  endloop
endfacet
facet normal 1.4573061049722125e-15 -1.0 1.3243790925976016e-15
  outer loop
    vertex 3343.700951658968 11450.459358079695 1570.212652205289
    vertex 3343.9088226164818 11450.459358079695 1571.277569770286
    vertex 3342.5062385961905 11450.459358079695 1571.277569770286
  endloop
endfacet
facet normal 1.4573061049722125e-15 -1.0 1.3243790925976016e-15
  outer loop
    vertex 3343.700951658968 11450.459358079695 1570.212652205289
    vertex 3342.5062385961905 11450.459358079695 1571.277569770286
    vertex 3342.7659286722837 11450.459358079695 1570.212652205289
  endloop
endfacet
facet normal 1.4573061049722125e-15 -1.0 1.3243790925976016e-15
  outer loop
    vertex 3342.7659286722837 11450.459358079695 1570.212652205289
    vertex 3342.5062385961905 11450.459358079695 1571.277569770286
    vertex 3341.8958034344905 11450.459358079695 1569.797108451326
  endloop
endfacet
facet normal 1.4573061049722125e-15 -1.0 1.3243790925976016e-15
  outer loop
    vertex 3341.8958034344905 11450.459358079695 1569.797108451326
    vertex 3342.5062385961905 11450.459358079695 1571.277569770286
    vertex 3341.155572775011 11450.459358079695 1570.6152164094742
  endloop
endfacet
facet normal 1.4573061049722125e-15 -1.0 1.3243790925976016e-15
  outer loop
    vertex 3341.8958034344905 11450.459358079695 1569.797108451326
    vertex 3341.155572775011 11450.459358079695 1570.6152164094742
    vertex 3341.376423282303 11450.459358079695 1568.9529423130887
  endloop
endfacet
facet normal 1.4573061049722125e-15 -1.0 1.3243790925976016e-15
  outer loop
    vertex 3341.376423282303 11450.459358079695 1568.9529423130887
    vertex 3341.155572775011 11450.459358079695 1570.6152164094742
    vertex 3341.376423282303 11450.459358079695 1568.2386707531648
  endloop
endfacet
facet normal 1.4573061049722125e-15 -1.0 1.3243790925976016e-15
  outer loop
    vertex 3341.7789874864884 11450.459358079695 1567.4334432642618
    vertex 3345.817807239183 11450.459358079695 1561.940121292163
    vertex 3345.817807239183 11450.459358079695 1562.9011033784027
  endloop
endfacet
facet normal 1.4573061049722125e-15 -1.0 1.3243790925976016e-15
  outer loop
    vertex 3345.817807239183 11450.459358079695 1561.940121292163
    vertex 3341.7789874864884 11450.459358079695 1567.4334432642618
    vertex 3344.3503254700013 11450.459358079695 1563.0050388571597
  endloop
endfacet
facet normal 1.4573061049722125e-15 -1.0 1.3243790925976016e-15
  outer loop
    vertex 3344.3503254700013 11450.459358079695 1563.0050388571597
    vertex 3341.7789874864884 11450.459358079695 1567.4334432642618
    vertex 3340.869923599361 11450.459358079695 1566.8490662826512
  endloop
endfacet
facet normal 1.4573061049722125e-15 -1.0 1.3243790925976016e-15
  outer loop
    vertex 3340.869923599361 11450.459358079695 1566.8490662826512
    vertex 3341.7789874864884 11450.459358079695 1567.4334432642618
    vertex 3341.376423282303 11450.459358079695 1568.2386707531648
  endloop
endfacet
facet normal 1.4573061049722125e-15 -1.0 1.3243790925976016e-15
  outer loop
    vertex 3340.869923599361 11450.459358079695 1566.8490662826512
    vertex 3341.376423282303 11450.459358079695 1568.2386707531648
    vertex 3341.155572775011 11450.459358079695 1570.6152164094742
  endloop
endfacet
facet normal 1.4573061049722125e-15 -1.0 1.3243790925976016e-15
  outer loop
    vertex 3340.869923599361 11450.459358079695 1566.8490662826512
    vertex 3341.155572775011 11450.459358079695 1570.6152164094742
    vertex 3340.2985261675285 11450.459358079695 1569.2646496688276
  endloop
endfacet
facet normal 1.4573061049722125e-15 -1.0 1.3243790925976016e-15
  outer loop
    vertex 3340.869923599361 11450.459358079695 1566.8490662826512
    vertex 3340.2985261675285 11450.459358079695 1569.2646496688276
    vertex 3340.2985261675285 11450.459358079695 1568.017919326405
  endloop
endfacet
facet normal 1.4573061049722125e-15 -1.0 1.3243790925976016e-15
  outer loop
    vertex 3344.3503254700013 11450.459358079695 1563.0050388571597
    vertex 3340.194590688771 11450.459358079695 1561.940121292163
    vertex 3345.817807239183 11450.459358079695 1561.940121292163
  endloop
endfacet
facet normal 1.4573061049722125e-15 -1.0 1.3243790925976016e-15
  outer loop
    vertex 3340.194590688771 11450.459358079695 1561.940121292163
    vertex 3344.3503254700013 11450.459358079695 1563.0050388571597
    vertex 3340.194590688771 11450.459358079695 1563.0050388571597
  endloop
endfacet
facet normal 1.4573061049722125e-15 -1.0 1.3243790925976016e-15
  outer loop
    vertex 3364.7058264211746 11450.459358079695 1552.9872043612816
    vertex 3365.7837235359493 11450.459358079695 1545.3770268089668
    vertex 3365.7837235359493 11450.459358079695 1552.9872043612816
  endloop
endfacet
facet normal 1.4573061049722125e-15 -1.0 1.3243790925976016e-15
  outer loop
    vertex 3370.1991483932734 11450.459358079695 1552.9872043612816
    vertex 3371.3289637071607 11450.459358079695 1543.7536913619156
    vertex 3371.3289637071607 11450.459358079695 1552.9872043612816
  endloop
endfacet
facet normal 1.4573061049722125e-15 -1.0 1.3243790925976016e-15
  outer loop
    vertex 3371.3289637071607 11450.459358079695 1543.7536913619156
    vertex 3370.1991483932734 11450.459358079695 1552.9872043612816
    vertex 3370.251066592386 11450.459358079695 1551.0521615584912
  endloop
endfacet
facet normal 1.4573061049722125e-15 -1.0 1.3243790925976016e-15
  outer loop
    vertex 3370.251066592386 11450.459358079695 1551.0521615584912
    vertex 3370.1991483932734 11450.459358079695 1552.9872043612816
    vertex 3365.991495412931 11450.459358079695 1543.7536913619156
  endloop
endfacet
facet normal 1.4573061049722125e-15 -1.0 1.3243790925976016e-15
  outer loop
    vertex 3365.991495412931 11450.459358079695 1543.7536913619156
    vertex 3370.1991483932734 11450.459358079695 1552.9872043612816
    vertex 3365.7837235359493 11450.459358079695 1545.3770268089668
  endloop
endfacet
facet normal 1.4573061049722125e-15 -1.0 1.3243790925976016e-15
  outer loop
    vertex 3365.991495412931 11450.459358079695 1543.7536913619156
    vertex 3365.7837235359493 11450.459358079695 1545.3770268089668
    vertex 3364.7058264211746 11450.459358079695 1543.7536913619156
  endloop
endfacet
facet normal 1.4573061049722125e-15 -1.0 1.3243790925976016e-15
  outer loop
    vertex 3364.7058264211746 11450.459358079695 1543.7536913619156
    vertex 3365.7837235359493 11450.459358079695 1545.3770268089668
    vertex 3364.7058264211746 11450.459358079695 1552.9872043612816
  endloop
endfacet
facet normal 1.4573061049722125e-15 -1.0 1.3243790925976016e-15
  outer loop
    vertex 3370.251066592386 11450.459358079695 1543.7536913619156
    vertex 3371.3289637071607 11450.459358079695 1543.7536913619156
    vertex 3370.251066592386 11450.459358079695 1551.0521615584912
  endloop
endfacet
facet normal 1.4573061049722125e-15 -1.0 1.3243790925976016e-15
  outer loop
    vertex 3362.483251912614 11450.459358079695 1548.8833877791635
    vertex 3362.7560206190187 11450.459358079695 1546.3900261748515
    vertex 3362.7560206190187 11450.459358079695 1547.9353852427018
  endloop
endfacet
facet normal 1.4573061049722125e-15 -1.0 1.3243790925976016e-15
  outer loop
    vertex 3362.7560206190187 11450.459358079695 1546.3900261748515
    vertex 3362.483251912614 11450.459358079695 1548.8833877791635
    vertex 3362.483251912614 11450.459358079695 1545.4679827379462
  endloop
endfacet
facet normal 1.4573061049722125e-15 -1.0 1.3243790925976016e-15
  outer loop
    vertex 3362.483251912614 11450.459358079695 1545.4679827379462
    vertex 3362.483251912614 11450.459358079695 1548.8833877791635
    vertex 3361.600147125043 11450.459358079695 1550.0781999224735
  endloop
endfacet
facet normal 1.4573061049722125e-15 -1.0 1.3243790925976016e-15
  outer loop
    vertex 3362.483251912614 11450.459358079695 1545.4679827379462
    vertex 3361.600147125043 11450.459358079695 1550.0781999224735
    vertex 3361.678123504244 11450.459358079695 1547.8315488444775
  endloop
endfacet
facet normal 1.4573061049722125e-15 -1.0 1.3243790925976016e-15
  outer loop
    vertex 3361.678123504244 11450.459358079695 1547.8315488444775
    vertex 3361.600147125043 11450.459358079695 1550.0781999224735
    vertex 3361.522269826374 11450.459358079695 1548.40294627631
  endloop
endfacet
facet normal 1.4573061049722125e-15 -1.0 1.3243790925976016e-15
  outer loop
    vertex 3361.522269826374 11450.459358079695 1548.40294627631
    vertex 3361.600147125043 11450.459358079695 1550.0781999224735
    vertex 3360.301498583508 11450.459358079695 1550.7016146339513
  endloop
endfacet
facet normal 1.4573061049722125e-15 -1.0 1.3243790925976016e-15
  outer loop
    vertex 3361.522269826374 11450.459358079695 1548.40294627631
    vertex 3360.301498583508 11450.459358079695 1550.7016146339513
    vertex 3360.9119337452075 11450.459358079695 1549.2340337842363
  endloop
endfacet
facet normal 1.4573061049722125e-15 -1.0 1.3243790925976016e-15
  outer loop
    vertex 3360.9119337452075 11450.459358079695 1549.2340337842363
    vertex 3360.301498583508 11450.459358079695 1550.7016146339513
    vertex 3360.132665355861 11450.459358079695 1549.6366970689542
  endloop
endfacet
facet normal 1.4573061049722125e-15 -1.0 1.3243790925976016e-15
  outer loop
    vertex 3360.132665355861 11450.459358079695 1549.6366970689542
    vertex 3360.301498583508 11450.459358079695 1550.7016146339513
    vertex 3358.885935013438 11450.459358079695 1550.7016146339513
  endloop
endfacet
facet normal 1.4573061049722125e-15 -1.0 1.3243790925976016e-15
  outer loop
    vertex 3360.132665355861 11450.459358079695 1549.6366970689542
    vertex 3358.885935013438 11450.459358079695 1550.7016146339513
    vertex 3359.0677477908635 11450.459358079695 1549.6366970689542
  endloop
endfacet
facet normal 1.4573061049722125e-15 -1.0 1.3243790925976016e-15
  outer loop
    vertex 3359.0677477908635 11450.459358079695 1549.6366970689542
    vertex 3358.885935013438 11450.459358079695 1550.7016146339513
    vertex 3358.2755989322714 11450.459358079695 1549.2210542344583
  endloop
endfacet
facet normal 1.4573061049722125e-15 -1.0 1.3243790925976016e-15
  outer loop
    vertex 3358.2755989322714 11450.459358079695 1549.2210542344583
    vertex 3358.885935013438 11450.459358079695 1550.7016146339513
    vertex 3357.5743069221257 11450.459358079695 1550.0781999224735
  endloop
endfacet
facet normal 1.4573061049722125e-15 -1.0 1.3243790925976016e-15
  outer loop
    vertex 3358.2755989322714 11450.459358079695 1549.2210542344583
    vertex 3357.5743069221257 11450.459358079695 1550.0781999224735
    vertex 3357.652283301327 11450.459358079695 1548.3769871767538
  endloop
endfacet
facet normal 1.4573061049722125e-15 -1.0 1.3243790925976016e-15
  outer loop
    vertex 3357.652283301327 11450.459358079695 1548.3769871767538
    vertex 3357.5743069221257 11450.459358079695 1550.0781999224735
    vertex 3357.4834500736793 11450.459358079695 1547.8834670435895
  endloop
endfacet
facet normal 1.4573061049722125e-15 -1.0 1.3243790925976016e-15
  outer loop
    vertex 3357.4834500736793 11450.459358079695 1547.8834670435895
    vertex 3357.5743069221257 11450.459358079695 1550.0781999224735
    vertex 3356.704181684332 11450.459358079695 1548.8833877791635
  endloop
endfacet
facet normal 1.4573061049722125e-15 -1.0 1.3243790925976016e-15
  outer loop
    vertex 3357.4834500736793 11450.459358079695 1547.8834670435895
    vertex 3356.704181684332 11450.459358079695 1548.8833877791635
    vertex 3357.4834500736793 11450.459358079695 1547.7146338159423
  endloop
endfacet
facet normal 1.4573061049722125e-15 -1.0 1.3243790925976016e-15
  outer loop
    vertex 3357.4834500736793 11450.459358079695 1547.7146338159423
    vertex 3361.678123504244 11450.459358079695 1546.6497162509454
    vertex 3361.678123504244 11450.459358079695 1547.7146338159423
  endloop
endfacet
facet normal 1.4573061049722125e-15 -1.0 1.3243790925976016e-15
  outer loop
    vertex 3361.678123504244 11450.459358079695 1546.6497162509454
    vertex 3357.4834500736793 11450.459358079695 1547.7146338159423
    vertex 3356.4055529589045 11450.459358079695 1546.6497162509454
  endloop
endfacet
facet normal 1.4573061049722125e-15 -1.0 1.3243790925976016e-15
  outer loop
    vertex 3356.4055529589045 11450.459358079695 1546.6497162509454
    vertex 3357.4834500736793 11450.459358079695 1547.7146338159423
    vertex 3356.704181684332 11450.459358079695 1548.8833877791635
  endloop
endfacet
facet normal 1.4573061049722125e-15 -1.0 1.3243790925976016e-15
  outer loop
    vertex 3356.4055529589045 11450.459358079695 1546.6497162509454
    vertex 3356.704181684332 11450.459358079695 1548.8833877791635
    vertex 3356.4055529589045 11450.459358079695 1548.0133616219027
  endloop
endfacet
facet normal 1.4573061049722125e-15 -1.0 1.3243790925976016e-15
  outer loop
    vertex 3362.483251912614 11450.459358079695 1545.4679827379462
    vertex 3361.678123504244 11450.459358079695 1546.5198216726321
    vertex 3361.600147125043 11450.459358079695 1544.2731705946358
  endloop
endfacet
facet normal 1.4573061049722125e-15 -1.0 1.3243790925976016e-15
  outer loop
    vertex 3361.678123504244 11450.459358079695 1546.5198216726321
    vertex 3362.483251912614 11450.459358079695 1545.4679827379462
    vertex 3361.678123504244 11450.459358079695 1547.8315488444775
  endloop
endfacet
facet normal 1.4573061049722125e-15 -1.0 1.3243790925976016e-15
  outer loop
    vertex 3361.678123504244 11450.459358079695 1546.5198216726321
    vertex 3361.678123504244 11450.459358079695 1547.8315488444775
    vertex 3361.678123504244 11450.459358079695 1547.7146338159423
  endloop
endfacet
facet normal 1.4573061049722125e-15 -1.0 1.3243790925976016e-15
  outer loop
    vertex 3361.678123504244 11450.459358079695 1546.5198216726321
    vertex 3361.678123504244 11450.459358079695 1547.7146338159423
    vertex 3361.678123504244 11450.459358079695 1546.6497162509454
  endloop
endfacet
facet normal 1.4573061049722125e-15 -1.0 1.3243790925976016e-15
  outer loop
    vertex 3361.600147125043 11450.459358079695 1544.2731705946358
    vertex 3361.678123504244 11450.459358079695 1546.5198216726321
    vertex 3361.509290276596 11450.459358079695 1545.9484242407996
  endloop
endfacet
facet normal 1.4573061049722125e-15 -1.0 1.3243790925976016e-15
  outer loop
    vertex 3361.600147125043 11450.459358079695 1544.2731705946358
    vertex 3361.509290276596 11450.459358079695 1545.9484242407996
    vertex 3360.28851903373 11450.459358079695 1543.6497558831584
  endloop
endfacet
facet normal 1.4573061049722125e-15 -1.0 1.3243790925976016e-15
  outer loop
    vertex 3360.28851903373 11450.459358079695 1543.6497558831584
    vertex 3361.509290276596 11450.459358079695 1545.9484242407996
    vertex 3360.8859746456515 11450.459358079695 1545.1042581025624
  endloop
endfacet
facet normal 1.4573061049722125e-15 -1.0 1.3243790925976016e-15
  outer loop
    vertex 3360.28851903373 11450.459358079695 1543.6497558831584
    vertex 3360.8859746456515 11450.459358079695 1545.1042581025624
    vertex 3360.0937267065265 11450.459358079695 1544.714673448155
  endloop
endfacet
facet normal 1.4573061049722125e-15 -1.0 1.3243790925976016e-15
  outer loop
    vertex 3360.28851903373 11450.459358079695 1543.6497558831584
    vertex 3360.0937267065265 11450.459358079695 1544.714673448155
    vertex 3358.9509318428613 11450.459358079695 1543.6497558831584
  endloop
endfacet
facet normal 1.4573061049722125e-15 -1.0 1.3243790925976016e-15
  outer loop
    vertex 3358.9509318428613 11450.459358079695 1543.6497558831584
    vertex 3360.0937267065265 11450.459358079695 1544.714673448155
    vertex 3359.041788691308 11450.459358079695 1544.714673448155
  endloop
endfacet
facet normal 1.4573061049722125e-15 -1.0 1.3243790925976016e-15
  outer loop
    vertex 3358.9509318428613 11450.459358079695 1543.6497558831584
    vertex 3359.041788691308 11450.459358079695 1544.714673448155
    vertex 3358.1716634535146 11450.459358079695 1544.9355239554475
  endloop
endfacet
facet normal 1.4573061049722125e-15 -1.0 1.3243790925976016e-15
  outer loop
    vertex 3358.9509318428613 11450.459358079695 1543.6497558831584
    vertex 3358.1716634535146 11450.459358079695 1544.9355239554475
    vertex 3357.769099249329 11450.459358079695 1543.9484836891193
  endloop
endfacet
facet normal 1.4573061049722125e-15 -1.0 1.3243790925976016e-15
  outer loop
    vertex 3357.769099249329 11450.459358079695 1543.9484836891193
    vertex 3358.1716634535146 11450.459358079695 1544.9355239554475
    vertex 3357.4964296234575 11450.459358079695 1545.364047259189
  endloop
endfacet
facet normal 1.4573061049722125e-15 -1.0 1.3243790925976016e-15
  outer loop
    vertex 3357.769099249329 11450.459358079695 1543.9484836891193
    vertex 3357.4964296234575 11450.459358079695 1545.364047259189
    vertex 3356.9250321916247 11450.459358079695 1544.5069015711736
  endloop
endfacet
facet normal 1.4573061049722125e-15 -1.0 1.3243790925976016e-15
  outer loop
    vertex 3353.92328837425 11450.459358079695 1550.597679155194
    vertex 3353.8193528954926 11450.459358079695 1543.7536913619156
    vertex 3355.027144588581 11450.459358079695 1550.597679155194
  endloop
endfacet
facet normal 1.4573061049722125e-15 -1.0 1.3243790925976016e-15
  outer loop
    vertex 3353.8193528954926 11450.459358079695 1543.7536913619156
    vertex 3353.92328837425 11450.459358079695 1550.597679155194
    vertex 3353.1570986152137 11450.459358079695 1545.7536319135959
  endloop
endfacet
facet normal 1.4573061049722125e-15 -1.0 1.3243790925976016e-15
  outer loop
    vertex 3353.8193528954926 11450.459358079695 1543.7536913619156
    vertex 3353.1570986152137 11450.459358079695 1545.7536319135959
    vertex 3352.806452610141 11450.459358079695 1543.7536913619156
  endloop
endfacet
facet normal 1.4573061049722125e-15 -1.0 1.3243790925976016e-15
  outer loop
    vertex 3352.806452610141 11450.459358079695 1543.7536913619156
    vertex 3353.1570986152137 11450.459358079695 1545.7536319135959
    vertex 3351.8844091732353 11450.459358079695 1550.0781999224735
  endloop
endfacet
facet normal 1.4573061049722125e-15 -1.0 1.3243790925976016e-15
  outer loop
    vertex 3352.806452610141 11450.459358079695 1543.7536913619156
    vertex 3351.8844091732353 11450.459358079695 1550.0781999224735
    vertex 3351.390889040071 11450.459358079695 1548.2730516979968
  endloop
endfacet
facet normal 1.4573061049722125e-15 -1.0 1.3243790925976016e-15
  outer loop
    vertex 3351.390889040071 11450.459358079695 1548.2730516979968
    vertex 3351.8844091732353 11450.459358079695 1550.0781999224735
    vertex 3350.897368906907 11450.459358079695 1550.0781999224735
  endloop
endfacet
facet normal 1.4573061049722125e-15 -1.0 1.3243790925976016e-15
  outer loop
    vertex 3351.390889040071 11450.459358079695 1548.2730516979968
    vertex 3350.897368906907 11450.459358079695 1550.0781999224735
    vertex 3349.9753254700013 11450.459358079695 1543.7536913619156
  endloop
endfacet
facet normal 1.4573061049722125e-15 -1.0 1.3243790925976016e-15
  outer loop
    vertex 3349.9753254700013 11450.459358079695 1543.7536913619156
    vertex 3350.897368906907 11450.459358079695 1550.0781999224735
    vertex 3349.6246794649282 11450.459358079695 1545.7536319135959
  endloop
endfacet
facet normal 1.4573061049722125e-15 -1.0 1.3243790925976016e-15
  outer loop
    vertex 3349.9753254700013 11450.459358079695 1543.7536913619156
    vertex 3349.6246794649282 11450.459358079695 1545.7536319135959
    vertex 3348.9623261041165 11450.459358079695 1543.7536913619156
  endloop
endfacet
facet normal 1.4573061049722125e-15 -1.0 1.3243790925976016e-15
  outer loop
    vertex 3348.9623261041165 11450.459358079695 1543.7536913619156
    vertex 3349.6246794649282 11450.459358079695 1545.7536319135959
    vertex 3348.858489705892 11450.459358079695 1550.597679155194
  endloop
endfacet
facet normal 1.4573061049722125e-15 -1.0 1.3243790925976016e-15
  outer loop
    vertex 3348.9623261041165 11450.459358079695 1543.7536913619156
    vertex 3348.858489705892 11450.459358079695 1550.597679155194
    vertex 3347.7546334915614 11450.459358079695 1550.597679155194
  endloop
endfacet
facet normal 1.4573061049722125e-15 -1.0 1.3243790925976016e-15
  outer loop
    vertex 3334.764383015975 11450.459358079695 1548.052300271237
    vertex 3336.998054544193 11450.459358079695 1550.597679155194
    vertex 3337.011034093971 11450.459358079695 1552.9872043612816
  endloop
endfacet
facet normal 1.4573061049722125e-15 -1.0 1.3243790925976016e-15
  outer loop
    vertex 3336.998054544193 11450.459358079695 1550.597679155194
    vertex 3334.764383015975 11450.459358079695 1548.052300271237
    vertex 3335.3098213482517 11450.459358079695 1546.8185494785928
  endloop
endfacet
facet normal 1.4573061049722125e-15 -1.0 1.3243790925976016e-15
  outer loop
    vertex 3335.3098213482517 11450.459358079695 1546.8185494785928
    vertex 3334.764383015975 11450.459358079695 1548.052300271237
    vertex 3334.2189446836987 11450.459358079695 1546.8185494785928
  endloop
endfacet
facet normal 1.4573061049722125e-15 -1.0 1.3243790925976016e-15
  outer loop
    vertex 3334.2189446836987 11450.459358079695 1546.8185494785928
    vertex 3334.764383015975 11450.459358079695 1548.052300271237
    vertex 3332.5177319379786 11450.459358079695 1552.9872043612816
  endloop
endfacet
facet normal 1.4573061049722125e-15 -1.0 1.3243790925976016e-15
  outer loop
    vertex 3334.2189446836987 11450.459358079695 1546.8185494785928
    vertex 3332.5177319379786 11450.459358079695 1552.9872043612816
    vertex 3332.5307114877564 11450.459358079695 1550.597679155194
  endloop
endfacet
facet normal 1.4573061049722125e-15 -1.0 1.3243790925976016e-15
  outer loop
    vertex 3332.5307114877564 11450.459358079695 1550.597679155194
    vertex 3332.5177319379786 11450.459358079695 1552.9872043612816
    vertex 3332.5307114877564 11450.459358079695 1543.7536913619156
  endloop
endfacet
facet normal 1.4573061049722125e-15 -1.0 1.3243790925976016e-15
  outer loop
    vertex 3332.5307114877564 11450.459358079695 1543.7536913619156
    vertex 3332.5177319379786 11450.459358079695 1552.9872043612816
    vertex 3331.4528143729817 11450.459358079695 1543.7536913619156
  endloop
endfacet
facet normal 1.4573061049722125e-15 -1.0 1.3243790925976016e-15
  outer loop
    vertex 3331.4528143729817 11450.459358079695 1543.7536913619156
    vertex 3332.5177319379786 11450.459358079695 1552.9872043612816
    vertex 3331.4528143729817 11450.459358079695 1552.9872043612816
  endloop
endfacet
facet normal 1.4573061049722125e-15 -1.0 1.3243790925976016e-15
  outer loop
    vertex 3337.011034093971 11450.459358079695 1552.9872043612816
    vertex 3338.075951658968 11450.459358079695 1543.7536913619156
    vertex 3338.075951658968 11450.459358079695 1552.9872043612816
  endloop
endfacet
facet normal 1.4573061049722125e-15 -1.0 1.3243790925976016e-15
  outer loop
    vertex 3338.075951658968 11450.459358079695 1543.7536913619156
    vertex 3337.011034093971 11450.459358079695 1552.9872043612816
    vertex 3336.998054544193 11450.459358079695 1543.7536913619156
  endloop
endfacet
facet normal 1.4573061049722125e-15 -1.0 1.3243790925976016e-15
  outer loop
    vertex 3336.998054544193 11450.459358079695 1543.7536913619156
    vertex 3337.011034093971 11450.459358079695 1552.9872043612816
    vertex 3336.998054544193 11450.459358079695 1550.597679155194
  endloop
endfacet
facet normal 1.4573061049722125e-15 -1.0 1.3243790925976016e-15
  outer loop
    vertex 3329.230239864421 11450.459358079695 1548.8833877791635
    vertex 3329.503008570826 11450.459358079695 1546.3900261748515
    vertex 3329.503008570826 11450.459358079695 1547.9353852427018
  endloop
endfacet
facet normal 1.4573061049722125e-15 -1.0 1.3243790925976016e-15
  outer loop
    vertex 3329.503008570826 11450.459358079695 1546.3900261748515
    vertex 3329.230239864421 11450.459358079695 1548.8833877791635
    vertex 3329.230239864421 11450.459358079695 1545.4679827379462
  endloop
endfacet
facet normal 1.4573061049722125e-15 -1.0 1.3243790925976016e-15
  outer loop
    vertex 3329.230239864421 11450.459358079695 1545.4679827379462
    vertex 3329.230239864421 11450.459358079695 1548.8833877791635
    vertex 3328.34713507685 11450.459358079695 1550.0781999224735
  endloop
endfacet
facet normal 1.4573061049722125e-15 -1.0 1.3243790925976016e-15
  outer loop
    vertex 3329.230239864421 11450.459358079695 1545.4679827379462
    vertex 3328.34713507685 11450.459358079695 1550.0781999224735
    vertex 3328.425111456051 11450.459358079695 1547.8315488444775
  endloop
endfacet
facet normal 1.4573061049722125e-15 -1.0 1.3243790925976016e-15
  outer loop
    vertex 3328.425111456051 11450.459358079695 1547.8315488444775
    vertex 3328.34713507685 11450.459358079695 1550.0781999224735
    vertex 3328.2692577781813 11450.459358079695 1548.40294627631
  endloop
endfacet
facet normal 1.4573061049722125e-15 -1.0 1.3243790925976016e-15
  outer loop
    vertex 3328.2692577781813 11450.459358079695 1548.40294627631
    vertex 3328.34713507685 11450.459358079695 1550.0781999224735
    vertex 3327.048486535315 11450.459358079695 1550.7016146339513
  endloop
endfacet
facet normal 1.4573061049722125e-15 -1.0 1.3243790925976016e-15
  outer loop
    vertex 3328.2692577781813 11450.459358079695 1548.40294627631
    vertex 3327.048486535315 11450.459358079695 1550.7016146339513
    vertex 3327.6589216970146 11450.459358079695 1549.2340337842363
  endloop
endfacet
facet normal 1.4573061049722125e-15 -1.0 1.3243790925976016e-15
  outer loop
    vertex 3327.6589216970146 11450.459358079695 1549.2340337842363
    vertex 3327.048486535315 11450.459358079695 1550.7016146339513
    vertex 3326.879653307668 11450.459358079695 1549.6366970689542
  endloop
endfacet
facet normal 1.4573061049722125e-15 -1.0 1.3243790925976016e-15
  outer loop
    vertex 3326.879653307668 11450.459358079695 1549.6366970689542
    vertex 3327.048486535315 11450.459358079695 1550.7016146339513
    vertex 3325.632922965245 11450.459358079695 1550.7016146339513
  endloop
endfacet
facet normal 1.4573061049722125e-15 -1.0 1.3243790925976016e-15
  outer loop
    vertex 3326.879653307668 11450.459358079695 1549.6366970689542
    vertex 3325.632922965245 11450.459358079695 1550.7016146339513
    vertex 3325.814735742671 11450.459358079695 1549.6366970689542
  endloop
endfacet
facet normal 1.4573061049722125e-15 -1.0 1.3243790925976016e-15
  outer loop
    vertex 3325.814735742671 11450.459358079695 1549.6366970689542
    vertex 3325.632922965245 11450.459358079695 1550.7016146339513
    vertex 3325.0225868840785 11450.459358079695 1549.2210542344583
  endloop
endfacet
facet normal 1.4573061049722125e-15 -1.0 1.3243790925976016e-15
  outer loop
    vertex 3325.0225868840785 11450.459358079695 1549.2210542344583
    vertex 3325.632922965245 11450.459358079695 1550.7016146339513
    vertex 3324.3212948739333 11450.459358079695 1550.0781999224735
  endloop
endfacet
facet normal 1.4573061049722125e-15 -1.0 1.3243790925976016e-15
  outer loop
    vertex 3325.0225868840785 11450.459358079695 1549.2210542344583
    vertex 3324.3212948739333 11450.459358079695 1550.0781999224735
    vertex 3324.399271253134 11450.459358079695 1548.3769871767538
  endloop
endfacet
facet normal 1.4573061049722125e-15 -1.0 1.3243790925976016e-15
  outer loop
    vertex 3324.399271253134 11450.459358079695 1548.3769871767538
    vertex 3324.3212948739333 11450.459358079695 1550.0781999224735
    vertex 3324.2304380254864 11450.459358079695 1547.8834670435895
  endloop
endfacet
facet normal 1.4573061049722125e-15 -1.0 1.3243790925976016e-15
  outer loop
    vertex 3324.2304380254864 11450.459358079695 1547.8834670435895
    vertex 3324.3212948739333 11450.459358079695 1550.0781999224735
    vertex 3323.45116963614 11450.459358079695 1548.8833877791635
  endloop
endfacet
facet normal 1.4573061049722125e-15 -1.0 1.3243790925976016e-15
  outer loop
    vertex 3324.2304380254864 11450.459358079695 1547.8834670435895
    vertex 3323.45116963614 11450.459358079695 1548.8833877791635
    vertex 3324.2304380254864 11450.459358079695 1547.7146338159423
  endloop
endfacet
facet normal 1.4573061049722125e-15 -1.0 1.3243790925976016e-15
  outer loop
    vertex 3324.2304380254864 11450.459358079695 1547.7146338159423
    vertex 3328.425111456051 11450.459358079695 1546.6497162509454
    vertex 3328.425111456051 11450.459358079695 1547.7146338159423
  endloop
endfacet
facet normal 1.4573061049722125e-15 -1.0 1.3243790925976016e-15
  outer loop
    vertex 3328.425111456051 11450.459358079695 1546.6497162509454
    vertex 3324.2304380254864 11450.459358079695 1547.7146338159423
    vertex 3323.1525409107117 11450.459358079695 1546.6497162509454
  endloop
endfacet
facet normal 1.4573061049722125e-15 -1.0 1.3243790925976016e-15
  outer loop
    vertex 3323.1525409107117 11450.459358079695 1546.6497162509454
    vertex 3324.2304380254864 11450.459358079695 1547.7146338159423
    vertex 3323.45116963614 11450.459358079695 1548.8833877791635
  endloop
endfacet
facet normal 1.4573061049722125e-15 -1.0 1.3243790925976016e-15
  outer loop
    vertex 3323.1525409107117 11450.459358079695 1546.6497162509454
    vertex 3323.45116963614 11450.459358079695 1548.8833877791635
    vertex 3323.1525409107117 11450.459358079695 1548.0133616219027
  endloop
endfacet
facet normal 1.4573061049722125e-15 -1.0 1.3243790925976016e-15
  outer loop
    vertex 3329.230239864421 11450.459358079695 1545.4679827379462
    vertex 3328.425111456051 11450.459358079695 1546.5198216726321
    vertex 3328.34713507685 11450.459358079695 1544.2731705946358
  endloop
endfacet
facet normal 1.4573061049722125e-15 -1.0 1.3243790925976016e-15
  outer loop
    vertex 3328.425111456051 11450.459358079695 1546.5198216726321
    vertex 3329.230239864421 11450.459358079695 1545.4679827379462
    vertex 3328.425111456051 11450.459358079695 1547.8315488444775
  endloop
endfacet
facet normal 1.4573061049722125e-15 -1.0 1.3243790925976016e-15
  outer loop
    vertex 3328.425111456051 11450.459358079695 1546.5198216726321
    vertex 3328.425111456051 11450.459358079695 1547.8315488444775
    vertex 3328.425111456051 11450.459358079695 1547.7146338159423
  endloop
endfacet
facet normal 1.4573061049722125e-15 -1.0 1.3243790925976016e-15
  outer loop
    vertex 3328.425111456051 11450.459358079695 1546.5198216726321
    vertex 3328.425111456051 11450.459358079695 1547.7146338159423
    vertex 3328.425111456051 11450.459358079695 1546.6497162509454
  endloop
endfacet
facet normal 1.4573061049722125e-15 -1.0 1.3243790925976016e-15
  outer loop
    vertex 3328.34713507685 11450.459358079695 1544.2731705946358
    vertex 3328.425111456051 11450.459358079695 1546.5198216726321
    vertex 3328.256278228403 11450.459358079695 1545.9484242407996
  endloop
endfacet
facet normal 1.4573061049722125e-15 -1.0 1.3243790925976016e-15
  outer loop
    vertex 3328.34713507685 11450.459358079695 1544.2731705946358
    vertex 3328.256278228403 11450.459358079695 1545.9484242407996
    vertex 3327.0355069855373 11450.459358079695 1543.6497558831584
  endloop
endfacet
facet normal 1.4573061049722125e-15 -1.0 1.3243790925976016e-15
  outer loop
    vertex 3327.0355069855373 11450.459358079695 1543.6497558831584
    vertex 3328.256278228403 11450.459358079695 1545.9484242407996
    vertex 3327.6329625974586 11450.459358079695 1545.1042581025624
  endloop
endfacet
facet normal 1.4573061049722125e-15 -1.0 1.3243790925976016e-15
  outer loop
    vertex 3327.0355069855373 11450.459358079695 1543.6497558831584
    vertex 3327.6329625974586 11450.459358079695 1545.1042581025624
    vertex 3326.8407146583336 11450.459358079695 1544.714673448155
  endloop
endfacet
facet normal 1.4573061049722125e-15 -1.0 1.3243790925976016e-15
  outer loop
    vertex 3327.0355069855373 11450.459358079695 1543.6497558831584
    vertex 3326.8407146583336 11450.459358079695 1544.714673448155
    vertex 3325.6979197946685 11450.459358079695 1543.6497558831584
  endloop
endfacet
facet normal 1.4573061049722125e-15 -1.0 1.3243790925976016e-15
  outer loop
    vertex 3325.6979197946685 11450.459358079695 1543.6497558831584
    vertex 3326.8407146583336 11450.459358079695 1544.714673448155
    vertex 3325.788776643115 11450.459358079695 1544.714673448155
  endloop
endfacet
facet normal 1.4573061049722125e-15 -1.0 1.3243790925976016e-15
  outer loop
    vertex 3325.6979197946685 11450.459358079695 1543.6497558831584
    vertex 3325.788776643115 11450.459358079695 1544.714673448155
    vertex 3324.9186514053217 11450.459358079695 1544.9355239554475
  endloop
endfacet
facet normal 1.4573061049722125e-15 -1.0 1.3243790925976016e-15
  outer loop
    vertex 3325.6979197946685 11450.459358079695 1543.6497558831584
    vertex 3324.9186514053217 11450.459358079695 1544.9355239554475
    vertex 3324.5160872011365 11450.459358079695 1543.9484836891193
  endloop
endfacet
facet normal 1.4573061049722125e-15 -1.0 1.3243790925976016e-15
  outer loop
    vertex 3324.5160872011365 11450.459358079695 1543.9484836891193
    vertex 3324.9186514053217 11450.459358079695 1544.9355239554475
    vertex 3324.2434175752646 11450.459358079695 1545.364047259189
  endloop
endfacet
facet normal 1.4573061049722125e-15 -1.0 1.3243790925976016e-15
  outer loop
    vertex 3324.5160872011365 11450.459358079695 1543.9484836891193
    vertex 3324.2434175752646 11450.459358079695 1545.364047259189
    vertex 3323.672020143432 11450.459358079695 1544.5069015711736
  endloop
endfacet
facet normal 1.4573061049722125e-15 -1.0 1.3243790925976016e-15
  outer loop
    vertex 3315.436644430052 11450.459358079695 1553.545622243336
    vertex 3316.514541544827 11450.459358079695 1550.1821354012307
    vertex 3316.514541544827 11450.459358079695 1553.545622243336
  endloop
endfacet
facet normal 1.4573061049722125e-15 -1.0 1.3243790925976016e-15
  outer loop
    vertex 3316.514541544827 11450.459358079695 1550.1821354012307
    vertex 3315.436644430052 11450.459358079695 1553.545622243336
    vertex 3316.514541544827 11450.459358079695 1548.8184900302733
  endloop
endfacet
facet normal 1.4573061049722125e-15 -1.0 1.3243790925976016e-15
  outer loop
    vertex 3316.514541544827 11450.459358079695 1548.8184900302733
    vertex 3315.436644430052 11450.459358079695 1553.545622243336
    vertex 3316.514541544827 11450.459358079695 1545.870546942131
  endloop
endfacet
facet normal 1.4573061049722125e-15 -1.0 1.3243790925976016e-15
  outer loop
    vertex 3316.514541544827 11450.459358079695 1545.870546942131
    vertex 3315.436644430052 11450.459358079695 1553.545622243336
    vertex 3316.501561995049 11450.459358079695 1544.4420038222834
  endloop
endfacet
facet normal 1.4573061049722125e-15 -1.0 1.3243790925976016e-15
  outer loop
    vertex 3316.501561995049 11450.459358079695 1544.4420038222834
    vertex 3315.436644430052 11450.459358079695 1553.545622243336
    vertex 3316.501561995049 11450.459358079695 1543.7536913619156
  endloop
endfacet
facet normal 1.4573061049722125e-15 -1.0 1.3243790925976016e-15
  outer loop
    vertex 3316.501561995049 11450.459358079695 1543.7536913619156
    vertex 3315.436644430052 11450.459358079695 1553.545622243336
    vertex 3315.436644430052 11450.459358079695 1543.7536913619156
  endloop
endfacet
facet normal 1.4573061049722125e-15 -1.0 1.3243790925976016e-15
  outer loop
    vertex 3321.1248578098875 11450.459358079695 1545.4679827379462
    vertex 3320.319630320984 11450.459358079695 1546.5328012224102
    vertex 3320.241753022316 11450.459358079695 1544.2731705946358
  endloop
endfacet
facet normal 1.4573061049722125e-15 -1.0 1.3243790925976016e-15
  outer loop
    vertex 3320.319630320984 11450.459358079695 1546.5328012224102
    vertex 3321.1248578098875 11450.459358079695 1545.4679827379462
    vertex 3320.319630320984 11450.459358079695 1547.7925111146105
  endloop
endfacet
facet normal 1.4573061049722125e-15 -1.0 1.3243790925976016e-15
  outer loop
    vertex 3320.241753022316 11450.459358079695 1544.2731705946358
    vertex 3320.319630320984 11450.459358079695 1546.5328012224102
    vertex 3320.163776643115 11450.459358079695 1545.9484242407996
  endloop
endfacet
facet normal 1.4573061049722125e-15 -1.0 1.3243790925976016e-15
  outer loop
    vertex 3320.241753022316 11450.459358079695 1544.2731705946358
    vertex 3320.163776643115 11450.459358079695 1545.9484242407996
    vertex 3318.8910872011365 11450.459358079695 1543.6497558831584
  endloop
endfacet
facet normal 1.4573061049722125e-15 -1.0 1.3243790925976016e-15
  outer loop
    vertex 3318.8910872011365 11450.459358079695 1543.6497558831584
    vertex 3320.163776643115 11450.459358079695 1545.9484242407996
    vertex 3319.54046101217 11450.459358079695 1545.1042581025624
  endloop
endfacet
facet normal 1.4573061049722125e-15 -1.0 1.3243790925976016e-15
  outer loop
    vertex 3318.8910872011365 11450.459358079695 1543.6497558831584
    vertex 3319.54046101217 11450.459358079695 1545.1042581025624
    vertex 3318.722253973489 11450.459358079695 1544.714673448155
  endloop
endfacet
facet normal 1.4573061049722125e-15 -1.0 1.3243790925976016e-15
  outer loop
    vertex 3318.8910872011365 11450.459358079695 1543.6497558831584
    vertex 3318.722253973489 11450.459358079695 1544.714673448155
    vertex 3317.592438659602 11450.459358079695 1543.6497558831584
  endloop
endfacet
facet normal 1.4573061049722125e-15 -1.0 1.3243790925976016e-15
  outer loop
    vertex 3317.592438659602 11450.459358079695 1543.6497558831584
    vertex 3318.722253973489 11450.459358079695 1544.714673448155
    vertex 3317.735312787693 11450.459358079695 1544.714673448155
  endloop
endfacet
facet normal 1.4573061049722125e-15 -1.0 1.3243790925976016e-15
  outer loop
    vertex 3317.592438659602 11450.459358079695 1543.6497558831584
    vertex 3317.735312787693 11450.459358079695 1544.714673448155
    vertex 3316.891146649456 11450.459358079695 1545.3121290600766
  endloop
endfacet
facet normal 1.4573061049722125e-15 -1.0 1.3243790925976016e-15
  outer loop
    vertex 3317.592438659602 11450.459358079695 1543.6497558831584
    vertex 3316.891146649456 11450.459358079695 1545.3121290600766
    vertex 3316.7872111706993 11450.459358079695 1544.1432760163227
  endloop
endfacet
facet normal 1.4573061049722125e-15 -1.0 1.3243790925976016e-15
  outer loop
    vertex 3316.7872111706993 11450.459358079695 1544.1432760163227
    vertex 3316.891146649456 11450.459358079695 1545.3121290600766
    vertex 3316.514541544827 11450.459358079695 1545.870546942131
  endloop
endfacet
facet normal 1.4573061049722125e-15 -1.0 1.3243790925976016e-15
  outer loop
    vertex 3316.7872111706993 11450.459358079695 1544.1432760163227
    vertex 3316.514541544827 11450.459358079695 1545.870546942131
    vertex 3316.501561995049 11450.459358079695 1544.4420038222834
  endloop
endfacet
facet normal 1.4573061049722125e-15 -1.0 1.3243790925976016e-15
  outer loop
    vertex 3321.1248578098875 11450.459358079695 1548.8833877791635
    vertex 3321.3975274357595 11450.459358079695 1546.3900261748515
    vertex 3321.3975274357595 11450.459358079695 1547.9353852427018
  endloop
endfacet
facet normal 1.4573061049722125e-15 -1.0 1.3243790925976016e-15
  outer loop
    vertex 3321.3975274357595 11450.459358079695 1546.3900261748515
    vertex 3321.1248578098875 11450.459358079695 1548.8833877791635
    vertex 3321.1248578098875 11450.459358079695 1545.4679827379462
  endloop
endfacet
facet normal 1.4573061049722125e-15 -1.0 1.3243790925976016e-15
  outer loop
    vertex 3321.1248578098875 11450.459358079695 1545.4679827379462
    vertex 3321.1248578098875 11450.459358079695 1548.8833877791635
    vertex 3320.241753022316 11450.459358079695 1550.0781999224735
  endloop
endfacet
facet normal 1.4573061049722125e-15 -1.0 1.3243790925976016e-15
  outer loop
    vertex 3321.1248578098875 11450.459358079695 1545.4679827379462
    vertex 3320.241753022316 11450.459358079695 1550.0781999224735
    vertex 3320.319630320984 11450.459358079695 1547.7925111146105
  endloop
endfacet
facet normal 1.4573061049722125e-15 -1.0 1.3243790925976016e-15
  outer loop
    vertex 3320.319630320984 11450.459358079695 1547.7925111146105
    vertex 3320.241753022316 11450.459358079695 1550.0781999224735
    vertex 3320.163776643115 11450.459358079695 1548.40294627631
  endloop
endfacet
facet normal 1.4573061049722125e-15 -1.0 1.3243790925976016e-15
  outer loop
    vertex 3320.163776643115 11450.459358079695 1548.40294627631
    vertex 3320.241753022316 11450.459358079695 1550.0781999224735
    vertex 3318.9430054002487 11450.459358079695 1550.7016146339513
  endloop
endfacet
facet normal 1.4573061049722125e-15 -1.0 1.3243790925976016e-15
  outer loop
    vertex 3320.163776643115 11450.459358079695 1548.40294627631
    vertex 3318.9430054002487 11450.459358079695 1550.7016146339513
    vertex 3319.54046101217 11450.459358079695 1549.2340337842363
  endloop
endfacet
facet normal 1.4573061049722125e-15 -1.0 1.3243790925976016e-15
  outer loop
    vertex 3319.54046101217 11450.459358079695 1549.2340337842363
    vertex 3318.9430054002487 11450.459358079695 1550.7016146339513
    vertex 3318.7741721726015 11450.459358079695 1549.6496766187322
  endloop
endfacet
facet normal 1.4573061049722125e-15 -1.0 1.3243790925976016e-15
  outer loop
    vertex 3318.7741721726015 11450.459358079695 1549.6496766187322
    vertex 3318.9430054002487 11450.459358079695 1550.7016146339513
    vertex 3317.6573364084925 11450.459358079695 1550.7016146339513
  endloop
endfacet
facet normal 1.4573061049722125e-15 -1.0 1.3243790925976016e-15
  outer loop
    vertex 3318.7741721726015 11450.459358079695 1549.6496766187322
    vertex 3317.6573364084925 11450.459358079695 1550.7016146339513
    vertex 3317.8131900863614 11450.459358079695 1549.6496766187322
  endloop
endfacet
facet normal 1.4573061049722125e-15 -1.0 1.3243790925976016e-15
  outer loop
    vertex 3317.8131900863614 11450.459358079695 1549.6496766187322
    vertex 3317.6573364084925 11450.459358079695 1550.7016146339513
    vertex 3317.280731303863 11450.459358079695 1549.480843391085
  endloop
endfacet
facet normal 1.4573061049722125e-15 -1.0 1.3243790925976016e-15
  outer loop
    vertex 3317.280731303863 11450.459358079695 1549.480843391085
    vertex 3317.6573364084925 11450.459358079695 1550.7016146339513
    vertex 3316.8781670996777 11450.459358079695 1550.4158663777685
  endloop
endfacet
facet normal 1.4573061049722125e-15 -1.0 1.3243790925976016e-15
  outer loop
    vertex 3317.280731303863 11450.459358079695 1549.480843391085
    vertex 3316.8781670996777 11450.459358079695 1550.4158663777685
    vertex 3316.7872111706993 11450.459358079695 1549.156156485568
  endloop
endfacet
facet normal 1.4573061049722125e-15 -1.0 1.3243790925976016e-15
  outer loop
    vertex 3316.7872111706993 11450.459358079695 1549.156156485568
    vertex 3316.8781670996777 11450.459358079695 1550.4158663777685
    vertex 3316.514541544827 11450.459358079695 1550.1821354012307
  endloop
endfacet
facet normal 1.4573061049722125e-15 -1.0 1.3243790925976016e-15
  outer loop
    vertex 3316.7872111706993 11450.459358079695 1549.156156485568
    vertex 3316.514541544827 11450.459358079695 1550.1821354012307
    vertex 3316.514541544827 11450.459358079695 1548.8184900302733
  endloop
endfacet
facet normal 1.4573061049722125e-15 -1.0 1.3243790925976016e-15
  outer loop
    vertex 3309.058434220794 11450.459358079695 1550.597679155194
    vertex 3312.1362718872497 11450.459358079695 1549.532761590197
    vertex 3312.1362718872497 11450.459358079695 1550.597679155194
  endloop
endfacet
facet normal 1.4573061049722125e-15 -1.0 1.3243790925976016e-15
  outer loop
    vertex 3312.1362718872497 11450.459358079695 1549.532761590197
    vertex 3309.058434220794 11450.459358079695 1550.597679155194
    vertex 3310.136331335569 11450.459358079695 1549.532761590197
  endloop
endfacet
facet normal 1.4573061049722125e-15 -1.0 1.3243790925976016e-15
  outer loop
    vertex 3310.136331335569 11450.459358079695 1549.532761590197
    vertex 3309.058434220794 11450.459358079695 1550.597679155194
    vertex 3310.136331335569 11450.459358079695 1544.8186089269122
  endloop
endfacet
facet normal 1.4573061049722125e-15 -1.0 1.3243790925976016e-15
  outer loop
    vertex 3310.136331335569 11450.459358079695 1544.8186089269122
    vertex 3312.26606738503 11450.459358079695 1543.7536913619156
    vertex 3312.26606738503 11450.459358079695 1544.8186089269122
  endloop
endfacet
facet normal 1.4573061049722125e-15 -1.0 1.3243790925976016e-15
  outer loop
    vertex 3312.26606738503 11450.459358079695 1543.7536913619156
    vertex 3310.136331335569 11450.459358079695 1544.8186089269122
    vertex 3306.9285990908006 11450.459358079695 1543.7536913619156
  endloop
endfacet
facet normal 1.4573061049722125e-15 -1.0 1.3243790925976016e-15
  outer loop
    vertex 3306.9285990908006 11450.459358079695 1543.7536913619156
    vertex 3310.136331335569 11450.459358079695 1544.8186089269122
    vertex 3309.058434220794 11450.459358079695 1544.8186089269122
  endloop
endfacet
facet normal 1.4573061049722125e-15 -1.0 1.3243790925976016e-15
  outer loop
    vertex 3309.058434220794 11450.459358079695 1544.8186089269122
    vertex 3310.136331335569 11450.459358079695 1544.8186089269122
    vertex 3309.058434220794 11450.459358079695 1550.597679155194
  endloop
endfacet
facet normal 1.4573061049722125e-15 -1.0 1.3243790925976016e-15
  outer loop
    vertex 3306.9285990908006 11450.459358079695 1543.7536913619156
    vertex 3309.058434220794 11450.459358079695 1544.8186089269122
    vertex 3306.9285990908006 11450.459358079695 1544.8186089269122
  endloop
endfacet
facet normal 1.4573061049722125e-15 -1.0 1.3243790925976016e-15
  outer loop
    vertex 3308.8246041637235 11450.459358079695 1553.545622243336
    vertex 3310.3700623121067 11450.459358079695 1551.9482458958407
    vertex 3310.3700623121067 11450.459358079695 1553.545622243336
  endloop
endfacet
facet normal 1.4573061049722125e-15 -1.0 1.3243790925976016e-15
  outer loop
    vertex 3310.3700623121067 11450.459358079695 1551.9482458958407
    vertex 3308.8246041637235 11450.459358079695 1553.545622243336
    vertex 3308.8246041637235 11450.459358079695 1551.9482458958407
  endloop
endfacet
facet normal 1.4573061049722125e-15 -1.0 1.3243790925976016e-15
  outer loop
    vertex 3303.8619575245352 11450.459358079695 1550.0522408229176
    vertex 3303.485352419906 11450.459358079695 1548.9483846085866
    vertex 3304.2255830793865 11450.459358079695 1549.7145743676226
  endloop
endfacet
facet normal 1.4573061049722125e-15 -1.0 1.3243790925976016e-15
  outer loop
    vertex 3303.485352419906 11450.459358079695 1548.9483846085866
    vertex 3303.8619575245352 11450.459358079695 1550.0522408229176
    vertex 3303.2386418935903 11450.459358079695 1550.4548050271026
  endloop
endfacet
facet normal 1.4573061049722125e-15 -1.0 1.3243790925976016e-15
  outer loop
    vertex 3303.485352419906 11450.459358079695 1548.9483846085866
    vertex 3303.2386418935903 11450.459358079695 1550.4548050271026
    vertex 3303.2386418935903 11450.459358079695 1549.1950951349022
  endloop
endfacet
facet normal 1.4573061049722125e-15 -1.0 1.3243790925976016e-15
  outer loop
    vertex 3303.2386418935903 11450.459358079695 1549.1950951349022
    vertex 3303.2386418935903 11450.459358079695 1550.4548050271026
    vertex 3302.4074553051314 11450.459358079695 1550.7016146339513
  endloop
endfacet
facet normal 1.4573061049722125e-15 -1.0 1.3243790925976016e-15
  outer loop
    vertex 3303.2386418935903 11450.459358079695 1549.1950951349022
    vertex 3302.4074553051314 11450.459358079695 1550.7016146339513
    vertex 3302.8359786088727 11450.459358079695 1549.4548842915287
  endloop
endfacet
facet normal 1.4573061049722125e-15 -1.0 1.3243790925976016e-15
  outer loop
    vertex 3302.8359786088727 11450.459358079695 1549.4548842915287
    vertex 3302.4074553051314 11450.459358079695 1550.7016146339513
    vertex 3302.2775607268177 11450.459358079695 1549.6366970689542
  endloop
endfacet
facet normal 1.4573061049722125e-15 -1.0 1.3243790925976016e-15
  outer loop
    vertex 3302.2775607268177 11450.459358079695 1549.6366970689542
    vertex 3302.4074553051314 11450.459358079695 1550.7016146339513
    vertex 3301.0698681142626 11450.459358079695 1550.7016146339513
  endloop
endfacet
facet normal 1.4573061049722125e-15 -1.0 1.3243790925976016e-15
  outer loop
    vertex 3302.2775607268177 11450.459358079695 1549.6366970689542
    vertex 3301.0698681142626 11450.459358079695 1550.7016146339513
    vertex 3301.225622711599 11450.459358079695 1549.6366970689542
  endloop
endfacet
facet normal 1.4573061049722125e-15 -1.0 1.3243790925976016e-15
  outer loop
    vertex 3301.225622711599 11450.459358079695 1549.6366970689542
    vertex 3301.0698681142626 11450.459358079695 1550.7016146339513
    vertex 3300.5893275308763 11450.459358079695 1549.480843391085
  endloop
endfacet
facet normal 1.4573061049722125e-15 -1.0 1.3243790925976016e-15
  outer loop
    vertex 3300.5893275308763 11450.459358079695 1549.480843391085
    vertex 3301.0698681142626 11450.459358079695 1550.7016146339513
    vertex 3300.134746047046 11450.459358079695 1550.4677845768808
  endloop
endfacet
facet normal 1.4573061049722125e-15 -1.0 1.3243790925976016e-15
  outer loop
    vertex 3300.5893275308763 11450.459358079695 1549.480843391085
    vertex 3300.134746047046 11450.459358079695 1550.4677845768808
    vertex 3300.0438891986 11450.459358079695 1549.130197386012
  endloop
endfacet
facet normal 1.4573061049722125e-15 -1.0 1.3243790925976016e-15
  outer loop
    vertex 3300.0438891986 11450.459358079695 1549.130197386012
    vertex 3300.134746047046 11450.459358079695 1550.4677845768808
    vertex 3299.173763960807 11450.459358079695 1549.8185098463798
  endloop
endfacet
facet normal 1.4573061049722125e-15 -1.0 1.3243790925976016e-15
  outer loop
    vertex 3300.0438891986 11450.459358079695 1549.130197386012
    vertex 3299.173763960807 11450.459358079695 1549.8185098463798
    vertex 3299.9010150705085 11450.459358079695 1548.7406127316046
  endloop
endfacet
facet normal 1.4573061049722125e-15 -1.0 1.3243790925976016e-15
  outer loop
    vertex 3299.9010150705085 11450.459358079695 1548.7406127316046
    vertex 3299.173763960807 11450.459358079695 1549.8185098463798
    vertex 3299.9010150705085 11450.459358079695 1547.7535724652764
  endloop
endfacet
facet normal 1.4573061049722125e-15 -1.0 1.3243790925976016e-15
  outer loop
    vertex 3299.9010150705085 11450.459358079695 1547.7535724652764
    vertex 3299.173763960807 11450.459358079695 1549.8185098463798
    vertex 3299.9010150705085 11450.459358079695 1546.5198216726321
  endloop
endfacet
facet normal 1.4573061049722125e-15 -1.0 1.3243790925976016e-15
  outer loop
    vertex 3299.9010150705085 11450.459358079695 1546.5198216726321
    vertex 3299.173763960807 11450.459358079695 1549.8185098463798
    vertex 3299.9010150705085 11450.459358079695 1546.0393801697785
  endloop
endfacet
facet normal 1.4573061049722125e-15 -1.0 1.3243790925976016e-15
  outer loop
    vertex 3299.9010150705085 11450.459358079695 1546.0393801697785
    vertex 3299.173763960807 11450.459358079695 1549.8185098463798
    vertex 3299.8101582220625 11450.459358079695 1544.5848779503747
  endloop
endfacet
facet normal 1.4573061049722125e-15 -1.0 1.3243790925976016e-15
  outer loop
    vertex 3299.8101582220625 11450.459358079695 1544.5848779503747
    vertex 3299.173763960807 11450.459358079695 1549.8185098463798
    vertex 3299.186743510585 11450.459358079695 1543.6497558831584
  endloop
endfacet
facet normal 1.4573061049722125e-15 -1.0 1.3243790925976016e-15
  outer loop
    vertex 3299.186743510585 11450.459358079695 1543.6497558831584
    vertex 3299.173763960807 11450.459358079695 1549.8185098463798
    vertex 3298.8231179557342 11450.459358079695 1545.000421704338
  endloop
endfacet
facet normal 1.4573061049722125e-15 -1.0 1.3243790925976016e-15
  outer loop
    vertex 3299.186743510585 11450.459358079695 1543.6497558831584
    vertex 3298.8231179557342 11450.459358079695 1545.000421704338
    vertex 3298.3166182727914 11450.459358079695 1544.2731705946358
  endloop
endfacet
facet normal 1.4573061049722125e-15 -1.0 1.3243790925976016e-15
  outer loop
    vertex 3298.8231179557342 11450.459358079695 1545.000421704338
    vertex 3299.173763960807 11450.459358079695 1549.8185098463798
    vertex 3298.8231179557342 11450.459358079695 1548.9354050588086
  endloop
endfacet
facet normal 1.4573061049722125e-15 -1.0 1.3243790925976016e-15
  outer loop
    vertex 3303.745042496 11450.459358079695 1544.2861501444138
    vertex 3303.3943964909276 11450.459358079695 1545.6497955153716
    vertex 3303.1217268650553 11450.459358079695 1543.922524589563
  endloop
endfacet
facet normal 1.4573061049722125e-15 -1.0 1.3243790925976016e-15
  outer loop
    vertex 3303.3943964909276 11450.459358079695 1545.6497955153716
    vertex 3303.745042496 11450.459358079695 1544.2861501444138
    vertex 3303.3943964909276 11450.459358079695 1546.0003424399117
  endloop
endfacet
facet normal 1.4573061049722125e-15 -1.0 1.3243790925976016e-15
  outer loop
    vertex 3303.1217268650553 11450.459358079695 1543.922524589563
    vertex 3303.3943964909276 11450.459358079695 1545.6497955153716
    vertex 3302.991832286742 11450.459358079695 1545.0782990030061
  endloop
endfacet
facet normal 1.4573061049722125e-15 -1.0 1.3243790925976016e-15
  outer loop
    vertex 3303.1217268650553 11450.459358079695 1543.922524589563
    vertex 3302.991832286742 11450.459358079695 1545.0782990030061
    vertex 3302.2386220774843 11450.459358079695 1543.6497558831584
  endloop
endfacet
facet normal 1.4573061049722125e-15 -1.0 1.3243790925976016e-15
  outer loop
    vertex 3302.2386220774843 11450.459358079695 1543.6497558831584
    vertex 3302.991832286742 11450.459358079695 1545.0782990030061
    vertex 3302.693203561314 11450.459358079695 1544.8964862255807
  endloop
endfacet
facet normal 1.4573061049722125e-15 -1.0 1.3243790925976016e-15
  outer loop
    vertex 3302.2386220774843 11450.459358079695 1543.6497558831584
    vertex 3302.693203561314 11450.459358079695 1544.8964862255807
    vertex 3302.082768399615 11450.459358079695 1544.714673448155
  endloop
endfacet
facet normal 1.4573061049722125e-15 -1.0 1.3243790925976016e-15
  outer loop
    vertex 3302.2386220774843 11450.459358079695 1543.6497558831584
    vertex 3302.082768399615 11450.459358079695 1544.714673448155
    vertex 3301.3035990908 11450.459358079695 1543.6497558831584
  endloop
endfacet
facet normal 1.4573061049722125e-15 -1.0 1.3243790925976016e-15
  outer loop
    vertex 3301.3035990908 11450.459358079695 1543.6497558831584
    vertex 3302.082768399615 11450.459358079695 1544.714673448155
    vertex 3301.537330067338 11450.459358079695 1544.714673448155
  endloop
endfacet
facet normal 1.4573061049722125e-15 -1.0 1.3243790925976016e-15
  outer loop
    vertex 3301.3035990908 11450.459358079695 1543.6497558831584
    vertex 3301.537330067338 11450.459358079695 1544.714673448155
    vertex 3300.56336843132 11450.459358079695 1545.0782990030061
  endloop
endfacet
facet normal 1.4573061049722125e-15 -1.0 1.3243790925976016e-15
  outer loop
    vertex 3301.3035990908 11450.459358079695 1543.6497558831584
    vertex 3300.56336843132 11450.459358079695 1545.0782990030061
    vertex 3300.10878694749 11450.459358079695 1544.24721149508
  endloop
endfacet
facet normal 1.4573061049722125e-15 -1.0 1.3243790925976016e-15
  outer loop
    vertex 3300.10878694749 11450.459358079695 1544.24721149508
    vertex 3300.56336843132 11450.459358079695 1545.0782990030061
    vertex 3300.030909648822 11450.459358079695 1545.6367168850609
  endloop
endfacet
facet normal 1.4573061049722125e-15 -1.0 1.3243790925976016e-15
  outer loop
    vertex 3300.10878694749 11450.459358079695 1544.24721149508
    vertex 3300.030909648822 11450.459358079695 1545.6367168850609
    vertex 3299.8101582220625 11450.459358079695 1544.5848779503747
  endloop
endfacet
facet normal 1.4573061049722125e-15 -1.0 1.3243790925976016e-15
  outer loop
    vertex 3299.8101582220625 11450.459358079695 1544.5848779503747
    vertex 3300.030909648822 11450.459358079695 1545.6367168850609
    vertex 3299.9010150705085 11450.459358079695 1546.0393801697785
  endloop
endfacet
facet normal 1.4573061049722125e-15 -1.0 1.3243790925976016e-15
  outer loop
    vertex 3304.2904808282765 11450.459358079695 1546.9744031564621
    vertex 3304.4722936057024 11450.459358079695 1545.338088159633
    vertex 3304.4722936057024 11450.459358079695 1546.0912983688909
  endloop
endfacet
facet normal 1.4573061049722125e-15 -1.0 1.3243790925976016e-15
  outer loop
    vertex 3304.4722936057024 11450.459358079695 1545.338088159633
    vertex 3304.2904808282765 11450.459358079695 1546.9744031564621
    vertex 3303.745042496 11450.459358079695 1544.2861501444138
  endloop
endfacet
facet normal 1.4573061049722125e-15 -1.0 1.3243790925976016e-15
  outer loop
    vertex 3303.745042496 11450.459358079695 1544.2861501444138
    vertex 3304.2904808282765 11450.459358079695 1546.9744031564621
    vertex 3303.3294987420372 11450.459358079695 1547.9353852427018
  endloop
endfacet
facet normal 1.4573061049722125e-15 -1.0 1.3243790925976016e-15
  outer loop
    vertex 3303.745042496 11450.459358079695 1544.2861501444138
    vertex 3303.3294987420372 11450.459358079695 1547.9353852427018
    vertex 3303.3943964909276 11450.459358079695 1546.0003424399117
  endloop
endfacet
facet normal 1.4573061049722125e-15 -1.0 1.3243790925976016e-15
  outer loop
    vertex 3303.3943964909276 11450.459358079695 1546.0003424399117
    vertex 3303.3294987420372 11450.459358079695 1547.9353852427018
    vertex 3303.290560092703 11450.459358079695 1546.454923923742
  endloop
endfacet
facet normal 1.4573061049722125e-15 -1.0 1.3243790925976016e-15
  outer loop
    vertex 3303.290560092703 11450.459358079695 1546.454923923742
    vertex 3303.3294987420372 11450.459358079695 1547.9353852427018
    vertex 3302.0438297502806 11450.459358079695 1548.2600721482188
  endloop
endfacet
facet normal 1.4573061049722125e-15 -1.0 1.3243790925976016e-15
  outer loop
    vertex 3303.290560092703 11450.459358079695 1546.454923923742
    vertex 3302.0438297502806 11450.459358079695 1548.2600721482188
    vertex 3302.7840604097605 11450.459358079695 1546.961423606684
  endloop
endfacet
facet normal 1.4573061049722125e-15 -1.0 1.3243790925976016e-15
  outer loop
    vertex 3302.7840604097605 11450.459358079695 1546.961423606684
    vertex 3302.0438297502806 11450.459358079695 1548.2600721482188
    vertex 3301.926914721745 11450.459358079695 1547.195154583222
  endloop
endfacet
facet normal 1.4573061049722125e-15 -1.0 1.3243790925976016e-15
  outer loop
    vertex 3301.926914721745 11450.459358079695 1547.195154583222
    vertex 3302.0438297502806 11450.459358079695 1548.2600721482188
    vertex 3301.108806763597 11450.459358079695 1548.2600721482188
  endloop
endfacet
facet normal 1.4573061049722125e-15 -1.0 1.3243790925976016e-15
  outer loop
    vertex 3301.926914721745 11450.459358079695 1547.195154583222
    vertex 3301.108806763597 11450.459358079695 1548.2600721482188
    vertex 3301.225622711599 11450.459358079695 1547.195154583222
  endloop
endfacet
facet normal 1.4573061049722125e-15 -1.0 1.3243790925976016e-15
  outer loop
    vertex 3301.225622711599 11450.459358079695 1547.195154583222
    vertex 3301.108806763597 11450.459358079695 1548.2600721482188
    vertex 3300.576347981098 11450.459358079695 1547.0133418057962
  endloop
endfacet
facet normal 1.4573061049722125e-15 -1.0 1.3243790925976016e-15
  outer loop
    vertex 3300.576347981098 11450.459358079695 1547.0133418057962
    vertex 3301.108806763597 11450.459358079695 1548.2600721482188
    vertex 3300.2386815258037 11450.459358079695 1547.9743238920362
  endloop
endfacet
facet normal 1.4573061049722125e-15 -1.0 1.3243790925976016e-15
  outer loop
    vertex 3300.576347981098 11450.459358079695 1547.0133418057962
    vertex 3300.2386815258037 11450.459358079695 1547.9743238920362
    vertex 3300.1737837769133 11450.459358079695 1546.8055699288147
  endloop
endfacet
facet normal 1.4573061049722125e-15 -1.0 1.3243790925976016e-15
  outer loop
    vertex 3300.1737837769133 11450.459358079695 1546.8055699288147
    vertex 3300.2386815258037 11450.459358079695 1547.9743238920362
    vertex 3299.9010150705085 11450.459358079695 1547.7535724652764
  endloop
endfacet
facet normal 1.4573061049722125e-15 -1.0 1.3243790925976016e-15
  outer loop
    vertex 3300.1737837769133 11450.459358079695 1546.8055699288147
    vertex 3299.9010150705085 11450.459358079695 1547.7535724652764
    vertex 3299.9010150705085 11450.459358079695 1546.5198216726321
  endloop
endfacet
endsolid thesis3
