solid thesis3
facet normal 1.0 0.0 0.0
  outer loop
    vertex 4569.464931664721 10792.774919099238 486.0254660975135
    vertex 4569.464931664721 10794.498524501072 483.48159682285626
    vertex 4569.464931664721 10793.556962199234 485.11243056813265
  endloop
endfacet
facet normal 1.0 0.0 0.0
  outer loop
    vertex 4569.464931664721 10794.498524501072 483.48159682285626
    vertex 4569.464931664721 10792.774919099238 486.0254660975135
    vertex 4569.464931664721 10794.898214914077 482.3478098667157
  endloop
endfacet
facet normal 1.0 0.0 0.0
  outer loop
    vertex 4569.464931664721 10794.898214914077 482.3478098667157
    vertex 4569.464931664721 10792.774919099238 486.0254660975135
    vertex 4569.464931664721 10791.811531943993 486.758979530541
  endloop
endfacet
facet normal 1.0 0.0 0.0
  outer loop
    vertex 4569.464931664721 10794.898214914077 482.3478098667157
    vertex 4569.464931664721 10791.811531943993 486.758979530541
    vertex 4569.464931664721 10795.051713063209 481.14682120633813
  endloop
endfacet
facet normal 1.0 0.0 0.0
  outer loop
    vertex 4569.464931664721 10795.051713063209 481.14682120633813
    vertex 4569.464931664721 10791.811531943993 486.758979530541
    vertex 4569.464931664721 10792.662464104775 484.5059524854618
  endloop
endfacet
facet normal 1.0 0.0 0.0
  outer loop
    vertex 4569.464931664721 10792.662464104775 484.5059524854618
    vertex 4569.464931664721 10791.811531943993 486.758979530541
    vertex 4569.464931664721 10790.563237805623 487.10296062673
  endloop
endfacet
facet normal 1.0 0.0 0.0
  outer loop
    vertex 4569.464931664721 10792.662464104775 484.5059524854618
    vertex 4569.464931664721 10790.563237805623 487.10296062673
    vertex 4569.464931664721 10792.030958812295 485.2361261824351
  endloop
endfacet
facet normal 1.0 0.0 0.0
  outer loop
    vertex 4569.464931664721 10792.030958812295 485.2361261824351
    vertex 4569.464931664721 10790.563237805623 487.10296062673
    vertex 4569.464931664721 10791.358448119492 485.7775341595228
  endloop
endfacet
facet normal 1.0 0.0 0.0
  outer loop
    vertex 4569.464931664721 10791.358448119492 485.7775341595228
    vertex 4569.464931664721 10790.563237805623 487.10296062673
    vertex 4569.464931664721 10790.464983028436 486.02651163101706
  endloop
endfacet
facet normal 1.0 0.0 0.0
  outer loop
    vertex 4569.464931664721 10790.464983028436 486.02651163101706
    vertex 4569.464931664721 10790.563237805623 487.10296062673
    vertex 4569.464931664721 10789.260531815578 486.99564840175043
  endloop
endfacet
facet normal 1.0 0.0 0.0
  outer loop
    vertex 4569.464931664721 10790.464983028436 486.02651163101706
    vertex 4569.464931664721 10789.260531815578 486.99564840175043
    vertex 4569.464931664721 10789.601814254582 485.96302702414715
  endloop
endfacet
facet normal 1.0 0.0 0.0
  outer loop
    vertex 4569.464931664721 10789.601814254582 485.96302702414715
    vertex 4569.464931664721 10789.260531815578 486.99564840175043
    vertex 4569.464931664721 10788.192158093469 486.37882254569445
  endloop
endfacet
facet normal 1.0 0.0 0.0
  outer loop
    vertex 4569.464931664721 10789.601814254582 485.96302702414715
    vertex 4569.464931664721 10788.192158093469 486.37882254569445
    vertex 4569.464931664721 10788.915793219463 485.5669525948509
  endloop
endfacet
facet normal 1.0 0.0 0.0
  outer loop
    vertex 4569.464931664721 10788.915793219463 485.5669525948509
    vertex 4569.464931664721 10788.192158093469 486.37882254569445
    vertex 4569.464931664721 10788.429229550236 484.8511688123737
  endloop
endfacet
facet normal 1.0 0.0 0.0
  outer loop
    vertex 4569.464931664721 10788.429229550236 484.8511688123737
    vertex 4569.464931664721 10788.192158093469 486.37882254569445
    vertex 4569.464931664721 10787.447869985477 485.3043021771415
  endloop
endfacet
facet normal 1.0 0.0 0.0
  outer loop
    vertex 4569.464931664721 10788.429229550236 484.8511688123737
    vertex 4569.464931664721 10787.447869985477 485.3043021771415
    vertex 4569.464931664721 10788.296133359696 484.35444706698206
  endloop
endfacet
facet normal 1.0 0.0 0.0
  outer loop
    vertex 4569.464931664721 10795.051713063209 481.14682120633813
    vertex 4569.464931664721 10793.519560252524 483.0214184105894
    vertex 4569.464931664721 10794.725462361746 479.89377622302146
  endloop
endfacet
facet normal 1.0 0.0 0.0
  outer loop
    vertex 4569.464931664721 10793.519560252524 483.0214184105894
    vertex 4569.464931664721 10795.051713063209 481.14682120633813
    vertex 4569.464931664721 10792.662464104775 484.5059524854618
  endloop
endfacet
facet normal 1.0 0.0 0.0
  outer loop
    vertex 4569.464931664721 10794.725462361746 479.89377622302146
    vertex 4569.464931664721 10793.519560252524 483.0214184105894
    vertex 4569.464931664721 10793.850875056754 482.0579796819515
  endloop
endfacet
facet normal 1.0 0.0 0.0
  outer loop
    vertex 4569.464931664721 10794.725462361746 479.89377622302146
    vertex 4569.464931664721 10793.850875056754 482.0579796819515
    vertex 4569.464931664721 10793.874251920186 481.861537008368
  endloop
endfacet
facet normal 1.0 0.0 0.0
  outer loop
    vertex 4569.464931664721 10794.725462361746 479.89377622302146
    vertex 4569.464931664721 10793.874251920186 481.861537008368
    vertex 4569.464931664721 10793.859382786542 480.8483326378631
  endloop
endfacet
facet normal 1.0 0.0 0.0
  outer loop
    vertex 4569.464931664721 10793.859382786542 480.8483326378631
    vertex 4569.464931664721 10793.874251920186 481.861537008368
    vertex 4569.464931664721 10788.296133359696 484.35444706698206
  endloop
endfacet
facet normal 1.0 0.0 0.0
  outer loop
    vertex 4569.464931664721 10793.859382786542 480.8483326378631
    vertex 4569.464931664721 10788.296133359696 484.35444706698206
    vertex 4569.464931664721 10788.299129967303 483.3364555855367
  endloop
endfacet
facet normal 1.0 0.0 0.0
  outer loop
    vertex 4569.464931664721 10788.299129967303 483.3364555855367
    vertex 4569.464931664721 10788.296133359696 484.35444706698206
    vertex 4569.464931664721 10787.447869985477 485.3043021771415
  endloop
endfacet
facet normal 1.0 0.0 0.0
  outer loop
    vertex 4569.464931664721 10788.299129967303 483.3364555855367
    vertex 4569.464931664721 10787.447869985477 485.3043021771415
    vertex 4569.464931664721 10787.121619284013 484.0512571938248
  endloop
endfacet
facet normal 1.0 0.0 0.0
  outer loop
    vertex 4569.464931664721 10788.299129967303 483.3364555855367
    vertex 4569.464931664721 10787.121619284013 484.0512571938248
    vertex 4569.464931664721 10788.330735535563 483.09980127755165
  endloop
endfacet
facet normal 1.0 0.0 0.0
  outer loop
    vertex 4569.464931664721 10788.330735535563 483.09980127755165
    vertex 4569.464931664721 10787.121619284013 484.0512571938248
    vertex 4569.464931664721 10788.647331860077 482.18781480315283
  endloop
endfacet
facet normal 1.0 0.0 0.0
  outer loop
    vertex 4569.464931664721 10788.647331860077 482.18781480315283
    vertex 4569.464931664721 10787.121619284013 484.0512571938248
    vertex 4569.464931664721 10789.504428007825 480.7032807282804
  endloop
endfacet
facet normal 1.0 0.0 0.0
  outer loop
    vertex 4569.464931664721 10793.859382786542 480.8483326378631
    vertex 4569.464931664721 10793.981223794022 478.81917004821025
    vertex 4569.464931664721 10794.725462361746 479.89377622302146
  endloop
endfacet
facet normal 1.0 0.0 0.0
  outer loop
    vertex 4569.464931664721 10793.981223794022 478.81917004821025
    vertex 4569.464931664721 10793.859382786542 480.8483326378631
    vertex 4569.464931664721 10793.739315686045 480.3290438465382
  endloop
endfacet
facet normal 1.0 0.0 0.0
  outer loop
    vertex 4569.464931664721 10793.981223794022 478.81917004821025
    vertex 4569.464931664721 10793.739315686045 480.3290438465382
    vertex 4569.464931664721 10793.268829287863 479.63752977394284
  endloop
endfacet
facet normal 1.0 0.0 0.0
  outer loop
    vertex 4569.464931664721 10793.981223794022 478.81917004821025
    vertex 4569.464931664721 10793.268829287863 479.63752977394284
    vertex 4569.464931664721 10792.91285007191 478.20234419215427
  endloop
endfacet
facet normal 1.0 0.0 0.0
  outer loop
    vertex 4569.464931664721 10792.91285007191 478.20234419215427
    vertex 4569.464931664721 10793.268829287863 479.63752977394284
    vertex 4569.464931664721 10792.56032701307 479.22847579486853
  endloop
endfacet
facet normal 1.0 0.0 0.0
  outer loop
    vertex 4569.464931664721 10792.91285007191 478.20234419215427
    vertex 4569.464931664721 10792.56032701307 479.22847579486853
    vertex 4569.464931664721 10791.726215060036 479.1667796582055
  endloop
endfacet
facet normal 1.0 0.0 0.0
  outer loop
    vertex 4569.464931664721 10792.91285007191 478.20234419215427
    vertex 4569.464931664721 10791.726215060036 479.1667796582055
    vertex 4569.464931664721 10791.610094541598 478.09511777343306
  endloop
endfacet
facet normal 1.0 0.0 0.0
  outer loop
    vertex 4569.464931664721 10791.610094541598 478.09511777343306
    vertex 4569.464931664721 10791.726215060036 479.1667796582055
    vertex 4569.464931664721 10790.819684612947 479.4381888291084
  endloop
endfacet
facet normal 1.0 0.0 0.0
  outer loop
    vertex 4569.464931664721 10791.610094541598 478.09511777343306
    vertex 4569.464931664721 10790.819684612947 479.4381888291084
    vertex 4569.464931664721 10790.361800403229 478.43909886962194
  endloop
endfacet
facet normal 1.0 0.0 0.0
  outer loop
    vertex 4569.464931664721 10790.361800403229 478.43909886962194
    vertex 4569.464931664721 10790.819684612947 479.4381888291084
    vertex 4569.464931664721 10790.173133019698 479.9346343268462
  endloop
endfacet
facet normal 1.0 0.0 0.0
  outer loop
    vertex 4569.464931664721 10790.361800403229 478.43909886962194
    vertex 4569.464931664721 10790.173133019698 479.9346343268462
    vertex 4569.464931664721 10789.504428007825 480.7032807282804
  endloop
endfacet
facet normal 1.0 0.0 0.0
  outer loop
    vertex 4569.464931664721 10790.361800403229 478.43909886962194
    vertex 4569.464931664721 10789.504428007825 480.7032807282804
    vertex 4569.464931664721 10787.121619284013 484.0512571938248
  endloop
endfacet
facet normal 1.0 0.0 0.0
  outer loop
    vertex 4569.464931664721 10790.361800403229 478.43909886962194
    vertex 4569.464931664721 10787.121619284013 484.0512571938248
    vertex 4569.464931664721 10787.275166973412 482.850182727189
  endloop
endfacet
facet normal 1.0 0.0 0.0
  outer loop
    vertex 4569.464931664721 10790.361800403229 478.43909886962194
    vertex 4569.464931664721 10787.275166973412 482.850182727189
    vertex 4569.464931664721 10789.398462788251 479.1725264963912
  endloop
endfacet
facet normal 1.0 0.0 0.0
  outer loop
    vertex 4569.464931664721 10789.398462788251 479.1725264963912
    vertex 4569.464931664721 10787.275166973412 482.850182727189
    vertex 4569.464931664721 10787.674857386415 481.7163957710484
  endloop
endfacet
facet normal 1.0 0.0 0.0
  outer loop
    vertex 4569.464931664721 10789.398462788251 479.1725264963912
    vertex 4569.464931664721 10787.674857386415 481.7163957710484
    vertex 4569.464931664721 10788.616419688253 480.08556202577205
  endloop
endfacet
facet normal 1.0 0.0 0.0
  outer loop
    vertex 4569.464931664721 10781.157043734702 482.19708302360107
    vertex 4569.464931664721 10784.782048746529 481.3208552890768
    vertex 4569.464931664721 10784.71771805617 482.39336048003526
  endloop
endfacet
facet normal 1.0 0.0 0.0
  outer loop
    vertex 4569.464931664721 10784.782048746529 481.3208552890768
    vertex 4569.464931664721 10781.157043734702 482.19708302360107
    vertex 4569.464931664721 10782.298716267225 481.2066884579937
  endloop
endfacet
facet normal 1.0 0.0 0.0
  outer loop
    vertex 4569.464931664721 10782.298716267225 481.2066884579937
    vertex 4569.464931664721 10781.157043734702 482.19708302360107
    vertex 4569.464931664721 10785.668742424486 475.3696319307829
  endloop
endfacet
facet normal 1.0 0.0 0.0
  outer loop
    vertex 4569.464931664721 10785.668742424486 475.3696319307829
    vertex 4569.464931664721 10788.293071978114 475.6551284193817
    vertex 4569.464931664721 10787.760613195616 476.5773740836051
  endloop
endfacet
facet normal 1.0 0.0 0.0
  outer loop
    vertex 4569.464931664721 10788.293071978114 475.6551284193817
    vertex 4569.464931664721 10785.668742424486 475.3696319307829
    vertex 4569.464931664721 10783.344539255615 472.79809171995146
  endloop
endfacet
facet normal 1.0 0.0 0.0
  outer loop
    vertex 4569.464931664721 10783.344539255615 472.79809171995146
    vertex 4569.464931664721 10785.668742424486 475.3696319307829
    vertex 4569.464931664721 10784.735256140426 474.8306833733953
  endloop
endfacet
facet normal 1.0 0.0 0.0
  outer loop
    vertex 4569.464931664721 10784.735256140426 474.8306833733953
    vertex 4569.464931664721 10785.668742424486 475.3696319307829
    vertex 4569.464931664721 10781.157043734702 482.19708302360107
  endloop
endfacet
facet normal 1.0 0.0 0.0
  outer loop
    vertex 4569.464931664721 10784.735256140426 474.8306833733953
    vertex 4569.464931664721 10781.157043734702 482.19708302360107
    vertex 4569.464931664721 10780.650958423239 481.90489453279565
  endloop
endfacet
facet normal 1.0 0.0 0.0
  outer loop
    vertex 4569.464931664721 10783.344539255615 472.79809171995146
    vertex 4569.464931664721 10784.735256140426 474.8306833733953
    vertex 4569.464931664721 10782.812080473117 473.72033738417485
  endloop
endfacet
facet normal 1.0 0.0 0.0
  outer loop
    vertex 4569.464931664721 10777.382787957216 471.38052865716946
    vertex 4569.464931664721 10779.732782231193 470.71284282965274
    vertex 4569.464931664721 10778.856167218508 472.23118457029597
  endloop
endfacet
facet normal 1.0 0.0 0.0
  outer loop
    vertex 4569.464931664721 10779.732782231193 470.71284282965274
    vertex 4569.464931664721 10777.382787957216 471.38052865716946
    vertex 4569.464931664721 10778.2594029699 469.86218691652624
  endloop
endfacet
facet normal 1.0 0.0 0.0
  outer loop
    vertex 4569.464931664721 10832.337221957863 486.00741304949196
    vertex 4569.464931664721 10833.820127389123 483.9844829125396
    vertex 4569.464931664721 10833.047447855197 485.3228031232665
  endloop
endfacet
facet normal 1.0 0.0 0.0
  outer loop
    vertex 4569.464931664721 10833.820127389123 483.9844829125396
    vertex 4569.464931664721 10832.337221957863 486.00741304949196
    vertex 4569.464931664721 10834.044924478472 483.04958551958447
  endloop
endfacet
facet normal 1.0 0.0 0.0
  outer loop
    vertex 4569.464931664721 10834.044924478472 483.04958551958447
    vertex 4569.464931664721 10832.337221957863 486.00741304949196
    vertex 4569.464931664721 10830.975024705966 486.60059832456267
  endloop
endfacet
facet normal 1.0 0.0 0.0
  outer loop
    vertex 4569.464931664721 10834.044924478472 483.04958551958447
    vertex 4569.464931664721 10830.975024705966 486.60059832456267
    vertex 4569.464931664721 10832.185398635182 484.66012194140825
  endloop
endfacet
facet normal 1.0 0.0 0.0
  outer loop
    vertex 4569.464931664721 10832.185398635182 484.66012194140825
    vertex 4569.464931664721 10830.975024705966 486.60059832456267
    vertex 4569.464931664721 10831.727477415297 485.1155983048169
  endloop
endfacet
facet normal 1.0 0.0 0.0
  outer loop
    vertex 4569.464931664721 10831.727477415297 485.1155983048169
    vertex 4569.464931664721 10830.975024705966 486.60059832456267
    vertex 4569.464931664721 10829.527414102833 486.4846772561385
  endloop
endfacet
facet normal 1.0 0.0 0.0
  outer loop
    vertex 4569.464931664721 10831.727477415297 485.1155983048169
    vertex 4569.464931664721 10829.527414102833 486.4846772561385
    vertex 4569.464931664721 10830.801011698664 485.52537277365076
  endloop
endfacet
facet normal 1.0 0.0 0.0
  outer loop
    vertex 4569.464931664721 10830.801011698664 485.52537277365076
    vertex 4569.464931664721 10829.527414102833 486.4846772561385
    vertex 4569.464931664721 10829.879937161673 485.4585456534242
  endloop
endfacet
facet normal 1.0 0.0 0.0
  outer loop
    vertex 4569.464931664721 10829.879937161673 485.4585456534242
    vertex 4569.464931664721 10829.527414102833 486.4846772561385
    vertex 4569.464931664721 10828.26777823097 485.75742614643633
  endloop
endfacet
facet normal 1.0 0.0 0.0
  outer loop
    vertex 4569.464931664721 10829.879937161673 485.4585456534242
    vertex 4569.464931664721 10828.26777823097 485.75742614643633
    vertex 4569.464931664721 10828.912729018102 484.9001277713695
  endloop
endfacet
facet normal 1.0 0.0 0.0
  outer loop
    vertex 4569.464931664721 10828.912729018102 484.9001277713695
    vertex 4569.464931664721 10828.26777823097 485.75742614643633
    vertex 4569.464931664721 10828.497464289094 484.45043525631473
  endloop
endfacet
facet normal 1.0 0.0 0.0
  outer loop
    vertex 4569.464931664721 10828.497464289094 484.45043525631473
    vertex 4569.464931664721 10828.26777823097 485.75742614643633
    vertex 4569.464931664721 10827.57531973853 484.9827189048183
  endloop
endfacet
facet normal 1.0 0.0 0.0
  outer loop
    vertex 4569.464931664721 10828.497464289094 484.45043525631473
    vertex 4569.464931664721 10827.57531973853 484.9827189048183
    vertex 4569.464931664721 10828.237381544286 483.5504441243787
  endloop
endfacet
facet normal 1.0 0.0 0.0
  outer loop
    vertex 4569.464931664721 10828.237381544286 483.5504441243787
    vertex 4569.464931664721 10827.57531973853 484.9827189048183
    vertex 4569.464931664721 10827.216620162622 483.785877020689
  endloop
endfacet
facet normal 1.0 0.0 0.0
  outer loop
    vertex 4569.464931664721 10834.044924478472 483.04958551958447
    vertex 4569.464931664721 10832.808763806392 483.58042179320177
    vertex 4569.464931664721 10833.877539369887 481.5732954569421
  endloop
endfacet
facet normal 1.0 0.0 0.0
  outer loop
    vertex 4569.464931664721 10832.808763806392 483.58042179320177
    vertex 4569.464931664721 10834.044924478472 483.04958551958447
    vertex 4569.464931664721 10832.185398635182 484.66012194140825
  endloop
endfacet
facet normal 1.0 0.0 0.0
  outer loop
    vertex 4569.464931664721 10833.877539369887 481.5732954569421
    vertex 4569.464931664721 10832.808763806392 483.58042179320177
    vertex 4569.464931664721 10832.972468827778 482.98516902296797
  endloop
endfacet
facet normal 1.0 0.0 0.0
  outer loop
    vertex 4569.464931664721 10833.877539369887 481.5732954569421
    vertex 4569.464931664721 10832.972468827778 482.98516902296797
    vertex 4569.464931664721 10833.053343478232 480.37758843405317
  endloop
endfacet
facet normal 1.0 0.0 0.0
  outer loop
    vertex 4569.464931664721 10833.053343478232 480.37758843405317
    vertex 4569.464931664721 10832.972468827778 482.98516902296797
    vertex 4569.464931664721 10832.843418299828 481.93590257161213
  endloop
endfacet
facet normal 1.0 0.0 0.0
  outer loop
    vertex 4569.464931664721 10833.053343478232 480.37758843405317
    vertex 4569.464931664721 10832.843418299828 481.93590257161213
    vertex 4569.464931664721 10832.340948972074 481.19594815978576
  endloop
endfacet
facet normal 1.0 0.0 0.0
  outer loop
    vertex 4569.464931664721 10833.053343478232 480.37758843405317
    vertex 4569.464931664721 10832.340948972074 481.19594815978576
    vertex 4569.464931664721 10831.793707606366 479.65033732435097
  endloop
endfacet
facet normal 1.0 0.0 0.0
  outer loop
    vertex 4569.464931664721 10831.793707606366 479.65033732435097
    vertex 4569.464931664721 10832.340948972074 481.19594815978576
    vertex 4569.464931664721 10831.373740828501 480.63753027773106
  endloop
endfacet
facet normal 1.0 0.0 0.0
  outer loop
    vertex 4569.464931664721 10831.793707606366 479.65033732435097
    vertex 4569.464931664721 10831.373740828501 480.63753027773106
    vertex 4569.464931664721 10830.763683772291 480.5252279703173
  endloop
endfacet
facet normal 1.0 0.0 0.0
  outer loop
    vertex 4569.464931664721 10831.793707606366 479.65033732435097
    vertex 4569.464931664721 10830.763683772291 480.5252279703173
    vertex 4569.464931664721 10830.77656220841 479.4380042996402
  endloop
endfacet
facet normal 1.0 0.0 0.0
  outer loop
    vertex 4569.464931664721 10830.77656220841 479.4380042996402
    vertex 4569.464931664721 10830.763683772291 480.5252279703173
    vertex 4569.464931664721 10829.867206766226 480.72750403252104
  endloop
endfacet
facet normal 1.0 0.0 0.0
  outer loop
    vertex 4569.464931664721 10830.77656220841 479.4380042996402
    vertex 4569.464931664721 10829.867206766226 480.72750403252104
    vertex 4569.464931664721 10829.584937114103 479.7097908318558
  endloop
endfacet
facet normal 1.0 0.0 0.0
  outer loop
    vertex 4569.464931664721 10825.21848475119 482.1524244066002
    vertex 4569.464931664721 10826.805325661207 479.94947273973145
    vertex 4569.464931664721 10826.03913590217 481.27655233062086
  endloop
endfacet
facet normal 1.0 0.0 0.0
  outer loop
    vertex 4569.464931664721 10826.805325661207 479.94947273973145
    vertex 4569.464931664721 10825.21848475119 482.1524244066002
    vertex 4569.464931664721 10827.15352755398 478.80083195734755
  endloop
endfacet
facet normal 1.0 0.0 0.0
  outer loop
    vertex 4569.464931664721 10827.15352755398 478.80083195734755
    vertex 4569.464931664721 10825.21848475119 482.1524244066002
    vertex 4569.464931664721 10824.135407856764 482.6517436955188
  endloop
endfacet
facet normal 1.0 0.0 0.0
  outer loop
    vertex 4569.464931664721 10827.15352755398 478.80083195734755
    vertex 4569.464931664721 10824.135407856764 482.6517436955188
    vertex 4569.464931664721 10827.04441229557 477.6132002080608
  endloop
endfacet
facet normal 1.0 0.0 0.0
  outer loop
    vertex 4569.464931664721 10827.04441229557 477.6132002080608
    vertex 4569.464931664721 10824.135407856764 482.6517436955188
    vertex 4569.464931664721 10825.164057592112 480.63643819469587
  endloop
endfacet
facet normal 1.0 0.0 0.0
  outer loop
    vertex 4569.464931664721 10825.164057592112 480.63643819469587
    vertex 4569.464931664721 10824.135407856764 482.6517436955188
    vertex 4569.464931664721 10824.578079804387 481.28775594029025
  endloop
endfacet
facet normal 1.0 0.0 0.0
  outer loop
    vertex 4569.464931664721 10824.578079804387 481.28775594029025
    vertex 4569.464931664721 10824.135407856764 482.6517436955188
    vertex 4569.464931664721 10822.699037873466 482.5423124019838
  endloop
endfacet
facet normal 1.0 0.0 0.0
  outer loop
    vertex 4569.464931664721 10824.578079804387 481.28775594029025
    vertex 4569.464931664721 10822.699037873466 482.5423124019838
    vertex 4569.464931664721 10823.932509641156 481.5748287549327
  endloop
endfacet
facet normal 1.0 0.0 0.0
  outer loop
    vertex 4569.464931664721 10823.932509641156 481.5748287549327
    vertex 4569.464931664721 10822.699037873466 482.5423124019838
    vertex 4569.464931664721 10823.062801552145 481.52267057415855
  endloop
endfacet
facet normal 1.0 0.0 0.0
  outer loop
    vertex 4569.464931664721 10823.062801552145 481.52267057415855
    vertex 4569.464931664721 10822.699037873466 482.5423124019838
    vertex 4569.464931664721 10821.349477042902 481.7631430931693
  endloop
endfacet
facet normal 1.0 0.0 0.0
  outer loop
    vertex 4569.464931664721 10823.062801552145 481.52267057415855
    vertex 4569.464931664721 10821.349477042902 481.7631430931693
    vertex 4569.464931664721 10822.050630929221 480.9382935925477
  endloop
endfacet
facet normal 1.0 0.0 0.0
  outer loop
    vertex 4569.464931664721 10822.050630929221 480.9382935925477
    vertex 4569.464931664721 10821.349477042902 481.7631430931693
    vertex 4569.464931664721 10821.570606575151 480.2111833839747
  endloop
endfacet
facet normal 1.0 0.0 0.0
  outer loop
    vertex 4569.464931664721 10821.570606575151 480.2111833839747
    vertex 4569.464931664721 10821.349477042902 481.7631430931693
    vertex 4569.464931664721 10820.536435964827 480.5738763049031
  endloop
endfacet
facet normal 1.0 0.0 0.0
  outer loop
    vertex 4569.464931664721 10821.570606575151 480.2111833839747
    vertex 4569.464931664721 10820.536435964827 480.5738763049031
    vertex 4569.464931664721 10821.496433843751 479.5085668153689
  endloop
endfacet
facet normal 1.0 0.0 0.0
  outer loop
    vertex 4569.464931664721 10821.496433843751 479.5085668153689
    vertex 4569.464931664721 10820.536435964827 480.5738763049031
    vertex 4569.464931664721 10821.767502663508 478.67543629234905
  endloop
endfacet
facet normal 1.0 0.0 0.0
  outer loop
    vertex 4569.464931664721 10821.767502663508 478.67543629234905
    vertex 4569.464931664721 10820.536435964827 480.5738763049031
    vertex 4569.464931664721 10822.410386699656 477.5619284783717
  endloop
endfacet
facet normal 1.0 0.0 0.0
  outer loop
    vertex 4569.464931664721 10827.04441229557 477.6132002080608
    vertex 4569.464931664721 10826.084500222903 478.6785592378613
    vertex 4569.464931664721 10826.213726629026 476.42873380500936
  endloop
endfacet
facet normal 1.0 0.0 0.0
  outer loop
    vertex 4569.464931664721 10826.084500222903 478.6785592378613
    vertex 4569.464931664721 10827.04441229557 477.6132002080608
    vertex 4569.464931664721 10825.806941628256 479.52293038071866
  endloop
endfacet
facet normal 1.0 0.0 0.0
  outer loop
    vertex 4569.464931664721 10825.806941628256 479.52293038071866
    vertex 4569.464931664721 10827.04441229557 477.6132002080608
    vertex 4569.464931664721 10825.164057592112 480.63643819469587
  endloop
endfacet
facet normal 1.0 0.0 0.0
  outer loop
    vertex 4569.464931664721 10826.213726629026 476.42873380500936
    vertex 4569.464931664721 10826.084500222903 478.6785592378613
    vertex 4569.464931664721 10826.01686680666 477.9646162431597
  endloop
endfacet
facet normal 1.0 0.0 0.0
  outer loop
    vertex 4569.464931664721 10826.213726629026 476.42873380500936
    vertex 4569.464931664721 10826.01686680666 477.9646162431597
    vertex 4569.464931664721 10825.530303137435 477.24883246068254
  endloop
endfacet
facet normal 1.0 0.0 0.0
  outer loop
    vertex 4569.464931664721 10826.213726629026 476.42873380500936
    vertex 4569.464931664721 10825.530303137435 477.24883246068254
    vertex 4569.464931664721 10824.886647038138 475.662544045973
  endloop
endfacet
facet normal 1.0 0.0 0.0
  outer loop
    vertex 4569.464931664721 10824.886647038138 475.662544045973
    vertex 4569.464931664721 10825.530303137435 477.24883246068254
    vertex 4569.464931664721 10824.518132514511 476.6644554790717
  endloop
endfacet
facet normal 1.0 0.0 0.0
  outer loop
    vertex 4569.464931664721 10824.886647038138 475.662544045973
    vertex 4569.464931664721 10824.518132514511 476.6644554790717
    vertex 4569.464931664721 10823.654963740655 476.6009708722017
  endloop
endfacet
facet normal 1.0 0.0 0.0
  outer loop
    vertex 4569.464931664721 10824.886647038138 475.662544045973
    vertex 4569.464931664721 10823.654963740655 476.6009708722017
    vertex 4569.464931664721 10823.445440403637 475.53533281744507
  endloop
endfacet
facet normal 1.0 0.0 0.0
  outer loop
    vertex 4569.464931664721 10823.445440403637 475.53533281744507
    vertex 4569.464931664721 10823.654963740655 476.6009708722017
    vertex 4569.464931664721 10823.002854262268 476.89937011293995
  endloop
endfacet
facet normal 1.0 0.0 0.0
  outer loop
    vertex 4569.464931664721 10823.445440403637 475.53533281744507
    vertex 4569.464931664721 10823.002854262268 476.89937011293995
    vertex 4569.464931664721 10822.410386699656 477.5619284783717
  endloop
endfacet
facet normal 1.0 0.0 0.0
  outer loop
    vertex 4569.464931664721 10823.445440403637 475.53533281744507
    vertex 4569.464931664721 10822.410386699656 477.5619284783717
    vertex 4569.464931664721 10820.536435964827 480.5738763049031
  endloop
endfacet
facet normal 1.0 0.0 0.0
  outer loop
    vertex 4569.464931664721 10823.445440403637 475.53533281744507
    vertex 4569.464931664721 10820.536435964827 480.5738763049031
    vertex 4569.464931664721 10820.427406512674 479.3862940958827
  endloop
endfacet
facet normal 1.0 0.0 0.0
  outer loop
    vertex 4569.464931664721 10823.445440403637 475.53533281744507
    vertex 4569.464931664721 10820.427406512674 479.3862940958827
    vertex 4569.464931664721 10822.362449315464 476.0347016466301
  endloop
endfacet
facet normal 1.0 0.0 0.0
  outer loop
    vertex 4569.464931664721 10822.362449315464 476.0347016466301
    vertex 4569.464931664721 10820.427406512674 479.3862940958827
    vertex 4569.464931664721 10820.775608405447 478.23765331349875
  endloop
endfacet
facet normal 1.0 0.0 0.0
  outer loop
    vertex 4569.464931664721 10822.362449315464 476.0347016466301
    vertex 4569.464931664721 10820.775608405447 478.23765331349875
    vertex 4569.464931664721 10821.541798164484 476.91057372260934
  endloop
endfacet
facet normal 1.0 0.0 0.0
  outer loop
    vertex 4569.464931664721 10816.139988756617 478.1855756652741
    vertex 4569.464931664721 10817.284811327972 476.85205861706424
    vertex 4569.464931664721 10816.56404999316 478.1004538690913
  endloop
endfacet
facet normal 1.0 0.0 0.0
  outer loop
    vertex 4569.464931664721 10817.284811327972 476.85205861706424
    vertex 4569.464931664721 10816.139988756617 478.1855756652741
    vertex 4569.464931664721 10816.668126373046 477.14082082138106
  endloop
endfacet
facet normal 1.0 0.0 0.0
  outer loop
    vertex 4569.464931664721 10816.668126373046 477.14082082138106
    vertex 4569.464931664721 10816.139988756617 478.1855756652741
    vertex 4569.464931664721 10815.150918749467 478.1844037938656
  endloop
endfacet
facet normal 1.0 0.0 0.0
  outer loop
    vertex 4569.464931664721 10816.668126373046 477.14082082138106
    vertex 4569.464931664721 10815.150918749467 478.1844037938656
    vertex 4569.464931664721 10815.559644907495 477.1907210655965
  endloop
endfacet
facet normal 1.0 0.0 0.0
  outer loop
    vertex 4569.464931664721 10815.559644907495 477.1907210655965
    vertex 4569.464931664721 10815.150918749467 478.1844037938656
    vertex 4569.464931664721 10814.003774882236 477.52209997332005
  endloop
endfacet
facet normal 1.0 0.0 0.0
  outer loop
    vertex 4569.464931664721 10815.559644907495 477.1907210655965
    vertex 4569.464931664721 10814.003774882236 477.52209997332005
    vertex 4569.464931664721 10814.72741000823 476.7102300224765
  endloop
endfacet
facet normal 1.0 0.0 0.0
  outer loop
    vertex 4569.464931664721 10814.72741000823 476.7102300224765
    vertex 4569.464931664721 10814.003774882236 477.52209997332005
    vertex 4569.464931664721 10814.18078524132 476.12463237336704
  endloop
endfacet
facet normal 1.0 0.0 0.0
  outer loop
    vertex 4569.464931664721 10814.18078524132 476.12463237336704
    vertex 4569.464931664721 10814.003774882236 477.52209997332005
    vertex 4569.464931664721 10813.15861275076 476.67421673771565
  endloop
endfacet
facet normal 1.0 0.0 0.0
  outer loop
    vertex 4569.464931664721 10814.18078524132 476.12463237336704
    vertex 4569.464931664721 10813.15861275076 476.67421673771565
    vertex 4569.464931664721 10814.159337749226 475.5124067083343
  endloop
endfacet
facet normal 1.0 0.0 0.0
  outer loop
    vertex 4569.464931664721 10814.159337749226 475.5124067083343
    vertex 4569.464931664721 10813.15861275076 476.67421673771565
    vertex 4569.464931664721 10816.724185957853 471.06995929729607
  endloop
endfacet
facet normal 1.0 0.0 0.0
  outer loop
    vertex 4569.464931664721 10816.724185957853 471.06995929729607
    vertex 4569.464931664721 10813.15861275076 476.67421673771565
    vertex 4569.464931664721 10815.790699673793 470.5310107399084
  endloop
endfacet
facet normal 1.0 0.0 0.0
  outer loop
    vertex 4569.464931664721 10815.790699673793 470.5310107399084
    vertex 4569.464931664721 10813.15861275076 476.67421673771565
    vertex 4569.464931664721 10813.005050498141 475.355896644196
  endloop
endfacet
facet normal 1.0 0.0 0.0
  outer loop
    vertex 4569.464931664721 10816.226383537865 478.68530932567364
    vertex 4569.464931664721 10820.581863718566 473.2971905908923
    vertex 4569.464931664721 10817.159869821928 479.2242578830613
  endloop
endfacet
facet normal 1.0 0.0 0.0
  outer loop
    vertex 4569.464931664721 10820.581863718566 473.2971905908923
    vertex 4569.464931664721 10816.226383537865 478.68530932567364
    vertex 4569.464931664721 10819.648377434505 472.75824203350464
  endloop
endfacet
facet normal 1.0 0.0 0.0
  outer loop
    vertex 4569.464931664721 10819.648377434505 472.75824203350464
    vertex 4569.464931664721 10816.226383537865 478.68530932567364
    vertex 4569.464931664721 10816.56404999316 478.1004538690913
  endloop
endfacet
facet normal 1.0 0.0 0.0
  outer loop
    vertex 4569.464931664721 10819.648377434505 472.75824203350464
    vertex 4569.464931664721 10816.56404999316 478.1004538690913
    vertex 4569.464931664721 10817.284811327972 476.85205861706424
  endloop
endfacet
facet normal 1.0 0.0 0.0
  outer loop
    vertex 4569.464931664721 10805.591024302095 472.35002998911
    vertex 4569.464931664721 10808.350327100032 472.7134533166435
    vertex 4569.464931664721 10807.817868317532 473.63569898086695
  endloop
endfacet
facet normal 1.0 0.0 0.0
  outer loop
    vertex 4569.464931664721 10808.350327100032 472.7134533166435
    vertex 4569.464931664721 10805.591024302095 472.35002998911
    vertex 4569.464931664721 10806.123483084595 471.4277843248866
  endloop
endfacet
facet normal 1.0 0.0 0.0
  outer loop
    vertex 4569.464931664721 10806.62310571449 475.7050885123217
    vertex 4569.464931664721 10808.751354601594 474.17464753825453
    vertex 4569.464931664721 10807.556591998551 476.24403706970935
  endloop
endfacet
facet normal 1.0 0.0 0.0
  outer loop
    vertex 4569.464931664721 10808.751354601594 474.17464753825453
    vertex 4569.464931664721 10806.62310571449 475.7050885123217
    vertex 4569.464931664721 10809.283813384092 473.25240187403114
  endloop
endfacet
facet normal 1.0 0.0 0.0
  outer loop
    vertex 4569.464931664721 10809.283813384092 473.25240187403114
    vertex 4569.464931664721 10806.62310571449 475.7050885123217
    vertex 4569.464931664721 10811.45907693831 469.48473487827505
  endloop
endfacet
facet normal 1.0 0.0 0.0
  outer loop
    vertex 4569.464931664721 10811.45907693831 469.48473487827505
    vertex 4569.464931664721 10806.62310571449 475.7050885123217
    vertex 4569.464931664721 10811.353489080047 468.23907529360207
  endloop
endfacet
facet normal 1.0 0.0 0.0
  outer loop
    vertex 4569.464931664721 10811.353489080047 468.23907529360207
    vertex 4569.464931664721 10806.62310571449 475.7050885123217
    vertex 4569.464931664721 10810.350267651713 469.2494546690161
  endloop
endfacet
facet normal 1.0 0.0 0.0
  outer loop
    vertex 4569.464931664721 10811.353489080047 468.23907529360207
    vertex 4569.464931664721 10810.350267651713 469.2494546690161
    vertex 4569.464931664721 10810.73504988778 467.492115621747
  endloop
endfacet
facet normal 1.0 0.0 0.0
  outer loop
    vertex 4569.464931664721 10810.350267651713 469.2494546690161
    vertex 4569.464931664721 10806.62310571449 475.7050885123217
    vertex 4569.464931664721 10807.817868317532 473.63569898086695
  endloop
endfacet
facet normal 1.0 0.0 0.0
  outer loop
    vertex 4569.464931664721 10810.350267651713 469.2494546690161
    vertex 4569.464931664721 10807.817868317532 473.63569898086695
    vertex 4569.464931664721 10808.350327100032 472.7134533166435
  endloop
endfacet
facet normal 1.0 0.0 0.0
  outer loop
    vertex 4569.464931664721 10810.73504988778 467.492115621747
    vertex 4569.464931664721 10810.350267651713 469.2494546690161
    vertex 4569.464931664721 10810.302946866323 468.6822410235997
  endloop
endfacet
facet normal 1.0 0.0 0.0
  outer loop
    vertex 4569.464931664721 10810.73504988778 467.492115621747
    vertex 4569.464931664721 10810.302946866323 468.6822410235997
    vertex 4569.464931664721 10810.000174141947 468.2974957977015
  endloop
endfacet
facet normal 1.0 0.0 0.0
  outer loop
    vertex 4569.464931664721 10810.73504988778 467.492115621747
    vertex 4569.464931664721 10810.000174141947 468.2974957977015
    vertex 4569.464931664721 10809.542943541197 466.8038527016453
  endloop
endfacet
facet normal 1.0 0.0 0.0
  outer loop
    vertex 4569.464931664721 10809.542943541197 466.8038527016453
    vertex 4569.464931664721 10810.000174141947 468.2974957977015
    vertex 4569.464931664721 10809.0104847587 467.7260983658687
  endloop
endfacet
facet normal 1.0 0.0 0.0
  outer loop
    vertex 4569.464931664721 10809.542943541197 466.8038527016453
    vertex 4569.464931664721 10809.0104847587 467.7260983658687
    vertex 4569.464931664721 10808.083730264318 467.4610401018518
  endloop
endfacet
facet normal 1.0 0.0 0.0
  outer loop
    vertex 4569.464931664721 10809.542943541197 466.8038527016453
    vertex 4569.464931664721 10808.083730264318 467.4610401018518
    vertex 4569.464931664721 10808.360580899302 466.4361814842048
  endloop
endfacet
facet normal 1.0 0.0 0.0
  outer loop
    vertex 4569.464931664721 10808.751354601594 474.17464753825453
    vertex 4569.464931664721 10810.802155124737 474.1290168867137
    vertex 4569.464931664721 10810.269696342237 475.0512625509372
  endloop
endfacet
facet normal 1.0 0.0 0.0
  outer loop
    vertex 4569.464931664721 10810.802155124737 474.1290168867137
    vertex 4569.464931664721 10808.751354601594 474.17464753825453
    vertex 4569.464931664721 10809.283813384092 473.25240187403114
  endloop
endfacet
facet normal 1.0 0.0 0.0
  outer loop
    vertex 4569.464931664721 10803.741685735113 469.49777251365884
    vertex 4569.464931664721 10805.224591166372 467.47484237670653
    vertex 4569.464931664721 10804.451911632448 468.81316258743345
  endloop
endfacet
facet normal 1.0 0.0 0.0
  outer loop
    vertex 4569.464931664721 10805.224591166372 467.47484237670653
    vertex 4569.464931664721 10803.741685735113 469.49777251365884
    vertex 4569.464931664721 10805.449388255722 466.5399449837514
  endloop
endfacet
facet normal 1.0 0.0 0.0
  outer loop
    vertex 4569.464931664721 10805.449388255722 466.5399449837514
    vertex 4569.464931664721 10803.741685735113 469.49777251365884
    vertex 4569.464931664721 10802.379488483219 470.09095778872955
  endloop
endfacet
facet normal 1.0 0.0 0.0
  outer loop
    vertex 4569.464931664721 10805.449388255722 466.5399449837514
    vertex 4569.464931664721 10802.379488483219 470.09095778872955
    vertex 4569.464931664721 10803.570343547499 468.184289071346
  endloop
endfacet
facet normal 1.0 0.0 0.0
  outer loop
    vertex 4569.464931664721 10803.570343547499 468.184289071346
    vertex 4569.464931664721 10802.379488483219 470.09095778872955
    vertex 4569.464931664721 10803.149671587274 468.6012069240354
  endloop
endfacet
facet normal 1.0 0.0 0.0
  outer loop
    vertex 4569.464931664721 10803.149671587274 468.6012069240354
    vertex 4569.464931664721 10802.379488483219 470.09095778872955
    vertex 4569.464931664721 10800.943118499921 469.98152649519443
  endloop
endfacet
facet normal 1.0 0.0 0.0
  outer loop
    vertex 4569.464931664721 10803.149671587274 468.6012069240354
    vertex 4569.464931664721 10800.943118499921 469.98152649519443
    vertex 4569.464931664721 10802.205561282175 469.01578177808403
  endloop
endfacet
facet normal 1.0 0.0 0.0
  outer loop
    vertex 4569.464931664721 10802.205561282175 469.01578177808403
    vertex 4569.464931664721 10800.943118499921 469.98152649519443
    vertex 4569.464931664721 10801.329363418276 468.9748642171473
  endloop
endfacet
facet normal 1.0 0.0 0.0
  outer loop
    vertex 4569.464931664721 10801.329363418276 468.9748642171473
    vertex 4569.464931664721 10800.943118499921 469.98152649519443
    vertex 4569.464931664721 10799.71720448757 469.2737447101594
  endloop
endfacet
facet normal 1.0 0.0 0.0
  outer loop
    vertex 4569.464931664721 10801.329363418276 468.9748642171473
    vertex 4569.464931664721 10799.71720448757 469.2737447101594
    vertex 4569.464931664721 10800.407117754054 468.4424054346487
  endloop
endfacet
facet normal 1.0 0.0 0.0
  outer loop
    vertex 4569.464931664721 10800.407117754054 468.4424054346487
    vertex 4569.464931664721 10799.71720448757 469.2737447101594
    vertex 4569.464931664721 10799.92891813618 467.68637375177815
  endloop
endfacet
facet normal 1.0 0.0 0.0
  outer loop
    vertex 4569.464931664721 10799.92891813618 467.68637375177815
    vertex 4569.464931664721 10799.71720448757 469.2737447101594
    vertex 4569.464931664721 10798.893008595915 468.07803768727047
  endloop
endfacet
facet normal 1.0 0.0 0.0
  outer loop
    vertex 4569.464931664721 10799.92891813618 467.68637375177815
    vertex 4569.464931664721 10798.893008595915 468.07803768727047
    vertex 4569.464931664721 10799.811144494059 466.643732421836
  endloop
endfacet
facet normal 1.0 0.0 0.0
  outer loop
    vertex 4569.464931664721 10799.811144494059 466.643732421836
    vertex 4569.464931664721 10798.893008595915 468.07803768727047
    vertex 4569.464931664721 10799.911690696495 466.13191483541294
  endloop
endfacet
facet normal 1.0 0.0 0.0
  outer loop
    vertex 4569.464931664721 10799.911690696495 466.13191483541294
    vertex 4569.464931664721 10798.893008595915 468.07803768727047
    vertex 4569.464931664721 10798.736864107168 466.60823739951707
  endloop
endfacet
facet normal 1.0 0.0 0.0
  outer loop
    vertex 4569.464931664721 10799.911690696495 466.13191483541294
    vertex 4569.464931664721 10798.736864107168 466.60823739951707
    vertex 4569.464931664721 10799.996107310319 465.98570097126736
  endloop
endfacet
facet normal 1.0 0.0 0.0
  outer loop
    vertex 4569.464931664721 10799.996107310319 465.98570097126736
    vertex 4569.464931664721 10804.161259844264 467.16079202232686
    vertex 4569.464931664721 10803.628801061766 468.08303768655026
  endloop
endfacet
facet normal 1.0 0.0 0.0
  outer loop
    vertex 4569.464931664721 10804.161259844264 467.16079202232686
    vertex 4569.464931664721 10799.996107310319 465.98570097126736
    vertex 4569.464931664721 10799.595079808756 464.5245067496563
  endloop
endfacet
facet normal 1.0 0.0 0.0
  outer loop
    vertex 4569.464931664721 10799.595079808756 464.5245067496563
    vertex 4569.464931664721 10799.996107310319 465.98570097126736
    vertex 4569.464931664721 10798.736864107168 466.60823739951707
  endloop
endfacet
facet normal 1.0 0.0 0.0
  outer loop
    vertex 4569.464931664721 10799.595079808756 464.5245067496563
    vertex 4569.464931664721 10798.736864107168 466.60823739951707
    vertex 4569.464931664721 10798.913257123279 465.7054582826585
  endloop
endfacet
facet normal 1.0 0.0 0.0
  outer loop
    vertex 4569.464931664721 10805.449388255722 466.5399449837514
    vertex 4569.464931664721 10804.22620713342 467.04830001769375
    vertex 4569.464931664721 10805.282003147136 465.06365492110905
  endloop
endfacet
facet normal 1.0 0.0 0.0
  outer loop
    vertex 4569.464931664721 10804.22620713342 467.04830001769375
    vertex 4569.464931664721 10805.449388255722 466.5399449837514
    vertex 4569.464931664721 10803.570343547499 468.184289071346
  endloop
endfacet
facet normal 1.0 0.0 0.0
  outer loop
    vertex 4569.464931664721 10804.22620713342 467.04830001769375
    vertex 4569.464931664721 10803.570343547499 468.184289071346
    vertex 4569.464931664721 10803.628801061766 468.08303768655026
  endloop
endfacet
facet normal 1.0 0.0 0.0
  outer loop
    vertex 4569.464931664721 10804.22620713342 467.04830001769375
    vertex 4569.464931664721 10803.628801061766 468.08303768655026
    vertex 4569.464931664721 10804.161259844264 467.16079202232686
  endloop
endfacet
facet normal 1.0 0.0 0.0
  outer loop
    vertex 4569.464931664721 10805.282003147136 465.06365492110905
    vertex 4569.464931664721 10804.22620713342 467.04830001769375
    vertex 4569.464931664721 10804.365691985193 466.4690387122459
  endloop
endfacet
facet normal 1.0 0.0 0.0
  outer loop
    vertex 4569.464931664721 10805.282003147136 465.06365492110905
    vertex 4569.464931664721 10804.365691985193 466.4690387122459
    vertex 4569.464931664721 10804.457807255481 463.8679478982201
  endloop
endfacet
facet normal 1.0 0.0 0.0
  outer loop
    vertex 4569.464931664721 10804.457807255481 463.8679478982201
    vertex 4569.464931664721 10804.365691985193 466.4690387122459
    vertex 4569.464931664721 10804.247967883339 465.4263115760454
  endloop
endfacet
facet normal 1.0 0.0 0.0
  outer loop
    vertex 4569.464931664721 10804.457807255481 463.8679478982201
    vertex 4569.464931664721 10804.247967883339 465.4263115760454
    vertex 4569.464931664721 10803.756653369162 464.6927973988418
  endloop
endfacet
facet normal 1.0 0.0 0.0
  outer loop
    vertex 4569.464931664721 10804.457807255481 463.8679478982201
    vertex 4569.464931664721 10803.756653369162 464.6927973988418
    vertex 4569.464931664721 10803.299422768414 463.1991543027855
  endloop
endfacet
facet normal 1.0 0.0 0.0
  outer loop
    vertex 4569.464931664721 10803.299422768414 463.1991543027855
    vertex 4569.464931664721 10803.756653369162 464.6927973988418
    vertex 4569.464931664721 10802.84564832478 464.1668283912322
  endloop
endfacet
facet normal 1.0 0.0 0.0
  outer loop
    vertex 4569.464931664721 10803.299422768414 463.1991543027855
    vertex 4569.464931664721 10802.84564832478 464.1668283912322
    vertex 4569.464931664721 10801.981672510728 463.92302792208915
  endloop
endfacet
facet normal 1.0 0.0 0.0
  outer loop
    vertex 4569.464931664721 10803.299422768414 463.1991543027855
    vertex 4569.464931664721 10801.981672510728 463.92302792208915
    vertex 4569.464931664721 10802.126561816414 462.86694387479804
  endloop
endfacet
facet normal 1.0 0.0 0.0
  outer loop
    vertex 4569.464931664721 10802.126561816414 462.86694387479804
    vertex 4569.464931664721 10801.981672510728 463.92302792208915
    vertex 4569.464931664721 10801.182641208534 463.95652307421415
  endloop
endfacet
facet normal 1.0 0.0 0.0
  outer loop
    vertex 4569.464931664721 10802.126561816414 462.86694387479804
    vertex 4569.464931664721 10801.182641208534 463.95652307421415
    vertex 4569.464931664721 10801.116369360918 462.9285144177323
  endloop
endfacet
facet normal 1.0 0.0 0.0
  outer loop
    vertex 4569.464931664721 10794.541523867054 465.7156961471976
    vertex 4569.464931664721 10795.686346438413 464.3821790989879
    vertex 4569.464931664721 10794.9655851036 465.63057435101484
  endloop
endfacet
facet normal 1.0 0.0 0.0
  outer loop
    vertex 4569.464931664721 10795.686346438413 464.3821790989879
    vertex 4569.464931664721 10794.541523867054 465.7156961471976
    vertex 4569.464931664721 10795.069661483485 464.6709413033046
  endloop
endfacet
facet normal 1.0 0.0 0.0
  outer loop
    vertex 4569.464931664721 10795.069661483485 464.6709413033046
    vertex 4569.464931664721 10794.541523867054 465.7156961471976
    vertex 4569.464931664721 10793.552453859907 465.7145242757892
  endloop
endfacet
facet normal 1.0 0.0 0.0
  outer loop
    vertex 4569.464931664721 10795.069661483485 464.6709413033046
    vertex 4569.464931664721 10793.552453859907 465.7145242757892
    vertex 4569.464931664721 10793.961180017935 464.72084154752
  endloop
endfacet
facet normal 1.0 0.0 0.0
  outer loop
    vertex 4569.464931664721 10793.961180017935 464.72084154752
    vertex 4569.464931664721 10793.552453859907 465.7145242757892
    vertex 4569.464931664721 10792.405309992673 465.05222045524357
  endloop
endfacet
facet normal 1.0 0.0 0.0
  outer loop
    vertex 4569.464931664721 10793.961180017935 464.72084154752
    vertex 4569.464931664721 10792.405309992673 465.05222045524357
    vertex 4569.464931664721 10793.128945118668 464.24035050440006
  endloop
endfacet
facet normal 1.0 0.0 0.0
  outer loop
    vertex 4569.464931664721 10793.128945118668 464.24035050440006
    vertex 4569.464931664721 10792.405309992673 465.05222045524357
    vertex 4569.464931664721 10792.58232035176 463.6547528552905
  endloop
endfacet
facet normal 1.0 0.0 0.0
  outer loop
    vertex 4569.464931664721 10792.58232035176 463.6547528552905
    vertex 4569.464931664721 10792.405309992673 465.05222045524357
    vertex 4569.464931664721 10791.5601478612 464.2043372196392
  endloop
endfacet
facet normal 1.0 0.0 0.0
  outer loop
    vertex 4569.464931664721 10792.58232035176 463.6547528552905
    vertex 4569.464931664721 10791.5601478612 464.2043372196392
    vertex 4569.464931664721 10792.560872859667 463.0425271902579
  endloop
endfacet
facet normal 1.0 0.0 0.0
  outer loop
    vertex 4569.464931664721 10792.560872859667 463.0425271902579
    vertex 4569.464931664721 10791.5601478612 464.2043372196392
    vertex 4569.464931664721 10795.12572106829 458.6000797792196
  endloop
endfacet
facet normal 1.0 0.0 0.0
  outer loop
    vertex 4569.464931664721 10795.12572106829 458.6000797792196
    vertex 4569.464931664721 10791.5601478612 464.2043372196392
    vertex 4569.464931664721 10794.19223478423 458.061131221832
  endloop
endfacet
facet normal 1.0 0.0 0.0
  outer loop
    vertex 4569.464931664721 10794.19223478423 458.061131221832
    vertex 4569.464931664721 10791.5601478612 464.2043372196392
    vertex 4569.464931664721 10791.406585608578 462.88601712611955
  endloop
endfacet
facet normal 1.0 0.0 0.0
  outer loop
    vertex 4569.464931664721 10794.627918648303 466.21542980759716
    vertex 4569.464931664721 10798.983398829007 460.8273110728158
    vertex 4569.464931664721 10795.561404932365 466.7543783649848
  endloop
endfacet
facet normal 1.0 0.0 0.0
  outer loop
    vertex 4569.464931664721 10798.983398829007 460.8273110728158
    vertex 4569.464931664721 10794.627918648303 466.21542980759716
    vertex 4569.464931664721 10798.049912544944 460.28836251542816
  endloop
endfacet
facet normal 1.0 0.0 0.0
  outer loop
    vertex 4569.464931664721 10798.049912544944 460.28836251542816
    vertex 4569.464931664721 10794.627918648303 466.21542980759716
    vertex 4569.464931664721 10794.9655851036 465.63057435101484
  endloop
endfacet
facet normal 1.0 0.0 0.0
  outer loop
    vertex 4569.464931664721 10798.049912544944 460.28836251542816
    vertex 4569.464931664721 10794.9655851036 465.63057435101484
    vertex 4569.464931664721 10795.686346438413 464.3821790989879
  endloop
endfacet
facet normal 1.0 0.0 0.0
  outer loop
    vertex 4569.464931664721 10783.992559412536 459.8801504710335
    vertex 4569.464931664721 10786.751862210473 460.243573798567
    vertex 4569.464931664721 10786.219403427973 461.1658194627905
  endloop
endfacet
facet normal 1.0 0.0 0.0
  outer loop
    vertex 4569.464931664721 10786.751862210473 460.243573798567
    vertex 4569.464931664721 10783.992559412536 459.8801504710335
    vertex 4569.464931664721 10784.525018195032 458.9579048068101
  endloop
endfacet
facet normal 1.0 0.0 0.0
  outer loop
    vertex 4569.464931664721 10785.024640824928 463.2352089942453
    vertex 4569.464931664721 10787.152889712033 461.70476802017805
    vertex 4569.464931664721 10785.958127108988 463.7741575516329
  endloop
endfacet
facet normal 1.0 0.0 0.0
  outer loop
    vertex 4569.464931664721 10787.152889712033 461.70476802017805
    vertex 4569.464931664721 10785.024640824928 463.2352089942453
    vertex 4569.464931664721 10787.685348494533 460.78252235595465
  endloop
endfacet
facet normal 1.0 0.0 0.0
  outer loop
    vertex 4569.464931664721 10787.685348494533 460.78252235595465
    vertex 4569.464931664721 10785.024640824928 463.2352089942453
    vertex 4569.464931664721 10789.86061204875 457.0148553601986
  endloop
endfacet
facet normal 1.0 0.0 0.0
  outer loop
    vertex 4569.464931664721 10789.86061204875 457.0148553601986
    vertex 4569.464931664721 10785.024640824928 463.2352089942453
    vertex 4569.464931664721 10789.755024190485 455.76919577552565
  endloop
endfacet
facet normal 1.0 0.0 0.0
  outer loop
    vertex 4569.464931664721 10789.755024190485 455.76919577552565
    vertex 4569.464931664721 10785.024640824928 463.2352089942453
    vertex 4569.464931664721 10788.751802762152 456.77957515093965
  endloop
endfacet
facet normal 1.0 0.0 0.0
  outer loop
    vertex 4569.464931664721 10789.755024190485 455.76919577552565
    vertex 4569.464931664721 10788.751802762152 456.77957515093965
    vertex 4569.464931664721 10789.13658499822 455.0222361036705
  endloop
endfacet
facet normal 1.0 0.0 0.0
  outer loop
    vertex 4569.464931664721 10788.751802762152 456.77957515093965
    vertex 4569.464931664721 10785.024640824928 463.2352089942453
    vertex 4569.464931664721 10786.219403427973 461.1658194627905
  endloop
endfacet
facet normal 1.0 0.0 0.0
  outer loop
    vertex 4569.464931664721 10788.751802762152 456.77957515093965
    vertex 4569.464931664721 10786.219403427973 461.1658194627905
    vertex 4569.464931664721 10786.751862210473 460.243573798567
  endloop
endfacet
facet normal 1.0 0.0 0.0
  outer loop
    vertex 4569.464931664721 10789.13658499822 455.0222361036705
    vertex 4569.464931664721 10788.751802762152 456.77957515093965
    vertex 4569.464931664721 10788.70448197676 456.21236150552323
  endloop
endfacet
facet normal 1.0 0.0 0.0
  outer loop
    vertex 4569.464931664721 10789.13658499822 455.0222361036705
    vertex 4569.464931664721 10788.70448197676 456.21236150552323
    vertex 4569.464931664721 10788.401709252386 455.82761627962503
  endloop
endfacet
facet normal 1.0 0.0 0.0
  outer loop
    vertex 4569.464931664721 10789.13658499822 455.0222361036705
    vertex 4569.464931664721 10788.401709252386 455.82761627962503
    vertex 4569.464931664721 10787.944478651638 454.33397318356884
  endloop
endfacet
facet normal 1.0 0.0 0.0
  outer loop
    vertex 4569.464931664721 10787.944478651638 454.33397318356884
    vertex 4569.464931664721 10788.401709252386 455.82761627962503
    vertex 4569.464931664721 10787.412019869138 455.25621884779224
  endloop
endfacet
facet normal 1.0 0.0 0.0
  outer loop
    vertex 4569.464931664721 10787.944478651638 454.33397318356884
    vertex 4569.464931664721 10787.412019869138 455.25621884779224
    vertex 4569.464931664721 10786.485265374755 454.99116058377524
  endloop
endfacet
facet normal 1.0 0.0 0.0
  outer loop
    vertex 4569.464931664721 10787.944478651638 454.33397318356884
    vertex 4569.464931664721 10786.485265374755 454.99116058377524
    vertex 4569.464931664721 10786.76211600974 453.96630196612836
  endloop
endfacet
facet normal 1.0 0.0 0.0
  outer loop
    vertex 4569.464931664721 10787.152889712033 461.70476802017805
    vertex 4569.464931664721 10789.203690235174 461.6591373686373
    vertex 4569.464931664721 10788.671231452678 462.5813830328607
  endloop
endfacet
facet normal 1.0 0.0 0.0
  outer loop
    vertex 4569.464931664721 10789.203690235174 461.6591373686373
    vertex 4569.464931664721 10787.152889712033 461.70476802017805
    vertex 4569.464931664721 10787.685348494533 460.78252235595465
  endloop
endfacet
endsolid thesis3
