solid thesis3
facet normal -2.4310953111676944e-16 1.0 -4.769541189121801e-16
  outer loop
    vertex 3439.5822895182273 11430.359358079693 407.65964323753303
    vertex 3440.162303665063 11430.359358079693 404.64208295524384
    vertex 3439.67491515333 11430.359358079693 406.4610416440567
  endloop
endfacet
facet normal -2.4310953111676944e-16 1.0 -4.769541189121801e-16
  outer loop
    vertex 3440.162303665063 11430.359358079693 404.64208295524384
    vertex 3439.5822895182273 11430.359358079693 407.65964323753303
    vertex 3440.6813883087602 11430.359358079693 403.55775070872534
  endloop
endfacet
facet normal -2.4310953111676944e-16 1.0 -4.769541189121801e-16
  outer loop
    vertex 3440.6813883087602 11430.359358079693 403.55775070872534
    vertex 3439.5822895182273 11430.359358079693 407.65964323753303
    vertex 3439.744834786024 11430.359358079693 408.8595331505002
  endloop
endfacet
facet normal -2.4310953111676944e-16 1.0 -4.769541189121801e-16
  outer loop
    vertex 3440.6813883087602 11430.359358079693 403.55775070872534
    vertex 3439.744834786024 11430.359358079693 408.8595331505002
    vertex 3441.422075952492 11430.359358079693 402.5999839006947
  endloop
endfacet
facet normal -2.4310953111676944e-16 1.0 -4.769541189121801e-16
  outer loop
    vertex 3441.422075952492 11430.359358079693 402.5999839006947
    vertex 3439.744834786024 11430.359358079693 408.8595331505002
    vertex 3440.736265586579 11430.359358079693 406.6647025475107
  endloop
endfacet
facet normal -2.4310953111676944e-16 1.0 -4.769541189121801e-16
  outer loop
    vertex 3440.736265586579 11430.359358079693 406.6647025475107
    vertex 3439.744834786024 11430.359358079693 408.8595331505002
    vertex 3440.384280670464 11430.359358079693 409.9854417663711
  endloop
endfacet
facet normal -2.4310953111676944e-16 1.0 -4.769541189121801e-16
  outer loop
    vertex 3440.736265586579 11430.359358079693 406.6647025475107
    vertex 3440.384280670464 11430.359358079693 409.9854417663711
    vertex 3440.6664964886727 11430.359358079693 407.6275549947526
  endloop
endfacet
facet normal -2.4310953111676944e-16 1.0 -4.769541189121801e-16
  outer loop
    vertex 3440.6664964886727 11430.359358079693 407.6275549947526
    vertex 3440.384280670464 11430.359358079693 409.9854417663711
    vertex 3440.7592001079856 11430.359358079693 408.4859251180402
  endloop
endfacet
facet normal -2.4310953111676944e-16 1.0 -4.769541189121801e-16
  outer loop
    vertex 3440.7592001079856 11430.359358079693 408.4859251180402
    vertex 3440.384280670464 11430.359358079693 409.9854417663711
    vertex 3441.2149216741677 11430.359358079693 409.293754001135
  endloop
endfacet
facet normal -2.4310953111676944e-16 1.0 -4.769541189121801e-16
  outer loop
    vertex 3441.2149216741677 11430.359358079693 409.293754001135
    vertex 3440.384280670464 11430.359358079693 409.9854417663711
    vertex 3441.381314111905 11430.359358079693 410.8307128038382
  endloop
endfacet
facet normal -2.4310953111676944e-16 1.0 -4.769541189121801e-16
  outer loop
    vertex 3441.2149216741677 11430.359358079693 409.293754001135
    vertex 3441.381314111905 11430.359358079693 410.8307128038382
    vertex 3441.870164563488 11430.359358079693 409.8592160984178
  endloop
endfacet
facet normal -2.4310953111676944e-16 1.0 -4.769541189121801e-16
  outer loop
    vertex 3441.870164563488 11430.359358079693 409.8592160984178
    vertex 3441.381314111905 11430.359358079693 410.8307128038382
    vertex 3442.5729301612796 11430.359358079693 411.150005361956
  endloop
endfacet
facet normal -2.4310953111676944e-16 1.0 -4.769541189121801e-16
  outer loop
    vertex 3441.870164563488 11430.359358079693 409.8592160984178
    vertex 3442.5729301612796 11430.359358079693 411.150005361956
    vertex 3442.6353216042676 11430.359358079693 410.0642393095777
  endloop
endfacet
facet normal -2.4310953111676944e-16 1.0 -4.769541189121801e-16
  outer loop
    vertex 3442.6353216042676 11430.359358079693 410.0642393095777
    vertex 3442.5729301612796 11430.359358079693 411.150005361956
    vertex 3443.4855096407096 11430.359358079693 409.9021562131136
  endloop
endfacet
facet normal -2.4310953111676944e-16 1.0 -4.769541189121801e-16
  outer loop
    vertex 3443.4855096407096 11430.359358079693 409.9021562131136
    vertex 3442.5729301612796 11430.359358079693 411.150005361956
    vertex 3443.8590219687244 11430.359358079693 410.91649589114684
  endloop
endfacet
facet normal -2.4310953111676944e-16 1.0 -4.769541189121801e-16
  outer loop
    vertex 3443.4855096407096 11430.359358079693 409.9021562131136
    vertex 3443.8590219687244 11430.359358079693 410.91649589114684
    vertex 3443.93085817412 11430.359358079693 409.6450341174657
  endloop
endfacet
facet normal -2.4310953111676944e-16 1.0 -4.769541189121801e-16
  outer loop
    vertex 3441.422075952492 11430.359358079693 402.5999839006947
    vertex 3441.179931199622 11430.359358079693 405.00891993806357
    vertex 3442.538806640698 11430.359358079693 401.94464137923086
  endloop
endfacet
facet normal -2.4310953111676944e-16 1.0 -4.769541189121801e-16
  outer loop
    vertex 3441.179931199622 11430.359358079693 405.00891993806357
    vertex 3441.422075952492 11430.359358079693 402.5999839006947
    vertex 3440.736265586579 11430.359358079693 406.6647025475107
  endloop
endfacet
facet normal -2.4310953111676944e-16 1.0 -4.769541189121801e-16
  outer loop
    vertex 3442.538806640698 11430.359358079693 401.94464137923086
    vertex 3441.179931199622 11430.359358079693 405.00891993806357
    vertex 3441.626910313119 11430.359358079693 404.09339093500563
  endloop
endfacet
facet normal -2.4310953111676944e-16 1.0 -4.769541189121801e-16
  outer loop
    vertex 3442.538806640698 11430.359358079693 401.94464137923086
    vertex 3441.626910313119 11430.359358079693 404.09339093500563
    vertex 3441.7492863210705 11430.359358079693 403.93795504974634
  endloop
endfacet
facet normal -2.4310953111676944e-16 1.0 -4.769541189121801e-16
  outer loop
    vertex 3442.538806640698 11430.359358079693 401.94464137923086
    vertex 3441.7492863210705 11430.359358079693 403.93795504974634
    vertex 3442.476244067412 11430.359358079693 403.2320254338645
  endloop
endfacet
facet normal -2.4310953111676944e-16 1.0 -4.769541189121801e-16
  outer loop
    vertex 3442.476244067412 11430.359358079693 403.2320254338645
    vertex 3441.7492863210705 11430.359358079693 403.93795504974634
    vertex 3443.93085817412 11430.359358079693 409.6450341174657
  endloop
endfacet
facet normal -2.4310953111676944e-16 1.0 -4.769541189121801e-16
  outer loop
    vertex 3442.476244067412 11430.359358079693 403.2320254338645
    vertex 3443.93085817412 11430.359358079693 409.6450341174657
    vertex 3444.6485679322805 11430.359358079693 408.923086516186
  endloop
endfacet
facet normal -2.4310953111676944e-16 1.0 -4.769541189121801e-16
  outer loop
    vertex 3444.6485679322805 11430.359358079693 408.923086516186
    vertex 3443.93085817412 11430.359358079693 409.6450341174657
    vertex 3443.8590219687244 11430.359358079693 410.91649589114684
  endloop
endfacet
facet normal -2.4310953111676944e-16 1.0 -4.769541189121801e-16
  outer loop
    vertex 3444.6485679322805 11430.359358079693 408.923086516186
    vertex 3443.8590219687244 11430.359358079693 410.91649589114684
    vertex 3444.9757526569297 11430.359358079693 410.261153369683
  endloop
endfacet
facet normal -2.4310953111676944e-16 1.0 -4.769541189121801e-16
  outer loop
    vertex 3444.6485679322805 11430.359358079693 408.923086516186
    vertex 3444.9757526569297 11430.359358079693 410.261153369683
    vertex 3444.7935592866143 11430.359358079693 408.7333981385735
  endloop
endfacet
facet normal -2.4310953111676944e-16 1.0 -4.769541189121801e-16
  outer loop
    vertex 3444.7935592866143 11430.359358079693 408.7333981385735
    vertex 3444.9757526569297 11430.359358079693 410.261153369683
    vertex 3445.21456369905 11430.359358079693 407.86465891021294
  endloop
endfacet
facet normal -2.4310953111676944e-16 1.0 -4.769541189121801e-16
  outer loop
    vertex 3445.21456369905 11430.359358079693 407.86465891021294
    vertex 3444.9757526569297 11430.359358079693 410.261153369683
    vertex 3445.6582293120923 11430.359358079693 406.2088763007659
  endloop
endfacet
facet normal -2.4310953111676944e-16 1.0 -4.769541189121801e-16
  outer loop
    vertex 3442.476244067412 11430.359358079693 403.2320254338645
    vertex 3443.824924092071 11430.359358079693 401.71103620397633
    vertex 3442.538806640698 11430.359358079693 401.94464137923086
  endloop
endfacet
facet normal -2.4310953111676944e-16 1.0 -4.769541189121801e-16
  outer loop
    vertex 3443.824924092071 11430.359358079693 401.71103620397633
    vertex 3442.476244067412 11430.359358079693 403.2320254338645
    vertex 3442.9283369541104 11430.359358079693 402.9497330690828
  endloop
endfacet
facet normal -2.4310953111676944e-16 1.0 -4.769541189121801e-16
  outer loop
    vertex 3443.824924092071 11430.359358079693 401.71103620397633
    vertex 3442.9283369541104 11430.359358079693 402.9497330690828
    vertex 3443.749995366739 11430.359358079693 402.7934429016752
  endloop
endfacet
facet normal -2.4310953111676944e-16 1.0 -4.769541189121801e-16
  outer loop
    vertex 3443.824924092071 11430.359358079693 401.71103620397633
    vertex 3443.749995366739 11430.359358079693 402.7934429016752
    vertex 3445.016540141445 11430.359358079693 402.0303287620941
  endloop
endfacet
facet normal -2.4310953111676944e-16 1.0 -4.769541189121801e-16
  outer loop
    vertex 3445.016540141445 11430.359358079693 402.0303287620941
    vertex 3443.749995366739 11430.359358079693 402.7934429016752
    vertex 3444.540226972207 11430.359358079693 403.0051848221939
  endloop
endfacet
facet normal -2.4310953111676944e-16 1.0 -4.769541189121801e-16
  outer loop
    vertex 3445.016540141445 11430.359358079693 402.0303287620941
    vertex 3444.540226972207 11430.359358079693 403.0051848221939
    vertex 3445.1736589470725 11430.359358079693 403.55136528384475
  endloop
endfacet
facet normal -2.4310953111676944e-16 1.0 -4.769541189121801e-16
  outer loop
    vertex 3445.016540141445 11430.359358079693 402.0303287620941
    vertex 3445.1736589470725 11430.359358079693 403.55136528384475
    vertex 3446.013547938958 11430.359358079693 402.8756955040066
  endloop
endfacet
facet normal -2.4310953111676944e-16 1.0 -4.769541189121801e-16
  outer loop
    vertex 3446.013547938958 11430.359358079693 402.8756955040066
    vertex 3445.1736589470725 11430.359358079693 403.55136528384475
    vertex 3445.6227575083412 11430.359358079693 404.3842943755569
  endloop
endfacet
facet normal -2.4310953111676944e-16 1.0 -4.769541189121801e-16
  outer loop
    vertex 3446.013547938958 11430.359358079693 402.8756955040066
    vertex 3445.6227575083412 11430.359358079693 404.3842943755569
    vertex 3446.6529938233984 11430.359358079693 404.00160411987747
  endloop
endfacet
facet normal -2.4310953111676944e-16 1.0 -4.769541189121801e-16
  outer loop
    vertex 3446.6529938233984 11430.359358079693 404.00160411987747
    vertex 3445.6227575083412 11430.359358079693 404.3842943755569
    vertex 3445.728898546372 11430.359358079693 405.1925153694676
  endloop
endfacet
facet normal -2.4310953111676944e-16 1.0 -4.769541189121801e-16
  outer loop
    vertex 3446.6529938233984 11430.359358079693 404.00160411987747
    vertex 3445.728898546372 11430.359358079693 405.1925153694676
    vertex 3445.6582293120923 11430.359358079693 406.2088763007659
  endloop
endfacet
facet normal -2.4310953111676944e-16 1.0 -4.769541189121801e-16
  outer loop
    vertex 3446.6529938233984 11430.359358079693 404.00160411987747
    vertex 3445.6582293120923 11430.359358079693 406.2088763007659
    vertex 3444.9757526569297 11430.359358079693 410.261153369683
  endloop
endfacet
facet normal -2.4310953111676944e-16 1.0 -4.769541189121801e-16
  outer loop
    vertex 3446.6529938233984 11430.359358079693 404.00160411987747
    vertex 3444.9757526569297 11430.359358079693 410.261153369683
    vertex 3445.7164659445907 11430.359358079693 409.3032908572069
  endloop
endfacet
facet normal -2.4310953111676944e-16 1.0 -4.769541189121801e-16
  outer loop
    vertex 3446.6529938233984 11430.359358079693 404.00160411987747
    vertex 3445.7164659445907 11430.359358079693 409.3032908572069
    vertex 3446.8155647351236 11430.359358079693 405.20139832839925
  endloop
endfacet
facet normal -2.4310953111676944e-16 1.0 -4.769541189121801e-16
  outer loop
    vertex 3446.8155647351236 11430.359358079693 405.20139832839925
    vertex 3445.7164659445907 11430.359358079693 409.3032908572069
    vertex 3446.235550588288 11430.359358079693 408.21895861068845
  endloop
endfacet
facet normal -2.4310953111676944e-16 1.0 -4.769541189121801e-16
  outer loop
    vertex 3446.8155647351236 11430.359358079693 405.20139832839925
    vertex 3446.235550588288 11430.359358079693 408.21895861068845
    vertex 3446.722939100021 11430.359358079693 406.39999992187563
  endloop
endfacet
facet normal -2.4310953111676944e-16 1.0 -4.769541189121801e-16
  outer loop
    vertex 3448.0514196387053 11430.359358079693 411.98599321058236
    vertex 3448.5924863271553 11430.359358079693 410.71932459744045
    vertex 3447.654099349263 11430.359358079693 411.2611025717306
  endloop
endfacet
facet normal -2.4310953111676944e-16 1.0 -4.769541189121801e-16
  outer loop
    vertex 3448.5924863271553 11430.359358079693 410.71932459744045
    vertex 3448.0514196387053 11430.359358079693 411.98599321058236
    vertex 3449.2105119703197 11430.359358079693 412.9285400473836
  endloop
endfacet
facet normal -2.4310953111676944e-16 1.0 -4.769541189121801e-16
  outer loop
    vertex 3448.5924863271553 11430.359358079693 410.71932459744045
    vertex 3449.2105119703197 11430.359358079693 412.9285400473836
    vertex 3448.9104945617773 11430.359358079693 411.28848687236086
  endloop
endfacet
facet normal -2.4310953111676944e-16 1.0 -4.769541189121801e-16
  outer loop
    vertex 3448.9104945617773 11430.359358079693 411.28848687236086
    vertex 3449.2105119703197 11430.359358079693 412.9285400473836
    vertex 3449.6869208440035 11430.359358079693 411.95370963121263
  endloop
endfacet
facet normal -2.4310953111676944e-16 1.0 -4.769541189121801e-16
  outer loop
    vertex 3449.6869208440035 11430.359358079693 411.95370963121263
    vertex 3449.2105119703197 11430.359358079693 412.9285400473836
    vertex 3450.5653040990596 11430.359358079693 413.2915555041915
  endloop
endfacet
facet normal -2.4310953111676944e-16 1.0 -4.769541189121801e-16
  outer loop
    vertex 3449.6869208440035 11430.359358079693 411.95370963121263
    vertex 3450.5653040990596 11430.359358079693 413.2915555041915
    vertex 3450.5900836950154 11430.359358079693 412.195711387775
  endloop
endfacet
facet normal -2.4310953111676944e-16 1.0 -4.769541189121801e-16
  outer loop
    vertex 3450.5900836950154 11430.359358079693 412.195711387775
    vertex 3450.5653040990596 11430.359358079693 413.2915555041915
    vertex 3451.5381107719045 11430.359358079693 412.01953192703405
  endloop
endfacet
facet normal -2.4310953111676944e-16 1.0 -4.769541189121801e-16
  outer loop
    vertex 3451.5381107719045 11430.359358079693 412.01953192703405
    vertex 3450.5653040990596 11430.359358079693 413.2915555041915
    vertex 3452.041376762789 11430.359358079693 413.0013493249444
  endloop
endfacet
facet normal -2.4310953111676944e-16 1.0 -4.769541189121801e-16
  outer loop
    vertex 3451.5381107719045 11430.359358079693 412.01953192703405
    vertex 3452.041376762789 11430.359358079693 413.0013493249444
    vertex 3452.258279748371 11430.359358079693 411.33855552746644
  endloop
endfacet
facet normal -2.4310953111676944e-16 1.0 -4.769541189121801e-16
  outer loop
    vertex 3452.258279748371 11430.359358079693 411.33855552746644
    vertex 3452.041376762789 11430.359358079693 413.0013493249444
    vertex 3452.443146831454 11430.359358079693 410.6486221807522
  endloop
endfacet
facet normal -2.4310953111676944e-16 1.0 -4.769541189121801e-16
  outer loop
    vertex 3452.262707879661 11430.359358079693 409.76664087026325
    vertex 3449.7832839200655 11430.359358079693 403.41517583355807
    vertex 3449.534563454144 11430.359358079693 404.34341324925816
  endloop
endfacet
facet normal -2.4310953111676944e-16 1.0 -4.769541189121801e-16
  outer loop
    vertex 3449.7832839200655 11430.359358079693 403.41517583355807
    vertex 3452.262707879661 11430.359358079693 409.76664087026325
    vertex 3450.925141513241 11430.359358079693 404.8236194426624
  endloop
endfacet
facet normal -2.4310953111676944e-16 1.0 -4.769541189121801e-16
  outer loop
    vertex 3450.925141513241 11430.359358079693 404.8236194426624
    vertex 3452.262707879661 11430.359358079693 409.76664087026325
    vertex 3453.292044058344 11430.359358079693 409.43745909864015
  endloop
endfacet
facet normal -2.4310953111676944e-16 1.0 -4.769541189121801e-16
  outer loop
    vertex 3453.292044058344 11430.359358079693 409.43745909864015
    vertex 3452.262707879661 11430.359358079693 409.76664087026325
    vertex 3452.443146831454 11430.359358079693 410.6486221807522
  endloop
endfacet
facet normal -2.4310953111676944e-16 1.0 -4.769541189121801e-16
  outer loop
    vertex 3453.292044058344 11430.359358079693 409.43745909864015
    vertex 3452.443146831454 11430.359358079693 410.6486221807522
    vertex 3452.041376762789 11430.359358079693 413.0013493249444
  endloop
endfacet
facet normal -2.4310953111676944e-16 1.0 -4.769541189121801e-16
  outer loop
    vertex 3453.292044058344 11430.359358079693 409.43745909864015
    vertex 3452.041376762789 11430.359358079693 413.0013493249444
    vertex 3453.218772609451 11430.359358079693 411.9186220145836
  endloop
endfacet
facet normal -2.4310953111676944e-16 1.0 -4.769541189121801e-16
  outer loop
    vertex 3453.292044058344 11430.359358079693 409.43745909864015
    vertex 3453.218772609451 11430.359358079693 411.9186220145836
    vertex 3453.5414501661767 11430.359358079693 410.71437297841965
  endloop
endfacet
facet normal -2.4310953111676944e-16 1.0 -4.769541189121801e-16
  outer loop
    vertex 3450.925141513241 11430.359358079693 404.8236194426624
    vertex 3455.2148940129246 11430.359358079693 404.8705713715403
    vertex 3449.7832839200655 11430.359358079693 403.41517583355807
  endloop
endfacet
facet normal -2.4310953111676944e-16 1.0 -4.769541189121801e-16
  outer loop
    vertex 3455.2148940129246 11430.359358079693 404.8705713715403
    vertex 3450.925141513241 11430.359358079693 404.8236194426624
    vertex 3454.939273065639 11430.359358079693 405.89920275043954
  endloop
endfacet
facet normal -2.4310953111676944e-16 1.0 -4.769541189121801e-16
  outer loop
    vertex 3460.821704399784 11430.359358079693 408.1879889708532
    vertex 3459.6321326892453 11430.359358079693 406.0541669076359
    vertex 3459.1783633682358 11430.359358079693 407.74765706856107
  endloop
endfacet
facet normal -2.4310953111676944e-16 1.0 -4.769541189121801e-16
  outer loop
    vertex 3459.6321326892453 11430.359358079693 406.0541669076359
    vertex 3460.821704399784 11430.359358079693 408.1879889708532
    vertex 3461.275473720794 11430.359358079693 406.49449880992813
  endloop
endfacet
facet normal -2.4310953111676944e-16 1.0 -4.769541189121801e-16
  outer loop
    vertex 3396.795746455529 11430.359358079693 377.58224971439626
    vertex 3396.5018144547153 11430.359358079693 375.7690381004149
    vertex 3396.0752124498126 11430.359358079693 377.1605419398142
  endloop
endfacet
facet normal -2.4310953111676944e-16 1.0 -4.769541189121801e-16
  outer loop
    vertex 3396.5018144547153 11430.359358079693 375.7690381004149
    vertex 3396.795746455529 11430.359358079693 377.58224971439626
    vertex 3396.5967563118165 11430.359358079693 376.1171808950079
  endloop
endfacet
facet normal -2.4310953111676944e-16 1.0 -4.769541189121801e-16
  outer loop
    vertex 3396.5967563118165 11430.359358079693 376.1171808950079
    vertex 3396.795746455529 11430.359358079693 377.58224971439626
    vertex 3396.7629292066727 11430.359358079693 376.3499332257515
  endloop
endfacet
facet normal -2.4310953111676944e-16 1.0 -4.769541189121801e-16
  outer loop
    vertex 3396.7629292066727 11430.359358079693 376.3499332257515
    vertex 3396.795746455529 11430.359358079693 377.58224971439626
    vertex 3397.2026545036874 11430.359358079693 376.61567144558785
  endloop
endfacet
facet normal -2.4310953111676944e-16 1.0 -4.769541189121801e-16
  outer loop
    vertex 3397.2026545036874 11430.359358079693 376.61567144558785
    vertex 3396.795746455529 11430.359358079693 377.58224971439626
    vertex 3398.0627776078595 11430.359358079693 377.92174968844824
  endloop
endfacet
facet normal -2.4310953111676944e-16 1.0 -4.769541189121801e-16
  outer loop
    vertex 3397.2026545036874 11430.359358079693 376.61567144558785
    vertex 3398.0627776078595 11430.359358079693 377.92174968844824
    vertex 3398.2438231649307 11430.359358079693 376.8946517475526
  endloop
endfacet
facet normal -2.4310953111676944e-16 1.0 -4.769541189121801e-16
  outer loop
    vertex 3398.2438231649307 11430.359358079693 376.8946517475526
    vertex 3398.0627776078595 11430.359358079693 377.92174968844824
    vertex 3398.97835390278 11430.359358079693 376.8629299716592
  endloop
endfacet
facet normal -2.4310953111676944e-16 1.0 -4.769541189121801e-16
  outer loop
    vertex 3398.97835390278 11430.359358079693 376.8629299716592
    vertex 3398.0627776078595 11430.359358079693 377.92174968844824
    vertex 3399.115121243741 11430.359358079693 377.9078959526232
  endloop
endfacet
facet normal -2.4310953111676944e-16 1.0 -4.769541189121801e-16
  outer loop
    vertex 3398.97835390278 11430.359358079693 376.8629299716592
    vertex 3399.115121243741 11430.359358079693 377.9078959526232
    vertex 3399.766685603357 11430.359358079693 376.63042026936745
  endloop
endfacet
facet normal -2.4310953111676944e-16 1.0 -4.769541189121801e-16
  outer loop
    vertex 3399.766685603357 11430.359358079693 376.63042026936745
    vertex 3399.115121243741 11430.359358079693 377.9078959526232
    vertex 3400.105945439019 11430.359358079693 377.6221446010182
  endloop
endfacet
facet normal -2.4310953111676944e-16 1.0 -4.769541189121801e-16
  outer loop
    vertex 3395.6283763326232 11430.359358079693 376.57029775651495
    vertex 3395.7051067683396 11430.359358079693 374.6278661491506
    vertex 3395.40594469437 11430.359358079693 375.7443542089049
  endloop
endfacet
facet normal -2.4310953111676944e-16 1.0 -4.769541189121801e-16
  outer loop
    vertex 3395.7051067683396 11430.359358079693 374.6278661491506
    vertex 3395.6283763326232 11430.359358079693 376.57029775651495
    vertex 3396.4269048872557 11430.359358079693 374.0414907837257
  endloop
endfacet
facet normal -2.4310953111676944e-16 1.0 -4.769541189121801e-16
  outer loop
    vertex 3396.4269048872557 11430.359358079693 374.0414907837257
    vertex 3395.6283763326232 11430.359358079693 376.57029775651495
    vertex 3396.0752124498126 11430.359358079693 377.1605419398142
  endloop
endfacet
facet normal -2.4310953111676944e-16 1.0 -4.769541189121801e-16
  outer loop
    vertex 3396.4269048872557 11430.359358079693 374.0414907837257
    vertex 3396.0752124498126 11430.359358079693 377.1605419398142
    vertex 3396.6497029923958 11430.359358079693 375.21711056393247
  endloop
endfacet
facet normal -2.4310953111676944e-16 1.0 -4.769541189121801e-16
  outer loop
    vertex 3396.4269048872557 11430.359358079693 374.0414907837257
    vertex 3396.6497029923958 11430.359358079693 375.21711056393247
    vertex 3397.344038826471 11430.359358079693 373.83015869425805
  endloop
endfacet
facet normal -2.4310953111676944e-16 1.0 -4.769541189121801e-16
  outer loop
    vertex 3396.6497029923958 11430.359358079693 375.21711056393247
    vertex 3396.0752124498126 11430.359358079693 377.1605419398142
    vertex 3396.5018144547153 11430.359358079693 375.7690381004149
  endloop
endfacet
facet normal -2.4310953111676944e-16 1.0 -4.769541189121801e-16
  outer loop
    vertex 3397.344038826471 11430.359358079693 373.83015869425805
    vertex 3396.6497029923958 11430.359358079693 375.21711056393247
    vertex 3396.9913939123735 11430.359358079693 374.94565091319356
  endloop
endfacet
facet normal -2.4310953111676944e-16 1.0 -4.769541189121801e-16
  outer loop
    vertex 3397.344038826471 11430.359358079693 373.83015869425805
    vertex 3396.9913939123735 11430.359358079693 374.94565091319356
    vertex 3397.3896858363437 11430.359358079693 374.8641464748103
  endloop
endfacet
facet normal -2.4310953111676944e-16 1.0 -4.769541189121801e-16
  outer loop
    vertex 3397.344038826471 11430.359358079693 373.83015869425805
    vertex 3397.3896858363437 11430.359358079693 374.8641464748103
    vertex 3399.4987741578307 11430.359358079693 374.0176279919553
  endloop
endfacet
facet normal -2.4310953111676944e-16 1.0 -4.769541189121801e-16
  outer loop
    vertex 3399.4987741578307 11430.359358079693 374.0176279919553
    vertex 3397.3896858363437 11430.359358079693 374.8641464748103
    vertex 3399.66061606348 11430.359358079693 375.06931268227805
  endloop
endfacet
facet normal -2.4310953111676944e-16 1.0 -4.769541189121801e-16
  outer loop
    vertex 3399.4987741578307 11430.359358079693 374.0176279919553
    vertex 3399.66061606348 11430.359358079693 375.06931268227805
    vertex 3399.9456817731734 11430.359358079693 373.85498558207587
  endloop
endfacet
facet normal -2.4310953111676944e-16 1.0 -4.769541189121801e-16
  outer loop
    vertex 3399.9456817731734 11430.359358079693 373.85498558207587
    vertex 3399.66061606348 11430.359358079693 375.06931268227805
    vertex 3400.256383851032 11430.359358079693 373.54834765868134
  endloop
endfacet
facet normal -2.4310953111676944e-16 1.0 -4.769541189121801e-16
  outer loop
    vertex 3400.256383851032 11430.359358079693 373.54834765868134
    vertex 3399.66061606348 11430.359358079693 375.06931268227805
    vertex 3400.5033563844877 11430.359358079693 374.7841946323033
  endloop
endfacet
facet normal -2.4310953111676944e-16 1.0 -4.769541189121801e-16
  outer loop
    vertex 3400.256383851032 11430.359358079693 373.54834765868134
    vertex 3400.5033563844877 11430.359358079693 374.7841946323033
    vertex 3400.384116260636 11430.359358079693 373.0716438162644
  endloop
endfacet
facet normal -2.4310953111676944e-16 1.0 -4.769541189121801e-16
  outer loop
    vertex 3396.8800152627064 11430.359358079693 372.2000124529758
    vertex 3396.7417144837414 11430.359358079693 371.0604710817979
    vertex 3396.340696506722 11430.359358079693 371.30259667679564
  endloop
endfacet
facet normal -2.4310953111676944e-16 1.0 -4.769541189121801e-16
  outer loop
    vertex 3396.7417144837414 11430.359358079693 371.0604710817979
    vertex 3396.8800152627064 11430.359358079693 372.2000124529758
    vertex 3397.4807014868697 11430.359358079693 370.76098983280326
  endloop
endfacet
facet normal -2.4310953111676944e-16 1.0 -4.769541189121801e-16
  outer loop
    vertex 3397.4807014868697 11430.359358079693 370.76098983280326
    vertex 3396.8800152627064 11430.359358079693 372.2000124529758
    vertex 3397.2208060463104 11430.359358079693 371.9820612862931
  endloop
endfacet
facet normal -2.4310953111676944e-16 1.0 -4.769541189121801e-16
  outer loop
    vertex 3397.4807014868697 11430.359358079693 370.76098983280326
    vertex 3397.2208060463104 11430.359358079693 371.9820612862931
    vertex 3398.5707526742294 11430.359358079693 370.7572398049453
  endloop
endfacet
facet normal -2.4310953111676944e-16 1.0 -4.769541189121801e-16
  outer loop
    vertex 3398.5707526742294 11430.359358079693 370.7572398049453
    vertex 3397.2208060463104 11430.359358079693 371.9820612862931
    vertex 3397.642639096965 11430.359358079693 371.8127001670549
  endloop
endfacet
facet normal -2.4310953111676944e-16 1.0 -4.769541189121801e-16
  outer loop
    vertex 3398.5707526742294 11430.359358079693 370.7572398049453
    vertex 3397.642639096965 11430.359358079693 371.8127001670549
    vertex 3398.4364968918558 11430.359358079693 371.81031244690286
  endloop
endfacet
facet normal -2.4310953111676944e-16 1.0 -4.769541189121801e-16
  outer loop
    vertex 3398.5707526742294 11430.359358079693 370.7572398049453
    vertex 3398.4364968918558 11430.359358079693 371.81031244690286
    vertex 3399.92554480297 11430.359358079693 371.12025526175324
  endloop
endfacet
facet normal -2.4310953111676944e-16 1.0 -4.769541189121801e-16
  outer loop
    vertex 3399.92554480297 11430.359358079693 371.12025526175324
    vertex 3398.4364968918558 11430.359358079693 371.81031244690286
    vertex 3399.515277400132 11430.359358079693 372.09937081290593
  endloop
endfacet
facet normal -2.4310953111676944e-16 1.0 -4.769541189121801e-16
  outer loop
    vertex 3399.92554480297 11430.359358079693 371.12025526175324
    vertex 3399.515277400132 11430.359358079693 372.09937081290593
    vertex 3400.001792471844 11430.359358079693 372.3910837338041
  endloop
endfacet
facet normal -2.4310953111676944e-16 1.0 -4.769541189121801e-16
  outer loop
    vertex 3399.92554480297 11430.359358079693 371.12025526175324
    vertex 3400.001792471844 11430.359358079693 372.3910837338041
    vertex 3400.711320143158 11430.359358079693 371.5997566553733
  endloop
endfacet
facet normal -2.4310953111676944e-16 1.0 -4.769541189121801e-16
  outer loop
    vertex 3400.711320143158 11430.359358079693 371.5997566553733
    vertex 3400.001792471844 11430.359358079693 372.3910837338041
    vertex 3400.2549219111825 11430.359358079693 372.7008856752889
  endloop
endfacet
facet normal -2.4310953111676944e-16 1.0 -4.769541189121801e-16
  outer loop
    vertex 3400.711320143158 11430.359358079693 371.5997566553733
    vertex 3400.2549219111825 11430.359358079693 372.7008856752889
    vertex 3400.384116260636 11430.359358079693 373.0716438162644
  endloop
endfacet
facet normal -2.4310953111676944e-16 1.0 -4.769541189121801e-16
  outer loop
    vertex 3400.711320143158 11430.359358079693 371.5997566553733
    vertex 3400.384116260636 11430.359358079693 373.0716438162644
    vertex 3401.1991274620596 11430.359358079693 372.1875416203666
  endloop
endfacet
facet normal -2.4310953111676944e-16 1.0 -4.769541189121801e-16
  outer loop
    vertex 3401.1991274620596 11430.359358079693 372.1875416203666
    vertex 3400.384116260636 11430.359358079693 373.0716438162644
    vertex 3400.5033563844877 11430.359358079693 374.7841946323033
  endloop
endfacet
facet normal -2.4310953111676944e-16 1.0 -4.769541189121801e-16
  outer loop
    vertex 3401.1991274620596 11430.359358079693 372.1875416203666
    vertex 3400.5033563844877 11430.359358079693 374.7841946323033
    vertex 3401.207698784447 11430.359358079693 374.1125175087748
  endloop
endfacet
facet normal -2.4310953111676944e-16 1.0 -4.769541189121801e-16
  outer loop
    vertex 3401.1991274620596 11430.359358079693 372.1875416203666
    vertex 3401.207698784447 11430.359358079693 374.1125175087748
    vertex 3401.493423439699 11430.359358079693 373.0461785783974
  endloop
endfacet
facet normal -2.4310953111676944e-16 1.0 -4.769541189121801e-16
  outer loop
    vertex 3407.944612266132 11430.359358079693 380.2871883603682
    vertex 3405.736511447024 11430.359358079693 378.5930457399403
    vertex 3405.460890499739 11430.359358079693 379.6216771188396
  endloop
endfacet
facet normal -2.4310953111676944e-16 1.0 -4.769541189121801e-16
  outer loop
    vertex 3405.736511447024 11430.359358079693 378.5930457399403
    vertex 3407.944612266132 11430.359358079693 380.2871883603682
    vertex 3408.220233213418 11430.359358079693 379.2585569814689
  endloop
endfacet
facet normal -2.4310953111676944e-16 1.0 -4.769541189121801e-16
  outer loop
    vertex 3404.842435867651 11430.359358079693 381.92978122796825
    vertex 3404.4197218384957 11430.359358079693 379.3426968168748
    vertex 3403.8012672064074 11430.359358079693 381.65080092600346
  endloop
endfacet
facet normal -2.4310953111676944e-16 1.0 -4.769541189121801e-16
  outer loop
    vertex 3404.4197218384957 11430.359358079693 379.3426968168748
    vertex 3404.842435867651 11430.359358079693 381.92978122796825
    vertex 3404.6953427857807 11430.359358079693 378.31406543797544
  endloop
endfacet
facet normal -2.4310953111676944e-16 1.0 -4.769541189121801e-16
  outer loop
    vertex 3404.6953427857807 11430.359358079693 378.31406543797544
    vertex 3404.842435867651 11430.359358079693 381.92978122796825
    vertex 3405.821342057678 11430.359358079693 374.11177894596864
  endloop
endfacet
facet normal -2.4310953111676944e-16 1.0 -4.769541189121801e-16
  outer loop
    vertex 3405.821342057678 11430.359358079693 374.11177894596864
    vertex 3404.842435867651 11430.359358079693 381.92978122796825
    vertex 3406.77681828764 11430.359358079693 373.30562649718536
  endloop
endfacet
facet normal -2.4310953111676944e-16 1.0 -4.769541189121801e-16
  outer loop
    vertex 3406.77681828764 11430.359358079693 373.30562649718536
    vertex 3404.842435867651 11430.359358079693 381.92978122796825
    vertex 3406.77175685472 11430.359358079693 374.7294572801184
  endloop
endfacet
facet normal -2.4310953111676944e-16 1.0 -4.769541189121801e-16
  outer loop
    vertex 3406.77681828764 11430.359358079693 373.30562649718536
    vertex 3406.77175685472 11430.359358079693 374.7294572801184
    vertex 3407.742301083485 11430.359358079693 373.2147487945481
  endloop
endfacet
facet normal -2.4310953111676944e-16 1.0 -4.769541189121801e-16
  outer loop
    vertex 3406.77175685472 11430.359358079693 374.7294572801184
    vertex 3404.842435867651 11430.359358079693 381.92978122796825
    vertex 3405.460890499739 11430.359358079693 379.6216771188396
  endloop
endfacet
facet normal -2.4310953111676944e-16 1.0 -4.769541189121801e-16
  outer loop
    vertex 3406.77175685472 11430.359358079693 374.7294572801184
    vertex 3405.460890499739 11430.359358079693 379.6216771188396
    vertex 3405.736511447024 11430.359358079693 378.5930457399403
  endloop
endfacet
facet normal -2.4310953111676944e-16 1.0 -4.769541189121801e-16
  outer loop
    vertex 3407.742301083485 11430.359358079693 373.2147487945481
    vertex 3406.77175685472 11430.359358079693 374.7294572801184
    vertex 3407.2062983180167 11430.359358079693 374.36183751330424
  endloop
endfacet
facet normal -2.4310953111676944e-16 1.0 -4.769541189121801e-16
  outer loop
    vertex 3407.742301083485 11430.359358079693 373.2147487945481
    vertex 3407.2062983180167 11430.359358079693 374.36183751330424
    vertex 3407.6924469228416 11430.359358079693 374.30387420160577
  endloop
endfacet
facet normal -2.4310953111676944e-16 1.0 -4.769541189121801e-16
  outer loop
    vertex 3407.742301083485 11430.359358079693 373.2147487945481
    vertex 3407.6924469228416 11430.359358079693 374.30387420160577
    vertex 3409.0719229430915 11430.359358079693 373.57101989806836
  endloop
endfacet
facet normal -2.4310953111676944e-16 1.0 -4.769541189121801e-16
  outer loop
    vertex 3409.0719229430915 11430.359358079693 373.57101989806836
    vertex 3407.6924469228416 11430.359358079693 374.30387420160577
    vertex 3408.7963019958065 11430.359358079693 374.5996512769676
  endloop
endfacet
facet normal -2.4310953111676944e-16 1.0 -4.769541189121801e-16
  outer loop
    vertex 3409.0719229430915 11430.359358079693 373.57101989806836
    vertex 3408.7963019958065 11430.359358079693 374.5996512769676
    vertex 3409.6390408791763 11430.359358079693 375.06754116854574
  endloop
endfacet
facet normal -2.4310953111676944e-16 1.0 -4.769541189121801e-16
  outer loop
    vertex 3409.0719229430915 11430.359358079693 373.57101989806836
    vertex 3409.6390408791763 11430.359358079693 375.06754116854574
    vertex 3410.167962396097 11430.359358079693 374.14709372887575
  endloop
endfacet
facet normal -2.4310953111676944e-16 1.0 -4.769541189121801e-16
  outer loop
    vertex 3404.4197218384957 11430.359358079693 379.3426968168748
    vertex 3403.001852624856 11430.359358079693 377.8602961169656
    vertex 3402.7262316775705 11430.359358079693 378.88892749586495
  endloop
endfacet
facet normal -2.4310953111676944e-16 1.0 -4.769541189121801e-16
  outer loop
    vertex 3403.001852624856 11430.359358079693 377.8602961169656
    vertex 3404.4197218384957 11430.359358079693 379.3426968168748
    vertex 3404.6953427857807 11430.359358079693 378.31406543797544
  endloop
endfacet
facet normal -2.4310953111676944e-16 1.0 -4.769541189121801e-16
  outer loop
    vertex 3413.4399981490997 11430.359358079693 381.6117583881967
    vertex 3413.5346923293296 11430.359358079693 379.35153952672823
    vertex 3413.0876417176783 11430.359358079693 381.0199551229649
  endloop
endfacet
facet normal -2.4310953111676944e-16 1.0 -4.769541189121801e-16
  outer loop
    vertex 3413.5346923293296 11430.359358079693 379.35153952672823
    vertex 3413.4399981490997 11430.359358079693 381.6117583881967
    vertex 3413.6493779933944 11430.359358079693 380.02757328339237
  endloop
endfacet
facet normal -2.4310953111676944e-16 1.0 -4.769541189121801e-16
  outer loop
    vertex 3413.6493779933944 11430.359358079693 380.02757328339237
    vertex 3413.4399981490997 11430.359358079693 381.6117583881967
    vertex 3414.009060791876 11430.359358079693 380.7424815626512
  endloop
endfacet
facet normal -2.4310953111676944e-16 1.0 -4.769541189121801e-16
  outer loop
    vertex 3414.009060791876 11430.359358079693 380.7424815626512
    vertex 3413.4399981490997 11430.359358079693 381.6117583881967
    vertex 3414.185435589206 11430.359358079693 382.24180287439293
  endloop
endfacet
facet normal -2.4310953111676944e-16 1.0 -4.769541189121801e-16
  outer loop
    vertex 3414.009060791876 11430.359358079693 380.7424815626512
    vertex 3414.185435589206 11430.359358079693 382.24180287439293
    vertex 3414.6617487584444 11430.359358079693 381.26694681429314
  endloop
endfacet
facet normal -2.4310953111676944e-16 1.0 -4.769541189121801e-16
  outer loop
    vertex 3414.6617487584444 11430.359358079693 381.26694681429314
    vertex 3414.185435589206 11430.359358079693 382.24180287439293
    vertex 3415.5026158709134 11430.359358079693 382.59474026716254
  endloop
endfacet
facet normal -2.4310953111676944e-16 1.0 -4.769541189121801e-16
  outer loop
    vertex 3414.6617487584444 11430.359358079693 381.26694681429314
    vertex 3415.5026158709134 11430.359358079693 382.59474026716254
    vertex 3415.6276937256225 11430.359358079693 381.52577098818136
  endloop
endfacet
facet normal -2.4310953111676944e-16 1.0 -4.769541189121801e-16
  outer loop
    vertex 3415.6276937256225 11430.359358079693 381.52577098818136
    vertex 3415.5026158709134 11430.359358079693 382.59474026716254
    vertex 3416.725363758715 11430.359358079693 381.4434379115786
  endloop
endfacet
facet normal -2.4310953111676944e-16 1.0 -4.769541189121801e-16
  outer loop
    vertex 3416.725363758715 11430.359358079693 381.4434379115786
    vertex 3415.5026158709134 11430.359358079693 382.59474026716254
    vertex 3416.7767336371276 11430.359358079693 382.5058339675699
  endloop
endfacet
facet normal -2.4310953111676944e-16 1.0 -4.769541189121801e-16
  outer loop
    vertex 3412.8826185065186 11430.359358079693 381.78511216374454
    vertex 3413.6128042306245 11430.359358079693 374.895347297445
    vertex 3411.8414498452753 11430.359358079693 381.50613186177975
  endloop
endfacet
facet normal -2.4310953111676944e-16 1.0 -4.769541189121801e-16
  outer loop
    vertex 3413.6128042306245 11430.359358079693 374.895347297445
    vertex 3412.8826185065186 11430.359358079693 381.78511216374454
    vertex 3414.653972891868 11430.359358079693 375.1743275994098
  endloop
endfacet
facet normal -2.4310953111676944e-16 1.0 -4.769541189121801e-16
  outer loop
    vertex 3414.653972891868 11430.359358079693 375.1743275994098
    vertex 3412.8826185065186 11430.359358079693 381.78511216374454
    vertex 3413.0876417176783 11430.359358079693 381.0199551229649
  endloop
endfacet
facet normal -2.4310953111676944e-16 1.0 -4.769541189121801e-16
  outer loop
    vertex 3414.653972891868 11430.359358079693 375.1743275994098
    vertex 3413.0876417176783 11430.359358079693 381.0199551229649
    vertex 3413.5346923293296 11430.359358079693 379.35153952672823
  endloop
endfacet
facet normal -2.4310953111676944e-16 1.0 -4.769541189121801e-16
  outer loop
    vertex 3424.086355108884 11430.359358079693 384.7871443385592
    vertex 3424.2686582930987 11430.359358079693 379.94210494771403
    vertex 3423.045186447641 11430.359358079693 384.5081640365944
  endloop
endfacet
facet normal -2.4310953111676944e-16 1.0 -4.769541189121801e-16
  outer loop
    vertex 3424.2686582930987 11430.359358079693 379.94210494771403
    vertex 3424.086355108884 11430.359358079693 384.7871443385592
    vertex 3424.65092974161 11430.359358079693 378.5655976089649
  endloop
endfacet
facet normal -2.4310953111676944e-16 1.0 -4.769541189121801e-16
  outer loop
    vertex 3424.65092974161 11430.359358079693 378.5655976089649
    vertex 3424.086355108884 11430.359358079693 384.7871443385592
    vertex 3424.8290781153346 11430.359358079693 377.90073882693906
  endloop
endfacet
facet normal -2.4310953111676944e-16 1.0 -4.769541189121801e-16
  outer loop
    vertex 3424.8290781153346 11430.359358079693 377.90073882693906
    vertex 3424.086355108884 11430.359358079693 384.7871443385592
    vertex 3425.857709494234 11430.359358079693 378.17635977422447
  endloop
endfacet
facet normal -2.4310953111676944e-16 1.0 -4.769541189121801e-16
  outer loop
    vertex 3419.8463610653994 11430.359358079693 383.6510413586947
    vertex 3420.2404318140616 11430.359358079693 378.0156746579361
    vertex 3418.805192404156 11430.359358079693 383.37206105672993
  endloop
endfacet
facet normal -2.4310953111676944e-16 1.0 -4.769541189121801e-16
  outer loop
    vertex 3420.2404318140616 11430.359358079693 378.0156746579361
    vertex 3419.8463610653994 11430.359358079693 383.6510413586947
    vertex 3421.3381733453075 11430.359358079693 377.1804549881547
  endloop
endfacet
facet normal -2.4310953111676944e-16 1.0 -4.769541189121801e-16
  outer loop
    vertex 3421.3381733453075 11430.359358079693 377.1804549881547
    vertex 3419.8463610653994 11430.359358079693 383.6510413586947
    vertex 3421.180768547065 11430.359358079693 378.67096483911854
  endloop
endfacet
facet normal -2.4310953111676944e-16 1.0 -4.769541189121801e-16
  outer loop
    vertex 3421.3381733453075 11430.359358079693 377.1804549881547
    vertex 3421.180768547065 11430.359358079693 378.67096483911854
    vertex 3422.5604117699145 11430.359358079693 377.18524958633134
  endloop
endfacet
facet normal -2.4310953111676944e-16 1.0 -4.769541189121801e-16
  outer loop
    vertex 3422.5604117699145 11430.359358079693 377.18524958633134
    vertex 3421.180768547065 11430.359358079693 378.67096483911854
    vertex 3421.6857109722605 11430.359358079693 378.2415844408855
  endloop
endfacet
facet normal -2.4310953111676944e-16 1.0 -4.769541189121801e-16
  outer loop
    vertex 3422.5604117699145 11430.359358079693 377.18524958633134
    vertex 3421.6857109722605 11430.359358079693 378.2415844408855
    vertex 3422.4512305522285 11430.359358079693 378.24504093764773
  endloop
endfacet
facet normal -2.4310953111676944e-16 1.0 -4.769541189121801e-16
  outer loop
    vertex 3422.5604117699145 11430.359358079693 377.18524958633134
    vertex 3422.4512305522285 11430.359358079693 378.24504093764773
    vertex 3423.7018786899116 11430.359358079693 377.4911047257315
  endloop
endfacet
facet normal -2.4310953111676944e-16 1.0 -4.769541189121801e-16
  outer loop
    vertex 3423.7018786899116 11430.359358079693 377.4911047257315
    vertex 3422.4512305522285 11430.359358079693 378.24504093764773
    vertex 3423.291611287074 11430.359358079693 378.47022027688405
  endloop
endfacet
facet normal -2.4310953111676944e-16 1.0 -4.769541189121801e-16
  outer loop
    vertex 3423.7018786899116 11430.359358079693 377.4911047257315
    vertex 3423.291611287074 11430.359358079693 378.47022027688405
    vertex 3424.024244610093 11430.359358079693 379.29849776672745
  endloop
endfacet
facet normal -2.4310953111676944e-16 1.0 -4.769541189121801e-16
  outer loop
    vertex 3423.7018786899116 11430.359358079693 377.4911047257315
    vertex 3424.024244610093 11430.359358079693 379.29849776672745
    vertex 3424.4020854372534 11430.359358079693 378.18965419663425
  endloop
endfacet
facet normal -2.4310953111676944e-16 1.0 -4.769541189121801e-16
  outer loop
    vertex 3424.4020854372534 11430.359358079693 378.18965419663425
    vertex 3424.024244610093 11430.359358079693 379.29849776672745
    vertex 3424.2686582930987 11430.359358079693 379.94210494771403
  endloop
endfacet
facet normal -2.4310953111676944e-16 1.0 -4.769541189121801e-16
  outer loop
    vertex 3424.4020854372534 11430.359358079693 378.18965419663425
    vertex 3424.2686582930987 11430.359358079693 379.94210494771403
    vertex 3424.65092974161 11430.359358079693 378.5655976089649
  endloop
endfacet
facet normal -2.4310953111676944e-16 1.0 -4.769541189121801e-16
  outer loop
    vertex 3427.554881066404 11430.359358079693 383.9417680399162
    vertex 3427.9367361978075 11430.359358079693 381.4627679359082
    vertex 3427.536767839526 11430.359358079693 382.95547017043486
  endloop
endfacet
facet normal -2.4310953111676944e-16 1.0 -4.769541189121801e-16
  outer loop
    vertex 3427.9367361978075 11430.359358079693 381.4627679359082
    vertex 3427.554881066404 11430.359358079693 383.9417680399162
    vertex 3428.43885293781 11430.359358079693 380.64274010336635
  endloop
endfacet
facet normal -2.4310953111676944e-16 1.0 -4.769541189121801e-16
  outer loop
    vertex 3428.43885293781 11430.359358079693 380.64274010336635
    vertex 3427.554881066404 11430.359358079693 383.9417680399162
    vertex 3428.0986546500308 11430.359358079693 385.32443228454787
  endloop
endfacet
facet normal -2.4310953111676944e-16 1.0 -4.769541189121801e-16
  outer loop
    vertex 3428.43885293781 11430.359358079693 380.64274010336635
    vertex 3428.0986546500308 11430.359358079693 385.32443228454787
    vertex 3428.614915046172 11430.359358079693 383.09644466216776
  endloop
endfacet
facet normal -2.4310953111676944e-16 1.0 -4.769541189121801e-16
  outer loop
    vertex 3428.614915046172 11430.359358079693 383.09644466216776
    vertex 3428.0986546500308 11430.359358079693 385.32443228454787
    vertex 3428.616643820765 11430.359358079693 383.7423142872337
  endloop
endfacet
facet normal -2.4310953111676944e-16 1.0 -4.769541189121801e-16
  outer loop
    vertex 3428.616643820765 11430.359358079693 383.7423142872337
    vertex 3428.0986546500308 11430.359358079693 385.32443228454787
    vertex 3429.204238497588 11430.359358079693 386.26607898497565
  endloop
endfacet
facet normal -2.4310953111676944e-16 1.0 -4.769541189121801e-16
  outer loop
    vertex 3428.616643820765 11430.359358079693 383.7423142872337
    vertex 3429.204238497588 11430.359358079693 386.26607898497565
    vertex 3428.9819997058626 11430.359358079693 384.68717878367045
  endloop
endfacet
facet normal -2.4310953111676944e-16 1.0 -4.769541189121801e-16
  outer loop
    vertex 3428.9819997058626 11430.359358079693 384.68717878367045
    vertex 3429.204238497588 11430.359358079693 386.26607898497565
    vertex 3429.6805516668264 11430.359358079693 385.29122292487585
  endloop
endfacet
facet normal -2.4310953111676944e-16 1.0 -4.769541189121801e-16
  outer loop
    vertex 3429.6805516668264 11430.359358079693 385.29122292487585
    vertex 3429.204238497588 11430.359358079693 386.26607898497565
    vertex 3430.609179755705 11430.359358079693 386.64253186050126
  endloop
endfacet
facet normal -2.4310953111676944e-16 1.0 -4.769541189121801e-16
  outer loop
    vertex 3429.6805516668264 11430.359358079693 385.29122292487585
    vertex 3430.609179755705 11430.359358079693 386.64253186050126
    vertex 3430.7593321751024 11430.359358079693 385.5802812908789
  endloop
endfacet
facet normal -2.4310953111676944e-16 1.0 -4.769541189121801e-16
  outer loop
    vertex 3430.7593321751024 11430.359358079693 385.5802812908789
    vertex 3430.609179755705 11430.359358079693 386.64253186050126
    vertex 3431.370949307815 11430.359358079693 385.55593716990353
  endloop
endfacet
facet normal -2.4310953111676944e-16 1.0 -4.769541189121801e-16
  outer loop
    vertex 3431.370949307815 11430.359358079693 385.55593716990353
    vertex 3430.609179755705 11430.359358079693 386.64253186050126
    vertex 3431.646622595382 11430.359358079693 386.58437321221356
  endloop
endfacet
facet normal -2.4310953111676944e-16 1.0 -4.769541189121801e-16
  outer loop
    vertex 3431.370949307815 11430.359358079693 385.55593716990353
    vertex 3431.646622595382 11430.359358079693 386.58437321221356
    vertex 3432.1912454127378 11430.359358079693 385.10345361002663
  endloop
endfacet
facet normal -2.4310953111676944e-16 1.0 -4.769541189121801e-16
  outer loop
    vertex 3432.1912454127378 11430.359358079693 385.10345361002663
    vertex 3431.646622595382 11430.359358079693 386.58437321221356
    vertex 3432.7465565101907 11430.359358079693 385.99171710247083
  endloop
endfacet
facet normal -2.4310953111676944e-16 1.0 -4.769541189121801e-16
  outer loop
    vertex 3428.43885293781 11430.359358079693 380.64274010336635
    vertex 3428.9375926028983 11430.359358079693 381.89219562600374
    vertex 3429.601106797453 11430.359358079693 379.71720453442396
  endloop
endfacet
facet normal -2.4310953111676944e-16 1.0 -4.769541189121801e-16
  outer loop
    vertex 3428.9375926028983 11430.359358079693 381.89219562600374
    vertex 3428.43885293781 11430.359358079693 380.64274010336635
    vertex 3428.614915046172 11430.359358079693 383.09644466216776
  endloop
endfacet
facet normal -2.4310953111676944e-16 1.0 -4.769541189121801e-16
  outer loop
    vertex 3429.601106797453 11430.359358079693 379.71720453442396
    vertex 3428.9375926028983 11430.359358079693 381.89219562600374
    vertex 3429.2427429425143 11430.359358079693 381.35553142491483
  endloop
endfacet
facet normal -2.4310953111676944e-16 1.0 -4.769541189121801e-16
  outer loop
    vertex 3429.601106797453 11430.359358079693 379.71720453442396
    vertex 3429.2427429425143 11430.359358079693 381.35553142491483
    vertex 3431.029393845666 11430.359358079693 379.4545064942424
  endloop
endfacet
facet normal -2.4310953111676944e-16 1.0 -4.769541189121801e-16
  outer loop
    vertex 3431.029393845666 11430.359358079693 379.4545064942424
    vertex 3429.2427429425143 11430.359358079693 381.35553142491483
    vertex 3430.0759388689694 11430.359358079693 380.7048405053197
  endloop
endfacet
facet normal -2.4310953111676944e-16 1.0 -4.769541189121801e-16
  outer loop
    vertex 3431.029393845666 11430.359358079693 379.4545064942424
    vertex 3430.0759388689694 11430.359358079693 380.7048405053197
    vertex 3430.954465120333 11430.359358079693 380.5369131919413
  endloop
endfacet
facet normal -2.4310953111676944e-16 1.0 -4.769541189121801e-16
  outer loop
    vertex 3431.029393845666 11430.359358079693 379.4545064942424
    vertex 3430.954465120333 11430.359358079693 380.5369131919413
    vertex 3432.4343351037833 11430.359358079693 379.830959369768
  endloop
endfacet
facet normal -2.4310953111676944e-16 1.0 -4.769541189121801e-16
  outer loop
    vertex 3432.4343351037833 11430.359358079693 379.830959369768
    vertex 3430.954465120333 11430.359358079693 380.5369131919413
    vertex 3432.03324562861 11430.359358079693 380.82597155794434
  endloop
endfacet
facet normal -2.4310953111676944e-16 1.0 -4.769541189121801e-16
  outer loop
    vertex 3432.4343351037833 11430.359358079693 379.830959369768
    vertex 3432.03324562861 11430.359358079693 380.82597155794434
    vertex 3432.544030833082 11430.359358079693 381.1779373161866
  endloop
endfacet
facet normal -2.4310953111676944e-16 1.0 -4.769541189121801e-16
  outer loop
    vertex 3432.4343351037833 11430.359358079693 379.830959369768
    vertex 3432.544030833082 11430.359358079693 381.1779373161866
    vertex 3433.3037076337737 11430.359358079693 380.4000476564734
  endloop
endfacet
facet normal -2.4310953111676944e-16 1.0 -4.769541189121801e-16
  outer loop
    vertex 3433.3037076337737 11430.359358079693 380.4000476564734
    vertex 3432.544030833082 11430.359358079693 381.1779373161866
    vertex 3433.0349050279915 11430.359358079693 381.95487306160754
  endloop
endfacet
facet normal -2.4310953111676944e-16 1.0 -4.769541189121801e-16
  outer loop
    vertex 3433.3037076337737 11430.359358079693 380.4000476564734
    vertex 3433.0349050279915 11430.359358079693 381.95487306160754
    vertex 3433.954131718626 11430.359358079693 381.43483594125524
  endloop
endfacet
facet normal -2.4310953111676944e-16 1.0 -4.769541189121801e-16
  outer loop
    vertex 3440.0645554053835 11430.359358079693 388.8937011854633
    vertex 3437.8564545862755 11430.359358079693 387.19955856503543
    vertex 3437.58083363899 11430.359358079693 388.22818994393475
  endloop
endfacet
facet normal -2.4310953111676944e-16 1.0 -4.769541189121801e-16
  outer loop
    vertex 3437.8564545862755 11430.359358079693 387.19955856503543
    vertex 3440.0645554053835 11430.359358079693 388.8937011854633
    vertex 3440.3401763526685 11430.359358079693 387.865069806564
  endloop
endfacet
facet normal -2.4310953111676944e-16 1.0 -4.769541189121801e-16
  outer loop
    vertex 3436.962379006902 11430.359358079693 390.53629405306333
    vertex 3436.5396649777463 11430.359358079693 387.94920964196996
    vertex 3435.921210345659 11430.359358079693 390.2573137510986
  endloop
endfacet
facet normal -2.4310953111676944e-16 1.0 -4.769541189121801e-16
  outer loop
    vertex 3436.5396649777463 11430.359358079693 387.94920964196996
    vertex 3436.962379006902 11430.359358079693 390.53629405306333
    vertex 3436.815285925032 11430.359358079693 386.9205782630706
  endloop
endfacet
facet normal -2.4310953111676944e-16 1.0 -4.769541189121801e-16
  outer loop
    vertex 3436.815285925032 11430.359358079693 386.9205782630706
    vertex 3436.962379006902 11430.359358079693 390.53629405306333
    vertex 3437.9412851969296 11430.359358079693 382.7182917710637
  endloop
endfacet
facet normal -2.4310953111676944e-16 1.0 -4.769541189121801e-16
  outer loop
    vertex 3437.9412851969296 11430.359358079693 382.7182917710637
    vertex 3436.962379006902 11430.359358079693 390.53629405306333
    vertex 3438.8967614268904 11430.359358079693 381.9121393222805
  endloop
endfacet
facet normal -2.4310953111676944e-16 1.0 -4.769541189121801e-16
  outer loop
    vertex 3438.8967614268904 11430.359358079693 381.9121393222805
    vertex 3436.962379006902 11430.359358079693 390.53629405306333
    vertex 3438.8916999939706 11430.359358079693 383.33597010521356
  endloop
endfacet
facet normal -2.4310953111676944e-16 1.0 -4.769541189121801e-16
  outer loop
    vertex 3438.8967614268904 11430.359358079693 381.9121393222805
    vertex 3438.8916999939706 11430.359358079693 383.33597010521356
    vertex 3439.8622442227365 11430.359358079693 381.8212616196432
  endloop
endfacet
facet normal -2.4310953111676944e-16 1.0 -4.769541189121801e-16
  outer loop
    vertex 3438.8916999939706 11430.359358079693 383.33597010521356
    vertex 3436.962379006902 11430.359358079693 390.53629405306333
    vertex 3437.58083363899 11430.359358079693 388.22818994393475
  endloop
endfacet
facet normal -2.4310953111676944e-16 1.0 -4.769541189121801e-16
  outer loop
    vertex 3438.8916999939706 11430.359358079693 383.33597010521356
    vertex 3437.58083363899 11430.359358079693 388.22818994393475
    vertex 3437.8564545862755 11430.359358079693 387.19955856503543
  endloop
endfacet
facet normal -2.4310953111676944e-16 1.0 -4.769541189121801e-16
  outer loop
    vertex 3439.8622442227365 11430.359358079693 381.8212616196432
    vertex 3438.8916999939706 11430.359358079693 383.33597010521356
    vertex 3439.3262414572673 11430.359358079693 382.9683503383993
  endloop
endfacet
facet normal -2.4310953111676944e-16 1.0 -4.769541189121801e-16
  outer loop
    vertex 3439.8622442227365 11430.359358079693 381.8212616196432
    vertex 3439.3262414572673 11430.359358079693 382.9683503383993
    vertex 3439.8123900620926 11430.359358079693 382.9103870267009
  endloop
endfacet
facet normal -2.4310953111676944e-16 1.0 -4.769541189121801e-16
  outer loop
    vertex 3439.8622442227365 11430.359358079693 381.8212616196432
    vertex 3439.8123900620926 11430.359358079693 382.9103870267009
    vertex 3441.1918660823426 11430.359358079693 382.1775327231635
  endloop
endfacet
facet normal -2.4310953111676944e-16 1.0 -4.769541189121801e-16
  outer loop
    vertex 3441.1918660823426 11430.359358079693 382.1775327231635
    vertex 3439.8123900620926 11430.359358079693 382.9103870267009
    vertex 3440.916245135057 11430.359358079693 383.20616410206276
  endloop
endfacet
facet normal -2.4310953111676944e-16 1.0 -4.769541189121801e-16
  outer loop
    vertex 3441.1918660823426 11430.359358079693 382.1775327231635
    vertex 3440.916245135057 11430.359358079693 383.20616410206276
    vertex 3441.758984018427 11430.359358079693 383.6740539936409
  endloop
endfacet
facet normal -2.4310953111676944e-16 1.0 -4.769541189121801e-16
  outer loop
    vertex 3441.1918660823426 11430.359358079693 382.1775327231635
    vertex 3441.758984018427 11430.359358079693 383.6740539936409
    vertex 3442.2879055353487 11430.359358079693 382.7536065539709
  endloop
endfacet
facet normal -2.4310953111676944e-16 1.0 -4.769541189121801e-16
  outer loop
    vertex 3436.5396649777463 11430.359358079693 387.94920964196996
    vertex 3435.1217957641065 11430.359358079693 386.46680894206077
    vertex 3434.8461748168215 11430.359358079693 387.49544032096003
  endloop
endfacet
facet normal -2.4310953111676944e-16 1.0 -4.769541189121801e-16
  outer loop
    vertex 3435.1217957641065 11430.359358079693 386.46680894206077
    vertex 3436.5396649777463 11430.359358079693 387.94920964196996
    vertex 3436.815285925032 11430.359358079693 386.9205782630706
  endloop
endfacet
facet normal -2.4310953111676944e-16 1.0 -4.769541189121801e-16
  outer loop
    vertex 3448.1763124633226 11430.359358079693 391.2420289573805
    vertex 3448.358615647537 11430.359358079693 386.39698956653535
    vertex 3447.1351438020793 11430.359358079693 390.9630486554157
  endloop
endfacet
facet normal -2.4310953111676944e-16 1.0 -4.769541189121801e-16
  outer loop
    vertex 3448.358615647537 11430.359358079693 386.39698956653535
    vertex 3448.1763124633226 11430.359358079693 391.2420289573805
    vertex 3448.7408870960485 11430.359358079693 385.02048222778626
  endloop
endfacet
facet normal -2.4310953111676944e-16 1.0 -4.769541189121801e-16
  outer loop
    vertex 3448.7408870960485 11430.359358079693 385.02048222778626
    vertex 3448.1763124633226 11430.359358079693 391.2420289573805
    vertex 3448.919035469773 11430.359358079693 384.3556234457604
  endloop
endfacet
facet normal -2.4310953111676944e-16 1.0 -4.769541189121801e-16
  outer loop
    vertex 3448.919035469773 11430.359358079693 384.3556234457604
    vertex 3448.1763124633226 11430.359358079693 391.2420289573805
    vertex 3449.9476668486723 11430.359358079693 384.6312443930458
  endloop
endfacet
facet normal -2.4310953111676944e-16 1.0 -4.769541189121801e-16
  outer loop
    vertex 3443.936318419838 11430.359358079693 390.10592597751605
    vertex 3444.3303891685 11430.359358079693 384.4705592767574
    vertex 3442.8951497585945 11430.359358079693 389.82694567555126
  endloop
endfacet
facet normal -2.4310953111676944e-16 1.0 -4.769541189121801e-16
  outer loop
    vertex 3444.3303891685 11430.359358079693 384.4705592767574
    vertex 3443.936318419838 11430.359358079693 390.10592597751605
    vertex 3445.428130699746 11430.359358079693 383.63533960697606
  endloop
endfacet
facet normal -2.4310953111676944e-16 1.0 -4.769541189121801e-16
  outer loop
    vertex 3445.428130699746 11430.359358079693 383.63533960697606
    vertex 3443.936318419838 11430.359358079693 390.10592597751605
    vertex 3445.2707259015033 11430.359358079693 385.12584945793986
  endloop
endfacet
facet normal -2.4310953111676944e-16 1.0 -4.769541189121801e-16
  outer loop
    vertex 3445.428130699746 11430.359358079693 383.63533960697606
    vertex 3445.2707259015033 11430.359358079693 385.12584945793986
    vertex 3446.650369124353 11430.359358079693 383.64013420515266
  endloop
endfacet
facet normal -2.4310953111676944e-16 1.0 -4.769541189121801e-16
  outer loop
    vertex 3446.650369124353 11430.359358079693 383.64013420515266
    vertex 3445.2707259015033 11430.359358079693 385.12584945793986
    vertex 3445.775668326699 11430.359358079693 384.6964690597068
  endloop
endfacet
facet normal -2.4310953111676944e-16 1.0 -4.769541189121801e-16
  outer loop
    vertex 3446.650369124353 11430.359358079693 383.64013420515266
    vertex 3445.775668326699 11430.359358079693 384.6964690597068
    vertex 3446.541187906667 11430.359358079693 384.69992555646905
  endloop
endfacet
facet normal -2.4310953111676944e-16 1.0 -4.769541189121801e-16
  outer loop
    vertex 3446.650369124353 11430.359358079693 383.64013420515266
    vertex 3446.541187906667 11430.359358079693 384.69992555646905
    vertex 3447.79183604435 11430.359358079693 383.9459893445528
  endloop
endfacet
facet normal -2.4310953111676944e-16 1.0 -4.769541189121801e-16
  outer loop
    vertex 3447.79183604435 11430.359358079693 383.9459893445528
    vertex 3446.541187906667 11430.359358079693 384.69992555646905
    vertex 3447.3815686415123 11430.359358079693 384.9251048957054
  endloop
endfacet
facet normal -2.4310953111676944e-16 1.0 -4.769541189121801e-16
  outer loop
    vertex 3447.79183604435 11430.359358079693 383.9459893445528
    vertex 3447.3815686415123 11430.359358079693 384.9251048957054
    vertex 3448.1142019645313 11430.359358079693 385.7533823855488
  endloop
endfacet
facet normal -2.4310953111676944e-16 1.0 -4.769541189121801e-16
  outer loop
    vertex 3447.79183604435 11430.359358079693 383.9459893445528
    vertex 3448.1142019645313 11430.359358079693 385.7533823855488
    vertex 3448.4920427916913 11430.359358079693 384.6445388154556
  endloop
endfacet
facet normal -2.4310953111676944e-16 1.0 -4.769541189121801e-16
  outer loop
    vertex 3448.4920427916913 11430.359358079693 384.6445388154556
    vertex 3448.1142019645313 11430.359358079693 385.7533823855488
    vertex 3448.358615647537 11430.359358079693 386.39698956653535
  endloop
endfacet
facet normal -2.4310953111676944e-16 1.0 -4.769541189121801e-16
  outer loop
    vertex 3448.4920427916913 11430.359358079693 384.6445388154556
    vertex 3448.358615647537 11430.359358079693 386.39698956653535
    vertex 3448.7408870960485 11430.359358079693 385.02048222778626
  endloop
endfacet
facet normal -2.4310953111676944e-16 1.0 -4.769541189121801e-16
  outer loop
    vertex 3453.5899270731634 11430.359358079693 392.3698994195655
    vertex 3453.6846212533933 11430.359358079693 390.10968055809707
    vertex 3453.2375706417424 11430.359358079693 391.7780961543338
  endloop
endfacet
facet normal -2.4310953111676944e-16 1.0 -4.769541189121801e-16
  outer loop
    vertex 3453.6846212533933 11430.359358079693 390.10968055809707
    vertex 3453.5899270731634 11430.359358079693 392.3698994195655
    vertex 3453.799306917459 11430.359358079693 390.78571431476126
  endloop
endfacet
facet normal -2.4310953111676944e-16 1.0 -4.769541189121801e-16
  outer loop
    vertex 3453.799306917459 11430.359358079693 390.78571431476126
    vertex 3453.5899270731634 11430.359358079693 392.3698994195655
    vertex 3454.1589897159397 11430.359358079693 391.5006225940202
  endloop
endfacet
facet normal -2.4310953111676944e-16 1.0 -4.769541189121801e-16
  outer loop
    vertex 3454.1589897159397 11430.359358079693 391.5006225940202
    vertex 3453.5899270731634 11430.359358079693 392.3698994195655
    vertex 3454.3353645132697 11430.359358079693 392.99994390576177
  endloop
endfacet
facet normal -2.4310953111676944e-16 1.0 -4.769541189121801e-16
  outer loop
    vertex 3454.1589897159397 11430.359358079693 391.5006225940202
    vertex 3454.3353645132697 11430.359358079693 392.99994390576177
    vertex 3454.8116776825086 11430.359358079693 392.025087845662
  endloop
endfacet
facet normal -2.4310953111676944e-16 1.0 -4.769541189121801e-16
  outer loop
    vertex 3454.8116776825086 11430.359358079693 392.025087845662
    vertex 3454.3353645132697 11430.359358079693 392.99994390576177
    vertex 3455.652544794977 11430.359358079693 393.35288129853143
  endloop
endfacet
facet normal -2.4310953111676944e-16 1.0 -4.769541189121801e-16
  outer loop
    vertex 3454.8116776825086 11430.359358079693 392.025087845662
    vertex 3455.652544794977 11430.359358079693 393.35288129853143
    vertex 3455.7776226496867 11430.359358079693 392.28391201955026
  endloop
endfacet
facet normal -2.4310953111676944e-16 1.0 -4.769541189121801e-16
  outer loop
    vertex 3455.7776226496867 11430.359358079693 392.28391201955026
    vertex 3455.652544794977 11430.359358079693 393.35288129853143
    vertex 3456.8752926827788 11430.359358079693 392.20157894294755
  endloop
endfacet
facet normal -2.4310953111676944e-16 1.0 -4.769541189121801e-16
  outer loop
    vertex 3456.8752926827788 11430.359358079693 392.20157894294755
    vertex 3455.652544794977 11430.359358079693 393.35288129853143
    vertex 3456.9266625611913 11430.359358079693 393.26397499893886
  endloop
endfacet
facet normal -2.4310953111676944e-16 1.0 -4.769541189121801e-16
  outer loop
    vertex 3453.0325474305823 11430.359358079693 392.54325319511344
    vertex 3453.7627331546882 11430.359358079693 385.653488328814
    vertex 3451.991378769339 11430.359358079693 392.2642728931487
  endloop
endfacet
facet normal -2.4310953111676944e-16 1.0 -4.769541189121801e-16
  outer loop
    vertex 3453.7627331546882 11430.359358079693 385.653488328814
    vertex 3453.0325474305823 11430.359358079693 392.54325319511344
    vertex 3454.803901815932 11430.359358079693 385.9324686307787
  endloop
endfacet
facet normal -2.4310953111676944e-16 1.0 -4.769541189121801e-16
  outer loop
    vertex 3454.803901815932 11430.359358079693 385.9324686307787
    vertex 3453.0325474305823 11430.359358079693 392.54325319511344
    vertex 3453.2375706417424 11430.359358079693 391.7780961543338
  endloop
endfacet
facet normal -2.4310953111676944e-16 1.0 -4.769541189121801e-16
  outer loop
    vertex 3454.803901815932 11430.359358079693 385.9324686307787
    vertex 3453.2375706417424 11430.359358079693 391.7780961543338
    vertex 3453.6846212533933 11430.359358079693 390.10968055809707
  endloop
endfacet
facet normal -2.4310953111676944e-16 1.0 -4.769541189121801e-16
  outer loop
    vertex 3459.449057419014 11430.359358079693 392.48778683685293
    vertex 3459.8309125504175 11430.359358079693 390.00878673284495
    vertex 3459.430944192136 11430.359358079693 391.5014889673716
  endloop
endfacet
facet normal -2.4310953111676944e-16 1.0 -4.769541189121801e-16
  outer loop
    vertex 3459.8309125504175 11430.359358079693 390.00878673284495
    vertex 3459.449057419014 11430.359358079693 392.48778683685293
    vertex 3460.3330292904197 11430.359358079693 389.18875890030307
  endloop
endfacet
facet normal -2.4310953111676944e-16 1.0 -4.769541189121801e-16
  outer loop
    vertex 3460.3330292904197 11430.359358079693 389.18875890030307
    vertex 3459.449057419014 11430.359358079693 392.48778683685293
    vertex 3459.9928310026403 11430.359358079693 393.87045108148465
  endloop
endfacet
facet normal -2.4310953111676944e-16 1.0 -4.769541189121801e-16
  outer loop
    vertex 3460.3330292904197 11430.359358079693 389.18875890030307
    vertex 3459.9928310026403 11430.359358079693 393.87045108148465
    vertex 3460.498987690815 11430.359358079693 391.6801710105825
  endloop
endfacet
facet normal -2.4310953111676944e-16 1.0 -4.769541189121801e-16
  outer loop
    vertex 3460.498987690815 11430.359358079693 391.6801710105825
    vertex 3459.9928310026403 11430.359358079693 393.87045108148465
    vertex 3460.5016422457097 11430.359358079693 392.27243644714673
  endloop
endfacet
facet normal -2.4310953111676944e-16 1.0 -4.769541189121801e-16
  outer loop
    vertex 3460.5016422457097 11430.359358079693 392.27243644714673
    vertex 3459.9928310026403 11430.359358079693 393.87045108148465
    vertex 3461.085877567853 11430.359358079693 394.80873842723304
  endloop
endfacet
facet normal -2.4310953111676944e-16 1.0 -4.769541189121801e-16
  outer loop
    vertex 3460.5016422457097 11430.359358079693 392.27243644714673
    vertex 3461.085877567853 11430.359358079693 394.80873842723304
    vertex 3460.8760803540267 11430.359358079693 393.2331719366783
  endloop
endfacet
facet normal -2.4310953111676944e-16 1.0 -4.769541189121801e-16
  outer loop
    vertex 3460.8760803540267 11430.359358079693 393.2331719366783
    vertex 3461.085877567853 11430.359358079693 394.80873842723304
    vertex 3461.5245788900593 11430.359358079693 393.82380430309496
  endloop
endfacet
facet normal -2.4310953111676944e-16 1.0 -4.769541189121801e-16
  outer loop
    vertex 3461.5245788900593 11430.359358079693 393.82380430309496
    vertex 3461.085877567853 11430.359358079693 394.80873842723304
    vertex 3462.453206978938 11430.359358079693 395.1751132387203
  endloop
endfacet
facet normal -2.4310953111676944e-16 1.0 -4.769541189121801e-16
  outer loop
    vertex 3461.5245788900593 11430.359358079693 393.82380430309496
    vertex 3462.453206978938 11430.359358079693 395.1751132387203
    vertex 3462.5532102689585 11430.359358079693 394.09942525038036
  endloop
endfacet
facet normal -2.4310953111676944e-16 1.0 -4.769541189121801e-16
  outer loop
    vertex 3462.5532102689585 11430.359358079693 394.09942525038036
    vertex 3462.453206978938 11430.359358079693 395.1751132387203
    vertex 3463.4259435912663 11430.359358079693 393.9029683131887
  endloop
endfacet
facet normal -2.4310953111676944e-16 1.0 -4.769541189121801e-16
  outer loop
    vertex 3463.4259435912663 11430.359358079693 393.9029683131887
    vertex 3462.453206978938 11430.359358079693 395.1751132387203
    vertex 3463.88149402715 11430.359358079693 394.91241519853884
  endloop
endfacet
facet normal -2.4310953111676944e-16 1.0 -4.769541189121801e-16
  outer loop
    vertex 3463.4259435912663 11430.359358079693 393.9029683131887
    vertex 3463.88149402715 11430.359358079693 394.91241519853884
    vertex 3464.2464808870027 11430.359358079693 393.2489880994307
  endloop
endfacet
facet normal -2.4310953111676944e-16 1.0 -4.769541189121801e-16
  outer loop
    vertex 3464.2464808870027 11430.359358079693 393.2489880994307
    vertex 3463.88149402715 11430.359358079693 394.91241519853884
    vertex 3464.5372936715276 11430.359358079693 392.8159815117749
  endloop
endfacet
facet normal -2.4310953111676944e-16 1.0 -4.769541189121801e-16
  outer loop
    vertex 3464.5372936715276 11430.359358079693 392.8159815117749
    vertex 3463.88149402715 11430.359358079693 394.91241519853884
    vertex 3465.031210604449 11430.359358079693 393.98352027491705
  endloop
endfacet
facet normal -2.4310953111676944e-16 1.0 -4.769541189121801e-16
  outer loop
    vertex 3464.5372936715276 11430.359358079693 392.8159815117749
    vertex 3465.031210604449 11430.359358079693 393.98352027491705
    vertex 3464.580990926289 11430.359358079693 392.65290113685455
  endloop
endfacet
facet normal -2.4310953111676944e-16 1.0 -4.769541189121801e-16
  outer loop
    vertex 3464.580990926289 11430.359358079693 392.65290113685455
    vertex 3460.804868474144 11430.359358079693 390.53860838613974
    vertex 3460.5292475268584 11430.359358079693 391.5672397650391
  endloop
endfacet
facet normal -2.4310953111676944e-16 1.0 -4.769541189121801e-16
  outer loop
    vertex 3460.804868474144 11430.359358079693 390.53860838613974
    vertex 3464.580990926289 11430.359358079693 392.65290113685455
    vertex 3465.8977805348177 11430.359358079693 391.90325005992
  endloop
endfacet
facet normal -2.4310953111676944e-16 1.0 -4.769541189121801e-16
  outer loop
    vertex 3465.8977805348177 11430.359358079693 391.90325005992
    vertex 3464.580990926289 11430.359358079693 392.65290113685455
    vertex 3465.031210604449 11430.359358079693 393.98352027491705
  endloop
endfacet
facet normal -2.4310953111676944e-16 1.0 -4.769541189121801e-16
  outer loop
    vertex 3465.8977805348177 11430.359358079693 391.90325005992
    vertex 3465.031210604449 11430.359358079693 393.98352027491705
    vertex 3465.544843142048 11430.359358079693 393.22043034162743
  endloop
endfacet
facet normal -2.4310953111676944e-16 1.0 -4.769541189121801e-16
  outer loop
    vertex 3460.3330292904197 11430.359358079693 389.18875890030307
    vertex 3460.8384876648665 11430.359358079693 390.41313985825207
    vertex 3461.495283150063 11430.359358079693 388.2632233313607
  endloop
endfacet
facet normal -2.4310953111676944e-16 1.0 -4.769541189121801e-16
  outer loop
    vertex 3460.8384876648665 11430.359358079693 390.41313985825207
    vertex 3460.3330292904197 11430.359358079693 389.18875890030307
    vertex 3460.498987690815 11430.359358079693 391.6801710105825
  endloop
endfacet
facet normal -2.4310953111676944e-16 1.0 -4.769541189121801e-16
  outer loop
    vertex 3460.8384876648665 11430.359358079693 390.41313985825207
    vertex 3460.498987690815 11430.359358079693 391.6801710105825
    vertex 3460.5292475268584 11430.359358079693 391.5672397650391
  endloop
endfacet
facet normal -2.4310953111676944e-16 1.0 -4.769541189121801e-16
  outer loop
    vertex 3460.8384876648665 11430.359358079693 390.41313985825207
    vertex 3460.5292475268584 11430.359358079693 391.5672397650391
    vertex 3460.804868474144 11430.359358079693 390.53860838613974
  endloop
endfacet
facet normal -2.4310953111676944e-16 1.0 -4.769541189121801e-16
  outer loop
    vertex 3461.495283150063 11430.359358079693 388.2632233313607
    vertex 3460.8384876648665 11430.359358079693 390.41313985825207
    vertex 3461.1494565774683 11430.359358079693 389.904909576531
  endloop
endfacet
facet normal -2.4310953111676944e-16 1.0 -4.769541189121801e-16
  outer loop
    vertex 3461.495283150063 11430.359358079693 388.2632233313607
    vertex 3461.1494565774683 11430.359358079693 389.904909576531
    vertex 3462.9235701982757 11430.359358079693 388.00052529117914
  endloop
endfacet
facet normal -2.4310953111676944e-16 1.0 -4.769541189121801e-16
  outer loop
    vertex 3462.9235701982757 11430.359358079693 388.00052529117914
    vertex 3461.1494565774683 11430.359358079693 389.904909576531
    vertex 3461.9700195171336 11430.359358079693 389.2508336583276
  endloop
endfacet
facet normal -2.4310953111676944e-16 1.0 -4.769541189121801e-16
  outer loop
    vertex 3462.9235701982757 11430.359358079693 388.00052529117914
    vertex 3461.9700195171336 11430.359358079693 389.2508336583276
    vertex 3462.8361041905987 11430.359358079693 389.0795726341986
  endloop
endfacet
facet normal -2.4310953111676944e-16 1.0 -4.769541189121801e-16
  outer loop
    vertex 3462.9235701982757 11430.359358079693 388.00052529117914
    vertex 3462.8361041905987 11430.359358079693 389.0795726341986
    vertex 3464.215580210849 11430.359358079693 388.3467183306612
  endloop
endfacet
facet normal -2.4310953111676944e-16 1.0 -4.769541189121801e-16
  outer loop
    vertex 3464.215580210849 11430.359358079693 388.3467183306612
    vertex 3462.8361041905987 11430.359358079693 389.0795726341986
    vertex 3463.8521982871544 11430.359358079693 389.35183422680456
  endloop
endfacet
facet normal -2.4310953111676944e-16 1.0 -4.769541189121801e-16
  outer loop
    vertex 3464.215580210849 11430.359358079693 388.3467183306612
    vertex 3463.8521982871544 11430.359358079693 389.35183422680456
    vertex 3464.6355144090367 11430.359358079693 389.7903644187125
  endloop
endfacet
facet normal -2.4310953111676944e-16 1.0 -4.769541189121801e-16
  outer loop
    vertex 3464.215580210849 11430.359358079693 388.3467183306612
    vertex 3464.6355144090367 11430.359358079693 389.7903644187125
    vertex 3465.279826389807 11430.359358079693 388.94114801679825
  endloop
endfacet
facet normal -2.4310953111676944e-16 1.0 -4.769541189121801e-16
  outer loop
    vertex 3465.279826389807 11430.359358079693 388.94114801679825
    vertex 3464.6355144090367 11430.359358079693 389.7903644187125
    vertex 3465.176830211995 11430.359358079693 390.37904952007915
  endloop
endfacet
facet normal -2.4310953111676944e-16 1.0 -4.769541189121801e-16
  outer loop
    vertex 3465.279826389807 11430.359358079693 388.94114801679825
    vertex 3465.176830211995 11430.359358079693 390.37904952007915
    vertex 3465.9506033769626 11430.359358079693 389.69899890081393
  endloop
endfacet
endsolid thesis3
