solid thesis3
facet normal 1.0 0.0 -0.0
  outer loop
    vertex 4569.414931664721 11325.220010381277 949.6572297224725
    vertex 4569.414931664721 11325.71343143391 943.5534725886741
    vertex 4569.414931664721 11325.71343143391 947.3716399951421
  endloop
endfacet
facet normal 1.0 0.0 -0.0
  outer loop
    vertex 4569.414931664721 11325.71343143391 943.5534725886741
    vertex 4569.414931664721 11325.220010381277 949.6572297224725
    vertex 4569.414931664721 11325.220010381277 941.319801060456
  endloop
endfacet
facet normal 1.0 0.0 -0.0
  outer loop
    vertex 4569.414931664721 11325.220010381277 941.319801060456
    vertex 4569.414931664721 11325.220010381277 949.6572297224725
    vertex 4569.414931664721 11324.077215517613 951.9689767104242
  endloop
endfacet
facet normal 1.0 0.0 -0.0
  outer loop
    vertex 4569.414931664721 11325.220010381277 941.319801060456
    vertex 4569.414931664721 11324.077215517613 951.9689767104242
    vertex 4569.414931664721 11324.077215517613 939.0082522335695
  endloop
endfacet
facet normal 1.0 0.0 -0.0
  outer loop
    vertex 4569.414931664721 11324.077215517613 939.0082522335695
    vertex 4569.414931664721 11324.077215517613 951.9689767104242
    vertex 4569.414931664721 11323.557637204362 947.2156872367401
  endloop
endfacet
facet normal 1.0 0.0 -0.0
  outer loop
    vertex 4569.414931664721 11323.557637204362 947.2156872367401
    vertex 4569.414931664721 11324.077215517613 951.9689767104242
    vertex 4569.414931664721 11322.285046842915 953.7090290249455
  endloop
endfacet
facet normal 1.0 0.0 -0.0
  outer loop
    vertex 4569.414931664721 11323.557637204362 947.2156872367401
    vertex 4569.414931664721 11322.285046842915 953.7090290249455
    vertex 4569.414931664721 11323.168052549954 948.9559377123267
  endloop
endfacet
facet normal 1.0 0.0 -0.0
  outer loop
    vertex 4569.414931664721 11323.168052549954 948.9559377123267
    vertex 4569.414931664721 11322.285046842915 953.7090290249455
    vertex 4569.414931664721 11322.285046842915 950.6961881879132
  endloop
endfacet
facet normal 1.0 0.0 -0.0
  outer loop
    vertex 4569.414931664721 11322.285046842915 950.6961881879132
    vertex 4569.414931664721 11322.285046842915 953.7090290249455
    vertex 4569.414931664721 11319.557756101 954.9039402487883
  endloop
endfacet
facet normal 1.0 0.0 -0.0
  outer loop
    vertex 4569.414931664721 11322.285046842915 950.6961881879132
    vertex 4569.414931664721 11319.557756101 954.9039402487883
    vertex 4569.414931664721 11321.03821741996 951.9430176108682
  endloop
endfacet
facet normal 1.0 0.0 -0.0
  outer loop
    vertex 4569.414931664721 11321.03821741996 951.9430176108682
    vertex 4569.414931664721 11319.557756101 954.9039402487883
    vertex 4569.414931664721 11319.19413054615 952.7741051187946
  endloop
endfacet
facet normal 1.0 0.0 -0.0
  outer loop
    vertex 4569.414931664721 11319.19413054615 952.7741051187946
    vertex 4569.414931664721 11319.557756101 954.9039402487883
    vertex 4569.414931664721 11316.830663520152 954.9039402487883
  endloop
endfacet
facet normal 1.0 0.0 -0.0
  outer loop
    vertex 4569.414931664721 11319.19413054615 952.7741051187946
    vertex 4569.414931664721 11316.830663520152 954.9039402487883
    vertex 4569.414931664721 11317.142172714823 952.7741051187946
  endloop
endfacet
facet normal 1.0 0.0 -0.0
  outer loop
    vertex 4569.414931664721 11317.142172714823 952.7741051187946
    vertex 4569.414931664721 11316.830663520152 954.9039402487883
    vertex 4569.414931664721 11315.194249442788 951.9430176108682
  endloop
endfacet
facet normal 1.0 0.0 -0.0
  outer loop
    vertex 4569.414931664721 11315.194249442788 951.9430176108682
    vertex 4569.414931664721 11316.830663520152 954.9039402487883
    vertex 4569.414931664721 11314.129331877792 953.8390226837914
  endloop
endfacet
facet normal 1.0 0.0 -0.0
  outer loop
    vertex 4569.414931664721 11315.194249442788 951.9430176108682
    vertex 4569.414931664721 11314.129331877792 953.8390226837914
    vertex 4569.414931664721 11314.389121034419 951.2936437998345
  endloop
endfacet
facet normal 1.0 0.0 -0.0
  outer loop
    vertex 4569.414931664721 11314.389121034419 951.2936437998345
    vertex 4569.414931664721 11314.129331877792 953.8390226837914
    vertex 4569.414931664721 11313.479958066757 950.2806444339499
  endloop
endfacet
facet normal 1.0 0.0 -0.0
  outer loop
    vertex 4569.414931664721 11313.479958066757 950.2806444339499
    vertex 4569.414931664721 11314.129331877792 953.8390226837914
    vertex 4569.414931664721 11312.960577914571 952.9298597161313
  endloop
endfacet
facet normal 1.0 0.0 -0.0
  outer loop
    vertex 4569.414931664721 11313.479958066757 950.2806444339499
    vertex 4569.414931664721 11312.960577914571 952.9298597161313
    vertex 4569.414931664721 11311.947578548685 951.7351466533539
  endloop
endfacet
facet normal 1.0 0.0 -0.0
  outer loop
    vertex 4569.414931664721 11324.077215517613 939.0082522335695
    vertex 4569.414931664721 11323.557637204362 943.7353844466322
    vertex 4569.414931664721 11322.336965042028 937.2420426584267
  endloop
endfacet
facet normal 1.0 0.0 -0.0
  outer loop
    vertex 4569.414931664721 11323.557637204362 943.7353844466322
    vertex 4569.414931664721 11324.077215517613 939.0082522335695
    vertex 4569.414931664721 11323.557637204362 947.2156872367401
  endloop
endfacet
facet normal 1.0 0.0 -0.0
  outer loop
    vertex 4569.414931664721 11322.336965042028 937.2420426584267
    vertex 4569.414931664721 11323.557637204362 943.7353844466322
    vertex 4569.414931664721 11323.168052549954 941.9951339710457
  endloop
endfacet
facet normal 1.0 0.0 -0.0
  outer loop
    vertex 4569.414931664721 11322.336965042028 937.2420426584267
    vertex 4569.414931664721 11323.168052549954 941.9951339710457
    vertex 4569.414931664721 11322.285046842915 940.2808425950153
  endloop
endfacet
facet normal 1.0 0.0 -0.0
  outer loop
    vertex 4569.414931664721 11322.336965042028 937.2420426584267
    vertex 4569.414931664721 11322.285046842915 940.2808425950153
    vertex 4569.414931664721 11319.557756101 936.0211723350279
  endloop
endfacet
facet normal 1.0 0.0 -0.0
  outer loop
    vertex 4569.414931664721 11319.557756101 936.0211723350279
    vertex 4569.414931664721 11322.285046842915 940.2808425950153
    vertex 4569.414931664721 11321.064176519516 939.0342113331257
  endloop
endfacet
facet normal 1.0 0.0 -0.0
  outer loop
    vertex 4569.414931664721 11319.557756101 936.0211723350279
    vertex 4569.414931664721 11321.064176519516 939.0342113331257
    vertex 4569.414931664721 11319.19413054615 938.1510074650216
  endloop
endfacet
facet normal 1.0 0.0 -0.0
  outer loop
    vertex 4569.414931664721 11319.557756101 936.0211723350279
    vertex 4569.414931664721 11319.19413054615 938.1510074650216
    vertex 4569.414931664721 11316.830663520152 936.0211723350279
  endloop
endfacet
facet normal 1.0 0.0 -0.0
  outer loop
    vertex 4569.414931664721 11316.830663520152 936.0211723350279
    vertex 4569.414931664721 11319.19413054615 938.1510074650216
    vertex 4569.414931664721 11317.142172714823 938.1510074650216
  endloop
endfacet
facet normal 1.0 0.0 -0.0
  outer loop
    vertex 4569.414931664721 11316.830663520152 936.0211723350279
    vertex 4569.414931664721 11317.142172714823 938.1510074650216
    vertex 4569.414931664721 11315.168290343232 938.9822931340133
  endloop
endfacet
facet normal 1.0 0.0 -0.0
  outer loop
    vertex 4569.414931664721 11316.830663520152 936.0211723350279
    vertex 4569.414931664721 11315.168290343232 938.9822931340133
    vertex 4569.414931664721 11314.129331877792 937.0860899000247
  endloop
endfacet
facet normal 1.0 0.0 -0.0
  outer loop
    vertex 4569.414931664721 11314.129331877792 937.0860899000247
    vertex 4569.414931664721 11315.168290343232 938.9822931340133
    vertex 4569.414931664721 11314.363161934862 939.6314687839816
  endloop
endfacet
facet normal 1.0 0.0 -0.0
  outer loop
    vertex 4569.414931664721 11314.129331877792 937.0860899000247
    vertex 4569.414931664721 11314.363161934862 939.6314687839816
    vertex 4569.414931664721 11313.479958066757 940.6444681498662
  endloop
endfacet
facet normal 1.0 0.0 -0.0
  outer loop
    vertex 4569.414931664721 11314.129331877792 937.0860899000247
    vertex 4569.414931664721 11313.479958066757 940.6444681498662
    vertex 4569.414931664721 11312.960577914571 937.9952528676849
  endloop
endfacet
facet normal 1.0 0.0 -0.0
  outer loop
    vertex 4569.414931664721 11312.960577914571 937.9952528676849
    vertex 4569.414931664721 11313.479958066757 940.6444681498662
    vertex 4569.414931664721 11311.947578548685 939.1899659304623
  endloop
endfacet
facet normal 1.0 0.0 -0.0
  outer loop
    vertex 4569.414931664721 11308.047966944372 946.9301371416227
    vertex 4569.414931664721 11308.593504357183 941.5276720179702
    vertex 4569.414931664721 11308.593504357183 944.5924310541149
  endloop
endfacet
facet normal 1.0 0.0 -0.0
  outer loop
    vertex 4569.414931664721 11308.593504357183 941.5276720179702
    vertex 4569.414931664721 11308.047966944372 946.9301371416227
    vertex 4569.414931664721 11308.047966944372 939.1899659304623
  endloop
endfacet
facet normal 1.0 0.0 -0.0
  outer loop
    vertex 4569.414931664721 11308.047966944372 939.1899659304623
    vertex 4569.414931664721 11308.047966944372 946.9301371416227
    vertex 4569.414931664721 11306.671342023637 948.8780604136582
  endloop
endfacet
facet normal 1.0 0.0 -0.0
  outer loop
    vertex 4569.414931664721 11308.047966944372 939.1899659304623
    vertex 4569.414931664721 11306.671342023637 948.8780604136582
    vertex 4569.414931664721 11306.671342023637 937.2420426584267
  endloop
endfacet
facet normal 1.0 0.0 -0.0
  outer loop
    vertex 4569.414931664721 11306.671342023637 937.2420426584267
    vertex 4569.414931664721 11306.671342023637 948.8780604136582
    vertex 4569.414931664721 11306.437710127635 944.3587991581097
  endloop
endfacet
facet normal 1.0 0.0 -0.0
  outer loop
    vertex 4569.414931664721 11306.437710127635 944.3587991581097
    vertex 4569.414931664721 11306.671342023637 948.8780604136582
    vertex 4569.414931664721 11306.074084572781 946.0728923730749
  endloop
endfacet
facet normal 1.0 0.0 -0.0
  outer loop
    vertex 4569.414931664721 11306.074084572781 946.0728923730749
    vertex 4569.414931664721 11306.671342023637 948.8780604136582
    vertex 4569.414931664721 11304.07404494057 950.1248898366132
  endloop
endfacet
facet normal 1.0 0.0 -0.0
  outer loop
    vertex 4569.414931664721 11306.074084572781 946.0728923730749
    vertex 4569.414931664721 11304.07404494057 950.1248898366132
    vertex 4569.414931664721 11305.242997064855 947.2156872367401
  endloop
endfacet
facet normal 1.0 0.0 -0.0
  outer loop
    vertex 4569.414931664721 11305.242997064855 947.2156872367401
    vertex 4569.414931664721 11304.07404494057 950.1248898366132
    vertex 4569.414931664721 11303.68446028616 947.9950547066195
  endloop
endfacet
facet normal 1.0 0.0 -0.0
  outer loop
    vertex 4569.414931664721 11303.68446028616 947.9950547066195
    vertex 4569.414931664721 11304.07404494057 950.1248898366132
    vertex 4569.414931664721 11300.957367705312 950.1248898366132
  endloop
endfacet
facet normal 1.0 0.0 -0.0
  outer loop
    vertex 4569.414931664721 11303.68446028616 947.9950547066195
    vertex 4569.414931664721 11300.957367705312 950.1248898366132
    vertex 4569.414931664721 11301.34695235972 947.9950547066195
  endloop
endfacet
facet normal 1.0 0.0 -0.0
  outer loop
    vertex 4569.414931664721 11301.34695235972 947.9950547066195
    vertex 4569.414931664721 11300.957367705312 950.1248898366132
    vertex 4569.414931664721 11299.788415581026 947.2156872367401
  endloop
endfacet
facet normal 1.0 0.0 -0.0
  outer loop
    vertex 4569.414931664721 11299.788415581026 947.2156872367401
    vertex 4569.414931664721 11300.957367705312 950.1248898366132
    vertex 4569.414931664721 11298.359872461177 948.8780604136582
  endloop
endfacet
facet normal 1.0 0.0 -0.0
  outer loop
    vertex 4569.414931664721 11299.788415581026 947.2156872367401
    vertex 4569.414931664721 11298.359872461177 948.8780604136582
    vertex 4569.414931664721 11298.9573280731 946.0728923730749
  endloop
endfacet
facet normal 1.0 0.0 -0.0
  outer loop
    vertex 4569.414931664721 11298.9573280731 946.0728923730749
    vertex 4569.414931664721 11298.359872461177 948.8780604136582
    vertex 4569.414931664721 11298.593702518247 944.3587991581097
  endloop
endfacet
facet normal 1.0 0.0 -0.0
  outer loop
    vertex 4569.414931664721 11298.593702518247 944.3587991581097
    vertex 4569.414931664721 11298.359872461177 948.8780604136582
    vertex 4569.414931664721 11298.593702518247 941.7872630135314
  endloop
endfacet
facet normal 1.0 0.0 -0.0
  outer loop
    vertex 4569.414931664721 11306.671342023637 937.2420426584267
    vertex 4569.414931664721 11306.074084572781 940.0472106990102
    vertex 4569.414931664721 11304.048085841014 936.0211723350279
  endloop
endfacet
facet normal 1.0 0.0 -0.0
  outer loop
    vertex 4569.414931664721 11306.074084572781 940.0472106990102
    vertex 4569.414931664721 11306.671342023637 937.2420426584267
    vertex 4569.414931664721 11306.437710127635 941.7872630135314
  endloop
endfacet
facet normal 1.0 0.0 -0.0
  outer loop
    vertex 4569.414931664721 11306.437710127635 941.7872630135314
    vertex 4569.414931664721 11306.671342023637 937.2420426584267
    vertex 4569.414931664721 11306.437710127635 944.3587991581097
  endloop
endfacet
facet normal 1.0 0.0 -0.0
  outer loop
    vertex 4569.414931664721 11304.048085841014 936.0211723350279
    vertex 4569.414931664721 11306.074084572781 940.0472106990102
    vertex 4569.414931664721 11305.242997064855 938.8782585747236
  endloop
endfacet
facet normal 1.0 0.0 -0.0
  outer loop
    vertex 4569.414931664721 11304.048085841014 936.0211723350279
    vertex 4569.414931664721 11305.242997064855 938.8782585747236
    vertex 4569.414931664721 11303.68446028616 938.1250483654654
  endloop
endfacet
facet normal 1.0 0.0 -0.0
  outer loop
    vertex 4569.414931664721 11304.048085841014 936.0211723350279
    vertex 4569.414931664721 11303.68446028616 938.1250483654654
    vertex 4569.414931664721 11300.983326804868 936.0211723350279
  endloop
endfacet
facet normal 1.0 0.0 -0.0
  outer loop
    vertex 4569.414931664721 11300.983326804868 936.0211723350279
    vertex 4569.414931664721 11303.68446028616 938.1250483654654
    vertex 4569.414931664721 11301.34695235972 938.1250483654654
  endloop
endfacet
facet normal 1.0 0.0 -0.0
  outer loop
    vertex 4569.414931664721 11300.983326804868 936.0211723350279
    vertex 4569.414931664721 11301.34695235972 938.1250483654654
    vertex 4569.414931664721 11299.788415581026 938.8782585747236
  endloop
endfacet
facet normal 1.0 0.0 -0.0
  outer loop
    vertex 4569.414931664721 11300.983326804868 936.0211723350279
    vertex 4569.414931664721 11299.788415581026 938.8782585747236
    vertex 4569.414931664721 11298.359872461177 937.2420426584267
  endloop
endfacet
facet normal 1.0 0.0 -0.0
  outer loop
    vertex 4569.414931664721 11298.359872461177 937.2420426584267
    vertex 4569.414931664721 11299.788415581026 938.8782585747236
    vertex 4569.414931664721 11298.9573280731 940.0472106990102
  endloop
endfacet
facet normal 1.0 0.0 -0.0
  outer loop
    vertex 4569.414931664721 11298.359872461177 937.2420426584267
    vertex 4569.414931664721 11298.9573280731 940.0472106990102
    vertex 4569.414931664721 11298.593702518247 941.7872630135314
  endloop
endfacet
facet normal 1.0 0.0 -0.0
  outer loop
    vertex 4569.414931664721 11298.359872461177 937.2420426584267
    vertex 4569.414931664721 11298.593702518247 941.7872630135314
    vertex 4569.414931664721 11298.359872461177 948.8780604136582
  endloop
endfacet
facet normal 1.0 0.0 -0.0
  outer loop
    vertex 4569.414931664721 11298.359872461177 937.2420426584267
    vertex 4569.414931664721 11298.359872461177 948.8780604136582
    vertex 4569.414931664721 11296.983445701508 946.9301371416227
  endloop
endfacet
facet normal 1.0 0.0 -0.0
  outer loop
    vertex 4569.414931664721 11298.359872461177 937.2420426584267
    vertex 4569.414931664721 11296.983445701508 946.9301371416227
    vertex 4569.414931664721 11296.983445701508 939.1899659304623
  endloop
endfacet
facet normal 1.0 0.0 -0.0
  outer loop
    vertex 4569.414931664721 11296.983445701508 939.1899659304623
    vertex 4569.414931664721 11296.983445701508 946.9301371416227
    vertex 4569.414931664721 11296.437908288699 944.5924310541149
  endloop
endfacet
facet normal 1.0 0.0 -0.0
  outer loop
    vertex 4569.414931664721 11296.983445701508 939.1899659304623
    vertex 4569.414931664721 11296.437908288699 944.5924310541149
    vertex 4569.414931664721 11296.437908288699 941.5276720179702
  endloop
endfacet
facet normal 1.0 0.0 -0.0
  outer loop
    vertex 4569.414931664721 11288.356701884131 949.1378495702847
    vertex 4569.414931664721 11289.006075695166 945.6833077186677
    vertex 4569.414931664721 11289.006075695166 948.5663530579195
  endloop
endfacet
facet normal 1.0 0.0 -0.0
  outer loop
    vertex 4569.414931664721 11289.006075695166 945.6833077186677
    vertex 4569.414931664721 11288.356701884131 949.1378495702847
    vertex 4569.414931664721 11288.226708225287 946.8001434827768
  endloop
endfacet
facet normal 1.0 0.0 -0.0
  outer loop
    vertex 4569.414931664721 11288.226708225287 946.8001434827768
    vertex 4569.414931664721 11288.356701884131 949.1378495702847
    vertex 4569.414931664721 11286.642410508102 950.1248898366132
  endloop
endfacet
facet normal 1.0 0.0 -0.0
  outer loop
    vertex 4569.414931664721 11288.226708225287 946.8001434827768
    vertex 4569.414931664721 11286.642410508102 950.1248898366132
    vertex 4569.414931664721 11286.35666225192 947.9950547066195
  endloop
endfacet
facet normal 1.0 0.0 -0.0
  outer loop
    vertex 4569.414931664721 11286.35666225192 947.9950547066195
    vertex 4569.414931664721 11286.642410508102 950.1248898366132
    vertex 4569.414931664721 11283.99319522592 950.1248898366132
  endloop
endfacet
facet normal 1.0 0.0 -0.0
  outer loop
    vertex 4569.414931664721 11286.35666225192 947.9950547066195
    vertex 4569.414931664721 11283.99319522592 950.1248898366132
    vertex 4569.414931664721 11284.434698079442 947.9950547066195
  endloop
endfacet
facet normal 1.0 0.0 -0.0
  outer loop
    vertex 4569.414931664721 11284.434698079442 947.9950547066195
    vertex 4569.414931664721 11283.99319522592 950.1248898366132
    vertex 4569.414931664721 11282.902318561368 947.5273945924788
  endloop
endfacet
facet normal 1.0 0.0 -0.0
  outer loop
    vertex 4569.414931664721 11282.902318561368 947.5273945924788
    vertex 4569.414931664721 11283.99319522592 950.1248898366132
    vertex 4569.414931664721 11281.68144823797 949.5014751251358
  endloop
endfacet
facet normal 1.0 0.0 -0.0
  outer loop
    vertex 4569.414931664721 11282.902318561368 947.5273945924788
    vertex 4569.414931664721 11281.68144823797 949.5014751251358
    vertex 4569.414931664721 11282.252944750335 946.4884361270381
  endloop
endfacet
facet normal 1.0 0.0 -0.0
  outer loop
    vertex 4569.414931664721 11282.252944750335 946.4884361270381
    vertex 4569.414931664721 11281.68144823797 949.5014751251358
    vertex 4569.414931664721 11282.252944750335 936.2290432925422
  endloop
endfacet
facet normal 1.0 0.0 -0.0
  outer loop
    vertex 4569.414931664721 11282.252944750335 936.2290432925422
    vertex 4569.414931664721 11281.68144823797 949.5014751251358
    vertex 4569.414931664721 11280.097150520784 936.2290432925422
  endloop
endfacet
facet normal 1.0 0.0 -0.0
  outer loop
    vertex 4569.414931664721 11280.097150520784 936.2290432925422
    vertex 4569.414931664721 11281.68144823797 949.5014751251358
    vertex 4569.414931664721 11280.097150520784 947.3716399951421
  endloop
endfacet
facet normal 1.0 0.0 -0.0
  outer loop
    vertex 4569.414931664721 11289.006075695166 949.9170188790989
    vertex 4569.414931664721 11291.161869924716 936.2290432925422
    vertex 4569.414931664721 11291.161869924716 949.9170188790989
  endloop
endfacet
facet normal 1.0 0.0 -0.0
  outer loop
    vertex 4569.414931664721 11291.161869924716 936.2290432925422
    vertex 4569.414931664721 11289.006075695166 949.9170188790989
    vertex 4569.414931664721 11289.006075695166 936.2290432925422
  endloop
endfacet
facet normal 1.0 0.0 -0.0
  outer loop
    vertex 4569.414931664721 11289.006075695166 936.2290432925422
    vertex 4569.414931664721 11289.006075695166 949.9170188790989
    vertex 4569.414931664721 11289.006075695166 948.5663530579195
  endloop
endfacet
facet normal 1.0 0.0 -0.0
  outer loop
    vertex 4569.414931664721 11289.006075695166 936.2290432925422
    vertex 4569.414931664721 11289.006075695166 948.5663530579195
    vertex 4569.414931664721 11289.006075695166 945.6833077186677
  endloop
endfacet
facet normal 1.0 0.0 -0.0
  outer loop
    vertex 4569.414931664721 11264.249813805503 949.579352423804
    vertex 4569.414931664721 11269.392489772528 947.4495172938103
    vertex 4569.414931664721 11269.392489772528 949.579352423804
  endloop
endfacet
facet normal 1.0 0.0 -0.0
  outer loop
    vertex 4569.414931664721 11269.392489772528 947.4495172938103
    vertex 4569.414931664721 11264.249813805503 949.579352423804
    vertex 4569.414931664721 11264.249813805503 947.4495172938103
  endloop
endfacet
facet normal 1.0 0.0 -0.0
  outer loop
    vertex 4569.414931664721 11269.392489772528 954.3584028359792
    vertex 4569.414931664721 11271.54828400208 949.579352423804
    vertex 4569.414931664721 11271.54828400208 954.3584028359792
  endloop
endfacet
facet normal 1.0 0.0 -0.0
  outer loop
    vertex 4569.414931664721 11271.54828400208 949.579352423804
    vertex 4569.414931664721 11269.392489772528 954.3584028359792
    vertex 4569.414931664721 11271.54828400208 947.4495172938103
  endloop
endfacet
facet normal 1.0 0.0 -0.0
  outer loop
    vertex 4569.414931664721 11271.54828400208 947.4495172938103
    vertex 4569.414931664721 11269.392489772528 954.3584028359792
    vertex 4569.414931664721 11271.54828400208 938.7484630769429
  endloop
endfacet
facet normal 1.0 0.0 -0.0
  outer loop
    vertex 4569.414931664721 11271.54828400208 938.7484630769429
    vertex 4569.414931664721 11269.392489772528 954.3584028359792
    vertex 4569.414931664721 11270.11974088223 936.6965052456176
  endloop
endfacet
facet normal 1.0 0.0 -0.0
  outer loop
    vertex 4569.414931664721 11270.11974088223 936.6965052456176
    vertex 4569.414931664721 11269.392489772528 954.3584028359792
    vertex 4569.414931664721 11269.392489772528 939.4497550870888
  endloop
endfacet
facet normal 1.0 0.0 -0.0
  outer loop
    vertex 4569.414931664721 11270.11974088223 936.6965052456176
    vertex 4569.414931664721 11269.392489772528 939.4497550870888
    vertex 4569.414931664721 11268.301613107977 936.0211723350279
  endloop
endfacet
facet normal 1.0 0.0 -0.0
  outer loop
    vertex 4569.414931664721 11269.392489772528 939.4497550870888
    vertex 4569.414931664721 11269.392489772528 954.3584028359792
    vertex 4569.414931664721 11269.392489772528 949.579352423804
  endloop
endfacet
facet normal 1.0 0.0 -0.0
  outer loop
    vertex 4569.414931664721 11269.392489772528 939.4497550870888
    vertex 4569.414931664721 11269.392489772528 949.579352423804
    vertex 4569.414931664721 11269.392489772528 947.4495172938103
  endloop
endfacet
facet normal 1.0 0.0 -0.0
  outer loop
    vertex 4569.414931664721 11268.301613107977 936.0211723350279
    vertex 4569.414931664721 11269.392489772528 939.4497550870888
    vertex 4569.414931664721 11268.74331412256 938.5146330198726
  endloop
endfacet
facet normal 1.0 0.0 -0.0
  outer loop
    vertex 4569.414931664721 11268.301613107977 936.0211723350279
    vertex 4569.414931664721 11268.74331412256 938.5146330198726
    vertex 4569.414931664721 11267.8341511549 938.1510074650216
  endloop
endfacet
facet normal 1.0 0.0 -0.0
  outer loop
    vertex 4569.414931664721 11268.301613107977 936.0211723350279
    vertex 4569.414931664721 11267.8341511549 938.1510074650216
    vertex 4569.414931664721 11265.548561427571 936.0211723350279
  endloop
endfacet
facet normal 1.0 0.0 -0.0
  outer loop
    vertex 4569.414931664721 11265.548561427571 936.0211723350279
    vertex 4569.414931664721 11267.8341511549 938.1510074650216
    vertex 4569.414931664721 11265.548561427571 938.1510074650216
  endloop
endfacet
facet normal 1.0 0.0 -0.0
  outer loop
    vertex 4569.414931664721 11265.548561427571 936.0211723350279
    vertex 4569.414931664721 11265.548561427571 938.1510074650216
    vertex 4569.414931664721 11263.678317293137 938.6186675791623
  endloop
endfacet
facet normal 1.0 0.0 -0.0
  outer loop
    vertex 4569.414931664721 11265.548561427571 936.0211723350279
    vertex 4569.414931664721 11263.678317293137 938.6186675791623
    vertex 4569.414931664721 11263.132978041394 936.5667097478371
  endloop
endfacet
facet normal 1.0 0.0 -0.0
  outer loop
    vertex 4569.414931664721 11271.54828400208 949.579352423804
    vertex 4569.414931664721 11275.054744052808 947.4495172938103
    vertex 4569.414931664721 11275.054744052808 949.579352423804
  endloop
endfacet
facet normal 1.0 0.0 -0.0
  outer loop
    vertex 4569.414931664721 11275.054744052808 947.4495172938103
    vertex 4569.414931664721 11271.54828400208 949.579352423804
    vertex 4569.414931664721 11271.54828400208 947.4495172938103
  endloop
endfacet
facet normal 1.0 0.0 -0.0
  outer loop
    vertex 4569.414931664721 11258.194407971641 946.4884361270381
    vertex 4569.414931664721 11258.73994538445 941.5017129184141
    vertex 4569.414931664721 11258.73994538445 944.5924310541149
  endloop
endfacet
facet normal 1.0 0.0 -0.0
  outer loop
    vertex 4569.414931664721 11258.73994538445 941.5017129184141
    vertex 4569.414931664721 11258.194407971641 946.4884361270381
    vertex 4569.414931664721 11258.194407971641 939.657626044603
  endloop
endfacet
facet normal 1.0 0.0 -0.0
  outer loop
    vertex 4569.414931664721 11258.194407971641 939.657626044603
    vertex 4569.414931664721 11258.194407971641 946.4884361270381
    vertex 4569.414931664721 11256.428198396497 948.8780604136582
  endloop
endfacet
facet normal 1.0 0.0 -0.0
  outer loop
    vertex 4569.414931664721 11258.194407971641 939.657626044603
    vertex 4569.414931664721 11256.428198396497 948.8780604136582
    vertex 4569.414931664721 11256.5841511549 944.3847582576658
  endloop
endfacet
facet normal 1.0 0.0 -0.0
  outer loop
    vertex 4569.414931664721 11256.5841511549 944.3847582576658
    vertex 4569.414931664721 11256.428198396497 948.8780604136582
    vertex 4569.414931664721 11256.27244379916 945.5275531213309
  endloop
endfacet
facet normal 1.0 0.0 -0.0
  outer loop
    vertex 4569.414931664721 11256.27244379916 945.5275531213309
    vertex 4569.414931664721 11256.428198396497 948.8780604136582
    vertex 4569.414931664721 11253.83090131343 950.1248898366132
  endloop
endfacet
facet normal 1.0 0.0 -0.0
  outer loop
    vertex 4569.414931664721 11256.27244379916 945.5275531213309
    vertex 4569.414931664721 11253.83090131343 950.1248898366132
    vertex 4569.414931664721 11255.051771636827 947.1897281371839
  endloop
endfacet
facet normal 1.0 0.0 -0.0
  outer loop
    vertex 4569.414931664721 11255.051771636827 947.1897281371839
    vertex 4569.414931664721 11253.83090131343 950.1248898366132
    vertex 4569.414931664721 11253.493234858135 947.9950547066195
  endloop
endfacet
facet normal 1.0 0.0 -0.0
  outer loop
    vertex 4569.414931664721 11253.493234858135 947.9950547066195
    vertex 4569.414931664721 11253.83090131343 950.1248898366132
    vertex 4569.414931664721 11250.99977417329 950.1248898366132
  endloop
endfacet
facet normal 1.0 0.0 -0.0
  outer loop
    vertex 4569.414931664721 11253.493234858135 947.9950547066195
    vertex 4569.414931664721 11250.99977417329 950.1248898366132
    vertex 4569.414931664721 11251.36339972814 947.9950547066195
  endloop
endfacet
facet normal 1.0 0.0 -0.0
  outer loop
    vertex 4569.414931664721 11251.36339972814 947.9950547066195
    vertex 4569.414931664721 11250.99977417329 950.1248898366132
    vertex 4569.414931664721 11249.779102010956 947.1637690376278
  endloop
endfacet
facet normal 1.0 0.0 -0.0
  outer loop
    vertex 4569.414931664721 11249.779102010956 947.1637690376278
    vertex 4569.414931664721 11250.99977417329 950.1248898366132
    vertex 4569.414931664721 11248.376517990666 948.8780604136582
  endloop
endfacet
facet normal 1.0 0.0 -0.0
  outer loop
    vertex 4569.414931664721 11249.779102010956 947.1637690376278
    vertex 4569.414931664721 11248.376517990666 948.8780604136582
    vertex 4569.414931664721 11248.532470749067 945.4756349222188
  endloop
endfacet
facet normal 1.0 0.0 -0.0
  outer loop
    vertex 4569.414931664721 11248.532470749067 945.4756349222188
    vertex 4569.414931664721 11248.376517990666 948.8780604136582
    vertex 4569.414931664721 11248.194804293771 944.4885946558902
  endloop
endfacet
facet normal 1.0 0.0 -0.0
  outer loop
    vertex 4569.414931664721 11248.194804293771 944.4885946558902
    vertex 4569.414931664721 11248.376517990666 948.8780604136582
    vertex 4569.414931664721 11246.636267515078 946.4884361270381
  endloop
endfacet
facet normal 1.0 0.0 -0.0
  outer loop
    vertex 4569.414931664721 11248.194804293771 944.4885946558902
    vertex 4569.414931664721 11246.636267515078 946.4884361270381
    vertex 4569.414931664721 11248.194804293771 944.1509282005954
  endloop
endfacet
facet normal 1.0 0.0 -0.0
  outer loop
    vertex 4569.414931664721 11248.194804293771 944.1509282005954
    vertex 4569.414931664721 11256.5841511549 942.0210930706019
    vertex 4569.414931664721 11256.5841511549 944.1509282005954
  endloop
endfacet
facet normal 1.0 0.0 -0.0
  outer loop
    vertex 4569.414931664721 11256.5841511549 942.0210930706019
    vertex 4569.414931664721 11248.194804293771 944.1509282005954
    vertex 4569.414931664721 11246.039010064222 942.0210930706019
  endloop
endfacet
facet normal 1.0 0.0 -0.0
  outer loop
    vertex 4569.414931664721 11246.039010064222 942.0210930706019
    vertex 4569.414931664721 11248.194804293771 944.1509282005954
    vertex 4569.414931664721 11246.636267515078 946.4884361270381
  endloop
endfacet
facet normal 1.0 0.0 -0.0
  outer loop
    vertex 4569.414931664721 11246.039010064222 942.0210930706019
    vertex 4569.414931664721 11246.636267515078 946.4884361270381
    vertex 4569.414931664721 11246.039010064222 944.7483838125169
  endloop
endfacet
facet normal 1.0 0.0 -0.0
  outer loop
    vertex 4569.414931664721 11258.194407971641 939.657626044603
    vertex 4569.414931664721 11256.5841511549 941.7613039139753
    vertex 4569.414931664721 11256.428198396497 937.2680017579829
  endloop
endfacet
facet normal 1.0 0.0 -0.0
  outer loop
    vertex 4569.414931664721 11256.5841511549 941.7613039139753
    vertex 4569.414931664721 11258.194407971641 939.657626044603
    vertex 4569.414931664721 11256.5841511549 944.3847582576658
  endloop
endfacet
facet normal 1.0 0.0 -0.0
  outer loop
    vertex 4569.414931664721 11256.5841511549 941.7613039139753
    vertex 4569.414931664721 11256.5841511549 944.3847582576658
    vertex 4569.414931664721 11256.5841511549 944.1509282005954
  endloop
endfacet
facet normal 1.0 0.0 -0.0
  outer loop
    vertex 4569.414931664721 11256.5841511549 941.7613039139753
    vertex 4569.414931664721 11256.5841511549 944.1509282005954
    vertex 4569.414931664721 11256.5841511549 942.0210930706019
  endloop
endfacet
facet normal 1.0 0.0 -0.0
  outer loop
    vertex 4569.414931664721 11256.428198396497 937.2680017579829
    vertex 4569.414931664721 11256.5841511549 941.7613039139753
    vertex 4569.414931664721 11256.246484699604 940.6185090503102
  endloop
endfacet
facet normal 1.0 0.0 -0.0
  outer loop
    vertex 4569.414931664721 11256.428198396497 937.2680017579829
    vertex 4569.414931664721 11256.246484699604 940.6185090503102
    vertex 4569.414931664721 11253.804942213874 936.0211723350279
  endloop
endfacet
facet normal 1.0 0.0 -0.0
  outer loop
    vertex 4569.414931664721 11253.804942213874 936.0211723350279
    vertex 4569.414931664721 11256.246484699604 940.6185090503102
    vertex 4569.414931664721 11254.999853437716 938.9301767738358
  endloop
endfacet
facet normal 1.0 0.0 -0.0
  outer loop
    vertex 4569.414931664721 11253.804942213874 936.0211723350279
    vertex 4569.414931664721 11254.999853437716 938.9301767738358
    vertex 4569.414931664721 11253.415357559466 938.1510074650216
  endloop
endfacet
facet normal 1.0 0.0 -0.0
  outer loop
    vertex 4569.414931664721 11253.804942213874 936.0211723350279
    vertex 4569.414931664721 11253.415357559466 938.1510074650216
    vertex 4569.414931664721 11251.129767832135 936.0211723350279
  endloop
endfacet
facet normal 1.0 0.0 -0.0
  outer loop
    vertex 4569.414931664721 11251.129767832135 936.0211723350279
    vertex 4569.414931664721 11253.415357559466 938.1510074650216
    vertex 4569.414931664721 11251.311481529028 938.1510074650216
  endloop
endfacet
facet normal 1.0 0.0 -0.0
  outer loop
    vertex 4569.414931664721 11251.129767832135 936.0211723350279
    vertex 4569.414931664721 11251.311481529028 938.1510074650216
    vertex 4569.414931664721 11249.571231053442 938.5927084796061
  endloop
endfacet
facet normal 1.0 0.0 -0.0
  outer loop
    vertex 4569.414931664721 11251.129767832135 936.0211723350279
    vertex 4569.414931664721 11249.571231053442 938.5927084796061
    vertex 4569.414931664721 11248.76610264507 936.6186279469493
  endloop
endfacet
facet normal 1.0 0.0 -0.0
  outer loop
    vertex 4569.414931664721 11248.76610264507 936.6186279469493
    vertex 4569.414931664721 11249.571231053442 938.5927084796061
    vertex 4569.414931664721 11248.220763393329 939.4497550870888
  endloop
endfacet
facet normal 1.0 0.0 -0.0
  outer loop
    vertex 4569.414931664721 11248.76610264507 936.6186279469493
    vertex 4569.414931664721 11248.220763393329 939.4497550870888
    vertex 4569.414931664721 11247.077968529664 937.7354637110583
  endloop
endfacet
facet normal 1.0 0.0 -0.0
  outer loop
    vertex 4569.414931664721 11238.477183811845 949.1378495702847
    vertex 4569.414931664721 11239.126557622878 945.6833077186677
    vertex 4569.414931664721 11239.126557622878 948.5663530579195
  endloop
endfacet
facet normal 1.0 0.0 -0.0
  outer loop
    vertex 4569.414931664721 11239.126557622878 945.6833077186677
    vertex 4569.414931664721 11238.477183811845 949.1378495702847
    vertex 4569.414931664721 11238.347190152997 946.8001434827768
  endloop
endfacet
facet normal 1.0 0.0 -0.0
  outer loop
    vertex 4569.414931664721 11238.347190152997 946.8001434827768
    vertex 4569.414931664721 11238.477183811845 949.1378495702847
    vertex 4569.414931664721 11236.762892435812 950.1248898366132
  endloop
endfacet
facet normal 1.0 0.0 -0.0
  outer loop
    vertex 4569.414931664721 11238.347190152997 946.8001434827768
    vertex 4569.414931664721 11236.762892435812 950.1248898366132
    vertex 4569.414931664721 11236.477144179631 947.9950547066195
  endloop
endfacet
facet normal 1.0 0.0 -0.0
  outer loop
    vertex 4569.414931664721 11236.477144179631 947.9950547066195
    vertex 4569.414931664721 11236.762892435812 950.1248898366132
    vertex 4569.414931664721 11234.113677153633 950.1248898366132
  endloop
endfacet
facet normal 1.0 0.0 -0.0
  outer loop
    vertex 4569.414931664721 11236.477144179631 947.9950547066195
    vertex 4569.414931664721 11234.113677153633 950.1248898366132
    vertex 4569.414931664721 11234.555180007152 947.9950547066195
  endloop
endfacet
facet normal 1.0 0.0 -0.0
  outer loop
    vertex 4569.414931664721 11234.555180007152 947.9950547066195
    vertex 4569.414931664721 11234.113677153633 950.1248898366132
    vertex 4569.414931664721 11233.022800489078 947.5273945924788
  endloop
endfacet
facet normal 1.0 0.0 -0.0
  outer loop
    vertex 4569.414931664721 11233.022800489078 947.5273945924788
    vertex 4569.414931664721 11234.113677153633 950.1248898366132
    vertex 4569.414931664721 11231.80193016568 949.5014751251358
  endloop
endfacet
facet normal 1.0 0.0 -0.0
  outer loop
    vertex 4569.414931664721 11233.022800489078 947.5273945924788
    vertex 4569.414931664721 11231.80193016568 949.5014751251358
    vertex 4569.414931664721 11232.373426678045 946.4884361270381
  endloop
endfacet
facet normal 1.0 0.0 -0.0
  outer loop
    vertex 4569.414931664721 11232.373426678045 946.4884361270381
    vertex 4569.414931664721 11231.80193016568 949.5014751251358
    vertex 4569.414931664721 11232.373426678045 936.2290432925422
  endloop
endfacet
facet normal 1.0 0.0 -0.0
  outer loop
    vertex 4569.414931664721 11232.373426678045 936.2290432925422
    vertex 4569.414931664721 11231.80193016568 949.5014751251358
    vertex 4569.414931664721 11230.217632448495 936.2290432925422
  endloop
endfacet
facet normal 1.0 0.0 -0.0
  outer loop
    vertex 4569.414931664721 11230.217632448495 936.2290432925422
    vertex 4569.414931664721 11231.80193016568 949.5014751251358
    vertex 4569.414931664721 11230.217632448495 947.3716399951421
  endloop
endfacet
facet normal 1.0 0.0 -0.0
  outer loop
    vertex 4569.414931664721 11239.126557622878 949.9170188790989
    vertex 4569.414931664721 11241.282351852426 936.2290432925422
    vertex 4569.414931664721 11241.282351852426 949.9170188790989
  endloop
endfacet
facet normal 1.0 0.0 -0.0
  outer loop
    vertex 4569.414931664721 11241.282351852426 936.2290432925422
    vertex 4569.414931664721 11239.126557622878 949.9170188790989
    vertex 4569.414931664721 11239.126557622878 936.2290432925422
  endloop
endfacet
facet normal 1.0 0.0 -0.0
  outer loop
    vertex 4569.414931664721 11239.126557622878 936.2290432925422
    vertex 4569.414931664721 11239.126557622878 949.9170188790989
    vertex 4569.414931664721 11239.126557622878 948.5663530579195
  endloop
endfacet
facet normal 1.0 0.0 -0.0
  outer loop
    vertex 4569.414931664721 11239.126557622878 936.2290432925422
    vertex 4569.414931664721 11239.126557622878 948.5663530579195
    vertex 4569.414931664721 11239.126557622878 945.6833077186677
  endloop
endfacet
facet normal 1.0 0.0 -0.0
  outer loop
    vertex 4569.414931664721 11214.370295733213 949.579352423804
    vertex 4569.414931664721 11219.512971700238 947.4495172938103
    vertex 4569.414931664721 11219.512971700238 949.579352423804
  endloop
endfacet
facet normal 1.0 0.0 -0.0
  outer loop
    vertex 4569.414931664721 11219.512971700238 947.4495172938103
    vertex 4569.414931664721 11214.370295733213 949.579352423804
    vertex 4569.414931664721 11214.370295733213 947.4495172938103
  endloop
endfacet
facet normal 1.0 0.0 -0.0
  outer loop
    vertex 4569.414931664721 11219.512971700238 954.3584028359792
    vertex 4569.414931664721 11221.66876592979 949.579352423804
    vertex 4569.414931664721 11221.66876592979 954.3584028359792
  endloop
endfacet
facet normal 1.0 0.0 -0.0
  outer loop
    vertex 4569.414931664721 11221.66876592979 949.579352423804
    vertex 4569.414931664721 11219.512971700238 954.3584028359792
    vertex 4569.414931664721 11221.66876592979 947.4495172938103
  endloop
endfacet
facet normal 1.0 0.0 -0.0
  outer loop
    vertex 4569.414931664721 11221.66876592979 947.4495172938103
    vertex 4569.414931664721 11219.512971700238 954.3584028359792
    vertex 4569.414931664721 11221.66876592979 938.7484630769429
  endloop
endfacet
facet normal 1.0 0.0 -0.0
  outer loop
    vertex 4569.414931664721 11221.66876592979 938.7484630769429
    vertex 4569.414931664721 11219.512971700238 954.3584028359792
    vertex 4569.414931664721 11220.24022280994 936.6965052456176
  endloop
endfacet
facet normal 1.0 0.0 -0.0
  outer loop
    vertex 4569.414931664721 11220.24022280994 936.6965052456176
    vertex 4569.414931664721 11219.512971700238 954.3584028359792
    vertex 4569.414931664721 11219.512971700238 939.4497550870888
  endloop
endfacet
facet normal 1.0 0.0 -0.0
  outer loop
    vertex 4569.414931664721 11220.24022280994 936.6965052456176
    vertex 4569.414931664721 11219.512971700238 939.4497550870888
    vertex 4569.414931664721 11218.422095035687 936.0211723350279
  endloop
endfacet
facet normal 1.0 0.0 -0.0
  outer loop
    vertex 4569.414931664721 11219.512971700238 939.4497550870888
    vertex 4569.414931664721 11219.512971700238 954.3584028359792
    vertex 4569.414931664721 11219.512971700238 949.579352423804
  endloop
endfacet
facet normal 1.0 0.0 -0.0
  outer loop
    vertex 4569.414931664721 11219.512971700238 939.4497550870888
    vertex 4569.414931664721 11219.512971700238 949.579352423804
    vertex 4569.414931664721 11219.512971700238 947.4495172938103
  endloop
endfacet
facet normal 1.0 0.0 -0.0
  outer loop
    vertex 4569.414931664721 11218.422095035687 936.0211723350279
    vertex 4569.414931664721 11219.512971700238 939.4497550870888
    vertex 4569.414931664721 11218.86379605027 938.5146330198726
  endloop
endfacet
facet normal 1.0 0.0 -0.0
  outer loop
    vertex 4569.414931664721 11218.422095035687 936.0211723350279
    vertex 4569.414931664721 11218.86379605027 938.5146330198726
    vertex 4569.414931664721 11217.95463308261 938.1510074650216
  endloop
endfacet
facet normal 1.0 0.0 -0.0
  outer loop
    vertex 4569.414931664721 11218.422095035687 936.0211723350279
    vertex 4569.414931664721 11217.95463308261 938.1510074650216
    vertex 4569.414931664721 11215.669043355281 936.0211723350279
  endloop
endfacet
facet normal 1.0 0.0 -0.0
  outer loop
    vertex 4569.414931664721 11215.669043355281 936.0211723350279
    vertex 4569.414931664721 11217.95463308261 938.1510074650216
    vertex 4569.414931664721 11215.669043355281 938.1510074650216
  endloop
endfacet
facet normal 1.0 0.0 -0.0
  outer loop
    vertex 4569.414931664721 11215.669043355281 936.0211723350279
    vertex 4569.414931664721 11215.669043355281 938.1510074650216
    vertex 4569.414931664721 11213.79879922085 938.6186675791623
  endloop
endfacet
facet normal 1.0 0.0 -0.0
  outer loop
    vertex 4569.414931664721 11215.669043355281 936.0211723350279
    vertex 4569.414931664721 11213.79879922085 938.6186675791623
    vertex 4569.414931664721 11213.253459969104 936.5667097478371
  endloop
endfacet
facet normal 1.0 0.0 -0.0
  outer loop
    vertex 4569.414931664721 11221.66876592979 949.579352423804
    vertex 4569.414931664721 11225.175225980518 947.4495172938103
    vertex 4569.414931664721 11225.175225980518 949.579352423804
  endloop
endfacet
facet normal 1.0 0.0 -0.0
  outer loop
    vertex 4569.414931664721 11225.175225980518 947.4495172938103
    vertex 4569.414931664721 11221.66876592979 949.579352423804
    vertex 4569.414931664721 11221.66876592979 947.4495172938103
  endloop
endfacet
endsolid thesis3
