solid thesis3
facet normal -1.0 -0.0 -0.0
  outer loop
    vertex 3279.354617810794 12250.999150346599 1965.511405691083
    vertex 3279.354617810794 12250.713402090416 1962.0049456403535
    vertex 3279.354617810794 12250.11614463956 1964.42052902653
  endloop
endfacet
facet normal -1.0 -0.0 -0.0
  outer loop
    vertex 3279.354617810794 12250.713402090416 1962.0049456403535
    vertex 3279.354617810794 12250.999150346599 1965.511405691083
    vertex 3279.354617810794 12251.284898602782 1963.1479386650842
  endloop
endfacet
facet normal -1.0 -0.0 -0.0
  outer loop
    vertex 3279.354617810794 12251.284898602782 1963.1479386650842
    vertex 3279.354617810794 12250.999150346599 1965.511405691083
    vertex 3279.354617810794 12252.297897968667 1966.3946095591868
  endloop
endfacet
facet normal -1.0 -0.0 -0.0
  outer loop
    vertex 3279.354617810794 12251.284898602782 1963.1479386650842
    vertex 3279.354617810794 12252.297897968667 1966.3946095591868
    vertex 3279.354617810794 12252.58364622485 1964.264774429193
  endloop
endfacet
facet normal -1.0 -0.0 -0.0
  outer loop
    vertex 3279.354617810794 12252.58364622485 1964.264774429193
    vertex 3279.354617810794 12252.297897968667 1966.3946095591868
    vertex 3279.354617810794 12253.804318387183 1966.3946095591868
  endloop
endfacet
facet normal -1.0 -0.0 -0.0
  outer loop
    vertex 3279.354617810794 12252.58364622485 1964.264774429193
    vertex 3279.354617810794 12253.804318387183 1966.3946095591868
    vertex 3279.354617810794 12253.284740073928 1964.264774429193
  endloop
endfacet
facet normal -1.0 -0.0 -0.0
  outer loop
    vertex 3279.354617810794 12253.284740073928 1964.264774429193
    vertex 3279.354617810794 12253.804318387183 1966.3946095591868
    vertex 3279.354617810794 12254.038148444253 1963.8751897747861
  endloop
endfacet
facet normal -1.0 -0.0 -0.0
  outer loop
    vertex 3279.354617810794 12254.038148444253 1963.8751897747861
    vertex 3279.354617810794 12253.804318387183 1966.3946095591868
    vertex 3279.354617810794 12255.36265700481 1965.7711948477095
  endloop
endfacet
facet normal -1.0 -0.0 -0.0
  outer loop
    vertex 3279.354617810794 12254.038148444253 1963.8751897747861
    vertex 3279.354617810794 12255.36265700481 1965.7711948477095
    vertex 3279.354617810794 12254.687324094222 1962.8881495084577
  endloop
endfacet
facet normal -1.0 -0.0 -0.0
  outer loop
    vertex 3279.354617810794 12254.687324094222 1962.8881495084577
    vertex 3279.354617810794 12255.36265700481 1965.7711948477095
    vertex 3279.354617810794 12254.687324094222 1952.4987630151156
  endloop
endfacet
facet normal -1.0 -0.0 -0.0
  outer loop
    vertex 3279.354617810794 12254.687324094222 1952.4987630151156
    vertex 3279.354617810794 12255.36265700481 1965.7711948477095
    vertex 3279.354617810794 12256.84311832377 1952.4987630151156
  endloop
endfacet
facet normal -1.0 -0.0 -0.0
  outer loop
    vertex 3279.354617810794 12256.84311832377 1952.4987630151156
    vertex 3279.354617810794 12255.36265700481 1965.7711948477095
    vertex 3279.354617810794 12256.84311832377 1963.6413597177157
  endloop
endfacet
facet normal -1.0 -0.0 -0.0
  outer loop
    vertex 3279.354617810794 12244.973270511467 1965.4075692928584
    vertex 3279.354617810794 12244.583685857064 1962.0309047399098
    vertex 3279.354617810794 12244.583685857064 1964.836072780493
  endloop
endfacet
facet normal -1.0 -0.0 -0.0
  outer loop
    vertex 3279.354617810794 12244.583685857064 1962.0309047399098
    vertex 3279.354617810794 12244.973270511467 1965.4075692928584
    vertex 3279.354617810794 12245.103264170315 1963.1217814044626
  endloop
endfacet
facet normal -1.0 -0.0 -0.0
  outer loop
    vertex 3279.354617810794 12245.103264170315 1963.1217814044626
    vertex 3279.354617810794 12244.973270511467 1965.4075692928584
    vertex 3279.354617810794 12246.168181735311 1966.3946095591868
  endloop
endfacet
facet normal -1.0 -0.0 -0.0
  outer loop
    vertex 3279.354617810794 12245.103264170315 1963.1217814044626
    vertex 3279.354617810794 12246.168181735311 1966.3946095591868
    vertex 3279.354617810794 12246.453929991494 1964.264774429193
  endloop
endfacet
facet normal -1.0 -0.0 -0.0
  outer loop
    vertex 3279.354617810794 12246.453929991494 1964.264774429193
    vertex 3279.354617810794 12246.168181735311 1966.3946095591868
    vertex 3279.354617810794 12247.674602153827 1966.3946095591868
  endloop
endfacet
facet normal -1.0 -0.0 -0.0
  outer loop
    vertex 3279.354617810794 12246.453929991494 1964.264774429193
    vertex 3279.354617810794 12247.674602153827 1966.3946095591868
    vertex 3279.354617810794 12247.155023840574 1964.264774429193
  endloop
endfacet
facet normal -1.0 -0.0 -0.0
  outer loop
    vertex 3279.354617810794 12247.155023840574 1964.264774429193
    vertex 3279.354617810794 12247.674602153827 1966.3946095591868
    vertex 3279.354617810794 12247.9084322109 1963.8230734146086
  endloop
endfacet
facet normal -1.0 -0.0 -0.0
  outer loop
    vertex 3279.354617810794 12247.9084322109 1963.8230734146086
    vertex 3279.354617810794 12247.674602153827 1966.3946095591868
    vertex 3279.354617810794 12249.232940771457 1965.7711948477095
  endloop
endfacet
facet normal -1.0 -0.0 -0.0
  outer loop
    vertex 3279.354617810794 12247.9084322109 1963.8230734146086
    vertex 3279.354617810794 12249.232940771457 1965.7711948477095
    vertex 3279.354617810794 12248.557607860866 1962.7843131102331
  endloop
endfacet
facet normal -1.0 -0.0 -0.0
  outer loop
    vertex 3279.354617810794 12248.557607860866 1962.7843131102331
    vertex 3279.354617810794 12249.232940771457 1965.7711948477095
    vertex 3279.354617810794 12248.557607860866 1952.4987630151156
  endloop
endfacet
facet normal -1.0 -0.0 -0.0
  outer loop
    vertex 3279.354617810794 12248.557607860866 1952.4987630151156
    vertex 3279.354617810794 12249.232940771457 1965.7711948477095
    vertex 3279.354617810794 12250.713402090416 1952.4987630151156
  endloop
endfacet
facet normal -1.0 -0.0 -0.0
  outer loop
    vertex 3279.354617810794 12250.713402090416 1952.4987630151156
    vertex 3279.354617810794 12249.232940771457 1965.7711948477095
    vertex 3279.354617810794 12250.11614463956 1964.42052902653
  endloop
endfacet
facet normal -1.0 -0.0 -0.0
  outer loop
    vertex 3279.354617810794 12250.713402090416 1952.4987630151156
    vertex 3279.354617810794 12250.11614463956 1964.42052902653
    vertex 3279.354617810794 12250.713402090416 1962.0049456403535
  endloop
endfacet
facet normal -1.0 -0.0 -0.0
  outer loop
    vertex 3279.354617810794 12244.583685857064 1966.1867386016727
    vertex 3279.354617810794 12242.427891627513 1952.4987630151156
    vertex 3279.354617810794 12242.427891627513 1966.1867386016727
  endloop
endfacet
facet normal -1.0 -0.0 -0.0
  outer loop
    vertex 3279.354617810794 12242.427891627513 1952.4987630151156
    vertex 3279.354617810794 12244.583685857064 1966.1867386016727
    vertex 3279.354617810794 12244.583685857064 1952.4987630151156
  endloop
endfacet
facet normal -1.0 -0.0 -0.0
  outer loop
    vertex 3279.354617810794 12244.583685857064 1952.4987630151156
    vertex 3279.354617810794 12244.583685857064 1966.1867386016727
    vertex 3279.354617810794 12244.583685857064 1964.836072780493
  endloop
endfacet
facet normal -1.0 -0.0 -0.0
  outer loop
    vertex 3279.354617810794 12244.583685857064 1952.4987630151156
    vertex 3279.354617810794 12244.583685857064 1964.836072780493
    vertex 3279.354617810794 12244.583685857064 1962.0309047399098
  endloop
endfacet
facet normal -1.0 -0.0 -0.0
  outer loop
    vertex 3279.354617810794 12260.612934430303 1963.1998568641964
    vertex 3279.354617810794 12260.067397017494 1957.7973917405438
    vertex 3279.354617810794 12260.067397017494 1960.8621507766884
  endloop
endfacet
facet normal -1.0 -0.0 -0.0
  outer loop
    vertex 3279.354617810794 12260.067397017494 1957.7973917405438
    vertex 3279.354617810794 12260.612934430303 1963.1998568641964
    vertex 3279.354617810794 12260.612934430303 1955.4596856530359
  endloop
endfacet
facet normal -1.0 -0.0 -0.0
  outer loop
    vertex 3279.354617810794 12260.612934430303 1955.4596856530359
    vertex 3279.354617810794 12260.612934430303 1963.1998568641964
    vertex 3279.354617810794 12261.98955935104 1965.147780136232
  endloop
endfacet
facet normal -1.0 -0.0 -0.0
  outer loop
    vertex 3279.354617810794 12260.612934430303 1955.4596856530359
    vertex 3279.354617810794 12261.98955935104 1965.147780136232
    vertex 3279.354617810794 12261.98955935104 1953.5117623810004
  endloop
endfacet
facet normal -1.0 -0.0 -0.0
  outer loop
    vertex 3279.354617810794 12261.98955935104 1953.5117623810004
    vertex 3279.354617810794 12261.98955935104 1965.147780136232
    vertex 3279.354617810794 12262.223191247042 1960.6285188806835
  endloop
endfacet
facet normal -1.0 -0.0 -0.0
  outer loop
    vertex 3279.354617810794 12262.223191247042 1960.6285188806835
    vertex 3279.354617810794 12261.98955935104 1965.147780136232
    vertex 3279.354617810794 12262.586816801893 1962.3426120956485
  endloop
endfacet
facet normal -1.0 -0.0 -0.0
  outer loop
    vertex 3279.354617810794 12262.586816801893 1962.3426120956485
    vertex 3279.354617810794 12261.98955935104 1965.147780136232
    vertex 3279.354617810794 12264.586856434107 1966.3946095591868
  endloop
endfacet
facet normal -1.0 -0.0 -0.0
  outer loop
    vertex 3279.354617810794 12262.586816801893 1962.3426120956485
    vertex 3279.354617810794 12264.586856434107 1966.3946095591868
    vertex 3279.354617810794 12263.41790430982 1963.4854069593137
  endloop
endfacet
facet normal -1.0 -0.0 -0.0
  outer loop
    vertex 3279.354617810794 12263.41790430982 1963.4854069593137
    vertex 3279.354617810794 12264.586856434107 1966.3946095591868
    vertex 3279.354617810794 12264.976441088515 1964.264774429193
  endloop
endfacet
facet normal -1.0 -0.0 -0.0
  outer loop
    vertex 3279.354617810794 12264.976441088515 1964.264774429193
    vertex 3279.354617810794 12264.586856434107 1966.3946095591868
    vertex 3279.354617810794 12267.703533669364 1966.3946095591868
  endloop
endfacet
facet normal -1.0 -0.0 -0.0
  outer loop
    vertex 3279.354617810794 12264.976441088515 1964.264774429193
    vertex 3279.354617810794 12267.703533669364 1966.3946095591868
    vertex 3279.354617810794 12267.313949014955 1964.264774429193
  endloop
endfacet
facet normal -1.0 -0.0 -0.0
  outer loop
    vertex 3279.354617810794 12267.313949014955 1964.264774429193
    vertex 3279.354617810794 12267.703533669364 1966.3946095591868
    vertex 3279.354617810794 12268.87248579365 1963.4854069593137
  endloop
endfacet
facet normal -1.0 -0.0 -0.0
  outer loop
    vertex 3279.354617810794 12268.87248579365 1963.4854069593137
    vertex 3279.354617810794 12267.703533669364 1966.3946095591868
    vertex 3279.354617810794 12270.3010289135 1965.147780136232
  endloop
endfacet
facet normal -1.0 -0.0 -0.0
  outer loop
    vertex 3279.354617810794 12268.87248579365 1963.4854069593137
    vertex 3279.354617810794 12270.3010289135 1965.147780136232
    vertex 3279.354617810794 12269.703573301576 1962.3426120956485
  endloop
endfacet
facet normal -1.0 -0.0 -0.0
  outer loop
    vertex 3279.354617810794 12269.703573301576 1962.3426120956485
    vertex 3279.354617810794 12270.3010289135 1965.147780136232
    vertex 3279.354617810794 12270.06719885643 1960.6285188806835
  endloop
endfacet
facet normal -1.0 -0.0 -0.0
  outer loop
    vertex 3279.354617810794 12270.06719885643 1960.6285188806835
    vertex 3279.354617810794 12270.3010289135 1965.147780136232
    vertex 3279.354617810794 12270.06719885643 1958.0569827361048
  endloop
endfacet
facet normal -1.0 -0.0 -0.0
  outer loop
    vertex 3279.354617810794 12261.98955935104 1953.5117623810004
    vertex 3279.354617810794 12262.586816801893 1956.3169304215837
    vertex 3279.354617810794 12264.612815533663 1952.2908920576015
  endloop
endfacet
facet normal -1.0 -0.0 -0.0
  outer loop
    vertex 3279.354617810794 12262.586816801893 1956.3169304215837
    vertex 3279.354617810794 12261.98955935104 1953.5117623810004
    vertex 3279.354617810794 12262.223191247042 1958.0569827361048
  endloop
endfacet
facet normal -1.0 -0.0 -0.0
  outer loop
    vertex 3279.354617810794 12262.223191247042 1958.0569827361048
    vertex 3279.354617810794 12261.98955935104 1953.5117623810004
    vertex 3279.354617810794 12262.223191247042 1960.6285188806835
  endloop
endfacet
facet normal -1.0 -0.0 -0.0
  outer loop
    vertex 3279.354617810794 12264.612815533663 1952.2908920576015
    vertex 3279.354617810794 12262.586816801893 1956.3169304215837
    vertex 3279.354617810794 12263.41790430982 1955.1479782972972
  endloop
endfacet
facet normal -1.0 -0.0 -0.0
  outer loop
    vertex 3279.354617810794 12264.612815533663 1952.2908920576015
    vertex 3279.354617810794 12263.41790430982 1955.1479782972972
    vertex 3279.354617810794 12264.976441088515 1954.394768088039
  endloop
endfacet
facet normal -1.0 -0.0 -0.0
  outer loop
    vertex 3279.354617810794 12264.612815533663 1952.2908920576015
    vertex 3279.354617810794 12264.976441088515 1954.394768088039
    vertex 3279.354617810794 12267.677574569809 1952.2908920576015
  endloop
endfacet
facet normal -1.0 -0.0 -0.0
  outer loop
    vertex 3279.354617810794 12267.677574569809 1952.2908920576015
    vertex 3279.354617810794 12264.976441088515 1954.394768088039
    vertex 3279.354617810794 12267.313949014955 1954.394768088039
  endloop
endfacet
facet normal -1.0 -0.0 -0.0
  outer loop
    vertex 3279.354617810794 12267.677574569809 1952.2908920576015
    vertex 3279.354617810794 12267.313949014955 1954.394768088039
    vertex 3279.354617810794 12268.87248579365 1955.1479782972972
  endloop
endfacet
facet normal -1.0 -0.0 -0.0
  outer loop
    vertex 3279.354617810794 12267.677574569809 1952.2908920576015
    vertex 3279.354617810794 12268.87248579365 1955.1479782972972
    vertex 3279.354617810794 12270.3010289135 1953.5117623810004
  endloop
endfacet
facet normal -1.0 -0.0 -0.0
  outer loop
    vertex 3279.354617810794 12270.3010289135 1953.5117623810004
    vertex 3279.354617810794 12268.87248579365 1955.1479782972972
    vertex 3279.354617810794 12269.703573301576 1956.3169304215837
  endloop
endfacet
facet normal -1.0 -0.0 -0.0
  outer loop
    vertex 3279.354617810794 12270.3010289135 1953.5117623810004
    vertex 3279.354617810794 12269.703573301576 1956.3169304215837
    vertex 3279.354617810794 12270.06719885643 1958.0569827361048
  endloop
endfacet
facet normal -1.0 -0.0 -0.0
  outer loop
    vertex 3279.354617810794 12270.3010289135 1953.5117623810004
    vertex 3279.354617810794 12270.06719885643 1958.0569827361048
    vertex 3279.354617810794 12270.3010289135 1965.147780136232
  endloop
endfacet
facet normal -1.0 -0.0 -0.0
  outer loop
    vertex 3279.354617810794 12270.3010289135 1953.5117623810004
    vertex 3279.354617810794 12270.3010289135 1965.147780136232
    vertex 3279.354617810794 12271.677455673167 1963.1998568641964
  endloop
endfacet
facet normal -1.0 -0.0 -0.0
  outer loop
    vertex 3279.354617810794 12270.3010289135 1953.5117623810004
    vertex 3279.354617810794 12271.677455673167 1963.1998568641964
    vertex 3279.354617810794 12271.677455673167 1955.4596856530359
  endloop
endfacet
facet normal -1.0 -0.0 -0.0
  outer loop
    vertex 3279.354617810794 12271.677455673167 1955.4596856530359
    vertex 3279.354617810794 12271.677455673167 1963.1998568641964
    vertex 3279.354617810794 12272.222993085978 1960.8621507766884
  endloop
endfacet
facet normal -1.0 -0.0 -0.0
  outer loop
    vertex 3279.354617810794 12271.677455673167 1955.4596856530359
    vertex 3279.354617810794 12272.222993085978 1960.8621507766884
    vertex 3279.354617810794 12272.222993085978 1957.7973917405438
  endloop
endfacet
facet normal -1.0 -0.0 -0.0
  outer loop
    vertex 3279.354617810794 12278.17436436055 1966.1867386016727
    vertex 3279.354617810794 12281.784660809504 1952.4987630151156
    vertex 3279.354617810794 12275.836856434109 1966.1867386016727
  endloop
endfacet
facet normal -1.0 -0.0 -0.0
  outer loop
    vertex 3279.354617810794 12281.784660809504 1952.4987630151156
    vertex 3279.354617810794 12278.17436436055 1966.1867386016727
    vertex 3279.354617810794 12282.771701075832 1955.3298901552553
  endloop
endfacet
facet normal -1.0 -0.0 -0.0
  outer loop
    vertex 3279.354617810794 12281.784660809504 1952.4987630151156
    vertex 3279.354617810794 12282.771701075832 1955.3298901552553
    vertex 3279.354617810794 12283.75874134216 1952.4987630151156
  endloop
endfacet
facet normal -1.0 -0.0 -0.0
  outer loop
    vertex 3279.354617810794 12283.75874134216 1952.4987630151156
    vertex 3279.354617810794 12282.771701075832 1955.3298901552553
    vertex 3279.354617810794 12287.369037791113 1966.1867386016727
  endloop
endfacet
facet normal -1.0 -0.0 -0.0
  outer loop
    vertex 3279.354617810794 12283.75874134216 1952.4987630151156
    vertex 3279.354617810794 12287.369037791113 1966.1867386016727
    vertex 3279.354617810794 12289.706545717558 1966.1867386016727
  endloop
endfacet
facet normal 1.0 0.0 -0.0
  outer loop
    vertex 4684.754617810793 13258.986632390279 1916.4956583855987
    vertex 4684.754617810793 13261.142426619826 1916.4956583855987
    vertex 4684.754617810793 13258.986632390279 1932.8328492543371
  endloop
endfacet
facet normal 1.0 0.0 -0.0
  outer loop
    vertex 4684.754617810793 13252.934793455592 1934.9626843843307
    vertex 4684.754617810793 13267.09042915629 1932.8328492543371
    vertex 4684.754617810793 13267.09042915629 1934.9626843843307
  endloop
endfacet
facet normal 1.0 0.0 -0.0
  outer loop
    vertex 4684.754617810793 13267.09042915629 1932.8328492543371
    vertex 4684.754617810793 13252.934793455592 1934.9626843843307
    vertex 4684.754617810793 13261.142426619826 1932.8328492543371
  endloop
endfacet
facet normal 1.0 0.0 -0.0
  outer loop
    vertex 4684.754617810793 13261.142426619826 1932.8328492543371
    vertex 4684.754617810793 13252.934793455592 1934.9626843843307
    vertex 4684.754617810793 13258.986632390279 1932.8328492543371
  endloop
endfacet
facet normal 1.0 0.0 -0.0
  outer loop
    vertex 4684.754617810793 13261.142426619826 1932.8328492543371
    vertex 4684.754617810793 13258.986632390279 1932.8328492543371
    vertex 4684.754617810793 13261.142426619826 1916.4956583855987
  endloop
endfacet
facet normal 1.0 0.0 -0.0
  outer loop
    vertex 4684.754617810793 13258.986632390279 1932.8328492543371
    vertex 4684.754617810793 13252.934793455592 1934.9626843843307
    vertex 4684.754617810793 13252.934793455592 1932.8328492543371
  endloop
endfacet
facet normal 1.0 0.0 -0.0
  outer loop
    vertex 4684.754617810793 13247.139176778355 1930.1836339721558
    vertex 4684.754617810793 13244.697832453689 1923.3526257286555
    vertex 4684.754617810793 13249.840508420715 1930.1836339721558
  endloop
endfacet
facet normal 1.0 0.0 -0.0
  outer loop
    vertex 4684.754617810793 13244.697832453689 1923.3526257286555
    vertex 4684.754617810793 13247.139176778355 1930.1836339721558
    vertex 4684.754617810793 13243.373125732065 1925.0928762042417
  endloop
endfacet
facet normal 1.0 0.0 -0.0
  outer loop
    vertex 4684.754617810793 13244.697832453689 1923.3526257286555
    vertex 4684.754617810793 13247.165135877913 1916.4956583855987
    vertex 4684.754617810793 13249.892426619828 1916.4956583855987
  endloop
endfacet
facet normal 1.0 0.0 -0.0
  outer loop
    vertex 4684.754617810793 13247.165135877913 1916.4956583855987
    vertex 4684.754617810793 13244.697832453689 1923.3526257286555
    vertex 4684.754617810793 13243.373125732065 1921.638334352625
  endloop
endfacet
facet normal 1.0 0.0 -0.0
  outer loop
    vertex 4684.754617810793 13243.373125732065 1921.638334352625
    vertex 4684.754617810793 13244.697832453689 1923.3526257286555
    vertex 4684.754617810793 13243.373125732065 1925.0928762042417
  endloop
endfacet
facet normal 1.0 0.0 -0.0
  outer loop
    vertex 4684.754617810793 13243.373125732065 1921.638334352625
    vertex 4684.754617810793 13243.373125732065 1925.0928762042417
    vertex 4684.754617810793 13239.607074685777 1930.1836339721558
  endloop
endfacet
facet normal 1.0 0.0 -0.0
  outer loop
    vertex 4684.754617810793 13243.373125732065 1921.638334352625
    vertex 4684.754617810793 13239.607074685777 1930.1836339721558
    vertex 4684.754617810793 13242.048419010443 1923.3526257286555
  endloop
endfacet
facet normal 1.0 0.0 -0.0
  outer loop
    vertex 4684.754617810793 13242.048419010443 1923.3526257286555
    vertex 4684.754617810793 13239.607074685777 1930.1836339721558
    vertex 4684.754617810793 13236.905743043417 1930.1836339721558
  endloop
endfacet
facet normal 1.0 0.0 -0.0
  outer loop
    vertex 4684.754617810793 13242.048419010443 1923.3526257286555
    vertex 4684.754617810793 13239.580917425154 1916.4956583855987
    vertex 4684.754617810793 13243.373125732065 1921.638334352625
  endloop
endfacet
facet normal 1.0 0.0 -0.0
  outer loop
    vertex 4684.754617810793 13239.580917425154 1916.4956583855987
    vertex 4684.754617810793 13242.048419010443 1923.3526257286555
    vertex 4684.754617810793 13236.853824844304 1916.4956583855987
  endloop
endfacet
facet normal 1.0 0.0 -0.0
  outer loop
    vertex 4684.754617810793 13221.733739238724 1929.8459675168608
    vertex 4684.754617810793 13226.876415205748 1927.7161323868672
    vertex 4684.754617810793 13226.876415205748 1929.8459675168608
  endloop
endfacet
facet normal 1.0 0.0 -0.0
  outer loop
    vertex 4684.754617810793 13226.876415205748 1927.7161323868672
    vertex 4684.754617810793 13221.733739238724 1929.8459675168608
    vertex 4684.754617810793 13221.733739238724 1927.7161323868672
  endloop
endfacet
facet normal 1.0 0.0 -0.0
  outer loop
    vertex 4684.754617810793 13226.876415205748 1934.6250179290357
    vertex 4684.754617810793 13229.0322094353 1929.8459675168608
    vertex 4684.754617810793 13229.0322094353 1934.6250179290357
  endloop
endfacet
facet normal 1.0 0.0 -0.0
  outer loop
    vertex 4684.754617810793 13229.0322094353 1929.8459675168608
    vertex 4684.754617810793 13226.876415205748 1934.6250179290357
    vertex 4684.754617810793 13229.0322094353 1927.7161323868672
  endloop
endfacet
facet normal 1.0 0.0 -0.0
  outer loop
    vertex 4684.754617810793 13229.0322094353 1927.7161323868672
    vertex 4684.754617810793 13226.876415205748 1934.6250179290357
    vertex 4684.754617810793 13229.0322094353 1919.0150781699997
  endloop
endfacet
facet normal 1.0 0.0 -0.0
  outer loop
    vertex 4684.754617810793 13229.0322094353 1919.0150781699997
    vertex 4684.754617810793 13226.876415205748 1934.6250179290357
    vertex 4684.754617810793 13227.603666315452 1916.9631203386743
  endloop
endfacet
facet normal 1.0 0.0 -0.0
  outer loop
    vertex 4684.754617810793 13227.603666315452 1916.9631203386743
    vertex 4684.754617810793 13226.876415205748 1934.6250179290357
    vertex 4684.754617810793 13226.876415205748 1919.7163701801455
  endloop
endfacet
facet normal 1.0 0.0 -0.0
  outer loop
    vertex 4684.754617810793 13227.603666315452 1916.9631203386743
    vertex 4684.754617810793 13226.876415205748 1919.7163701801455
    vertex 4684.754617810793 13225.785538541197 1916.2877874280846
  endloop
endfacet
facet normal 1.0 0.0 -0.0
  outer loop
    vertex 4684.754617810793 13226.876415205748 1919.7163701801455
    vertex 4684.754617810793 13226.876415205748 1934.6250179290357
    vertex 4684.754617810793 13226.876415205748 1929.8459675168608
  endloop
endfacet
facet normal 1.0 0.0 -0.0
  outer loop
    vertex 4684.754617810793 13226.876415205748 1919.7163701801455
    vertex 4684.754617810793 13226.876415205748 1929.8459675168608
    vertex 4684.754617810793 13226.876415205748 1927.7161323868672
  endloop
endfacet
facet normal 1.0 0.0 -0.0
  outer loop
    vertex 4684.754617810793 13225.785538541197 1916.2877874280846
    vertex 4684.754617810793 13226.876415205748 1919.7163701801455
    vertex 4684.754617810793 13226.227239555781 1918.7812481129295
  endloop
endfacet
facet normal 1.0 0.0 -0.0
  outer loop
    vertex 4684.754617810793 13225.785538541197 1916.2877874280846
    vertex 4684.754617810793 13226.227239555781 1918.7812481129295
    vertex 4684.754617810793 13225.31807658812 1918.4176225580784
  endloop
endfacet
facet normal 1.0 0.0 -0.0
  outer loop
    vertex 4684.754617810793 13225.785538541197 1916.2877874280846
    vertex 4684.754617810793 13225.31807658812 1918.4176225580784
    vertex 4684.754617810793 13223.032486860791 1916.2877874280846
  endloop
endfacet
facet normal 1.0 0.0 -0.0
  outer loop
    vertex 4684.754617810793 13223.032486860791 1916.2877874280846
    vertex 4684.754617810793 13225.31807658812 1918.4176225580784
    vertex 4684.754617810793 13223.032486860791 1918.4176225580784
  endloop
endfacet
facet normal 1.0 0.0 -0.0
  outer loop
    vertex 4684.754617810793 13223.032486860791 1916.2877874280846
    vertex 4684.754617810793 13223.032486860791 1918.4176225580784
    vertex 4684.754617810793 13221.16224272636 1918.8852826722193
  endloop
endfacet
facet normal 1.0 0.0 -0.0
  outer loop
    vertex 4684.754617810793 13223.032486860791 1916.2877874280846
    vertex 4684.754617810793 13221.16224272636 1918.8852826722193
    vertex 4684.754617810793 13220.616903474614 1916.8333248408937
  endloop
endfacet
facet normal 1.0 0.0 -0.0
  outer loop
    vertex 4684.754617810793 13229.0322094353 1929.8459675168608
    vertex 4684.754617810793 13232.538669486028 1927.7161323868672
    vertex 4684.754617810793 13232.538669486028 1929.8459675168608
  endloop
endfacet
facet normal 1.0 0.0 -0.0
  outer loop
    vertex 4684.754617810793 13232.538669486028 1927.7161323868672
    vertex 4684.754617810793 13229.0322094353 1929.8459675168608
    vertex 4684.754617810793 13229.0322094353 1927.7161323868672
  endloop
endfacet
facet normal 6.659579492112292e-16 1.0 -2.064132295078649e-15
  outer loop
    vertex 3336.0784383837195 13309.221432186176 1966.8219973199703
    vertex 3325.663290951886 13309.221432186176 1964.6921621899764
    vertex 3325.663290951886 13309.221432186176 1966.8219973199703
  endloop
endfacet
facet normal 6.659579492112292e-16 1.0 -2.064132295078649e-15
  outer loop
    vertex 3325.663290951886 13309.221432186176 1964.6921621899764
    vertex 3336.0784383837195 13309.221432186176 1966.8219973199703
    vertex 3329.7929675530277 13309.221432186176 1964.6921621899764
  endloop
endfacet
facet normal 6.659579492112292e-16 1.0 -2.064132295078649e-15
  outer loop
    vertex 3329.7929675530277 13309.221432186176 1964.6921621899764
    vertex 3336.0784383837195 13309.221432186176 1966.8219973199703
    vertex 3331.948761782578 13309.221432186176 1964.6921621899764
  endloop
endfacet
facet normal 6.659579492112292e-16 1.0 -2.064132295078649e-15
  outer loop
    vertex 3329.7929675530277 13309.221432186176 1964.6921621899764
    vertex 3331.948761782578 13309.221432186176 1964.6921621899764
    vertex 3329.7929675530277 13309.221432186176 1950.4848064512319
  endloop
endfacet
facet normal 6.659579492112292e-16 1.0 -2.064132295078649e-15
  outer loop
    vertex 3331.948761782578 13309.221432186176 1964.6921621899764
    vertex 3336.0784383837195 13309.221432186176 1966.8219973199703
    vertex 3336.0784383837195 13309.221432186176 1964.6921621899764
  endloop
endfacet
facet normal 6.659579492112292e-16 1.0 -2.064132295078649e-15
  outer loop
    vertex 3329.7929675530277 13309.221432186176 1950.4848064512319
    vertex 3325.5332972930405 13309.221432186176 1948.3549713212383
    vertex 3325.5332972930405 13309.221432186176 1950.4848064512319
  endloop
endfacet
facet normal 6.659579492112292e-16 1.0 -2.064132295078649e-15
  outer loop
    vertex 3325.5332972930405 13309.221432186176 1948.3549713212383
    vertex 3329.7929675530277 13309.221432186176 1950.4848064512319
    vertex 3336.208432042565 13309.221432186176 1948.3549713212383
  endloop
endfacet
facet normal 6.659579492112292e-16 1.0 -2.064132295078649e-15
  outer loop
    vertex 3336.208432042565 13309.221432186176 1948.3549713212383
    vertex 3329.7929675530277 13309.221432186176 1950.4848064512319
    vertex 3331.948761782578 13309.221432186176 1950.4848064512319
  endloop
endfacet
facet normal 6.659579492112292e-16 1.0 -2.064132295078649e-15
  outer loop
    vertex 3331.948761782578 13309.221432186176 1950.4848064512319
    vertex 3329.7929675530277 13309.221432186176 1950.4848064512319
    vertex 3331.948761782578 13309.221432186176 1964.6921621899764
  endloop
endfacet
facet normal 6.659579492112292e-16 1.0 -2.064132295078649e-15
  outer loop
    vertex 3336.208432042565 13309.221432186176 1948.3549713212383
    vertex 3331.948761782578 13309.221432186176 1950.4848064512319
    vertex 3336.208432042565 13309.221432186176 1950.4848064512319
  endloop
endfacet
facet normal 6.659579492112292e-16 1.0 -2.064132295078649e-15
  outer loop
    vertex 3348.990811560637 13309.221432186176 1961.3676139972056
    vertex 3348.7050633044546 13309.221432186176 1957.8611539464762
    vertex 3348.1078058535986 13309.221432186176 1960.2767373326526
  endloop
endfacet
facet normal 6.659579492112292e-16 1.0 -2.064132295078649e-15
  outer loop
    vertex 3348.7050633044546 13309.221432186176 1957.8611539464762
    vertex 3348.990811560637 13309.221432186176 1961.3676139972056
    vertex 3349.27655981682 13309.221432186176 1959.0041469712066
  endloop
endfacet
facet normal 6.659579492112292e-16 1.0 -2.064132295078649e-15
  outer loop
    vertex 3349.27655981682 13309.221432186176 1959.0041469712066
    vertex 3348.990811560637 13309.221432186176 1961.3676139972056
    vertex 3350.2895591827046 13309.221432186176 1962.2508178653093
  endloop
endfacet
facet normal 6.659579492112292e-16 1.0 -2.064132295078649e-15
  outer loop
    vertex 3349.27655981682 13309.221432186176 1959.0041469712066
    vertex 3350.2895591827046 13309.221432186176 1962.2508178653093
    vertex 3350.575307438887 13309.221432186176 1960.1209827353157
  endloop
endfacet
facet normal 6.659579492112292e-16 1.0 -2.064132295078649e-15
  outer loop
    vertex 3350.575307438887 13309.221432186176 1960.1209827353157
    vertex 3350.2895591827046 13309.221432186176 1962.2508178653093
    vertex 3351.7959796012206 13309.221432186176 1962.2508178653093
  endloop
endfacet
facet normal 6.659579492112292e-16 1.0 -2.064132295078649e-15
  outer loop
    vertex 3350.575307438887 13309.221432186176 1960.1209827353157
    vertex 3351.7959796012206 13309.221432186176 1962.2508178653093
    vertex 3351.276401287968 13309.221432186176 1960.1209827353157
  endloop
endfacet
facet normal 6.659579492112292e-16 1.0 -2.064132295078649e-15
  outer loop
    vertex 3351.276401287968 13309.221432186176 1960.1209827353157
    vertex 3351.7959796012206 13309.221432186176 1962.2508178653093
    vertex 3352.029809658291 13309.221432186176 1959.7313980809088
  endloop
endfacet
facet normal 6.659579492112292e-16 1.0 -2.064132295078649e-15
  outer loop
    vertex 3352.029809658291 13309.221432186176 1959.7313980809088
    vertex 3351.7959796012206 13309.221432186176 1962.2508178653093
    vertex 3353.354318218849 13309.221432186176 1961.627403153832
  endloop
endfacet
facet normal 6.659579492112292e-16 1.0 -2.064132295078649e-15
  outer loop
    vertex 3352.029809658291 13309.221432186176 1959.7313980809088
    vertex 3353.354318218849 13309.221432186176 1961.627403153832
    vertex 3352.678985308259 13309.221432186176 1958.7443578145803
  endloop
endfacet
facet normal 6.659579492112292e-16 1.0 -2.064132295078649e-15
  outer loop
    vertex 3352.678985308259 13309.221432186176 1958.7443578145803
    vertex 3353.354318218849 13309.221432186176 1961.627403153832
    vertex 3352.678985308259 13309.221432186176 1948.3549713212383
  endloop
endfacet
facet normal 6.659579492112292e-16 1.0 -2.064132295078649e-15
  outer loop
    vertex 3352.678985308259 13309.221432186176 1948.3549713212383
    vertex 3353.354318218849 13309.221432186176 1961.627403153832
    vertex 3354.834779537809 13309.221432186176 1948.3549713212383
  endloop
endfacet
facet normal 6.659579492112292e-16 1.0 -2.064132295078649e-15
  outer loop
    vertex 3354.834779537809 13309.221432186176 1948.3549713212383
    vertex 3353.354318218849 13309.221432186176 1961.627403153832
    vertex 3354.834779537809 13309.221432186176 1959.4975680238383
  endloop
endfacet
facet normal 6.659579492112292e-16 1.0 -2.064132295078649e-15
  outer loop
    vertex 3342.9649317255075 13309.221432186176 1961.2637775989808
    vertex 3342.5753470711006 13309.221432186176 1957.8871130460325
    vertex 3342.5753470711006 13309.221432186176 1960.6922810866156
  endloop
endfacet
facet normal 6.659579492112292e-16 1.0 -2.064132295078649e-15
  outer loop
    vertex 3342.5753470711006 13309.221432186176 1957.8871130460325
    vertex 3342.9649317255075 13309.221432186176 1961.2637775989808
    vertex 3343.0949253843532 13309.221432186176 1958.977989710585
  endloop
endfacet
facet normal 6.659579492112292e-16 1.0 -2.064132295078649e-15
  outer loop
    vertex 3343.0949253843532 13309.221432186176 1958.977989710585
    vertex 3342.9649317255075 13309.221432186176 1961.2637775989808
    vertex 3344.15984294935 13309.221432186176 1962.2508178653093
  endloop
endfacet
facet normal 6.659579492112292e-16 1.0 -2.064132295078649e-15
  outer loop
    vertex 3343.0949253843532 13309.221432186176 1958.977989710585
    vertex 3344.15984294935 13309.221432186176 1962.2508178653093
    vertex 3344.4455912055328 13309.221432186176 1960.1209827353157
  endloop
endfacet
facet normal 6.659579492112292e-16 1.0 -2.064132295078649e-15
  outer loop
    vertex 3344.4455912055328 13309.221432186176 1960.1209827353157
    vertex 3344.15984294935 13309.221432186176 1962.2508178653093
    vertex 3345.666263367866 13309.221432186176 1962.2508178653093
  endloop
endfacet
facet normal 6.659579492112292e-16 1.0 -2.064132295078649e-15
  outer loop
    vertex 3344.4455912055328 13309.221432186176 1960.1209827353157
    vertex 3345.666263367866 13309.221432186176 1962.2508178653093
    vertex 3345.1466850546135 13309.221432186176 1960.1209827353157
  endloop
endfacet
facet normal 6.659579492112292e-16 1.0 -2.064132295078649e-15
  outer loop
    vertex 3345.1466850546135 13309.221432186176 1960.1209827353157
    vertex 3345.666263367866 13309.221432186176 1962.2508178653093
    vertex 3345.9000934249366 13309.221432186176 1959.679281720731
  endloop
endfacet
facet normal 6.659579492112292e-16 1.0 -2.064132295078649e-15
  outer loop
    vertex 3345.9000934249366 13309.221432186176 1959.679281720731
    vertex 3345.666263367866 13309.221432186176 1962.2508178653093
    vertex 3347.2246019854947 13309.221432186176 1961.627403153832
  endloop
endfacet
facet normal 6.659579492112292e-16 1.0 -2.064132295078649e-15
  outer loop
    vertex 3345.9000934249366 13309.221432186176 1959.679281720731
    vertex 3347.2246019854947 13309.221432186176 1961.627403153832
    vertex 3346.5492690749047 13309.221432186176 1958.6405214163556
  endloop
endfacet
facet normal 6.659579492112292e-16 1.0 -2.064132295078649e-15
  outer loop
    vertex 3346.5492690749047 13309.221432186176 1958.6405214163556
    vertex 3347.2246019854947 13309.221432186176 1961.627403153832
    vertex 3346.5492690749047 13309.221432186176 1948.3549713212383
  endloop
endfacet
facet normal 6.659579492112292e-16 1.0 -2.064132295078649e-15
  outer loop
    vertex 3346.5492690749047 13309.221432186176 1948.3549713212383
    vertex 3347.2246019854947 13309.221432186176 1961.627403153832
    vertex 3348.7050633044546 13309.221432186176 1948.3549713212383
  endloop
endfacet
facet normal 6.659579492112292e-16 1.0 -2.064132295078649e-15
  outer loop
    vertex 3348.7050633044546 13309.221432186176 1948.3549713212383
    vertex 3347.2246019854947 13309.221432186176 1961.627403153832
    vertex 3348.1078058535986 13309.221432186176 1960.2767373326526
  endloop
endfacet
facet normal 6.659579492112292e-16 1.0 -2.064132295078649e-15
  outer loop
    vertex 3348.7050633044546 13309.221432186176 1948.3549713212383
    vertex 3348.1078058535986 13309.221432186176 1960.2767373326526
    vertex 3348.7050633044546 13309.221432186176 1957.8611539464762
  endloop
endfacet
facet normal 6.659579492112292e-16 1.0 -2.064132295078649e-15
  outer loop
    vertex 3342.5753470711006 13309.221432186176 1962.042946907795
    vertex 3340.4195528415503 13309.221432186176 1948.3549713212383
    vertex 3340.4195528415503 13309.221432186176 1962.042946907795
  endloop
endfacet
facet normal 6.659579492112292e-16 1.0 -2.064132295078649e-15
  outer loop
    vertex 3340.4195528415503 13309.221432186176 1948.3549713212383
    vertex 3342.5753470711006 13309.221432186176 1962.042946907795
    vertex 3342.5753470711006 13309.221432186176 1948.3549713212383
  endloop
endfacet
facet normal 6.659579492112292e-16 1.0 -2.064132295078649e-15
  outer loop
    vertex 3342.5753470711006 13309.221432186176 1948.3549713212383
    vertex 3342.5753470711006 13309.221432186176 1962.042946907795
    vertex 3342.5753470711006 13309.221432186176 1960.6922810866156
  endloop
endfacet
facet normal 6.659579492112292e-16 1.0 -2.064132295078649e-15
  outer loop
    vertex 3342.5753470711006 13309.221432186176 1948.3549713212383
    vertex 3342.5753470711006 13309.221432186176 1960.6922810866156
    vertex 3342.5753470711006 13309.221432186176 1957.8871130460325
  endloop
endfacet
facet normal 6.659579492112292e-16 1.0 -2.064132295078649e-15
  outer loop
    vertex 3369.9548651433897 13309.221432186176 1962.042946907795
    vertex 3367.7990709138394 13309.221432186176 1961.2118593998687
    vertex 3367.7990709138394 13309.221432186176 1962.042946907795
  endloop
endfacet
facet normal 6.659579492112292e-16 1.0 -2.064132295078649e-15
  outer loop
    vertex 3367.7990709138394 13309.221432186176 1961.2118593998687
    vertex 3369.9548651433897 13309.221432186176 1962.042946907795
    vertex 3367.7990709138394 13309.221432186176 1958.4845686579536
  endloop
endfacet
facet normal 6.659579492112292e-16 1.0 -2.064132295078649e-15
  outer loop
    vertex 3367.7990709138394 13309.221432186176 1958.4845686579536
    vertex 3369.9548651433897 13309.221432186176 1962.042946907795
    vertex 3367.7990709138394 13309.221432186176 1953.5236063878203
  endloop
endfacet
facet normal 6.659579492112292e-16 1.0 -2.064132295078649e-15
  outer loop
    vertex 3367.7990709138394 13309.221432186176 1953.5236063878203
    vertex 3369.9548651433897 13309.221432186176 1962.042946907795
    vertex 3367.7990709138394 13309.221432186176 1950.4848064512319
  endloop
endfacet
facet normal 6.659579492112292e-16 1.0 -2.064132295078649e-15
  outer loop
    vertex 3367.7990709138394 13309.221432186176 1950.4848064512319
    vertex 3369.9548651433897 13309.221432186176 1962.042946907795
    vertex 3367.7990709138394 13309.221432186176 1948.0951821646117
  endloop
endfacet
facet normal 6.659579492112292e-16 1.0 -2.064132295078649e-15
  outer loop
    vertex 3367.7990709138394 13309.221432186176 1948.0951821646117
    vertex 3369.9548651433897 13309.221432186176 1962.042946907795
    vertex 3369.305491332356 13309.221432186176 1945.9653470346182
  endloop
endfacet
facet normal 6.659579492112292e-16 1.0 -2.064132295078649e-15
  outer loop
    vertex 3369.305491332356 13309.221432186176 1945.9653470346182
    vertex 3369.9548651433897 13309.221432186176 1962.042946907795
    vertex 3369.9548651433897 13309.221432186176 1947.8615502686066
  endloop
endfacet
facet normal 6.659579492112292e-16 1.0 -2.064132295078649e-15
  outer loop
    vertex 3360.52655981682 13309.221432186176 1947.549842912868
    vertex 3359.7473905080055 13309.221432186176 1945.31617138465
    vertex 3359.020139398304 13309.221432186176 1946.0174633947956
  endloop
endfacet
facet normal 6.659579492112292e-16 1.0 -2.064132295078649e-15
  outer loop
    vertex 3359.7473905080055 13309.221432186176 1945.31617138465
    vertex 3360.52655981682 13309.221432186176 1947.549842912868
    vertex 3361.019980869451 13309.221432186176 1944.484885715658
  endloop
endfacet
facet normal 6.659579492112292e-16 1.0 -2.064132295078649e-15
  outer loop
    vertex 3361.019980869451 13309.221432186176 1944.484885715658
    vertex 3360.52655981682 13309.221432186176 1947.549842912868
    vertex 3361.1759336278537 13309.221432186176 1946.9004691018345
  endloop
endfacet
facet normal 6.659579492112292e-16 1.0 -2.064132295078649e-15
  outer loop
    vertex 3361.019980869451 13309.221432186176 1944.484885715658
    vertex 3361.1759336278537 13309.221432186176 1946.9004691018345
    vertex 3362.864265904328 13309.221432186176 1943.9914646630266
  endloop
endfacet
facet normal 6.659579492112292e-16 1.0 -2.064132295078649e-15
  outer loop
    vertex 3362.864265904328 13309.221432186176 1943.9914646630266
    vertex 3361.1759336278537 13309.221432186176 1946.9004691018345
    vertex 3361.825307438887 13309.221432186176 1946.458966248315
  endloop
endfacet
facet normal 6.659579492112292e-16 1.0 -2.064132295078649e-15
  outer loop
    vertex 3362.864265904328 13309.221432186176 1943.9914646630266
    vertex 3361.825307438887 13309.221432186176 1946.458966248315
    vertex 3363.0719387007766 13309.221432186176 1946.1212997930202
  endloop
endfacet
facet normal 6.659579492112292e-16 1.0 -2.064132295078649e-15
  outer loop
    vertex 3362.864265904328 13309.221432186176 1943.9914646630266
    vertex 3363.0719387007766 13309.221432186176 1946.1212997930202
    vertex 3365.4096447882844 13309.221432186176 1943.9914646630266
  endloop
endfacet
facet normal 6.659579492112292e-16 1.0 -2.064132295078649e-15
  outer loop
    vertex 3365.4096447882844 13309.221432186176 1943.9914646630266
    vertex 3363.0719387007766 13309.221432186176 1946.1212997930202
    vertex 3365.175814731214 13309.221432186176 1946.1212997930202
  endloop
endfacet
facet normal 6.659579492112292e-16 1.0 -2.064132295078649e-15
  outer loop
    vertex 3365.4096447882844 13309.221432186176 1943.9914646630266
    vertex 3365.175814731214 13309.221432186176 1946.1212997930202
    vertex 3366.3705277939916 13309.221432186176 1946.5628026465395
  endloop
endfacet
facet normal 6.659579492112292e-16 1.0 -2.064132295078649e-15
  outer loop
    vertex 3365.4096447882844 13309.221432186176 1943.9914646630266
    vertex 3366.3705277939916 13309.221432186176 1946.5628026465395
    vertex 3367.3316089607642 13309.221432186176 1944.6408384740603
  endloop
endfacet
facet normal 6.659579492112292e-16 1.0 -2.064132295078649e-15
  outer loop
    vertex 3367.3316089607642 13309.221432186176 1944.6408384740603
    vertex 3366.3705277939916 13309.221432186176 1946.5628026465395
    vertex 3367.4873635581007 13309.221432186176 1947.3160128557975
  endloop
endfacet
facet normal 6.659579492112292e-16 1.0 -2.064132295078649e-15
  outer loop
    vertex 3367.3316089607642 13309.221432186176 1944.6408384740603
    vertex 3367.4873635581007 13309.221432186176 1947.3160128557975
    vertex 3369.305491332356 13309.221432186176 1945.9653470346182
  endloop
endfacet
facet normal 6.659579492112292e-16 1.0 -2.064132295078649e-15
  outer loop
    vertex 3369.305491332356 13309.221432186176 1945.9653470346182
    vertex 3367.4873635581007 13309.221432186176 1947.3160128557975
    vertex 3367.7990709138394 13309.221432186176 1948.0951821646117
  endloop
endfacet
facet normal 6.659579492112292e-16 1.0 -2.064132295078649e-15
  outer loop
    vertex 3358.5786365447843 13309.221432186176 1952.4067706237115
    vertex 3360.188893361525 13309.221432186176 1954.536605753705
    vertex 3360.396764319039 13309.221432186176 1950.0173444981567
  endloop
endfacet
facet normal 6.659579492112292e-16 1.0 -2.064132295078649e-15
  outer loop
    vertex 3360.188893361525 13309.221432186176 1954.536605753705
    vertex 3358.5786365447843 13309.221432186176 1952.4067706237115
    vertex 3360.188893361525 13309.221432186176 1956.4326108266284
  endloop
endfacet
facet normal 6.659579492112292e-16 1.0 -2.064132295078649e-15
  outer loop
    vertex 3360.396764319039 13309.221432186176 1950.0173444981567
    vertex 3360.188893361525 13309.221432186176 1954.536605753705
    vertex 3360.5006007172638 13309.221432186176 1953.4197699895958
  endloop
endfacet
facet normal 6.659579492112292e-16 1.0 -2.064132295078649e-15
  outer loop
    vertex 3360.396764319039 13309.221432186176 1950.0173444981567
    vertex 3360.5006007172638 13309.221432186176 1953.4197699895958
    vertex 3363.0459796012206 13309.221432186176 1948.978386032716
  endloop
endfacet
facet normal 6.659579492112292e-16 1.0 -2.064132295078649e-15
  outer loop
    vertex 3363.0459796012206 13309.221432186176 1948.978386032716
    vertex 3360.5006007172638 13309.221432186176 1953.4197699895958
    vertex 3361.695313780041 13309.221432186176 1951.7835540732992
  endloop
endfacet
facet normal 6.659579492112292e-16 1.0 -2.064132295078649e-15
  outer loop
    vertex 3363.0459796012206 13309.221432186176 1948.978386032716
    vertex 3361.695313780041 13309.221432186176 1951.7835540732992
    vertex 3363.3836460565158 13309.221432186176 1951.1082211627097
  endloop
endfacet
facet normal 6.659579492112292e-16 1.0 -2.064132295078649e-15
  outer loop
    vertex 3363.0459796012206 13309.221432186176 1948.978386032716
    vertex 3363.3836460565158 13309.221432186176 1951.1082211627097
    vertex 3365.6432766842895 13309.221432186176 1948.978386032716
  endloop
endfacet
facet normal 6.659579492112292e-16 1.0 -2.064132295078649e-15
  outer loop
    vertex 3365.6432766842895 13309.221432186176 1948.978386032716
    vertex 3363.3836460565158 13309.221432186176 1951.1082211627097
    vertex 3365.3575284281073 13309.221432186176 1951.1082211627097
  endloop
endfacet
facet normal 6.659579492112292e-16 1.0 -2.064132295078649e-15
  outer loop
    vertex 3365.6432766842895 13309.221432186176 1948.978386032716
    vertex 3365.3575284281073 13309.221432186176 1951.1082211627097
    vertex 3367.0458607045816 13309.221432186176 1952.302934225487
  endloop
endfacet
facet normal 6.659579492112292e-16 1.0 -2.064132295078649e-15
  outer loop
    vertex 3365.6432766842895 13309.221432186176 1948.978386032716
    vertex 3367.0458607045816 13309.221432186176 1952.302934225487
    vertex 3367.253731662096 13309.221432186176 1949.965228137979
  endloop
endfacet
facet normal 6.659579492112292e-16 1.0 -2.064132295078649e-15
  outer loop
    vertex 3367.253731662096 13309.221432186176 1949.965228137979
    vertex 3367.0458607045816 13309.221432186176 1952.302934225487
    vertex 3367.7990709138394 13309.221432186176 1953.5236063878203
  endloop
endfacet
facet normal 6.659579492112292e-16 1.0 -2.064132295078649e-15
  outer loop
    vertex 3367.253731662096 13309.221432186176 1949.965228137979
    vertex 3367.7990709138394 13309.221432186176 1953.5236063878203
    vertex 3367.7990709138394 13309.221432186176 1950.4848064512319
  endloop
endfacet
facet normal 6.659579492112292e-16 1.0 -2.064132295078649e-15
  outer loop
    vertex 3358.5786365447843 13309.221432186176 1958.6143641557342
    vertex 3358.033099131975 13309.221432186176 1954.2508574975225
    vertex 3358.033099131975 13309.221432186176 1956.7183590828108
  endloop
endfacet
facet normal 6.659579492112292e-16 1.0 -2.064132295078649e-15
  outer loop
    vertex 3358.033099131975 13309.221432186176 1954.2508574975225
    vertex 3358.5786365447843 13309.221432186176 1958.6143641557342
    vertex 3358.5786365447843 13309.221432186176 1952.4067706237115
  endloop
endfacet
facet normal 6.659579492112292e-16 1.0 -2.064132295078649e-15
  outer loop
    vertex 3358.5786365447843 13309.221432186176 1952.4067706237115
    vertex 3358.5786365447843 13309.221432186176 1958.6143641557342
    vertex 3360.3448461199273 13309.221432186176 1961.0039884423545
  endloop
endfacet
facet normal 6.659579492112292e-16 1.0 -2.064132295078649e-15
  outer loop
    vertex 3358.5786365447843 13309.221432186176 1952.4067706237115
    vertex 3360.3448461199273 13309.221432186176 1961.0039884423545
    vertex 3360.188893361525 13309.221432186176 1956.4326108266284
  endloop
endfacet
facet normal 6.659579492112292e-16 1.0 -2.064132295078649e-15
  outer loop
    vertex 3360.188893361525 13309.221432186176 1956.4326108266284
    vertex 3360.3448461199273 13309.221432186176 1961.0039884423545
    vertex 3360.5006007172638 13309.221432186176 1957.6534811500273
  endloop
endfacet
facet normal 6.659579492112292e-16 1.0 -2.064132295078649e-15
  outer loop
    vertex 3360.5006007172638 13309.221432186176 1957.6534811500273
    vertex 3360.3448461199273 13309.221432186176 1961.0039884423545
    vertex 3362.9421432029962 13309.221432186176 1962.2508178653093
  endloop
endfacet
facet normal 6.659579492112292e-16 1.0 -2.064132295078649e-15
  outer loop
    vertex 3360.5006007172638 13309.221432186176 1957.6534811500273
    vertex 3362.9421432029962 13309.221432186176 1962.2508178653093
    vertex 3361.747231979153 13309.221432186176 1959.31565616588
  endloop
endfacet
facet normal 6.659579492112292e-16 1.0 -2.064132295078649e-15
  outer loop
    vertex 3361.747231979153 13309.221432186176 1959.31565616588
    vertex 3362.9421432029962 13309.221432186176 1962.2508178653093
    vertex 3363.279809658291 13309.221432186176 1960.146941834872
  endloop
endfacet
facet normal 6.659579492112292e-16 1.0 -2.064132295078649e-15
  outer loop
    vertex 3363.279809658291 13309.221432186176 1960.146941834872
    vertex 3362.9421432029962 13309.221432186176 1962.2508178653093
    vertex 3365.513481186509 13309.221432186176 1962.2508178653093
  endloop
endfacet
facet normal 6.659579492112292e-16 1.0 -2.064132295078649e-15
  outer loop
    vertex 3363.279809658291 13309.221432186176 1960.146941834872
    vertex 3365.513481186509 13309.221432186176 1962.2508178653093
    vertex 3365.2017738307704 13309.221432186176 1960.146941834872
  endloop
endfacet
facet normal 6.659579492112292e-16 1.0 -2.064132295078649e-15
  outer loop
    vertex 3365.2017738307704 13309.221432186176 1960.146941834872
    vertex 3365.513481186509 13309.221432186176 1962.2508178653093
    vertex 3366.266691395767 13309.221432186176 1959.809275379577
  endloop
endfacet
facet normal 6.659579492112292e-16 1.0 -2.064132295078649e-15
  outer loop
    vertex 3366.266691395767 13309.221432186176 1959.809275379577
    vertex 3365.513481186509 13309.221432186176 1962.2508178653093
    vertex 3367.0718198041377 13309.221432186176 1961.6793213529443
  endloop
endfacet
facet normal 6.659579492112292e-16 1.0 -2.064132295078649e-15
  outer loop
    vertex 3366.266691395767 13309.221432186176 1959.809275379577
    vertex 3367.0718198041377 13309.221432186176 1961.6793213529443
    vertex 3367.253731662096 13309.221432186176 1959.1599015685433
  endloop
endfacet
facet normal 6.659579492112292e-16 1.0 -2.064132295078649e-15
  outer loop
    vertex 3367.253731662096 13309.221432186176 1959.1599015685433
    vertex 3367.0718198041377 13309.221432186176 1961.6793213529443
    vertex 3367.7990709138394 13309.221432186176 1961.2118593998687
  endloop
endfacet
facet normal 6.659579492112292e-16 1.0 -2.064132295078649e-15
  outer loop
    vertex 3367.253731662096 13309.221432186176 1959.1599015685433
    vertex 3367.7990709138394 13309.221432186176 1961.2118593998687
    vertex 3367.7990709138394 13309.221432186176 1958.4845686579536
  endloop
endfacet
endsolid thesis3
