solid thesis3
facet normal 1.4573061049722125e-15 -1.0 1.3243790925976016e-15
  outer loop
    vertex 3348.711523005263 11450.484358079695 1581.2117992141186
    vertex 3350.3283686774253 11450.484358079695 1569.7965328856467
    vertex 3350.3283686774253 11450.484358079695 1581.2117992141186
  endloop
endfacet
facet normal 1.4573061049722125e-15 -1.0 1.3243790925976016e-15
  outer loop
    vertex 3356.951505963412 11450.484358079695 1581.2117992141186
    vertex 3358.646228934242 11450.484358079695 1567.3615297150698
    vertex 3358.646228934242 11450.484358079695 1581.2117992141186
  endloop
endfacet
facet normal 1.4573061049722125e-15 -1.0 1.3243790925976016e-15
  outer loop
    vertex 3358.646228934242 11450.484358079695 1567.3615297150698
    vertex 3356.951505963412 11450.484358079695 1581.2117992141186
    vertex 3357.0293832620796 11450.484358079695 1578.3092350099337
  endloop
endfacet
facet normal 1.4573061049722125e-15 -1.0 1.3243790925976016e-15
  outer loop
    vertex 3357.0293832620796 11450.484358079695 1578.3092350099337
    vertex 3356.951505963412 11450.484358079695 1581.2117992141186
    vertex 3350.640026492898 11450.484358079695 1567.3615297150698
  endloop
endfacet
facet normal 1.4573061049722125e-15 -1.0 1.3243790925976016e-15
  outer loop
    vertex 3350.640026492898 11450.484358079695 1567.3615297150698
    vertex 3356.951505963412 11450.484358079695 1581.2117992141186
    vertex 3350.3283686774253 11450.484358079695 1569.7965328856467
  endloop
endfacet
facet normal 1.4573061049722125e-15 -1.0 1.3243790925976016e-15
  outer loop
    vertex 3350.640026492898 11450.484358079695 1567.3615297150698
    vertex 3350.3283686774253 11450.484358079695 1569.7965328856467
    vertex 3348.711523005263 11450.484358079695 1567.3615297150698
  endloop
endfacet
facet normal 1.4573061049722125e-15 -1.0 1.3243790925976016e-15
  outer loop
    vertex 3348.711523005263 11450.484358079695 1567.3615297150698
    vertex 3350.3283686774253 11450.484358079695 1569.7965328856467
    vertex 3348.711523005263 11450.484358079695 1581.2117992141186
  endloop
endfacet
facet normal 1.4573061049722125e-15 -1.0 1.3243790925976016e-15
  outer loop
    vertex 3357.0293832620796 11450.484358079695 1567.3615297150698
    vertex 3358.646228934242 11450.484358079695 1567.3615297150698
    vertex 3357.0293832620796 11450.484358079695 1578.3092350099337
  endloop
endfacet
facet normal 1.4573061049722125e-15 -1.0 1.3243790925976016e-15
  outer loop
    vertex 3345.377661242422 11450.484358079695 1575.0560743409417
    vertex 3345.7868143020287 11450.484358079695 1571.3160319344736
    vertex 3345.7868143020287 11450.484358079695 1573.6340705362493
  endloop
endfacet
facet normal 1.4573061049722125e-15 -1.0 1.3243790925976016e-15
  outer loop
    vertex 3345.7868143020287 11450.484358079695 1571.3160319344736
    vertex 3345.377661242422 11450.484358079695 1575.0560743409417
    vertex 3345.377661242422 11450.484358079695 1569.9329667791153
  endloop
endfacet
facet normal 1.4573061049722125e-15 -1.0 1.3243790925976016e-15
  outer loop
    vertex 3345.377661242422 11450.484358079695 1569.9329667791153
    vertex 3345.377661242422 11450.484358079695 1575.0560743409417
    vertex 3344.053004061065 11450.484358079695 1576.848292555907
  endloop
endfacet
facet normal 1.4573061049722125e-15 -1.0 1.3243790925976016e-15
  outer loop
    vertex 3345.377661242422 11450.484358079695 1569.9329667791153
    vertex 3344.053004061065 11450.484358079695 1576.848292555907
    vertex 3344.1699686298666 11450.484358079695 1573.4783159389126
  endloop
endfacet
facet normal 1.4573061049722125e-15 -1.0 1.3243790925976016e-15
  outer loop
    vertex 3344.1699686298666 11450.484358079695 1573.4783159389126
    vertex 3344.053004061065 11450.484358079695 1576.848292555907
    vertex 3343.936188113063 11450.484358079695 1574.3354120866616
  endloop
endfacet
facet normal 1.4573061049722125e-15 -1.0 1.3243790925976016e-15
  outer loop
    vertex 3343.936188113063 11450.484358079695 1574.3354120866616
    vertex 3344.053004061065 11450.484358079695 1576.848292555907
    vertex 3342.105031248763 11450.484358079695 1577.783414623123
  endloop
endfacet
facet normal 1.4573061049722125e-15 -1.0 1.3243790925976016e-15
  outer loop
    vertex 3343.936188113063 11450.484358079695 1574.3354120866616
    vertex 3342.105031248763 11450.484358079695 1577.783414623123
    vertex 3343.0206839913126 11450.484358079695 1575.582043348551
  endloop
endfacet
facet normal 1.4573061049722125e-15 -1.0 1.3243790925976016e-15
  outer loop
    vertex 3343.0206839913126 11450.484358079695 1575.582043348551
    vertex 3342.105031248763 11450.484358079695 1577.783414623123
    vertex 3341.851781407292 11450.484358079695 1576.1860382756279
  endloop
endfacet
facet normal 1.4573061049722125e-15 -1.0 1.3243790925976016e-15
  outer loop
    vertex 3341.851781407292 11450.484358079695 1576.1860382756279
    vertex 3342.105031248763 11450.484358079695 1577.783414623123
    vertex 3339.981685893659 11450.484358079695 1577.783414623123
  endloop
endfacet
facet normal 1.4573061049722125e-15 -1.0 1.3243790925976016e-15
  outer loop
    vertex 3341.851781407292 11450.484358079695 1576.1860382756279
    vertex 3339.981685893659 11450.484358079695 1577.783414623123
    vertex 3340.2544050597967 11450.484358079695 1576.1860382756279
  endloop
endfacet
facet normal 1.4573061049722125e-15 -1.0 1.3243790925976016e-15
  outer loop
    vertex 3340.2544050597967 11450.484358079695 1576.1860382756279
    vertex 3339.981685893659 11450.484358079695 1577.783414623123
    vertex 3339.0661817719088 11450.484358079695 1575.562574023884
  endloop
endfacet
facet normal 1.4573061049722125e-15 -1.0 1.3243790925976016e-15
  outer loop
    vertex 3339.0661817719088 11450.484358079695 1575.562574023884
    vertex 3339.981685893659 11450.484358079695 1577.783414623123
    vertex 3338.01424375669 11450.484358079695 1576.848292555907
  endloop
endfacet
facet normal 1.4573061049722125e-15 -1.0 1.3243790925976016e-15
  outer loop
    vertex 3339.0661817719088 11450.484358079695 1575.562574023884
    vertex 3338.01424375669 11450.484358079695 1576.848292555907
    vertex 3338.1312083254916 11450.484358079695 1574.2964734373272
  endloop
endfacet
facet normal 1.4573061049722125e-15 -1.0 1.3243790925976016e-15
  outer loop
    vertex 3338.1312083254916 11450.484358079695 1574.2964734373272
    vertex 3338.01424375669 11450.484358079695 1576.848292555907
    vertex 3337.87795848402 11450.484358079695 1573.5561932375808
  endloop
endfacet
facet normal 1.4573061049722125e-15 -1.0 1.3243790925976016e-15
  outer loop
    vertex 3337.87795848402 11450.484358079695 1573.5561932375808
    vertex 3338.01424375669 11450.484358079695 1576.848292555907
    vertex 3336.7090559 11450.484358079695 1575.0560743409417
  endloop
endfacet
facet normal 1.4573061049722125e-15 -1.0 1.3243790925976016e-15
  outer loop
    vertex 3337.87795848402 11450.484358079695 1573.5561932375808
    vertex 3336.7090559 11450.484358079695 1575.0560743409417
    vertex 3337.87795848402 11450.484358079695 1573.3029433961096
  endloop
endfacet
facet normal 1.4573061049722125e-15 -1.0 1.3243790925976016e-15
  outer loop
    vertex 3337.87795848402 11450.484358079695 1573.3029433961096
    vertex 3344.1699686298666 11450.484358079695 1571.7055670486145
    vertex 3344.1699686298666 11450.484358079695 1573.3029433961096
  endloop
endfacet
facet normal 1.4573061049722125e-15 -1.0 1.3243790925976016e-15
  outer loop
    vertex 3344.1699686298666 11450.484358079695 1571.7055670486145
    vertex 3337.87795848402 11450.484358079695 1573.3029433961096
    vertex 3336.261112811858 11450.484358079695 1571.7055670486145
  endloop
endfacet
facet normal 1.4573061049722125e-15 -1.0 1.3243790925976016e-15
  outer loop
    vertex 3336.261112811858 11450.484358079695 1571.7055670486145
    vertex 3337.87795848402 11450.484358079695 1573.3029433961096
    vertex 3336.7090559 11450.484358079695 1575.0560743409417
  endloop
endfacet
facet normal 1.4573061049722125e-15 -1.0 1.3243790925976016e-15
  outer loop
    vertex 3336.261112811858 11450.484358079695 1571.7055670486145
    vertex 3336.7090559 11450.484358079695 1575.0560743409417
    vertex 3336.261112811858 11450.484358079695 1573.7510351050507
  endloop
endfacet
facet normal 1.4573061049722125e-15 -1.0 1.3243790925976016e-15
  outer loop
    vertex 3345.377661242422 11450.484358079695 1569.9329667791153
    vertex 3344.1699686298666 11450.484358079695 1571.5107251811446
    vertex 3344.053004061065 11450.484358079695 1568.1407485641505
  endloop
endfacet
facet normal 1.4573061049722125e-15 -1.0 1.3243790925976016e-15
  outer loop
    vertex 3344.1699686298666 11450.484358079695 1571.5107251811446
    vertex 3345.377661242422 11450.484358079695 1569.9329667791153
    vertex 3344.1699686298666 11450.484358079695 1573.4783159389126
  endloop
endfacet
facet normal 1.4573061049722125e-15 -1.0 1.3243790925976016e-15
  outer loop
    vertex 3344.1699686298666 11450.484358079695 1571.5107251811446
    vertex 3344.1699686298666 11450.484358079695 1573.4783159389126
    vertex 3344.1699686298666 11450.484358079695 1573.3029433961096
  endloop
endfacet
facet normal 1.4573061049722125e-15 -1.0 1.3243790925976016e-15
  outer loop
    vertex 3344.1699686298666 11450.484358079695 1571.5107251811446
    vertex 3344.1699686298666 11450.484358079695 1573.3029433961096
    vertex 3344.1699686298666 11450.484358079695 1571.7055670486145
  endloop
endfacet
facet normal 1.4573061049722125e-15 -1.0 1.3243790925976016e-15
  outer loop
    vertex 3344.053004061065 11450.484358079695 1568.1407485641505
    vertex 3344.1699686298666 11450.484358079695 1571.5107251811446
    vertex 3343.916718788396 11450.484358079695 1570.6536290333959
  endloop
endfacet
facet normal 1.4573061049722125e-15 -1.0 1.3243790925976016e-15
  outer loop
    vertex 3344.053004061065 11450.484358079695 1568.1407485641505
    vertex 3343.916718788396 11450.484358079695 1570.6536290333959
    vertex 3342.085561924096 11450.484358079695 1567.205626496934
  endloop
endfacet
facet normal 1.4573061049722125e-15 -1.0 1.3243790925976016e-15
  outer loop
    vertex 3342.085561924096 11450.484358079695 1567.205626496934
    vertex 3343.916718788396 11450.484358079695 1570.6536290333959
    vertex 3342.9817453419782 11450.484358079695 1569.38737982604
  endloop
endfacet
facet normal 1.4573061049722125e-15 -1.0 1.3243790925976016e-15
  outer loop
    vertex 3342.085561924096 11450.484358079695 1567.205626496934
    vertex 3342.9817453419782 11450.484358079695 1569.38737982604
    vertex 3341.793373433291 11450.484358079695 1568.803002844429
  endloop
endfacet
facet normal 1.4573061049722125e-15 -1.0 1.3243790925976016e-15
  outer loop
    vertex 3342.085561924096 11450.484358079695 1567.205626496934
    vertex 3341.793373433291 11450.484358079695 1568.803002844429
    vertex 3340.079181137793 11450.484358079695 1567.205626496934
  endloop
endfacet
facet normal 1.4573061049722125e-15 -1.0 1.3243790925976016e-15
  outer loop
    vertex 3340.079181137793 11450.484358079695 1567.205626496934
    vertex 3341.793373433291 11450.484358079695 1568.803002844429
    vertex 3340.2154664104633 11450.484358079695 1568.803002844429
  endloop
endfacet
facet normal 1.4573061049722125e-15 -1.0 1.3243790925976016e-15
  outer loop
    vertex 3340.079181137793 11450.484358079695 1567.205626496934
    vertex 3340.2154664104633 11450.484358079695 1568.803002844429
    vertex 3338.910278553773 11450.484358079695 1569.1342786053676
  endloop
endfacet
facet normal 1.4573061049722125e-15 -1.0 1.3243790925976016e-15
  outer loop
    vertex 3340.079181137793 11450.484358079695 1567.205626496934
    vertex 3338.910278553773 11450.484358079695 1569.1342786053676
    vertex 3338.306432247495 11450.484358079695 1567.653718205875
  endloop
endfacet
facet normal 1.4573061049722125e-15 -1.0 1.3243790925976016e-15
  outer loop
    vertex 3338.306432247495 11450.484358079695 1567.653718205875
    vertex 3338.910278553773 11450.484358079695 1569.1342786053676
    vertex 3337.897427808687 11450.484358079695 1569.7770635609795
  endloop
endfacet
facet normal 1.4573061049722125e-15 -1.0 1.3243790925976016e-15
  outer loop
    vertex 3338.306432247495 11450.484358079695 1567.653718205875
    vertex 3337.897427808687 11450.484358079695 1569.7770635609795
    vertex 3337.0403316609386 11450.484358079695 1568.4913450289569
  endloop
endfacet
facet normal 1.4573061049722125e-15 -1.0 1.3243790925976016e-15
  outer loop
    vertex 3332.5377159348764 11450.484358079695 1577.6275114049874
    vertex 3332.3818127167406 11450.484358079695 1567.3615297150698
    vertex 3334.1935002563728 11450.484358079695 1577.6275114049874
  endloop
endfacet
facet normal 1.4573061049722125e-15 -1.0 1.3243790925976016e-15
  outer loop
    vertex 3332.3818127167406 11450.484358079695 1567.3615297150698
    vertex 3332.5377159348764 11450.484358079695 1577.6275114049874
    vertex 3331.388431296322 11450.484358079695 1570.3614405425903
  endloop
endfacet
facet normal 1.4573061049722125e-15 -1.0 1.3243790925976016e-15
  outer loop
    vertex 3332.3818127167406 11450.484358079695 1567.3615297150698
    vertex 3331.388431296322 11450.484358079695 1570.3614405425903
    vertex 3330.8624622887123 11450.484358079695 1567.3615297150698
  endloop
endfacet
facet normal 1.4573061049722125e-15 -1.0 1.3243790925976016e-15
  outer loop
    vertex 3330.8624622887123 11450.484358079695 1567.3615297150698
    vertex 3331.388431296322 11450.484358079695 1570.3614405425903
    vertex 3329.4793971333543 11450.484358079695 1576.848292555907
  endloop
endfacet
facet normal 1.4573061049722125e-15 -1.0 1.3243790925976016e-15
  outer loop
    vertex 3330.8624622887123 11450.484358079695 1567.3615297150698
    vertex 3329.4793971333543 11450.484358079695 1576.848292555907
    vertex 3328.739116933608 11450.484358079695 1574.1405702191917
  endloop
endfacet
facet normal 1.4573061049722125e-15 -1.0 1.3243790925976016e-15
  outer loop
    vertex 3328.739116933608 11450.484358079695 1574.1405702191917
    vertex 3329.4793971333543 11450.484358079695 1576.848292555907
    vertex 3327.9988367338615 11450.484358079695 1576.848292555907
  endloop
endfacet
facet normal 1.4573061049722125e-15 -1.0 1.3243790925976016e-15
  outer loop
    vertex 3328.739116933608 11450.484358079695 1574.1405702191917
    vertex 3327.9988367338615 11450.484358079695 1576.848292555907
    vertex 3326.6157715785034 11450.484358079695 1567.3615297150698
  endloop
endfacet
facet normal 1.4573061049722125e-15 -1.0 1.3243790925976016e-15
  outer loop
    vertex 3326.6157715785034 11450.484358079695 1567.3615297150698
    vertex 3327.9988367338615 11450.484358079695 1576.848292555907
    vertex 3326.089802570894 11450.484358079695 1570.3614405425903
  endloop
endfacet
facet normal 1.4573061049722125e-15 -1.0 1.3243790925976016e-15
  outer loop
    vertex 3326.6157715785034 11450.484358079695 1567.3615297150698
    vertex 3326.089802570894 11450.484358079695 1570.3614405425903
    vertex 3325.0962725296768 11450.484358079695 1567.3615297150698
  endloop
endfacet
facet normal 1.4573061049722125e-15 -1.0 1.3243790925976016e-15
  outer loop
    vertex 3325.0962725296768 11450.484358079695 1567.3615297150698
    vertex 3326.089802570894 11450.484358079695 1570.3614405425903
    vertex 3324.94051793234 11450.484358079695 1577.6275114049874
  endloop
endfacet
facet normal 1.4573061049722125e-15 -1.0 1.3243790925976016e-15
  outer loop
    vertex 3325.0962725296768 11450.484358079695 1567.3615297150698
    vertex 3324.94051793234 11450.484358079695 1577.6275114049874
    vertex 3323.2847336108434 11450.484358079695 1577.6275114049874
  endloop
endfacet
facet normal 1.4573061049722125e-15 -1.0 1.3243790925976016e-15
  outer loop
    vertex 3353.678875969753 11450.484358079695 1546.529798183681
    vertex 3357.0293832620796 11450.484358079695 1550.3478665096166
    vertex 3357.0488525867468 11450.484358079695 1553.9321543187477
  endloop
endfacet
facet normal 1.4573061049722125e-15 -1.0 1.3243790925976016e-15
  outer loop
    vertex 3357.0293832620796 11450.484358079695 1550.3478665096166
    vertex 3353.678875969753 11450.484358079695 1546.529798183681
    vertex 3354.4970334681675 11450.484358079695 1544.6791719947148
  endloop
endfacet
facet normal 1.4573061049722125e-15 -1.0 1.3243790925976016e-15
  outer loop
    vertex 3354.4970334681675 11450.484358079695 1544.6791719947148
    vertex 3353.678875969753 11450.484358079695 1546.529798183681
    vertex 3352.860718471338 11450.484358079695 1544.6791719947148
  endloop
endfacet
facet normal 1.4573061049722125e-15 -1.0 1.3243790925976016e-15
  outer loop
    vertex 3352.860718471338 11450.484358079695 1544.6791719947148
    vertex 3353.678875969753 11450.484358079695 1546.529798183681
    vertex 3350.308899352758 11450.484358079695 1553.9321543187477
  endloop
endfacet
facet normal 1.4573061049722125e-15 -1.0 1.3243790925976016e-15
  outer loop
    vertex 3352.860718471338 11450.484358079695 1544.6791719947148
    vertex 3350.308899352758 11450.484358079695 1553.9321543187477
    vertex 3350.3283686774253 11450.484358079695 1550.3478665096166
  endloop
endfacet
facet normal 1.4573061049722125e-15 -1.0 1.3243790925976016e-15
  outer loop
    vertex 3350.3283686774253 11450.484358079695 1550.3478665096166
    vertex 3350.308899352758 11450.484358079695 1553.9321543187477
    vertex 3350.3283686774253 11450.484358079695 1540.0818848196989
  endloop
endfacet
facet normal 1.4573061049722125e-15 -1.0 1.3243790925976016e-15
  outer loop
    vertex 3350.3283686774253 11450.484358079695 1540.0818848196989
    vertex 3350.308899352758 11450.484358079695 1553.9321543187477
    vertex 3348.711523005263 11450.484358079695 1540.0818848196989
  endloop
endfacet
facet normal 1.4573061049722125e-15 -1.0 1.3243790925976016e-15
  outer loop
    vertex 3348.711523005263 11450.484358079695 1540.0818848196989
    vertex 3350.308899352758 11450.484358079695 1553.9321543187477
    vertex 3348.711523005263 11450.484358079695 1553.9321543187477
  endloop
endfacet
facet normal 1.4573061049722125e-15 -1.0 1.3243790925976016e-15
  outer loop
    vertex 3357.0488525867468 11450.484358079695 1553.9321543187477
    vertex 3358.646228934242 11450.484358079695 1540.0818848196989
    vertex 3358.646228934242 11450.484358079695 1553.9321543187477
  endloop
endfacet
facet normal 1.4573061049722125e-15 -1.0 1.3243790925976016e-15
  outer loop
    vertex 3358.646228934242 11450.484358079695 1540.0818848196989
    vertex 3357.0488525867468 11450.484358079695 1553.9321543187477
    vertex 3357.0293832620796 11450.484358079695 1540.0818848196989
  endloop
endfacet
facet normal 1.4573061049722125e-15 -1.0 1.3243790925976016e-15
  outer loop
    vertex 3357.0293832620796 11450.484358079695 1540.0818848196989
    vertex 3357.0488525867468 11450.484358079695 1553.9321543187477
    vertex 3357.0293832620796 11450.484358079695 1550.3478665096166
  endloop
endfacet
facet normal 1.4573061049722125e-15 -1.0 1.3243790925976016e-15
  outer loop
    vertex 3345.377661242422 11450.484358079695 1547.7764294455708
    vertex 3345.7868143020287 11450.484358079695 1544.0363870391027
    vertex 3345.7868143020287 11450.484358079695 1546.3544256408782
  endloop
endfacet
facet normal 1.4573061049722125e-15 -1.0 1.3243790925976016e-15
  outer loop
    vertex 3345.7868143020287 11450.484358079695 1544.0363870391027
    vertex 3345.377661242422 11450.484358079695 1547.7764294455708
    vertex 3345.377661242422 11450.484358079695 1542.6533218837444
  endloop
endfacet
facet normal 1.4573061049722125e-15 -1.0 1.3243790925976016e-15
  outer loop
    vertex 3345.377661242422 11450.484358079695 1542.6533218837444
    vertex 3345.377661242422 11450.484358079695 1547.7764294455708
    vertex 3344.053004061065 11450.484358079695 1549.5686476605358
  endloop
endfacet
facet normal 1.4573061049722125e-15 -1.0 1.3243790925976016e-15
  outer loop
    vertex 3345.377661242422 11450.484358079695 1542.6533218837444
    vertex 3344.053004061065 11450.484358079695 1549.5686476605358
    vertex 3344.1699686298666 11450.484358079695 1546.1986710435417
  endloop
endfacet
facet normal 1.4573061049722125e-15 -1.0 1.3243790925976016e-15
  outer loop
    vertex 3344.1699686298666 11450.484358079695 1546.1986710435417
    vertex 3344.053004061065 11450.484358079695 1549.5686476605358
    vertex 3343.936188113063 11450.484358079695 1547.0557671912904
  endloop
endfacet
facet normal 1.4573061049722125e-15 -1.0 1.3243790925976016e-15
  outer loop
    vertex 3343.936188113063 11450.484358079695 1547.0557671912904
    vertex 3344.053004061065 11450.484358079695 1549.5686476605358
    vertex 3342.105031248763 11450.484358079695 1550.5037697277521
  endloop
endfacet
facet normal 1.4573061049722125e-15 -1.0 1.3243790925976016e-15
  outer loop
    vertex 3343.936188113063 11450.484358079695 1547.0557671912904
    vertex 3342.105031248763 11450.484358079695 1550.5037697277521
    vertex 3343.0206839913126 11450.484358079695 1548.30239845318
  endloop
endfacet
facet normal 1.4573061049722125e-15 -1.0 1.3243790925976016e-15
  outer loop
    vertex 3343.0206839913126 11450.484358079695 1548.30239845318
    vertex 3342.105031248763 11450.484358079695 1550.5037697277521
    vertex 3341.851781407292 11450.484358079695 1548.906393380257
  endloop
endfacet
facet normal 1.4573061049722125e-15 -1.0 1.3243790925976016e-15
  outer loop
    vertex 3341.851781407292 11450.484358079695 1548.906393380257
    vertex 3342.105031248763 11450.484358079695 1550.5037697277521
    vertex 3339.981685893659 11450.484358079695 1550.5037697277521
  endloop
endfacet
facet normal 1.4573061049722125e-15 -1.0 1.3243790925976016e-15
  outer loop
    vertex 3341.851781407292 11450.484358079695 1548.906393380257
    vertex 3339.981685893659 11450.484358079695 1550.5037697277521
    vertex 3340.2544050597967 11450.484358079695 1548.906393380257
  endloop
endfacet
facet normal 1.4573061049722125e-15 -1.0 1.3243790925976016e-15
  outer loop
    vertex 3340.2544050597967 11450.484358079695 1548.906393380257
    vertex 3339.981685893659 11450.484358079695 1550.5037697277521
    vertex 3339.0661817719088 11450.484358079695 1548.2829291285132
  endloop
endfacet
facet normal 1.4573061049722125e-15 -1.0 1.3243790925976016e-15
  outer loop
    vertex 3339.0661817719088 11450.484358079695 1548.2829291285132
    vertex 3339.981685893659 11450.484358079695 1550.5037697277521
    vertex 3338.01424375669 11450.484358079695 1549.5686476605358
  endloop
endfacet
facet normal 1.4573061049722125e-15 -1.0 1.3243790925976016e-15
  outer loop
    vertex 3339.0661817719088 11450.484358079695 1548.2829291285132
    vertex 3338.01424375669 11450.484358079695 1549.5686476605358
    vertex 3338.1312083254916 11450.484358079695 1547.0168285419563
  endloop
endfacet
facet normal 1.4573061049722125e-15 -1.0 1.3243790925976016e-15
  outer loop
    vertex 3338.1312083254916 11450.484358079695 1547.0168285419563
    vertex 3338.01424375669 11450.484358079695 1549.5686476605358
    vertex 3337.87795848402 11450.484358079695 1546.27654834221
  endloop
endfacet
facet normal 1.4573061049722125e-15 -1.0 1.3243790925976016e-15
  outer loop
    vertex 3337.87795848402 11450.484358079695 1546.27654834221
    vertex 3338.01424375669 11450.484358079695 1549.5686476605358
    vertex 3336.7090559 11450.484358079695 1547.7764294455708
  endloop
endfacet
facet normal 1.4573061049722125e-15 -1.0 1.3243790925976016e-15
  outer loop
    vertex 3337.87795848402 11450.484358079695 1546.27654834221
    vertex 3336.7090559 11450.484358079695 1547.7764294455708
    vertex 3337.87795848402 11450.484358079695 1546.0232985007387
  endloop
endfacet
facet normal 1.4573061049722125e-15 -1.0 1.3243790925976016e-15
  outer loop
    vertex 3337.87795848402 11450.484358079695 1546.0232985007387
    vertex 3344.1699686298666 11450.484358079695 1544.4259221532436
    vertex 3344.1699686298666 11450.484358079695 1546.0232985007387
  endloop
endfacet
facet normal 1.4573061049722125e-15 -1.0 1.3243790925976016e-15
  outer loop
    vertex 3344.1699686298666 11450.484358079695 1544.4259221532436
    vertex 3337.87795848402 11450.484358079695 1546.0232985007387
    vertex 3336.261112811858 11450.484358079695 1544.4259221532436
  endloop
endfacet
facet normal 1.4573061049722125e-15 -1.0 1.3243790925976016e-15
  outer loop
    vertex 3336.261112811858 11450.484358079695 1544.4259221532436
    vertex 3337.87795848402 11450.484358079695 1546.0232985007387
    vertex 3336.7090559 11450.484358079695 1547.7764294455708
  endloop
endfacet
facet normal 1.4573061049722125e-15 -1.0 1.3243790925976016e-15
  outer loop
    vertex 3336.261112811858 11450.484358079695 1544.4259221532436
    vertex 3336.7090559 11450.484358079695 1547.7764294455708
    vertex 3336.261112811858 11450.484358079695 1546.4713902096798
  endloop
endfacet
facet normal 1.4573061049722125e-15 -1.0 1.3243790925976016e-15
  outer loop
    vertex 3345.377661242422 11450.484358079695 1542.6533218837444
    vertex 3344.1699686298666 11450.484358079695 1544.2310802857737
    vertex 3344.053004061065 11450.484358079695 1540.8611036687792
  endloop
endfacet
facet normal 1.4573061049722125e-15 -1.0 1.3243790925976016e-15
  outer loop
    vertex 3344.1699686298666 11450.484358079695 1544.2310802857737
    vertex 3345.377661242422 11450.484358079695 1542.6533218837444
    vertex 3344.1699686298666 11450.484358079695 1546.1986710435417
  endloop
endfacet
facet normal 1.4573061049722125e-15 -1.0 1.3243790925976016e-15
  outer loop
    vertex 3344.1699686298666 11450.484358079695 1544.2310802857737
    vertex 3344.1699686298666 11450.484358079695 1546.1986710435417
    vertex 3344.1699686298666 11450.484358079695 1546.0232985007387
  endloop
endfacet
facet normal 1.4573061049722125e-15 -1.0 1.3243790925976016e-15
  outer loop
    vertex 3344.1699686298666 11450.484358079695 1544.2310802857737
    vertex 3344.1699686298666 11450.484358079695 1546.0232985007387
    vertex 3344.1699686298666 11450.484358079695 1544.4259221532436
  endloop
endfacet
facet normal 1.4573061049722125e-15 -1.0 1.3243790925976016e-15
  outer loop
    vertex 3344.053004061065 11450.484358079695 1540.8611036687792
    vertex 3344.1699686298666 11450.484358079695 1544.2310802857737
    vertex 3343.916718788396 11450.484358079695 1543.3739841380245
  endloop
endfacet
facet normal 1.4573061049722125e-15 -1.0 1.3243790925976016e-15
  outer loop
    vertex 3344.053004061065 11450.484358079695 1540.8611036687792
    vertex 3343.916718788396 11450.484358079695 1543.3739841380245
    vertex 3342.085561924096 11450.484358079695 1539.925981601563
  endloop
endfacet
facet normal 1.4573061049722125e-15 -1.0 1.3243790925976016e-15
  outer loop
    vertex 3342.085561924096 11450.484358079695 1539.925981601563
    vertex 3343.916718788396 11450.484358079695 1543.3739841380245
    vertex 3342.9817453419782 11450.484358079695 1542.107734930669
  endloop
endfacet
facet normal 1.4573061049722125e-15 -1.0 1.3243790925976016e-15
  outer loop
    vertex 3342.085561924096 11450.484358079695 1539.925981601563
    vertex 3342.9817453419782 11450.484358079695 1542.107734930669
    vertex 3341.793373433291 11450.484358079695 1541.5233579490582
  endloop
endfacet
facet normal 1.4573061049722125e-15 -1.0 1.3243790925976016e-15
  outer loop
    vertex 3342.085561924096 11450.484358079695 1539.925981601563
    vertex 3341.793373433291 11450.484358079695 1541.5233579490582
    vertex 3340.079181137793 11450.484358079695 1539.925981601563
  endloop
endfacet
facet normal 1.4573061049722125e-15 -1.0 1.3243790925976016e-15
  outer loop
    vertex 3340.079181137793 11450.484358079695 1539.925981601563
    vertex 3341.793373433291 11450.484358079695 1541.5233579490582
    vertex 3340.2154664104633 11450.484358079695 1541.5233579490582
  endloop
endfacet
facet normal 1.4573061049722125e-15 -1.0 1.3243790925976016e-15
  outer loop
    vertex 3340.079181137793 11450.484358079695 1539.925981601563
    vertex 3340.2154664104633 11450.484358079695 1541.5233579490582
    vertex 3338.910278553773 11450.484358079695 1541.8546337099967
  endloop
endfacet
facet normal 1.4573061049722125e-15 -1.0 1.3243790925976016e-15
  outer loop
    vertex 3340.079181137793 11450.484358079695 1539.925981601563
    vertex 3338.910278553773 11450.484358079695 1541.8546337099967
    vertex 3338.306432247495 11450.484358079695 1540.3740733105042
  endloop
endfacet
facet normal 1.4573061049722125e-15 -1.0 1.3243790925976016e-15
  outer loop
    vertex 3338.306432247495 11450.484358079695 1540.3740733105042
    vertex 3338.910278553773 11450.484358079695 1541.8546337099967
    vertex 3337.897427808687 11450.484358079695 1542.4974186656086
  endloop
endfacet
facet normal 1.4573061049722125e-15 -1.0 1.3243790925976016e-15
  outer loop
    vertex 3338.306432247495 11450.484358079695 1540.3740733105042
    vertex 3337.897427808687 11450.484358079695 1542.4974186656086
    vertex 3337.0403316609386 11450.484358079695 1541.211700133586
  endloop
endfacet
facet normal 1.4573061049722125e-15 -1.0 1.3243790925976016e-15
  outer loop
    vertex 3324.6872680908687 11450.484358079695 1554.7697811418295
    vertex 3326.304113763031 11450.484358079695 1549.7245508786716
    vertex 3326.304113763031 11450.484358079695 1554.7697811418295
  endloop
endfacet
facet normal 1.4573061049722125e-15 -1.0 1.3243790925976016e-15
  outer loop
    vertex 3326.304113763031 11450.484358079695 1549.7245508786716
    vertex 3324.6872680908687 11450.484358079695 1554.7697811418295
    vertex 3326.304113763031 11450.484358079695 1547.6790828222352
  endloop
endfacet
facet normal 1.4573061049722125e-15 -1.0 1.3243790925976016e-15
  outer loop
    vertex 3326.304113763031 11450.484358079695 1547.6790828222352
    vertex 3324.6872680908687 11450.484358079695 1554.7697811418295
    vertex 3326.304113763031 11450.484358079695 1543.2571681900224
  endloop
endfacet
facet normal 1.4573061049722125e-15 -1.0 1.3243790925976016e-15
  outer loop
    vertex 3326.304113763031 11450.484358079695 1543.2571681900224
    vertex 3324.6872680908687 11450.484358079695 1554.7697811418295
    vertex 3326.284644438364 11450.484358079695 1541.1143535102506
  endloop
endfacet
facet normal 1.4573061049722125e-15 -1.0 1.3243790925976016e-15
  outer loop
    vertex 3326.284644438364 11450.484358079695 1541.1143535102506
    vertex 3324.6872680908687 11450.484358079695 1554.7697811418295
    vertex 3326.284644438364 11450.484358079695 1540.0818848196989
  endloop
endfacet
facet normal 1.4573061049722125e-15 -1.0 1.3243790925976016e-15
  outer loop
    vertex 3326.284644438364 11450.484358079695 1540.0818848196989
    vertex 3324.6872680908687 11450.484358079695 1554.7697811418295
    vertex 3324.6872680908687 11450.484358079695 1540.0818848196989
  endloop
endfacet
facet normal 1.4573061049722125e-15 -1.0 1.3243790925976016e-15
  outer loop
    vertex 3333.2195881606212 11450.484358079695 1542.6533218837444
    vertex 3332.011746927267 11450.484358079695 1544.2505496104409
    vertex 3331.8949309792647 11450.484358079695 1540.8611036687792
  endloop
endfacet
facet normal 1.4573061049722125e-15 -1.0 1.3243790925976016e-15
  outer loop
    vertex 3332.011746927267 11450.484358079695 1544.2505496104409
    vertex 3333.2195881606212 11450.484358079695 1542.6533218837444
    vertex 3332.011746927267 11450.484358079695 1546.1401144487413
  endloop
endfacet
facet normal 1.4573061049722125e-15 -1.0 1.3243790925976016e-15
  outer loop
    vertex 3331.8949309792647 11450.484358079695 1540.8611036687792
    vertex 3332.011746927267 11450.484358079695 1544.2505496104409
    vertex 3331.777966410463 11450.484358079695 1543.3739841380245
  endloop
endfacet
facet normal 1.4573061049722125e-15 -1.0 1.3243790925976016e-15
  outer loop
    vertex 3331.8949309792647 11450.484358079695 1540.8611036687792
    vertex 3331.777966410463 11450.484358079695 1543.3739841380245
    vertex 3329.868932247495 11450.484358079695 1539.925981601563
  endloop
endfacet
facet normal 1.4573061049722125e-15 -1.0 1.3243790925976016e-15
  outer loop
    vertex 3329.868932247495 11450.484358079695 1539.925981601563
    vertex 3331.777966410463 11450.484358079695 1543.3739841380245
    vertex 3330.842992964046 11450.484358079695 1542.107734930669
  endloop
endfacet
facet normal 1.4573061049722125e-15 -1.0 1.3243790925976016e-15
  outer loop
    vertex 3329.868932247495 11450.484358079695 1539.925981601563
    vertex 3330.842992964046 11450.484358079695 1542.107734930669
    vertex 3329.615682406024 11450.484358079695 1541.5233579490582
  endloop
endfacet
facet normal 1.4573061049722125e-15 -1.0 1.3243790925976016e-15
  outer loop
    vertex 3329.868932247495 11450.484358079695 1539.925981601563
    vertex 3329.615682406024 11450.484358079695 1541.5233579490582
    vertex 3327.9209594351937 11450.484358079695 1539.925981601563
  endloop
endfacet
facet normal 1.4573061049722125e-15 -1.0 1.3243790925976016e-15
  outer loop
    vertex 3327.9209594351937 11450.484358079695 1539.925981601563
    vertex 3329.615682406024 11450.484358079695 1541.5233579490582
    vertex 3328.1352706273306 11450.484358079695 1541.5233579490582
  endloop
endfacet
facet normal 1.4573061049722125e-15 -1.0 1.3243790925976016e-15
  outer loop
    vertex 3327.9209594351937 11450.484358079695 1539.925981601563
    vertex 3328.1352706273306 11450.484358079695 1541.5233579490582
    vertex 3326.8690214199746 11450.484358079695 1542.4195413669404
  endloop
endfacet
facet normal 1.4573061049722125e-15 -1.0 1.3243790925976016e-15
  outer loop
    vertex 3327.9209594351937 11450.484358079695 1539.925981601563
    vertex 3326.8690214199746 11450.484358079695 1542.4195413669404
    vertex 3326.7131182018393 11450.484358079695 1540.6662618013095
  endloop
endfacet
facet normal 1.4573061049722125e-15 -1.0 1.3243790925976016e-15
  outer loop
    vertex 3326.7131182018393 11450.484358079695 1540.6662618013095
    vertex 3326.8690214199746 11450.484358079695 1542.4195413669404
    vertex 3326.304113763031 11450.484358079695 1543.2571681900224
  endloop
endfacet
facet normal 1.4573061049722125e-15 -1.0 1.3243790925976016e-15
  outer loop
    vertex 3326.7131182018393 11450.484358079695 1540.6662618013095
    vertex 3326.304113763031 11450.484358079695 1543.2571681900224
    vertex 3326.284644438364 11450.484358079695 1541.1143535102506
  endloop
endfacet
facet normal 1.4573061049722125e-15 -1.0 1.3243790925976016e-15
  outer loop
    vertex 3333.2195881606212 11450.484358079695 1547.7764294455708
    vertex 3333.6285925994293 11450.484358079695 1544.0363870391027
    vertex 3333.6285925994293 11450.484358079695 1546.3544256408782
  endloop
endfacet
facet normal 1.4573061049722125e-15 -1.0 1.3243790925976016e-15
  outer loop
    vertex 3333.6285925994293 11450.484358079695 1544.0363870391027
    vertex 3333.2195881606212 11450.484358079695 1547.7764294455708
    vertex 3333.2195881606212 11450.484358079695 1542.6533218837444
  endloop
endfacet
facet normal 1.4573061049722125e-15 -1.0 1.3243790925976016e-15
  outer loop
    vertex 3333.2195881606212 11450.484358079695 1542.6533218837444
    vertex 3333.2195881606212 11450.484358079695 1547.7764294455708
    vertex 3331.8949309792647 11450.484358079695 1549.5686476605358
  endloop
endfacet
facet normal 1.4573061049722125e-15 -1.0 1.3243790925976016e-15
  outer loop
    vertex 3333.2195881606212 11450.484358079695 1542.6533218837444
    vertex 3331.8949309792647 11450.484358079695 1549.5686476605358
    vertex 3332.011746927267 11450.484358079695 1546.1401144487413
  endloop
endfacet
facet normal 1.4573061049722125e-15 -1.0 1.3243790925976016e-15
  outer loop
    vertex 3332.011746927267 11450.484358079695 1546.1401144487413
    vertex 3331.8949309792647 11450.484358079695 1549.5686476605358
    vertex 3331.777966410463 11450.484358079695 1547.0557671912904
  endloop
endfacet
facet normal 1.4573061049722125e-15 -1.0 1.3243790925976016e-15
  outer loop
    vertex 3331.777966410463 11450.484358079695 1547.0557671912904
    vertex 3331.8949309792647 11450.484358079695 1549.5686476605358
    vertex 3329.946809546164 11450.484358079695 1550.5037697277521
  endloop
endfacet
facet normal 1.4573061049722125e-15 -1.0 1.3243790925976016e-15
  outer loop
    vertex 3331.777966410463 11450.484358079695 1547.0557671912904
    vertex 3329.946809546164 11450.484358079695 1550.5037697277521
    vertex 3330.842992964046 11450.484358079695 1548.30239845318
  endloop
endfacet
facet normal 1.4573061049722125e-15 -1.0 1.3243790925976016e-15
  outer loop
    vertex 3330.842992964046 11450.484358079695 1548.30239845318
    vertex 3329.946809546164 11450.484358079695 1550.5037697277521
    vertex 3329.6935597046922 11450.484358079695 1548.9258627049237
  endloop
endfacet
facet normal 1.4573061049722125e-15 -1.0 1.3243790925976016e-15
  outer loop
    vertex 3329.6935597046922 11450.484358079695 1548.9258627049237
    vertex 3329.946809546164 11450.484358079695 1550.5037697277521
    vertex 3328.0183060585287 11450.484358079695 1550.5037697277521
  endloop
endfacet
facet normal 1.4573061049722125e-15 -1.0 1.3243790925976016e-15
  outer loop
    vertex 3329.6935597046922 11450.484358079695 1548.9258627049237
    vertex 3328.0183060585287 11450.484358079695 1550.5037697277521
    vertex 3328.2520865753327 11450.484358079695 1548.9258627049237
  endloop
endfacet
facet normal 1.4573061049722125e-15 -1.0 1.3243790925976016e-15
  outer loop
    vertex 3328.2520865753327 11450.484358079695 1548.9258627049237
    vertex 3328.0183060585287 11450.484358079695 1550.5037697277521
    vertex 3327.4533984015848 11450.484358079695 1548.6726128634527
  endloop
endfacet
facet normal 1.4573061049722125e-15 -1.0 1.3243790925976016e-15
  outer loop
    vertex 3327.4533984015848 11450.484358079695 1548.6726128634527
    vertex 3328.0183060585287 11450.484358079695 1550.5037697277521
    vertex 3326.8495520953074 11450.484358079695 1550.0751473434782
  endloop
endfacet
facet normal 1.4573061049722125e-15 -1.0 1.3243790925976016e-15
  outer loop
    vertex 3327.4533984015848 11450.484358079695 1548.6726128634527
    vertex 3326.8495520953074 11450.484358079695 1550.0751473434782
    vertex 3326.7131182018393 11450.484358079695 1548.1855825051775
  endloop
endfacet
facet normal 1.4573061049722125e-15 -1.0 1.3243790925976016e-15
  outer loop
    vertex 3326.7131182018393 11450.484358079695 1548.1855825051775
    vertex 3326.8495520953074 11450.484358079695 1550.0751473434782
    vertex 3326.304113763031 11450.484358079695 1549.7245508786716
  endloop
endfacet
facet normal 1.4573061049722125e-15 -1.0 1.3243790925976016e-15
  outer loop
    vertex 3326.7131182018393 11450.484358079695 1548.1855825051775
    vertex 3326.304113763031 11450.484358079695 1549.7245508786716
    vertex 3326.304113763031 11450.484358079695 1547.6790828222352
  endloop
endfacet
facet normal 1.4573061049722125e-15 -1.0 1.3243790925976016e-15
  outer loop
    vertex 3315.119952776982 11450.484358079695 1550.3478665096166
    vertex 3319.7367092766644 11450.484358079695 1548.7504901621212
    vertex 3319.7367092766644 11450.484358079695 1550.3478665096166
  endloop
endfacet
facet normal 1.4573061049722125e-15 -1.0 1.3243790925976016e-15
  outer loop
    vertex 3319.7367092766644 11450.484358079695 1548.7504901621212
    vertex 3315.119952776982 11450.484358079695 1550.3478665096166
    vertex 3316.736798449144 11450.484358079695 1548.7504901621212
  endloop
endfacet
facet normal 1.4573061049722125e-15 -1.0 1.3243790925976016e-15
  outer loop
    vertex 3316.736798449144 11450.484358079695 1548.7504901621212
    vertex 3315.119952776982 11450.484358079695 1550.3478665096166
    vertex 3316.736798449144 11450.484358079695 1541.679261167194
  endloop
endfacet
facet normal 1.4573061049722125e-15 -1.0 1.3243790925976016e-15
  outer loop
    vertex 3316.736798449144 11450.484358079695 1541.679261167194
    vertex 3319.9314025233352 11450.484358079695 1540.0818848196989
    vertex 3319.9314025233352 11450.484358079695 1541.679261167194
  endloop
endfacet
facet normal 1.4573061049722125e-15 -1.0 1.3243790925976016e-15
  outer loop
    vertex 3319.9314025233352 11450.484358079695 1540.0818848196989
    vertex 3316.736798449144 11450.484358079695 1541.679261167194
    vertex 3311.925200081991 11450.484358079695 1540.0818848196989
  endloop
endfacet
facet normal 1.4573061049722125e-15 -1.0 1.3243790925976016e-15
  outer loop
    vertex 3311.925200081991 11450.484358079695 1540.0818848196989
    vertex 3316.736798449144 11450.484358079695 1541.679261167194
    vertex 3315.119952776982 11450.484358079695 1541.679261167194
  endloop
endfacet
facet normal 1.4573061049722125e-15 -1.0 1.3243790925976016e-15
  outer loop
    vertex 3315.119952776982 11450.484358079695 1541.679261167194
    vertex 3316.736798449144 11450.484358079695 1541.679261167194
    vertex 3315.119952776982 11450.484358079695 1550.3478665096166
  endloop
endfacet
facet normal 1.4573061049722125e-15 -1.0 1.3243790925976016e-15
  outer loop
    vertex 3311.925200081991 11450.484358079695 1540.0818848196989
    vertex 3315.119952776982 11450.484358079695 1541.679261167194
    vertex 3311.925200081991 11450.484358079695 1541.679261167194
  endloop
endfacet
facet normal 1.4573061049722125e-15 -1.0 1.3243790925976016e-15
  outer loop
    vertex 3314.769207691376 11450.484358079695 1554.7697811418295
    vertex 3317.0873949139504 11450.484358079695 1552.3737166205865
    vertex 3317.0873949139504 11450.484358079695 1554.7697811418295
  endloop
endfacet
facet normal 1.4573061049722125e-15 -1.0 1.3243790925976016e-15
  outer loop
    vertex 3317.0873949139504 11450.484358079695 1552.3737166205865
    vertex 3314.769207691376 11450.484358079695 1554.7697811418295
    vertex 3314.769207691376 11450.484358079695 1552.3737166205865
  endloop
endfacet
facet normal 1.4573061049722125e-15 -1.0 1.3243790925976016e-15
  outer loop
    vertex 3307.3252377325935 11450.484358079695 1549.5297090112017
    vertex 3306.7603300756496 11450.484358079695 1547.873924689705
    vertex 3307.8706760648697 11450.484358079695 1549.0232093282593
  endloop
endfacet
facet normal 1.4573061049722125e-15 -1.0 1.3243790925976016e-15
  outer loop
    vertex 3306.7603300756496 11450.484358079695 1547.873924689705
    vertex 3307.3252377325935 11450.484358079695 1549.5297090112017
    vertex 3306.3902642861763 11450.484358079695 1550.1335553174792
  endloop
endfacet
facet normal 1.4573061049722125e-15 -1.0 1.3243790925976016e-15
  outer loop
    vertex 3306.7603300756496 11450.484358079695 1547.873924689705
    vertex 3306.3902642861763 11450.484358079695 1550.1335553174792
    vertex 3306.3902642861763 11450.484358079695 1548.2439904791788
  endloop
endfacet
facet normal 1.4573061049722125e-15 -1.0 1.3243790925976016e-15
  outer loop
    vertex 3306.3902642861763 11450.484358079695 1548.2439904791788
    vertex 3306.3902642861763 11450.484358079695 1550.1335553174792
    vertex 3305.1434844034875 11450.484358079695 1550.5037697277521
  endloop
endfacet
facet normal 1.4573061049722125e-15 -1.0 1.3243790925976016e-15
  outer loop
    vertex 3306.3902642861763 11450.484358079695 1548.2439904791788
    vertex 3305.1434844034875 11450.484358079695 1550.5037697277521
    vertex 3305.7862693590996 11450.484358079695 1548.6336742141186
  endloop
endfacet
facet normal 1.4573061049722125e-15 -1.0 1.3243790925976016e-15
  outer loop
    vertex 3305.7862693590996 11450.484358079695 1548.6336742141186
    vertex 3305.1434844034875 11450.484358079695 1550.5037697277521
    vertex 3304.9486425360174 11450.484358079695 1548.906393380257
  endloop
endfacet
facet normal 1.4573061049722125e-15 -1.0 1.3243790925976016e-15
  outer loop
    vertex 3304.9486425360174 11450.484358079695 1548.906393380257
    vertex 3305.1434844034875 11450.484358079695 1550.5037697277521
    vertex 3303.137103617184 11450.484358079695 1550.5037697277521
  endloop
endfacet
facet normal 1.4573061049722125e-15 -1.0 1.3243790925976016e-15
  outer loop
    vertex 3304.9486425360174 11450.484358079695 1548.906393380257
    vertex 3303.137103617184 11450.484358079695 1550.5037697277521
    vertex 3303.370735513189 11450.484358079695 1548.906393380257
  endloop
endfacet
facet normal 1.4573061049722125e-15 -1.0 1.3243790925976016e-15
  outer loop
    vertex 3303.370735513189 11450.484358079695 1548.906393380257
    vertex 3303.137103617184 11450.484358079695 1550.5037697277521
    vertex 3302.4162927421057 11450.484358079695 1548.6726128634527
  endloop
endfacet
facet normal 1.4573061049722125e-15 -1.0 1.3243790925976016e-15
  outer loop
    vertex 3302.4162927421057 11450.484358079695 1548.6726128634527
    vertex 3303.137103617184 11450.484358079695 1550.5037697277521
    vertex 3301.73442051636 11450.484358079695 1550.1530246421464
  endloop
endfacet
facet normal 1.4573061049722125e-15 -1.0 1.3243790925976016e-15
  outer loop
    vertex 3302.4162927421057 11450.484358079695 1548.6726128634527
    vertex 3301.73442051636 11450.484358079695 1550.1530246421464
    vertex 3301.5981352436906 11450.484358079695 1548.1466438558434
  endloop
endfacet
facet normal 1.4573061049722125e-15 -1.0 1.3243790925976016e-15
  outer loop
    vertex 3301.5981352436906 11450.484358079695 1548.1466438558434
    vertex 3301.73442051636 11450.484358079695 1550.1530246421464
    vertex 3300.2929473870004 11450.484358079695 1549.1791125463951
  endloop
endfacet
facet normal 1.4573061049722125e-15 -1.0 1.3243790925976016e-15
  outer loop
    vertex 3301.5981352436906 11450.484358079695 1548.1466438558434
    vertex 3300.2929473870004 11450.484358079695 1549.1791125463951
    vertex 3301.3838240515533 11450.484358079695 1547.5622668742328
  endloop
endfacet
facet normal 1.4573061049722125e-15 -1.0 1.3243790925976016e-15
  outer loop
    vertex 3301.3838240515533 11450.484358079695 1547.5622668742328
    vertex 3300.2929473870004 11450.484358079695 1549.1791125463951
    vertex 3301.3838240515533 11450.484358079695 1546.08170647474
  endloop
endfacet
facet normal 1.4573061049722125e-15 -1.0 1.3243790925976016e-15
  outer loop
    vertex 3301.3838240515533 11450.484358079695 1546.08170647474
    vertex 3300.2929473870004 11450.484358079695 1549.1791125463951
    vertex 3301.3838240515533 11450.484358079695 1544.2310802857737
  endloop
endfacet
facet normal 1.4573061049722125e-15 -1.0 1.3243790925976016e-15
  outer loop
    vertex 3301.3838240515533 11450.484358079695 1544.2310802857737
    vertex 3300.2929473870004 11450.484358079695 1549.1791125463951
    vertex 3301.3838240515533 11450.484358079695 1543.5104180314934
  endloop
endfacet
facet normal 1.4573061049722125e-15 -1.0 1.3243790925976016e-15
  outer loop
    vertex 3301.3838240515533 11450.484358079695 1543.5104180314934
    vertex 3300.2929473870004 11450.484358079695 1549.1791125463951
    vertex 3301.247538778884 11450.484358079695 1541.3286647023874
  endloop
endfacet
facet normal 1.4573061049722125e-15 -1.0 1.3243790925976016e-15
  outer loop
    vertex 3301.247538778884 11450.484358079695 1541.3286647023874
    vertex 3300.2929473870004 11450.484358079695 1549.1791125463951
    vertex 3300.3124167116675 11450.484358079695 1539.925981601563
  endloop
endfacet
facet normal 1.4573061049722125e-15 -1.0 1.3243790925976016e-15
  outer loop
    vertex 3300.3124167116675 11450.484358079695 1539.925981601563
    vertex 3300.2929473870004 11450.484358079695 1549.1791125463951
    vertex 3299.766978379391 11450.484358079695 1541.9519803333321
  endloop
endfacet
facet normal 1.4573061049722125e-15 -1.0 1.3243790925976016e-15
  outer loop
    vertex 3300.3124167116675 11450.484358079695 1539.925981601563
    vertex 3299.766978379391 11450.484358079695 1541.9519803333321
    vertex 3299.007228854978 11450.484358079695 1540.8611036687792
  endloop
endfacet
facet normal 1.4573061049722125e-15 -1.0 1.3243790925976016e-15
  outer loop
    vertex 3299.766978379391 11450.484358079695 1541.9519803333321
    vertex 3300.2929473870004 11450.484358079695 1549.1791125463951
    vertex 3299.766978379391 11450.484358079695 1547.854455365038
  endloop
endfacet
facet normal 1.4573061049722125e-15 -1.0 1.3243790925976016e-15
  outer loop
    vertex 3307.1498651897905 11450.484358079695 1540.8805729934463
    vertex 3306.6238961821814 11450.484358079695 1542.9260410498825
    vertex 3306.2148917433733 11450.484358079695 1540.3351346611698
  endloop
endfacet
facet normal 1.4573061049722125e-15 -1.0 1.3243790925976016e-15
  outer loop
    vertex 3306.6238961821814 11450.484358079695 1542.9260410498825
    vertex 3307.1498651897905 11450.484358079695 1540.8805729934463
    vertex 3306.6238961821814 11450.484358079695 1543.4518614366932
  endloop
endfacet
facet normal 1.4573061049722125e-15 -1.0 1.3243790925976016e-15
  outer loop
    vertex 3306.2148917433733 11450.484358079695 1540.3351346611698
    vertex 3306.6238961821814 11450.484358079695 1542.9260410498825
    vertex 3306.020049875904 11450.484358079695 1542.0687962813347
  endloop
endfacet
facet normal 1.4573061049722125e-15 -1.0 1.3243790925976016e-15
  outer loop
    vertex 3306.2148917433733 11450.484358079695 1540.3351346611698
    vertex 3306.020049875904 11450.484358079695 1542.0687962813347
    vertex 3304.8902345620168 11450.484358079695 1539.925981601563
  endloop
endfacet
facet normal 1.4573061049722125e-15 -1.0 1.3243790925976016e-15
  outer loop
    vertex 3304.8902345620168 11450.484358079695 1539.925981601563
    vertex 3306.020049875904 11450.484358079695 1542.0687962813347
    vertex 3305.5721067877616 11450.484358079695 1541.7960771151966
  endloop
endfacet
facet normal 1.4573061049722125e-15 -1.0 1.3243790925976016e-15
  outer loop
    vertex 3304.8902345620168 11450.484358079695 1539.925981601563
    vertex 3305.5721067877616 11450.484358079695 1541.7960771151966
    vertex 3304.6564540452123 11450.484358079695 1541.5233579490582
  endloop
endfacet
facet normal 1.4573061049722125e-15 -1.0 1.3243790925976016e-15
  outer loop
    vertex 3304.8902345620168 11450.484358079695 1539.925981601563
    vertex 3304.6564540452123 11450.484358079695 1541.5233579490582
    vertex 3303.4877000819915 11450.484358079695 1539.925981601563
  endloop
endfacet
facet normal 1.4573061049722125e-15 -1.0 1.3243790925976016e-15
  outer loop
    vertex 3303.4877000819915 11450.484358079695 1539.925981601563
    vertex 3304.6564540452123 11450.484358079695 1541.5233579490582
    vertex 3303.838296546798 11450.484358079695 1541.5233579490582
  endloop
endfacet
facet normal 1.4573061049722125e-15 -1.0 1.3243790925976016e-15
  outer loop
    vertex 3303.4877000819915 11450.484358079695 1539.925981601563
    vertex 3303.838296546798 11450.484358079695 1541.5233579490582
    vertex 3302.3773540927714 11450.484358079695 1542.0687962813347
  endloop
endfacet
facet normal 1.4573061049722125e-15 -1.0 1.3243790925976016e-15
  outer loop
    vertex 3303.4877000819915 11450.484358079695 1539.925981601563
    vertex 3302.3773540927714 11450.484358079695 1542.0687962813347
    vertex 3301.695481867026 11450.484358079695 1540.8221650194453
  endloop
endfacet
facet normal 1.4573061049722125e-15 -1.0 1.3243790925976016e-15
  outer loop
    vertex 3301.695481867026 11450.484358079695 1540.8221650194453
    vertex 3302.3773540927714 11450.484358079695 1542.0687962813347
    vertex 3301.5786659190235 11450.484358079695 1542.9064231044167
  endloop
endfacet
facet normal 1.4573061049722125e-15 -1.0 1.3243790925976016e-15
  outer loop
    vertex 3301.695481867026 11450.484358079695 1540.8221650194453
    vertex 3301.5786659190235 11450.484358079695 1542.9064231044167
    vertex 3301.247538778884 11450.484358079695 1541.3286647023874
  endloop
endfacet
facet normal 1.4573061049722125e-15 -1.0 1.3243790925976016e-15
  outer loop
    vertex 3301.247538778884 11450.484358079695 1541.3286647023874
    vertex 3301.5786659190235 11450.484358079695 1542.9064231044167
    vertex 3301.3838240515533 11450.484358079695 1543.5104180314934
  endloop
endfacet
facet normal 1.4573061049722125e-15 -1.0 1.3243790925976016e-15
  outer loop
    vertex 3307.9680226882056 11450.484358079695 1544.9129525115186
    vertex 3308.2407418543435 11450.484358079695 1542.4584800162747
    vertex 3308.2407418543435 11450.484358079695 1543.5882953301618
  endloop
endfacet
facet normal 1.4573061049722125e-15 -1.0 1.3243790925976016e-15
  outer loop
    vertex 3308.2407418543435 11450.484358079695 1542.4584800162747
    vertex 3307.9680226882056 11450.484358079695 1544.9129525115186
    vertex 3307.1498651897905 11450.484358079695 1540.8805729934463
  endloop
endfacet
facet normal 1.4573061049722125e-15 -1.0 1.3243790925976016e-15
  outer loop
    vertex 3307.1498651897905 11450.484358079695 1540.8805729934463
    vertex 3307.9680226882056 11450.484358079695 1544.9129525115186
    vertex 3306.526549558846 11450.484358079695 1546.3544256408782
  endloop
endfacet
facet normal 1.4573061049722125e-15 -1.0 1.3243790925976016e-15
  outer loop
    vertex 3307.1498651897905 11450.484358079695 1540.8805729934463
    vertex 3306.526549558846 11450.484358079695 1546.3544256408782
    vertex 3306.6238961821814 11450.484358079695 1543.4518614366932
  endloop
endfacet
facet normal 1.4573061049722125e-15 -1.0 1.3243790925976016e-15
  outer loop
    vertex 3306.6238961821814 11450.484358079695 1543.4518614366932
    vertex 3306.526549558846 11450.484358079695 1546.3544256408782
    vertex 3306.4681415848445 11450.484358079695 1544.1337336624383
  endloop
endfacet
facet normal 1.4573061049722125e-15 -1.0 1.3243790925976016e-15
  outer loop
    vertex 3306.4681415848445 11450.484358079695 1544.1337336624383
    vertex 3306.526549558846 11450.484358079695 1546.3544256408782
    vertex 3304.598046071211 11450.484358079695 1546.8414559991536
  endloop
endfacet
facet normal 1.4573061049722125e-15 -1.0 1.3243790925976016e-15
  outer loop
    vertex 3306.4681415848445 11450.484358079695 1544.1337336624383
    vertex 3304.598046071211 11450.484358079695 1546.8414559991536
    vertex 3305.708392060431 11450.484358079695 1544.8934831868514
  endloop
endfacet
facet normal 1.4573061049722125e-15 -1.0 1.3243790925976016e-15
  outer loop
    vertex 3305.708392060431 11450.484358079695 1544.8934831868514
    vertex 3304.598046071211 11450.484358079695 1546.8414559991536
    vertex 3304.4226735284083 11450.484358079695 1545.2440796516582
  endloop
endfacet
facet normal 1.4573061049722125e-15 -1.0 1.3243790925976016e-15
  outer loop
    vertex 3304.4226735284083 11450.484358079695 1545.2440796516582
    vertex 3304.598046071211 11450.484358079695 1546.8414559991536
    vertex 3303.1955115911856 11450.484358079695 1546.8414559991536
  endloop
endfacet
facet normal 1.4573061049722125e-15 -1.0 1.3243790925976016e-15
  outer loop
    vertex 3304.4226735284083 11450.484358079695 1545.2440796516582
    vertex 3303.1955115911856 11450.484358079695 1546.8414559991536
    vertex 3303.370735513189 11450.484358079695 1545.2440796516582
  endloop
endfacet
facet normal 1.4573061049722125e-15 -1.0 1.3243790925976016e-15
  outer loop
    vertex 3303.370735513189 11450.484358079695 1545.2440796516582
    vertex 3303.1955115911856 11450.484358079695 1546.8414559991536
    vertex 3302.3968234174386 11450.484358079695 1544.97136048552
  endloop
endfacet
facet normal 1.4573061049722125e-15 -1.0 1.3243790925976016e-15
  outer loop
    vertex 3302.3968234174386 11450.484358079695 1544.97136048552
    vertex 3303.1955115911856 11450.484358079695 1546.8414559991536
    vertex 3301.8903237344957 11450.484358079695 1546.4128336148797
  endloop
endfacet
facet normal 1.4573061049722125e-15 -1.0 1.3243790925976016e-15
  outer loop
    vertex 3302.3968234174386 11450.484358079695 1544.97136048552
    vertex 3301.8903237344957 11450.484358079695 1546.4128336148797
    vertex 3301.7929771111603 11450.484358079695 1544.6597026700476
  endloop
endfacet
facet normal 1.4573061049722125e-15 -1.0 1.3243790925976016e-15
  outer loop
    vertex 3301.7929771111603 11450.484358079695 1544.6597026700476
    vertex 3301.8903237344957 11450.484358079695 1546.4128336148797
    vertex 3301.3838240515533 11450.484358079695 1546.08170647474
  endloop
endfacet
facet normal 1.4573061049722125e-15 -1.0 1.3243790925976016e-15
  outer loop
    vertex 3301.7929771111603 11450.484358079695 1544.6597026700476
    vertex 3301.3838240515533 11450.484358079695 1546.08170647474
    vertex 3301.3838240515533 11450.484358079695 1544.2310802857737
  endloop
endfacet
endsolid thesis3
