solid thesis3
facet normal -2.4310953111676944e-16 1.0 -4.769541189121801e-16
  outer loop
    vertex 2870.4193534322067 11430.309358079696 346.98852071003705
    vertex 2870.1661035907355 11430.309358079696 343.7353600410453
    vertex 2869.8933844245976 11430.309358079696 345.3327363885406
  endloop
endfacet
facet normal -2.4310953111676944e-16 1.0 -4.769541189121801e-16
  outer loop
    vertex 2870.1661035907355 11430.309358079696 343.7353600410453
    vertex 2870.4193534322067 11430.309358079696 346.98852071003705
    vertex 2870.809037167146 11430.309358079696 342.7028913504936
  endloop
endfacet
facet normal -2.4310953111676944e-16 1.0 -4.769541189121801e-16
  outer loop
    vertex 2870.809037167146 11430.309358079696 342.7028913504936
    vertex 2870.4193534322067 11430.309358079696 346.98852071003705
    vertex 2871.6661333148954 11430.309358079696 348.293708566727
  endloop
endfacet
facet normal -2.4310953111676944e-16 1.0 -4.769541189121801e-16
  outer loop
    vertex 2870.809037167146 11430.309358079696 342.7028913504936
    vertex 2871.6661333148954 11430.309358079696 348.293708566727
    vertex 2871.5686380707607 11430.309358079696 345.1768331704048
  endloop
endfacet
facet normal -2.4310953111676944e-16 1.0 -4.769541189121801e-16
  outer loop
    vertex 2871.5686380707607 11430.309358079696 345.1768331704048
    vertex 2871.6661333148954 11430.309358079696 348.293708566727
    vertex 2871.8609751823656 11430.309358079696 346.18983253628943
  endloop
endfacet
facet normal -2.4310953111676944e-16 1.0 -4.769541189121801e-16
  outer loop
    vertex 2871.8609751823656 11430.309358079696 346.18983253628943
    vertex 2871.6661333148954 11430.309358079696 348.293708566727
    vertex 2873.4582029090616 11430.309358079696 348.87808554833765
  endloop
endfacet
facet normal -2.4310953111676944e-16 1.0 -4.769541189121801e-16
  outer loop
    vertex 2871.8609751823656 11430.309358079696 346.18983253628943
    vertex 2873.4582029090616 11430.309358079696 348.87808554833765
    vertex 2872.5816374366455 11430.309358079696 346.9104947905697
  endloop
endfacet
facet normal -2.4310953111676944e-16 1.0 -4.769541189121801e-16
  outer loop
    vertex 2872.5816374366455 11430.309358079696 346.9104947905697
    vertex 2873.4582029090616 11430.309358079696 348.87808554833765
    vertex 2873.7505400206655 11430.309358079696 347.28070920084235
  endloop
endfacet
facet normal -2.4310953111676944e-16 1.0 -4.769541189121801e-16
  outer loop
    vertex 2873.7505400206655 11430.309358079696 347.28070920084235
    vertex 2873.4582029090616 11430.309358079696 348.87808554833765
    vertex 2875.5036709654973 11430.309358079696 348.87808554833765
  endloop
endfacet
facet normal -2.4310953111676944e-16 1.0 -4.769541189121801e-16
  outer loop
    vertex 2873.7505400206655 11430.309358079696 347.28070920084235
    vertex 2875.5036709654973 11430.309358079696 348.87808554833765
    vertex 2875.289359773361 11430.309358079696 347.28070920084235
  endloop
endfacet
facet normal -2.4310953111676944e-16 1.0 -4.769541189121801e-16
  outer loop
    vertex 2875.289359773361 11430.309358079696 347.28070920084235
    vertex 2875.5036709654973 11430.309358079696 348.87808554833765
    vertex 2877.0426393389916 11430.309358079696 346.8131481672342
  endloop
endfacet
facet normal -2.4310953111676944e-16 1.0 -4.769541189121801e-16
  outer loop
    vertex 2877.0426393389916 11430.309358079696 346.8131481672342
    vertex 2875.5036709654973 11430.309358079696 348.87808554833765
    vertex 2877.763301593272 11430.309358079696 348.293708566727
  endloop
endfacet
facet normal -2.4310953111676944e-16 1.0 -4.769541189121801e-16
  outer loop
    vertex 2877.0426393389916 11430.309358079696 346.8131481672342
    vertex 2877.763301593272 11430.309358079696 348.293708566727
    vertex 2878.152985328212 11430.309358079696 346.1508938869552
  endloop
endfacet
facet normal -2.4310953111676944e-16 1.0 -4.769541189121801e-16
  outer loop
    vertex 2878.152985328212 11430.309358079696 346.1508938869552
    vertex 2877.763301593272 11430.309358079696 348.293708566727
    vertex 2879.029550800628 11430.309358079696 347.5144897176465
  endloop
endfacet
facet normal -2.4310953111676944e-16 1.0 -4.769541189121801e-16
  outer loop
    vertex 2871.5686380707607 11430.309358079696 345.1768331704048
    vertex 2872.2699796211728 11430.309358079696 341.67042265994195
    vertex 2870.809037167146 11430.309358079696 342.7028913504936
  endloop
endfacet
facet normal -2.4310953111676944e-16 1.0 -4.769541189121801e-16
  outer loop
    vertex 2872.2699796211728 11430.309358079696 341.67042265994195
    vertex 2871.5686380707607 11430.309358079696 345.1768331704048
    vertex 2871.7440106135637 11430.309358079696 344.31973702265594
  endloop
endfacet
facet normal -2.4310953111676944e-16 1.0 -4.769541189121801e-16
  outer loop
    vertex 2872.2699796211728 11430.309358079696 341.67042265994195
    vertex 2871.7440106135637 11430.309358079696 344.31973702265594
    vertex 2871.997260455035 11430.309358079696 343.891114638382
  endloop
endfacet
facet normal -2.4310953111676944e-16 1.0 -4.769541189121801e-16
  outer loop
    vertex 2872.2699796211728 11430.309358079696 341.67042265994195
    vertex 2871.997260455035 11430.309358079696 343.891114638382
    vertex 2872.990790496252 11430.309358079696 343.17045238410174
  endloop
endfacet
facet normal -2.4310953111676944e-16 1.0 -4.769541189121801e-16
  outer loop
    vertex 2872.2699796211728 11430.309358079696 341.67042265994195
    vertex 2872.990790496252 11430.309358079696 343.17045238410174
    vertex 2876.2439511652437 11430.309358079696 340.57954599538897
  endloop
endfacet
facet normal -2.4310953111676944e-16 1.0 -4.769541189121801e-16
  outer loop
    vertex 2876.2439511652437 11430.309358079696 340.57954599538897
    vertex 2872.990790496252 11430.309358079696 343.17045238410174
    vertex 2877.1010473129927 11430.309358079696 342.04048844941565
  endloop
endfacet
facet normal -2.4310953111676944e-16 1.0 -4.769541189121801e-16
  outer loop
    vertex 2876.2439511652437 11430.309358079696 340.57954599538897
    vertex 2877.1010473129927 11430.309358079696 342.04048844941565
    vertex 2877.159455286994 11430.309358079696 340.0535769877796
  endloop
endfacet
facet normal -2.4310953111676944e-16 1.0 -4.769541189121801e-16
  outer loop
    vertex 2877.159455286994 11430.309358079696 340.0535769877796
    vertex 2877.1010473129927 11430.309358079696 342.04048844941565
    vertex 2878.600928416354 11430.309358079696 341.0081683796629
  endloop
endfacet
facet normal -2.4310953111676944e-16 1.0 -4.769541189121801e-16
  outer loop
    vertex 2877.159455286994 11430.309358079696 340.0535769877796
    vertex 2878.600928416354 11430.309358079696 341.0081683796629
    vertex 2877.6075469959355 11430.309358079696 339.1575421906965
  endloop
endfacet
facet normal -2.4310953111676944e-16 1.0 -4.769541189121801e-16
  outer loop
    vertex 2877.6075469959355 11430.309358079696 339.1575421906965
    vertex 2878.600928416354 11430.309358079696 341.0081683796629
    vertex 2877.6075469959355 11430.309358079696 337.98878822747525
  endloop
endfacet
facet normal -2.4310953111676944e-16 1.0 -4.769541189121801e-16
  outer loop
    vertex 2877.6075469959355 11430.309358079696 337.98878822747525
    vertex 2878.600928416354 11430.309358079696 341.0081683796629
    vertex 2877.8022402426063 11430.309358079696 335.4952284620979
  endloop
endfacet
facet normal -2.4310953111676944e-16 1.0 -4.769541189121801e-16
  outer loop
    vertex 2877.8022402426063 11430.309358079696 335.4952284620979
    vertex 2878.600928416354 11430.309358079696 341.0081683796629
    vertex 2878.737362309822 11430.309358079696 336.56663580198375
  endloop
endfacet
facet normal -2.4310953111676944e-16 1.0 -4.769541189121801e-16
  outer loop
    vertex 2878.737362309822 11430.309358079696 336.56663580198375
    vertex 2878.600928416354 11430.309358079696 341.0081683796629
    vertex 2879.2243926680976 11430.309358079696 339.5081386555031
  endloop
endfacet
facet normal -2.4310953111676944e-16 1.0 -4.769541189121801e-16
  outer loop
    vertex 2878.737362309822 11430.309358079696 336.56663580198375
    vertex 2879.2243926680976 11430.309358079696 339.5081386555031
    vertex 2879.2243926680976 11430.309358079696 337.6185738172025
  endloop
endfacet
facet normal -2.4310953111676944e-16 1.0 -4.769541189121801e-16
  outer loop
    vertex 2870.809037167146 11430.309358079696 337.85235433400663
    vertex 2870.088226292067 11430.309358079696 336.177100687843
    vertex 2869.640134583126 11430.309358079696 336.7225390201195
  endloop
endfacet
facet normal -2.4310953111676944e-16 1.0 -4.769541189121801e-16
  outer loop
    vertex 2870.088226292067 11430.309358079696 336.177100687843
    vertex 2870.809037167146 11430.309358079696 337.85235433400663
    vertex 2871.2569802552885 11430.309358079696 335.35894318942826
  endloop
endfacet
facet normal -2.4310953111676944e-16 1.0 -4.769541189121801e-16
  outer loop
    vertex 2871.2569802552885 11430.309358079696 335.35894318942826
    vertex 2870.809037167146 11430.309358079696 337.85235433400663
    vertex 2871.1791029566198 11430.309358079696 337.3847933003985
  endloop
endfacet
facet normal -2.4310953111676944e-16 1.0 -4.769541189121801e-16
  outer loop
    vertex 2871.2569802552885 11430.309358079696 335.35894318942826
    vertex 2871.1791029566198 11430.309358079696 337.3847933003985
    vertex 2871.9777911303677 11430.309358079696 336.839354968122
  endloop
endfacet
facet normal -2.4310953111676944e-16 1.0 -4.769541189121801e-16
  outer loop
    vertex 2871.2569802552885 11430.309358079696 335.35894318942826
    vertex 2871.9777911303677 11430.309358079696 336.839354968122
    vertex 2873.380325610393 11430.309358079696 334.7160096130174
  endloop
endfacet
facet normal -2.4310953111676944e-16 1.0 -4.769541189121801e-16
  outer loop
    vertex 2873.380325610393 11430.309358079696 334.7160096130174
    vertex 2871.9777911303677 11430.309358079696 336.839354968122
    vertex 2873.7309220751995 11430.309358079696 336.3133859605127
  endloop
endfacet
facet normal -2.4310953111676944e-16 1.0 -4.769541189121801e-16
  outer loop
    vertex 2873.380325610393 11430.309358079696 334.7160096130174
    vertex 2873.7309220751995 11430.309358079696 336.3133859605127
    vertex 2875.6790435083003 11430.309358079696 334.7160096130174
  endloop
endfacet
facet normal -2.4310953111676944e-16 1.0 -4.769541189121801e-16
  outer loop
    vertex 2875.6790435083003 11430.309358079696 334.7160096130174
    vertex 2873.7309220751995 11430.309358079696 336.3133859605127
    vertex 2875.4063243421624 11430.309358079696 336.3133859605127
  endloop
endfacet
facet normal -2.4310953111676944e-16 1.0 -4.769541189121801e-16
  outer loop
    vertex 2875.6790435083003 11430.309358079696 334.7160096130174
    vertex 2875.4063243421624 11430.309358079696 336.3133859605127
    vertex 2876.867266796189 11430.309358079696 336.8782936174562
  endloop
endfacet
facet normal -2.4310953111676944e-16 1.0 -4.769541189121801e-16
  outer loop
    vertex 2875.6790435083003 11430.309358079696 334.7160096130174
    vertex 2876.867266796189 11430.309358079696 336.8782936174562
    vertex 2877.8022402426063 11430.309358079696 335.4952284620979
  endloop
endfacet
facet normal -2.4310953111676944e-16 1.0 -4.769541189121801e-16
  outer loop
    vertex 2877.8022402426063 11430.309358079696 335.4952284620979
    vertex 2876.867266796189 11430.309358079696 336.8782936174562
    vertex 2877.3348278297967 11430.309358079696 337.42373194973266
  endloop
endfacet
facet normal -2.4310953111676944e-16 1.0 -4.769541189121801e-16
  outer loop
    vertex 2877.8022402426063 11430.309358079696 335.4952284620979
    vertex 2877.3348278297967 11430.309358079696 337.42373194973266
    vertex 2877.6075469959355 11430.309358079696 337.98878822747525
  endloop
endfacet
facet normal -2.4310953111676944e-16 1.0 -4.769541189121801e-16
  outer loop
    vertex 2890.661803495618 11430.309358079696 344.8846446795995
    vertex 2886.804796520348 11430.309358079696 343.2872683321043
    vertex 2886.804796520348 11430.309358079696 344.8846446795995
  endloop
endfacet
facet normal -2.4310953111676944e-16 1.0 -4.769541189121801e-16
  outer loop
    vertex 2886.804796520348 11430.309358079696 343.2872683321043
    vertex 2890.661803495618 11430.309358079696 344.8846446795995
    vertex 2890.661803495618 11430.309358079696 343.2872683321043
  endloop
endfacet
facet normal -2.4310953111676944e-16 1.0 -4.769541189121801e-16
  outer loop
    vertex 2886.804796520348 11430.309358079696 348.4689324887308
    vertex 2885.187950848186 11430.309358079696 344.8846446795995
    vertex 2885.187950848186 11430.309358079696 348.4689324887308
  endloop
endfacet
facet normal -2.4310953111676944e-16 1.0 -4.769541189121801e-16
  outer loop
    vertex 2885.187950848186 11430.309358079696 344.8846446795995
    vertex 2886.804796520348 11430.309358079696 348.4689324887308
    vertex 2885.187950848186 11430.309358079696 343.2872683321043
  endloop
endfacet
facet normal -2.4310953111676944e-16 1.0 -4.769541189121801e-16
  outer loop
    vertex 2885.187950848186 11430.309358079696 343.2872683321043
    vertex 2886.804796520348 11430.309358079696 348.4689324887308
    vertex 2885.187950848186 11430.309358079696 336.76147766945365
  endloop
endfacet
facet normal -2.4310953111676944e-16 1.0 -4.769541189121801e-16
  outer loop
    vertex 2885.187950848186 11430.309358079696 336.76147766945365
    vertex 2886.804796520348 11430.309358079696 348.4689324887308
    vertex 2886.2593581880724 11430.309358079696 335.22250929595964
  endloop
endfacet
facet normal -2.4310953111676944e-16 1.0 -4.769541189121801e-16
  outer loop
    vertex 2886.2593581880724 11430.309358079696 335.22250929595964
    vertex 2886.804796520348 11430.309358079696 348.4689324887308
    vertex 2886.804796520348 11430.309358079696 337.2874466770631
  endloop
endfacet
facet normal -2.4310953111676944e-16 1.0 -4.769541189121801e-16
  outer loop
    vertex 2886.2593581880724 11430.309358079696 335.22250929595964
    vertex 2886.804796520348 11430.309358079696 337.2874466770631
    vertex 2887.6229540187633 11430.309358079696 334.7160096130174
  endloop
endfacet
facet normal -2.4310953111676944e-16 1.0 -4.769541189121801e-16
  outer loop
    vertex 2886.804796520348 11430.309358079696 337.2874466770631
    vertex 2886.804796520348 11430.309358079696 348.4689324887308
    vertex 2886.804796520348 11430.309358079696 344.8846446795995
  endloop
endfacet
facet normal -2.4310953111676944e-16 1.0 -4.769541189121801e-16
  outer loop
    vertex 2886.804796520348 11430.309358079696 337.2874466770631
    vertex 2886.804796520348 11430.309358079696 344.8846446795995
    vertex 2886.804796520348 11430.309358079696 343.2872683321043
  endloop
endfacet
facet normal -2.4310953111676944e-16 1.0 -4.769541189121801e-16
  outer loop
    vertex 2887.6229540187633 11430.309358079696 334.7160096130174
    vertex 2886.804796520348 11430.309358079696 337.2874466770631
    vertex 2887.291678257825 11430.309358079696 336.5861051266509
  endloop
endfacet
facet normal -2.4310953111676944e-16 1.0 -4.769541189121801e-16
  outer loop
    vertex 2887.6229540187633 11430.309358079696 334.7160096130174
    vertex 2887.291678257825 11430.309358079696 336.5861051266509
    vertex 2887.97355048357 11430.309358079696 336.3133859605127
  endloop
endfacet
facet normal -2.4310953111676944e-16 1.0 -4.769541189121801e-16
  outer loop
    vertex 2887.6229540187633 11430.309358079696 334.7160096130174
    vertex 2887.97355048357 11430.309358079696 336.3133859605127
    vertex 2889.687742779068 11430.309358079696 334.7160096130174
  endloop
endfacet
facet normal -2.4310953111676944e-16 1.0 -4.769541189121801e-16
  outer loop
    vertex 2889.687742779068 11430.309358079696 334.7160096130174
    vertex 2887.97355048357 11430.309358079696 336.3133859605127
    vertex 2889.687742779068 11430.309358079696 336.3133859605127
  endloop
endfacet
facet normal -2.4310953111676944e-16 1.0 -4.769541189121801e-16
  outer loop
    vertex 2889.687742779068 11430.309358079696 334.7160096130174
    vertex 2889.687742779068 11430.309358079696 336.3133859605127
    vertex 2891.0904258798923 11430.309358079696 336.6641310461182
  endloop
endfacet
facet normal -2.4310953111676944e-16 1.0 -4.769541189121801e-16
  outer loop
    vertex 2889.687742779068 11430.309358079696 334.7160096130174
    vertex 2891.0904258798923 11430.309358079696 336.6641310461182
    vertex 2891.4994303186995 11430.309358079696 335.12516267262424
  endloop
endfacet
facet normal -2.4310953111676944e-16 1.0 -4.769541189121801e-16
  outer loop
    vertex 2885.187950848186 11430.309358079696 344.8846446795995
    vertex 2882.5581058101393 11430.309358079696 343.2872683321043
    vertex 2882.5581058101393 11430.309358079696 344.8846446795995
  endloop
endfacet
facet normal -2.4310953111676944e-16 1.0 -4.769541189121801e-16
  outer loop
    vertex 2882.5581058101393 11430.309358079696 343.2872683321043
    vertex 2885.187950848186 11430.309358079696 344.8846446795995
    vertex 2885.187950848186 11430.309358079696 343.2872683321043
  endloop
endfacet
facet normal -2.4310953111676944e-16 1.0 -4.769541189121801e-16
  outer loop
    vertex 2899.138242144952 11430.309358079696 344.6703334874625
    vertex 2898.3979619452057 11430.309358079696 341.3587648444695
    vertex 2898.3979619452057 11430.309358079696 343.94967123318224
  endloop
endfacet
facet normal -2.4310953111676944e-16 1.0 -4.769541189121801e-16
  outer loop
    vertex 2898.3979619452057 11430.309358079696 341.3587648444695
    vertex 2899.138242144952 11430.309358079696 344.6703334874625
    vertex 2898.82658432948 11430.309358079696 342.2937382908867
  endloop
endfacet
facet normal -2.4310953111676944e-16 1.0 -4.769541189121801e-16
  outer loop
    vertex 2898.82658432948 11430.309358079696 342.2937382908867
    vertex 2899.138242144952 11430.309358079696 344.6703334874625
    vertex 2899.6252725032273 11430.309358079696 343.1899217087688
  endloop
endfacet
facet normal -2.4310953111676944e-16 1.0 -4.769541189121801e-16
  outer loop
    vertex 2899.6252725032273 11430.309358079696 343.1899217087688
    vertex 2899.138242144952 11430.309358079696 344.6703334874625
    vertex 2900.4628993263095 11430.309358079696 345.29379773920635
  endloop
endfacet
facet normal -2.4310953111676944e-16 1.0 -4.769541189121801e-16
  outer loop
    vertex 2899.6252725032273 11430.309358079696 343.1899217087688
    vertex 2900.4628993263095 11430.309358079696 345.29379773920635
    vertex 2900.7745571417818 11430.309358079696 343.69642139171106
  endloop
endfacet
facet normal -2.4310953111676944e-16 1.0 -4.769541189121801e-16
  outer loop
    vertex 2900.7745571417818 11430.309358079696 343.69642139171106
    vertex 2900.4628993263095 11430.309358079696 345.29379773920635
    vertex 2902.5083673827453 11430.309358079696 345.29379773920635
  endloop
endfacet
facet normal -2.4310953111676944e-16 1.0 -4.769541189121801e-16
  outer loop
    vertex 2900.7745571417818 11430.309358079696 343.69642139171106
    vertex 2902.5083673827453 11430.309358079696 345.29379773920635
    vertex 2902.2745868659413 11430.309358079696 343.69642139171106
  endloop
endfacet
facet normal -2.4310953111676944e-16 1.0 -4.769541189121801e-16
  outer loop
    vertex 2902.2745868659413 11430.309358079696 343.69642139171106
    vertex 2902.5083673827453 11430.309358079696 345.29379773920635
    vertex 2903.8330245641027 11430.309358079696 343.1509830594346
  endloop
endfacet
facet normal -2.4310953111676944e-16 1.0 -4.769541189121801e-16
  outer loop
    vertex 2903.8330245641027 11430.309358079696 343.1509830594346
    vertex 2902.5083673827453 11430.309358079696 345.29379773920635
    vertex 2904.3199063015786 11430.309358079696 344.6703334874625
  endloop
endfacet
facet normal -2.4310953111676944e-16 1.0 -4.769541189121801e-16
  outer loop
    vertex 2898.3979619452057 11430.309358079696 345.1378945210707
    vertex 2896.7811162730436 11430.309358079696 334.87191283115305
    vertex 2896.7811162730436 11430.309358079696 345.1378945210707
  endloop
endfacet
facet normal -2.4310953111676944e-16 1.0 -4.769541189121801e-16
  outer loop
    vertex 2896.7811162730436 11430.309358079696 334.87191283115305
    vertex 2898.3979619452057 11430.309358079696 345.1378945210707
    vertex 2898.3979619452057 11430.309358079696 334.87191283115305
  endloop
endfacet
facet normal -2.4310953111676944e-16 1.0 -4.769541189121801e-16
  outer loop
    vertex 2898.3979619452057 11430.309358079696 334.87191283115305
    vertex 2898.3979619452057 11430.309358079696 345.1378945210707
    vertex 2898.3979619452057 11430.309358079696 343.94967123318224
  endloop
endfacet
facet normal -2.4310953111676944e-16 1.0 -4.769541189121801e-16
  outer loop
    vertex 2898.3979619452057 11430.309358079696 334.87191283115305
    vertex 2898.3979619452057 11430.309358079696 343.94967123318224
    vertex 2898.3979619452057 11430.309358079696 341.3587648444695
  endloop
endfacet
facet normal -2.4310953111676944e-16 1.0 -4.769541189121801e-16
  outer loop
    vertex 2915.7964043992324 11430.309358079696 345.1378945210707
    vertex 2914.17955872707 11430.309358079696 338.0471962014765
    vertex 2914.17955872707 11430.309358079696 345.1378945210707
  endloop
endfacet
facet normal -2.4310953111676944e-16 1.0 -4.769541189121801e-16
  outer loop
    vertex 2914.17955872707 11430.309358079696 338.0471962014765
    vertex 2915.7964043992324 11430.309358079696 345.1378945210707
    vertex 2914.199028051737 11430.309358079696 335.90438152170475
  endloop
endfacet
facet normal -2.4310953111676944e-16 1.0 -4.769541189121801e-16
  outer loop
    vertex 2914.199028051737 11430.309358079696 335.90438152170475
    vertex 2915.7964043992324 11430.309358079696 345.1378945210707
    vertex 2914.199028051737 11430.309358079696 334.87191283115305
  endloop
endfacet
facet normal -2.4310953111676944e-16 1.0 -4.769541189121801e-16
  outer loop
    vertex 2914.199028051737 11430.309358079696 334.87191283115305
    vertex 2915.7964043992324 11430.309358079696 345.1378945210707
    vertex 2915.7964043992324 11430.309358079696 334.87191283115305
  endloop
endfacet
facet normal -2.4310953111676944e-16 1.0 -4.769541189121801e-16
  outer loop
    vertex 2909.2120571417818 11430.309358079696 345.1378945210707
    vertex 2907.5952114696192 11430.309358079696 336.81988564345494
    vertex 2907.5952114696192 11430.309358079696 345.1378945210707
  endloop
endfacet
facet normal -2.4310953111676944e-16 1.0 -4.769541189121801e-16
  outer loop
    vertex 2907.5952114696192 11430.309358079696 336.81988564345494
    vertex 2909.2120571417818 11430.309358079696 345.1378945210707
    vertex 2908.861460676975 11430.309358079696 335.1835706466255
  endloop
endfacet
facet normal -2.4310953111676944e-16 1.0 -4.769541189121801e-16
  outer loop
    vertex 2908.861460676975 11430.309358079696 335.1835706466255
    vertex 2909.2120571417818 11430.309358079696 345.1378945210707
    vertex 2909.2120571417818 11430.309358079696 337.40426262506554
  endloop
endfacet
facet normal -2.4310953111676944e-16 1.0 -4.769541189121801e-16
  outer loop
    vertex 2908.861460676975 11430.309358079696 335.1835706466255
    vertex 2909.2120571417818 11430.309358079696 337.40426262506554
    vertex 2910.634209567273 11430.309358079696 334.7160096130174
  endloop
endfacet
facet normal -2.4310953111676944e-16 1.0 -4.769541189121801e-16
  outer loop
    vertex 2910.634209567273 11430.309358079696 334.7160096130174
    vertex 2909.2120571417818 11430.309358079696 337.40426262506554
    vertex 2909.776964798725 11430.309358079696 336.5861051266509
  endloop
endfacet
facet normal -2.4310953111676944e-16 1.0 -4.769541189121801e-16
  outer loop
    vertex 2910.634209567273 11430.309358079696 334.7160096130174
    vertex 2909.776964798725 11430.309358079696 336.5861051266509
    vertex 2910.8874594087447 11430.309358079696 336.2939166358455
  endloop
endfacet
facet normal -2.4310953111676944e-16 1.0 -4.769541189121801e-16
  outer loop
    vertex 2910.634209567273 11430.309358079696 334.7160096130174
    vertex 2910.8874594087447 11430.309358079696 336.2939166358455
    vertex 2912.406809836772 11430.309358079696 334.7160096130174
  endloop
endfacet
facet normal -2.4310953111676944e-16 1.0 -4.769541189121801e-16
  outer loop
    vertex 2912.406809836772 11430.309358079696 334.7160096130174
    vertex 2910.8874594087447 11430.309358079696 336.2939166358455
    vertex 2912.1924986446356 11430.309358079696 336.2939166358455
  endloop
endfacet
facet normal -2.4310953111676944e-16 1.0 -4.769541189121801e-16
  outer loop
    vertex 2912.406809836772 11430.309358079696 334.7160096130174
    vertex 2912.1924986446356 11430.309358079696 336.2939166358455
    vertex 2913.5755637999937 11430.309358079696 337.2095693783947
  endloop
endfacet
facet normal -2.4310953111676944e-16 1.0 -4.769541189121801e-16
  outer loop
    vertex 2912.406809836772 11430.309358079696 334.7160096130174
    vertex 2913.5755637999937 11430.309358079696 337.2095693783947
    vertex 2913.692528368795 11430.309358079696 335.45628981276377
  endloop
endfacet
facet normal -2.4310953111676944e-16 1.0 -4.769541189121801e-16
  outer loop
    vertex 2913.692528368795 11430.309358079696 335.45628981276377
    vertex 2913.5755637999937 11430.309358079696 337.2095693783947
    vertex 2914.17955872707 11430.309358079696 338.0471962014765
  endloop
endfacet
facet normal -2.4310953111676944e-16 1.0 -4.769541189121801e-16
  outer loop
    vertex 2913.692528368795 11430.309358079696 335.45628981276377
    vertex 2914.17955872707 11430.309358079696 338.0471962014765
    vertex 2914.199028051737 11430.309358079696 335.90438152170475
  endloop
endfacet
facet normal -2.4310953111676944e-16 1.0 -4.769541189121801e-16
  outer loop
    vertex 2920.4937133719654 11430.309358079696 342.56645745702497
    vertex 2920.084560312359 11430.309358079696 338.826415050557
    vertex 2920.084560312359 11430.309358079696 341.1444536523325
  endloop
endfacet
facet normal -2.4310953111676944e-16 1.0 -4.769541189121801e-16
  outer loop
    vertex 2920.084560312359 11430.309358079696 338.826415050557
    vertex 2920.4937133719654 11430.309358079696 342.56645745702497
    vertex 2920.4937133719654 11430.309358079696 337.44334989519876
  endloop
endfacet
facet normal -2.4310953111676944e-16 1.0 -4.769541189121801e-16
  outer loop
    vertex 2920.4937133719654 11430.309358079696 337.44334989519876
    vertex 2920.4937133719654 11430.309358079696 342.56645745702497
    vertex 2921.8183705533224 11430.309358079696 344.3586756719901
  endloop
endfacet
facet normal -2.4310953111676944e-16 1.0 -4.769541189121801e-16
  outer loop
    vertex 2920.4937133719654 11430.309358079696 337.44334989519876
    vertex 2921.8183705533224 11430.309358079696 344.3586756719901
    vertex 2921.7014059845214 11430.309358079696 340.93014246019555
  endloop
endfacet
facet normal -2.4310953111676944e-16 1.0 -4.769541189121801e-16
  outer loop
    vertex 2921.7014059845214 11430.309358079696 340.93014246019555
    vertex 2921.8183705533224 11430.309358079696 344.3586756719901
    vertex 2921.954655825992 11430.309358079696 341.8652645274118
  endloop
endfacet
facet normal -2.4310953111676944e-16 1.0 -4.769541189121801e-16
  outer loop
    vertex 2921.954655825992 11430.309358079696 341.8652645274118
    vertex 2921.8183705533224 11430.309358079696 344.3586756719901
    vertex 2923.7858126902916 11430.309358079696 345.29379773920635
  endloop
endfacet
facet normal -2.4310953111676944e-16 1.0 -4.769541189121801e-16
  outer loop
    vertex 2921.954655825992 11430.309358079696 341.8652645274118
    vertex 2923.7858126902916 11430.309358079696 345.29379773920635
    vertex 2922.8508392438744 11430.309358079696 343.0924264646344
  endloop
endfacet
facet normal -2.4310953111676944e-16 1.0 -4.769541189121801e-16
  outer loop
    vertex 2922.8508392438744 11430.309358079696 343.0924264646344
    vertex 2923.7858126902916 11430.309358079696 345.29379773920635
    vertex 2924.097470505764 11430.309358079696 343.69642139171106
  endloop
endfacet
facet normal -2.4310953111676944e-16 1.0 -4.769541189121801e-16
  outer loop
    vertex 2924.097470505764 11430.309358079696 343.69642139171106
    vertex 2923.7858126902916 11430.309358079696 345.29379773920635
    vertex 2925.9675660193975 11430.309358079696 345.29379773920635
  endloop
endfacet
facet normal -2.4310953111676944e-16 1.0 -4.769541189121801e-16
  outer loop
    vertex 2924.097470505764 11430.309358079696 343.69642139171106
    vertex 2925.9675660193975 11430.309358079696 345.29379773920635
    vertex 2925.7727241519274 11430.309358079696 343.69642139171106
  endloop
endfacet
facet normal -2.4310953111676944e-16 1.0 -4.769541189121801e-16
  outer loop
    vertex 2925.7727241519274 11430.309358079696 343.69642139171106
    vertex 2925.9675660193975 11430.309358079696 345.29379773920635
    vertex 2926.6494382451424 11430.309358079696 343.4237022255729
  endloop
endfacet
facet normal -2.4310953111676944e-16 1.0 -4.769541189121801e-16
  outer loop
    vertex 2926.6494382451424 11430.309358079696 343.4237022255729
    vertex 2925.9675660193975 11430.309358079696 345.29379773920635
    vertex 2927.4481264188903 11430.309358079696 344.80676738093115
  endloop
endfacet
facet normal -2.4310953111676944e-16 1.0 -4.769541189121801e-16
  outer loop
    vertex 2926.6494382451424 11430.309358079696 343.4237022255729
    vertex 2927.4481264188903 11430.309358079696 344.80676738093115
    vertex 2927.6622889902283 11430.309358079696 342.44964150902246
  endloop
endfacet
facet normal -2.4310953111676944e-16 1.0 -4.769541189121801e-16
  outer loop
    vertex 2927.6622889902283 11430.309358079696 342.44964150902246
    vertex 2927.4481264188903 11430.309358079696 344.80676738093115
    vertex 2928.811722249581 11430.309358079696 343.5210488489083
  endloop
endfacet
facet normal -2.4310953111676944e-16 1.0 -4.769541189121801e-16
  outer loop
    vertex 2920.4937133719654 11430.309358079696 337.44334989519876
    vertex 2921.7014059845214 11430.309358079696 339.0600469465621
    vertex 2921.8183705533224 11430.309358079696 335.65113168023356
  endloop
endfacet
facet normal -2.4310953111676944e-16 1.0 -4.769541189121801e-16
  outer loop
    vertex 2921.7014059845214 11430.309358079696 339.0600469465621
    vertex 2920.4937133719654 11430.309358079696 337.44334989519876
    vertex 2921.7014059845214 11430.309358079696 340.93014246019555
  endloop
endfacet
facet normal -2.4310953111676944e-16 1.0 -4.769541189121801e-16
  outer loop
    vertex 2921.8183705533224 11430.309358079696 335.65113168023356
    vertex 2921.7014059845214 11430.309358079696 339.0600469465621
    vertex 2921.935186501325 11430.309358079696 338.16401214947905
  endloop
endfacet
facet normal -2.4310953111676944e-16 1.0 -4.769541189121801e-16
  outer loop
    vertex 2921.8183705533224 11430.309358079696 335.65113168023356
    vertex 2921.935186501325 11430.309358079696 338.16401214947905
    vertex 2923.7858126902916 11430.309358079696 334.7160096130174
  endloop
endfacet
facet normal -2.4310953111676944e-16 1.0 -4.769541189121801e-16
  outer loop
    vertex 2923.7858126902916 11430.309358079696 334.7160096130174
    vertex 2921.935186501325 11430.309358079696 338.16401214947905
    vertex 2922.8897778932087 11430.309358079696 336.8977629421233
  endloop
endfacet
facet normal -2.4310953111676944e-16 1.0 -4.769541189121801e-16
  outer loop
    vertex 2923.7858126902916 11430.309358079696 334.7160096130174
    vertex 2922.8897778932087 11430.309358079696 336.8977629421233
    vertex 2924.097470505764 11430.309358079696 336.3133859605127
  endloop
endfacet
facet normal -2.4310953111676944e-16 1.0 -4.769541189121801e-16
  outer loop
    vertex 2923.7858126902916 11430.309358079696 334.7160096130174
    vertex 2924.097470505764 11430.309358079696 336.3133859605127
    vertex 2925.9675660193975 11430.309358079696 334.7160096130174
  endloop
endfacet
facet normal -2.4310953111676944e-16 1.0 -4.769541189121801e-16
  outer loop
    vertex 2925.9675660193975 11430.309358079696 334.7160096130174
    vertex 2924.097470505764 11430.309358079696 336.3133859605127
    vertex 2925.7727241519274 11430.309358079696 336.3133859605127
  endloop
endfacet
facet normal -2.4310953111676944e-16 1.0 -4.769541189121801e-16
  outer loop
    vertex 2925.9675660193975 11430.309358079696 334.7160096130174
    vertex 2925.7727241519274 11430.309358079696 336.3133859605127
    vertex 2926.6494382451424 11430.309358079696 336.62504377598503
  endloop
endfacet
facet normal -2.4310953111676944e-16 1.0 -4.769541189121801e-16
  outer loop
    vertex 2925.9675660193975 11430.309358079696 334.7160096130174
    vertex 2926.6494382451424 11430.309358079696 336.62504377598503
    vertex 2927.4481264188903 11430.309358079696 335.2030399712926
  endloop
endfacet
facet normal -2.4310953111676944e-16 1.0 -4.769541189121801e-16
  outer loop
    vertex 2927.4481264188903 11430.309358079696 335.2030399712926
    vertex 2926.6494382451424 11430.309358079696 336.62504377598503
    vertex 2927.6622889902283 11430.309358079696 337.5601658432012
  endloop
endfacet
facet normal -2.4310953111676944e-16 1.0 -4.769541189121801e-16
  outer loop
    vertex 2927.4481264188903 11430.309358079696 335.2030399712926
    vertex 2927.6622889902283 11430.309358079696 337.5601658432012
    vertex 2928.792252924914 11430.309358079696 336.44981985398124
  endloop
endfacet
facet normal -2.4310953111676944e-16 1.0 -4.769541189121801e-16
  outer loop
    vertex 2940.5413215679073 11430.309358079696 344.8846446795995
    vertex 2936.6843145926377 11430.309358079696 343.2872683321043
    vertex 2936.6843145926377 11430.309358079696 344.8846446795995
  endloop
endfacet
facet normal -2.4310953111676944e-16 1.0 -4.769541189121801e-16
  outer loop
    vertex 2936.6843145926377 11430.309358079696 343.2872683321043
    vertex 2940.5413215679073 11430.309358079696 344.8846446795995
    vertex 2940.5413215679073 11430.309358079696 343.2872683321043
  endloop
endfacet
facet normal -2.4310953111676944e-16 1.0 -4.769541189121801e-16
  outer loop
    vertex 2936.6843145926377 11430.309358079696 348.4689324887308
    vertex 2935.067468920475 11430.309358079696 344.8846446795995
    vertex 2935.067468920475 11430.309358079696 348.4689324887308
  endloop
endfacet
facet normal -2.4310953111676944e-16 1.0 -4.769541189121801e-16
  outer loop
    vertex 2935.067468920475 11430.309358079696 344.8846446795995
    vertex 2936.6843145926377 11430.309358079696 348.4689324887308
    vertex 2935.067468920475 11430.309358079696 343.2872683321043
  endloop
endfacet
facet normal -2.4310953111676944e-16 1.0 -4.769541189121801e-16
  outer loop
    vertex 2935.067468920475 11430.309358079696 343.2872683321043
    vertex 2936.6843145926377 11430.309358079696 348.4689324887308
    vertex 2935.067468920475 11430.309358079696 336.76147766945365
  endloop
endfacet
facet normal -2.4310953111676944e-16 1.0 -4.769541189121801e-16
  outer loop
    vertex 2935.067468920475 11430.309358079696 336.76147766945365
    vertex 2936.6843145926377 11430.309358079696 348.4689324887308
    vertex 2936.138876260361 11430.309358079696 335.22250929595964
  endloop
endfacet
facet normal -2.4310953111676944e-16 1.0 -4.769541189121801e-16
  outer loop
    vertex 2936.138876260361 11430.309358079696 335.22250929595964
    vertex 2936.6843145926377 11430.309358079696 348.4689324887308
    vertex 2936.6843145926377 11430.309358079696 337.2874466770631
  endloop
endfacet
facet normal -2.4310953111676944e-16 1.0 -4.769541189121801e-16
  outer loop
    vertex 2936.138876260361 11430.309358079696 335.22250929595964
    vertex 2936.6843145926377 11430.309358079696 337.2874466770631
    vertex 2937.502472091053 11430.309358079696 334.7160096130174
  endloop
endfacet
facet normal -2.4310953111676944e-16 1.0 -4.769541189121801e-16
  outer loop
    vertex 2936.6843145926377 11430.309358079696 337.2874466770631
    vertex 2936.6843145926377 11430.309358079696 348.4689324887308
    vertex 2936.6843145926377 11430.309358079696 344.8846446795995
  endloop
endfacet
facet normal -2.4310953111676944e-16 1.0 -4.769541189121801e-16
  outer loop
    vertex 2936.6843145926377 11430.309358079696 337.2874466770631
    vertex 2936.6843145926377 11430.309358079696 344.8846446795995
    vertex 2936.6843145926377 11430.309358079696 343.2872683321043
  endloop
endfacet
facet normal -2.4310953111676944e-16 1.0 -4.769541189121801e-16
  outer loop
    vertex 2937.502472091053 11430.309358079696 334.7160096130174
    vertex 2936.6843145926377 11430.309358079696 337.2874466770631
    vertex 2937.171196330114 11430.309358079696 336.5861051266509
  endloop
endfacet
facet normal -2.4310953111676944e-16 1.0 -4.769541189121801e-16
  outer loop
    vertex 2937.502472091053 11430.309358079696 334.7160096130174
    vertex 2937.171196330114 11430.309358079696 336.5861051266509
    vertex 2937.853068555859 11430.309358079696 336.3133859605127
  endloop
endfacet
facet normal -2.4310953111676944e-16 1.0 -4.769541189121801e-16
  outer loop
    vertex 2937.502472091053 11430.309358079696 334.7160096130174
    vertex 2937.853068555859 11430.309358079696 336.3133859605127
    vertex 2939.5672608513564 11430.309358079696 334.7160096130174
  endloop
endfacet
facet normal -2.4310953111676944e-16 1.0 -4.769541189121801e-16
  outer loop
    vertex 2939.5672608513564 11430.309358079696 334.7160096130174
    vertex 2937.853068555859 11430.309358079696 336.3133859605127
    vertex 2939.5672608513564 11430.309358079696 336.3133859605127
  endloop
endfacet
facet normal -2.4310953111676944e-16 1.0 -4.769541189121801e-16
  outer loop
    vertex 2939.5672608513564 11430.309358079696 334.7160096130174
    vertex 2939.5672608513564 11430.309358079696 336.3133859605127
    vertex 2940.969943952181 11430.309358079696 336.6641310461182
  endloop
endfacet
facet normal -2.4310953111676944e-16 1.0 -4.769541189121801e-16
  outer loop
    vertex 2939.5672608513564 11430.309358079696 334.7160096130174
    vertex 2940.969943952181 11430.309358079696 336.6641310461182
    vertex 2941.378948390989 11430.309358079696 335.12516267262424
  endloop
endfacet
facet normal -2.4310953111676944e-16 1.0 -4.769541189121801e-16
  outer loop
    vertex 2935.067468920475 11430.309358079696 344.8846446795995
    vertex 2932.4376238824284 11430.309358079696 343.2872683321043
    vertex 2932.4376238824284 11430.309358079696 344.8846446795995
  endloop
endfacet
facet normal -2.4310953111676944e-16 1.0 -4.769541189121801e-16
  outer loop
    vertex 2932.4376238824284 11430.309358079696 343.2872683321043
    vertex 2935.067468920475 11430.309358079696 344.8846446795995
    vertex 2935.067468920475 11430.309358079696 343.2872683321043
  endloop
endfacet
facet normal -2.4310953111676944e-16 1.0 -4.769541189121801e-16
  outer loop
    vertex 2953.206042953449 11430.309358079696 345.1378945210707
    vertex 2951.5891972812874 11430.309358079696 338.0471962014765
    vertex 2951.5891972812874 11430.309358079696 345.1378945210707
  endloop
endfacet
facet normal -2.4310953111676944e-16 1.0 -4.769541189121801e-16
  outer loop
    vertex 2951.5891972812874 11430.309358079696 338.0471962014765
    vertex 2953.206042953449 11430.309358079696 345.1378945210707
    vertex 2951.608666605954 11430.309358079696 335.90438152170475
  endloop
endfacet
facet normal -2.4310953111676944e-16 1.0 -4.769541189121801e-16
  outer loop
    vertex 2951.608666605954 11430.309358079696 335.90438152170475
    vertex 2953.206042953449 11430.309358079696 345.1378945210707
    vertex 2951.608666605954 11430.309358079696 334.87191283115305
  endloop
endfacet
facet normal -2.4310953111676944e-16 1.0 -4.769541189121801e-16
  outer loop
    vertex 2951.608666605954 11430.309358079696 334.87191283115305
    vertex 2953.206042953449 11430.309358079696 345.1378945210707
    vertex 2953.206042953449 11430.309358079696 334.87191283115305
  endloop
endfacet
facet normal -2.4310953111676944e-16 1.0 -4.769541189121801e-16
  outer loop
    vertex 2946.6216956959984 11430.309358079696 345.1378945210707
    vertex 2945.0048500238363 11430.309358079696 336.81988564345494
    vertex 2945.0048500238363 11430.309358079696 345.1378945210707
  endloop
endfacet
facet normal -2.4310953111676944e-16 1.0 -4.769541189121801e-16
  outer loop
    vertex 2945.0048500238363 11430.309358079696 336.81988564345494
    vertex 2946.6216956959984 11430.309358079696 345.1378945210707
    vertex 2946.271099231192 11430.309358079696 335.1835706466255
  endloop
endfacet
facet normal -2.4310953111676944e-16 1.0 -4.769541189121801e-16
  outer loop
    vertex 2946.271099231192 11430.309358079696 335.1835706466255
    vertex 2946.6216956959984 11430.309358079696 345.1378945210707
    vertex 2946.6216956959984 11430.309358079696 337.40426262506554
  endloop
endfacet
facet normal -2.4310953111676944e-16 1.0 -4.769541189121801e-16
  outer loop
    vertex 2946.271099231192 11430.309358079696 335.1835706466255
    vertex 2946.6216956959984 11430.309358079696 337.40426262506554
    vertex 2948.04384812149 11430.309358079696 334.7160096130174
  endloop
endfacet
facet normal -2.4310953111676944e-16 1.0 -4.769541189121801e-16
  outer loop
    vertex 2948.04384812149 11430.309358079696 334.7160096130174
    vertex 2946.6216956959984 11430.309358079696 337.40426262506554
    vertex 2947.1866033529423 11430.309358079696 336.5861051266509
  endloop
endfacet
facet normal -2.4310953111676944e-16 1.0 -4.769541189121801e-16
  outer loop
    vertex 2948.04384812149 11430.309358079696 334.7160096130174
    vertex 2947.1866033529423 11430.309358079696 336.5861051266509
    vertex 2948.2970979629613 11430.309358079696 336.2939166358455
  endloop
endfacet
facet normal -2.4310953111676944e-16 1.0 -4.769541189121801e-16
  outer loop
    vertex 2948.04384812149 11430.309358079696 334.7160096130174
    vertex 2948.2970979629613 11430.309358079696 336.2939166358455
    vertex 2949.8164483909886 11430.309358079696 334.7160096130174
  endloop
endfacet
facet normal -2.4310953111676944e-16 1.0 -4.769541189121801e-16
  outer loop
    vertex 2949.8164483909886 11430.309358079696 334.7160096130174
    vertex 2948.2970979629613 11430.309358079696 336.2939166358455
    vertex 2949.6021371988522 11430.309358079696 336.2939166358455
  endloop
endfacet
facet normal -2.4310953111676944e-16 1.0 -4.769541189121801e-16
  outer loop
    vertex 2949.8164483909886 11430.309358079696 334.7160096130174
    vertex 2949.6021371988522 11430.309358079696 336.2939166358455
    vertex 2950.9852023542103 11430.309358079696 337.2095693783947
  endloop
endfacet
facet normal -2.4310953111676944e-16 1.0 -4.769541189121801e-16
  outer loop
    vertex 2949.8164483909886 11430.309358079696 334.7160096130174
    vertex 2950.9852023542103 11430.309358079696 337.2095693783947
    vertex 2951.1021669230117 11430.309358079696 335.45628981276377
  endloop
endfacet
facet normal -2.4310953111676944e-16 1.0 -4.769541189121801e-16
  outer loop
    vertex 2951.1021669230117 11430.309358079696 335.45628981276377
    vertex 2950.9852023542103 11430.309358079696 337.2095693783947
    vertex 2951.5891972812874 11430.309358079696 338.0471962014765
  endloop
endfacet
facet normal -2.4310953111676944e-16 1.0 -4.769541189121801e-16
  outer loop
    vertex 2951.1021669230117 11430.309358079696 335.45628981276377
    vertex 2951.5891972812874 11430.309358079696 338.0471962014765
    vertex 2951.608666605954 11430.309358079696 335.90438152170475
  endloop
endfacet
facet normal -2.4310953111676944e-16 1.0 -4.769541189121801e-16
  outer loop
    vertex 2961.487639735314 11430.309358079696 344.6703334874625
    vertex 2960.7473595355677 11430.309358079696 341.3587648444695
    vertex 2960.7473595355677 11430.309358079696 343.94967123318224
  endloop
endfacet
facet normal -2.4310953111676944e-16 1.0 -4.769541189121801e-16
  outer loop
    vertex 2960.7473595355677 11430.309358079696 341.3587648444695
    vertex 2961.487639735314 11430.309358079696 344.6703334874625
    vertex 2961.175981919841 11430.309358079696 342.2937382908867
  endloop
endfacet
facet normal -2.4310953111676944e-16 1.0 -4.769541189121801e-16
  outer loop
    vertex 2961.175981919841 11430.309358079696 342.2937382908867
    vertex 2961.487639735314 11430.309358079696 344.6703334874625
    vertex 2961.974670093589 11430.309358079696 343.1899217087688
  endloop
endfacet
facet normal -2.4310953111676944e-16 1.0 -4.769541189121801e-16
  outer loop
    vertex 2961.974670093589 11430.309358079696 343.1899217087688
    vertex 2961.487639735314 11430.309358079696 344.6703334874625
    vertex 2962.8122969166707 11430.309358079696 345.29379773920635
  endloop
endfacet
facet normal -2.4310953111676944e-16 1.0 -4.769541189121801e-16
  outer loop
    vertex 2961.974670093589 11430.309358079696 343.1899217087688
    vertex 2962.8122969166707 11430.309358079696 345.29379773920635
    vertex 2963.1239547321434 11430.309358079696 343.69642139171106
  endloop
endfacet
facet normal -2.4310953111676944e-16 1.0 -4.769541189121801e-16
  outer loop
    vertex 2963.1239547321434 11430.309358079696 343.69642139171106
    vertex 2962.8122969166707 11430.309358079696 345.29379773920635
    vertex 2964.8577649731074 11430.309358079696 345.29379773920635
  endloop
endfacet
facet normal -2.4310953111676944e-16 1.0 -4.769541189121801e-16
  outer loop
    vertex 2963.1239547321434 11430.309358079696 343.69642139171106
    vertex 2964.8577649731074 11430.309358079696 345.29379773920635
    vertex 2964.623984456303 11430.309358079696 343.69642139171106
  endloop
endfacet
facet normal -2.4310953111676944e-16 1.0 -4.769541189121801e-16
  outer loop
    vertex 2964.623984456303 11430.309358079696 343.69642139171106
    vertex 2964.8577649731074 11430.309358079696 345.29379773920635
    vertex 2966.182422154464 11430.309358079696 343.1509830594346
  endloop
endfacet
facet normal -2.4310953111676944e-16 1.0 -4.769541189121801e-16
  outer loop
    vertex 2966.182422154464 11430.309358079696 343.1509830594346
    vertex 2964.8577649731074 11430.309358079696 345.29379773920635
    vertex 2966.66930389194 11430.309358079696 344.6703334874625
  endloop
endfacet
facet normal -2.4310953111676944e-16 1.0 -4.769541189121801e-16
  outer loop
    vertex 2960.7473595355677 11430.309358079696 345.1378945210707
    vertex 2959.130513863405 11430.309358079696 334.87191283115305
    vertex 2959.130513863405 11430.309358079696 345.1378945210707
  endloop
endfacet
facet normal -2.4310953111676944e-16 1.0 -4.769541189121801e-16
  outer loop
    vertex 2959.130513863405 11430.309358079696 334.87191283115305
    vertex 2960.7473595355677 11430.309358079696 345.1378945210707
    vertex 2960.7473595355677 11430.309358079696 334.87191283115305
  endloop
endfacet
facet normal -2.4310953111676944e-16 1.0 -4.769541189121801e-16
  outer loop
    vertex 2960.7473595355677 11430.309358079696 334.87191283115305
    vertex 2960.7473595355677 11430.309358079696 345.1378945210707
    vertex 2960.7473595355677 11430.309358079696 343.94967123318224
  endloop
endfacet
facet normal -2.4310953111676944e-16 1.0 -4.769541189121801e-16
  outer loop
    vertex 2960.7473595355677 11430.309358079696 334.87191283115305
    vertex 2960.7473595355677 11430.309358079696 343.94967123318224
    vertex 2960.7473595355677 11430.309358079696 341.3587648444695
  endloop
endfacet
facet normal -2.4310953111676944e-16 1.0 -4.769541189121801e-16
  outer loop
    vertex 2970.022634979448 11430.309358079696 342.56645745702497
    vertex 2969.6134819198414 11430.309358079696 338.826415050557
    vertex 2969.6134819198414 11430.309358079696 341.1444536523325
  endloop
endfacet
facet normal -2.4310953111676944e-16 1.0 -4.769541189121801e-16
  outer loop
    vertex 2969.6134819198414 11430.309358079696 338.826415050557
    vertex 2970.022634979448 11430.309358079696 342.56645745702497
    vertex 2970.022634979448 11430.309358079696 337.44334989519876
  endloop
endfacet
facet normal -2.4310953111676944e-16 1.0 -4.769541189121801e-16
  outer loop
    vertex 2970.022634979448 11430.309358079696 337.44334989519876
    vertex 2970.022634979448 11430.309358079696 342.56645745702497
    vertex 2971.3472921608054 11430.309358079696 344.3586756719901
  endloop
endfacet
facet normal -2.4310953111676944e-16 1.0 -4.769541189121801e-16
  outer loop
    vertex 2970.022634979448 11430.309358079696 337.44334989519876
    vertex 2971.3472921608054 11430.309358079696 344.3586756719901
    vertex 2971.2303275920035 11430.309358079696 340.98869905499583
  endloop
endfacet
facet normal -2.4310953111676944e-16 1.0 -4.769541189121801e-16
  outer loop
    vertex 2971.2303275920035 11430.309358079696 340.98869905499583
    vertex 2971.3472921608054 11430.309358079696 344.3586756719901
    vertex 2971.4641081088075 11430.309358079696 341.8457952027447
  endloop
endfacet
facet normal -2.4310953111676944e-16 1.0 -4.769541189121801e-16
  outer loop
    vertex 2971.4641081088075 11430.309358079696 341.8457952027447
    vertex 2971.3472921608054 11430.309358079696 344.3586756719901
    vertex 2973.295264973107 11430.309358079696 345.29379773920635
  endloop
endfacet
facet normal -2.4310953111676944e-16 1.0 -4.769541189121801e-16
  outer loop
    vertex 2971.4641081088075 11430.309358079696 341.8457952027447
    vertex 2973.295264973107 11430.309358079696 345.29379773920635
    vertex 2972.379612230558 11430.309358079696 343.0924264646344
  endloop
endfacet
facet normal -2.4310953111676944e-16 1.0 -4.769541189121801e-16
  outer loop
    vertex 2972.379612230558 11430.309358079696 343.0924264646344
    vertex 2973.295264973107 11430.309358079696 345.29379773920635
    vertex 2973.5485148145785 11430.309358079696 343.69642139171106
  endloop
endfacet
facet normal -2.4310953111676944e-16 1.0 -4.769541189121801e-16
  outer loop
    vertex 2973.5485148145785 11430.309358079696 343.69642139171106
    vertex 2973.295264973107 11430.309358079696 345.29379773920635
    vertex 2975.418610328212 11430.309358079696 345.29379773920635
  endloop
endfacet
facet normal -2.4310953111676944e-16 1.0 -4.769541189121801e-16
  outer loop
    vertex 2973.5485148145785 11430.309358079696 343.69642139171106
    vertex 2975.418610328212 11430.309358079696 345.29379773920635
    vertex 2975.1458911620734 11430.309358079696 343.69642139171106
  endloop
endfacet
facet normal -2.4310953111676944e-16 1.0 -4.769541189121801e-16
  outer loop
    vertex 2975.1458911620734 11430.309358079696 343.69642139171106
    vertex 2975.418610328212 11430.309358079696 345.29379773920635
    vertex 2976.334114449962 11430.309358079696 343.07295713996723
  endloop
endfacet
facet normal -2.4310953111676944e-16 1.0 -4.769541189121801e-16
  outer loop
    vertex 2976.334114449962 11430.309358079696 343.07295713996723
    vertex 2975.418610328212 11430.309358079696 345.29379773920635
    vertex 2977.3860524651805 11430.309358079696 344.3586756719901
  endloop
endfacet
facet normal -2.4310953111676944e-16 1.0 -4.769541189121801e-16
  outer loop
    vertex 2976.334114449962 11430.309358079696 343.07295713996723
    vertex 2977.3860524651805 11430.309358079696 344.3586756719901
    vertex 2977.269087896379 11430.309358079696 341.80685655341057
  endloop
endfacet
facet normal -2.4310953111676944e-16 1.0 -4.769541189121801e-16
  outer loop
    vertex 2977.269087896379 11430.309358079696 341.80685655341057
    vertex 2977.3860524651805 11430.309358079696 344.3586756719901
    vertex 2977.5223377378506 11430.309358079696 341.0665763536642
  endloop
endfacet
facet normal -2.4310953111676944e-16 1.0 -4.769541189121801e-16
  outer loop
    vertex 2977.5223377378506 11430.309358079696 341.0665763536642
    vertex 2977.3860524651805 11430.309358079696 344.3586756719901
    vertex 2978.6912403218707 11430.309358079696 342.56645745702497
  endloop
endfacet
facet normal -2.4310953111676944e-16 1.0 -4.769541189121801e-16
  outer loop
    vertex 2977.5223377378506 11430.309358079696 341.0665763536642
    vertex 2978.6912403218707 11430.309358079696 342.56645745702497
    vertex 2977.5223377378506 11430.309358079696 340.81332651219304
  endloop
endfacet
facet normal -2.4310953111676944e-16 1.0 -4.769541189121801e-16
  outer loop
    vertex 2977.5223377378506 11430.309358079696 340.81332651219304
    vertex 2971.2303275920035 11430.309358079696 339.2159501646978
    vertex 2971.2303275920035 11430.309358079696 340.81332651219304
  endloop
endfacet
facet normal -2.4310953111676944e-16 1.0 -4.769541189121801e-16
  outer loop
    vertex 2971.2303275920035 11430.309358079696 339.2159501646978
    vertex 2977.5223377378506 11430.309358079696 340.81332651219304
    vertex 2979.1391834100123 11430.309358079696 339.2159501646978
  endloop
endfacet
facet normal -2.4310953111676944e-16 1.0 -4.769541189121801e-16
  outer loop
    vertex 2979.1391834100123 11430.309358079696 339.2159501646978
    vertex 2977.5223377378506 11430.309358079696 340.81332651219304
    vertex 2978.6912403218707 11430.309358079696 342.56645745702497
  endloop
endfacet
facet normal -2.4310953111676944e-16 1.0 -4.769541189121801e-16
  outer loop
    vertex 2979.1391834100123 11430.309358079696 339.2159501646978
    vertex 2978.6912403218707 11430.309358079696 342.56645745702497
    vertex 2979.1391834100123 11430.309358079696 341.2614182211341
  endloop
endfacet
facet normal -2.4310953111676944e-16 1.0 -4.769541189121801e-16
  outer loop
    vertex 2970.022634979448 11430.309358079696 337.44334989519876
    vertex 2971.2303275920035 11430.309358079696 339.0211082972279
    vertex 2971.3472921608054 11430.309358079696 335.65113168023356
  endloop
endfacet
facet normal -2.4310953111676944e-16 1.0 -4.769541189121801e-16
  outer loop
    vertex 2971.2303275920035 11430.309358079696 339.0211082972279
    vertex 2970.022634979448 11430.309358079696 337.44334989519876
    vertex 2971.2303275920035 11430.309358079696 340.98869905499583
  endloop
endfacet
facet normal -2.4310953111676944e-16 1.0 -4.769541189121801e-16
  outer loop
    vertex 2971.2303275920035 11430.309358079696 339.0211082972279
    vertex 2971.2303275920035 11430.309358079696 340.98869905499583
    vertex 2971.2303275920035 11430.309358079696 340.81332651219304
  endloop
endfacet
facet normal -2.4310953111676944e-16 1.0 -4.769541189121801e-16
  outer loop
    vertex 2971.2303275920035 11430.309358079696 339.0211082972279
    vertex 2971.2303275920035 11430.309358079696 340.81332651219304
    vertex 2971.2303275920035 11430.309358079696 339.2159501646978
  endloop
endfacet
facet normal -2.4310953111676944e-16 1.0 -4.769541189121801e-16
  outer loop
    vertex 2971.3472921608054 11430.309358079696 335.65113168023356
    vertex 2971.2303275920035 11430.309358079696 339.0211082972279
    vertex 2971.4835774334747 11430.309358079696 338.16401214947905
  endloop
endfacet
facet normal -2.4310953111676944e-16 1.0 -4.769541189121801e-16
  outer loop
    vertex 2971.3472921608054 11430.309358079696 335.65113168023356
    vertex 2971.4835774334747 11430.309358079696 338.16401214947905
    vertex 2973.314734297774 11430.309358079696 334.7160096130174
  endloop
endfacet
facet normal -2.4310953111676944e-16 1.0 -4.769541189121801e-16
  outer loop
    vertex 2973.314734297774 11430.309358079696 334.7160096130174
    vertex 2971.4835774334747 11430.309358079696 338.16401214947905
    vertex 2972.418550879892 11430.309358079696 336.8977629421233
  endloop
endfacet
facet normal -2.4310953111676944e-16 1.0 -4.769541189121801e-16
  outer loop
    vertex 2973.314734297774 11430.309358079696 334.7160096130174
    vertex 2972.418550879892 11430.309358079696 336.8977629421233
    vertex 2973.606922788579 11430.309358079696 336.3133859605127
  endloop
endfacet
facet normal -2.4310953111676944e-16 1.0 -4.769541189121801e-16
  outer loop
    vertex 2973.314734297774 11430.309358079696 334.7160096130174
    vertex 2973.606922788579 11430.309358079696 336.3133859605127
    vertex 2975.3211150840775 11430.309358079696 334.7160096130174
  endloop
endfacet
facet normal -2.4310953111676944e-16 1.0 -4.769541189121801e-16
  outer loop
    vertex 2975.3211150840775 11430.309358079696 334.7160096130174
    vertex 2973.606922788579 11430.309358079696 336.3133859605127
    vertex 2975.1848298114073 11430.309358079696 336.3133859605127
  endloop
endfacet
facet normal -2.4310953111676944e-16 1.0 -4.769541189121801e-16
  outer loop
    vertex 2975.3211150840775 11430.309358079696 334.7160096130174
    vertex 2975.1848298114073 11430.309358079696 336.3133859605127
    vertex 2976.4900176680976 11430.309358079696 336.64466172145114
  endloop
endfacet
facet normal -2.4310953111676944e-16 1.0 -4.769541189121801e-16
  outer loop
    vertex 2975.3211150840775 11430.309358079696 334.7160096130174
    vertex 2976.4900176680976 11430.309358079696 336.64466172145114
    vertex 2977.0938639743754 11430.309358079696 335.16410132195836
  endloop
endfacet
facet normal -2.4310953111676944e-16 1.0 -4.769541189121801e-16
  outer loop
    vertex 2977.0938639743754 11430.309358079696 335.16410132195836
    vertex 2976.4900176680976 11430.309358079696 336.64466172145114
    vertex 2977.5028684131835 11430.309358079696 337.2874466770631
  endloop
endfacet
facet normal -2.4310953111676944e-16 1.0 -4.769541189121801e-16
  outer loop
    vertex 2977.0938639743754 11430.309358079696 335.16410132195836
    vertex 2977.5028684131835 11430.309358079696 337.2874466770631
    vertex 2978.359964560932 11430.309358079696 336.0017281450402
  endloop
endfacet
endsolid thesis3
