solid thesis3
facet normal 1.0 0.0 -0.0
  outer loop
    vertex 4569.464931664721 12145.709203371438 168.78798388864192
    vertex 4569.464931664721 12145.929954798197 165.7231257719647
    vertex 4569.464931664721 12145.929954798197 167.6062503756426
  endloop
endfacet
facet normal 1.0 0.0 -0.0
  outer loop
    vertex 4569.464931664721 12145.929954798197 165.7231257719647
    vertex 4569.464931664721 12145.709203371438 168.78798388864192
    vertex 4569.464931664721 12145.709203371438 164.54139225896532
  endloop
endfacet
facet normal 1.0 0.0 -0.0
  outer loop
    vertex 4569.464931664721 12145.709203371438 164.54139225896532
    vertex 4569.464931664721 12145.709203371438 168.78798388864192
    vertex 4569.464931664721 12145.24164233783 169.90491873328367
  endloop
endfacet
facet normal 1.0 0.0 -0.0
  outer loop
    vertex 4569.464931664721 12145.709203371438 164.54139225896532
    vertex 4569.464931664721 12145.24164233783 169.90491873328367
    vertex 4569.464931664721 12145.24164233783 163.42455649485626
  endloop
endfacet
facet normal 1.0 0.0 -0.0
  outer loop
    vertex 4569.464931664721 12145.24164233783 163.42455649485626
    vertex 4569.464931664721 12145.24164233783 169.90491873328367
    vertex 4569.464931664721 12144.852057683423 167.52827399644153
  endloop
endfacet
facet normal 1.0 0.0 -0.0
  outer loop
    vertex 4569.464931664721 12144.852057683423 167.52827399644153
    vertex 4569.464931664721 12145.24164233783 169.90491873328367
    vertex 4569.464931664721 12144.332578450701 170.82696217018918
  endloop
endfacet
facet normal 1.0 0.0 -0.0
  outer loop
    vertex 4569.464931664721 12144.852057683423 167.52827399644153
    vertex 4569.464931664721 12144.332578450701 170.82696217018918
    vertex 4569.464931664721 12144.670244905996 168.47637561343586
  endloop
endfacet
facet normal 1.0 0.0 -0.0
  outer loop
    vertex 4569.464931664721 12144.670244905996 168.47637561343586
    vertex 4569.464931664721 12144.332578450701 170.82696217018918
    vertex 4569.464931664721 12144.358537550257 169.28150402180617
  endloop
endfacet
facet normal 1.0 0.0 -0.0
  outer loop
    vertex 4569.464931664721 12144.358537550257 169.28150402180617
    vertex 4569.464931664721 12144.332578450701 170.82696217018918
    vertex 4569.464931664721 12143.709262819757 169.94385738261784
  endloop
endfacet
facet normal 1.0 0.0 -0.0
  outer loop
    vertex 4569.464931664721 12143.709262819757 169.94385738261784
    vertex 4569.464931664721 12144.332578450701 170.82696217018918
    vertex 4569.464931664721 12143.150745857169 171.3853800522437
  endloop
endfacet
facet normal 1.0 0.0 -0.0
  outer loop
    vertex 4569.464931664721 12143.709262819757 169.94385738261784
    vertex 4569.464931664721 12143.150745857169 171.3853800522437
    vertex 4569.464931664721 12142.929994430411 170.32046248724686
  endloop
endfacet
facet normal 1.0 0.0 -0.0
  outer loop
    vertex 4569.464931664721 12142.929994430411 170.32046248724686
    vertex 4569.464931664721 12143.150745857169 171.3853800522437
    vertex 4569.464931664721 12141.91709414506 171.3853800522437
  endloop
endfacet
facet normal 1.0 0.0 -0.0
  outer loop
    vertex 4569.464931664721 12142.929994430411 170.32046248724686
    vertex 4569.464931664721 12141.91709414506 171.3853800522437
    vertex 4569.464931664721 12142.137845571817 170.32046248724686
  endloop
endfacet
facet normal 1.0 0.0 -0.0
  outer loop
    vertex 4569.464931664721 12142.137845571817 170.32046248724686
    vertex 4569.464931664721 12141.91709414506 171.3853800522437
    vertex 4569.464931664721 12141.358577182471 169.94385738261784
  endloop
endfacet
facet normal 1.0 0.0 -0.0
  outer loop
    vertex 4569.464931664721 12141.358577182471 169.94385738261784
    vertex 4569.464931664721 12141.91709414506 171.3853800522437
    vertex 4569.464931664721 12140.735261551526 170.82696217018918
  endloop
endfacet
facet normal 1.0 0.0 -0.0
  outer loop
    vertex 4569.464931664721 12141.358577182471 169.94385738261784
    vertex 4569.464931664721 12140.735261551526 170.82696217018918
    vertex 4569.464931664721 12140.994951627621 169.58023182776685
  endloop
endfacet
facet normal 1.0 0.0 -0.0
  outer loop
    vertex 4569.464931664721 12145.24164233783 163.42455649485626
    vertex 4569.464931664721 12144.852057683423 165.81408170094377
    vertex 4569.464931664721 12144.332578450701 162.50251305795075
  endloop
endfacet
facet normal 1.0 0.0 -0.0
  outer loop
    vertex 4569.464931664721 12144.852057683423 165.81408170094377
    vertex 4569.464931664721 12145.24164233783 163.42455649485626
    vertex 4569.464931664721 12144.852057683423 167.52827399644153
  endloop
endfacet
facet normal 1.0 0.0 -0.0
  outer loop
    vertex 4569.464931664721 12144.332578450701 162.50251305795075
    vertex 4569.464931664721 12144.852057683423 165.81408170094377
    vertex 4569.464931664721 12144.657265356218 164.81406188483726
  endloop
endfacet
facet normal 1.0 0.0 -0.0
  outer loop
    vertex 4569.464931664721 12144.332578450701 162.50251305795075
    vertex 4569.464931664721 12144.657265356218 164.81406188483726
    vertex 4569.464931664721 12144.579288977018 164.63224910741175
  endloop
endfacet
facet normal 1.0 0.0 -0.0
  outer loop
    vertex 4569.464931664721 12144.332578450701 162.50251305795075
    vertex 4569.464931664721 12144.579288977018 164.63224910741175
    vertex 4569.464931664721 12144.059809744298 163.7622229501511
  endloop
endfacet
facet normal 1.0 0.0 -0.0
  outer loop
    vertex 4569.464931664721 12144.059809744298 163.7622229501511
    vertex 4569.464931664721 12144.579288977018 164.63224910741175
    vertex 4569.464931664721 12140.994951627621 169.58023182776685
  endloop
endfacet
facet normal 1.0 0.0 -0.0
  outer loop
    vertex 4569.464931664721 12144.059809744298 163.7622229501511
    vertex 4569.464931664721 12140.994951627621 169.58023182776685
    vertex 4569.464931664721 12140.488551025212 168.69712704019554
  endloop
endfacet
facet normal 1.0 0.0 -0.0
  outer loop
    vertex 4569.464931664721 12140.488551025212 168.69712704019554
    vertex 4569.464931664721 12140.994951627621 169.58023182776685
    vertex 4569.464931664721 12140.735261551526 170.82696217018918
  endloop
endfacet
facet normal 1.0 0.0 -0.0
  outer loop
    vertex 4569.464931664721 12140.488551025212 168.69712704019554
    vertex 4569.464931664721 12140.735261551526 170.82696217018918
    vertex 4569.464931664721 12139.826197664399 169.90491873328367
  endloop
endfacet
facet normal 1.0 0.0 -0.0
  outer loop
    vertex 4569.464931664721 12140.488551025212 168.69712704019554
    vertex 4569.464931664721 12139.826197664399 169.90491873328367
    vertex 4569.464931664721 12140.397595096232 168.47637561343586
  endloop
endfacet
facet normal 1.0 0.0 -0.0
  outer loop
    vertex 4569.464931664721 12140.397595096232 168.47637561343586
    vertex 4569.464931664721 12139.826197664399 169.90491873328367
    vertex 4569.464931664721 12140.215782318806 167.52827399644153
  endloop
endfacet
facet normal 1.0 0.0 -0.0
  outer loop
    vertex 4569.464931664721 12140.215782318806 167.52827399644153
    vertex 4569.464931664721 12139.826197664399 169.90491873328367
    vertex 4569.464931664721 12140.215782318806 165.81408170094377
  endloop
endfacet
facet normal 1.0 0.0 -0.0
  outer loop
    vertex 4569.464931664721 12144.059809744298 163.7622229501511
    vertex 4569.464931664721 12143.150745857169 161.94399609536356
    vertex 4569.464931664721 12144.332578450701 162.50251305795075
  endloop
endfacet
facet normal 1.0 0.0 -0.0
  outer loop
    vertex 4569.464931664721 12143.150745857169 161.94399609536356
    vertex 4569.464931664721 12144.059809744298 163.7622229501511
    vertex 4569.464931664721 12143.696184189448 163.37253921521136
  endloop
endfacet
facet normal 1.0 0.0 -0.0
  outer loop
    vertex 4569.464931664721 12143.150745857169 161.94399609536356
    vertex 4569.464931664721 12143.696184189448 163.37253921521136
    vertex 4569.464931664721 12142.942973980187 163.00891366036038
  endloop
endfacet
facet normal 1.0 0.0 -0.0
  outer loop
    vertex 4569.464931664721 12143.150745857169 161.94399609536356
    vertex 4569.464931664721 12142.942973980187 163.00891366036038
    vertex 4569.464931664721 12141.91709414506 161.94399609536356
  endloop
endfacet
facet normal 1.0 0.0 -0.0
  outer loop
    vertex 4569.464931664721 12141.91709414506 161.94399609536356
    vertex 4569.464931664721 12142.942973980187 163.00891366036038
    vertex 4569.464931664721 12142.12486602204 163.00891366036038
  endloop
endfacet
facet normal 1.0 0.0 -0.0
  outer loop
    vertex 4569.464931664721 12141.91709414506 161.94399609536356
    vertex 4569.464931664721 12142.12486602204 163.00891366036038
    vertex 4569.464931664721 12141.371655812782 163.37253921521136
  endloop
endfacet
facet normal 1.0 0.0 -0.0
  outer loop
    vertex 4569.464931664721 12141.91709414506 161.94399609536356
    vertex 4569.464931664721 12141.371655812782 163.37253921521136
    vertex 4569.464931664721 12140.735261551526 162.50251305795075
  endloop
endfacet
facet normal 1.0 0.0 -0.0
  outer loop
    vertex 4569.464931664721 12140.735261551526 162.50251305795075
    vertex 4569.464931664721 12141.371655812782 163.37253921521136
    vertex 4569.464931664721 12140.722282001747 164.06085167557916
  endloop
endfacet
facet normal 1.0 0.0 -0.0
  outer loop
    vertex 4569.464931664721 12140.735261551526 162.50251305795075
    vertex 4569.464931664721 12140.722282001747 164.06085167557916
    vertex 4569.464931664721 12139.826197664399 163.42455649485626
  endloop
endfacet
facet normal 1.0 0.0 -0.0
  outer loop
    vertex 4569.464931664721 12139.826197664399 163.42455649485626
    vertex 4569.464931664721 12140.722282001747 164.06085167557916
    vertex 4569.464931664721 12140.410574646008 164.81406188483726
  endloop
endfacet
facet normal 1.0 0.0 -0.0
  outer loop
    vertex 4569.464931664721 12139.826197664399 163.42455649485626
    vertex 4569.464931664721 12140.410574646008 164.81406188483726
    vertex 4569.464931664721 12140.215782318806 165.81408170094377
  endloop
endfacet
facet normal 1.0 0.0 -0.0
  outer loop
    vertex 4569.464931664721 12139.826197664399 163.42455649485626
    vertex 4569.464931664721 12140.215782318806 165.81408170094377
    vertex 4569.464931664721 12139.826197664399 169.90491873328367
  endloop
endfacet
facet normal 1.0 0.0 -0.0
  outer loop
    vertex 4569.464931664721 12139.826197664399 163.42455649485626
    vertex 4569.464931664721 12139.826197664399 169.90491873328367
    vertex 4569.464931664721 12139.358636630792 168.78798388864192
  endloop
endfacet
facet normal 1.0 0.0 -0.0
  outer loop
    vertex 4569.464931664721 12139.826197664399 163.42455649485626
    vertex 4569.464931664721 12139.358636630792 168.78798388864192
    vertex 4569.464931664721 12139.358636630792 164.54139225896532
  endloop
endfacet
facet normal 1.0 0.0 -0.0
  outer loop
    vertex 4569.464931664721 12139.358636630792 164.54139225896532
    vertex 4569.464931664721 12139.358636630792 168.78798388864192
    vertex 4569.464931664721 12139.13788520403 167.6062503756426
  endloop
endfacet
facet normal 1.0 0.0 -0.0
  outer loop
    vertex 4569.464931664721 12139.358636630792 164.54139225896532
    vertex 4569.464931664721 12139.13788520403 167.6062503756426
    vertex 4569.464931664721 12139.13788520403 165.7231257719647
  endloop
endfacet
facet normal 1.0 0.0 -0.0
  outer loop
    vertex 4569.464931664721 12136.408910093061 170.77494489054428
    vertex 4569.464931664721 12136.214117765858 169.4113986001194
    vertex 4569.464931664721 12136.980307524893 170.17758835915558
  endloop
endfacet
facet normal 1.0 0.0 -0.0
  outer loop
    vertex 4569.464931664721 12136.214117765858 169.4113986001194
    vertex 4569.464931664721 12136.408910093061 170.77494489054428
    vertex 4569.464931664721 12135.045363802636 171.3853800522437
  endloop
endfacet
facet normal 1.0 0.0 -0.0
  outer loop
    vertex 4569.464931664721 12136.214117765858 169.4113986001194
    vertex 4569.464931664721 12135.045363802636 171.3853800522437
    vertex 4569.464931664721 12135.75963536256 169.87886055319487
  endloop
endfacet
facet normal 1.0 0.0 -0.0
  outer loop
    vertex 4569.464931664721 12135.75963536256 169.87886055319487
    vertex 4569.464931664721 12135.045363802636 171.3853800522437
    vertex 4569.464931664721 12134.837492845121 170.32046248724686
  endloop
endfacet
facet normal 1.0 0.0 -0.0
  outer loop
    vertex 4569.464931664721 12134.837492845121 170.32046248724686
    vertex 4569.464931664721 12135.045363802636 171.3853800522437
    vertex 4569.464931664721 12133.642779782343 171.3853800522437
  endloop
endfacet
facet normal 1.0 0.0 -0.0
  outer loop
    vertex 4569.464931664721 12134.837492845121 170.32046248724686
    vertex 4569.464931664721 12133.642779782343 171.3853800522437
    vertex 4569.464931664721 12133.902469858438 170.32046248724686
  endloop
endfacet
facet normal 1.0 0.0 -0.0
  outer loop
    vertex 4569.464931664721 12133.902469858438 170.32046248724686
    vertex 4569.464931664721 12133.642779782343 171.3853800522437
    vertex 4569.464931664721 12133.032344620644 169.90491873328367
  endloop
endfacet
facet normal 1.0 0.0 -0.0
  outer loop
    vertex 4569.464931664721 12133.032344620644 169.90491873328367
    vertex 4569.464931664721 12133.642779782343 171.3853800522437
    vertex 4569.464931664721 12132.292113961166 170.72302669143204
  endloop
endfacet
facet normal 1.0 0.0 -0.0
  outer loop
    vertex 4569.464931664721 12133.032344620644 169.90491873328367
    vertex 4569.464931664721 12132.292113961166 170.72302669143204
    vertex 4569.464931664721 12132.512964468457 169.0607525950465
  endloop
endfacet
facet normal 1.0 0.0 -0.0
  outer loop
    vertex 4569.464931664721 12132.512964468457 169.0607525950465
    vertex 4569.464931664721 12132.292113961166 170.72302669143204
    vertex 4569.464931664721 12132.512964468457 168.3464810351226
  endloop
endfacet
facet normal 1.0 0.0 -0.0
  outer loop
    vertex 4569.464931664721 12132.915528672642 167.54125354621962
    vertex 4569.464931664721 12136.954348425337 162.0479315741207
    vertex 4569.464931664721 12136.954348425337 163.00891366036038
  endloop
endfacet
facet normal 1.0 0.0 -0.0
  outer loop
    vertex 4569.464931664721 12136.954348425337 162.0479315741207
    vertex 4569.464931664721 12132.915528672642 167.54125354621962
    vertex 4569.464931664721 12135.486866656154 163.11284913911751
  endloop
endfacet
facet normal 1.0 0.0 -0.0
  outer loop
    vertex 4569.464931664721 12135.486866656154 163.11284913911751
    vertex 4569.464931664721 12132.915528672642 167.54125354621962
    vertex 4569.464931664721 12132.006464785516 166.95687656460896
  endloop
endfacet
facet normal 1.0 0.0 -0.0
  outer loop
    vertex 4569.464931664721 12132.006464785516 166.95687656460896
    vertex 4569.464931664721 12132.915528672642 167.54125354621962
    vertex 4569.464931664721 12132.512964468457 168.3464810351226
  endloop
endfacet
facet normal 1.0 0.0 -0.0
  outer loop
    vertex 4569.464931664721 12132.006464785516 166.95687656460896
    vertex 4569.464931664721 12132.512964468457 168.3464810351226
    vertex 4569.464931664721 12132.292113961166 170.72302669143204
  endloop
endfacet
facet normal 1.0 0.0 -0.0
  outer loop
    vertex 4569.464931664721 12132.006464785516 166.95687656460896
    vertex 4569.464931664721 12132.292113961166 170.72302669143204
    vertex 4569.464931664721 12131.435067353681 169.37245995078524
  endloop
endfacet
facet normal 1.0 0.0 -0.0
  outer loop
    vertex 4569.464931664721 12132.006464785516 166.95687656460896
    vertex 4569.464931664721 12131.435067353681 169.37245995078524
    vertex 4569.464931664721 12131.435067353681 168.12572960836292
  endloop
endfacet
facet normal 1.0 0.0 -0.0
  outer loop
    vertex 4569.464931664721 12135.486866656154 163.11284913911751
    vertex 4569.464931664721 12131.331131874924 162.0479315741207
    vertex 4569.464931664721 12136.954348425337 162.0479315741207
  endloop
endfacet
facet normal 1.0 0.0 -0.0
  outer loop
    vertex 4569.464931664721 12131.331131874924 162.0479315741207
    vertex 4569.464931664721 12135.486866656154 163.11284913911751
    vertex 4569.464931664721 12131.331131874924 163.11284913911751
  endloop
endfacet
facet normal 1.0 0.0 -0.0
  outer loop
    vertex 4569.464931664721 12125.05675806389 163.80116159948528
    vertex 4569.464931664721 12126.758069890144 162.0479315741207
    vertex 4569.464931664721 12126.758069890144 163.80116159948528
  endloop
endfacet
facet normal 1.0 0.0 -0.0
  outer loop
    vertex 4569.464931664721 12126.758069890144 162.0479315741207
    vertex 4569.464931664721 12125.05675806389 163.80116159948528
    vertex 4569.464931664721 12125.05675806389 162.0479315741207
  endloop
endfacet
facet normal 1.0 0.0 -0.0
  outer loop
    vertex 4569.464931664721 12119.782404068963 170.77494489054428
    vertex 4569.464931664721 12119.587611741761 169.4113986001194
    vertex 4569.464931664721 12120.353801500798 170.17758835915558
  endloop
endfacet
facet normal 1.0 0.0 -0.0
  outer loop
    vertex 4569.464931664721 12119.587611741761 169.4113986001194
    vertex 4569.464931664721 12119.782404068963 170.77494489054428
    vertex 4569.464931664721 12118.41885777854 171.3853800522437
  endloop
endfacet
facet normal 1.0 0.0 -0.0
  outer loop
    vertex 4569.464931664721 12119.587611741761 169.4113986001194
    vertex 4569.464931664721 12118.41885777854 171.3853800522437
    vertex 4569.464931664721 12119.133129338465 169.87886055319487
  endloop
endfacet
facet normal 1.0 0.0 -0.0
  outer loop
    vertex 4569.464931664721 12119.133129338465 169.87886055319487
    vertex 4569.464931664721 12118.41885777854 171.3853800522437
    vertex 4569.464931664721 12118.210986821026 170.32046248724686
  endloop
endfacet
facet normal 1.0 0.0 -0.0
  outer loop
    vertex 4569.464931664721 12118.210986821026 170.32046248724686
    vertex 4569.464931664721 12118.41885777854 171.3853800522437
    vertex 4569.464931664721 12117.016273758247 171.3853800522437
  endloop
endfacet
facet normal 1.0 0.0 -0.0
  outer loop
    vertex 4569.464931664721 12118.210986821026 170.32046248724686
    vertex 4569.464931664721 12117.016273758247 171.3853800522437
    vertex 4569.464931664721 12117.275963834341 170.32046248724686
  endloop
endfacet
facet normal 1.0 0.0 -0.0
  outer loop
    vertex 4569.464931664721 12117.275963834341 170.32046248724686
    vertex 4569.464931664721 12117.016273758247 171.3853800522437
    vertex 4569.464931664721 12116.405838596549 169.90491873328367
  endloop
endfacet
facet normal 1.0 0.0 -0.0
  outer loop
    vertex 4569.464931664721 12116.405838596549 169.90491873328367
    vertex 4569.464931664721 12117.016273758247 171.3853800522437
    vertex 4569.464931664721 12115.665607937068 170.72302669143204
  endloop
endfacet
facet normal 1.0 0.0 -0.0
  outer loop
    vertex 4569.464931664721 12116.405838596549 169.90491873328367
    vertex 4569.464931664721 12115.665607937068 170.72302669143204
    vertex 4569.464931664721 12115.886458444362 169.0607525950465
  endloop
endfacet
facet normal 1.0 0.0 -0.0
  outer loop
    vertex 4569.464931664721 12115.886458444362 169.0607525950465
    vertex 4569.464931664721 12115.665607937068 170.72302669143204
    vertex 4569.464931664721 12115.886458444362 168.3464810351226
  endloop
endfacet
facet normal 1.0 0.0 -0.0
  outer loop
    vertex 4569.464931664721 12116.289022648545 167.54125354621962
    vertex 4569.464931664721 12120.327842401242 162.0479315741207
    vertex 4569.464931664721 12120.327842401242 163.00891366036038
  endloop
endfacet
facet normal 1.0 0.0 -0.0
  outer loop
    vertex 4569.464931664721 12120.327842401242 162.0479315741207
    vertex 4569.464931664721 12116.289022648545 167.54125354621962
    vertex 4569.464931664721 12118.86036063206 163.11284913911751
  endloop
endfacet
facet normal 1.0 0.0 -0.0
  outer loop
    vertex 4569.464931664721 12118.86036063206 163.11284913911751
    vertex 4569.464931664721 12116.289022648545 167.54125354621962
    vertex 4569.464931664721 12115.379958761418 166.95687656460896
  endloop
endfacet
facet normal 1.0 0.0 -0.0
  outer loop
    vertex 4569.464931664721 12115.379958761418 166.95687656460896
    vertex 4569.464931664721 12116.289022648545 167.54125354621962
    vertex 4569.464931664721 12115.886458444362 168.3464810351226
  endloop
endfacet
facet normal 1.0 0.0 -0.0
  outer loop
    vertex 4569.464931664721 12115.379958761418 166.95687656460896
    vertex 4569.464931664721 12115.886458444362 168.3464810351226
    vertex 4569.464931664721 12115.665607937068 170.72302669143204
  endloop
endfacet
facet normal 1.0 0.0 -0.0
  outer loop
    vertex 4569.464931664721 12115.379958761418 166.95687656460896
    vertex 4569.464931664721 12115.665607937068 170.72302669143204
    vertex 4569.464931664721 12114.808561329586 169.37245995078524
  endloop
endfacet
facet normal 1.0 0.0 -0.0
  outer loop
    vertex 4569.464931664721 12115.379958761418 166.95687656460896
    vertex 4569.464931664721 12114.808561329586 169.37245995078524
    vertex 4569.464931664721 12114.808561329586 168.12572960836292
  endloop
endfacet
facet normal 1.0 0.0 -0.0
  outer loop
    vertex 4569.464931664721 12118.86036063206 163.11284913911751
    vertex 4569.464931664721 12114.704625850829 162.0479315741207
    vertex 4569.464931664721 12120.327842401242 162.0479315741207
  endloop
endfacet
facet normal 1.0 0.0 -0.0
  outer loop
    vertex 4569.464931664721 12114.704625850829 162.0479315741207
    vertex 4569.464931664721 12118.86036063206 163.11284913911751
    vertex 4569.464931664721 12114.704625850829 163.11284913911751
  endloop
endfacet
facet normal 1.0 0.0 -0.0
  outer loop
    vertex 4569.464931664721 12141.761240467189 153.6534325252938
    vertex 4569.464931664721 12144.839078133644 152.58851496029698
    vertex 4569.464931664721 12144.839078133644 153.6534325252938
  endloop
endfacet
facet normal 1.0 0.0 -0.0
  outer loop
    vertex 4569.464931664721 12144.839078133644 152.58851496029698
    vertex 4569.464931664721 12141.761240467189 153.6534325252938
    vertex 4569.464931664721 12142.839137581965 152.58851496029698
  endloop
endfacet
facet normal 1.0 0.0 -0.0
  outer loop
    vertex 4569.464931664721 12142.839137581965 152.58851496029698
    vertex 4569.464931664721 12141.761240467189 153.6534325252938
    vertex 4569.464931664721 12142.839137581965 144.92641920887021
  endloop
endfacet
facet normal 1.0 0.0 -0.0
  outer loop
    vertex 4569.464931664721 12142.839137581965 144.92641920887021
    vertex 4569.464931664721 12144.968873631426 143.8615016438734
    vertex 4569.464931664721 12144.968873631426 144.92641920887021
  endloop
endfacet
facet normal 1.0 0.0 -0.0
  outer loop
    vertex 4569.464931664721 12144.968873631426 143.8615016438734
    vertex 4569.464931664721 12142.839137581965 144.92641920887021
    vertex 4569.464931664721 12139.631405337195 143.8615016438734
  endloop
endfacet
facet normal 1.0 0.0 -0.0
  outer loop
    vertex 4569.464931664721 12139.631405337195 143.8615016438734
    vertex 4569.464931664721 12142.839137581965 144.92641920887021
    vertex 4569.464931664721 12141.761240467189 144.92641920887021
  endloop
endfacet
facet normal 1.0 0.0 -0.0
  outer loop
    vertex 4569.464931664721 12141.761240467189 144.92641920887021
    vertex 4569.464931664721 12142.839137581965 144.92641920887021
    vertex 4569.464931664721 12141.761240467189 153.6534325252938
  endloop
endfacet
facet normal 1.0 0.0 -0.0
  outer loop
    vertex 4569.464931664721 12139.631405337195 143.8615016438734
    vertex 4569.464931664721 12141.761240467189 144.92641920887021
    vertex 4569.464931664721 12139.631405337195 144.92641920887021
  endloop
endfacet
facet normal 1.0 0.0 -0.0
  outer loop
    vertex 4569.464931664721 12133.44798745514 150.70548943715175
    vertex 4569.464931664721 12136.525825121596 149.64057187215494
    vertex 4569.464931664721 12136.525825121596 150.70548943715175
  endloop
endfacet
facet normal 1.0 0.0 -0.0
  outer loop
    vertex 4569.464931664721 12136.525825121596 149.64057187215494
    vertex 4569.464931664721 12133.44798745514 150.70548943715175
    vertex 4569.464931664721 12134.525884569915 149.64057187215494
  endloop
endfacet
facet normal 1.0 0.0 -0.0
  outer loop
    vertex 4569.464931664721 12134.525884569915 149.64057187215494
    vertex 4569.464931664721 12133.44798745514 150.70548943715175
    vertex 4569.464931664721 12134.525884569915 144.92641920887021
  endloop
endfacet
facet normal 1.0 0.0 -0.0
  outer loop
    vertex 4569.464931664721 12134.525884569915 144.92641920887021
    vertex 4569.464931664721 12136.655620619378 143.8615016438734
    vertex 4569.464931664721 12136.655620619378 144.92641920887021
  endloop
endfacet
facet normal 1.0 0.0 -0.0
  outer loop
    vertex 4569.464931664721 12136.655620619378 143.8615016438734
    vertex 4569.464931664721 12134.525884569915 144.92641920887021
    vertex 4569.464931664721 12131.318152325148 143.8615016438734
  endloop
endfacet
facet normal 1.0 0.0 -0.0
  outer loop
    vertex 4569.464931664721 12131.318152325148 143.8615016438734
    vertex 4569.464931664721 12134.525884569915 144.92641920887021
    vertex 4569.464931664721 12133.44798745514 144.92641920887021
  endloop
endfacet
facet normal 1.0 0.0 -0.0
  outer loop
    vertex 4569.464931664721 12133.44798745514 144.92641920887021
    vertex 4569.464931664721 12134.525884569915 144.92641920887021
    vertex 4569.464931664721 12133.44798745514 150.70548943715175
  endloop
endfacet
facet normal 1.0 0.0 -0.0
  outer loop
    vertex 4569.464931664721 12131.318152325148 143.8615016438734
    vertex 4569.464931664721 12133.44798745514 144.92641920887021
    vertex 4569.464931664721 12131.318152325148 144.92641920887021
  endloop
endfacet
facet normal 1.0 0.0 -0.0
  outer loop
    vertex 4569.464931664721 12133.21415739807 153.6534325252938
    vertex 4569.464931664721 12134.759615546453 152.05605617779855
    vertex 4569.464931664721 12134.759615546453 153.6534325252938
  endloop
endfacet
facet normal 1.0 0.0 -0.0
  outer loop
    vertex 4569.464931664721 12134.759615546453 152.05605617779855
    vertex 4569.464931664721 12133.21415739807 153.6534325252938
    vertex 4569.464931664721 12133.21415739807 152.05605617779855
  endloop
endfacet
facet normal 1.0 0.0 -0.0
  outer loop
    vertex 4569.464931664721 12127.134674994773 150.31590478274467
    vertex 4569.464931664721 12127.45936190029 148.58863385693616
    vertex 4569.464931664721 12127.45936190029 150.03015652656205
  endloop
endfacet
facet normal 1.0 0.0 -0.0
  outer loop
    vertex 4569.464931664721 12127.45936190029 148.58863385693616
    vertex 4569.464931664721 12127.134674994773 150.31590478274467
    vertex 4569.464931664721 12127.06967816535 149.14705173899068
  endloop
endfacet
facet normal 1.0 0.0 -0.0
  outer loop
    vertex 4569.464931664721 12127.06967816535 149.14705173899068
    vertex 4569.464931664721 12127.134674994773 150.31590478274467
    vertex 4569.464931664721 12126.277529306757 150.8094249159089
  endloop
endfacet
facet normal 1.0 0.0 -0.0
  outer loop
    vertex 4569.464931664721 12127.06967816535 149.14705173899068
    vertex 4569.464931664721 12126.277529306757 150.8094249159089
    vertex 4569.464931664721 12126.134655178666 149.74450735091207
  endloop
endfacet
facet normal 1.0 0.0 -0.0
  outer loop
    vertex 4569.464931664721 12126.134655178666 149.74450735091207
    vertex 4569.464931664721 12126.277529306757 150.8094249159089
    vertex 4569.464931664721 12124.952921665667 150.8094249159089
  endloop
endfacet
facet normal 1.0 0.0 -0.0
  outer loop
    vertex 4569.464931664721 12126.134655178666 149.74450735091207
    vertex 4569.464931664721 12124.952921665667 150.8094249159089
    vertex 4569.464931664721 12125.173673092428 149.74450735091207
  endloop
endfacet
facet normal 1.0 0.0 -0.0
  outer loop
    vertex 4569.464931664721 12125.173673092428 149.74450735091207
    vertex 4569.464931664721 12124.952921665667 150.8094249159089
    vertex 4569.464931664721 12124.40748333339 149.51067729384167
  endloop
endfacet
facet normal 1.0 0.0 -0.0
  outer loop
    vertex 4569.464931664721 12124.40748333339 149.51067729384167
    vertex 4569.464931664721 12124.952921665667 150.8094249159089
    vertex 4569.464931664721 12123.797048171691 150.49771756017014
  endloop
endfacet
facet normal 1.0 0.0 -0.0
  outer loop
    vertex 4569.464931664721 12124.40748333339 149.51067729384167
    vertex 4569.464931664721 12123.797048171691 150.49771756017014
    vertex 4569.464931664721 12124.082796427872 148.9911980611213
  endloop
endfacet
facet normal 1.0 0.0 -0.0
  outer loop
    vertex 4569.464931664721 12124.082796427872 148.9911980611213
    vertex 4569.464931664721 12123.797048171691 150.49771756017014
    vertex 4569.464931664721 12124.082796427872 143.8615016438734
  endloop
endfacet
facet normal 1.0 0.0 -0.0
  outer loop
    vertex 4569.464931664721 12124.082796427872 143.8615016438734
    vertex 4569.464931664721 12123.797048171691 150.49771756017014
    vertex 4569.464931664721 12123.0048993131 143.8615016438734
  endloop
endfacet
facet normal 1.0 0.0 -0.0
  outer loop
    vertex 4569.464931664721 12123.0048993131 143.8615016438734
    vertex 4569.464931664721 12123.797048171691 150.49771756017014
    vertex 4569.464931664721 12123.0048993131 149.43279999517333
  endloop
endfacet
facet normal 1.0 0.0 -0.0
  outer loop
    vertex 4569.464931664721 12127.45936190029 150.70548943715175
    vertex 4569.464931664721 12128.537259015066 143.8615016438734
    vertex 4569.464931664721 12128.537259015066 150.70548943715175
  endloop
endfacet
facet normal 1.0 0.0 -0.0
  outer loop
    vertex 4569.464931664721 12128.537259015066 143.8615016438734
    vertex 4569.464931664721 12127.45936190029 150.70548943715175
    vertex 4569.464931664721 12127.45936190029 143.8615016438734
  endloop
endfacet
facet normal 1.0 0.0 -0.0
  outer loop
    vertex 4569.464931664721 12127.45936190029 143.8615016438734
    vertex 4569.464931664721 12127.45936190029 150.70548943715175
    vertex 4569.464931664721 12127.45936190029 150.03015652656205
  endloop
endfacet
facet normal 1.0 0.0 -0.0
  outer loop
    vertex 4569.464931664721 12127.45936190029 143.8615016438734
    vertex 4569.464931664721 12127.45936190029 150.03015652656205
    vertex 4569.464931664721 12127.45936190029 148.58863385693616
  endloop
endfacet
facet normal 1.0 0.0 -0.0
  outer loop
    vertex 4569.464931664721 12118.821421982724 153.6534325252938
    vertex 4569.464931664721 12119.8993190975 143.8615016438734
    vertex 4569.464931664721 12119.8993190975 153.6534325252938
  endloop
endfacet
facet normal 1.0 0.0 -0.0
  outer loop
    vertex 4569.464931664721 12119.8993190975 143.8615016438734
    vertex 4569.464931664721 12118.821421982724 153.6534325252938
    vertex 4569.464931664721 12118.821421982724 143.8615016438734
  endloop
endfacet
facet normal 1.0 0.0 -0.0
  outer loop
    vertex 4569.464931664721 12118.821421982724 143.8615016438734
    vertex 4569.464931664721 12118.821421982724 153.6534325252938
    vertex 4569.464931664721 12118.821421982724 147.80946454812195
  endloop
endfacet
facet normal 1.0 0.0 -0.0
  outer loop
    vertex 4569.464931664721 12118.821421982724 143.8615016438734
    vertex 4569.464931664721 12118.821421982724 147.80946454812195
    vertex 4569.464931664721 12118.821421982724 146.39390097805222
  endloop
endfacet
facet normal 1.0 0.0 -0.0
  outer loop
    vertex 4569.464931664721 12115.925397093695 150.70548943715175
    vertex 4569.464931664721 12118.821421982724 146.39390097805222
    vertex 4569.464931664721 12118.821421982724 147.80946454812195
  endloop
endfacet
facet normal 1.0 0.0 -0.0
  outer loop
    vertex 4569.464931664721 12118.821421982724 146.39390097805222
    vertex 4569.464931664721 12115.925397093695 150.70548943715175
    vertex 4569.464931664721 12117.96427629471 147.2250875665113
  endloop
endfacet
facet normal 1.0 0.0 -0.0
  outer loop
    vertex 4569.464931664721 12117.96427629471 147.2250875665113
    vertex 4569.464931664721 12115.925397093695 150.70548943715175
    vertex 4569.464931664721 12117.224045635228 147.96531822599133
  endloop
endfacet
facet normal 1.0 0.0 -0.0
  outer loop
    vertex 4569.464931664721 12117.224045635228 147.96531822599133
    vertex 4569.464931664721 12115.925397093695 150.70548943715175
    vertex 4569.464931664721 12114.418877594648 150.70548943715175
  endloop
endfacet
facet normal 1.0 0.0 -0.0
  outer loop
    vertex 4569.464931664721 12117.224045635228 147.96531822599133
    vertex 4569.464931664721 12115.600710188177 143.8615016438734
    vertex 4569.464931664721 12117.96427629471 147.2250875665113
  endloop
endfacet
facet normal 1.0 0.0 -0.0
  outer loop
    vertex 4569.464931664721 12115.600710188177 143.8615016438734
    vertex 4569.464931664721 12117.224045635228 147.96531822599133
    vertex 4569.464931664721 12114.289082096866 143.8615016438734
  endloop
endfacet
facet normal 1.0 0.0 -0.0
  outer loop
    vertex 4569.464931664721 12109.923791989067 150.8094249159089
    vertex 4569.464931664721 12110.677002198325 149.13407218921265
    vertex 4569.464931664721 12110.728920397438 150.58857440861658
  endloop
endfacet
facet normal 1.0 0.0 -0.0
  outer loop
    vertex 4569.464931664721 12110.677002198325 149.13407218921265
    vertex 4569.464931664721 12109.923791989067 150.8094249159089
    vertex 4569.464931664721 12110.495189420897 149.4457795449514
  endloop
endfacet
facet normal 1.0 0.0 -0.0
  outer loop
    vertex 4569.464931664721 12110.495189420897 149.4457795449514
    vertex 4569.464931664721 12109.923791989067 150.8094249159089
    vertex 4569.464931664721 12110.27443799414 149.62759232237687
  endloop
endfacet
facet normal 1.0 0.0 -0.0
  outer loop
    vertex 4569.464931664721 12110.27443799414 149.62759232237687
    vertex 4569.464931664721 12109.923791989067 150.8094249159089
    vertex 4569.464931664721 12109.780917860975 149.77046645046818
  endloop
endfacet
facet normal 1.0 0.0 -0.0
  outer loop
    vertex 4569.464931664721 12109.780917860975 149.77046645046818
    vertex 4569.464931664721 12109.923791989067 150.8094249159089
    vertex 4569.464931664721 12108.61206481722 150.8094249159089
  endloop
endfacet
facet normal 1.0 0.0 -0.0
  outer loop
    vertex 4569.464931664721 12109.780917860975 149.77046645046818
    vertex 4569.464931664721 12108.61206481722 150.8094249159089
    vertex 4569.464931664721 12108.7030207462 149.77046645046818
  endloop
endfacet
facet normal 1.0 0.0 -0.0
  outer loop
    vertex 4569.464931664721 12108.7030207462 149.77046645046818
    vertex 4569.464931664721 12108.61206481722 150.8094249159089
    vertex 4569.464931664721 12108.001728736053 149.5497150237085
  endloop
endfacet
facet normal 1.0 0.0 -0.0
  outer loop
    vertex 4569.464931664721 12108.001728736053 149.5497150237085
    vertex 4569.464931664721 12108.61206481722 150.8094249159089
    vertex 4569.464931664721 12107.599164531868 150.52367665972628
  endloop
endfacet
facet normal 1.0 0.0 -0.0
  outer loop
    vertex 4569.464931664721 12108.001728736053 149.5497150237085
    vertex 4569.464931664721 12107.599164531868 150.52367665972628
    vertex 4569.464931664721 12107.30043672591 149.12109263943458
  endloop
endfacet
facet normal 1.0 0.0 -0.0
  outer loop
    vertex 4569.464931664721 12107.30043672591 149.12109263943458
    vertex 4569.464931664721 12107.599164531868 150.52367665972628
    vertex 4569.464931664721 12106.716059744298 149.99121787722785
  endloop
endfacet
facet normal 1.0 0.0 -0.0
  outer loop
    vertex 4569.464931664721 12111.313297379047 150.13409200531916
    vertex 4569.464931664721 12111.74191976332 148.23798785186324
    vertex 4569.464931664721 12111.74191976332 149.39386134583913
  endloop
endfacet
facet normal 1.0 0.0 -0.0
  outer loop
    vertex 4569.464931664721 12111.74191976332 148.23798785186324
    vertex 4569.464931664721 12111.313297379047 150.13409200531916
    vertex 4569.464931664721 12111.196481431045 147.48477764260517
  endloop
endfacet
facet normal 1.0 0.0 -0.0
  outer loop
    vertex 4569.464931664721 12111.196481431045 147.48477764260517
    vertex 4569.464931664721 12111.313297379047 150.13409200531916
    vertex 4569.464931664721 12110.728920397438 150.58857440861658
  endloop
endfacet
facet normal 1.0 0.0 -0.0
  outer loop
    vertex 4569.464931664721 12111.196481431045 147.48477764260517
    vertex 4569.464931664721 12110.728920397438 150.58857440861658
    vertex 4569.464931664721 12110.677002198325 148.56267475738005
  endloop
endfacet
facet normal 1.0 0.0 -0.0
  outer loop
    vertex 4569.464931664721 12111.196481431045 147.48477764260517
    vertex 4569.464931664721 12110.677002198325 148.56267475738005
    vertex 4569.464931664721 12110.365294842584 147.0432747890858
  endloop
endfacet
facet normal 1.0 0.0 -0.0
  outer loop
    vertex 4569.464931664721 12110.677002198325 148.56267475738005
    vertex 4569.464931664721 12110.728920397438 150.58857440861658
    vertex 4569.464931664721 12110.677002198325 149.13407218921265
  endloop
endfacet
facet normal 1.0 0.0 -0.0
  outer loop
    vertex 4569.464931664721 12110.365294842584 147.0432747890858
    vertex 4569.464931664721 12110.677002198325 148.56267475738005
    vertex 4569.464931664721 12110.417213041697 148.2120287523071
  endloop
endfacet
facet normal 1.0 0.0 -0.0
  outer loop
    vertex 4569.464931664721 12110.365294842584 147.0432747890858
    vertex 4569.464931664721 12110.417213041697 148.2120287523071
    vertex 4569.464931664721 12110.053587486846 148.03021597488163
  endloop
endfacet
facet normal 1.0 0.0 -0.0
  outer loop
    vertex 4569.464931664721 12110.365294842584 147.0432747890858
    vertex 4569.464931664721 12110.053587486846 148.03021597488163
    vertex 4569.464931664721 12108.235459712592 146.66666968445676
  endloop
endfacet
facet normal 1.0 0.0 -0.0
  outer loop
    vertex 4569.464931664721 12108.235459712592 146.66666968445676
    vertex 4569.464931664721 12110.053587486846 148.03021597488163
    vertex 4569.464931664721 12107.80693640885 147.64063132047454
  endloop
endfacet
facet normal 1.0 0.0 -0.0
  outer loop
    vertex 4569.464931664721 12108.235459712592 146.66666968445676
    vertex 4569.464931664721 12107.80693640885 147.64063132047454
    vertex 4569.464931664721 12107.845875058185 146.39390097805222
  endloop
endfacet
facet normal 1.0 0.0 -0.0
  outer loop
    vertex 4569.464931664721 12107.845875058185 146.39390097805222
    vertex 4569.464931664721 12107.80693640885 147.64063132047454
    vertex 4569.464931664721 12107.625123631424 146.01729587342317
  endloop
endfacet
facet normal 1.0 0.0 -0.0
  outer loop
    vertex 4569.464931664721 12107.625123631424 146.01729587342317
    vertex 4569.464931664721 12107.80693640885 147.64063132047454
    vertex 4569.464931664721 12107.06670574937 147.1471111873103
  endloop
endfacet
facet normal 1.0 0.0 -0.0
  outer loop
    vertex 4569.464931664721 12107.625123631424 146.01729587342317
    vertex 4569.464931664721 12107.06670574937 147.1471111873103
    vertex 4569.464931664721 12107.625123631424 145.52377574025894
  endloop
endfacet
facet normal 1.0 0.0 -0.0
  outer loop
    vertex 4569.464931664721 12111.235420080378 145.58877256968188
    vertex 4569.464931664721 12111.663943384121 144.52385500468503
    vertex 4569.464931664721 12111.988630289636 144.8615214599799
  endloop
endfacet
facet normal 1.0 0.0 -0.0
  outer loop
    vertex 4569.464931664721 12111.663943384121 144.52385500468503
    vertex 4569.464931664721 12111.235420080378 145.58877256968188
    vertex 4569.464931664721 12111.027648203397 144.04331442129887
  endloop
endfacet
facet normal 1.0 0.0 -0.0
  outer loop
    vertex 4569.464931664721 12111.027648203397 144.04331442129887
    vertex 4569.464931664721 12111.235420080378 145.58877256968188
    vertex 4569.464931664721 12110.962651373975 145.2900447637212
  endloop
endfacet
facet normal 1.0 0.0 -0.0
  outer loop
    vertex 4569.464931664721 12111.027648203397 144.04331442129887
    vertex 4569.464931664721 12110.962651373975 145.2900447637212
    vertex 4569.464931664721 12109.975710188177 143.75756616511626
  endloop
endfacet
facet normal 1.0 0.0 -0.0
  outer loop
    vertex 4569.464931664721 12109.975710188177 143.75756616511626
    vertex 4569.464931664721 12110.962651373975 145.2900447637212
    vertex 4569.464931664721 12110.599025819121 145.01727605731662
  endloop
endfacet
facet normal 1.0 0.0 -0.0
  outer loop
    vertex 4569.464931664721 12109.975710188177 143.75756616511626
    vertex 4569.464931664721 12110.599025819121 145.01727605731662
    vertex 4569.464931664721 12109.832836060088 144.809504180335
  endloop
endfacet
facet normal 1.0 0.0 -0.0
  outer loop
    vertex 4569.464931664721 12109.975710188177 143.75756616511626
    vertex 4569.464931664721 12109.832836060088 144.809504180335
    vertex 4569.464931664721 12108.573126167887 143.75756616511626
  endloop
endfacet
facet normal 1.0 0.0 -0.0
  outer loop
    vertex 4569.464931664721 12108.573126167887 143.75756616511626
    vertex 4569.464931664721 12109.832836060088 144.809504180335
    vertex 4569.464931664721 12108.716000295979 144.809504180335
  endloop
endfacet
facet normal 1.0 0.0 -0.0
  outer loop
    vertex 4569.464931664721 12108.573126167887 143.75756616511626
    vertex 4569.464931664721 12108.716000295979 144.809504180335
    vertex 4569.464931664721 12108.170561963703 144.96535785820438
  endloop
endfacet
facet normal 1.0 0.0 -0.0
  outer loop
    vertex 4569.464931664721 12108.573126167887 143.75756616511626
    vertex 4569.464931664721 12108.170561963703 144.96535785820438
    vertex 4569.464931664721 12107.690021380316 144.01735532174274
  endloop
endfacet
facet normal 1.0 0.0 -0.0
  outer loop
    vertex 4569.464931664721 12107.690021380316 144.01735532174274
    vertex 4569.464931664721 12108.170561963703 144.96535785820438
    vertex 4569.464931664721 12107.845875058185 145.19908883474213
  endloop
endfacet
facet normal 1.0 0.0 -0.0
  outer loop
    vertex 4569.464931664721 12107.690021380316 144.01735532174274
    vertex 4569.464931664721 12107.845875058185 145.19908883474213
    vertex 4569.464931664721 12107.625123631424 145.52377574025894
  endloop
endfacet
facet normal 1.0 0.0 -0.0
  outer loop
    vertex 4569.464931664721 12107.690021380316 144.01735532174274
    vertex 4569.464931664721 12107.625123631424 145.52377574025894
    vertex 4569.464931664721 12107.06670574937 144.4588581752621
  endloop
endfacet
facet normal 1.0 0.0 -0.0
  outer loop
    vertex 4569.464931664721 12107.06670574937 144.4588581752621
    vertex 4569.464931664721 12107.625123631424 145.52377574025894
    vertex 4569.464931664721 12107.06670574937 147.1471111873103
  endloop
endfacet
facet normal 1.0 0.0 -0.0
  outer loop
    vertex 4569.464931664721 12107.06670574937 144.4588581752621
    vertex 4569.464931664721 12107.06670574937 147.1471111873103
    vertex 4569.464931664721 12106.560206066428 146.31602367938385
  endloop
endfacet
facet normal 1.0 0.0 -0.0
  outer loop
    vertex 4569.464931664721 12107.06670574937 144.4588581752621
    vertex 4569.464931664721 12106.560206066428 146.31602367938385
    vertex 4569.464931664721 12106.560206066428 145.2120683845202
  endloop
endfacet
endsolid thesis3
