solid thesis3
facet normal -1.0 -0.0 -0.0
  outer loop
    vertex 2665.406016904395 13406.945046855813 1123.4240690364102
    vertex 2665.406016904395 13408.561892527978 1121.8266926889148
    vertex 2665.406016904395 13406.945046855813 1109.5737995373613
  endloop
endfacet
facet normal -1.0 -0.0 -0.0
  outer loop
    vertex 2665.406016904395 13408.561892527978 1121.8266926889148
    vertex 2665.406016904395 13406.945046855813 1123.4240690364102
    vertex 2665.406016904395 13412.711087994052 1123.4240690364102
  endloop
endfacet
facet normal -1.0 -0.0 -0.0
  outer loop
    vertex 2665.406016904395 13408.561892527978 1121.8266926889148
    vertex 2665.406016904395 13412.711087994052 1123.4240690364102
    vertex 2665.406016904395 13412.53586407205 1121.8266926889148
  endloop
endfacet
facet normal -1.0 -0.0 -0.0
  outer loop
    vertex 2665.406016904395 13412.53586407205 1121.8266926889148
    vertex 2665.406016904395 13412.711087994052 1123.4240690364102
    vertex 2665.406016904395 13413.685148710601 1121.4955655487754
  endloop
endfacet
facet normal -1.0 -0.0 -0.0
  outer loop
    vertex 2665.406016904395 13413.685148710601 1121.4955655487754
    vertex 2665.406016904395 13412.711087994052 1123.4240690364102
    vertex 2665.406016904395 13414.522775533684 1122.956508002802
  endloop
endfacet
facet normal -1.0 -0.0 -0.0
  outer loop
    vertex 2665.406016904395 13413.685148710601 1121.4955655487754
    vertex 2665.406016904395 13414.522775533684 1122.956508002802
    vertex 2665.406016904395 13414.522775533684 1120.6579387256934
  endloop
endfacet
facet normal -1.0 -0.0 -0.0
  outer loop
    vertex 2665.406016904395 13414.522775533684 1120.6579387256934
    vertex 2665.406016904395 13414.522775533684 1122.956508002802
    vertex 2665.406016904395 13415.964248663044 1121.5150348734423
  endloop
endfacet
facet normal -1.0 -0.0 -0.0
  outer loop
    vertex 2665.406016904395 13414.522775533684 1120.6579387256934
    vertex 2665.406016904395 13415.964248663044 1121.5150348734423
    vertex 2665.406016904395 13414.853902673824 1119.4891847624722
  endloop
endfacet
facet normal -1.0 -0.0 -0.0
  outer loop
    vertex 2665.406016904395 13414.853902673824 1119.4891847624722
    vertex 2665.406016904395 13415.964248663044 1121.5150348734423
    vertex 2665.406016904395 13415.048744541293 1116.2360240934804
  endloop
endfacet
facet normal -1.0 -0.0 -0.0
  outer loop
    vertex 2665.406016904395 13415.048744541293 1116.2360240934804
    vertex 2665.406016904395 13415.964248663044 1121.5150348734423
    vertex 2665.406016904395 13416.003187312379 1117.6385585735059
  endloop
endfacet
facet normal -1.0 -0.0 -0.0
  outer loop
    vertex 2665.406016904395 13416.003187312379 1117.6385585735059
    vertex 2665.406016904395 13415.964248663044 1121.5150348734423
    vertex 2665.406016904395 13416.529156319988 1119.5475927364735
  endloop
endfacet
facet normal -1.0 -0.0 -0.0
  outer loop
    vertex 2665.406016904395 13413.957867876741 1117.5021246800372
    vertex 2665.406016904395 13413.89945990274 1115.6320291664038
    vertex 2665.406016904395 13412.789113913519 1116.9372170230936
  endloop
endfacet
facet normal -1.0 -0.0 -0.0
  outer loop
    vertex 2665.406016904395 13413.89945990274 1115.6320291664038
    vertex 2665.406016904395 13413.957867876741 1117.5021246800372
    vertex 2665.406016904395 13415.048744541293 1116.2360240934804
  endloop
endfacet
facet normal -1.0 -0.0 -0.0
  outer loop
    vertex 2665.406016904395 13415.048744541293 1116.2360240934804
    vertex 2665.406016904395 13413.957867876741 1117.5021246800372
    vertex 2665.406016904395 13414.522775533684 1118.339751503119
  endloop
endfacet
facet normal -1.0 -0.0 -0.0
  outer loop
    vertex 2665.406016904395 13415.048744541293 1116.2360240934804
    vertex 2665.406016904395 13414.522775533684 1118.339751503119
    vertex 2665.406016904395 13414.853902673824 1119.4891847624722
  endloop
endfacet
facet normal -1.0 -0.0 -0.0
  outer loop
    vertex 2665.406016904395 13412.789113913519 1116.9372170230936
    vertex 2665.406016904395 13408.561892527978 1115.3398406755985
    vertex 2665.406016904395 13408.561892527978 1116.9372170230936
  endloop
endfacet
facet normal -1.0 -0.0 -0.0
  outer loop
    vertex 2665.406016904395 13408.561892527978 1115.3398406755985
    vertex 2665.406016904395 13412.789113913519 1116.9372170230936
    vertex 2665.406016904395 13412.282614230577 1115.3398406755985
  endloop
endfacet
facet normal -1.0 -0.0 -0.0
  outer loop
    vertex 2665.406016904395 13412.282614230577 1115.3398406755985
    vertex 2665.406016904395 13412.789113913519 1116.9372170230936
    vertex 2665.406016904395 13414.795494699822 1109.5737995373613
  endloop
endfacet
facet normal -1.0 -0.0 -0.0
  outer loop
    vertex 2665.406016904395 13414.795494699822 1109.5737995373613
    vertex 2665.406016904395 13412.789113913519 1116.9372170230936
    vertex 2665.406016904395 13413.89945990274 1115.6320291664038
  endloop
endfacet
facet normal -1.0 -0.0 -0.0
  outer loop
    vertex 2665.406016904395 13414.795494699822 1109.5737995373613
    vertex 2665.406016904395 13413.89945990274 1115.6320291664038
    vertex 2665.406016904395 13416.587712914787 1109.5737995373613
  endloop
endfacet
facet normal -1.0 -0.0 -0.0
  outer loop
    vertex 2665.406016904395 13408.561892527978 1121.8266926889148
    vertex 2665.406016904395 13408.561892527978 1109.5737995373613
    vertex 2665.406016904395 13406.945046855813 1109.5737995373613
  endloop
endfacet
facet normal -1.0 -0.0 -0.0
  outer loop
    vertex 2665.406016904395 13408.561892527978 1109.5737995373613
    vertex 2665.406016904395 13408.561892527978 1121.8266926889148
    vertex 2665.406016904395 13408.561892527978 1116.9372170230936
  endloop
endfacet
facet normal -1.0 -0.0 -0.0
  outer loop
    vertex 2665.406016904395 13408.561892527978 1109.5737995373613
    vertex 2665.406016904395 13408.561892527978 1116.9372170230936
    vertex 2665.406016904395 13408.561892527978 1115.3398406755985
  endloop
endfacet
facet normal -1.0 -0.0 -0.0
  outer loop
    vertex 2665.406016904395 13419.609768241357 1117.5996199241715
    vertex 2665.406016904395 13419.20061518175 1113.5477710814323
    vertex 2665.406016904395 13419.20061518175 1115.8463403585408
  endloop
endfacet
facet normal -1.0 -0.0 -0.0
  outer loop
    vertex 2665.406016904395 13419.20061518175 1113.5477710814323
    vertex 2665.406016904395 13419.609768241357 1117.5996199241715
    vertex 2665.406016904395 13419.609768241357 1111.7944915158014
  endloop
endfacet
facet normal -1.0 -0.0 -0.0
  outer loop
    vertex 2665.406016904395 13419.609768241357 1111.7944915158014
    vertex 2665.406016904395 13419.609768241357 1117.5996199241715
    vertex 2665.406016904395 13420.642236931908 1119.0605623781983
  endloop
endfacet
facet normal -1.0 -0.0 -0.0
  outer loop
    vertex 2665.406016904395 13419.609768241357 1111.7944915158014
    vertex 2665.406016904395 13420.642236931908 1119.0605623781983
    vertex 2665.406016904395 13420.642236931908 1110.3335490617746
  endloop
endfacet
facet normal -1.0 -0.0 -0.0
  outer loop
    vertex 2665.406016904395 13420.642236931908 1110.3335490617746
    vertex 2665.406016904395 13420.642236931908 1119.0605623781983
    vertex 2665.406016904395 13420.817460853914 1115.671116436537
  endloop
endfacet
facet normal -1.0 -0.0 -0.0
  outer loop
    vertex 2665.406016904395 13420.817460853914 1115.671116436537
    vertex 2665.406016904395 13420.642236931908 1119.0605623781983
    vertex 2665.406016904395 13421.090180020052 1116.9566863477608
  endloop
endfacet
facet normal -1.0 -0.0 -0.0
  outer loop
    vertex 2665.406016904395 13421.090180020052 1116.9566863477608
    vertex 2665.406016904395 13420.642236931908 1119.0605623781983
    vertex 2665.406016904395 13422.59020974421 1119.9956844454146
  endloop
endfacet
facet normal -1.0 -0.0 -0.0
  outer loop
    vertex 2665.406016904395 13421.090180020052 1116.9566863477608
    vertex 2665.406016904395 13422.59020974421 1119.9956844454146
    vertex 2665.406016904395 13421.713495650996 1117.8137824955097
  endloop
endfacet
facet normal -1.0 -0.0 -0.0
  outer loop
    vertex 2665.406016904395 13421.713495650996 1117.8137824955097
    vertex 2665.406016904395 13422.59020974421 1119.9956844454146
    vertex 2665.406016904395 13422.882398235017 1118.3983080979192
  endloop
endfacet
facet normal -1.0 -0.0 -0.0
  outer loop
    vertex 2665.406016904395 13422.882398235017 1118.3983080979192
    vertex 2665.406016904395 13422.59020974421 1119.9956844454146
    vertex 2665.406016904395 13424.927717670653 1119.9956844454146
  endloop
endfacet
facet normal -1.0 -0.0 -0.0
  outer loop
    vertex 2665.406016904395 13422.882398235017 1118.3983080979192
    vertex 2665.406016904395 13424.927717670653 1119.9956844454146
    vertex 2665.406016904395 13424.635529179846 1118.3983080979192
  endloop
endfacet
facet normal -1.0 -0.0 -0.0
  outer loop
    vertex 2665.406016904395 13424.635529179846 1118.3983080979192
    vertex 2665.406016904395 13424.927717670653 1119.9956844454146
    vertex 2665.406016904395 13425.804431763867 1117.8137824955097
  endloop
endfacet
facet normal -1.0 -0.0 -0.0
  outer loop
    vertex 2665.406016904395 13425.804431763867 1117.8137824955097
    vertex 2665.406016904395 13424.927717670653 1119.9956844454146
    vertex 2665.406016904395 13426.875839103754 1119.0605623781983
  endloop
endfacet
facet normal -1.0 -0.0 -0.0
  outer loop
    vertex 2665.406016904395 13425.804431763867 1117.8137824955097
    vertex 2665.406016904395 13426.875839103754 1119.0605623781983
    vertex 2665.406016904395 13426.427747394811 1116.9566863477608
  endloop
endfacet
facet normal -1.0 -0.0 -0.0
  outer loop
    vertex 2665.406016904395 13426.427747394811 1116.9566863477608
    vertex 2665.406016904395 13426.875839103754 1119.0605623781983
    vertex 2665.406016904395 13426.70046656095 1115.671116436537
  endloop
endfacet
facet normal -1.0 -0.0 -0.0
  outer loop
    vertex 2665.406016904395 13426.70046656095 1115.671116436537
    vertex 2665.406016904395 13426.875839103754 1119.0605623781983
    vertex 2665.406016904395 13426.70046656095 1113.742464328103
  endloop
endfacet
facet normal -1.0 -0.0 -0.0
  outer loop
    vertex 2665.406016904395 13420.642236931908 1110.3335490617746
    vertex 2665.406016904395 13421.090180020052 1112.4374250922122
    vertex 2665.406016904395 13422.609679068879 1109.4178963192255
  endloop
endfacet
facet normal -1.0 -0.0 -0.0
  outer loop
    vertex 2665.406016904395 13421.090180020052 1112.4374250922122
    vertex 2665.406016904395 13420.642236931908 1110.3335490617746
    vertex 2665.406016904395 13420.817460853914 1113.742464328103
  endloop
endfacet
facet normal -1.0 -0.0 -0.0
  outer loop
    vertex 2665.406016904395 13420.817460853914 1113.742464328103
    vertex 2665.406016904395 13420.642236931908 1110.3335490617746
    vertex 2665.406016904395 13420.817460853914 1115.671116436537
  endloop
endfacet
facet normal -1.0 -0.0 -0.0
  outer loop
    vertex 2665.406016904395 13422.609679068879 1109.4178963192255
    vertex 2665.406016904395 13421.090180020052 1112.4374250922122
    vertex 2665.406016904395 13421.713495650996 1111.5607109989971
  endloop
endfacet
facet normal -1.0 -0.0 -0.0
  outer loop
    vertex 2665.406016904395 13422.609679068879 1109.4178963192255
    vertex 2665.406016904395 13421.713495650996 1111.5607109989971
    vertex 2665.406016904395 13422.882398235017 1110.9958033420537
  endloop
endfacet
facet normal -1.0 -0.0 -0.0
  outer loop
    vertex 2665.406016904395 13422.609679068879 1109.4178963192255
    vertex 2665.406016904395 13422.882398235017 1110.9958033420537
    vertex 2665.406016904395 13424.908248345984 1109.4178963192255
  endloop
endfacet
facet normal -1.0 -0.0 -0.0
  outer loop
    vertex 2665.406016904395 13424.908248345984 1109.4178963192255
    vertex 2665.406016904395 13422.882398235017 1110.9958033420537
    vertex 2665.406016904395 13424.635529179846 1110.9958033420537
  endloop
endfacet
facet normal -1.0 -0.0 -0.0
  outer loop
    vertex 2665.406016904395 13424.908248345984 1109.4178963192255
    vertex 2665.406016904395 13424.635529179846 1110.9958033420537
    vertex 2665.406016904395 13425.804431763867 1111.5607109989971
  endloop
endfacet
facet normal -1.0 -0.0 -0.0
  outer loop
    vertex 2665.406016904395 13424.908248345984 1109.4178963192255
    vertex 2665.406016904395 13425.804431763867 1111.5607109989971
    vertex 2665.406016904395 13426.875839103754 1110.3335490617746
  endloop
endfacet
facet normal -1.0 -0.0 -0.0
  outer loop
    vertex 2665.406016904395 13426.875839103754 1110.3335490617746
    vertex 2665.406016904395 13425.804431763867 1111.5607109989971
    vertex 2665.406016904395 13426.427747394811 1112.4374250922122
  endloop
endfacet
facet normal -1.0 -0.0 -0.0
  outer loop
    vertex 2665.406016904395 13426.875839103754 1110.3335490617746
    vertex 2665.406016904395 13426.427747394811 1112.4374250922122
    vertex 2665.406016904395 13426.70046656095 1113.742464328103
  endloop
endfacet
facet normal -1.0 -0.0 -0.0
  outer loop
    vertex 2665.406016904395 13426.875839103754 1110.3335490617746
    vertex 2665.406016904395 13426.70046656095 1113.742464328103
    vertex 2665.406016904395 13426.875839103754 1119.0605623781983
  endloop
endfacet
facet normal -1.0 -0.0 -0.0
  outer loop
    vertex 2665.406016904395 13426.875839103754 1110.3335490617746
    vertex 2665.406016904395 13426.875839103754 1119.0605623781983
    vertex 2665.406016904395 13427.908159173507 1117.5996199241715
  endloop
endfacet
facet normal -1.0 -0.0 -0.0
  outer loop
    vertex 2665.406016904395 13426.875839103754 1110.3335490617746
    vertex 2665.406016904395 13427.908159173507 1117.5996199241715
    vertex 2665.406016904395 13427.908159173507 1111.7944915158014
  endloop
endfacet
facet normal -1.0 -0.0 -0.0
  outer loop
    vertex 2665.406016904395 13427.908159173507 1111.7944915158014
    vertex 2665.406016904395 13427.908159173507 1117.5996199241715
    vertex 2665.406016904395 13428.317312233114 1115.8463403585408
  endloop
endfacet
facet normal -1.0 -0.0 -0.0
  outer loop
    vertex 2665.406016904395 13427.908159173507 1111.7944915158014
    vertex 2665.406016904395 13428.317312233114 1115.8463403585408
    vertex 2665.406016904395 13428.317312233114 1113.5477710814323
  endloop
endfacet
facet normal -1.0 -0.0 -0.0
  outer loop
    vertex 2665.406016904395 13432.079647759429 1117.5996199241715
    vertex 2665.406016904395 13431.670494699822 1113.5477710814323
    vertex 2665.406016904395 13431.670494699822 1115.8463403585408
  endloop
endfacet
facet normal -1.0 -0.0 -0.0
  outer loop
    vertex 2665.406016904395 13431.670494699822 1113.5477710814323
    vertex 2665.406016904395 13432.079647759429 1117.5996199241715
    vertex 2665.406016904395 13432.079647759429 1111.7944915158014
  endloop
endfacet
facet normal -1.0 -0.0 -0.0
  outer loop
    vertex 2665.406016904395 13432.079647759429 1111.7944915158014
    vertex 2665.406016904395 13432.079647759429 1117.5996199241715
    vertex 2665.406016904395 13433.11211644998 1119.0605623781983
  endloop
endfacet
facet normal -1.0 -0.0 -0.0
  outer loop
    vertex 2665.406016904395 13432.079647759429 1111.7944915158014
    vertex 2665.406016904395 13433.11211644998 1119.0605623781983
    vertex 2665.406016904395 13433.11211644998 1110.3335490617746
  endloop
endfacet
facet normal -1.0 -0.0 -0.0
  outer loop
    vertex 2665.406016904395 13433.11211644998 1110.3335490617746
    vertex 2665.406016904395 13433.11211644998 1119.0605623781983
    vertex 2665.406016904395 13433.287340371984 1115.671116436537
  endloop
endfacet
facet normal -1.0 -0.0 -0.0
  outer loop
    vertex 2665.406016904395 13433.287340371984 1115.671116436537
    vertex 2665.406016904395 13433.11211644998 1119.0605623781983
    vertex 2665.406016904395 13433.560059538122 1116.9566863477608
  endloop
endfacet
facet normal -1.0 -0.0 -0.0
  outer loop
    vertex 2665.406016904395 13433.560059538122 1116.9566863477608
    vertex 2665.406016904395 13433.11211644998 1119.0605623781983
    vertex 2665.406016904395 13435.060089262282 1119.9956844454146
  endloop
endfacet
facet normal -1.0 -0.0 -0.0
  outer loop
    vertex 2665.406016904395 13433.560059538122 1116.9566863477608
    vertex 2665.406016904395 13435.060089262282 1119.9956844454146
    vertex 2665.406016904395 13434.183375169068 1117.8137824955097
  endloop
endfacet
facet normal -1.0 -0.0 -0.0
  outer loop
    vertex 2665.406016904395 13434.183375169068 1117.8137824955097
    vertex 2665.406016904395 13435.060089262282 1119.9956844454146
    vertex 2665.406016904395 13435.352277753087 1118.3983080979192
  endloop
endfacet
facet normal -1.0 -0.0 -0.0
  outer loop
    vertex 2665.406016904395 13435.352277753087 1118.3983080979192
    vertex 2665.406016904395 13435.060089262282 1119.9956844454146
    vertex 2665.406016904395 13437.397597188727 1119.9956844454146
  endloop
endfacet
facet normal -1.0 -0.0 -0.0
  outer loop
    vertex 2665.406016904395 13435.352277753087 1118.3983080979192
    vertex 2665.406016904395 13437.397597188727 1119.9956844454146
    vertex 2665.406016904395 13437.10540869792 1118.3983080979192
  endloop
endfacet
facet normal -1.0 -0.0 -0.0
  outer loop
    vertex 2665.406016904395 13437.10540869792 1118.3983080979192
    vertex 2665.406016904395 13437.397597188727 1119.9956844454146
    vertex 2665.406016904395 13438.27431128194 1117.8137824955097
  endloop
endfacet
facet normal -1.0 -0.0 -0.0
  outer loop
    vertex 2665.406016904395 13438.27431128194 1117.8137824955097
    vertex 2665.406016904395 13437.397597188727 1119.9956844454146
    vertex 2665.406016904395 13439.345718621826 1119.0605623781983
  endloop
endfacet
facet normal -1.0 -0.0 -0.0
  outer loop
    vertex 2665.406016904395 13438.27431128194 1117.8137824955097
    vertex 2665.406016904395 13439.345718621826 1119.0605623781983
    vertex 2665.406016904395 13438.897626912885 1116.9566863477608
  endloop
endfacet
facet normal -1.0 -0.0 -0.0
  outer loop
    vertex 2665.406016904395 13438.897626912885 1116.9566863477608
    vertex 2665.406016904395 13439.345718621826 1119.0605623781983
    vertex 2665.406016904395 13439.170346079023 1115.671116436537
  endloop
endfacet
facet normal -1.0 -0.0 -0.0
  outer loop
    vertex 2665.406016904395 13439.170346079023 1115.671116436537
    vertex 2665.406016904395 13439.345718621826 1119.0605623781983
    vertex 2665.406016904395 13439.170346079023 1113.742464328103
  endloop
endfacet
facet normal -1.0 -0.0 -0.0
  outer loop
    vertex 2665.406016904395 13433.11211644998 1110.3335490617746
    vertex 2665.406016904395 13433.560059538122 1112.4374250922122
    vertex 2665.406016904395 13435.07955858695 1109.4178963192255
  endloop
endfacet
facet normal -1.0 -0.0 -0.0
  outer loop
    vertex 2665.406016904395 13433.560059538122 1112.4374250922122
    vertex 2665.406016904395 13433.11211644998 1110.3335490617746
    vertex 2665.406016904395 13433.287340371984 1113.742464328103
  endloop
endfacet
facet normal -1.0 -0.0 -0.0
  outer loop
    vertex 2665.406016904395 13433.287340371984 1113.742464328103
    vertex 2665.406016904395 13433.11211644998 1110.3335490617746
    vertex 2665.406016904395 13433.287340371984 1115.671116436537
  endloop
endfacet
facet normal -1.0 -0.0 -0.0
  outer loop
    vertex 2665.406016904395 13435.07955858695 1109.4178963192255
    vertex 2665.406016904395 13433.560059538122 1112.4374250922122
    vertex 2665.406016904395 13434.183375169068 1111.5607109989971
  endloop
endfacet
facet normal -1.0 -0.0 -0.0
  outer loop
    vertex 2665.406016904395 13435.07955858695 1109.4178963192255
    vertex 2665.406016904395 13434.183375169068 1111.5607109989971
    vertex 2665.406016904395 13435.352277753087 1110.9958033420537
  endloop
endfacet
facet normal -1.0 -0.0 -0.0
  outer loop
    vertex 2665.406016904395 13435.07955858695 1109.4178963192255
    vertex 2665.406016904395 13435.352277753087 1110.9958033420537
    vertex 2665.406016904395 13437.378127864058 1109.4178963192255
  endloop
endfacet
facet normal -1.0 -0.0 -0.0
  outer loop
    vertex 2665.406016904395 13437.378127864058 1109.4178963192255
    vertex 2665.406016904395 13435.352277753087 1110.9958033420537
    vertex 2665.406016904395 13437.10540869792 1110.9958033420537
  endloop
endfacet
facet normal -1.0 -0.0 -0.0
  outer loop
    vertex 2665.406016904395 13437.378127864058 1109.4178963192255
    vertex 2665.406016904395 13437.10540869792 1110.9958033420537
    vertex 2665.406016904395 13438.27431128194 1111.5607109989971
  endloop
endfacet
facet normal -1.0 -0.0 -0.0
  outer loop
    vertex 2665.406016904395 13437.378127864058 1109.4178963192255
    vertex 2665.406016904395 13438.27431128194 1111.5607109989971
    vertex 2665.406016904395 13439.345718621826 1110.3335490617746
  endloop
endfacet
facet normal -1.0 -0.0 -0.0
  outer loop
    vertex 2665.406016904395 13439.345718621826 1110.3335490617746
    vertex 2665.406016904395 13438.27431128194 1111.5607109989971
    vertex 2665.406016904395 13438.897626912885 1112.4374250922122
  endloop
endfacet
facet normal -1.0 -0.0 -0.0
  outer loop
    vertex 2665.406016904395 13439.345718621826 1110.3335490617746
    vertex 2665.406016904395 13438.897626912885 1112.4374250922122
    vertex 2665.406016904395 13439.170346079023 1113.742464328103
  endloop
endfacet
facet normal -1.0 -0.0 -0.0
  outer loop
    vertex 2665.406016904395 13439.345718621826 1110.3335490617746
    vertex 2665.406016904395 13439.170346079023 1113.742464328103
    vertex 2665.406016904395 13439.345718621826 1119.0605623781983
  endloop
endfacet
facet normal -1.0 -0.0 -0.0
  outer loop
    vertex 2665.406016904395 13439.345718621826 1110.3335490617746
    vertex 2665.406016904395 13439.345718621826 1119.0605623781983
    vertex 2665.406016904395 13440.378038691577 1117.5996199241715
  endloop
endfacet
facet normal -1.0 -0.0 -0.0
  outer loop
    vertex 2665.406016904395 13439.345718621826 1110.3335490617746
    vertex 2665.406016904395 13440.378038691577 1117.5996199241715
    vertex 2665.406016904395 13440.378038691577 1111.7944915158014
  endloop
endfacet
facet normal -1.0 -0.0 -0.0
  outer loop
    vertex 2665.406016904395 13440.378038691577 1111.7944915158014
    vertex 2665.406016904395 13440.378038691577 1117.5996199241715
    vertex 2665.406016904395 13440.787191751184 1115.8463403585408
  endloop
endfacet
facet normal -1.0 -0.0 -0.0
  outer loop
    vertex 2665.406016904395 13440.378038691577 1111.7944915158014
    vertex 2665.406016904395 13440.787191751184 1115.8463403585408
    vertex 2665.406016904395 13440.787191751184 1113.5477710814323
  endloop
endfacet
facet normal -1.0 -0.0 -0.0
  outer loop
    vertex 2665.406016904395 13449.809068732797 1119.3332815443366
    vertex 2665.406016904395 13449.594757540659 1116.7034365062896
    vertex 2665.406016904395 13449.146814452517 1118.5151240459218
  endloop
endfacet
facet normal -1.0 -0.0 -0.0
  outer loop
    vertex 2665.406016904395 13449.594757540659 1116.7034365062896
    vertex 2665.406016904395 13449.809068732797 1119.3332815443366
    vertex 2665.406016904395 13450.023379924934 1117.5606812748374
  endloop
endfacet
facet normal -1.0 -0.0 -0.0
  outer loop
    vertex 2665.406016904395 13450.023379924934 1117.5606812748374
    vertex 2665.406016904395 13449.809068732797 1119.3332815443366
    vertex 2665.406016904395 13450.783129449346 1119.9956844454146
  endloop
endfacet
facet normal -1.0 -0.0 -0.0
  outer loop
    vertex 2665.406016904395 13450.023379924934 1117.5606812748374
    vertex 2665.406016904395 13450.783129449346 1119.9956844454146
    vertex 2665.406016904395 13450.997440641484 1118.3983080979192
  endloop
endfacet
facet normal -1.0 -0.0 -0.0
  outer loop
    vertex 2665.406016904395 13450.997440641484 1118.3983080979192
    vertex 2665.406016904395 13450.783129449346 1119.9956844454146
    vertex 2665.406016904395 13451.912944763233 1119.9956844454146
  endloop
endfacet
facet normal -1.0 -0.0 -0.0
  outer loop
    vertex 2665.406016904395 13450.997440641484 1118.3983080979192
    vertex 2665.406016904395 13451.912944763233 1119.9956844454146
    vertex 2665.406016904395 13451.523261028293 1118.3983080979192
  endloop
endfacet
facet normal -1.0 -0.0 -0.0
  outer loop
    vertex 2665.406016904395 13451.523261028293 1118.3983080979192
    vertex 2665.406016904395 13451.912944763233 1119.9956844454146
    vertex 2665.406016904395 13452.088317306037 1118.106119607114
  endloop
endfacet
facet normal -1.0 -0.0 -0.0
  outer loop
    vertex 2665.406016904395 13452.088317306037 1118.106119607114
    vertex 2665.406016904395 13451.912944763233 1119.9956844454146
    vertex 2665.406016904395 13453.081698726453 1119.5281234118063
  endloop
endfacet
facet normal -1.0 -0.0 -0.0
  outer loop
    vertex 2665.406016904395 13452.088317306037 1118.106119607114
    vertex 2665.406016904395 13453.081698726453 1119.5281234118063
    vertex 2665.406016904395 13452.575199043513 1117.3658394073675
  endloop
endfacet
facet normal -1.0 -0.0 -0.0
  outer loop
    vertex 2665.406016904395 13452.575199043513 1117.3658394073675
    vertex 2665.406016904395 13453.081698726453 1119.5281234118063
    vertex 2665.406016904395 13452.575199043513 1109.5737995373613
  endloop
endfacet
facet normal -1.0 -0.0 -0.0
  outer loop
    vertex 2665.406016904395 13452.575199043513 1109.5737995373613
    vertex 2665.406016904395 13453.081698726453 1119.5281234118063
    vertex 2665.406016904395 13454.192044715674 1109.5737995373613
  endloop
endfacet
facet normal -1.0 -0.0 -0.0
  outer loop
    vertex 2665.406016904395 13454.192044715674 1109.5737995373613
    vertex 2665.406016904395 13453.081698726453 1119.5281234118063
    vertex 2665.406016904395 13454.192044715674 1117.9307470643112
  endloop
endfacet
facet normal -1.0 -0.0 -0.0
  outer loop
    vertex 2665.406016904395 13445.289658856449 1119.2554042456682
    vertex 2665.406016904395 13444.997470365643 1116.7229058309567
    vertex 2665.406016904395 13444.997470365643 1118.8267818613942
  endloop
endfacet
facet normal -1.0 -0.0 -0.0
  outer loop
    vertex 2665.406016904395 13444.997470365643 1116.7229058309567
    vertex 2665.406016904395 13445.289658856449 1119.2554042456682
    vertex 2665.406016904395 13445.387154100581 1117.5410633293714
  endloop
endfacet
facet normal -1.0 -0.0 -0.0
  outer loop
    vertex 2665.406016904395 13445.387154100581 1117.5410633293714
    vertex 2665.406016904395 13445.289658856449 1119.2554042456682
    vertex 2665.406016904395 13446.18584227433 1119.9956844454146
  endloop
endfacet
facet normal -1.0 -0.0 -0.0
  outer loop
    vertex 2665.406016904395 13445.387154100581 1117.5410633293714
    vertex 2665.406016904395 13446.18584227433 1119.9956844454146
    vertex 2665.406016904395 13446.400153466468 1118.3983080979192
  endloop
endfacet
facet normal -1.0 -0.0 -0.0
  outer loop
    vertex 2665.406016904395 13446.400153466468 1118.3983080979192
    vertex 2665.406016904395 13446.18584227433 1119.9956844454146
    vertex 2665.406016904395 13447.315657588219 1119.9956844454146
  endloop
endfacet
facet normal -1.0 -0.0 -0.0
  outer loop
    vertex 2665.406016904395 13446.400153466468 1118.3983080979192
    vertex 2665.406016904395 13447.315657588219 1119.9956844454146
    vertex 2665.406016904395 13446.925973853276 1118.3983080979192
  endloop
endfacet
facet normal -1.0 -0.0 -0.0
  outer loop
    vertex 2665.406016904395 13446.925973853276 1118.3983080979192
    vertex 2665.406016904395 13447.315657588219 1119.9956844454146
    vertex 2665.406016904395 13447.491030131021 1118.0670323369807
  endloop
endfacet
facet normal -1.0 -0.0 -0.0
  outer loop
    vertex 2665.406016904395 13447.491030131021 1118.0670323369807
    vertex 2665.406016904395 13447.315657588219 1119.9956844454146
    vertex 2665.406016904395 13448.484411551439 1119.5281234118063
  endloop
endfacet
facet normal -1.0 -0.0 -0.0
  outer loop
    vertex 2665.406016904395 13447.491030131021 1118.0670323369807
    vertex 2665.406016904395 13448.484411551439 1119.5281234118063
    vertex 2665.406016904395 13447.977911868496 1117.2879621086993
  endloop
endfacet
facet normal -1.0 -0.0 -0.0
  outer loop
    vertex 2665.406016904395 13447.977911868496 1117.2879621086993
    vertex 2665.406016904395 13448.484411551439 1119.5281234118063
    vertex 2665.406016904395 13447.977911868496 1109.5737995373613
  endloop
endfacet
facet normal -1.0 -0.0 -0.0
  outer loop
    vertex 2665.406016904395 13447.977911868496 1109.5737995373613
    vertex 2665.406016904395 13448.484411551439 1119.5281234118063
    vertex 2665.406016904395 13449.594757540659 1109.5737995373613
  endloop
endfacet
facet normal -1.0 -0.0 -0.0
  outer loop
    vertex 2665.406016904395 13449.594757540659 1109.5737995373613
    vertex 2665.406016904395 13448.484411551439 1119.5281234118063
    vertex 2665.406016904395 13449.146814452517 1118.5151240459218
  endloop
endfacet
facet normal -1.0 -0.0 -0.0
  outer loop
    vertex 2665.406016904395 13449.594757540659 1109.5737995373613
    vertex 2665.406016904395 13449.146814452517 1118.5151240459218
    vertex 2665.406016904395 13449.594757540659 1116.7034365062896
  endloop
endfacet
facet normal -1.0 -0.0 -0.0
  outer loop
    vertex 2665.406016904395 13444.997470365643 1119.8397812272788
    vertex 2665.406016904395 13443.380624693482 1109.5737995373613
    vertex 2665.406016904395 13443.380624693482 1119.8397812272788
  endloop
endfacet
facet normal -1.0 -0.0 -0.0
  outer loop
    vertex 2665.406016904395 13443.380624693482 1109.5737995373613
    vertex 2665.406016904395 13444.997470365643 1119.8397812272788
    vertex 2665.406016904395 13444.997470365643 1109.5737995373613
  endloop
endfacet
facet normal -1.0 -0.0 -0.0
  outer loop
    vertex 2665.406016904395 13444.997470365643 1109.5737995373613
    vertex 2665.406016904395 13444.997470365643 1119.8397812272788
    vertex 2665.406016904395 13444.997470365643 1118.8267818613942
  endloop
endfacet
facet normal -1.0 -0.0 -0.0
  outer loop
    vertex 2665.406016904395 13444.997470365643 1109.5737995373613
    vertex 2665.406016904395 13444.997470365643 1118.8267818613942
    vertex 2665.406016904395 13444.997470365643 1116.7229058309567
  endloop
endfacet
facet normal -1.0 -0.0 -0.0
  outer loop
    vertex 2665.406016904395 13460.194541545097 1119.9956844454146
    vertex 2665.406016904395 13459.06472623121 1117.48265535537
    vertex 2665.406016904395 13458.986848932544 1119.664408684476
  endloop
endfacet
facet normal -1.0 -0.0 -0.0
  outer loop
    vertex 2665.406016904395 13459.06472623121 1117.48265535537
    vertex 2665.406016904395 13460.194541545097 1119.9956844454146
    vertex 2665.406016904395 13459.33744539735 1117.9502163889783
  endloop
endfacet
facet normal -1.0 -0.0 -0.0
  outer loop
    vertex 2665.406016904395 13459.33744539735 1117.9502163889783
    vertex 2665.406016904395 13460.194541545097 1119.9956844454146
    vertex 2665.406016904395 13459.668572537488 1118.2229355551165
  endloop
endfacet
facet normal -1.0 -0.0 -0.0
  outer loop
    vertex 2665.406016904395 13459.668572537488 1118.2229355551165
    vertex 2665.406016904395 13460.194541545097 1119.9956844454146
    vertex 2665.406016904395 13460.408852737235 1118.4372467472533
  endloop
endfacet
facet normal -1.0 -0.0 -0.0
  outer loop
    vertex 2665.406016904395 13460.408852737235 1118.4372467472533
    vertex 2665.406016904395 13460.194541545097 1119.9956844454146
    vertex 2665.406016904395 13462.162132302867 1119.9956844454146
  endloop
endfacet
facet normal -1.0 -0.0 -0.0
  outer loop
    vertex 2665.406016904395 13460.408852737235 1118.4372467472533
    vertex 2665.406016904395 13462.162132302867 1119.9956844454146
    vertex 2665.406016904395 13462.025698409398 1118.4372467472533
  endloop
endfacet
facet normal -1.0 -0.0 -0.0
  outer loop
    vertex 2665.406016904395 13462.025698409398 1118.4372467472533
    vertex 2665.406016904395 13462.162132302867 1119.9956844454146
    vertex 2665.406016904395 13463.077636424616 1118.106119607114
  endloop
endfacet
facet normal -1.0 -0.0 -0.0
  outer loop
    vertex 2665.406016904395 13463.077636424616 1118.106119607114
    vertex 2665.406016904395 13462.162132302867 1119.9956844454146
    vertex 2665.406016904395 13463.681482730894 1119.5670620611404
  endloop
endfacet
facet normal -1.0 -0.0 -0.0
  outer loop
    vertex 2665.406016904395 13463.077636424616 1118.106119607114
    vertex 2665.406016904395 13463.681482730894 1119.5670620611404
    vertex 2665.406016904395 13464.129574439836 1117.4631860307031
  endloop
endfacet
facet normal -1.0 -0.0 -0.0
  outer loop
    vertex 2665.406016904395 13464.129574439836 1117.4631860307031
    vertex 2665.406016904395 13463.681482730894 1119.5670620611404
    vertex 2665.406016904395 13465.006139912251 1118.768373887393
  endloop
endfacet
facet normal -1.0 -0.0 -0.0
  outer loop
    vertex 2665.406016904395 13458.110283460126 1118.9826850795298
    vertex 2665.406016904395 13457.467349883716 1116.138528849346
    vertex 2665.406016904395 13457.467349883716 1117.8723390903099
  endloop
endfacet
facet normal -1.0 -0.0 -0.0
  outer loop
    vertex 2665.406016904395 13457.467349883716 1116.138528849346
    vertex 2665.406016904395 13458.110283460126 1118.9826850795298
    vertex 2665.406016904395 13458.28550738213 1115.0087135354588
  endloop
endfacet
facet normal -1.0 -0.0 -0.0
  outer loop
    vertex 2665.406016904395 13458.28550738213 1115.0087135354588
    vertex 2665.406016904395 13458.110283460126 1118.9826850795298
    vertex 2665.406016904395 13458.986848932544 1119.664408684476
  endloop
endfacet
facet normal -1.0 -0.0 -0.0
  outer loop
    vertex 2665.406016904395 13458.28550738213 1115.0087135354588
    vertex 2665.406016904395 13458.986848932544 1119.664408684476
    vertex 2665.406016904395 13459.06472623121 1116.625559207621
  endloop
endfacet
facet normal -1.0 -0.0 -0.0
  outer loop
    vertex 2665.406016904395 13458.28550738213 1115.0087135354588
    vertex 2665.406016904395 13459.06472623121 1116.625559207621
    vertex 2665.406016904395 13459.53228726482 1114.34645925518
  endloop
endfacet
facet normal -1.0 -0.0 -0.0
  outer loop
    vertex 2665.406016904395 13459.06472623121 1116.625559207621
    vertex 2665.406016904395 13458.986848932544 1119.664408684476
    vertex 2665.406016904395 13459.06472623121 1117.48265535537
  endloop
endfacet
facet normal -1.0 -0.0 -0.0
  outer loop
    vertex 2665.406016904395 13459.53228726482 1114.34645925518
    vertex 2665.406016904395 13459.06472623121 1116.625559207621
    vertex 2665.406016904395 13459.45440996615 1116.0995902000118
  endloop
endfacet
facet normal -1.0 -0.0 -0.0
  outer loop
    vertex 2665.406016904395 13459.53228726482 1114.34645925518
    vertex 2665.406016904395 13459.45440996615 1116.0995902000118
    vertex 2665.406016904395 13459.999848298427 1115.8268710338737
  endloop
endfacet
facet normal -1.0 -0.0 -0.0
  outer loop
    vertex 2665.406016904395 13459.53228726482 1114.34645925518
    vertex 2665.406016904395 13459.999848298427 1115.8268710338737
    vertex 2665.406016904395 13462.72703995981 1113.7815515982363
  endloop
endfacet
facet normal -1.0 -0.0 -0.0
  outer loop
    vertex 2665.406016904395 13462.72703995981 1113.7815515982363
    vertex 2665.406016904395 13459.999848298427 1115.8268710338737
    vertex 2665.406016904395 13463.369824915422 1115.242494052263
  endloop
endfacet
facet normal -1.0 -0.0 -0.0
  outer loop
    vertex 2665.406016904395 13462.72703995981 1113.7815515982363
    vertex 2665.406016904395 13463.369824915422 1115.242494052263
    vertex 2665.406016904395 13463.31141694142 1113.3723985386296
  endloop
endfacet
facet normal -1.0 -0.0 -0.0
  outer loop
    vertex 2665.406016904395 13463.31141694142 1113.3723985386296
    vertex 2665.406016904395 13463.369824915422 1115.242494052263
    vertex 2665.406016904395 13463.64254408156 1112.807490881686
  endloop
endfacet
facet normal -1.0 -0.0 -0.0
  outer loop
    vertex 2665.406016904395 13463.64254408156 1112.807490881686
    vertex 2665.406016904395 13463.369824915422 1115.242494052263
    vertex 2665.406016904395 13464.480170904642 1114.5022138525167
  endloop
endfacet
facet normal -1.0 -0.0 -0.0
  outer loop
    vertex 2665.406016904395 13463.64254408156 1112.807490881686
    vertex 2665.406016904395 13464.480170904642 1114.5022138525167
    vertex 2665.406016904395 13463.64254408156 1112.0672106819395
  endloop
endfacet
facet normal -1.0 -0.0 -0.0
  outer loop
    vertex 2665.406016904395 13458.22709940813 1112.164705926074
    vertex 2665.406016904395 13457.584314452517 1110.5673295785787
    vertex 2665.406016904395 13457.097284094241 1111.073829261521
  endloop
endfacet
facet normal -1.0 -0.0 -0.0
  outer loop
    vertex 2665.406016904395 13457.584314452517 1110.5673295785787
    vertex 2665.406016904395 13458.22709940813 1112.164705926074
    vertex 2665.406016904395 13458.538757223601 1109.8465187034994
  endloop
endfacet
facet normal -1.0 -0.0 -0.0
  outer loop
    vertex 2665.406016904395 13458.538757223601 1109.8465187034994
    vertex 2665.406016904395 13458.22709940813 1112.164705926074
    vertex 2665.406016904395 13458.636252467737 1111.716614217133
  endloop
endfacet
facet normal -1.0 -0.0 -0.0
  outer loop
    vertex 2665.406016904395 13458.538757223601 1109.8465187034994
    vertex 2665.406016904395 13458.636252467737 1111.716614217133
    vertex 2665.406016904395 13460.116664246429 1109.4178963192255
  endloop
endfacet
facet normal -1.0 -0.0 -0.0
  outer loop
    vertex 2665.406016904395 13460.116664246429 1109.4178963192255
    vertex 2665.406016904395 13458.636252467737 1111.716614217133
    vertex 2665.406016904395 13459.181690800013 1111.3074611575262
  endloop
endfacet
facet normal -1.0 -0.0 -0.0
  outer loop
    vertex 2665.406016904395 13460.116664246429 1109.4178963192255
    vertex 2665.406016904395 13459.181690800013 1111.3074611575262
    vertex 2665.406016904395 13460.330975438566 1110.9958033420537
  endloop
endfacet
facet normal -1.0 -0.0 -0.0
  outer loop
    vertex 2665.406016904395 13460.116664246429 1109.4178963192255
    vertex 2665.406016904395 13460.330975438566 1110.9958033420537
    vertex 2665.406016904395 13462.220540276867 1109.4178963192255
  endloop
endfacet
facet normal -1.0 -0.0 -0.0
  outer loop
    vertex 2665.406016904395 13462.220540276867 1109.4178963192255
    vertex 2665.406016904395 13460.330975438566 1110.9958033420537
    vertex 2665.406016904395 13462.006229084729 1110.9958033420537
  endloop
endfacet
facet normal -1.0 -0.0 -0.0
  outer loop
    vertex 2665.406016904395 13462.220540276867 1109.4178963192255
    vertex 2665.406016904395 13462.006229084729 1110.9958033420537
    vertex 2665.406016904395 13462.824386583145 1111.2295838588577
  endloop
endfacet
facet normal -1.0 -0.0 -0.0
  outer loop
    vertex 2665.406016904395 13462.220540276867 1109.4178963192255
    vertex 2665.406016904395 13462.824386583145 1111.2295838588577
    vertex 2665.406016904395 13463.545197458225 1109.8075800541653
  endloop
endfacet
facet normal -1.0 -0.0 -0.0
  outer loop
    vertex 2665.406016904395 13463.545197458225 1109.8075800541653
    vertex 2665.406016904395 13462.824386583145 1111.2295838588577
    vertex 2665.406016904395 13463.31141694142 1111.5801803236643
  endloop
endfacet
facet normal -1.0 -0.0 -0.0
  outer loop
    vertex 2665.406016904395 13463.545197458225 1109.8075800541653
    vertex 2665.406016904395 13463.31141694142 1111.5801803236643
    vertex 2665.406016904395 13463.64254408156 1112.0672106819395
  endloop
endfacet
facet normal -1.0 -0.0 -0.0
  outer loop
    vertex 2665.406016904395 13463.545197458225 1109.8075800541653
    vertex 2665.406016904395 13463.64254408156 1112.0672106819395
    vertex 2665.406016904395 13464.480170904642 1110.4698343344442
  endloop
endfacet
facet normal -1.0 -0.0 -0.0
  outer loop
    vertex 2665.406016904395 13464.480170904642 1110.4698343344442
    vertex 2665.406016904395 13463.64254408156 1112.0672106819395
    vertex 2665.406016904395 13464.480170904642 1114.5022138525167
  endloop
endfacet
facet normal -1.0 -0.0 -0.0
  outer loop
    vertex 2665.406016904395 13464.480170904642 1110.4698343344442
    vertex 2665.406016904395 13464.480170904642 1114.5022138525167
    vertex 2665.406016904395 13465.239920429056 1113.255582590627
  endloop
endfacet
facet normal -1.0 -0.0 -0.0
  outer loop
    vertex 2665.406016904395 13464.480170904642 1110.4698343344442
    vertex 2665.406016904395 13465.239920429056 1113.255582590627
    vertex 2665.406016904395 13465.239920429056 1111.5996496483313
  endloop
endfacet
endsolid thesis3
