solid thesis3
facet normal 0.0 1.0 -0.0
  outer loop
    vertex 3267.8795694953205 12148.985637375845 223.8369093940608
    vertex 3267.139289295574 12148.985637375845 220.52534075106777
    vertex 3267.139289295574 12148.985637375845 223.1162471397805
  endloop
endfacet
facet normal 0.0 1.0 -0.0
  outer loop
    vertex 3267.139289295574 12148.985637375845 220.52534075106777
    vertex 3267.8795694953205 12148.985637375845 223.8369093940608
    vertex 3267.567911679848 12148.985637375845 221.46031419748505
  endloop
endfacet
facet normal 0.0 1.0 -0.0
  outer loop
    vertex 3267.567911679848 12148.985637375845 221.46031419748505
    vertex 3267.8795694953205 12148.985637375845 223.8369093940608
    vertex 3268.3665998535957 12148.985637375845 222.35649761536706
  endloop
endfacet
facet normal 0.0 1.0 -0.0
  outer loop
    vertex 3268.3665998535957 12148.985637375845 222.35649761536706
    vertex 3267.8795694953205 12148.985637375845 223.8369093940608
    vertex 3269.2042266766775 12148.985637375845 224.46037364580462
  endloop
endfacet
facet normal 0.0 1.0 -0.0
  outer loop
    vertex 3268.3665998535957 12148.985637375845 222.35649761536706
    vertex 3269.2042266766775 12148.985637375845 224.46037364580462
    vertex 3269.5158844921502 12148.985637375845 222.86299729830938
  endloop
endfacet
facet normal 0.0 1.0 -0.0
  outer loop
    vertex 3269.5158844921502 12148.985637375845 222.86299729830938
    vertex 3269.2042266766775 12148.985637375845 224.46037364580462
    vertex 3271.2496947331138 12148.985637375845 224.46037364580462
  endloop
endfacet
facet normal 0.0 1.0 -0.0
  outer loop
    vertex 3269.5158844921502 12148.985637375845 222.86299729830938
    vertex 3271.2496947331138 12148.985637375845 224.46037364580462
    vertex 3271.0159142163097 12148.985637375845 222.86299729830938
  endloop
endfacet
facet normal 0.0 1.0 -0.0
  outer loop
    vertex 3271.0159142163097 12148.985637375845 222.86299729830938
    vertex 3271.2496947331138 12148.985637375845 224.46037364580462
    vertex 3272.5743519144708 12148.985637375845 222.31755896603292
  endloop
endfacet
facet normal 0.0 1.0 -0.0
  outer loop
    vertex 3272.5743519144708 12148.985637375845 222.31755896603292
    vertex 3271.2496947331138 12148.985637375845 224.46037364580462
    vertex 3273.061233651947 12148.985637375845 223.8369093940608
  endloop
endfacet
facet normal 0.0 1.0 -0.0
  outer loop
    vertex 3267.139289295574 12148.985637375845 224.30447042766895
    vertex 3265.522443623412 12148.985637375845 214.03848873775138
    vertex 3265.522443623412 12148.985637375845 224.30447042766895
  endloop
endfacet
facet normal 0.0 1.0 -0.0
  outer loop
    vertex 3265.522443623412 12148.985637375845 214.03848873775138
    vertex 3267.139289295574 12148.985637375845 224.30447042766895
    vertex 3267.139289295574 12148.985637375845 214.03848873775138
  endloop
endfacet
facet normal 0.0 1.0 -0.0
  outer loop
    vertex 3267.139289295574 12148.985637375845 214.03848873775138
    vertex 3267.139289295574 12148.985637375845 224.30447042766895
    vertex 3267.139289295574 12148.985637375845 223.1162471397805
  endloop
endfacet
facet normal 0.0 1.0 -0.0
  outer loop
    vertex 3267.139289295574 12148.985637375845 214.03848873775138
    vertex 3267.139289295574 12148.985637375845 223.1162471397805
    vertex 3267.139289295574 12148.985637375845 220.52534075106777
  endloop
endfacet
facet normal 0.0 1.0 -0.0
  outer loop
    vertex 3276.434034064122 12148.985637375845 222.06430912456173
    vertex 3276.024881004515 12148.985637375845 218.01246028182237
    vertex 3276.024881004515 12148.985637375845 220.31102955893078
  endloop
endfacet
facet normal 0.0 1.0 -0.0
  outer loop
    vertex 3276.024881004515 12148.985637375845 218.01246028182237
    vertex 3276.434034064122 12148.985637375845 222.06430912456173
    vertex 3276.434034064122 12148.985637375845 216.25918071619142
  endloop
endfacet
facet normal 0.0 1.0 -0.0
  outer loop
    vertex 3276.434034064122 12148.985637375845 216.25918071619142
    vertex 3276.434034064122 12148.985637375845 222.06430912456173
    vertex 3277.4665027546735 12148.985637375845 223.52525157858838
  endloop
endfacet
facet normal 0.0 1.0 -0.0
  outer loop
    vertex 3276.434034064122 12148.985637375845 216.25918071619142
    vertex 3277.4665027546735 12148.985637375845 223.52525157858838
    vertex 3277.4665027546735 12148.985637375845 214.79823826216477
  endloop
endfacet
facet normal 0.0 1.0 -0.0
  outer loop
    vertex 3277.4665027546735 12148.985637375845 214.79823826216477
    vertex 3277.4665027546735 12148.985637375845 223.52525157858838
    vertex 3277.641726676677 12148.985637375845 220.13580563692702
  endloop
endfacet
facet normal 0.0 1.0 -0.0
  outer loop
    vertex 3277.641726676677 12148.985637375845 220.13580563692702
    vertex 3277.4665027546735 12148.985637375845 223.52525157858838
    vertex 3277.914445842816 12148.985637375845 221.42137554815085
  endloop
endfacet
facet normal 0.0 1.0 -0.0
  outer loop
    vertex 3277.914445842816 12148.985637375845 221.42137554815085
    vertex 3277.4665027546735 12148.985637375845 223.52525157858838
    vertex 3279.4144755669754 12148.985637375845 224.46037364580462
  endloop
endfacet
facet normal 0.0 1.0 -0.0
  outer loop
    vertex 3277.914445842816 12148.985637375845 221.42137554815085
    vertex 3279.4144755669754 12148.985637375845 224.46037364580462
    vertex 3278.5377614737604 12148.985637375845 222.27847169589975
  endloop
endfacet
facet normal 0.0 1.0 -0.0
  outer loop
    vertex 3278.5377614737604 12148.985637375845 222.27847169589975
    vertex 3279.4144755669754 12148.985637375845 224.46037364580462
    vertex 3279.706664057781 12148.985637375845 222.86299729830938
  endloop
endfacet
facet normal 0.0 1.0 -0.0
  outer loop
    vertex 3279.706664057781 12148.985637375845 222.86299729830938
    vertex 3279.4144755669754 12148.985637375845 224.46037364580462
    vertex 3281.7519834934183 12148.985637375845 224.46037364580462
  endloop
endfacet
facet normal 0.0 1.0 -0.0
  outer loop
    vertex 3279.706664057781 12148.985637375845 222.86299729830938
    vertex 3281.7519834934183 12148.985637375845 224.46037364580462
    vertex 3281.4597950026127 12148.985637375845 222.86299729830938
  endloop
endfacet
facet normal 0.0 1.0 -0.0
  outer loop
    vertex 3281.4597950026127 12148.985637375845 222.86299729830938
    vertex 3281.7519834934183 12148.985637375845 224.46037364580462
    vertex 3282.6286975866333 12148.985637375845 222.27847169589975
  endloop
endfacet
facet normal 0.0 1.0 -0.0
  outer loop
    vertex 3282.6286975866333 12148.985637375845 222.27847169589975
    vertex 3281.7519834934183 12148.985637375845 224.46037364580462
    vertex 3283.700104926519 12148.985637375845 223.52525157858838
  endloop
endfacet
facet normal 0.0 1.0 -0.0
  outer loop
    vertex 3282.6286975866333 12148.985637375845 222.27847169589975
    vertex 3283.700104926519 12148.985637375845 223.52525157858838
    vertex 3283.2520132175778 12148.985637375845 221.42137554815085
  endloop
endfacet
facet normal 0.0 1.0 -0.0
  outer loop
    vertex 3283.2520132175778 12148.985637375845 221.42137554815085
    vertex 3283.700104926519 12148.985637375845 223.52525157858838
    vertex 3283.5247323837166 12148.985637375845 220.13580563692702
  endloop
endfacet
facet normal 0.0 1.0 -0.0
  outer loop
    vertex 3283.5247323837166 12148.985637375845 220.13580563692702
    vertex 3283.700104926519 12148.985637375845 223.52525157858838
    vertex 3283.5247323837166 12148.985637375845 218.20715352849328
  endloop
endfacet
facet normal 0.0 1.0 -0.0
  outer loop
    vertex 3277.4665027546735 12148.985637375845 214.79823826216477
    vertex 3277.914445842816 12148.985637375845 216.90211429260233
    vertex 3279.4339448916426 12148.985637375845 213.88258551961565
  endloop
endfacet
facet normal 0.0 1.0 -0.0
  outer loop
    vertex 3277.914445842816 12148.985637375845 216.90211429260233
    vertex 3277.4665027546735 12148.985637375845 214.79823826216477
    vertex 3277.641726676677 12148.985637375845 218.20715352849328
  endloop
endfacet
facet normal 0.0 1.0 -0.0
  outer loop
    vertex 3277.641726676677 12148.985637375845 218.20715352849328
    vertex 3277.4665027546735 12148.985637375845 214.79823826216477
    vertex 3277.641726676677 12148.985637375845 220.13580563692702
  endloop
endfacet
facet normal 0.0 1.0 -0.0
  outer loop
    vertex 3279.4339448916426 12148.985637375845 213.88258551961565
    vertex 3277.914445842816 12148.985637375845 216.90211429260233
    vertex 3278.5377614737604 12148.985637375845 216.02540019938738
  endloop
endfacet
facet normal 0.0 1.0 -0.0
  outer loop
    vertex 3279.4339448916426 12148.985637375845 213.88258551961565
    vertex 3278.5377614737604 12148.985637375845 216.02540019938738
    vertex 3279.706664057781 12148.985637375845 215.4604925424438
  endloop
endfacet
facet normal 0.0 1.0 -0.0
  outer loop
    vertex 3279.4339448916426 12148.985637375845 213.88258551961565
    vertex 3279.706664057781 12148.985637375845 215.4604925424438
    vertex 3281.732514168751 12148.985637375845 213.88258551961565
  endloop
endfacet
facet normal 0.0 1.0 -0.0
  outer loop
    vertex 3281.732514168751 12148.985637375845 213.88258551961565
    vertex 3279.706664057781 12148.985637375845 215.4604925424438
    vertex 3281.4597950026127 12148.985637375845 215.4604925424438
  endloop
endfacet
facet normal 0.0 1.0 -0.0
  outer loop
    vertex 3281.732514168751 12148.985637375845 213.88258551961565
    vertex 3281.4597950026127 12148.985637375845 215.4604925424438
    vertex 3282.6286975866333 12148.985637375845 216.02540019938738
  endloop
endfacet
facet normal 0.0 1.0 -0.0
  outer loop
    vertex 3281.732514168751 12148.985637375845 213.88258551961565
    vertex 3282.6286975866333 12148.985637375845 216.02540019938738
    vertex 3283.700104926519 12148.985637375845 214.79823826216477
  endloop
endfacet
facet normal 0.0 1.0 -0.0
  outer loop
    vertex 3283.700104926519 12148.985637375845 214.79823826216477
    vertex 3282.6286975866333 12148.985637375845 216.02540019938738
    vertex 3283.2520132175778 12148.985637375845 216.90211429260233
  endloop
endfacet
facet normal 0.0 1.0 -0.0
  outer loop
    vertex 3283.700104926519 12148.985637375845 214.79823826216477
    vertex 3283.2520132175778 12148.985637375845 216.90211429260233
    vertex 3283.5247323837166 12148.985637375845 218.20715352849328
  endloop
endfacet
facet normal 0.0 1.0 -0.0
  outer loop
    vertex 3283.700104926519 12148.985637375845 214.79823826216477
    vertex 3283.5247323837166 12148.985637375845 218.20715352849328
    vertex 3283.700104926519 12148.985637375845 223.52525157858838
  endloop
endfacet
facet normal 0.0 1.0 -0.0
  outer loop
    vertex 3283.700104926519 12148.985637375845 214.79823826216477
    vertex 3283.700104926519 12148.985637375845 223.52525157858838
    vertex 3284.7324249962717 12148.985637375845 222.06430912456173
  endloop
endfacet
facet normal 0.0 1.0 -0.0
  outer loop
    vertex 3283.700104926519 12148.985637375845 214.79823826216477
    vertex 3284.7324249962717 12148.985637375845 222.06430912456173
    vertex 3284.7324249962717 12148.985637375845 216.25918071619142
  endloop
endfacet
facet normal 0.0 1.0 -0.0
  outer loop
    vertex 3284.7324249962717 12148.985637375845 216.25918071619142
    vertex 3284.7324249962717 12148.985637375845 222.06430912456173
    vertex 3285.1415780558787 12148.985637375845 220.31102955893078
  endloop
endfacet
facet normal 0.0 1.0 -0.0
  outer loop
    vertex 3284.7324249962717 12148.985637375845 216.25918071619142
    vertex 3285.1415780558787 12148.985637375845 220.31102955893078
    vertex 3285.1415780558787 12148.985637375845 218.01246028182237
  endloop
endfacet
facet normal 0.0 1.0 -0.0
  outer loop
    vertex 3288.9039135821945 12148.985637375845 222.06430912456173
    vertex 3288.4947605225875 12148.985637375845 218.01246028182237
    vertex 3288.4947605225875 12148.985637375845 220.31102955893078
  endloop
endfacet
facet normal 0.0 1.0 -0.0
  outer loop
    vertex 3288.4947605225875 12148.985637375845 218.01246028182237
    vertex 3288.9039135821945 12148.985637375845 222.06430912456173
    vertex 3288.9039135821945 12148.985637375845 216.25918071619142
  endloop
endfacet
facet normal 0.0 1.0 -0.0
  outer loop
    vertex 3288.9039135821945 12148.985637375845 216.25918071619142
    vertex 3288.9039135821945 12148.985637375845 222.06430912456173
    vertex 3289.936382272746 12148.985637375845 223.52525157858838
  endloop
endfacet
facet normal 0.0 1.0 -0.0
  outer loop
    vertex 3288.9039135821945 12148.985637375845 216.25918071619142
    vertex 3289.936382272746 12148.985637375845 223.52525157858838
    vertex 3289.936382272746 12148.985637375845 214.79823826216477
  endloop
endfacet
facet normal 0.0 1.0 -0.0
  outer loop
    vertex 3289.936382272746 12148.985637375845 214.79823826216477
    vertex 3289.936382272746 12148.985637375845 223.52525157858838
    vertex 3290.1116061947496 12148.985637375845 220.13580563692702
  endloop
endfacet
facet normal 0.0 1.0 -0.0
  outer loop
    vertex 3290.1116061947496 12148.985637375845 220.13580563692702
    vertex 3289.936382272746 12148.985637375845 223.52525157858838
    vertex 3290.3843253608884 12148.985637375845 221.42137554815085
  endloop
endfacet
facet normal 0.0 1.0 -0.0
  outer loop
    vertex 3290.3843253608884 12148.985637375845 221.42137554815085
    vertex 3289.936382272746 12148.985637375845 223.52525157858838
    vertex 3291.884355085048 12148.985637375845 224.46037364580462
  endloop
endfacet
facet normal 0.0 1.0 -0.0
  outer loop
    vertex 3290.3843253608884 12148.985637375845 221.42137554815085
    vertex 3291.884355085048 12148.985637375845 224.46037364580462
    vertex 3291.007640991833 12148.985637375845 222.27847169589975
  endloop
endfacet
facet normal 0.0 1.0 -0.0
  outer loop
    vertex 3291.007640991833 12148.985637375845 222.27847169589975
    vertex 3291.884355085048 12148.985637375845 224.46037364580462
    vertex 3292.1765435758534 12148.985637375845 222.86299729830938
  endloop
endfacet
facet normal 0.0 1.0 -0.0
  outer loop
    vertex 3292.1765435758534 12148.985637375845 222.86299729830938
    vertex 3291.884355085048 12148.985637375845 224.46037364580462
    vertex 3294.2218630114903 12148.985637375845 224.46037364580462
  endloop
endfacet
facet normal 0.0 1.0 -0.0
  outer loop
    vertex 3292.1765435758534 12148.985637375845 222.86299729830938
    vertex 3294.2218630114903 12148.985637375845 224.46037364580462
    vertex 3293.9296745206852 12148.985637375845 222.86299729830938
  endloop
endfacet
facet normal 0.0 1.0 -0.0
  outer loop
    vertex 3293.9296745206852 12148.985637375845 222.86299729830938
    vertex 3294.2218630114903 12148.985637375845 224.46037364580462
    vertex 3295.0985771047053 12148.985637375845 222.27847169589975
  endloop
endfacet
facet normal 0.0 1.0 -0.0
  outer loop
    vertex 3295.0985771047053 12148.985637375845 222.27847169589975
    vertex 3294.2218630114903 12148.985637375845 224.46037364580462
    vertex 3296.169984444591 12148.985637375845 223.52525157858838
  endloop
endfacet
facet normal 0.0 1.0 -0.0
  outer loop
    vertex 3295.0985771047053 12148.985637375845 222.27847169589975
    vertex 3296.169984444591 12148.985637375845 223.52525157858838
    vertex 3295.7218927356503 12148.985637375845 221.42137554815085
  endloop
endfacet
facet normal 0.0 1.0 -0.0
  outer loop
    vertex 3295.7218927356503 12148.985637375845 221.42137554815085
    vertex 3296.169984444591 12148.985637375845 223.52525157858838
    vertex 3295.994611901788 12148.985637375845 220.13580563692702
  endloop
endfacet
facet normal 0.0 1.0 -0.0
  outer loop
    vertex 3295.994611901788 12148.985637375845 220.13580563692702
    vertex 3296.169984444591 12148.985637375845 223.52525157858838
    vertex 3295.994611901788 12148.985637375845 218.20715352849328
  endloop
endfacet
facet normal 0.0 1.0 -0.0
  outer loop
    vertex 3289.936382272746 12148.985637375845 214.79823826216477
    vertex 3290.3843253608884 12148.985637375845 216.90211429260233
    vertex 3291.903824409715 12148.985637375845 213.88258551961565
  endloop
endfacet
facet normal 0.0 1.0 -0.0
  outer loop
    vertex 3290.3843253608884 12148.985637375845 216.90211429260233
    vertex 3289.936382272746 12148.985637375845 214.79823826216477
    vertex 3290.1116061947496 12148.985637375845 218.20715352849328
  endloop
endfacet
facet normal 0.0 1.0 -0.0
  outer loop
    vertex 3290.1116061947496 12148.985637375845 218.20715352849328
    vertex 3289.936382272746 12148.985637375845 214.79823826216477
    vertex 3290.1116061947496 12148.985637375845 220.13580563692702
  endloop
endfacet
facet normal 0.0 1.0 -0.0
  outer loop
    vertex 3291.903824409715 12148.985637375845 213.88258551961565
    vertex 3290.3843253608884 12148.985637375845 216.90211429260233
    vertex 3291.007640991833 12148.985637375845 216.02540019938738
  endloop
endfacet
facet normal 0.0 1.0 -0.0
  outer loop
    vertex 3291.903824409715 12148.985637375845 213.88258551961565
    vertex 3291.007640991833 12148.985637375845 216.02540019938738
    vertex 3292.1765435758534 12148.985637375845 215.4604925424438
  endloop
endfacet
facet normal 0.0 1.0 -0.0
  outer loop
    vertex 3291.903824409715 12148.985637375845 213.88258551961565
    vertex 3292.1765435758534 12148.985637375845 215.4604925424438
    vertex 3294.202393686823 12148.985637375845 213.88258551961565
  endloop
endfacet
facet normal 0.0 1.0 -0.0
  outer loop
    vertex 3294.202393686823 12148.985637375845 213.88258551961565
    vertex 3292.1765435758534 12148.985637375845 215.4604925424438
    vertex 3293.9296745206852 12148.985637375845 215.4604925424438
  endloop
endfacet
facet normal 0.0 1.0 -0.0
  outer loop
    vertex 3294.202393686823 12148.985637375845 213.88258551961565
    vertex 3293.9296745206852 12148.985637375845 215.4604925424438
    vertex 3295.0985771047053 12148.985637375845 216.02540019938738
  endloop
endfacet
facet normal 0.0 1.0 -0.0
  outer loop
    vertex 3294.202393686823 12148.985637375845 213.88258551961565
    vertex 3295.0985771047053 12148.985637375845 216.02540019938738
    vertex 3296.169984444591 12148.985637375845 214.79823826216477
  endloop
endfacet
facet normal 0.0 1.0 -0.0
  outer loop
    vertex 3296.169984444591 12148.985637375845 214.79823826216477
    vertex 3295.0985771047053 12148.985637375845 216.02540019938738
    vertex 3295.7218927356503 12148.985637375845 216.90211429260233
  endloop
endfacet
facet normal 0.0 1.0 -0.0
  outer loop
    vertex 3296.169984444591 12148.985637375845 214.79823826216477
    vertex 3295.7218927356503 12148.985637375845 216.90211429260233
    vertex 3295.994611901788 12148.985637375845 218.20715352849328
  endloop
endfacet
facet normal 0.0 1.0 -0.0
  outer loop
    vertex 3296.169984444591 12148.985637375845 214.79823826216477
    vertex 3295.994611901788 12148.985637375845 218.20715352849328
    vertex 3296.169984444591 12148.985637375845 223.52525157858838
  endloop
endfacet
facet normal 0.0 1.0 -0.0
  outer loop
    vertex 3296.169984444591 12148.985637375845 214.79823826216477
    vertex 3296.169984444591 12148.985637375845 223.52525157858838
    vertex 3297.202304514344 12148.985637375845 222.06430912456173
  endloop
endfacet
facet normal 0.0 1.0 -0.0
  outer loop
    vertex 3296.169984444591 12148.985637375845 214.79823826216477
    vertex 3297.202304514344 12148.985637375845 222.06430912456173
    vertex 3297.202304514344 12148.985637375845 216.25918071619142
  endloop
endfacet
facet normal 0.0 1.0 -0.0
  outer loop
    vertex 3297.202304514344 12148.985637375845 216.25918071619142
    vertex 3297.202304514344 12148.985637375845 222.06430912456173
    vertex 3297.6114575739507 12148.985637375845 220.31102955893078
  endloop
endfacet
facet normal 0.0 1.0 -0.0
  outer loop
    vertex 3297.202304514344 12148.985637375845 216.25918071619142
    vertex 3297.6114575739507 12148.985637375845 220.31102955893078
    vertex 3297.6114575739507 12148.985637375845 218.01246028182237
  endloop
endfacet
facet normal 0.0 1.0 -0.0
  outer loop
    vertex 3306.6333345555613 12148.985637375845 223.79797074472663
    vertex 3306.419023363425 12148.985637375845 221.1681257066797
    vertex 3305.9710802752825 12148.985637375845 222.97981324631192
  endloop
endfacet
facet normal 0.0 1.0 -0.0
  outer loop
    vertex 3306.419023363425 12148.985637375845 221.1681257066797
    vertex 3306.6333345555613 12148.985637375845 223.79797074472663
    vertex 3306.8476457476986 12148.985637375845 222.02537047522756
  endloop
endfacet
facet normal 0.0 1.0 -0.0
  outer loop
    vertex 3306.8476457476986 12148.985637375845 222.02537047522756
    vertex 3306.6333345555613 12148.985637375845 223.79797074472663
    vertex 3307.607395272112 12148.985637375845 224.46037364580462
  endloop
endfacet
facet normal 0.0 1.0 -0.0
  outer loop
    vertex 3306.8476457476986 12148.985637375845 222.02537047522756
    vertex 3307.607395272112 12148.985637375845 224.46037364580462
    vertex 3307.821706464249 12148.985637375845 222.86299729830938
  endloop
endfacet
facet normal 0.0 1.0 -0.0
  outer loop
    vertex 3307.821706464249 12148.985637375845 222.86299729830938
    vertex 3307.607395272112 12148.985637375845 224.46037364580462
    vertex 3308.737210585999 12148.985637375845 224.46037364580462
  endloop
endfacet
facet normal 0.0 1.0 -0.0
  outer loop
    vertex 3307.821706464249 12148.985637375845 222.86299729830938
    vertex 3308.737210585999 12148.985637375845 224.46037364580462
    vertex 3308.3475268510592 12148.985637375845 222.86299729830938
  endloop
endfacet
facet normal 0.0 1.0 -0.0
  outer loop
    vertex 3308.3475268510592 12148.985637375845 222.86299729830938
    vertex 3308.737210585999 12148.985637375845 224.46037364580462
    vertex 3308.9125831288015 12148.985637375845 222.57080880750405
  endloop
endfacet
facet normal 0.0 1.0 -0.0
  outer loop
    vertex 3308.9125831288015 12148.985637375845 222.57080880750405
    vertex 3308.737210585999 12148.985637375845 224.46037364580462
    vertex 3309.9059645492202 12148.985637375845 223.9928126121965
  endloop
endfacet
facet normal 0.0 1.0 -0.0
  outer loop
    vertex 3308.9125831288015 12148.985637375845 222.57080880750405
    vertex 3309.9059645492202 12148.985637375845 223.9928126121965
    vertex 3309.399464866278 12148.985637375845 221.8305286077577
  endloop
endfacet
facet normal 0.0 1.0 -0.0
  outer loop
    vertex 3309.399464866278 12148.985637375845 221.8305286077577
    vertex 3309.9059645492202 12148.985637375845 223.9928126121965
    vertex 3309.399464866278 12148.985637375845 214.03848873775138
  endloop
endfacet
facet normal 0.0 1.0 -0.0
  outer loop
    vertex 3309.399464866278 12148.985637375845 214.03848873775138
    vertex 3309.9059645492202 12148.985637375845 223.9928126121965
    vertex 3311.0163105384404 12148.985637375845 214.03848873775138
  endloop
endfacet
facet normal 0.0 1.0 -0.0
  outer loop
    vertex 3311.0163105384404 12148.985637375845 214.03848873775138
    vertex 3309.9059645492202 12148.985637375845 223.9928126121965
    vertex 3311.0163105384404 12148.985637375845 222.3954362647013
  endloop
endfacet
facet normal 0.0 1.0 -0.0
  outer loop
    vertex 3302.113924679214 12148.985637375845 223.72009344605826
    vertex 3301.8217361884085 12148.985637375845 221.18759503134677
    vertex 3301.8217361884085 12148.985637375845 223.29147106178434
  endloop
endfacet
facet normal 0.0 1.0 -0.0
  outer loop
    vertex 3301.8217361884085 12148.985637375845 221.18759503134677
    vertex 3302.113924679214 12148.985637375845 223.72009344605826
    vertex 3302.2114199233483 12148.985637375845 222.00575252976148
  endloop
endfacet
facet normal 0.0 1.0 -0.0
  outer loop
    vertex 3302.2114199233483 12148.985637375845 222.00575252976148
    vertex 3302.113924679214 12148.985637375845 223.72009344605826
    vertex 3303.010108097096 12148.985637375845 224.46037364580462
  endloop
endfacet
facet normal 0.0 1.0 -0.0
  outer loop
    vertex 3302.2114199233483 12148.985637375845 222.00575252976148
    vertex 3303.010108097096 12148.985637375845 224.46037364580462
    vertex 3303.224419289233 12148.985637375845 222.86299729830938
  endloop
endfacet
facet normal 0.0 1.0 -0.0
  outer loop
    vertex 3303.224419289233 12148.985637375845 222.86299729830938
    vertex 3303.010108097096 12148.985637375845 224.46037364580462
    vertex 3304.139923410983 12148.985637375845 224.46037364580462
  endloop
endfacet
facet normal 0.0 1.0 -0.0
  outer loop
    vertex 3303.224419289233 12148.985637375845 222.86299729830938
    vertex 3304.139923410983 12148.985637375845 224.46037364580462
    vertex 3303.7502396760433 12148.985637375845 222.86299729830938
  endloop
endfacet
facet normal 0.0 1.0 -0.0
  outer loop
    vertex 3303.7502396760433 12148.985637375845 222.86299729830938
    vertex 3304.139923410983 12148.985637375845 224.46037364580462
    vertex 3304.315295953786 12148.985637375845 222.53172153737088
  endloop
endfacet
facet normal 0.0 1.0 -0.0
  outer loop
    vertex 3304.315295953786 12148.985637375845 222.53172153737088
    vertex 3304.139923410983 12148.985637375845 224.46037364580462
    vertex 3305.3086773742048 12148.985637375845 223.9928126121965
  endloop
endfacet
facet normal 0.0 1.0 -0.0
  outer loop
    vertex 3304.315295953786 12148.985637375845 222.53172153737088
    vertex 3305.3086773742048 12148.985637375845 223.9928126121965
    vertex 3304.8021776912624 12148.985637375845 221.75265130908934
  endloop
endfacet
facet normal 0.0 1.0 -0.0
  outer loop
    vertex 3304.8021776912624 12148.985637375845 221.75265130908934
    vertex 3305.3086773742048 12148.985637375845 223.9928126121965
    vertex 3304.8021776912624 12148.985637375845 214.03848873775138
  endloop
endfacet
facet normal 0.0 1.0 -0.0
  outer loop
    vertex 3304.8021776912624 12148.985637375845 214.03848873775138
    vertex 3305.3086773742048 12148.985637375845 223.9928126121965
    vertex 3306.419023363425 12148.985637375845 214.03848873775138
  endloop
endfacet
facet normal 0.0 1.0 -0.0
  outer loop
    vertex 3306.419023363425 12148.985637375845 214.03848873775138
    vertex 3305.3086773742048 12148.985637375845 223.9928126121965
    vertex 3305.9710802752825 12148.985637375845 222.97981324631192
  endloop
endfacet
facet normal 0.0 1.0 -0.0
  outer loop
    vertex 3306.419023363425 12148.985637375845 214.03848873775138
    vertex 3305.9710802752825 12148.985637375845 222.97981324631192
    vertex 3306.419023363425 12148.985637375845 221.1681257066797
  endloop
endfacet
facet normal 0.0 1.0 -0.0
  outer loop
    vertex 3301.8217361884085 12148.985637375845 224.30447042766895
    vertex 3300.204890516246 12148.985637375845 214.03848873775138
    vertex 3300.204890516246 12148.985637375845 224.30447042766895
  endloop
endfacet
facet normal 0.0 1.0 -0.0
  outer loop
    vertex 3300.204890516246 12148.985637375845 214.03848873775138
    vertex 3301.8217361884085 12148.985637375845 224.30447042766895
    vertex 3301.8217361884085 12148.985637375845 214.03848873775138
  endloop
endfacet
facet normal 0.0 1.0 -0.0
  outer loop
    vertex 3301.8217361884085 12148.985637375845 214.03848873775138
    vertex 3301.8217361884085 12148.985637375845 224.30447042766895
    vertex 3301.8217361884085 12148.985637375845 223.29147106178434
  endloop
endfacet
facet normal 0.0 1.0 -0.0
  outer loop
    vertex 3301.8217361884085 12148.985637375845 214.03848873775138
    vertex 3301.8217361884085 12148.985637375845 223.29147106178434
    vertex 3301.8217361884085 12148.985637375845 221.18759503134677
  endloop
endfacet
facet normal 0.0 1.0 -0.0
  outer loop
    vertex 3317.0188073678632 12148.985637375845 224.46037364580462
    vertex 3315.8889920539764 12148.985637375845 221.94734455576025
    vertex 3315.8111147553077 12148.985637375845 224.12909788486613
  endloop
endfacet
facet normal 0.0 1.0 -0.0
  outer loop
    vertex 3315.8889920539764 12148.985637375845 221.94734455576025
    vertex 3317.0188073678632 12148.985637375845 224.46037364580462
    vertex 3316.1617112201143 12148.985637375845 222.41490558936835
  endloop
endfacet
facet normal 0.0 1.0 -0.0
  outer loop
    vertex 3316.1617112201143 12148.985637375845 222.41490558936835
    vertex 3317.0188073678632 12148.985637375845 224.46037364580462
    vertex 3316.492838360254 12148.985637375845 222.6876247555066
  endloop
endfacet
facet normal 0.0 1.0 -0.0
  outer loop
    vertex 3316.492838360254 12148.985637375845 222.6876247555066
    vertex 3317.0188073678632 12148.985637375845 224.46037364580462
    vertex 3317.23311856 12148.985637375845 222.90193594764355
  endloop
endfacet
facet normal 0.0 1.0 -0.0
  outer loop
    vertex 3317.23311856 12148.985637375845 222.90193594764355
    vertex 3317.0188073678632 12148.985637375845 224.46037364580462
    vertex 3318.9863981256312 12148.985637375845 224.46037364580462
  endloop
endfacet
facet normal 0.0 1.0 -0.0
  outer loop
    vertex 3317.23311856 12148.985637375845 222.90193594764355
    vertex 3318.9863981256312 12148.985637375845 224.46037364580462
    vertex 3318.849964232162 12148.985637375845 222.90193594764355
  endloop
endfacet
facet normal 0.0 1.0 -0.0
  outer loop
    vertex 3318.849964232162 12148.985637375845 222.90193594764355
    vertex 3318.9863981256312 12148.985637375845 224.46037364580462
    vertex 3319.9019022473817 12148.985637375845 222.57080880750405
  endloop
endfacet
facet normal 0.0 1.0 -0.0
  outer loop
    vertex 3319.9019022473817 12148.985637375845 222.57080880750405
    vertex 3318.9863981256312 12148.985637375845 224.46037364580462
    vertex 3320.505748553659 12148.985637375845 224.03175126153067
  endloop
endfacet
facet normal 0.0 1.0 -0.0
  outer loop
    vertex 3319.9019022473817 12148.985637375845 222.57080880750405
    vertex 3320.505748553659 12148.985637375845 224.03175126153067
    vertex 3320.9538402626004 12148.985637375845 221.92787523109314
  endloop
endfacet
facet normal 0.0 1.0 -0.0
  outer loop
    vertex 3320.9538402626004 12148.985637375845 221.92787523109314
    vertex 3320.505748553659 12148.985637375845 224.03175126153067
    vertex 3321.830405735016 12148.985637375845 223.23306308778305
  endloop
endfacet
facet normal 0.0 1.0 -0.0
  outer loop
    vertex 3314.9345492828916 12148.985637375845 223.44737427992
    vertex 3314.291615706481 12148.985637375845 220.60321804973614
    vertex 3314.291615706481 12148.985637375845 222.33702829069998
  endloop
endfacet
facet normal 0.0 1.0 -0.0
  outer loop
    vertex 3314.291615706481 12148.985637375845 220.60321804973614
    vertex 3314.9345492828916 12148.985637375845 223.44737427992
    vertex 3315.1097732048956 12148.985637375845 219.47340273584902
  endloop
endfacet
facet normal 0.0 1.0 -0.0
  outer loop
    vertex 3315.1097732048956 12148.985637375845 219.47340273584902
    vertex 3314.9345492828916 12148.985637375845 223.44737427992
    vertex 3315.8111147553077 12148.985637375845 224.12909788486613
  endloop
endfacet
facet normal 0.0 1.0 -0.0
  outer loop
    vertex 3315.1097732048956 12148.985637375845 219.47340273584902
    vertex 3315.8111147553077 12148.985637375845 224.12909788486613
    vertex 3315.8889920539764 12148.985637375845 221.09024840801132
  endloop
endfacet
facet normal 0.0 1.0 -0.0
  outer loop
    vertex 3315.1097732048956 12148.985637375845 219.47340273584902
    vertex 3315.8889920539764 12148.985637375845 221.09024840801132
    vertex 3316.356553087584 12148.985637375845 218.81114845557
  endloop
endfacet
facet normal 0.0 1.0 -0.0
  outer loop
    vertex 3315.8889920539764 12148.985637375845 221.09024840801132
    vertex 3315.8111147553077 12148.985637375845 224.12909788486613
    vertex 3315.8889920539764 12148.985637375845 221.94734455576025
  endloop
endfacet
facet normal 0.0 1.0 -0.0
  outer loop
    vertex 3316.356553087584 12148.985637375845 218.81114845557
    vertex 3315.8889920539764 12148.985637375845 221.09024840801132
    vertex 3316.278675788916 12148.985637375845 220.56427940040197
  endloop
endfacet
facet normal 0.0 1.0 -0.0
  outer loop
    vertex 3316.356553087584 12148.985637375845 218.81114845557
    vertex 3316.278675788916 12148.985637375845 220.56427940040197
    vertex 3316.8241141211925 12148.985637375845 220.29156023426373
  endloop
endfacet
facet normal 0.0 1.0 -0.0
  outer loop
    vertex 3316.356553087584 12148.985637375845 218.81114845557
    vertex 3316.8241141211925 12148.985637375845 220.29156023426373
    vertex 3319.5513057825747 12148.985637375845 218.24624079862642
  endloop
endfacet
facet normal 0.0 1.0 -0.0
  outer loop
    vertex 3319.5513057825747 12148.985637375845 218.24624079862642
    vertex 3316.8241141211925 12148.985637375845 220.29156023426373
    vertex 3320.194090738187 12148.985637375845 219.70718325265307
  endloop
endfacet
facet normal 0.0 1.0 -0.0
  outer loop
    vertex 3319.5513057825747 12148.985637375845 218.24624079862642
    vertex 3320.194090738187 12148.985637375845 219.70718325265307
    vertex 3320.1356827641853 12148.985637375845 217.83708773901958
  endloop
endfacet
facet normal 0.0 1.0 -0.0
  outer loop
    vertex 3320.1356827641853 12148.985637375845 217.83708773901958
    vertex 3320.194090738187 12148.985637375845 219.70718325265307
    vertex 3320.4668099043247 12148.985637375845 217.272180082076
  endloop
endfacet
facet normal 0.0 1.0 -0.0
  outer loop
    vertex 3320.4668099043247 12148.985637375845 217.272180082076
    vertex 3320.194090738187 12148.985637375845 219.70718325265307
    vertex 3321.304436727407 12148.985637375845 218.9669030529067
  endloop
endfacet
facet normal 0.0 1.0 -0.0
  outer loop
    vertex 3320.4668099043247 12148.985637375845 217.272180082076
    vertex 3321.304436727407 12148.985637375845 218.9669030529067
    vertex 3320.4668099043247 12148.985637375845 216.53189988232967
  endloop
endfacet
facet normal 0.0 1.0 -0.0
  outer loop
    vertex 3315.0513652308946 12148.985637375845 216.6293951264641
    vertex 3314.4085802752825 12148.985637375845 215.03201877896885
    vertex 3313.9215499170073 12148.985637375845 215.53851846191114
  endloop
endfacet
facet normal 0.0 1.0 -0.0
  outer loop
    vertex 3314.4085802752825 12148.985637375845 215.03201877896885
    vertex 3315.0513652308946 12148.985637375845 216.6293951264641
    vertex 3315.363023046367 12148.985637375845 214.31120790388957
  endloop
endfacet
facet normal 0.0 1.0 -0.0
  outer loop
    vertex 3315.363023046367 12148.985637375845 214.31120790388957
    vertex 3315.0513652308946 12148.985637375845 216.6293951264641
    vertex 3315.460518290501 12148.985637375845 216.18130341752305
  endloop
endfacet
facet normal 0.0 1.0 -0.0
  outer loop
    vertex 3315.363023046367 12148.985637375845 214.31120790388957
    vertex 3315.460518290501 12148.985637375845 216.18130341752305
    vertex 3316.940930069195 12148.985637375845 213.88258551961565
  endloop
endfacet
facet normal 0.0 1.0 -0.0
  outer loop
    vertex 3316.940930069195 12148.985637375845 213.88258551961565
    vertex 3315.460518290501 12148.985637375845 216.18130341752305
    vertex 3316.0059566227774 12148.985637375845 215.77215035791625
  endloop
endfacet
facet normal 0.0 1.0 -0.0
  outer loop
    vertex 3316.940930069195 12148.985637375845 213.88258551961565
    vertex 3316.0059566227774 12148.985637375845 215.77215035791625
    vertex 3317.155241261332 12148.985637375845 215.4604925424438
  endloop
endfacet
facet normal 0.0 1.0 -0.0
  outer loop
    vertex 3316.940930069195 12148.985637375845 213.88258551961565
    vertex 3317.155241261332 12148.985637375845 215.4604925424438
    vertex 3319.0448060996323 12148.985637375845 213.88258551961565
  endloop
endfacet
facet normal 0.0 1.0 -0.0
  outer loop
    vertex 3319.0448060996323 12148.985637375845 213.88258551961565
    vertex 3317.155241261332 12148.985637375845 215.4604925424438
    vertex 3318.830494907496 12148.985637375845 215.4604925424438
  endloop
endfacet
facet normal 0.0 1.0 -0.0
  outer loop
    vertex 3319.0448060996323 12148.985637375845 213.88258551961565
    vertex 3318.830494907496 12148.985637375845 215.4604925424438
    vertex 3319.64865240591 12148.985637375845 215.69427305924788
  endloop
endfacet
facet normal 0.0 1.0 -0.0
  outer loop
    vertex 3319.0448060996323 12148.985637375845 213.88258551961565
    vertex 3319.64865240591 12148.985637375845 215.69427305924788
    vertex 3320.3694632809897 12148.985637375845 214.2722692545554
  endloop
endfacet
facet normal 0.0 1.0 -0.0
  outer loop
    vertex 3320.3694632809897 12148.985637375845 214.2722692545554
    vertex 3319.64865240591 12148.985637375845 215.69427305924788
    vertex 3320.1356827641853 12148.985637375845 216.04486952405446
  endloop
endfacet
facet normal 0.0 1.0 -0.0
  outer loop
    vertex 3320.3694632809897 12148.985637375845 214.2722692545554
    vertex 3320.1356827641853 12148.985637375845 216.04486952405446
    vertex 3320.4668099043247 12148.985637375845 216.53189988232967
  endloop
endfacet
facet normal 0.0 1.0 -0.0
  outer loop
    vertex 3320.3694632809897 12148.985637375845 214.2722692545554
    vertex 3320.4668099043247 12148.985637375845 216.53189988232967
    vertex 3321.304436727407 12148.985637375845 214.93452353483443
  endloop
endfacet
facet normal 0.0 1.0 -0.0
  outer loop
    vertex 3321.304436727407 12148.985637375845 214.93452353483443
    vertex 3320.4668099043247 12148.985637375845 216.53189988232967
    vertex 3321.304436727407 12148.985637375845 218.9669030529067
  endloop
endfacet
facet normal 0.0 1.0 -0.0
  outer loop
    vertex 3321.304436727407 12148.985637375845 214.93452353483443
    vertex 3321.304436727407 12148.985637375845 218.9669030529067
    vertex 3322.06418625182 12148.985637375845 217.72027179101704
  endloop
endfacet
facet normal 0.0 1.0 -0.0
  outer loop
    vertex 3321.304436727407 12148.985637375845 214.93452353483443
    vertex 3322.06418625182 12148.985637375845 217.72027179101704
    vertex 3322.06418625182 12148.985637375845 216.06433884872155
  endloop
endfacet
endsolid thesis3
