solid thesis3
facet normal 0.0 1.0 -0.0
  outer loop
    vertex 2583.1184618510074 11450.334358079694 2335.6396449877616
    vertex 2581.9886465371205 11450.334358079694 2333.1266158977173
    vertex 2581.910769238452 11450.334358079694 2335.308369226823
  endloop
endfacet
facet normal 0.0 1.0 -0.0
  outer loop
    vertex 2581.9886465371205 11450.334358079694 2333.1266158977173
    vertex 2583.1184618510074 11450.334358079694 2335.6396449877616
    vertex 2582.2613657032584 11450.334358079694 2333.5941769313254
  endloop
endfacet
facet normal 0.0 1.0 -0.0
  outer loop
    vertex 2582.2613657032584 11450.334358079694 2333.5941769313254
    vertex 2583.1184618510074 11450.334358079694 2335.6396449877616
    vertex 2582.592492843398 11450.334358079694 2333.8668960974637
  endloop
endfacet
facet normal 0.0 1.0 -0.0
  outer loop
    vertex 2582.592492843398 11450.334358079694 2333.8668960974637
    vertex 2583.1184618510074 11450.334358079694 2335.6396449877616
    vertex 2583.3327730431442 11450.334358079694 2334.0812072896006
  endloop
endfacet
facet normal 0.0 1.0 -0.0
  outer loop
    vertex 2583.3327730431442 11450.334358079694 2334.0812072896006
    vertex 2583.1184618510074 11450.334358079694 2335.6396449877616
    vertex 2585.0860526087754 11450.334358079694 2335.6396449877616
  endloop
endfacet
facet normal 0.0 1.0 -0.0
  outer loop
    vertex 2583.3327730431442 11450.334358079694 2334.0812072896006
    vertex 2585.0860526087754 11450.334358079694 2335.6396449877616
    vertex 2584.9496187153068 11450.334358079694 2334.0812072896006
  endloop
endfacet
facet normal 0.0 1.0 -0.0
  outer loop
    vertex 2584.9496187153068 11450.334358079694 2334.0812072896006
    vertex 2585.0860526087754 11450.334358079694 2335.6396449877616
    vertex 2586.0015567305254 11450.334358079694 2333.750080149461
  endloop
endfacet
facet normal 0.0 1.0 -0.0
  outer loop
    vertex 2586.0015567305254 11450.334358079694 2333.750080149461
    vertex 2585.0860526087754 11450.334358079694 2335.6396449877616
    vertex 2586.605403036803 11450.334358079694 2335.2110226034874
  endloop
endfacet
facet normal 0.0 1.0 -0.0
  outer loop
    vertex 2586.0015567305254 11450.334358079694 2333.750080149461
    vertex 2586.605403036803 11450.334358079694 2335.2110226034874
    vertex 2587.0534947457445 11450.334358079694 2333.10714657305
  endloop
endfacet
facet normal 0.0 1.0 -0.0
  outer loop
    vertex 2587.0534947457445 11450.334358079694 2333.10714657305
    vertex 2586.605403036803 11450.334358079694 2335.2110226034874
    vertex 2587.93006021816 11450.334358079694 2334.41233442974
  endloop
endfacet
facet normal 0.0 1.0 -0.0
  outer loop
    vertex 2581.034203766036 11450.334358079694 2334.6266456218773
    vertex 2580.391270189625 11450.334358079694 2331.782489391693
    vertex 2580.391270189625 11450.334358079694 2333.516299632657
  endloop
endfacet
facet normal 0.0 1.0 -0.0
  outer loop
    vertex 2580.391270189625 11450.334358079694 2331.782489391693
    vertex 2581.034203766036 11450.334358079694 2334.6266456218773
    vertex 2581.20942768804 11450.334358079694 2330.652674077806
  endloop
endfacet
facet normal 0.0 1.0 -0.0
  outer loop
    vertex 2581.20942768804 11450.334358079694 2330.652674077806
    vertex 2581.034203766036 11450.334358079694 2334.6266456218773
    vertex 2581.910769238452 11450.334358079694 2335.308369226823
  endloop
endfacet
facet normal 0.0 1.0 -0.0
  outer loop
    vertex 2581.20942768804 11450.334358079694 2330.652674077806
    vertex 2581.910769238452 11450.334358079694 2335.308369226823
    vertex 2581.9886465371205 11450.334358079694 2332.2695197499684
  endloop
endfacet
facet normal 0.0 1.0 -0.0
  outer loop
    vertex 2581.20942768804 11450.334358079694 2330.652674077806
    vertex 2581.9886465371205 11450.334358079694 2332.2695197499684
    vertex 2582.4562075707286 11450.334358079694 2329.990419797527
  endloop
endfacet
facet normal 0.0 1.0 -0.0
  outer loop
    vertex 2581.9886465371205 11450.334358079694 2332.2695197499684
    vertex 2581.910769238452 11450.334358079694 2335.308369226823
    vertex 2581.9886465371205 11450.334358079694 2333.1266158977173
  endloop
endfacet
facet normal 0.0 1.0 -0.0
  outer loop
    vertex 2582.4562075707286 11450.334358079694 2329.990419797527
    vertex 2581.9886465371205 11450.334358079694 2332.2695197499684
    vertex 2582.3783302720603 11450.334358079694 2331.743550742359
  endloop
endfacet
facet normal 0.0 1.0 -0.0
  outer loop
    vertex 2582.4562075707286 11450.334358079694 2329.990419797527
    vertex 2582.3783302720603 11450.334358079694 2331.743550742359
    vertex 2582.9237686043366 11450.334358079694 2331.470831576221
  endloop
endfacet
facet normal 0.0 1.0 -0.0
  outer loop
    vertex 2582.4562075707286 11450.334358079694 2329.990419797527
    vertex 2582.9237686043366 11450.334358079694 2331.470831576221
    vertex 2585.650960265719 11450.334358079694 2329.4255121405836
  endloop
endfacet
facet normal 0.0 1.0 -0.0
  outer loop
    vertex 2585.650960265719 11450.334358079694 2329.4255121405836
    vertex 2582.9237686043366 11450.334358079694 2331.470831576221
    vertex 2586.293745221331 11450.334358079694 2330.8864545946103
  endloop
endfacet
facet normal 0.0 1.0 -0.0
  outer loop
    vertex 2585.650960265719 11450.334358079694 2329.4255121405836
    vertex 2586.293745221331 11450.334358079694 2330.8864545946103
    vertex 2586.23533724733 11450.334358079694 2329.0163590809766
  endloop
endfacet
facet normal 0.0 1.0 -0.0
  outer loop
    vertex 2586.23533724733 11450.334358079694 2329.0163590809766
    vertex 2586.293745221331 11450.334358079694 2330.8864545946103
    vertex 2586.5664643874693 11450.334358079694 2328.451451424033
  endloop
endfacet
facet normal 0.0 1.0 -0.0
  outer loop
    vertex 2586.5664643874693 11450.334358079694 2328.451451424033
    vertex 2586.293745221331 11450.334358079694 2330.8864545946103
    vertex 2587.404091210551 11450.334358079694 2330.146174394864
  endloop
endfacet
facet normal 0.0 1.0 -0.0
  outer loop
    vertex 2586.5664643874693 11450.334358079694 2328.451451424033
    vertex 2587.404091210551 11450.334358079694 2330.146174394864
    vertex 2586.5664643874693 11450.334358079694 2327.7111712242868
  endloop
endfacet
facet normal 0.0 1.0 -0.0
  outer loop
    vertex 2581.1510197140383 11450.334358079694 2327.808666468421
    vertex 2580.5082347584266 11450.334358079694 2326.2112901209257
    vertex 2580.0212044001514 11450.334358079694 2326.717789803868
  endloop
endfacet
facet normal 0.0 1.0 -0.0
  outer loop
    vertex 2580.5082347584266 11450.334358079694 2326.2112901209257
    vertex 2581.1510197140383 11450.334358079694 2327.808666468421
    vertex 2581.462677529511 11450.334358079694 2325.490479245847
  endloop
endfacet
facet normal 0.0 1.0 -0.0
  outer loop
    vertex 2581.462677529511 11450.334358079694 2325.490479245847
    vertex 2581.1510197140383 11450.334358079694 2327.808666468421
    vertex 2581.5601727736457 11450.334358079694 2327.36057475948
  endloop
endfacet
facet normal 0.0 1.0 -0.0
  outer loop
    vertex 2581.462677529511 11450.334358079694 2325.490479245847
    vertex 2581.5601727736457 11450.334358079694 2327.36057475948
    vertex 2583.040584552339 11450.334358079694 2325.061856861573
  endloop
endfacet
facet normal 0.0 1.0 -0.0
  outer loop
    vertex 2583.040584552339 11450.334358079694 2325.061856861573
    vertex 2581.5601727736457 11450.334358079694 2327.36057475948
    vertex 2582.105611105922 11450.334358079694 2326.951421699873
  endloop
endfacet
facet normal 0.0 1.0 -0.0
  outer loop
    vertex 2583.040584552339 11450.334358079694 2325.061856861573
    vertex 2582.105611105922 11450.334358079694 2326.951421699873
    vertex 2583.254895744476 11450.334358079694 2326.639763884401
  endloop
endfacet
facet normal 0.0 1.0 -0.0
  outer loop
    vertex 2583.040584552339 11450.334358079694 2325.061856861573
    vertex 2583.254895744476 11450.334358079694 2326.639763884401
    vertex 2585.144460582777 11450.334358079694 2325.061856861573
  endloop
endfacet
facet normal 0.0 1.0 -0.0
  outer loop
    vertex 2585.144460582777 11450.334358079694 2325.061856861573
    vertex 2583.254895744476 11450.334358079694 2326.639763884401
    vertex 2584.9301493906396 11450.334358079694 2326.639763884401
  endloop
endfacet
facet normal 0.0 1.0 -0.0
  outer loop
    vertex 2585.144460582777 11450.334358079694 2325.061856861573
    vertex 2584.9301493906396 11450.334358079694 2326.639763884401
    vertex 2585.748306889054 11450.334358079694 2326.873544401205
  endloop
endfacet
facet normal 0.0 1.0 -0.0
  outer loop
    vertex 2585.144460582777 11450.334358079694 2325.061856861573
    vertex 2585.748306889054 11450.334358079694 2326.873544401205
    vertex 2586.4691177641334 11450.334358079694 2325.4515405965126
  endloop
endfacet
facet normal 0.0 1.0 -0.0
  outer loop
    vertex 2586.4691177641334 11450.334358079694 2325.4515405965126
    vertex 2585.748306889054 11450.334358079694 2326.873544401205
    vertex 2586.23533724733 11450.334358079694 2327.2241408660116
  endloop
endfacet
facet normal 0.0 1.0 -0.0
  outer loop
    vertex 2586.4691177641334 11450.334358079694 2325.4515405965126
    vertex 2586.23533724733 11450.334358079694 2327.2241408660116
    vertex 2586.5664643874693 11450.334358079694 2327.7111712242868
  endloop
endfacet
facet normal 0.0 1.0 -0.0
  outer loop
    vertex 2586.4691177641334 11450.334358079694 2325.4515405965126
    vertex 2586.5664643874693 11450.334358079694 2327.7111712242868
    vertex 2587.404091210551 11450.334358079694 2326.1137948767914
  endloop
endfacet
facet normal 0.0 1.0 -0.0
  outer loop
    vertex 2587.404091210551 11450.334358079694 2326.1137948767914
    vertex 2586.5664643874693 11450.334358079694 2327.7111712242868
    vertex 2587.404091210551 11450.334358079694 2330.146174394864
  endloop
endfacet
facet normal 0.0 1.0 -0.0
  outer loop
    vertex 2587.404091210551 11450.334358079694 2326.1137948767914
    vertex 2587.404091210551 11450.334358079694 2330.146174394864
    vertex 2588.163840734964 11450.334358079694 2328.899543132974
  endloop
endfacet
facet normal 0.0 1.0 -0.0
  outer loop
    vertex 2587.404091210551 11450.334358079694 2326.1137948767914
    vertex 2588.163840734964 11450.334358079694 2328.899543132974
    vertex 2588.163840734964 11450.334358079694 2327.2436101906783
  endloop
endfacet
facet normal 0.0 1.0 -0.0
  outer loop
    vertex 2594.5365519746597 11450.334358079694 2334.899364788015
    vertex 2594.127398915053 11450.334358079694 2332.3084583993027
    vertex 2594.107929590386 11450.334358079694 2334.4512730790743
  endloop
endfacet
facet normal 0.0 1.0 -0.0
  outer loop
    vertex 2594.127398915053 11450.334358079694 2332.3084583993027
    vertex 2594.5365519746597 11450.334358079694 2334.899364788015
    vertex 2594.6923065719966 11450.334358079694 2333.1460852223845
  endloop
endfacet
facet normal 0.0 1.0 -0.0
  outer loop
    vertex 2594.6923065719966 11450.334358079694 2333.1460852223845
    vertex 2594.5365519746597 11450.334358079694 2334.899364788015
    vertex 2595.7442445872152 11450.334358079694 2335.6396449877616
  endloop
endfacet
facet normal 0.0 1.0 -0.0
  outer loop
    vertex 2594.6923065719966 11450.334358079694 2333.1460852223845
    vertex 2595.7442445872152 11450.334358079694 2335.6396449877616
    vertex 2595.9585557793525 11450.334358079694 2334.0422686402662
  endloop
endfacet
facet normal 0.0 1.0 -0.0
  outer loop
    vertex 2595.9585557793525 11450.334358079694 2334.0422686402662
    vertex 2595.7442445872152 11450.334358079694 2335.6396449877616
    vertex 2597.692217399517 11450.334358079694 2335.6396449877616
  endloop
endfacet
facet normal 0.0 1.0 -0.0
  outer loop
    vertex 2595.9585557793525 11450.334358079694 2334.0422686402662
    vertex 2597.692217399517 11450.334358079694 2335.6396449877616
    vertex 2597.438967558046 11450.334358079694 2334.0422686402662
  endloop
endfacet
facet normal 0.0 1.0 -0.0
  outer loop
    vertex 2597.438967558046 11450.334358079694 2334.0422686402662
    vertex 2597.692217399517 11450.334358079694 2335.6396449877616
    vertex 2598.6662781160676 11450.334358079694 2333.4577430378567
  endloop
endfacet
facet normal 0.0 1.0 -0.0
  outer loop
    vertex 2598.6662781160676 11450.334358079694 2333.4577430378567
    vertex 2597.692217399517 11450.334358079694 2335.6396449877616
    vertex 2599.7182161312867 11450.334358079694 2334.7045229205455
  endloop
endfacet
facet normal 0.0 1.0 -0.0
  outer loop
    vertex 2598.6662781160676 11450.334358079694 2333.4577430378567
    vertex 2599.7182161312867 11450.334358079694 2334.7045229205455
    vertex 2599.601251562485 11450.334358079694 2332.1916424513
  endloop
endfacet
facet normal 0.0 1.0 -0.0
  outer loop
    vertex 2599.601251562485 11450.334358079694 2332.1916424513
    vertex 2599.7182161312867 11450.334358079694 2334.7045229205455
    vertex 2599.8350320792892 11450.334358079694 2331.315076978884
  endloop
endfacet
facet normal 0.0 1.0 -0.0
  outer loop
    vertex 2599.8350320792892 11450.334358079694 2331.315076978884
    vertex 2599.7182161312867 11450.334358079694 2334.7045229205455
    vertex 2601.042873312643 11450.334358079694 2332.9123047055805
  endloop
endfacet
facet normal 0.0 1.0 -0.0
  outer loop
    vertex 2599.8350320792892 11450.334358079694 2331.315076978884
    vertex 2601.042873312643 11450.334358079694 2332.9123047055805
    vertex 2599.8350320792892 11450.334358079694 2329.4255121405836
  endloop
endfacet
facet normal 0.0 1.0 -0.0
  outer loop
    vertex 2594.5365519746597 11450.334358079694 2327.3800440841474
    vertex 2594.127398915053 11450.334358079694 2325.841075710653
    vertex 2594.127398915053 11450.334358079694 2327.8865437670897
  endloop
endfacet
facet normal 0.0 1.0 -0.0
  outer loop
    vertex 2594.127398915053 11450.334358079694 2325.841075710653
    vertex 2594.5365519746597 11450.334358079694 2327.3800440841474
    vertex 2594.6728372473294 11450.334358079694 2325.490479245847
  endloop
endfacet
facet normal 0.0 1.0 -0.0
  outer loop
    vertex 2594.6728372473294 11450.334358079694 2325.490479245847
    vertex 2594.5365519746597 11450.334358079694 2327.3800440841474
    vertex 2595.276683553607 11450.334358079694 2326.893013725872
  endloop
endfacet
facet normal 0.0 1.0 -0.0
  outer loop
    vertex 2594.6728372473294 11450.334358079694 2325.490479245847
    vertex 2595.276683553607 11450.334358079694 2326.893013725872
    vertex 2595.8415912105506 11450.334358079694 2325.061856861573
  endloop
endfacet
facet normal 0.0 1.0 -0.0
  outer loop
    vertex 2595.8415912105506 11450.334358079694 2325.061856861573
    vertex 2595.276683553607 11450.334358079694 2326.893013725872
    vertex 2596.075371727355 11450.334358079694 2326.639763884401
  endloop
endfacet
facet normal 0.0 1.0 -0.0
  outer loop
    vertex 2595.8415912105506 11450.334358079694 2325.061856861573
    vertex 2596.075371727355 11450.334358079694 2326.639763884401
    vertex 2597.7702433189847 11450.334358079694 2325.061856861573
  endloop
endfacet
facet normal 0.0 1.0 -0.0
  outer loop
    vertex 2597.7702433189847 11450.334358079694 2325.061856861573
    vertex 2596.075371727355 11450.334358079694 2326.639763884401
    vertex 2597.5169934775136 11450.334358079694 2326.639763884401
  endloop
endfacet
facet normal 0.0 1.0 -0.0
  outer loop
    vertex 2597.7702433189847 11450.334358079694 2325.061856861573
    vertex 2597.5169934775136 11450.334358079694 2326.639763884401
    vertex 2598.6662781160676 11450.334358079694 2327.263228136145
  endloop
endfacet
facet normal 0.0 1.0 -0.0
  outer loop
    vertex 2597.7702433189847 11450.334358079694 2325.061856861573
    vertex 2598.6662781160676 11450.334358079694 2327.263228136145
    vertex 2599.7182161312867 11450.334358079694 2325.996978928789
  endloop
endfacet
facet normal 0.0 1.0 -0.0
  outer loop
    vertex 2599.7182161312867 11450.334358079694 2325.996978928789
    vertex 2598.6662781160676 11450.334358079694 2327.263228136145
    vertex 2599.601251562485 11450.334358079694 2328.509859398034
  endloop
endfacet
facet normal 0.0 1.0 -0.0
  outer loop
    vertex 2599.7182161312867 11450.334358079694 2325.996978928789
    vertex 2599.601251562485 11450.334358079694 2328.509859398034
    vertex 2599.8350320792892 11450.334358079694 2329.4255121405836
  endloop
endfacet
facet normal 0.0 1.0 -0.0
  outer loop
    vertex 2599.7182161312867 11450.334358079694 2325.996978928789
    vertex 2599.8350320792892 11450.334358079694 2329.4255121405836
    vertex 2601.042873312643 11450.334358079694 2327.789197143754
  endloop
endfacet
facet normal 0.0 1.0 -0.0
  outer loop
    vertex 2601.042873312643 11450.334358079694 2327.789197143754
    vertex 2599.8350320792892 11450.334358079694 2329.4255121405836
    vertex 2601.042873312643 11450.334358079694 2332.9123047055805
  endloop
endfacet
facet normal 0.0 1.0 -0.0
  outer loop
    vertex 2601.042873312643 11450.334358079694 2327.789197143754
    vertex 2601.042873312643 11450.334358079694 2332.9123047055805
    vertex 2601.4518777514513 11450.334358079694 2331.529239550222
  endloop
endfacet
facet normal 0.0 1.0 -0.0
  outer loop
    vertex 2601.042873312643 11450.334358079694 2327.789197143754
    vertex 2601.4518777514513 11450.334358079694 2331.529239550222
    vertex 2601.4518777514513 11450.334358079694 2329.2112009484463
  endloop
endfacet
facet normal 0.0 1.0 -0.0
  outer loop
    vertex 2594.107929590386 11450.334358079694 2335.483741769626
    vertex 2592.5105532428906 11450.334358079694 2322.061946034052
    vertex 2592.5105532428906 11450.334358079694 2335.483741769626
  endloop
endfacet
facet normal 0.0 1.0 -0.0
  outer loop
    vertex 2592.5105532428906 11450.334358079694 2322.061946034052
    vertex 2594.107929590386 11450.334358079694 2335.483741769626
    vertex 2594.107929590386 11450.334358079694 2334.4512730790743
  endloop
endfacet
facet normal 0.0 1.0 -0.0
  outer loop
    vertex 2592.5105532428906 11450.334358079694 2322.061946034052
    vertex 2594.107929590386 11450.334358079694 2334.4512730790743
    vertex 2594.127398915053 11450.334358079694 2322.061946034052
  endloop
endfacet
facet normal 0.0 1.0 -0.0
  outer loop
    vertex 2594.127398915053 11450.334358079694 2322.061946034052
    vertex 2594.107929590386 11450.334358079694 2334.4512730790743
    vertex 2594.127398915053 11450.334358079694 2332.3084583993027
  endloop
endfacet
facet normal 0.0 1.0 -0.0
  outer loop
    vertex 2594.127398915053 11450.334358079694 2322.061946034052
    vertex 2594.127398915053 11450.334358079694 2332.3084583993027
    vertex 2594.127398915053 11450.334358079694 2327.8865437670897
  endloop
endfacet
facet normal 0.0 1.0 -0.0
  outer loop
    vertex 2594.127398915053 11450.334358079694 2322.061946034052
    vertex 2594.127398915053 11450.334358079694 2327.8865437670897
    vertex 2594.127398915053 11450.334358079694 2325.841075710653
  endloop
endfacet
facet normal 0.0 1.0 -0.0
  outer loop
    vertex 2605.5064017685727 11450.334358079694 2334.665584271211
    vertex 2606.071309425516 11450.334358079694 2333.0097999497148
    vertex 2604.960963436296 11450.334358079694 2334.159084588269
  endloop
endfacet
facet normal 0.0 1.0 -0.0
  outer loop
    vertex 2606.071309425516 11450.334358079694 2333.0097999497148
    vertex 2605.5064017685727 11450.334358079694 2334.665584271211
    vertex 2606.44137521499 11450.334358079694 2335.269430577489
  endloop
endfacet
facet normal 0.0 1.0 -0.0
  outer loop
    vertex 2606.071309425516 11450.334358079694 2333.0097999497148
    vertex 2606.44137521499 11450.334358079694 2335.269430577489
    vertex 2606.44137521499 11450.334358079694 2333.3798657391885
  endloop
endfacet
facet normal 0.0 1.0 -0.0
  outer loop
    vertex 2606.44137521499 11450.334358079694 2333.3798657391885
    vertex 2606.44137521499 11450.334358079694 2335.269430577489
    vertex 2607.6881550976786 11450.334358079694 2335.6396449877616
  endloop
endfacet
facet normal 0.0 1.0 -0.0
  outer loop
    vertex 2606.44137521499 11450.334358079694 2333.3798657391885
    vertex 2607.6881550976786 11450.334358079694 2335.6396449877616
    vertex 2607.0453701420665 11450.334358079694 2333.7695494741283
  endloop
endfacet
facet normal 0.0 1.0 -0.0
  outer loop
    vertex 2607.0453701420665 11450.334358079694 2333.7695494741283
    vertex 2607.6881550976786 11450.334358079694 2335.6396449877616
    vertex 2607.8829969651483 11450.334358079694 2334.0422686402662
  endloop
endfacet
facet normal 0.0 1.0 -0.0
  outer loop
    vertex 2607.8829969651483 11450.334358079694 2334.0422686402662
    vertex 2607.6881550976786 11450.334358079694 2335.6396449877616
    vertex 2609.6945358839816 11450.334358079694 2335.6396449877616
  endloop
endfacet
facet normal 0.0 1.0 -0.0
  outer loop
    vertex 2607.8829969651483 11450.334358079694 2334.0422686402662
    vertex 2609.6945358839816 11450.334358079694 2335.6396449877616
    vertex 2609.4609039879765 11450.334358079694 2334.0422686402662
  endloop
endfacet
facet normal 0.0 1.0 -0.0
  outer loop
    vertex 2609.4609039879765 11450.334358079694 2334.0422686402662
    vertex 2609.6945358839816 11450.334358079694 2335.6396449877616
    vertex 2610.415346759061 11450.334358079694 2333.808488123462
  endloop
endfacet
facet normal 0.0 1.0 -0.0
  outer loop
    vertex 2610.415346759061 11450.334358079694 2333.808488123462
    vertex 2609.6945358839816 11450.334358079694 2335.6396449877616
    vertex 2611.097218984806 11450.334358079694 2335.288899902156
  endloop
endfacet
facet normal 0.0 1.0 -0.0
  outer loop
    vertex 2610.415346759061 11450.334358079694 2333.808488123462
    vertex 2611.097218984806 11450.334358079694 2335.288899902156
    vertex 2611.2335042574755 11450.334358079694 2333.282519115853
  endloop
endfacet
facet normal 0.0 1.0 -0.0
  outer loop
    vertex 2611.2335042574755 11450.334358079694 2333.282519115853
    vertex 2611.097218984806 11450.334358079694 2335.288899902156
    vertex 2612.5386921141658 11450.334358079694 2334.3149878064046
  endloop
endfacet
facet normal 0.0 1.0 -0.0
  outer loop
    vertex 2611.2335042574755 11450.334358079694 2333.282519115853
    vertex 2612.5386921141658 11450.334358079694 2334.3149878064046
    vertex 2611.4478154496123 11450.334358079694 2332.698142134242
  endloop
endfacet
facet normal 0.0 1.0 -0.0
  outer loop
    vertex 2611.4478154496123 11450.334358079694 2332.698142134242
    vertex 2612.5386921141658 11450.334358079694 2334.3149878064046
    vertex 2611.4478154496123 11450.334358079694 2331.2175817347497
  endloop
endfacet
facet normal 0.0 1.0 -0.0
  outer loop
    vertex 2611.4478154496123 11450.334358079694 2331.2175817347497
    vertex 2612.5386921141658 11450.334358079694 2334.3149878064046
    vertex 2611.4478154496123 11450.334358079694 2329.366955545783
  endloop
endfacet
facet normal 0.0 1.0 -0.0
  outer loop
    vertex 2611.4478154496123 11450.334358079694 2329.366955545783
    vertex 2612.5386921141658 11450.334358079694 2334.3149878064046
    vertex 2611.4478154496123 11450.334358079694 2328.646293291503
  endloop
endfacet
facet normal 0.0 1.0 -0.0
  outer loop
    vertex 2611.4478154496123 11450.334358079694 2328.646293291503
    vertex 2612.5386921141658 11450.334358079694 2334.3149878064046
    vertex 2611.584100722282 11450.334358079694 2326.4645399623973
  endloop
endfacet
facet normal 0.0 1.0 -0.0
  outer loop
    vertex 2611.584100722282 11450.334358079694 2326.4645399623973
    vertex 2612.5386921141658 11450.334358079694 2334.3149878064046
    vertex 2612.5192227894986 11450.334358079694 2325.061856861573
  endloop
endfacet
facet normal 0.0 1.0 -0.0
  outer loop
    vertex 2612.5192227894986 11450.334358079694 2325.061856861573
    vertex 2612.5386921141658 11450.334358079694 2334.3149878064046
    vertex 2613.064661121775 11450.334358079694 2327.087855593342
  endloop
endfacet
facet normal 0.0 1.0 -0.0
  outer loop
    vertex 2612.5192227894986 11450.334358079694 2325.061856861573
    vertex 2613.064661121775 11450.334358079694 2327.087855593342
    vertex 2613.824410646188 11450.334358079694 2325.996978928789
  endloop
endfacet
facet normal 0.0 1.0 -0.0
  outer loop
    vertex 2613.064661121775 11450.334358079694 2327.087855593342
    vertex 2612.5386921141658 11450.334358079694 2334.3149878064046
    vertex 2613.064661121775 11450.334358079694 2332.9903306250476
  endloop
endfacet
facet normal 0.0 1.0 -0.0
  outer loop
    vertex 2605.681774311375 11450.334358079694 2326.016448253456
    vertex 2606.2077433189847 11450.334358079694 2328.0619163098922
    vertex 2606.616747757793 11450.334358079694 2325.4710099211798
  endloop
endfacet
facet normal 0.0 1.0 -0.0
  outer loop
    vertex 2606.2077433189847 11450.334358079694 2328.0619163098922
    vertex 2605.681774311375 11450.334358079694 2326.016448253456
    vertex 2606.2077433189847 11450.334358079694 2328.5877366967024
  endloop
endfacet
facet normal 0.0 1.0 -0.0
  outer loop
    vertex 2606.616747757793 11450.334358079694 2325.4710099211798
    vertex 2606.2077433189847 11450.334358079694 2328.0619163098922
    vertex 2606.8115896252625 11450.334358079694 2327.2046715413444
  endloop
endfacet
facet normal 0.0 1.0 -0.0
  outer loop
    vertex 2606.616747757793 11450.334358079694 2325.4710099211798
    vertex 2606.8115896252625 11450.334358079694 2327.2046715413444
    vertex 2607.9414049391494 11450.334358079694 2325.061856861573
  endloop
endfacet
facet normal 0.0 1.0 -0.0
  outer loop
    vertex 2607.9414049391494 11450.334358079694 2325.061856861573
    vertex 2606.8115896252625 11450.334358079694 2327.2046715413444
    vertex 2607.2595327134045 11450.334358079694 2326.931952375206
  endloop
endfacet
facet normal 0.0 1.0 -0.0
  outer loop
    vertex 2607.9414049391494 11450.334358079694 2325.061856861573
    vertex 2607.2595327134045 11450.334358079694 2326.931952375206
    vertex 2608.1751854559534 11450.334358079694 2326.659233209068
  endloop
endfacet
facet normal 0.0 1.0 -0.0
  outer loop
    vertex 2607.9414049391494 11450.334358079694 2325.061856861573
    vertex 2608.1751854559534 11450.334358079694 2326.659233209068
    vertex 2609.343939419175 11450.334358079694 2325.061856861573
  endloop
endfacet
facet normal 0.0 1.0 -0.0
  outer loop
    vertex 2609.343939419175 11450.334358079694 2325.061856861573
    vertex 2608.1751854559534 11450.334358079694 2326.659233209068
    vertex 2608.993342954368 11450.334358079694 2326.659233209068
  endloop
endfacet
facet normal 0.0 1.0 -0.0
  outer loop
    vertex 2609.343939419175 11450.334358079694 2325.061856861573
    vertex 2608.993342954368 11450.334358079694 2326.659233209068
    vertex 2610.4542854083948 11450.334358079694 2327.2046715413444
  endloop
endfacet
facet normal 0.0 1.0 -0.0
  outer loop
    vertex 2609.343939419175 11450.334358079694 2325.061856861573
    vertex 2610.4542854083948 11450.334358079694 2327.2046715413444
    vertex 2611.1361576341396 11450.334358079694 2325.9580402794545
  endloop
endfacet
facet normal 0.0 1.0 -0.0
  outer loop
    vertex 2611.1361576341396 11450.334358079694 2325.9580402794545
    vertex 2610.4542854083948 11450.334358079694 2327.2046715413444
    vertex 2611.2529735821427 11450.334358079694 2328.042298364426
  endloop
endfacet
facet normal 0.0 1.0 -0.0
  outer loop
    vertex 2611.1361576341396 11450.334358079694 2325.9580402794545
    vertex 2611.2529735821427 11450.334358079694 2328.042298364426
    vertex 2611.584100722282 11450.334358079694 2326.4645399623973
  endloop
endfacet
facet normal 0.0 1.0 -0.0
  outer loop
    vertex 2611.584100722282 11450.334358079694 2326.4645399623973
    vertex 2611.2529735821427 11450.334358079694 2328.042298364426
    vertex 2611.4478154496123 11450.334358079694 2328.646293291503
  endloop
endfacet
facet normal 0.0 1.0 -0.0
  outer loop
    vertex 2604.86361681296 11450.334358079694 2330.0488277715285
    vertex 2604.590897646822 11450.334358079694 2327.594355276284
    vertex 2604.590897646822 11450.334358079694 2328.7241705901715
  endloop
endfacet
facet normal 0.0 1.0 -0.0
  outer loop
    vertex 2604.590897646822 11450.334358079694 2327.594355276284
    vertex 2604.86361681296 11450.334358079694 2330.0488277715285
    vertex 2605.681774311375 11450.334358079694 2326.016448253456
  endloop
endfacet
facet normal 0.0 1.0 -0.0
  outer loop
    vertex 2605.681774311375 11450.334358079694 2326.016448253456
    vertex 2604.86361681296 11450.334358079694 2330.0488277715285
    vertex 2606.3050899423197 11450.334358079694 2331.490300900888
  endloop
endfacet
facet normal 0.0 1.0 -0.0
  outer loop
    vertex 2605.681774311375 11450.334358079694 2326.016448253456
    vertex 2606.3050899423197 11450.334358079694 2331.490300900888
    vertex 2606.2077433189847 11450.334358079694 2328.5877366967024
  endloop
endfacet
facet normal 0.0 1.0 -0.0
  outer loop
    vertex 2606.2077433189847 11450.334358079694 2328.5877366967024
    vertex 2606.3050899423197 11450.334358079694 2331.490300900888
    vertex 2606.363497916321 11450.334358079694 2329.269608922448
  endloop
endfacet
facet normal 0.0 1.0 -0.0
  outer loop
    vertex 2606.363497916321 11450.334358079694 2329.269608922448
    vertex 2606.3050899423197 11450.334358079694 2331.490300900888
    vertex 2608.233593429955 11450.334358079694 2331.977331259163
  endloop
endfacet
facet normal 0.0 1.0 -0.0
  outer loop
    vertex 2606.363497916321 11450.334358079694 2329.269608922448
    vertex 2608.233593429955 11450.334358079694 2331.977331259163
    vertex 2607.1232474407348 11450.334358079694 2330.0293584468614
  endloop
endfacet
facet normal 0.0 1.0 -0.0
  outer loop
    vertex 2607.1232474407348 11450.334358079694 2330.0293584468614
    vertex 2608.233593429955 11450.334358079694 2331.977331259163
    vertex 2608.408965972758 11450.334358079694 2330.379954911668
  endloop
endfacet
facet normal 0.0 1.0 -0.0
  outer loop
    vertex 2608.408965972758 11450.334358079694 2330.379954911668
    vertex 2608.233593429955 11450.334358079694 2331.977331259163
    vertex 2609.63612790998 11450.334358079694 2331.977331259163
  endloop
endfacet
facet normal 0.0 1.0 -0.0
  outer loop
    vertex 2608.408965972758 11450.334358079694 2330.379954911668
    vertex 2609.63612790998 11450.334358079694 2331.977331259163
    vertex 2609.4609039879765 11450.334358079694 2330.379954911668
  endloop
endfacet
facet normal 0.0 1.0 -0.0
  outer loop
    vertex 2609.4609039879765 11450.334358079694 2330.379954911668
    vertex 2609.63612790998 11450.334358079694 2331.977331259163
    vertex 2610.4348160837276 11450.334358079694 2330.1072357455296
  endloop
endfacet
facet normal 0.0 1.0 -0.0
  outer loop
    vertex 2610.4348160837276 11450.334358079694 2330.1072357455296
    vertex 2609.63612790998 11450.334358079694 2331.977331259163
    vertex 2610.9413157666704 11450.334358079694 2331.548708874889
  endloop
endfacet
facet normal 0.0 1.0 -0.0
  outer loop
    vertex 2610.4348160837276 11450.334358079694 2330.1072357455296
    vertex 2610.9413157666704 11450.334358079694 2331.548708874889
    vertex 2611.0386623900054 11450.334358079694 2329.7955779300573
  endloop
endfacet
facet normal 0.0 1.0 -0.0
  outer loop
    vertex 2611.0386623900054 11450.334358079694 2329.7955779300573
    vertex 2610.9413157666704 11450.334358079694 2331.548708874889
    vertex 2611.4478154496123 11450.334358079694 2331.2175817347497
  endloop
endfacet
facet normal 0.0 1.0 -0.0
  outer loop
    vertex 2611.0386623900054 11450.334358079694 2329.7955779300573
    vertex 2611.4478154496123 11450.334358079694 2331.2175817347497
    vertex 2611.4478154496123 11450.334358079694 2329.366955545783
  endloop
endfacet
facet normal 0.0 1.0 -0.0
  outer loop
    vertex 2617.684092795839 11450.334358079694 2332.9123047055805
    vertex 2617.2749397362327 11450.334358079694 2329.1722622991124
    vertex 2617.2749397362327 11450.334358079694 2331.490300900888
  endloop
endfacet
facet normal 0.0 1.0 -0.0
  outer loop
    vertex 2617.2749397362327 11450.334358079694 2329.1722622991124
    vertex 2617.684092795839 11450.334358079694 2332.9123047055805
    vertex 2617.684092795839 11450.334358079694 2327.789197143754
  endloop
endfacet
facet normal 0.0 1.0 -0.0
  outer loop
    vertex 2617.684092795839 11450.334358079694 2327.789197143754
    vertex 2617.684092795839 11450.334358079694 2332.9123047055805
    vertex 2619.0087499771967 11450.334358079694 2334.7045229205455
  endloop
endfacet
facet normal 0.0 1.0 -0.0
  outer loop
    vertex 2617.684092795839 11450.334358079694 2327.789197143754
    vertex 2619.0087499771967 11450.334358079694 2334.7045229205455
    vertex 2618.891785408395 11450.334358079694 2331.275989708751
  endloop
endfacet
facet normal 0.0 1.0 -0.0
  outer loop
    vertex 2618.891785408395 11450.334358079694 2331.275989708751
    vertex 2619.0087499771967 11450.334358079694 2334.7045229205455
    vertex 2619.145035249866 11450.334358079694 2332.2111117759673
  endloop
endfacet
facet normal 0.0 1.0 -0.0
  outer loop
    vertex 2619.145035249866 11450.334358079694 2332.2111117759673
    vertex 2619.0087499771967 11450.334358079694 2334.7045229205455
    vertex 2620.9761921141653 11450.334358079694 2335.6396449877616
  endloop
endfacet
facet normal 0.0 1.0 -0.0
  outer loop
    vertex 2619.145035249866 11450.334358079694 2332.2111117759673
    vertex 2620.9761921141653 11450.334358079694 2335.6396449877616
    vertex 2620.041218667748 11450.334358079694 2333.4382737131896
  endloop
endfacet
facet normal 0.0 1.0 -0.0
  outer loop
    vertex 2620.041218667748 11450.334358079694 2333.4382737131896
    vertex 2620.9761921141653 11450.334358079694 2335.6396449877616
    vertex 2621.2878499296376 11450.334358079694 2334.0422686402662
  endloop
endfacet
facet normal 0.0 1.0 -0.0
  outer loop
    vertex 2621.2878499296376 11450.334358079694 2334.0422686402662
    vertex 2620.9761921141653 11450.334358079694 2335.6396449877616
    vertex 2623.1579454432713 11450.334358079694 2335.6396449877616
  endloop
endfacet
facet normal 0.0 1.0 -0.0
  outer loop
    vertex 2621.2878499296376 11450.334358079694 2334.0422686402662
    vertex 2623.1579454432713 11450.334358079694 2335.6396449877616
    vertex 2622.9631035758016 11450.334358079694 2334.0422686402662
  endloop
endfacet
facet normal 0.0 1.0 -0.0
  outer loop
    vertex 2622.9631035758016 11450.334358079694 2334.0422686402662
    vertex 2623.1579454432713 11450.334358079694 2335.6396449877616
    vertex 2623.8398176690166 11450.334358079694 2333.7695494741283
  endloop
endfacet
facet normal 0.0 1.0 -0.0
  outer loop
    vertex 2623.8398176690166 11450.334358079694 2333.7695494741283
    vertex 2623.1579454432713 11450.334358079694 2335.6396449877616
    vertex 2624.6385058427636 11450.334358079694 2335.1526146294864
  endloop
endfacet
facet normal 0.0 1.0 -0.0
  outer loop
    vertex 2623.8398176690166 11450.334358079694 2333.7695494741283
    vertex 2624.6385058427636 11450.334358079694 2335.1526146294864
    vertex 2624.8526684141016 11450.334358079694 2332.7954887575775
  endloop
endfacet
facet normal 0.0 1.0 -0.0
  outer loop
    vertex 2624.8526684141016 11450.334358079694 2332.7954887575775
    vertex 2624.6385058427636 11450.334358079694 2335.1526146294864
    vertex 2626.0021016734554 11450.334358079694 2333.8668960974637
  endloop
endfacet
facet normal 0.0 1.0 -0.0
  outer loop
    vertex 2617.684092795839 11450.334358079694 2327.789197143754
    vertex 2618.891785408395 11450.334358079694 2329.4058941951175
    vertex 2619.0087499771967 11450.334358079694 2325.996978928789
  endloop
endfacet
facet normal 0.0 1.0 -0.0
  outer loop
    vertex 2618.891785408395 11450.334358079694 2329.4058941951175
    vertex 2617.684092795839 11450.334358079694 2327.789197143754
    vertex 2618.891785408395 11450.334358079694 2331.275989708751
  endloop
endfacet
facet normal 0.0 1.0 -0.0
  outer loop
    vertex 2619.0087499771967 11450.334358079694 2325.996978928789
    vertex 2618.891785408395 11450.334358079694 2329.4058941951175
    vertex 2619.1255659251988 11450.334358079694 2328.509859398034
  endloop
endfacet
facet normal 0.0 1.0 -0.0
  outer loop
    vertex 2619.0087499771967 11450.334358079694 2325.996978928789
    vertex 2619.1255659251988 11450.334358079694 2328.509859398034
    vertex 2620.9761921141653 11450.334358079694 2325.061856861573
  endloop
endfacet
facet normal 0.0 1.0 -0.0
  outer loop
    vertex 2620.9761921141653 11450.334358079694 2325.061856861573
    vertex 2619.1255659251988 11450.334358079694 2328.509859398034
    vertex 2620.0801573170825 11450.334358079694 2327.2436101906783
  endloop
endfacet
facet normal 0.0 1.0 -0.0
  outer loop
    vertex 2620.9761921141653 11450.334358079694 2325.061856861573
    vertex 2620.0801573170825 11450.334358079694 2327.2436101906783
    vertex 2621.2878499296376 11450.334358079694 2326.659233209068
  endloop
endfacet
facet normal 0.0 1.0 -0.0
  outer loop
    vertex 2620.9761921141653 11450.334358079694 2325.061856861573
    vertex 2621.2878499296376 11450.334358079694 2326.659233209068
    vertex 2623.1579454432713 11450.334358079694 2325.061856861573
  endloop
endfacet
facet normal 0.0 1.0 -0.0
  outer loop
    vertex 2623.1579454432713 11450.334358079694 2325.061856861573
    vertex 2621.2878499296376 11450.334358079694 2326.659233209068
    vertex 2622.9631035758016 11450.334358079694 2326.659233209068
  endloop
endfacet
facet normal 0.0 1.0 -0.0
  outer loop
    vertex 2623.1579454432713 11450.334358079694 2325.061856861573
    vertex 2622.9631035758016 11450.334358079694 2326.659233209068
    vertex 2623.8398176690166 11450.334358079694 2326.9708910245404
  endloop
endfacet
facet normal 0.0 1.0 -0.0
  outer loop
    vertex 2623.1579454432713 11450.334358079694 2325.061856861573
    vertex 2623.8398176690166 11450.334358079694 2326.9708910245404
    vertex 2624.6385058427636 11450.334358079694 2325.548887219848
  endloop
endfacet
facet normal 0.0 1.0 -0.0
  outer loop
    vertex 2624.6385058427636 11450.334358079694 2325.548887219848
    vertex 2623.8398176690166 11450.334358079694 2326.9708910245404
    vertex 2624.8526684141016 11450.334358079694 2327.9060130917564
  endloop
endfacet
facet normal 0.0 1.0 -0.0
  outer loop
    vertex 2624.6385058427636 11450.334358079694 2325.548887219848
    vertex 2624.8526684141016 11450.334358079694 2327.9060130917564
    vertex 2625.9826323487882 11450.334358079694 2326.7956671025368
  endloop
endfacet
facet normal 0.0 1.0 -0.0
  outer loop
    vertex 2629.803375849105 11450.334358079694 2332.9123047055805
    vertex 2629.394222789498 11450.334358079694 2329.1722622991124
    vertex 2629.394222789498 11450.334358079694 2331.490300900888
  endloop
endfacet
facet normal 0.0 1.0 -0.0
  outer loop
    vertex 2629.394222789498 11450.334358079694 2329.1722622991124
    vertex 2629.803375849105 11450.334358079694 2332.9123047055805
    vertex 2629.803375849105 11450.334358079694 2327.789197143754
  endloop
endfacet
facet normal 0.0 1.0 -0.0
  outer loop
    vertex 2629.803375849105 11450.334358079694 2327.789197143754
    vertex 2629.803375849105 11450.334358079694 2332.9123047055805
    vertex 2631.128033030462 11450.334358079694 2334.7045229205455
  endloop
endfacet
facet normal 0.0 1.0 -0.0
  outer loop
    vertex 2629.803375849105 11450.334358079694 2327.789197143754
    vertex 2631.128033030462 11450.334358079694 2334.7045229205455
    vertex 2631.0110684616607 11450.334358079694 2331.334546303551
  endloop
endfacet
facet normal 0.0 1.0 -0.0
  outer loop
    vertex 2631.0110684616607 11450.334358079694 2331.334546303551
    vertex 2631.128033030462 11450.334358079694 2334.7045229205455
    vertex 2631.2448489784647 11450.334358079694 2332.1916424513
  endloop
endfacet
facet normal 0.0 1.0 -0.0
  outer loop
    vertex 2631.2448489784647 11450.334358079694 2332.1916424513
    vertex 2631.128033030462 11450.334358079694 2334.7045229205455
    vertex 2633.076005842764 11450.334358079694 2335.6396449877616
  endloop
endfacet
facet normal 0.0 1.0 -0.0
  outer loop
    vertex 2631.2448489784647 11450.334358079694 2332.1916424513
    vertex 2633.076005842764 11450.334358079694 2335.6396449877616
    vertex 2632.160353100215 11450.334358079694 2333.4382737131896
  endloop
endfacet
facet normal 0.0 1.0 -0.0
  outer loop
    vertex 2632.160353100215 11450.334358079694 2333.4382737131896
    vertex 2633.076005842764 11450.334358079694 2335.6396449877616
    vertex 2633.3292556842352 11450.334358079694 2334.0422686402662
  endloop
endfacet
facet normal 0.0 1.0 -0.0
  outer loop
    vertex 2633.3292556842352 11450.334358079694 2334.0422686402662
    vertex 2633.076005842764 11450.334358079694 2335.6396449877616
    vertex 2635.199351197869 11450.334358079694 2335.6396449877616
  endloop
endfacet
facet normal 0.0 1.0 -0.0
  outer loop
    vertex 2633.3292556842352 11450.334358079694 2334.0422686402662
    vertex 2635.199351197869 11450.334358079694 2335.6396449877616
    vertex 2634.92663203173 11450.334358079694 2334.0422686402662
  endloop
endfacet
facet normal 0.0 1.0 -0.0
  outer loop
    vertex 2634.92663203173 11450.334358079694 2334.0422686402662
    vertex 2635.199351197869 11450.334358079694 2335.6396449877616
    vertex 2636.114855319619 11450.334358079694 2333.4188043885224
  endloop
endfacet
facet normal 0.0 1.0 -0.0
  outer loop
    vertex 2636.114855319619 11450.334358079694 2333.4188043885224
    vertex 2635.199351197869 11450.334358079694 2335.6396449877616
    vertex 2637.1667933348376 11450.334358079694 2334.7045229205455
  endloop
endfacet
facet normal 0.0 1.0 -0.0
  outer loop
    vertex 2636.114855319619 11450.334358079694 2333.4188043885224
    vertex 2637.1667933348376 11450.334358079694 2334.7045229205455
    vertex 2637.049828766036 11450.334358079694 2332.152703801966
  endloop
endfacet
facet normal 0.0 1.0 -0.0
  outer loop
    vertex 2637.049828766036 11450.334358079694 2332.152703801966
    vertex 2637.1667933348376 11450.334358079694 2334.7045229205455
    vertex 2637.303078607507 11450.334358079694 2331.4124236022194
  endloop
endfacet
facet normal 0.0 1.0 -0.0
  outer loop
    vertex 2637.303078607507 11450.334358079694 2331.4124236022194
    vertex 2637.1667933348376 11450.334358079694 2334.7045229205455
    vertex 2638.471981191528 11450.334358079694 2332.9123047055805
  endloop
endfacet
facet normal 0.0 1.0 -0.0
  outer loop
    vertex 2637.303078607507 11450.334358079694 2331.4124236022194
    vertex 2638.471981191528 11450.334358079694 2332.9123047055805
    vertex 2637.303078607507 11450.334358079694 2331.1591737607487
  endloop
endfacet
facet normal 0.0 1.0 -0.0
  outer loop
    vertex 2637.303078607507 11450.334358079694 2331.1591737607487
    vertex 2631.0110684616607 11450.334358079694 2329.561797413253
    vertex 2631.0110684616607 11450.334358079694 2331.1591737607487
  endloop
endfacet
facet normal 0.0 1.0 -0.0
  outer loop
    vertex 2631.0110684616607 11450.334358079694 2329.561797413253
    vertex 2637.303078607507 11450.334358079694 2331.1591737607487
    vertex 2638.9199242796694 11450.334358079694 2329.561797413253
  endloop
endfacet
facet normal 0.0 1.0 -0.0
  outer loop
    vertex 2638.9199242796694 11450.334358079694 2329.561797413253
    vertex 2637.303078607507 11450.334358079694 2331.1591737607487
    vertex 2638.471981191528 11450.334358079694 2332.9123047055805
  endloop
endfacet
facet normal 0.0 1.0 -0.0
  outer loop
    vertex 2638.9199242796694 11450.334358079694 2329.561797413253
    vertex 2638.471981191528 11450.334358079694 2332.9123047055805
    vertex 2638.9199242796694 11450.334358079694 2331.607265469689
  endloop
endfacet
facet normal 0.0 1.0 -0.0
  outer loop
    vertex 2629.803375849105 11450.334358079694 2327.789197143754
    vertex 2631.0110684616607 11450.334358079694 2329.366955545783
    vertex 2631.128033030462 11450.334358079694 2325.996978928789
  endloop
endfacet
facet normal 0.0 1.0 -0.0
  outer loop
    vertex 2631.0110684616607 11450.334358079694 2329.366955545783
    vertex 2629.803375849105 11450.334358079694 2327.789197143754
    vertex 2631.0110684616607 11450.334358079694 2331.334546303551
  endloop
endfacet
facet normal 0.0 1.0 -0.0
  outer loop
    vertex 2631.0110684616607 11450.334358079694 2329.366955545783
    vertex 2631.0110684616607 11450.334358079694 2331.334546303551
    vertex 2631.0110684616607 11450.334358079694 2331.1591737607487
  endloop
endfacet
facet normal 0.0 1.0 -0.0
  outer loop
    vertex 2631.0110684616607 11450.334358079694 2329.366955545783
    vertex 2631.0110684616607 11450.334358079694 2331.1591737607487
    vertex 2631.0110684616607 11450.334358079694 2329.561797413253
  endloop
endfacet
facet normal 0.0 1.0 -0.0
  outer loop
    vertex 2631.128033030462 11450.334358079694 2325.996978928789
    vertex 2631.0110684616607 11450.334358079694 2329.366955545783
    vertex 2631.264318303132 11450.334358079694 2328.509859398034
  endloop
endfacet
facet normal 0.0 1.0 -0.0
  outer loop
    vertex 2631.128033030462 11450.334358079694 2325.996978928789
    vertex 2631.264318303132 11450.334358079694 2328.509859398034
    vertex 2633.095475167431 11450.334358079694 2325.061856861573
  endloop
endfacet
facet normal 0.0 1.0 -0.0
  outer loop
    vertex 2633.095475167431 11450.334358079694 2325.061856861573
    vertex 2631.264318303132 11450.334358079694 2328.509859398034
    vertex 2632.199291749549 11450.334358079694 2327.2436101906783
  endloop
endfacet
facet normal 0.0 1.0 -0.0
  outer loop
    vertex 2633.095475167431 11450.334358079694 2325.061856861573
    vertex 2632.199291749549 11450.334358079694 2327.2436101906783
    vertex 2633.3876636582363 11450.334358079694 2326.659233209068
  endloop
endfacet
facet normal 0.0 1.0 -0.0
  outer loop
    vertex 2633.095475167431 11450.334358079694 2325.061856861573
    vertex 2633.3876636582363 11450.334358079694 2326.659233209068
    vertex 2635.101855953734 11450.334358079694 2325.061856861573
  endloop
endfacet
facet normal 0.0 1.0 -0.0
  outer loop
    vertex 2635.101855953734 11450.334358079694 2325.061856861573
    vertex 2633.3876636582363 11450.334358079694 2326.659233209068
    vertex 2634.9655706810645 11450.334358079694 2326.659233209068
  endloop
endfacet
facet normal 0.0 1.0 -0.0
  outer loop
    vertex 2635.101855953734 11450.334358079694 2325.061856861573
    vertex 2634.9655706810645 11450.334358079694 2326.659233209068
    vertex 2636.270758537755 11450.334358079694 2326.9905089700064
  endloop
endfacet
facet normal 0.0 1.0 -0.0
  outer loop
    vertex 2635.101855953734 11450.334358079694 2325.061856861573
    vertex 2636.270758537755 11450.334358079694 2326.9905089700064
    vertex 2636.874604844032 11450.334358079694 2325.5099485705136
  endloop
endfacet
facet normal 0.0 1.0 -0.0
  outer loop
    vertex 2636.874604844032 11450.334358079694 2325.5099485705136
    vertex 2636.270758537755 11450.334358079694 2326.9905089700064
    vertex 2637.2836092828397 11450.334358079694 2327.6332939256185
  endloop
endfacet
facet normal 0.0 1.0 -0.0
  outer loop
    vertex 2636.874604844032 11450.334358079694 2325.5099485705136
    vertex 2637.2836092828397 11450.334358079694 2327.6332939256185
    vertex 2638.140705430589 11450.334358079694 2326.3475753935954
  endloop
endfacet
facet normal 0.0 1.0 -0.0
  outer loop
    vertex 2645.467859441369 11450.334358079694 2335.6396449877616
    vertex 2644.3380441274817 11450.334358079694 2333.1266158977173
    vertex 2644.260166828814 11450.334358079694 2335.308369226823
  endloop
endfacet
facet normal 0.0 1.0 -0.0
  outer loop
    vertex 2644.3380441274817 11450.334358079694 2333.1266158977173
    vertex 2645.467859441369 11450.334358079694 2335.6396449877616
    vertex 2644.61076329362 11450.334358079694 2333.5941769313254
  endloop
endfacet
facet normal 0.0 1.0 -0.0
  outer loop
    vertex 2644.61076329362 11450.334358079694 2333.5941769313254
    vertex 2645.467859441369 11450.334358079694 2335.6396449877616
    vertex 2644.9418904337595 11450.334358079694 2333.8668960974637
  endloop
endfacet
facet normal 0.0 1.0 -0.0
  outer loop
    vertex 2644.9418904337595 11450.334358079694 2333.8668960974637
    vertex 2645.467859441369 11450.334358079694 2335.6396449877616
    vertex 2645.6821706335063 11450.334358079694 2334.0812072896006
  endloop
endfacet
facet normal 0.0 1.0 -0.0
  outer loop
    vertex 2645.6821706335063 11450.334358079694 2334.0812072896006
    vertex 2645.467859441369 11450.334358079694 2335.6396449877616
    vertex 2647.435450199137 11450.334358079694 2335.6396449877616
  endloop
endfacet
facet normal 0.0 1.0 -0.0
  outer loop
    vertex 2645.6821706335063 11450.334358079694 2334.0812072896006
    vertex 2647.435450199137 11450.334358079694 2335.6396449877616
    vertex 2647.2990163056684 11450.334358079694 2334.0812072896006
  endloop
endfacet
facet normal 0.0 1.0 -0.0
  outer loop
    vertex 2647.2990163056684 11450.334358079694 2334.0812072896006
    vertex 2647.435450199137 11450.334358079694 2335.6396449877616
    vertex 2648.350954320887 11450.334358079694 2333.750080149461
  endloop
endfacet
facet normal 0.0 1.0 -0.0
  outer loop
    vertex 2648.350954320887 11450.334358079694 2333.750080149461
    vertex 2647.435450199137 11450.334358079694 2335.6396449877616
    vertex 2648.9548006271643 11450.334358079694 2335.2110226034874
  endloop
endfacet
facet normal 0.0 1.0 -0.0
  outer loop
    vertex 2648.350954320887 11450.334358079694 2333.750080149461
    vertex 2648.9548006271643 11450.334358079694 2335.2110226034874
    vertex 2649.4028923361057 11450.334358079694 2333.10714657305
  endloop
endfacet
facet normal 0.0 1.0 -0.0
  outer loop
    vertex 2649.4028923361057 11450.334358079694 2333.10714657305
    vertex 2648.9548006271643 11450.334358079694 2335.2110226034874
    vertex 2650.279457808522 11450.334358079694 2334.41233442974
  endloop
endfacet
facet normal 0.0 1.0 -0.0
  outer loop
    vertex 2643.3836013563973 11450.334358079694 2334.6266456218773
    vertex 2642.7406677799863 11450.334358079694 2331.782489391693
    vertex 2642.7406677799863 11450.334358079694 2333.516299632657
  endloop
endfacet
facet normal 0.0 1.0 -0.0
  outer loop
    vertex 2642.7406677799863 11450.334358079694 2331.782489391693
    vertex 2643.3836013563973 11450.334358079694 2334.6266456218773
    vertex 2643.558825278401 11450.334358079694 2330.652674077806
  endloop
endfacet
facet normal 0.0 1.0 -0.0
  outer loop
    vertex 2643.558825278401 11450.334358079694 2330.652674077806
    vertex 2643.3836013563973 11450.334358079694 2334.6266456218773
    vertex 2644.260166828814 11450.334358079694 2335.308369226823
  endloop
endfacet
facet normal 0.0 1.0 -0.0
  outer loop
    vertex 2643.558825278401 11450.334358079694 2330.652674077806
    vertex 2644.260166828814 11450.334358079694 2335.308369226823
    vertex 2644.3380441274817 11450.334358079694 2332.2695197499684
  endloop
endfacet
facet normal 0.0 1.0 -0.0
  outer loop
    vertex 2643.558825278401 11450.334358079694 2330.652674077806
    vertex 2644.3380441274817 11450.334358079694 2332.2695197499684
    vertex 2644.8056051610897 11450.334358079694 2329.990419797527
  endloop
endfacet
facet normal 0.0 1.0 -0.0
  outer loop
    vertex 2644.3380441274817 11450.334358079694 2332.2695197499684
    vertex 2644.260166828814 11450.334358079694 2335.308369226823
    vertex 2644.3380441274817 11450.334358079694 2333.1266158977173
  endloop
endfacet
facet normal 0.0 1.0 -0.0
  outer loop
    vertex 2644.8056051610897 11450.334358079694 2329.990419797527
    vertex 2644.3380441274817 11450.334358079694 2332.2695197499684
    vertex 2644.7277278624215 11450.334358079694 2331.743550742359
  endloop
endfacet
facet normal 0.0 1.0 -0.0
  outer loop
    vertex 2644.8056051610897 11450.334358079694 2329.990419797527
    vertex 2644.7277278624215 11450.334358079694 2331.743550742359
    vertex 2645.273166194698 11450.334358079694 2331.470831576221
  endloop
endfacet
facet normal 0.0 1.0 -0.0
  outer loop
    vertex 2644.8056051610897 11450.334358079694 2329.990419797527
    vertex 2645.273166194698 11450.334358079694 2331.470831576221
    vertex 2648.0003578560804 11450.334358079694 2329.4255121405836
  endloop
endfacet
facet normal 0.0 1.0 -0.0
  outer loop
    vertex 2648.0003578560804 11450.334358079694 2329.4255121405836
    vertex 2645.273166194698 11450.334358079694 2331.470831576221
    vertex 2648.643142811692 11450.334358079694 2330.8864545946103
  endloop
endfacet
facet normal 0.0 1.0 -0.0
  outer loop
    vertex 2648.0003578560804 11450.334358079694 2329.4255121405836
    vertex 2648.643142811692 11450.334358079694 2330.8864545946103
    vertex 2648.584734837691 11450.334358079694 2329.0163590809766
  endloop
endfacet
facet normal 0.0 1.0 -0.0
  outer loop
    vertex 2648.584734837691 11450.334358079694 2329.0163590809766
    vertex 2648.643142811692 11450.334358079694 2330.8864545946103
    vertex 2648.915861977831 11450.334358079694 2328.451451424033
  endloop
endfacet
facet normal 0.0 1.0 -0.0
  outer loop
    vertex 2648.915861977831 11450.334358079694 2328.451451424033
    vertex 2648.643142811692 11450.334358079694 2330.8864545946103
    vertex 2649.7534888009122 11450.334358079694 2330.146174394864
  endloop
endfacet
facet normal 0.0 1.0 -0.0
  outer loop
    vertex 2648.915861977831 11450.334358079694 2328.451451424033
    vertex 2649.7534888009122 11450.334358079694 2330.146174394864
    vertex 2648.915861977831 11450.334358079694 2327.7111712242868
  endloop
endfacet
facet normal 0.0 1.0 -0.0
  outer loop
    vertex 2643.5004173044 11450.334358079694 2327.808666468421
    vertex 2642.857632348788 11450.334358079694 2326.2112901209257
    vertex 2642.370601990513 11450.334358079694 2326.717789803868
  endloop
endfacet
facet normal 0.0 1.0 -0.0
  outer loop
    vertex 2642.857632348788 11450.334358079694 2326.2112901209257
    vertex 2643.5004173044 11450.334358079694 2327.808666468421
    vertex 2643.812075119872 11450.334358079694 2325.490479245847
  endloop
endfacet
facet normal 0.0 1.0 -0.0
  outer loop
    vertex 2643.812075119872 11450.334358079694 2325.490479245847
    vertex 2643.5004173044 11450.334358079694 2327.808666468421
    vertex 2643.9095703640064 11450.334358079694 2327.36057475948
  endloop
endfacet
facet normal 0.0 1.0 -0.0
  outer loop
    vertex 2643.812075119872 11450.334358079694 2325.490479245847
    vertex 2643.9095703640064 11450.334358079694 2327.36057475948
    vertex 2645.3899821427003 11450.334358079694 2325.061856861573
  endloop
endfacet
facet normal 0.0 1.0 -0.0
  outer loop
    vertex 2645.3899821427003 11450.334358079694 2325.061856861573
    vertex 2643.9095703640064 11450.334358079694 2327.36057475948
    vertex 2644.455008696283 11450.334358079694 2326.951421699873
  endloop
endfacet
facet normal 0.0 1.0 -0.0
  outer loop
    vertex 2645.3899821427003 11450.334358079694 2325.061856861573
    vertex 2644.455008696283 11450.334358079694 2326.951421699873
    vertex 2645.6042933348376 11450.334358079694 2326.639763884401
  endloop
endfacet
facet normal 0.0 1.0 -0.0
  outer loop
    vertex 2645.3899821427003 11450.334358079694 2325.061856861573
    vertex 2645.6042933348376 11450.334358079694 2326.639763884401
    vertex 2647.4938581731376 11450.334358079694 2325.061856861573
  endloop
endfacet
facet normal 0.0 1.0 -0.0
  outer loop
    vertex 2647.4938581731376 11450.334358079694 2325.061856861573
    vertex 2645.6042933348376 11450.334358079694 2326.639763884401
    vertex 2647.279546981001 11450.334358079694 2326.639763884401
  endloop
endfacet
facet normal 0.0 1.0 -0.0
  outer loop
    vertex 2647.4938581731376 11450.334358079694 2325.061856861573
    vertex 2647.279546981001 11450.334358079694 2326.639763884401
    vertex 2648.097704479416 11450.334358079694 2326.873544401205
  endloop
endfacet
facet normal 0.0 1.0 -0.0
  outer loop
    vertex 2647.4938581731376 11450.334358079694 2325.061856861573
    vertex 2648.097704479416 11450.334358079694 2326.873544401205
    vertex 2648.818515354495 11450.334358079694 2325.4515405965126
  endloop
endfacet
facet normal 0.0 1.0 -0.0
  outer loop
    vertex 2648.818515354495 11450.334358079694 2325.4515405965126
    vertex 2648.097704479416 11450.334358079694 2326.873544401205
    vertex 2648.584734837691 11450.334358079694 2327.2241408660116
  endloop
endfacet
facet normal 0.0 1.0 -0.0
  outer loop
    vertex 2648.818515354495 11450.334358079694 2325.4515405965126
    vertex 2648.584734837691 11450.334358079694 2327.2241408660116
    vertex 2648.915861977831 11450.334358079694 2327.7111712242868
  endloop
endfacet
facet normal 0.0 1.0 -0.0
  outer loop
    vertex 2648.818515354495 11450.334358079694 2325.4515405965126
    vertex 2648.915861977831 11450.334358079694 2327.7111712242868
    vertex 2649.7534888009122 11450.334358079694 2326.1137948767914
  endloop
endfacet
facet normal 0.0 1.0 -0.0
  outer loop
    vertex 2649.7534888009122 11450.334358079694 2326.1137948767914
    vertex 2648.915861977831 11450.334358079694 2327.7111712242868
    vertex 2649.7534888009122 11450.334358079694 2330.146174394864
  endloop
endfacet
facet normal 0.0 1.0 -0.0
  outer loop
    vertex 2649.7534888009122 11450.334358079694 2326.1137948767914
    vertex 2649.7534888009122 11450.334358079694 2330.146174394864
    vertex 2650.513238325326 11450.334358079694 2328.899543132974
  endloop
endfacet
facet normal 0.0 1.0 -0.0
  outer loop
    vertex 2649.7534888009122 11450.334358079694 2326.1137948767914
    vertex 2650.513238325326 11450.334358079694 2328.899543132974
    vertex 2650.513238325326 11450.334358079694 2327.2436101906783
  endloop
endfacet
endsolid thesis3
