solid thesis3
facet normal -1.0 -0.0 -0.0
  outer loop
    vertex 2665.406016904395 11771.905075056953 368.6946328073333
    vertex 2665.406016904395 11770.775259743068 366.18160371728885
    vertex 2665.406016904395 11770.6973824444 368.36335704639475
  endloop
endfacet
facet normal -1.0 -0.0 -0.0
  outer loop
    vertex 2665.406016904395 11770.775259743068 366.18160371728885
    vertex 2665.406016904395 11771.905075056953 368.6946328073333
    vertex 2665.406016904395 11771.047978909206 366.649164750897
  endloop
endfacet
facet normal -1.0 -0.0 -0.0
  outer loop
    vertex 2665.406016904395 11771.047978909206 366.649164750897
    vertex 2665.406016904395 11771.905075056953 368.6946328073333
    vertex 2665.406016904395 11771.379106049344 366.9218839170352
  endloop
endfacet
facet normal -1.0 -0.0 -0.0
  outer loop
    vertex 2665.406016904395 11771.379106049344 366.9218839170352
    vertex 2665.406016904395 11771.905075056953 368.6946328073333
    vertex 2665.406016904395 11772.11938624909 367.13619510917215
  endloop
endfacet
facet normal -1.0 -0.0 -0.0
  outer loop
    vertex 2665.406016904395 11772.11938624909 367.13619510917215
    vertex 2665.406016904395 11771.905075056953 368.6946328073333
    vertex 2665.406016904395 11773.872665814722 368.6946328073333
  endloop
endfacet
facet normal -1.0 -0.0 -0.0
  outer loop
    vertex 2665.406016904395 11772.11938624909 367.13619510917215
    vertex 2665.406016904395 11773.872665814722 368.6946328073333
    vertex 2665.406016904395 11773.736231921253 367.13619510917215
  endloop
endfacet
facet normal -1.0 -0.0 -0.0
  outer loop
    vertex 2665.406016904395 11773.736231921253 367.13619510917215
    vertex 2665.406016904395 11773.872665814722 368.6946328073333
    vertex 2665.406016904395 11774.788169936473 366.8050679690327
  endloop
endfacet
facet normal -1.0 -0.0 -0.0
  outer loop
    vertex 2665.406016904395 11774.788169936473 366.8050679690327
    vertex 2665.406016904395 11773.872665814722 368.6946328073333
    vertex 2665.406016904395 11775.39201624275 368.26601042305924
  endloop
endfacet
facet normal -1.0 -0.0 -0.0
  outer loop
    vertex 2665.406016904395 11774.788169936473 366.8050679690327
    vertex 2665.406016904395 11775.39201624275 368.26601042305924
    vertex 2665.406016904395 11775.84010795169 366.1621343926218
  endloop
endfacet
facet normal -1.0 -0.0 -0.0
  outer loop
    vertex 2665.406016904395 11775.84010795169 366.1621343926218
    vertex 2665.406016904395 11775.39201624275 368.26601042305924
    vertex 2665.406016904395 11776.716673424107 367.4673222493117
  endloop
endfacet
facet normal -1.0 -0.0 -0.0
  outer loop
    vertex 2665.406016904395 11769.820816971982 367.68163344144864
    vertex 2665.406016904395 11769.177883395572 364.83747721126474
    vertex 2665.406016904395 11769.177883395572 366.57128745222855
  endloop
endfacet
facet normal -1.0 -0.0 -0.0
  outer loop
    vertex 2665.406016904395 11769.177883395572 364.83747721126474
    vertex 2665.406016904395 11769.820816971982 367.68163344144864
    vertex 2665.406016904395 11769.996040893986 363.70766189737765
  endloop
endfacet
facet normal -1.0 -0.0 -0.0
  outer loop
    vertex 2665.406016904395 11769.996040893986 363.70766189737765
    vertex 2665.406016904395 11769.820816971982 367.68163344144864
    vertex 2665.406016904395 11770.6973824444 368.36335704639475
  endloop
endfacet
facet normal -1.0 -0.0 -0.0
  outer loop
    vertex 2665.406016904395 11769.996040893986 363.70766189737765
    vertex 2665.406016904395 11770.6973824444 368.36335704639475
    vertex 2665.406016904395 11770.775259743068 365.32450756954
  endloop
endfacet
facet normal -1.0 -0.0 -0.0
  outer loop
    vertex 2665.406016904395 11769.996040893986 363.70766189737765
    vertex 2665.406016904395 11770.775259743068 365.32450756954
    vertex 2665.406016904395 11771.242820776675 363.04540761709865
  endloop
endfacet
facet normal -1.0 -0.0 -0.0
  outer loop
    vertex 2665.406016904395 11770.775259743068 365.32450756954
    vertex 2665.406016904395 11770.6973824444 368.36335704639475
    vertex 2665.406016904395 11770.775259743068 366.18160371728885
  endloop
endfacet
facet normal -1.0 -0.0 -0.0
  outer loop
    vertex 2665.406016904395 11771.242820776675 363.04540761709865
    vertex 2665.406016904395 11770.775259743068 365.32450756954
    vertex 2665.406016904395 11771.164943478007 364.79853856193057
  endloop
endfacet
facet normal -1.0 -0.0 -0.0
  outer loop
    vertex 2665.406016904395 11771.242820776675 363.04540761709865
    vertex 2665.406016904395 11771.164943478007 364.79853856193057
    vertex 2665.406016904395 11771.710381810282 364.5258193957923
  endloop
endfacet
facet normal -1.0 -0.0 -0.0
  outer loop
    vertex 2665.406016904395 11771.242820776675 363.04540761709865
    vertex 2665.406016904395 11771.710381810282 364.5258193957923
    vertex 2665.406016904395 11774.437573471667 362.4804999601551
  endloop
endfacet
facet normal -1.0 -0.0 -0.0
  outer loop
    vertex 2665.406016904395 11774.437573471667 362.4804999601551
    vertex 2665.406016904395 11771.710381810282 364.5258193957923
    vertex 2665.406016904395 11775.080358427276 363.94144241418167
  endloop
endfacet
facet normal -1.0 -0.0 -0.0
  outer loop
    vertex 2665.406016904395 11774.437573471667 362.4804999601551
    vertex 2665.406016904395 11775.080358427276 363.94144241418167
    vertex 2665.406016904395 11775.021950453276 362.07134690054824
  endloop
endfacet
facet normal -1.0 -0.0 -0.0
  outer loop
    vertex 2665.406016904395 11775.021950453276 362.07134690054824
    vertex 2665.406016904395 11775.080358427276 363.94144241418167
    vertex 2665.406016904395 11775.353077593414 361.5064392436047
  endloop
endfacet
facet normal -1.0 -0.0 -0.0
  outer loop
    vertex 2665.406016904395 11775.353077593414 361.5064392436047
    vertex 2665.406016904395 11775.080358427276 363.94144241418167
    vertex 2665.406016904395 11776.190704416496 363.2011622144354
  endloop
endfacet
facet normal -1.0 -0.0 -0.0
  outer loop
    vertex 2665.406016904395 11775.353077593414 361.5064392436047
    vertex 2665.406016904395 11776.190704416496 363.2011622144354
    vertex 2665.406016904395 11775.353077593414 360.7661590438583
  endloop
endfacet
facet normal -1.0 -0.0 -0.0
  outer loop
    vertex 2665.406016904395 11769.937632919986 360.86365428799274
    vertex 2665.406016904395 11769.294847964373 359.26627794049745
    vertex 2665.406016904395 11768.807817606097 359.77277762343977
  endloop
endfacet
facet normal -1.0 -0.0 -0.0
  outer loop
    vertex 2665.406016904395 11769.294847964373 359.26627794049745
    vertex 2665.406016904395 11769.937632919986 360.86365428799274
    vertex 2665.406016904395 11770.249290735457 358.5454670654182
  endloop
endfacet
facet normal -1.0 -0.0 -0.0
  outer loop
    vertex 2665.406016904395 11770.249290735457 358.5454670654182
    vertex 2665.406016904395 11769.937632919986 360.86365428799274
    vertex 2665.406016904395 11770.346785979593 360.41556257905165
  endloop
endfacet
facet normal -1.0 -0.0 -0.0
  outer loop
    vertex 2665.406016904395 11770.249290735457 358.5454670654182
    vertex 2665.406016904395 11770.346785979593 360.41556257905165
    vertex 2665.406016904395 11771.827197758284 358.11684468114424
  endloop
endfacet
facet normal -1.0 -0.0 -0.0
  outer loop
    vertex 2665.406016904395 11771.827197758284 358.11684468114424
    vertex 2665.406016904395 11770.346785979593 360.41556257905165
    vertex 2665.406016904395 11770.892224311869 360.00640951944484
  endloop
endfacet
facet normal -1.0 -0.0 -0.0
  outer loop
    vertex 2665.406016904395 11771.827197758284 358.11684468114424
    vertex 2665.406016904395 11770.892224311869 360.00640951944484
    vertex 2665.406016904395 11772.041508950422 359.69475170397243
  endloop
endfacet
facet normal -1.0 -0.0 -0.0
  outer loop
    vertex 2665.406016904395 11771.827197758284 358.11684468114424
    vertex 2665.406016904395 11772.041508950422 359.69475170397243
    vertex 2665.406016904395 11773.931073788723 358.11684468114424
  endloop
endfacet
facet normal -1.0 -0.0 -0.0
  outer loop
    vertex 2665.406016904395 11773.931073788723 358.11684468114424
    vertex 2665.406016904395 11772.041508950422 359.69475170397243
    vertex 2665.406016904395 11773.716762596587 359.69475170397243
  endloop
endfacet
facet normal -1.0 -0.0 -0.0
  outer loop
    vertex 2665.406016904395 11773.931073788723 358.11684468114424
    vertex 2665.406016904395 11773.716762596587 359.69475170397243
    vertex 2665.406016904395 11774.534920095 359.92853222077645
  endloop
endfacet
facet normal -1.0 -0.0 -0.0
  outer loop
    vertex 2665.406016904395 11773.931073788723 358.11684468114424
    vertex 2665.406016904395 11774.534920095 359.92853222077645
    vertex 2665.406016904395 11775.25573097008 358.506528416084
  endloop
endfacet
facet normal -1.0 -0.0 -0.0
  outer loop
    vertex 2665.406016904395 11775.25573097008 358.506528416084
    vertex 2665.406016904395 11774.534920095 359.92853222077645
    vertex 2665.406016904395 11775.021950453276 360.2791286855831
  endloop
endfacet
facet normal -1.0 -0.0 -0.0
  outer loop
    vertex 2665.406016904395 11775.25573097008 358.506528416084
    vertex 2665.406016904395 11775.021950453276 360.2791286855831
    vertex 2665.406016904395 11775.353077593414 360.7661590438583
  endloop
endfacet
facet normal -1.0 -0.0 -0.0
  outer loop
    vertex 2665.406016904395 11775.25573097008 358.506528416084
    vertex 2665.406016904395 11775.353077593414 360.7661590438583
    vertex 2665.406016904395 11776.190704416496 359.168782696363
  endloop
endfacet
facet normal -1.0 -0.0 -0.0
  outer loop
    vertex 2665.406016904395 11776.190704416496 359.168782696363
    vertex 2665.406016904395 11775.353077593414 360.7661590438583
    vertex 2665.406016904395 11776.190704416496 363.2011622144354
  endloop
endfacet
facet normal -1.0 -0.0 -0.0
  outer loop
    vertex 2665.406016904395 11776.190704416496 359.168782696363
    vertex 2665.406016904395 11776.190704416496 363.2011622144354
    vertex 2665.406016904395 11776.95045394091 361.95453095254567
  endloop
endfacet
facet normal -1.0 -0.0 -0.0
  outer loop
    vertex 2665.406016904395 11776.190704416496 359.168782696363
    vertex 2665.406016904395 11776.95045394091 361.95453095254567
    vertex 2665.406016904395 11776.95045394091 360.29859801025015
  endloop
endfacet
facet normal -1.0 -0.0 -0.0
  outer loop
    vertex 2665.406016904395 11783.323165180607 367.9543526075869
    vertex 2665.406016904395 11782.914012121 365.3634462188741
    vertex 2665.406016904395 11782.894542796332 367.5062608986459
  endloop
endfacet
facet normal -1.0 -0.0 -0.0
  outer loop
    vertex 2665.406016904395 11782.914012121 365.3634462188741
    vertex 2665.406016904395 11783.323165180607 367.9543526075869
    vertex 2665.406016904395 11783.478919777945 366.2010730419559
  endloop
endfacet
facet normal -1.0 -0.0 -0.0
  outer loop
    vertex 2665.406016904395 11783.478919777945 366.2010730419559
    vertex 2665.406016904395 11783.323165180607 367.9543526075869
    vertex 2665.406016904395 11784.530857793163 368.6946328073333
  endloop
endfacet
facet normal -1.0 -0.0 -0.0
  outer loop
    vertex 2665.406016904395 11783.478919777945 366.2010730419559
    vertex 2665.406016904395 11784.530857793163 368.6946328073333
    vertex 2665.406016904395 11784.745168985299 367.097256459838
  endloop
endfacet
facet normal -1.0 -0.0 -0.0
  outer loop
    vertex 2665.406016904395 11784.745168985299 367.097256459838
    vertex 2665.406016904395 11784.530857793163 368.6946328073333
    vertex 2665.406016904395 11786.478830605463 368.6946328073333
  endloop
endfacet
facet normal -1.0 -0.0 -0.0
  outer loop
    vertex 2665.406016904395 11784.745168985299 367.097256459838
    vertex 2665.406016904395 11786.478830605463 368.6946328073333
    vertex 2665.406016904395 11786.225580763992 367.097256459838
  endloop
endfacet
facet normal -1.0 -0.0 -0.0
  outer loop
    vertex 2665.406016904395 11786.225580763992 367.097256459838
    vertex 2665.406016904395 11786.478830605463 368.6946328073333
    vertex 2665.406016904395 11787.452891322015 366.5127308574283
  endloop
endfacet
facet normal -1.0 -0.0 -0.0
  outer loop
    vertex 2665.406016904395 11787.452891322015 366.5127308574283
    vertex 2665.406016904395 11786.478830605463 368.6946328073333
    vertex 2665.406016904395 11788.504829337233 367.759510740117
  endloop
endfacet
facet normal -1.0 -0.0 -0.0
  outer loop
    vertex 2665.406016904395 11787.452891322015 366.5127308574283
    vertex 2665.406016904395 11788.504829337233 367.759510740117
    vertex 2665.406016904395 11788.387864768432 365.2466302708716
  endloop
endfacet
facet normal -1.0 -0.0 -0.0
  outer loop
    vertex 2665.406016904395 11788.387864768432 365.2466302708716
    vertex 2665.406016904395 11788.504829337233 367.759510740117
    vertex 2665.406016904395 11788.621645285237 364.3700647984556
  endloop
endfacet
facet normal -1.0 -0.0 -0.0
  outer loop
    vertex 2665.406016904395 11788.621645285237 364.3700647984556
    vertex 2665.406016904395 11788.504829337233 367.759510740117
    vertex 2665.406016904395 11789.82948651859 365.9672925251519
  endloop
endfacet
facet normal -1.0 -0.0 -0.0
  outer loop
    vertex 2665.406016904395 11788.621645285237 364.3700647984556
    vertex 2665.406016904395 11789.82948651859 365.9672925251519
    vertex 2665.406016904395 11788.621645285237 362.4804999601551
  endloop
endfacet
facet normal -1.0 -0.0 -0.0
  outer loop
    vertex 2665.406016904395 11783.323165180607 360.43503190371877
    vertex 2665.406016904395 11782.914012121 358.8960635302248
    vertex 2665.406016904395 11782.914012121 360.9415315866611
  endloop
endfacet
facet normal -1.0 -0.0 -0.0
  outer loop
    vertex 2665.406016904395 11782.914012121 358.8960635302248
    vertex 2665.406016904395 11783.323165180607 360.43503190371877
    vertex 2665.406016904395 11783.459450453276 358.5454670654182
  endloop
endfacet
facet normal -1.0 -0.0 -0.0
  outer loop
    vertex 2665.406016904395 11783.459450453276 358.5454670654182
    vertex 2665.406016904395 11783.323165180607 360.43503190371877
    vertex 2665.406016904395 11784.063296759554 359.94800154544356
  endloop
endfacet
facet normal -1.0 -0.0 -0.0
  outer loop
    vertex 2665.406016904395 11783.459450453276 358.5454670654182
    vertex 2665.406016904395 11784.063296759554 359.94800154544356
    vertex 2665.406016904395 11784.628204416498 358.11684468114424
  endloop
endfacet
facet normal -1.0 -0.0 -0.0
  outer loop
    vertex 2665.406016904395 11784.628204416498 358.11684468114424
    vertex 2665.406016904395 11784.063296759554 359.94800154544356
    vertex 2665.406016904395 11784.861984933303 359.69475170397243
  endloop
endfacet
facet normal -1.0 -0.0 -0.0
  outer loop
    vertex 2665.406016904395 11784.628204416498 358.11684468114424
    vertex 2665.406016904395 11784.861984933303 359.69475170397243
    vertex 2665.406016904395 11786.55685652493 358.11684468114424
  endloop
endfacet
facet normal -1.0 -0.0 -0.0
  outer loop
    vertex 2665.406016904395 11786.55685652493 358.11684468114424
    vertex 2665.406016904395 11784.861984933303 359.69475170397243
    vertex 2665.406016904395 11786.303606683461 359.69475170397243
  endloop
endfacet
facet normal -1.0 -0.0 -0.0
  outer loop
    vertex 2665.406016904395 11786.55685652493 358.11684468114424
    vertex 2665.406016904395 11786.303606683461 359.69475170397243
    vertex 2665.406016904395 11787.452891322015 360.31821595571625
  endloop
endfacet
facet normal -1.0 -0.0 -0.0
  outer loop
    vertex 2665.406016904395 11786.55685652493 358.11684468114424
    vertex 2665.406016904395 11787.452891322015 360.31821595571625
    vertex 2665.406016904395 11788.504829337233 359.0519667483605
  endloop
endfacet
facet normal -1.0 -0.0 -0.0
  outer loop
    vertex 2665.406016904395 11788.504829337233 359.0519667483605
    vertex 2665.406016904395 11787.452891322015 360.31821595571625
    vertex 2665.406016904395 11788.387864768432 361.56484721760586
  endloop
endfacet
facet normal -1.0 -0.0 -0.0
  outer loop
    vertex 2665.406016904395 11788.504829337233 359.0519667483605
    vertex 2665.406016904395 11788.387864768432 361.56484721760586
    vertex 2665.406016904395 11788.621645285237 362.4804999601551
  endloop
endfacet
facet normal -1.0 -0.0 -0.0
  outer loop
    vertex 2665.406016904395 11788.504829337233 359.0519667483605
    vertex 2665.406016904395 11788.621645285237 362.4804999601551
    vertex 2665.406016904395 11789.82948651859 360.8441849633256
  endloop
endfacet
facet normal -1.0 -0.0 -0.0
  outer loop
    vertex 2665.406016904395 11789.82948651859 360.8441849633256
    vertex 2665.406016904395 11788.621645285237 362.4804999601551
    vertex 2665.406016904395 11789.82948651859 365.9672925251519
  endloop
endfacet
facet normal -1.0 -0.0 -0.0
  outer loop
    vertex 2665.406016904395 11789.82948651859 360.8441849633256
    vertex 2665.406016904395 11789.82948651859 365.9672925251519
    vertex 2665.406016904395 11790.238490957398 364.5842273697936
  endloop
endfacet
facet normal -1.0 -0.0 -0.0
  outer loop
    vertex 2665.406016904395 11789.82948651859 360.8441849633256
    vertex 2665.406016904395 11790.238490957398 364.5842273697936
    vertex 2665.406016904395 11790.238490957398 362.266188768018
  endloop
endfacet
facet normal -1.0 -0.0 -0.0
  outer loop
    vertex 2665.406016904395 11782.894542796332 368.5387295891975
    vertex 2665.406016904395 11781.297166448838 355.11693385362366
    vertex 2665.406016904395 11781.297166448838 368.5387295891975
  endloop
endfacet
facet normal -1.0 -0.0 -0.0
  outer loop
    vertex 2665.406016904395 11781.297166448838 355.11693385362366
    vertex 2665.406016904395 11782.894542796332 368.5387295891975
    vertex 2665.406016904395 11782.894542796332 367.5062608986459
  endloop
endfacet
facet normal -1.0 -0.0 -0.0
  outer loop
    vertex 2665.406016904395 11781.297166448838 355.11693385362366
    vertex 2665.406016904395 11782.894542796332 367.5062608986459
    vertex 2665.406016904395 11782.914012121 355.11693385362366
  endloop
endfacet
facet normal -1.0 -0.0 -0.0
  outer loop
    vertex 2665.406016904395 11782.914012121 355.11693385362366
    vertex 2665.406016904395 11782.894542796332 367.5062608986459
    vertex 2665.406016904395 11782.914012121 365.3634462188741
  endloop
endfacet
facet normal -1.0 -0.0 -0.0
  outer loop
    vertex 2665.406016904395 11782.914012121 355.11693385362366
    vertex 2665.406016904395 11782.914012121 365.3634462188741
    vertex 2665.406016904395 11782.914012121 360.9415315866611
  endloop
endfacet
facet normal -1.0 -0.0 -0.0
  outer loop
    vertex 2665.406016904395 11782.914012121 355.11693385362366
    vertex 2665.406016904395 11782.914012121 360.9415315866611
    vertex 2665.406016904395 11782.914012121 358.8960635302248
  endloop
endfacet
facet normal -1.0 -0.0 -0.0
  outer loop
    vertex 2665.406016904395 11794.293014974519 367.72057209078287
    vertex 2665.406016904395 11794.857922631463 366.0647877692863
    vertex 2665.406016904395 11793.747576642243 367.2140724078405
  endloop
endfacet
facet normal -1.0 -0.0 -0.0
  outer loop
    vertex 2665.406016904395 11794.857922631463 366.0647877692863
    vertex 2665.406016904395 11794.293014974519 367.72057209078287
    vertex 2665.406016904395 11795.227988420937 368.3244183970605
  endloop
endfacet
facet normal -1.0 -0.0 -0.0
  outer loop
    vertex 2665.406016904395 11794.857922631463 366.0647877692863
    vertex 2665.406016904395 11795.227988420937 368.3244183970605
    vertex 2665.406016904395 11795.227988420937 366.43485355876
  endloop
endfacet
facet normal -1.0 -0.0 -0.0
  outer loop
    vertex 2665.406016904395 11795.227988420937 366.43485355876
    vertex 2665.406016904395 11795.227988420937 368.3244183970605
    vertex 2665.406016904395 11796.474768303626 368.6946328073333
  endloop
endfacet
facet normal -1.0 -0.0 -0.0
  outer loop
    vertex 2665.406016904395 11795.227988420937 366.43485355876
    vertex 2665.406016904395 11796.474768303626 368.6946328073333
    vertex 2665.406016904395 11795.831983348013 366.82453729369973
  endloop
endfacet
facet normal -1.0 -0.0 -0.0
  outer loop
    vertex 2665.406016904395 11795.831983348013 366.82453729369973
    vertex 2665.406016904395 11796.474768303626 368.6946328073333
    vertex 2665.406016904395 11796.669610171095 367.097256459838
  endloop
endfacet
facet normal -1.0 -0.0 -0.0
  outer loop
    vertex 2665.406016904395 11796.669610171095 367.097256459838
    vertex 2665.406016904395 11796.474768303626 368.6946328073333
    vertex 2665.406016904395 11798.481149089928 368.6946328073333
  endloop
endfacet
facet normal -1.0 -0.0 -0.0
  outer loop
    vertex 2665.406016904395 11796.669610171095 367.097256459838
    vertex 2665.406016904395 11798.481149089928 368.6946328073333
    vertex 2665.406016904395 11798.247517193924 367.097256459838
  endloop
endfacet
facet normal -1.0 -0.0 -0.0
  outer loop
    vertex 2665.406016904395 11798.247517193924 367.097256459838
    vertex 2665.406016904395 11798.481149089928 368.6946328073333
    vertex 2665.406016904395 11799.201959965007 366.86347594303396
  endloop
endfacet
facet normal -1.0 -0.0 -0.0
  outer loop
    vertex 2665.406016904395 11799.201959965007 366.86347594303396
    vertex 2665.406016904395 11798.481149089928 368.6946328073333
    vertex 2665.406016904395 11799.883832190751 368.34388772172764
  endloop
endfacet
facet normal -1.0 -0.0 -0.0
  outer loop
    vertex 2665.406016904395 11799.201959965007 366.86347594303396
    vertex 2665.406016904395 11799.883832190751 368.34388772172764
    vertex 2665.406016904395 11800.020117463424 366.3375069354245
  endloop
endfacet
facet normal -1.0 -0.0 -0.0
  outer loop
    vertex 2665.406016904395 11800.020117463424 366.3375069354245
    vertex 2665.406016904395 11799.883832190751 368.34388772172764
    vertex 2665.406016904395 11801.325305320113 367.3699756259762
  endloop
endfacet
facet normal -1.0 -0.0 -0.0
  outer loop
    vertex 2665.406016904395 11800.020117463424 366.3375069354245
    vertex 2665.406016904395 11801.325305320113 367.3699756259762
    vertex 2665.406016904395 11800.234428655558 365.7531299538139
  endloop
endfacet
facet normal -1.0 -0.0 -0.0
  outer loop
    vertex 2665.406016904395 11800.234428655558 365.7531299538139
    vertex 2665.406016904395 11801.325305320113 367.3699756259762
    vertex 2665.406016904395 11800.234428655558 364.2725695543212
  endloop
endfacet
facet normal -1.0 -0.0 -0.0
  outer loop
    vertex 2665.406016904395 11800.234428655558 364.2725695543212
    vertex 2665.406016904395 11801.325305320113 367.3699756259762
    vertex 2665.406016904395 11800.234428655558 362.42194336535476
  endloop
endfacet
facet normal -1.0 -0.0 -0.0
  outer loop
    vertex 2665.406016904395 11800.234428655558 362.42194336535476
    vertex 2665.406016904395 11801.325305320113 367.3699756259762
    vertex 2665.406016904395 11800.234428655558 361.7012811110745
  endloop
endfacet
facet normal -1.0 -0.0 -0.0
  outer loop
    vertex 2665.406016904395 11800.234428655558 361.7012811110745
    vertex 2665.406016904395 11801.325305320113 367.3699756259762
    vertex 2665.406016904395 11800.37071392823 359.51952778196863
  endloop
endfacet
facet normal -1.0 -0.0 -0.0
  outer loop
    vertex 2665.406016904395 11800.37071392823 359.51952778196863
    vertex 2665.406016904395 11801.325305320113 367.3699756259762
    vertex 2665.406016904395 11801.305835995445 358.11684468114424
  endloop
endfacet
facet normal -1.0 -0.0 -0.0
  outer loop
    vertex 2665.406016904395 11801.305835995445 358.11684468114424
    vertex 2665.406016904395 11801.325305320113 367.3699756259762
    vertex 2665.406016904395 11801.851274327722 360.1428434129134
  endloop
endfacet
facet normal -1.0 -0.0 -0.0
  outer loop
    vertex 2665.406016904395 11801.305835995445 358.11684468114424
    vertex 2665.406016904395 11801.851274327722 360.1428434129134
    vertex 2665.406016904395 11802.611023852134 359.0519667483605
  endloop
endfacet
facet normal -1.0 -0.0 -0.0
  outer loop
    vertex 2665.406016904395 11801.851274327722 360.1428434129134
    vertex 2665.406016904395 11801.325305320113 367.3699756259762
    vertex 2665.406016904395 11801.851274327722 366.0453184446192
  endloop
endfacet
facet normal -1.0 -0.0 -0.0
  outer loop
    vertex 2665.406016904395 11794.468387517323 359.0714360730276
    vertex 2665.406016904395 11794.994356524932 361.1169041294638
    vertex 2665.406016904395 11795.403360963739 358.5259977407511
  endloop
endfacet
facet normal -1.0 -0.0 -0.0
  outer loop
    vertex 2665.406016904395 11794.994356524932 361.1169041294638
    vertex 2665.406016904395 11794.468387517323 359.0714360730276
    vertex 2665.406016904395 11794.994356524932 361.64272451627426
  endloop
endfacet
facet normal -1.0 -0.0 -0.0
  outer loop
    vertex 2665.406016904395 11795.403360963739 358.5259977407511
    vertex 2665.406016904395 11794.994356524932 361.1169041294638
    vertex 2665.406016904395 11795.598202831208 360.259659360916
  endloop
endfacet
facet normal -1.0 -0.0 -0.0
  outer loop
    vertex 2665.406016904395 11795.403360963739 358.5259977407511
    vertex 2665.406016904395 11795.598202831208 360.259659360916
    vertex 2665.406016904395 11796.728018145097 358.11684468114424
  endloop
endfacet
facet normal -1.0 -0.0 -0.0
  outer loop
    vertex 2665.406016904395 11796.728018145097 358.11684468114424
    vertex 2665.406016904395 11795.598202831208 360.259659360916
    vertex 2665.406016904395 11796.046145919352 359.98694019477773
  endloop
endfacet
facet normal -1.0 -0.0 -0.0
  outer loop
    vertex 2665.406016904395 11796.728018145097 358.11684468114424
    vertex 2665.406016904395 11796.046145919352 359.98694019477773
    vertex 2665.406016904395 11796.961798661901 359.7142210286395
  endloop
endfacet
facet normal -1.0 -0.0 -0.0
  outer loop
    vertex 2665.406016904395 11796.728018145097 358.11684468114424
    vertex 2665.406016904395 11796.961798661901 359.7142210286395
    vertex 2665.406016904395 11798.130552625122 358.11684468114424
  endloop
endfacet
facet normal -1.0 -0.0 -0.0
  outer loop
    vertex 2665.406016904395 11798.130552625122 358.11684468114424
    vertex 2665.406016904395 11796.961798661901 359.7142210286395
    vertex 2665.406016904395 11797.779956160315 359.7142210286395
  endloop
endfacet
facet normal -1.0 -0.0 -0.0
  outer loop
    vertex 2665.406016904395 11798.130552625122 358.11684468114424
    vertex 2665.406016904395 11797.779956160315 359.7142210286395
    vertex 2665.406016904395 11799.240898614342 360.259659360916
  endloop
endfacet
facet normal -1.0 -0.0 -0.0
  outer loop
    vertex 2665.406016904395 11798.130552625122 358.11684468114424
    vertex 2665.406016904395 11799.240898614342 360.259659360916
    vertex 2665.406016904395 11799.922770840087 359.0130280990263
  endloop
endfacet
facet normal -1.0 -0.0 -0.0
  outer loop
    vertex 2665.406016904395 11799.922770840087 359.0130280990263
    vertex 2665.406016904395 11799.240898614342 360.259659360916
    vertex 2665.406016904395 11800.039586788089 361.0972861839978
  endloop
endfacet
facet normal -1.0 -0.0 -0.0
  outer loop
    vertex 2665.406016904395 11799.922770840087 359.0130280990263
    vertex 2665.406016904395 11800.039586788089 361.0972861839978
    vertex 2665.406016904395 11800.37071392823 359.51952778196863
  endloop
endfacet
facet normal -1.0 -0.0 -0.0
  outer loop
    vertex 2665.406016904395 11800.37071392823 359.51952778196863
    vertex 2665.406016904395 11800.039586788089 361.0972861839978
    vertex 2665.406016904395 11800.234428655558 361.7012811110745
  endloop
endfacet
facet normal -1.0 -0.0 -0.0
  outer loop
    vertex 2665.406016904395 11793.650230018906 363.1038155910999
    vertex 2665.406016904395 11793.377510852768 360.6493430958558
    vertex 2665.406016904395 11793.377510852768 361.7791584097428
  endloop
endfacet
facet normal -1.0 -0.0 -0.0
  outer loop
    vertex 2665.406016904395 11793.377510852768 360.6493430958558
    vertex 2665.406016904395 11793.650230018906 363.1038155910999
    vertex 2665.406016904395 11794.468387517323 359.0714360730276
  endloop
endfacet
facet normal -1.0 -0.0 -0.0
  outer loop
    vertex 2665.406016904395 11794.468387517323 359.0714360730276
    vertex 2665.406016904395 11793.650230018906 363.1038155910999
    vertex 2665.406016904395 11795.091703148268 364.54528872045944
  endloop
endfacet
facet normal -1.0 -0.0 -0.0
  outer loop
    vertex 2665.406016904395 11794.468387517323 359.0714360730276
    vertex 2665.406016904395 11795.091703148268 364.54528872045944
    vertex 2665.406016904395 11794.994356524932 361.64272451627426
  endloop
endfacet
facet normal -1.0 -0.0 -0.0
  outer loop
    vertex 2665.406016904395 11794.994356524932 361.64272451627426
    vertex 2665.406016904395 11795.091703148268 364.54528872045944
    vertex 2665.406016904395 11795.150111122268 362.3245967420193
  endloop
endfacet
facet normal -1.0 -0.0 -0.0
  outer loop
    vertex 2665.406016904395 11795.150111122268 362.3245967420193
    vertex 2665.406016904395 11795.091703148268 364.54528872045944
    vertex 2665.406016904395 11797.020206635902 365.03231907873464
  endloop
endfacet
facet normal -1.0 -0.0 -0.0
  outer loop
    vertex 2665.406016904395 11795.150111122268 362.3245967420193
    vertex 2665.406016904395 11797.020206635902 365.03231907873464
    vertex 2665.406016904395 11795.909860646681 363.08434626643276
  endloop
endfacet
facet normal -1.0 -0.0 -0.0
  outer loop
    vertex 2665.406016904395 11795.909860646681 363.08434626643276
    vertex 2665.406016904395 11797.020206635902 365.03231907873464
    vertex 2665.406016904395 11797.195579178704 363.4349427312394
  endloop
endfacet
facet normal -1.0 -0.0 -0.0
  outer loop
    vertex 2665.406016904395 11797.195579178704 363.4349427312394
    vertex 2665.406016904395 11797.020206635902 365.03231907873464
    vertex 2665.406016904395 11798.422741115928 365.03231907873464
  endloop
endfacet
facet normal -1.0 -0.0 -0.0
  outer loop
    vertex 2665.406016904395 11797.195579178704 363.4349427312394
    vertex 2665.406016904395 11798.422741115928 365.03231907873464
    vertex 2665.406016904395 11798.247517193924 363.4349427312394
  endloop
endfacet
facet normal -1.0 -0.0 -0.0
  outer loop
    vertex 2665.406016904395 11798.247517193924 363.4349427312394
    vertex 2665.406016904395 11798.422741115928 365.03231907873464
    vertex 2665.406016904395 11799.221429289675 363.16222356510116
  endloop
endfacet
facet normal -1.0 -0.0 -0.0
  outer loop
    vertex 2665.406016904395 11799.221429289675 363.16222356510116
    vertex 2665.406016904395 11798.422741115928 365.03231907873464
    vertex 2665.406016904395 11799.727928972618 364.60369669446067
  endloop
endfacet
facet normal -1.0 -0.0 -0.0
  outer loop
    vertex 2665.406016904395 11799.221429289675 363.16222356510116
    vertex 2665.406016904395 11799.727928972618 364.60369669446067
    vertex 2665.406016904395 11799.825275595951 362.85056574962874
  endloop
endfacet
facet normal -1.0 -0.0 -0.0
  outer loop
    vertex 2665.406016904395 11799.825275595951 362.85056574962874
    vertex 2665.406016904395 11799.727928972618 364.60369669446067
    vertex 2665.406016904395 11800.234428655558 364.2725695543212
  endloop
endfacet
facet normal -1.0 -0.0 -0.0
  outer loop
    vertex 2665.406016904395 11799.825275595951 362.85056574962874
    vertex 2665.406016904395 11800.234428655558 364.2725695543212
    vertex 2665.406016904395 11800.234428655558 362.42194336535476
  endloop
endfacet
facet normal -1.0 -0.0 -0.0
  outer loop
    vertex 2665.406016904395 11806.470706001786 365.9672925251519
    vertex 2665.406016904395 11806.06155294218 362.2272501186839
    vertex 2665.406016904395 11806.06155294218 364.54528872045944
  endloop
endfacet
facet normal -1.0 -0.0 -0.0
  outer loop
    vertex 2665.406016904395 11806.06155294218 362.2272501186839
    vertex 2665.406016904395 11806.470706001786 365.9672925251519
    vertex 2665.406016904395 11806.470706001786 360.8441849633256
  endloop
endfacet
facet normal -1.0 -0.0 -0.0
  outer loop
    vertex 2665.406016904395 11806.470706001786 360.8441849633256
    vertex 2665.406016904395 11806.470706001786 365.9672925251519
    vertex 2665.406016904395 11807.795363183144 367.759510740117
  endloop
endfacet
facet normal -1.0 -0.0 -0.0
  outer loop
    vertex 2665.406016904395 11806.470706001786 360.8441849633256
    vertex 2665.406016904395 11807.795363183144 367.759510740117
    vertex 2665.406016904395 11807.678398614344 364.3309775283225
  endloop
endfacet
facet normal -1.0 -0.0 -0.0
  outer loop
    vertex 2665.406016904395 11807.678398614344 364.3309775283225
    vertex 2665.406016904395 11807.795363183144 367.759510740117
    vertex 2665.406016904395 11807.931648455813 365.2660995955387
  endloop
endfacet
facet normal -1.0 -0.0 -0.0
  outer loop
    vertex 2665.406016904395 11807.931648455813 365.2660995955387
    vertex 2665.406016904395 11807.795363183144 367.759510740117
    vertex 2665.406016904395 11809.762805320112 368.6946328073333
  endloop
endfacet
facet normal -1.0 -0.0 -0.0
  outer loop
    vertex 2665.406016904395 11807.931648455813 365.2660995955387
    vertex 2665.406016904395 11809.762805320112 368.6946328073333
    vertex 2665.406016904395 11808.827831873696 366.49326153276127
  endloop
endfacet
facet normal -1.0 -0.0 -0.0
  outer loop
    vertex 2665.406016904395 11808.827831873696 366.49326153276127
    vertex 2665.406016904395 11809.762805320112 368.6946328073333
    vertex 2665.406016904395 11810.074463135585 367.097256459838
  endloop
endfacet
facet normal -1.0 -0.0 -0.0
  outer loop
    vertex 2665.406016904395 11810.074463135585 367.097256459838
    vertex 2665.406016904395 11809.762805320112 368.6946328073333
    vertex 2665.406016904395 11811.944558649218 368.6946328073333
  endloop
endfacet
facet normal -1.0 -0.0 -0.0
  outer loop
    vertex 2665.406016904395 11810.074463135585 367.097256459838
    vertex 2665.406016904395 11811.944558649218 368.6946328073333
    vertex 2665.406016904395 11811.74971678175 367.097256459838
  endloop
endfacet
facet normal -1.0 -0.0 -0.0
  outer loop
    vertex 2665.406016904395 11811.74971678175 367.097256459838
    vertex 2665.406016904395 11811.944558649218 368.6946328073333
    vertex 2665.406016904395 11812.626430874963 366.82453729369973
  endloop
endfacet
facet normal -1.0 -0.0 -0.0
  outer loop
    vertex 2665.406016904395 11812.626430874963 366.82453729369973
    vertex 2665.406016904395 11811.944558649218 368.6946328073333
    vertex 2665.406016904395 11813.42511904871 368.2076024490581
  endloop
endfacet
facet normal -1.0 -0.0 -0.0
  outer loop
    vertex 2665.406016904395 11812.626430874963 366.82453729369973
    vertex 2665.406016904395 11813.42511904871 368.2076024490581
    vertex 2665.406016904395 11813.639281620048 365.8504765771493
  endloop
endfacet
facet normal -1.0 -0.0 -0.0
  outer loop
    vertex 2665.406016904395 11813.639281620048 365.8504765771493
    vertex 2665.406016904395 11813.42511904871 368.2076024490581
    vertex 2665.406016904395 11814.788714879403 366.9218839170352
  endloop
endfacet
facet normal -1.0 -0.0 -0.0
  outer loop
    vertex 2665.406016904395 11806.470706001786 360.8441849633256
    vertex 2665.406016904395 11807.678398614344 362.460882014689
    vertex 2665.406016904395 11807.795363183144 359.0519667483605
  endloop
endfacet
facet normal -1.0 -0.0 -0.0
  outer loop
    vertex 2665.406016904395 11807.678398614344 362.460882014689
    vertex 2665.406016904395 11806.470706001786 360.8441849633256
    vertex 2665.406016904395 11807.678398614344 364.3309775283225
  endloop
endfacet
facet normal -1.0 -0.0 -0.0
  outer loop
    vertex 2665.406016904395 11807.795363183144 359.0519667483605
    vertex 2665.406016904395 11807.678398614344 362.460882014689
    vertex 2665.406016904395 11807.912179131146 361.56484721760586
  endloop
endfacet
facet normal -1.0 -0.0 -0.0
  outer loop
    vertex 2665.406016904395 11807.795363183144 359.0519667483605
    vertex 2665.406016904395 11807.912179131146 361.56484721760586
    vertex 2665.406016904395 11809.762805320112 358.11684468114424
  endloop
endfacet
facet normal -1.0 -0.0 -0.0
  outer loop
    vertex 2665.406016904395 11809.762805320112 358.11684468114424
    vertex 2665.406016904395 11807.912179131146 361.56484721760586
    vertex 2665.406016904395 11808.86677052303 360.29859801025015
  endloop
endfacet
facet normal -1.0 -0.0 -0.0
  outer loop
    vertex 2665.406016904395 11809.762805320112 358.11684468114424
    vertex 2665.406016904395 11808.86677052303 360.29859801025015
    vertex 2665.406016904395 11810.074463135585 359.7142210286395
  endloop
endfacet
facet normal -1.0 -0.0 -0.0
  outer loop
    vertex 2665.406016904395 11809.762805320112 358.11684468114424
    vertex 2665.406016904395 11810.074463135585 359.7142210286395
    vertex 2665.406016904395 11811.944558649218 358.11684468114424
  endloop
endfacet
facet normal -1.0 -0.0 -0.0
  outer loop
    vertex 2665.406016904395 11811.944558649218 358.11684468114424
    vertex 2665.406016904395 11810.074463135585 359.7142210286395
    vertex 2665.406016904395 11811.74971678175 359.7142210286395
  endloop
endfacet
facet normal -1.0 -0.0 -0.0
  outer loop
    vertex 2665.406016904395 11811.944558649218 358.11684468114424
    vertex 2665.406016904395 11811.74971678175 359.7142210286395
    vertex 2665.406016904395 11812.626430874963 360.02587884411196
  endloop
endfacet
facet normal -1.0 -0.0 -0.0
  outer loop
    vertex 2665.406016904395 11811.944558649218 358.11684468114424
    vertex 2665.406016904395 11812.626430874963 360.02587884411196
    vertex 2665.406016904395 11813.42511904871 358.60387503941945
  endloop
endfacet
facet normal -1.0 -0.0 -0.0
  outer loop
    vertex 2665.406016904395 11813.42511904871 358.60387503941945
    vertex 2665.406016904395 11812.626430874963 360.02587884411196
    vertex 2665.406016904395 11813.639281620048 360.96100091132814
  endloop
endfacet
facet normal -1.0 -0.0 -0.0
  outer loop
    vertex 2665.406016904395 11813.42511904871 358.60387503941945
    vertex 2665.406016904395 11813.639281620048 360.96100091132814
    vertex 2665.406016904395 11814.769245554735 359.8506549221081
  endloop
endfacet
facet normal -1.0 -0.0 -0.0
  outer loop
    vertex 2665.406016904395 11818.589989055052 365.9672925251519
    vertex 2665.406016904395 11818.180835995445 362.2272501186839
    vertex 2665.406016904395 11818.180835995445 364.54528872045944
  endloop
endfacet
facet normal -1.0 -0.0 -0.0
  outer loop
    vertex 2665.406016904395 11818.180835995445 362.2272501186839
    vertex 2665.406016904395 11818.589989055052 365.9672925251519
    vertex 2665.406016904395 11818.589989055052 360.8441849633256
  endloop
endfacet
facet normal -1.0 -0.0 -0.0
  outer loop
    vertex 2665.406016904395 11818.589989055052 360.8441849633256
    vertex 2665.406016904395 11818.589989055052 365.9672925251519
    vertex 2665.406016904395 11819.914646236408 367.759510740117
  endloop
endfacet
facet normal -1.0 -0.0 -0.0
  outer loop
    vertex 2665.406016904395 11818.589989055052 360.8441849633256
    vertex 2665.406016904395 11819.914646236408 367.759510740117
    vertex 2665.406016904395 11819.797681667607 364.38953412312276
  endloop
endfacet
facet normal -1.0 -0.0 -0.0
  outer loop
    vertex 2665.406016904395 11819.797681667607 364.38953412312276
    vertex 2665.406016904395 11819.914646236408 367.759510740117
    vertex 2665.406016904395 11820.03146218441 365.2466302708716
  endloop
endfacet
facet normal -1.0 -0.0 -0.0
  outer loop
    vertex 2665.406016904395 11820.03146218441 365.2466302708716
    vertex 2665.406016904395 11819.914646236408 367.759510740117
    vertex 2665.406016904395 11821.86261904871 368.6946328073333
  endloop
endfacet
facet normal -1.0 -0.0 -0.0
  outer loop
    vertex 2665.406016904395 11820.03146218441 365.2466302708716
    vertex 2665.406016904395 11821.86261904871 368.6946328073333
    vertex 2665.406016904395 11820.94696630616 366.49326153276127
  endloop
endfacet
facet normal -1.0 -0.0 -0.0
  outer loop
    vertex 2665.406016904395 11820.94696630616 366.49326153276127
    vertex 2665.406016904395 11821.86261904871 368.6946328073333
    vertex 2665.406016904395 11822.115868890181 367.097256459838
  endloop
endfacet
facet normal -1.0 -0.0 -0.0
  outer loop
    vertex 2665.406016904395 11822.115868890181 367.097256459838
    vertex 2665.406016904395 11821.86261904871 368.6946328073333
    vertex 2665.406016904395 11823.985964403815 368.6946328073333
  endloop
endfacet
facet normal -1.0 -0.0 -0.0
  outer loop
    vertex 2665.406016904395 11822.115868890181 367.097256459838
    vertex 2665.406016904395 11823.985964403815 368.6946328073333
    vertex 2665.406016904395 11823.713245237677 367.097256459838
  endloop
endfacet
facet normal -1.0 -0.0 -0.0
  outer loop
    vertex 2665.406016904395 11823.713245237677 367.097256459838
    vertex 2665.406016904395 11823.985964403815 368.6946328073333
    vertex 2665.406016904395 11824.901468525566 366.47379220809415
  endloop
endfacet
facet normal -1.0 -0.0 -0.0
  outer loop
    vertex 2665.406016904395 11824.901468525566 366.47379220809415
    vertex 2665.406016904395 11823.985964403815 368.6946328073333
    vertex 2665.406016904395 11825.953406540784 367.759510740117
  endloop
endfacet
facet normal -1.0 -0.0 -0.0
  outer loop
    vertex 2665.406016904395 11824.901468525566 366.47379220809415
    vertex 2665.406016904395 11825.953406540784 367.759510740117
    vertex 2665.406016904395 11825.836441971984 365.20769162153744
  endloop
endfacet
facet normal -1.0 -0.0 -0.0
  outer loop
    vertex 2665.406016904395 11825.836441971984 365.20769162153744
    vertex 2665.406016904395 11825.953406540784 367.759510740117
    vertex 2665.406016904395 11826.089691813453 364.4674114217911
  endloop
endfacet
facet normal -1.0 -0.0 -0.0
  outer loop
    vertex 2665.406016904395 11826.089691813453 364.4674114217911
    vertex 2665.406016904395 11825.953406540784 367.759510740117
    vertex 2665.406016904395 11827.258594397474 365.9672925251519
  endloop
endfacet
facet normal -1.0 -0.0 -0.0
  outer loop
    vertex 2665.406016904395 11826.089691813453 364.4674114217911
    vertex 2665.406016904395 11827.258594397474 365.9672925251519
    vertex 2665.406016904395 11826.089691813453 364.2141615803199
  endloop
endfacet
facet normal -1.0 -0.0 -0.0
  outer loop
    vertex 2665.406016904395 11826.089691813453 364.2141615803199
    vertex 2665.406016904395 11819.797681667607 362.61678523282467
    vertex 2665.406016904395 11819.797681667607 364.2141615803199
  endloop
endfacet
facet normal -1.0 -0.0 -0.0
  outer loop
    vertex 2665.406016904395 11819.797681667607 362.61678523282467
    vertex 2665.406016904395 11826.089691813453 364.2141615803199
    vertex 2665.406016904395 11827.706537485617 362.61678523282467
  endloop
endfacet
facet normal -1.0 -0.0 -0.0
  outer loop
    vertex 2665.406016904395 11827.706537485617 362.61678523282467
    vertex 2665.406016904395 11826.089691813453 364.2141615803199
    vertex 2665.406016904395 11827.258594397474 365.9672925251519
  endloop
endfacet
facet normal -1.0 -0.0 -0.0
  outer loop
    vertex 2665.406016904395 11827.706537485617 362.61678523282467
    vertex 2665.406016904395 11827.258594397474 365.9672925251519
    vertex 2665.406016904395 11827.706537485617 364.6622532892609
  endloop
endfacet
facet normal -1.0 -0.0 -0.0
  outer loop
    vertex 2665.406016904395 11818.589989055052 360.8441849633256
    vertex 2665.406016904395 11819.797681667607 362.42194336535476
    vertex 2665.406016904395 11819.914646236408 359.0519667483605
  endloop
endfacet
facet normal -1.0 -0.0 -0.0
  outer loop
    vertex 2665.406016904395 11819.797681667607 362.42194336535476
    vertex 2665.406016904395 11818.589989055052 360.8441849633256
    vertex 2665.406016904395 11819.797681667607 364.38953412312276
  endloop
endfacet
facet normal -1.0 -0.0 -0.0
  outer loop
    vertex 2665.406016904395 11819.797681667607 362.42194336535476
    vertex 2665.406016904395 11819.797681667607 364.38953412312276
    vertex 2665.406016904395 11819.797681667607 364.2141615803199
  endloop
endfacet
facet normal -1.0 -0.0 -0.0
  outer loop
    vertex 2665.406016904395 11819.797681667607 362.42194336535476
    vertex 2665.406016904395 11819.797681667607 364.2141615803199
    vertex 2665.406016904395 11819.797681667607 362.61678523282467
  endloop
endfacet
facet normal -1.0 -0.0 -0.0
  outer loop
    vertex 2665.406016904395 11819.914646236408 359.0519667483605
    vertex 2665.406016904395 11819.797681667607 362.42194336535476
    vertex 2665.406016904395 11820.050931509079 361.56484721760586
  endloop
endfacet
facet normal -1.0 -0.0 -0.0
  outer loop
    vertex 2665.406016904395 11819.914646236408 359.0519667483605
    vertex 2665.406016904395 11820.050931509079 361.56484721760586
    vertex 2665.406016904395 11821.882088373379 358.11684468114424
  endloop
endfacet
facet normal -1.0 -0.0 -0.0
  outer loop
    vertex 2665.406016904395 11821.882088373379 358.11684468114424
    vertex 2665.406016904395 11820.050931509079 361.56484721760586
    vertex 2665.406016904395 11820.985904955496 360.29859801025015
  endloop
endfacet
facet normal -1.0 -0.0 -0.0
  outer loop
    vertex 2665.406016904395 11821.882088373379 358.11684468114424
    vertex 2665.406016904395 11820.985904955496 360.29859801025015
    vertex 2665.406016904395 11822.174276864182 359.7142210286395
  endloop
endfacet
facet normal -1.0 -0.0 -0.0
  outer loop
    vertex 2665.406016904395 11821.882088373379 358.11684468114424
    vertex 2665.406016904395 11822.174276864182 359.7142210286395
    vertex 2665.406016904395 11823.888469159681 358.11684468114424
  endloop
endfacet
facet normal -1.0 -0.0 -0.0
  outer loop
    vertex 2665.406016904395 11823.888469159681 358.11684468114424
    vertex 2665.406016904395 11822.174276864182 359.7142210286395
    vertex 2665.406016904395 11823.752183887013 359.7142210286395
  endloop
endfacet
facet normal -1.0 -0.0 -0.0
  outer loop
    vertex 2665.406016904395 11823.888469159681 358.11684468114424
    vertex 2665.406016904395 11823.752183887013 359.7142210286395
    vertex 2665.406016904395 11825.057371743702 360.045496789578
  endloop
endfacet
facet normal -1.0 -0.0 -0.0
  outer loop
    vertex 2665.406016904395 11823.888469159681 358.11684468114424
    vertex 2665.406016904395 11825.057371743702 360.045496789578
    vertex 2665.406016904395 11825.661218049978 358.5649363900853
  endloop
endfacet
facet normal -1.0 -0.0 -0.0
  outer loop
    vertex 2665.406016904395 11825.661218049978 358.5649363900853
    vertex 2665.406016904395 11825.057371743702 360.045496789578
    vertex 2665.406016904395 11826.070222488786 360.6882817451899
  endloop
endfacet
facet normal -1.0 -0.0 -0.0
  outer loop
    vertex 2665.406016904395 11825.661218049978 358.5649363900853
    vertex 2665.406016904395 11826.070222488786 360.6882817451899
    vertex 2665.406016904395 11826.927318636535 359.4025632131671
  endloop
endfacet
facet normal -1.0 -0.0 -0.0
  outer loop
    vertex 2665.406016904395 11834.254472647317 368.6946328073333
    vertex 2665.406016904395 11833.124657333428 366.18160371728885
    vertex 2665.406016904395 11833.04678003476 368.36335704639475
  endloop
endfacet
facet normal -1.0 -0.0 -0.0
  outer loop
    vertex 2665.406016904395 11833.124657333428 366.18160371728885
    vertex 2665.406016904395 11834.254472647317 368.6946328073333
    vertex 2665.406016904395 11833.397376499566 366.649164750897
  endloop
endfacet
facet normal -1.0 -0.0 -0.0
  outer loop
    vertex 2665.406016904395 11833.397376499566 366.649164750897
    vertex 2665.406016904395 11834.254472647317 368.6946328073333
    vertex 2665.406016904395 11833.728503639706 366.9218839170352
  endloop
endfacet
facet normal -1.0 -0.0 -0.0
  outer loop
    vertex 2665.406016904395 11833.728503639706 366.9218839170352
    vertex 2665.406016904395 11834.254472647317 368.6946328073333
    vertex 2665.406016904395 11834.468783839451 367.13619510917215
  endloop
endfacet
facet normal -1.0 -0.0 -0.0
  outer loop
    vertex 2665.406016904395 11834.468783839451 367.13619510917215
    vertex 2665.406016904395 11834.254472647317 368.6946328073333
    vertex 2665.406016904395 11836.222063405083 368.6946328073333
  endloop
endfacet
facet normal -1.0 -0.0 -0.0
  outer loop
    vertex 2665.406016904395 11834.468783839451 367.13619510917215
    vertex 2665.406016904395 11836.222063405083 368.6946328073333
    vertex 2665.406016904395 11836.085629511615 367.13619510917215
  endloop
endfacet
facet normal -1.0 -0.0 -0.0
  outer loop
    vertex 2665.406016904395 11836.085629511615 367.13619510917215
    vertex 2665.406016904395 11836.222063405083 368.6946328073333
    vertex 2665.406016904395 11837.137567526834 366.8050679690327
  endloop
endfacet
facet normal -1.0 -0.0 -0.0
  outer loop
    vertex 2665.406016904395 11837.137567526834 366.8050679690327
    vertex 2665.406016904395 11836.222063405083 368.6946328073333
    vertex 2665.406016904395 11837.741413833111 368.26601042305924
  endloop
endfacet
facet normal -1.0 -0.0 -0.0
  outer loop
    vertex 2665.406016904395 11837.137567526834 366.8050679690327
    vertex 2665.406016904395 11837.741413833111 368.26601042305924
    vertex 2665.406016904395 11838.189505542054 366.1621343926218
  endloop
endfacet
facet normal -1.0 -0.0 -0.0
  outer loop
    vertex 2665.406016904395 11838.189505542054 366.1621343926218
    vertex 2665.406016904395 11837.741413833111 368.26601042305924
    vertex 2665.406016904395 11839.066071014468 367.4673222493117
  endloop
endfacet
facet normal -1.0 -0.0 -0.0
  outer loop
    vertex 2665.406016904395 11832.170214562344 367.68163344144864
    vertex 2665.406016904395 11831.527280985933 364.83747721126474
    vertex 2665.406016904395 11831.527280985933 366.57128745222855
  endloop
endfacet
facet normal -1.0 -0.0 -0.0
  outer loop
    vertex 2665.406016904395 11831.527280985933 364.83747721126474
    vertex 2665.406016904395 11832.170214562344 367.68163344144864
    vertex 2665.406016904395 11832.345438484348 363.70766189737765
  endloop
endfacet
facet normal -1.0 -0.0 -0.0
  outer loop
    vertex 2665.406016904395 11832.345438484348 363.70766189737765
    vertex 2665.406016904395 11832.170214562344 367.68163344144864
    vertex 2665.406016904395 11833.04678003476 368.36335704639475
  endloop
endfacet
facet normal -1.0 -0.0 -0.0
  outer loop
    vertex 2665.406016904395 11832.345438484348 363.70766189737765
    vertex 2665.406016904395 11833.04678003476 368.36335704639475
    vertex 2665.406016904395 11833.124657333428 365.32450756954
  endloop
endfacet
facet normal -1.0 -0.0 -0.0
  outer loop
    vertex 2665.406016904395 11832.345438484348 363.70766189737765
    vertex 2665.406016904395 11833.124657333428 365.32450756954
    vertex 2665.406016904395 11833.592218367035 363.04540761709865
  endloop
endfacet
facet normal -1.0 -0.0 -0.0
  outer loop
    vertex 2665.406016904395 11833.124657333428 365.32450756954
    vertex 2665.406016904395 11833.04678003476 368.36335704639475
    vertex 2665.406016904395 11833.124657333428 366.18160371728885
  endloop
endfacet
facet normal -1.0 -0.0 -0.0
  outer loop
    vertex 2665.406016904395 11833.592218367035 363.04540761709865
    vertex 2665.406016904395 11833.124657333428 365.32450756954
    vertex 2665.406016904395 11833.514341068369 364.79853856193057
  endloop
endfacet
facet normal -1.0 -0.0 -0.0
  outer loop
    vertex 2665.406016904395 11833.592218367035 363.04540761709865
    vertex 2665.406016904395 11833.514341068369 364.79853856193057
    vertex 2665.406016904395 11834.059779400644 364.5258193957923
  endloop
endfacet
facet normal -1.0 -0.0 -0.0
  outer loop
    vertex 2665.406016904395 11833.592218367035 363.04540761709865
    vertex 2665.406016904395 11834.059779400644 364.5258193957923
    vertex 2665.406016904395 11836.786971062027 362.4804999601551
  endloop
endfacet
facet normal -1.0 -0.0 -0.0
  outer loop
    vertex 2665.406016904395 11836.786971062027 362.4804999601551
    vertex 2665.406016904395 11834.059779400644 364.5258193957923
    vertex 2665.406016904395 11837.42975601764 363.94144241418167
  endloop
endfacet
facet normal -1.0 -0.0 -0.0
  outer loop
    vertex 2665.406016904395 11836.786971062027 362.4804999601551
    vertex 2665.406016904395 11837.42975601764 363.94144241418167
    vertex 2665.406016904395 11837.371348043638 362.07134690054824
  endloop
endfacet
facet normal -1.0 -0.0 -0.0
  outer loop
    vertex 2665.406016904395 11837.371348043638 362.07134690054824
    vertex 2665.406016904395 11837.42975601764 363.94144241418167
    vertex 2665.406016904395 11837.702475183778 361.5064392436047
  endloop
endfacet
facet normal -1.0 -0.0 -0.0
  outer loop
    vertex 2665.406016904395 11837.702475183778 361.5064392436047
    vertex 2665.406016904395 11837.42975601764 363.94144241418167
    vertex 2665.406016904395 11838.54010200686 363.2011622144354
  endloop
endfacet
facet normal -1.0 -0.0 -0.0
  outer loop
    vertex 2665.406016904395 11837.702475183778 361.5064392436047
    vertex 2665.406016904395 11838.54010200686 363.2011622144354
    vertex 2665.406016904395 11837.702475183778 360.7661590438583
  endloop
endfacet
facet normal -1.0 -0.0 -0.0
  outer loop
    vertex 2665.406016904395 11832.287030510346 360.86365428799274
    vertex 2665.406016904395 11831.644245554735 359.26627794049745
    vertex 2665.406016904395 11831.15721519646 359.77277762343977
  endloop
endfacet
facet normal -1.0 -0.0 -0.0
  outer loop
    vertex 2665.406016904395 11831.644245554735 359.26627794049745
    vertex 2665.406016904395 11832.287030510346 360.86365428799274
    vertex 2665.406016904395 11832.598688325817 358.5454670654182
  endloop
endfacet
facet normal -1.0 -0.0 -0.0
  outer loop
    vertex 2665.406016904395 11832.598688325817 358.5454670654182
    vertex 2665.406016904395 11832.287030510346 360.86365428799274
    vertex 2665.406016904395 11832.696183569953 360.41556257905165
  endloop
endfacet
facet normal -1.0 -0.0 -0.0
  outer loop
    vertex 2665.406016904395 11832.598688325817 358.5454670654182
    vertex 2665.406016904395 11832.696183569953 360.41556257905165
    vertex 2665.406016904395 11834.176595348648 358.11684468114424
  endloop
endfacet
facet normal -1.0 -0.0 -0.0
  outer loop
    vertex 2665.406016904395 11834.176595348648 358.11684468114424
    vertex 2665.406016904395 11832.696183569953 360.41556257905165
    vertex 2665.406016904395 11833.241621902229 360.00640951944484
  endloop
endfacet
facet normal -1.0 -0.0 -0.0
  outer loop
    vertex 2665.406016904395 11834.176595348648 358.11684468114424
    vertex 2665.406016904395 11833.241621902229 360.00640951944484
    vertex 2665.406016904395 11834.390906540784 359.69475170397243
  endloop
endfacet
facet normal -1.0 -0.0 -0.0
  outer loop
    vertex 2665.406016904395 11834.176595348648 358.11684468114424
    vertex 2665.406016904395 11834.390906540784 359.69475170397243
    vertex 2665.406016904395 11836.280471379085 358.11684468114424
  endloop
endfacet
facet normal -1.0 -0.0 -0.0
  outer loop
    vertex 2665.406016904395 11836.280471379085 358.11684468114424
    vertex 2665.406016904395 11834.390906540784 359.69475170397243
    vertex 2665.406016904395 11836.066160186947 359.69475170397243
  endloop
endfacet
facet normal -1.0 -0.0 -0.0
  outer loop
    vertex 2665.406016904395 11836.280471379085 358.11684468114424
    vertex 2665.406016904395 11836.066160186947 359.69475170397243
    vertex 2665.406016904395 11836.884317685362 359.92853222077645
  endloop
endfacet
facet normal -1.0 -0.0 -0.0
  outer loop
    vertex 2665.406016904395 11836.280471379085 358.11684468114424
    vertex 2665.406016904395 11836.884317685362 359.92853222077645
    vertex 2665.406016904395 11837.60512856044 358.506528416084
  endloop
endfacet
facet normal -1.0 -0.0 -0.0
  outer loop
    vertex 2665.406016904395 11837.60512856044 358.506528416084
    vertex 2665.406016904395 11836.884317685362 359.92853222077645
    vertex 2665.406016904395 11837.371348043638 360.2791286855831
  endloop
endfacet
facet normal -1.0 -0.0 -0.0
  outer loop
    vertex 2665.406016904395 11837.60512856044 358.506528416084
    vertex 2665.406016904395 11837.371348043638 360.2791286855831
    vertex 2665.406016904395 11837.702475183778 360.7661590438583
  endloop
endfacet
facet normal -1.0 -0.0 -0.0
  outer loop
    vertex 2665.406016904395 11837.60512856044 358.506528416084
    vertex 2665.406016904395 11837.702475183778 360.7661590438583
    vertex 2665.406016904395 11838.54010200686 359.168782696363
  endloop
endfacet
facet normal -1.0 -0.0 -0.0
  outer loop
    vertex 2665.406016904395 11838.54010200686 359.168782696363
    vertex 2665.406016904395 11837.702475183778 360.7661590438583
    vertex 2665.406016904395 11838.54010200686 363.2011622144354
  endloop
endfacet
facet normal -1.0 -0.0 -0.0
  outer loop
    vertex 2665.406016904395 11838.54010200686 359.168782696363
    vertex 2665.406016904395 11838.54010200686 363.2011622144354
    vertex 2665.406016904395 11839.299851531274 361.95453095254567
  endloop
endfacet
facet normal -1.0 -0.0 -0.0
  outer loop
    vertex 2665.406016904395 11838.54010200686 359.168782696363
    vertex 2665.406016904395 11839.299851531274 361.95453095254567
    vertex 2665.406016904395 11839.299851531274 360.29859801025015
  endloop
endfacet
endsolid thesis3
