solid thesis3
facet normal 0.0 -1.0 0.0
  outer loop
    vertex -3735.6423277455865 7114.323634896014 2517.1
    vertex -5814.435571363502 7114.323634896014 326.70000000000016
    vertex -3735.6423277455865 7114.323634896014 326.70000000000016
  endloop
endfacet
facet normal 0.0 -1.0 0.0
  outer loop
    vertex -5814.435571363502 7114.323634896014 326.70000000000016
    vertex -3735.6423277455865 7114.323634896014 2517.1
    vertex -5814.435571363502 7114.323634896014 556.7844332002352
  endloop
endfacet
facet normal 0.0 -1.0 0.0
  outer loop
    vertex -5814.435571363502 7114.323634896014 556.7844332002352
    vertex -3735.6423277455865 7114.323634896014 2517.1
    vertex -5956.635571363502 7114.323634896014 556.7844332002352
  endloop
endfacet
facet normal 0.0 -1.0 0.0
  outer loop
    vertex -5956.635571363502 7114.323634896014 326.70000000000016
    vertex -6312.524174384874 7114.323634896014 0.0
    vertex -5956.635571363502 7114.323634896014 0.0
  endloop
endfacet
facet normal 0.0 -1.0 0.0
  outer loop
    vertex -6312.524174384874 7114.323634896014 0.0
    vertex -5956.635571363502 7114.323634896014 326.70000000000016
    vertex -6312.524174384874 7114.323634896014 2517.1
  endloop
endfacet
facet normal 0.0 -1.0 0.0
  outer loop
    vertex -6312.524174384874 7114.323634896014 2517.1
    vertex -5956.635571363502 7114.323634896014 326.70000000000016
    vertex -5956.635571363502 7114.323634896014 556.7844332002352
  endloop
endfacet
facet normal 0.0 -1.0 0.0
  outer loop
    vertex -6312.524174384874 7114.323634896014 2517.1
    vertex -5956.635571363502 7114.323634896014 556.7844332002352
    vertex -3735.6423277455865 7114.323634896014 2517.1
  endloop
endfacet
facet normal -1.0 0.0 0.0
  outer loop
    vertex -5956.635571363502 7119.123634896014 326.70000000000016
    vertex -5956.635571363502 7114.323634896014 0.0
    vertex -5956.635571363502 7114.323634896014 326.70000000000016
  endloop
endfacet
facet normal -1.0 0.0 0.0
  outer loop
    vertex -5956.635571363502 7114.323634896014 0.0
    vertex -5956.635571363502 7119.123634896014 326.70000000000016
    vertex -5956.635571363502 7119.123634896014 0.0
  endloop
endfacet
facet normal -1.0 0.0 0.0
  outer loop
    vertex -3785.642327745587 9694.423634896015 2446.8804814941013
    vertex -3785.642327745587 7169.123634896014 326.70000000000135
    vertex -3785.642327745587 7169.123634896014 2446.8804814941013
  endloop
endfacet
facet normal -1.0 0.0 0.0
  outer loop
    vertex -3785.642327745587 7169.123634896014 326.70000000000135
    vertex -3785.642327745587 9694.423634896015 2446.8804814941013
    vertex -3785.642327745587 9694.423634896015 326.70000000000135
  endloop
endfacet
facet normal 0.0 -1.0 0.0
  outer loop
    vertex -3785.642327745587 9694.423634896015 2446.8804814941013
    vertex -6262.524174384874 9694.423634896015 326.70000000000135
    vertex -3785.642327745587 9694.423634896015 326.70000000000135
  endloop
endfacet
facet normal 0.0 -1.0 0.0
  outer loop
    vertex -6262.524174384874 9694.423634896015 326.70000000000135
    vertex -3785.642327745587 9694.423634896015 2446.8804814941013
    vertex -6262.524174384874 9694.423634896015 2446.8804814941013
  endloop
endfacet
facet normal -1.444758747391874e-16 1.0 -2.430451564680372e-16
  outer loop
    vertex -6262.524174384874 7169.123634896014 326.70000000000135
    vertex -5956.635571363502 7169.123634896013 556.7844332002352
    vertex -5956.635571363502 7169.123634896013 326.70000000000016
  endloop
endfacet
facet normal -1.444758747391874e-16 1.0 -2.430451564680372e-16
  outer loop
    vertex -5956.635571363502 7169.123634896013 556.7844332002352
    vertex -6262.524174384874 7169.123634896014 326.70000000000135
    vertex -6262.524174384874 7169.123634896014 2446.8804814941013
  endloop
endfacet
facet normal -1.444758747391874e-16 1.0 -2.430451564680372e-16
  outer loop
    vertex -5956.635571363502 7169.123634896013 556.7844332002352
    vertex -6262.524174384874 7169.123634896014 2446.8804814941013
    vertex -5814.435571363502 7169.123634896013 556.7844332002352
  endloop
endfacet
facet normal -1.444758747391874e-16 1.0 -2.430451564680372e-16
  outer loop
    vertex -5814.435571363502 7169.123634896013 556.7844332002352
    vertex -3785.642327745587 7169.123634896014 326.70000000000135
    vertex -5814.435571363502 7169.123634896013 326.70000000000016
  endloop
endfacet
facet normal -1.444758747391874e-16 1.0 -2.430451564680372e-16
  outer loop
    vertex -3785.642327745587 7169.123634896014 326.70000000000135
    vertex -5814.435571363502 7169.123634896013 556.7844332002352
    vertex -3785.642327745587 7169.123634896014 2446.8804814941013
  endloop
endfacet
facet normal -1.444758747391874e-16 1.0 -2.430451564680372e-16
  outer loop
    vertex -3785.642327745587 7169.123634896014 2446.8804814941013
    vertex -5814.435571363502 7169.123634896013 556.7844332002352
    vertex -6262.524174384874 7169.123634896014 2446.8804814941013
  endloop
endfacet
facet normal 1.0 -0.0 -0.0
  outer loop
    vertex -6262.524174384874 9694.423634896015 326.70000000000135
    vertex -6262.524174384874 7169.123634896014 2446.8804814941013
    vertex -6262.524174384874 7169.123634896014 326.70000000000135
  endloop
endfacet
facet normal 1.0 -0.0 -0.0
  outer loop
    vertex -6262.524174384874 7169.123634896014 2446.8804814941013
    vertex -6262.524174384874 9694.423634896015 326.70000000000135
    vertex -6262.524174384874 9694.423634896015 2446.8804814941013
  endloop
endfacet
facet normal -1.5350561691038665e-16 -2.1680822938632542e-16 1.0
  outer loop
    vertex -5956.635571363502 7169.123634896013 326.70000000000016
    vertex -6262.524174384874 9694.423634896015 326.70000000000135
    vertex -6262.524174384874 7169.123634896014 326.70000000000135
  endloop
endfacet
facet normal -1.5350561691038665e-16 -2.1680822938632542e-16 1.0
  outer loop
    vertex -6262.524174384874 9694.423634896015 326.70000000000135
    vertex -5956.635571363502 7169.123634896013 326.70000000000016
    vertex -3785.642327745587 9694.423634896015 326.70000000000135
  endloop
endfacet
facet normal -1.5350561691038665e-16 -2.1680822938632542e-16 1.0
  outer loop
    vertex -3785.642327745587 9694.423634896015 326.70000000000135
    vertex -5956.635571363502 7169.123634896013 326.70000000000016
    vertex -5814.435571363502 7169.123634896013 326.70000000000016
  endloop
endfacet
facet normal -1.5350561691038665e-16 -2.1680822938632542e-16 1.0
  outer loop
    vertex -3785.642327745587 9694.423634896015 326.70000000000135
    vertex -5814.435571363502 7169.123634896013 326.70000000000016
    vertex -3785.642327745587 7169.123634896014 326.70000000000135
  endloop
endfacet
facet normal -1.0 -0.0 -0.0
  outer loop
    vertex -6312.524174384874 7119.123634896014 2517.1
    vertex -6312.524174384874 7114.323634896014 0.0
    vertex -6312.524174384874 7114.323634896014 2517.1
  endloop
endfacet
facet normal -1.0 -0.0 -0.0
  outer loop
    vertex -6312.524174384874 7114.323634896014 0.0
    vertex -6312.524174384874 7119.123634896014 2517.1
    vertex -6312.524174384874 7119.123634896014 0.0
  endloop
endfacet
facet normal -0.0 -0.0 1.0
  outer loop
    vertex -3735.6423277455865 7114.323634896014 326.70000000000016
    vertex -5814.435571363502 7119.123634896014 326.70000000000016
    vertex -5814.435571363502 7114.323634896014 326.70000000000016
  endloop
endfacet
facet normal -0.0 -0.0 1.0
  outer loop
    vertex -5814.435571363502 7119.123634896014 326.70000000000016
    vertex -3735.6423277455865 7114.323634896014 326.70000000000016
    vertex -3735.6423277455865 7119.123634896014 326.70000000000016
  endloop
endfacet
facet normal 1.0 -0.0 -0.0
  outer loop
    vertex -5956.635571363502 7119.123634896014 326.70000000000016
    vertex -5956.635571363502 7114.323634896014 556.7844332002352
    vertex -5956.635571363502 7114.323634896014 326.70000000000016
  endloop
endfacet
facet normal 1.0 -0.0 -0.0
  outer loop
    vertex -5956.635571363502 7114.323634896014 556.7844332002352
    vertex -5956.635571363502 7119.123634896014 326.70000000000016
    vertex -5956.635571363502 7119.123634896014 556.7844332002352
  endloop
endfacet
facet normal 0.0 0.0 1.0
  outer loop
    vertex -3735.6423277455865 7114.323634896014 2517.1
    vertex -6312.524174384874 7119.123634896014 2517.1
    vertex -6312.524174384874 7114.323634896014 2517.1
  endloop
endfacet
facet normal 0.0 0.0 1.0
  outer loop
    vertex -6312.524174384874 7119.123634896014 2517.1
    vertex -3735.6423277455865 7114.323634896014 2517.1
    vertex -3735.6423277455865 7119.123634896014 2517.1
  endloop
endfacet
facet normal 0.0 0.0 -1.0
  outer loop
    vertex -5814.435571363502 7119.123634896014 556.7844332002352
    vertex -5956.635571363502 7114.323634896014 556.7844332002352
    vertex -5956.635571363502 7119.123634896014 556.7844332002352
  endloop
endfacet
facet normal 0.0 0.0 -1.0
  outer loop
    vertex -5956.635571363502 7114.323634896014 556.7844332002352
    vertex -5814.435571363502 7119.123634896014 556.7844332002352
    vertex -5814.435571363502 7114.323634896014 556.7844332002352
  endloop
endfacet
facet normal -1.0 -0.0 -0.0
  outer loop
    vertex -5814.435571363502 7119.123634896014 556.7844332002352
    vertex -5814.435571363502 7114.323634896014 326.70000000000016
    vertex -5814.435571363502 7114.323634896014 556.7844332002352
  endloop
endfacet
facet normal -1.0 -0.0 -0.0
  outer loop
    vertex -5814.435571363502 7114.323634896014 326.70000000000016
    vertex -5814.435571363502 7119.123634896014 556.7844332002352
    vertex -5814.435571363502 7119.123634896014 326.70000000000016
  endloop
endfacet
facet normal 1.0 -0.0 -0.0
  outer loop
    vertex -3735.6423277455865 7119.123634896014 326.70000000000016
    vertex -3735.6423277455865 7114.323634896014 2517.1
    vertex -3735.6423277455865 7114.323634896014 326.70000000000016
  endloop
endfacet
facet normal 1.0 -0.0 -0.0
  outer loop
    vertex -3735.6423277455865 7114.323634896014 2517.1
    vertex -3735.6423277455865 7119.123634896014 326.70000000000016
    vertex -3735.6423277455865 7119.123634896014 2517.1
  endloop
endfacet
facet normal 0.0 0.0 -1.0
  outer loop
    vertex -5956.635571363502 7119.123634896014 0.0
    vertex -6312.524174384874 7114.323634896014 0.0
    vertex -6312.524174384874 7119.123634896014 0.0
  endloop
endfacet
facet normal 0.0 0.0 -1.0
  outer loop
    vertex -6312.524174384874 7114.323634896014 0.0
    vertex -5956.635571363502 7119.123634896014 0.0
    vertex -5956.635571363502 7114.323634896014 0.0
  endloop
endfacet
facet normal 0.0 0.0 -1.0
  outer loop
    vertex -3785.642327745587 9694.423634896015 2446.8804814941013
    vertex -6262.524174384874 7169.123634896014 2446.8804814941013
    vertex -6262.524174384874 9694.423634896015 2446.8804814941013
  endloop
endfacet
facet normal 0.0 0.0 -1.0
  outer loop
    vertex -6262.524174384874 7169.123634896014 2446.8804814941013
    vertex -3785.642327745587 9694.423634896015 2446.8804814941013
    vertex -3785.642327745587 7169.123634896014 2446.8804814941013
  endloop
endfacet
facet normal -1.0 0.0 0.0
  outer loop
    vertex -5814.435571363502 7169.123634896013 556.7844332002352
    vertex -5814.435571363502 7119.123634896014 326.70000000000016
    vertex -5814.435571363502 7119.123634896014 556.7844332002352
  endloop
endfacet
facet normal -1.0 0.0 0.0
  outer loop
    vertex -5814.435571363502 7119.123634896014 326.70000000000016
    vertex -5814.435571363502 7169.123634896013 556.7844332002352
    vertex -5814.435571363502 7169.123634896013 326.70000000000016
  endloop
endfacet
facet normal 1.0 -0.0 -0.0
  outer loop
    vertex -5956.635571363502 7169.123634896013 326.70000000000016
    vertex -5956.635571363502 7119.123634896014 556.7844332002352
    vertex -5956.635571363502 7119.123634896014 326.70000000000016
  endloop
endfacet
facet normal 1.0 -0.0 -0.0
  outer loop
    vertex -5956.635571363502 7119.123634896014 556.7844332002352
    vertex -5956.635571363502 7169.123634896013 326.70000000000016
    vertex -5956.635571363502 7169.123634896013 556.7844332002352
  endloop
endfacet
facet normal -0.0 -0.0 -1.0
  outer loop
    vertex -5814.435571363502 7169.123634896013 556.7844332002352
    vertex -5956.635571363502 7119.123634896014 556.7844332002352
    vertex -5956.635571363502 7169.123634896013 556.7844332002352
  endloop
endfacet
facet normal -0.0 -0.0 -1.0
  outer loop
    vertex -5956.635571363502 7119.123634896014 556.7844332002352
    vertex -5814.435571363502 7169.123634896013 556.7844332002352
    vertex -5814.435571363502 7119.123634896014 556.7844332002352
  endloop
endfacet
facet normal -0.0 -0.0 1.0
  outer loop
    vertex -5814.435571363502 7119.123634896014 326.70000000000016
    vertex -5956.635571363502 7169.123634896013 326.70000000000016
    vertex -5956.635571363502 7119.123634896014 326.70000000000016
  endloop
endfacet
facet normal -0.0 -0.0 1.0
  outer loop
    vertex -5956.635571363502 7169.123634896013 326.70000000000016
    vertex -5814.435571363502 7119.123634896014 326.70000000000016
    vertex -5814.435571363502 7169.123634896013 326.70000000000016
  endloop
endfacet
facet normal 0.0 0.0 -1.0
  outer loop
    vertex -3735.6423277455865 7119.123634896014 0.0
    vertex -5956.635571363502 7114.323634896014 0.0
    vertex -5956.635571363502 7119.123634896014 0.0
  endloop
endfacet
facet normal 0.0 0.0 -1.0
  outer loop
    vertex -5956.635571363502 7114.323634896014 0.0
    vertex -3735.6423277455865 7119.123634896014 0.0
    vertex -5956.635571363502 6847.886417956837 0.0
  endloop
endfacet
facet normal 0.0 0.0 -1.0
  outer loop
    vertex -5956.635571363502 6847.886417956837 0.0
    vertex -3735.6423277455865 7119.123634896014 0.0
    vertex -3735.6423277455865 6847.886417956837 0.0
  endloop
endfacet
facet normal 0.0 0.0 -1.0
  outer loop
    vertex -3735.6423277455865 9744.423634896015 0.0
    vertex -6312.524174384874 7119.123634896014 0.0
    vertex -6312.524174384874 9744.423634896015 0.0
  endloop
endfacet
facet normal 0.0 0.0 -1.0
  outer loop
    vertex -6312.524174384874 7119.123634896014 0.0
    vertex -3735.6423277455865 9744.423634896015 0.0
    vertex -5956.635571363502 7119.123634896014 0.0
  endloop
endfacet
facet normal 0.0 0.0 -1.0
  outer loop
    vertex -5956.635571363502 7119.123634896014 0.0
    vertex -3735.6423277455865 9744.423634896015 0.0
    vertex -3735.6423277455865 7119.123634896014 0.0
  endloop
endfacet
facet normal 1.0 -0.0 -0.0
  outer loop
    vertex -3735.6423277455865 9744.423634896015 0.0
    vertex -3735.6423277455865 7119.123634896014 326.70000000000016
    vertex -3735.6423277455865 7119.123634896014 0.0
  endloop
endfacet
facet normal 1.0 -0.0 -0.0
  outer loop
    vertex -3735.6423277455865 7119.123634896014 326.70000000000016
    vertex -3735.6423277455865 9744.423634896015 0.0
    vertex -3735.6423277455865 7119.123634896014 2517.1
  endloop
endfacet
facet normal 1.0 -0.0 -0.0
  outer loop
    vertex -3735.6423277455865 7119.123634896014 2517.1
    vertex -3735.6423277455865 9744.423634896015 0.0
    vertex -3735.6423277455865 9744.423634896015 2517.1
  endloop
endfacet
facet normal -1.0 0.0 0.0
  outer loop
    vertex -6312.524174384874 9744.423634896015 2517.1
    vertex -6312.524174384874 7119.123634896014 0.0
    vertex -6312.524174384874 7119.123634896014 2517.1
  endloop
endfacet
facet normal -1.0 0.0 0.0
  outer loop
    vertex -6312.524174384874 7119.123634896014 0.0
    vertex -6312.524174384874 9744.423634896015 2517.1
    vertex -6312.524174384874 9744.423634896015 0.0
  endloop
endfacet
facet normal 0.0 -1.0 0.0
  outer loop
    vertex -3735.6423277455865 7119.123634896014 2517.1
    vertex -5814.435571363502 7119.123634896014 326.70000000000016
    vertex -3735.6423277455865 7119.123634896014 326.70000000000016
  endloop
endfacet
facet normal 0.0 -1.0 0.0
  outer loop
    vertex -5814.435571363502 7119.123634896014 326.70000000000016
    vertex -3735.6423277455865 7119.123634896014 2517.1
    vertex -5814.435571363502 7119.123634896014 556.7844332002352
  endloop
endfacet
facet normal 0.0 -1.0 0.0
  outer loop
    vertex -5814.435571363502 7119.123634896014 556.7844332002352
    vertex -3735.6423277455865 7119.123634896014 2517.1
    vertex -5956.635571363502 7119.123634896014 556.7844332002352
  endloop
endfacet
facet normal 0.0 -1.0 0.0
  outer loop
    vertex -5956.635571363502 7119.123634896014 326.70000000000016
    vertex -6312.524174384874 7119.123634896014 0.0
    vertex -5956.635571363502 7119.123634896014 0.0
  endloop
endfacet
facet normal 0.0 -1.0 0.0
  outer loop
    vertex -6312.524174384874 7119.123634896014 0.0
    vertex -5956.635571363502 7119.123634896014 326.70000000000016
    vertex -6312.524174384874 7119.123634896014 2517.1
  endloop
endfacet
facet normal 0.0 -1.0 0.0
  outer loop
    vertex -6312.524174384874 7119.123634896014 2517.1
    vertex -5956.635571363502 7119.123634896014 326.70000000000016
    vertex -5956.635571363502 7119.123634896014 556.7844332002352
  endloop
endfacet
facet normal 0.0 -1.0 0.0
  outer loop
    vertex -6312.524174384874 7119.123634896014 2517.1
    vertex -5956.635571363502 7119.123634896014 556.7844332002352
    vertex -3735.6423277455865 7119.123634896014 2517.1
  endloop
endfacet
facet normal 0.0 0.0 1.0
  outer loop
    vertex -3735.6423277455865 7119.123634896014 2517.1
    vertex -6312.524174384874 9744.423634896015 2517.1
    vertex -6312.524174384874 7119.123634896014 2517.1
  endloop
endfacet
facet normal 0.0 0.0 1.0
  outer loop
    vertex -6312.524174384874 9744.423634896015 2517.1
    vertex -3735.6423277455865 7119.123634896014 2517.1
    vertex -3735.6423277455865 9744.423634896015 2517.1
  endloop
endfacet
facet normal -0.0 1.0 0.0
  outer loop
    vertex -6312.524174384874 9744.423634896015 2517.1
    vertex -3735.6423277455865 9744.423634896015 0.0
    vertex -6312.524174384874 9744.423634896015 0.0
  endloop
endfacet
facet normal -0.0 1.0 0.0
  outer loop
    vertex -3735.6423277455865 9744.423634896015 0.0
    vertex -6312.524174384874 9744.423634896015 2517.1
    vertex -3735.6423277455865 9744.423634896015 2517.1
  endloop
endfacet
facet normal -0.0 -0.0 1.0
  outer loop
    vertex -3735.6423277455865 6847.886417956837 326.70000000000016
    vertex -5956.635571363502 7114.323634896014 326.70000000000016
    vertex -5956.635571363502 6847.886417956837 326.70000000000016
  endloop
endfacet
facet normal -0.0 -0.0 1.0
  outer loop
    vertex -5956.635571363502 7114.323634896014 326.70000000000016
    vertex -3735.6423277455865 6847.886417956837 326.70000000000016
    vertex -5956.635571363502 7119.123634896014 326.70000000000016
  endloop
endfacet
facet normal -0.0 -0.0 1.0
  outer loop
    vertex -5956.635571363502 7119.123634896014 326.70000000000016
    vertex -3735.6423277455865 6847.886417956837 326.70000000000016
    vertex -5814.435571363502 7114.323634896014 326.70000000000016
  endloop
endfacet
facet normal -0.0 -0.0 1.0
  outer loop
    vertex -5814.435571363502 7114.323634896014 326.70000000000016
    vertex -3735.6423277455865 6847.886417956837 326.70000000000016
    vertex -3735.6423277455865 7114.323634896014 326.70000000000016
  endloop
endfacet
facet normal -0.0 -0.0 1.0
  outer loop
    vertex -5814.435571363502 7119.123634896014 326.70000000000016
    vertex -5956.635571363502 7119.123634896014 326.70000000000016
    vertex -5814.435571363502 7114.323634896014 326.70000000000016
  endloop
endfacet
facet normal -1.0 0.0 0.0
  outer loop
    vertex -5956.635571363502 7114.323634896014 326.70000000000016
    vertex -5956.635571363502 6847.886417956837 0.0
    vertex -5956.635571363502 6847.886417956837 326.70000000000016
  endloop
endfacet
facet normal -1.0 0.0 0.0
  outer loop
    vertex -5956.635571363502 6847.886417956837 0.0
    vertex -5956.635571363502 7114.323634896014 326.70000000000016
    vertex -5956.635571363502 7114.323634896014 0.0
  endloop
endfacet
facet normal -0.0 -1.0 -0.0
  outer loop
    vertex -3735.6423277455865 6847.886417956837 326.70000000000016
    vertex -5956.635571363502 6847.886417956837 0.0
    vertex -3735.6423277455865 6847.886417956837 0.0
  endloop
endfacet
facet normal -0.0 -1.0 -0.0
  outer loop
    vertex -5956.635571363502 6847.886417956837 0.0
    vertex -3735.6423277455865 6847.886417956837 326.70000000000016
    vertex -5956.635571363502 6847.886417956837 326.70000000000016
  endloop
endfacet
facet normal 0.0 -1.0 0.0
  outer loop
    vertex -3735.6423277455865 7119.123634896014 326.70000000000016
    vertex -5956.635571363502 7119.123634896014 0.0
    vertex -3735.6423277455865 7119.123634896014 0.0
  endloop
endfacet
facet normal 0.0 -1.0 0.0
  outer loop
    vertex -5956.635571363502 7119.123634896014 0.0
    vertex -3735.6423277455865 7119.123634896014 326.70000000000016
    vertex -5956.635571363502 7119.123634896014 326.70000000000016
  endloop
endfacet
facet normal 0.0 -1.0 0.0
  outer loop
    vertex -5956.635571363502 7119.123634896014 326.70000000000016
    vertex -3735.6423277455865 7119.123634896014 326.70000000000016
    vertex -5814.435571363502 7119.123634896014 326.70000000000016
  endloop
endfacet
facet normal 1.0 -0.0 -0.0
  outer loop
    vertex -3735.6423277455865 7119.123634896014 0.0
    vertex -3735.6423277455865 6847.886417956837 326.70000000000016
    vertex -3735.6423277455865 6847.886417956837 0.0
  endloop
endfacet
facet normal 1.0 -0.0 -0.0
  outer loop
    vertex -3735.6423277455865 6847.886417956837 326.70000000000016
    vertex -3735.6423277455865 7119.123634896014 0.0
    vertex -3735.6423277455865 7114.323634896014 326.70000000000016
  endloop
endfacet
facet normal 1.0 -0.0 -0.0
  outer loop
    vertex -3735.6423277455865 7114.323634896014 326.70000000000016
    vertex -3735.6423277455865 7119.123634896014 0.0
    vertex -3735.6423277455865 7119.123634896014 326.70000000000016
  endloop
endfacet
endsolid thesis3
