solid thesis31
facet normal -0.0 1.0 -0.0
  outer loop
    vertex -6232.521024199281 12645.024702270162 2082.0999999999995
    vertex -6136.569649509058 12645.024702270162 326.7000000000002
    vertex -6232.521024199281 12645.024702270162 326.7000000000002
  endloop
endfacet
facet normal -0.0 1.0 -0.0
  outer loop
    vertex -6136.569649509058 12645.024702270162 326.7000000000002
    vertex -6232.521024199281 12645.024702270162 2082.0999999999995
    vertex -6136.569649509058 12645.024702270162 2082.0999999999995
  endloop
endfacet
facet normal 0.0 -1.0 0.0
  outer loop
    vertex -6136.569649509058 12925.524702270162 2082.0999999999995
    vertex -6232.521024199281 12925.524702270162 326.7000000000002
    vertex -6136.569649509058 12925.524702270162 326.7000000000002
  endloop
endfacet
facet normal 0.0 -1.0 0.0
  outer loop
    vertex -6232.521024199281 12925.524702270162 326.7000000000002
    vertex -6136.569649509058 12925.524702270162 2082.0999999999995
    vertex -6232.521024199281 12925.524702270162 2082.0999999999995
  endloop
endfacet
facet normal -0.0 -0.0 1.0
  outer loop
    vertex -6136.569649509058 12645.024702270162 326.7000000000002
    vertex -6232.521024199281 12925.524702270162 326.7000000000002
    vertex -6232.521024199281 12645.024702270162 326.7000000000002
  endloop
endfacet
facet normal -0.0 -0.0 1.0
  outer loop
    vertex -6232.521024199281 12925.524702270162 326.7000000000002
    vertex -6136.569649509058 12645.024702270162 326.7000000000002
    vertex -6136.569649509058 12925.524702270162 326.7000000000002
  endloop
endfacet
facet normal 0.0 0.0 -1.0
  outer loop
    vertex -3742.069649509058 13027.37031221235 0.0
    vertex -6136.569649509058 12555.570312212349 0.0
    vertex -6136.569649509058 13027.37031221235 0.0
  endloop
endfacet
facet normal 0.0 0.0 -1.0
  outer loop
    vertex -6136.569649509058 12555.570312212349 0.0
    vertex -3742.069649509058 13027.37031221235 0.0
    vertex -3742.069649509058 12555.570312212349 0.0
  endloop
endfacet
facet normal -0.0 -0.0 1.0
  outer loop
    vertex -3742.069649509058 12555.570312212349 326.7000000000002
    vertex -6136.569649509058 12645.024702270162 326.7000000000002
    vertex -6136.569649509058 12555.570312212349 326.7000000000002
  endloop
endfacet
facet normal -0.0 -0.0 1.0
  outer loop
    vertex -6136.569649509058 12645.024702270162 326.7000000000002
    vertex -3742.069649509058 12555.570312212349 326.7000000000002
    vertex -6136.569649509058 12925.524702270162 326.7000000000002
  endloop
endfacet
facet normal -0.0 -0.0 1.0
  outer loop
    vertex -6136.569649509058 12925.524702270162 326.7000000000002
    vertex -3742.069649509058 12555.570312212349 326.7000000000002
    vertex -6136.569649509058 13027.37031221235 326.7000000000002
  endloop
endfacet
facet normal -0.0 -0.0 1.0
  outer loop
    vertex -6136.569649509058 13027.37031221235 326.7000000000002
    vertex -3742.069649509058 12555.570312212349 326.7000000000002
    vertex -3742.069649509058 13027.37031221235 326.7000000000002
  endloop
endfacet
facet normal -0.0 -0.9999999999999999 -0.0
  outer loop
    vertex -3742.069649509058 12555.570312212349 326.7000000000002
    vertex -6136.569649509058 12555.570312212349 0.0
    vertex -3742.069649509058 12555.570312212349 0.0
  endloop
endfacet
facet normal -0.0 -0.9999999999999999 -0.0
  outer loop
    vertex -6136.569649509058 12555.570312212349 0.0
    vertex -3742.069649509058 12555.570312212349 326.7000000000002
    vertex -6136.569649509058 12555.570312212349 326.7000000000002
  endloop
endfacet
facet normal -0.0 0.9999999999999999 0.0
  outer loop
    vertex -6136.569649509058 13027.37031221235 326.7000000000002
    vertex -3742.069649509058 13027.37031221235 0.0
    vertex -6136.569649509058 13027.37031221235 0.0
  endloop
endfacet
facet normal -0.0 0.9999999999999999 0.0
  outer loop
    vertex -3742.069649509058 13027.37031221235 0.0
    vertex -6136.569649509058 13027.37031221235 326.7000000000002
    vertex -3742.069649509058 13027.37031221235 326.7000000000002
  endloop
endfacet
facet normal 1.0 -0.0 -0.0
  outer loop
    vertex -6136.569649509058 13027.37031221235 0.0
    vertex -6136.569649509058 12555.570312212349 326.7000000000002
    vertex -6136.569649509058 12555.570312212349 0.0
  endloop
endfacet
facet normal 1.0 -0.0 -0.0
  outer loop
    vertex -6136.569649509058 12555.570312212349 326.7000000000002
    vertex -6136.569649509058 13027.37031221235 0.0
    vertex -6136.569649509058 12645.024702270162 326.7000000000002
  endloop
endfacet
facet normal 1.0 -0.0 -0.0
  outer loop
    vertex -6136.569649509058 12645.024702270162 326.7000000000002
    vertex -6136.569649509058 13027.37031221235 0.0
    vertex -6136.569649509058 12925.524702270162 326.7000000000002
  endloop
endfacet
facet normal 1.0 -0.0 -0.0
  outer loop
    vertex -6136.569649509058 12925.524702270162 326.7000000000002
    vertex -6136.569649509058 13027.37031221235 0.0
    vertex -6136.569649509058 13027.37031221235 326.7000000000002
  endloop
endfacet
facet normal 1.0 0.0 0.0
  outer loop
    vertex -3742.069649509058 13027.37031221235 0.0
    vertex -3742.069649509058 12555.570312212349 326.7000000000002
    vertex -3742.069649509058 12555.570312212349 0.0
  endloop
endfacet
facet normal 1.0 0.0 0.0
  outer loop
    vertex -3742.069649509058 12555.570312212349 326.7000000000002
    vertex -3742.069649509058 13027.37031221235 0.0
    vertex -3742.069649509058 13027.37031221235 326.7000000000002
  endloop
endfacet
facet normal 1.0 -0.0 -0.0
  outer loop
    vertex -6136.569649509058 14052.825150252693 0.0
    vertex -6136.569649509058 13027.37031221235 326.7000000000002
    vertex -6136.569649509058 13027.37031221235 0.0
  endloop
endfacet
facet normal 1.0 -0.0 -0.0
  outer loop
    vertex -6136.569649509058 13027.37031221235 326.7000000000002
    vertex -6136.569649509058 12925.524702270162 2082.0999999999995
    vertex -6136.569649509058 12925.524702270162 326.7000000000002
  endloop
endfacet
facet normal 1.0 -0.0 -0.0
  outer loop
    vertex -6136.569649509058 12925.524702270162 2082.0999999999995
    vertex -6136.569649509058 13027.37031221235 326.7000000000002
    vertex -6136.569649509058 14052.825150252693 2082.099999999999
  endloop
endfacet
facet normal 1.0 -0.0 -0.0
  outer loop
    vertex -6136.569649509058 14052.825150252693 2082.099999999999
    vertex -6136.569649509058 13027.37031221235 326.7000000000002
    vertex -6136.569649509058 14052.825150252693 0.0
  endloop
endfacet
facet normal 0.0 0.0 -1.0
  outer loop
    vertex -6136.569649509058 14052.825150252693 0.0
    vertex -8542.069649509058 11603.925150252695 0.0
    vertex -8542.069649509058 14052.825150252693 0.0
  endloop
endfacet
facet normal 0.0 0.0 -1.0
  outer loop
    vertex -8542.069649509058 11603.925150252695 0.0
    vertex -6136.569649509058 14052.825150252693 0.0
    vertex -6136.569649509058 11603.925150252695 0.0
  endloop
endfacet
facet normal 0.0 0.0 -1.0
  outer loop
    vertex -6136.569649509058 11603.925150252695 0.0
    vertex -6136.569649509058 14052.825150252693 0.0
    vertex -6136.569649509058 13027.37031221235 0.0
  endloop
endfacet
facet normal 0.0 0.0 -1.0
  outer loop
    vertex -6136.569649509058 11603.925150252695 0.0
    vertex -6136.569649509058 13027.37031221235 0.0
    vertex -6136.569649509058 12555.570312212349 0.0
  endloop
endfacet
facet normal 0.0 -1.0 0.0
  outer loop
    vertex -6136.569649509058 11603.925150252695 2082.099999999999
    vertex -8542.069649509058 11603.925150252695 0.0
    vertex -6136.569649509058 11603.925150252695 0.0
  endloop
endfacet
facet normal 0.0 -1.0 0.0
  outer loop
    vertex -8542.069649509058 11603.925150252695 0.0
    vertex -6136.569649509058 11603.925150252695 2082.099999999999
    vertex -8542.069649509058 11603.925150252695 2082.099999999999
  endloop
endfacet
facet normal 1.0 -0.0 -0.0
  outer loop
    vertex -6136.569649509058 12555.570312212349 0.0
    vertex -6136.569649509058 11603.925150252695 2082.099999999999
    vertex -6136.569649509058 11603.925150252695 0.0
  endloop
endfacet
facet normal 1.0 -0.0 -0.0
  outer loop
    vertex -6136.569649509058 11603.925150252695 2082.099999999999
    vertex -6136.569649509058 12555.570312212349 0.0
    vertex -6136.569649509058 12555.570312212349 326.7000000000002
  endloop
endfacet
facet normal 1.0 -0.0 -0.0
  outer loop
    vertex -6136.569649509058 11603.925150252695 2082.099999999999
    vertex -6136.569649509058 12555.570312212349 326.7000000000002
    vertex -6136.569649509058 12645.024702270162 2082.0999999999995
  endloop
endfacet
facet normal 1.0 -0.0 -0.0
  outer loop
    vertex -6136.569649509058 12645.024702270162 2082.0999999999995
    vertex -6136.569649509058 12555.570312212349 326.7000000000002
    vertex -6136.569649509058 12645.024702270162 326.7000000000002
  endloop
endfacet
facet normal -1.0 0.0 0.0
  outer loop
    vertex -8542.069649509058 14052.825150252693 2082.099999999999
    vertex -8542.069649509058 11603.925150252695 0.0
    vertex -8542.069649509058 11603.925150252695 2082.099999999999
  endloop
endfacet
facet normal -1.0 0.0 0.0
  outer loop
    vertex -8542.069649509058 11603.925150252695 0.0
    vertex -8542.069649509058 14052.825150252693 2082.099999999999
    vertex -8542.069649509058 14052.825150252693 0.0
  endloop
endfacet
facet normal -1.0 0.0 0.0
  outer loop
    vertex -6232.521024199281 13956.873775562472 2082.099999999999
    vertex -6232.521024199281 12925.524702270162 326.7000000000002
    vertex -6232.521024199281 12925.524702270162 2082.0999999999995
  endloop
endfacet
facet normal -1.0 0.0 0.0
  outer loop
    vertex -6232.521024199281 12925.524702270162 326.7000000000002
    vertex -6232.521024199281 13956.873775562472 2082.099999999999
    vertex -6232.521024199281 13956.873775562472 326.69999999999965
  endloop
endfacet
facet normal -0.0 1.0 -0.0
  outer loop
    vertex -8542.069649509058 14052.825150252693 2082.099999999999
    vertex -6136.569649509058 14052.825150252693 0.0
    vertex -8542.069649509058 14052.825150252693 0.0
  endloop
endfacet
facet normal -0.0 1.0 -0.0
  outer loop
    vertex -6136.569649509058 14052.825150252693 0.0
    vertex -8542.069649509058 14052.825150252693 2082.099999999999
    vertex -6136.569649509058 14052.825150252693 2082.099999999999
  endloop
endfacet
facet normal -6.237345270476183e-17 2.2291800004750435e-18 1.0
  outer loop
    vertex -8542.069649509058 11603.925150252695 2082.099999999999
    vertex -8446.118274818835 11699.876524942916 2082.099999999999
    vertex -8542.069649509058 14052.825150252693 2082.099999999999
  endloop
endfacet
facet normal -6.237345270476183e-17 2.2291800004750435e-18 1.0
  outer loop
    vertex -8446.118274818835 11699.876524942916 2082.099999999999
    vertex -8542.069649509058 11603.925150252695 2082.099999999999
    vertex -6136.569649509058 11603.925150252695 2082.099999999999
  endloop
endfacet
facet normal -6.237345270476183e-17 2.2291800004750435e-18 1.0
  outer loop
    vertex -8446.118274818835 11699.876524942916 2082.099999999999
    vertex -6136.569649509058 11603.925150252695 2082.099999999999
    vertex -6232.521024199281 11699.876524942916 2082.099999999999
  endloop
endfacet
facet normal -6.237345270476183e-17 2.2291800004750435e-18 1.0
  outer loop
    vertex -6232.521024199281 11699.876524942916 2082.099999999999
    vertex -6136.569649509058 11603.925150252695 2082.099999999999
    vertex -6232.521024199281 12645.024702270162 2082.0999999999995
  endloop
endfacet
facet normal -6.237345270476183e-17 2.2291800004750435e-18 1.0
  outer loop
    vertex -6232.521024199281 12645.024702270162 2082.0999999999995
    vertex -6136.569649509058 11603.925150252695 2082.099999999999
    vertex -6136.569649509058 12645.024702270162 2082.0999999999995
  endloop
endfacet
facet normal -6.237345270476183e-17 2.2291800004750435e-18 1.0
  outer loop
    vertex -6136.569649509058 12925.524702270162 2082.0999999999995
    vertex -6232.521024199281 13956.873775562472 2082.099999999999
    vertex -6232.521024199281 12925.524702270162 2082.0999999999995
  endloop
endfacet
facet normal -6.237345270476183e-17 2.2291800004750435e-18 1.0
  outer loop
    vertex -8542.069649509058 14052.825150252693 2082.099999999999
    vertex -8446.118274818835 13956.873775562472 2082.099999999999
    vertex -6136.569649509058 14052.825150252693 2082.099999999999
  endloop
endfacet
facet normal -6.237345270476183e-17 2.2291800004750435e-18 1.0
  outer loop
    vertex -8446.118274818835 13956.873775562472 2082.099999999999
    vertex -8542.069649509058 14052.825150252693 2082.099999999999
    vertex -8446.118274818835 11699.876524942916 2082.099999999999
  endloop
endfacet
facet normal -6.237345270476183e-17 2.2291800004750435e-18 1.0
  outer loop
    vertex -6136.569649509058 14052.825150252693 2082.099999999999
    vertex -8446.118274818835 13956.873775562472 2082.099999999999
    vertex -6232.521024199281 13956.873775562472 2082.099999999999
  endloop
endfacet
facet normal -6.237345270476183e-17 2.2291800004750435e-18 1.0
  outer loop
    vertex -6136.569649509058 14052.825150252693 2082.099999999999
    vertex -6232.521024199281 13956.873775562472 2082.099999999999
    vertex -6136.569649509058 12925.524702270162 2082.0999999999995
  endloop
endfacet
facet normal 0.0 1.0 0.0
  outer loop
    vertex -8446.118274818835 11699.876524942916 2082.099999999999
    vertex -6232.521024199281 11699.876524942916 326.69999999999965
    vertex -8446.118274818835 11699.876524942916 326.69999999999965
  endloop
endfacet
facet normal 0.0 1.0 0.0
  outer loop
    vertex -6232.521024199281 11699.876524942916 326.69999999999965
    vertex -8446.118274818835 11699.876524942916 2082.099999999999
    vertex -6232.521024199281 11699.876524942916 2082.099999999999
  endloop
endfacet
facet normal -1.0 0.0 0.0
  outer loop
    vertex -6232.521024199281 12645.024702270162 2082.0999999999995
    vertex -6232.521024199281 11699.876524942916 326.69999999999965
    vertex -6232.521024199281 11699.876524942916 2082.099999999999
  endloop
endfacet
facet normal -1.0 0.0 0.0
  outer loop
    vertex -6232.521024199281 11699.876524942916 326.69999999999965
    vertex -6232.521024199281 12645.024702270162 2082.0999999999995
    vertex -6232.521024199281 12645.024702270162 326.7000000000002
  endloop
endfacet
facet normal -1.3040317447544648e-16 4.847249942119449e-18 1.0
  outer loop
    vertex -6232.521024199281 11699.876524942916 326.69999999999965
    vertex -8446.118274818835 13956.873775562472 326.69999999999965
    vertex -8446.118274818835 11699.876524942916 326.69999999999965
  endloop
endfacet
facet normal -1.3040317447544648e-16 4.847249942119449e-18 1.0
  outer loop
    vertex -8446.118274818835 13956.873775562472 326.69999999999965
    vertex -6232.521024199281 11699.876524942916 326.69999999999965
    vertex -6232.521024199281 13956.873775562472 326.69999999999965
  endloop
endfacet
facet normal -1.3040317447544648e-16 4.847249942119449e-18 1.0
  outer loop
    vertex -6232.521024199281 13956.873775562472 326.69999999999965
    vertex -6232.521024199281 11699.876524942916 326.69999999999965
    vertex -6232.521024199281 12645.024702270162 326.7000000000002
  endloop
endfacet
facet normal -1.3040317447544648e-16 4.847249942119449e-18 1.0
  outer loop
    vertex -6232.521024199281 13956.873775562472 326.69999999999965
    vertex -6232.521024199281 12645.024702270162 326.7000000000002
    vertex -6232.521024199281 12925.524702270162 326.7000000000002
  endloop
endfacet
facet normal 0.9999999999999999 -0.0 0.0
  outer loop
    vertex -8446.118274818835 13956.873775562472 326.69999999999965
    vertex -8446.118274818835 11699.876524942916 2082.099999999999
    vertex -8446.118274818835 11699.876524942916 326.69999999999965
  endloop
endfacet
facet normal 0.9999999999999999 -0.0 0.0
  outer loop
    vertex -8446.118274818835 11699.876524942916 2082.099999999999
    vertex -8446.118274818835 13956.873775562472 326.69999999999965
    vertex -8446.118274818835 13956.873775562472 2082.099999999999
  endloop
endfacet
facet normal 0.0 -1.0 0.0
  outer loop
    vertex -6232.521024199281 13956.873775562472 2082.099999999999
    vertex -8446.118274818835 13956.873775562472 326.69999999999965
    vertex -6232.521024199281 13956.873775562472 326.69999999999965
  endloop
endfacet
facet normal 0.0 -1.0 0.0
  outer loop
    vertex -8446.118274818835 13956.873775562472 326.69999999999965
    vertex -6232.521024199281 13956.873775562472 2082.099999999999
    vertex -8446.118274818835 13956.873775562472 2082.099999999999
  endloop
endfacet
endsolid thesis31
